<?xml version="1.0" encoding="UTF-8"?><svg id="Lager_2" xmlns="http://www.w3.org/2000/svg" viewBox="0 0 617.49 644.18"><defs><style>.cls-1{fill:none;}.cls-2{fill:#eaeaea;}.cls-3{fill:#c63325;}.cls-4{fill:#9c9b9b;}.cls-5{fill:#e63520;}.cls-6{fill:#2dacd4;}.cls-7{fill:#eb5852;}.cls-8{fill:#6fc8e6;}.cls-9{fill:#44bff0;}.cls-10{fill:#fdfdfd;}</style></defs><g id="_3d"><path d="M161.61,252.33l2.47-12.97s-.11-7.04,7.86-8.93,22.29-5.49,22.29-5.49l17.97-4.47s.95-1.14,6.18-1.24,112.41-3.61,112.41-3.61l107.08-3.89h4.37s4.46.19,4.46,5.92.68,33.48.68,33.48c0,0-6.6.87-6.79,6.31s-1.36,18.05-11.64,19.5-47.68,2.49-47.68,2.49c0,0-23.65,2.71-28.86-1.19-2.39-1.84-9.87-13.34-13.02-21.05-2.6-3.69-3.25-5.97-8.03-5.32s-7.49,1.63-9.33,6.51c-1.84,4.88-4.77,14.32-8.24,17.47-1.19,1.52-4.03,5.97-9.28,6.62s-22.18,1.74-25.54,1.84-25.71.98-25.71.98l-18.55.65s-5.97.54-8.68-3.04-3.02-3.38-4.01-7.49c-1.07-4.43-1.63-12.15-4.99-13.13s-15.51-5.97-15.51-5.97l-20.94-9.44-6.51,9.98-3.36.33s-10.11.62-9.07-4.86Z"/><path class="cls-4" d="M177.06,245.8s-3.89-.63-5.24,1.48-3.09,6.51-3.09,6.51c0,0-.42,1.18,1.56,1.23s2.58,0,2.58,0l5.03-8.46s-.04-.93-.85-.76Z"/><path class="cls-10" d="M166.57,254.26s-2.82.24-2.23-3.23,2-10.82,2-10.82c0,0-.06-5.47,4.76-6.88s34.8-9.04,34.8-9.04l8.29-2.52h3.88l63.35-2.52,95.76-2.94,63.35-1.99s3.36-1.57,3.78,5.03c.42,6.61.94,29.48.94,29.48,0,0-7.34,3.13-7.55,9.32-.21,6.19-2.1,12.48-4.82,14.16s-5.14,3.36-11.54,3.57-61.46,2.2-61.46,2.2c0,0-4.21.67-9.72-5.64-1.15-2.2-8.73-16.07-8.73-16.07,0,0-.94-7.03-11.54-6.5-2.31.52-6.92.63-9.12,6.29s-9.54,21.19-12.06,22.44-5.14,2.73-20.87,2.94c-4.61.31-50.97,2.52-50.97,2.52,0,0-8.39.21-10.59-4.2-1.15-1.26-3.04-8.29-3.57-13.74-.73-2.83-2.73-5.35-6.29-5.98-3.36-.94-28-12.17-28-12.17l-7.55-3.57s-5.14-2.41-9.75.21c-.84,1.68-5.14,7.82-4.51,9.63Z"/><path class="cls-2" d="M165.49,253.17s1.02-11.38,3.66-16.77c1.85-1.49,7.7-3.19,11.02-3.88s31.44-8.24,31.44-8.24c0,0,3.07-1.46,3.12,1.02s1.46,34.22,1.46,34.22l-.2.5-35.16-15.61s-7.46-2.22-9.13-.11-4.74,7.74-4.74,7.74c0,0-1.23,3.33-1.47,1.11Z"/><path d="M233.01,241.67s-.14-9.37,12.8-10.01c12.94-.64,35.89-1.22,35.89-1.22l15.52.43s7.58.93,8.37,9.51c.79,8.58.57,20.38.57,20.38,0,0,.21,4.36-2.36,7.01s-3.15,3.57-8.87,4.22-43.33,1.86-43.33,1.86h-9.94s-3.22-.14-5-3-3.22-6.01-3.22-8.87-.43-20.31-.43-20.31Z"/><path class="cls-5" d="M234.58,242.55s-.14-8.57,12.25-9.16,34.36-1.11,34.36-1.11l14.85.39s7.25.85,8.01,8.71.55,18.65.55,18.65c0,0,.21,3.99-2.26,6.41s-3.01,3.27-8.49,3.86-41.47,1.7-41.47,1.7h-9.51s-3.08-.13-4.79-2.75-3.08-5.5-3.08-8.12-.41-18.59-.41-18.59Z"/><path class="cls-3" d="M238.07,269.26s-3.64-18,8.02-27.31,15.79-9.33,23.51-9.36c-4.86.14-27.79.04-30.75,2.97-2.99,2.96-4.11,2.62-4.16,5.97-.05,3.5-.81,25.07,3.38,27.74Z"/><path class="cls-7" d="M294.74,232.64s14.68,13.61-12.25,38.3c11.36-.63,15.66.25,19.84-4.49,1.48-2.23,2.54-4.39,2.41-7.03s-.7-18.04-.7-18.04c0,0-.65-8.51-9.3-8.74Z"/><path d="M353.61,235.09s-.14-9.37,12.8-10.01,35.89-1.22,35.89-1.22l15.52.43s7.58.93,8.37,9.51c.79,8.58.57,20.38.57,20.38,0,0,.21,4.36-2.36,7.01s-3.15,3.57-8.87,4.22-43.33,1.86-43.33,1.86h-9.94s-3.22-.14-5-3-3.22-6.01-3.22-8.87-.43-20.31-.43-20.31Z"/><path class="cls-9" d="M355.17,235.97s-.14-8.57,12.25-9.16c12.39-.59,34.36-1.11,34.36-1.11l14.85.39s7.25.85,8.01,8.71.55,18.65.55,18.65c0,0,.21,3.99-2.26,6.41s-3.01,3.27-8.49,3.86-41.47,1.7-41.47,1.7h-9.51s-3.08-.13-4.79-2.75-3.08-5.5-3.08-8.12-.41-18.59-.41-18.59Z"/><path class="cls-6" d="M358.66,262.68s-3.64-18,8.02-27.31,15.79-9.33,23.51-9.36c-4.86.14-27.79.04-30.75,2.97-2.99,2.96-4.11,2.62-4.16,5.97-.05,3.5-.81,25.07,3.38,27.74Z"/><path class="cls-8" d="M415.34,226.05s14.68,13.61-12.25,38.3c11.36-.63,15.66.25,19.84-4.49,1.48-2.23,2.54-4.39,2.41-7.03s-.7-18.04-.7-18.04c0,0-.65-8.51-9.3-8.74Z"/><rect class="cls-1" width="617.49" height="644.18"/></g></svg>