<svg xmlns="http://www.w3.org/2000/svg" viewBox="0 0 100 100">
  <defs>
    <linearGradient id="goldGrad" x1="0%" y1="0%" x2="100%" y2="100%">
      <stop offset="0%" style="stop-color:#fff4a3"/>
      <stop offset="50%" style="stop-color:#ffd700"/>
      <stop offset="100%" style="stop-color:#b8860b"/>
    </linearGradient>
    <linearGradient id="goldShine" x1="0%" y1="0%" x2="100%" y2="0%">
      <stop offset="0%" style="stop-color:white;stop-opacity:0"/>
      <stop offset="50%" style="stop-color:white;stop-opacity:0.6"/>
      <stop offset="100%" style="stop-color:white;stop-opacity:0"/>
    </linearGradient>
  </defs>
  <circle cx="50" cy="50" r="45" fill="#1a1a2e" stroke="#ffd700" stroke-width="3"/>
  <!-- Shield/skin shape -->
  <path d="M50 15 L75 30 L75 55 Q75 80 50 90 Q25 80 25 55 L25 30 Z" fill="url(#goldGrad)"/>
  <path d="M50 15 L75 30 L75 55 Q75 80 50 90 Q25 80 25 55 L25 30 Z" fill="url(#goldShine)"/>
  <!-- I for gold/first tier -->
  <text x="50" y="60" font-family="serif" font-size="24" font-weight="bold" fill="#1a1a2e" text-anchor="middle">I</text>
  <!-- Crown/star accent -->
  <polygon points="50,20 53,28 62,28 55,33 58,42 50,37 42,42 45,33 38,28 47,28" fill="#fff4a3"/>
</svg>
