<?xml version="1.0" encoding="UTF-8"?><svg id="Lager_2" xmlns="http://www.w3.org/2000/svg" viewBox="0 0 358.65 358.65"><defs><style>.cls-1{fill:none;}.cls-2{fill:#d7cbbf;}.cls-3{fill:#d5cabd;}.cls-4{fill:#787571;}.cls-5{fill:#d5cabe;}.cls-6{fill:#fcf3e2;}.cls-7{fill:#746f6f;}.cls-8{fill:#a09790;}.cls-9{fill:#bcb3a7;}.cls-10{fill:#fdfaf7;}.cls-11{fill:#fdfbf7;}.cls-12{fill:#9d958e;}.cls-13{fill:#fdfaf6;}.cls-14{fill:#fdfbf6;}</style></defs><g id="Lager_1-2"><circle class="cls-6" cx="78.66" cy="93.81" r="10.37"/><ellipse class="cls-6" cx="109.68" cy="69.41" rx="11.51" ry="15.85"/><polygon class="cls-6" points="105.64 97.98 151.88 150.26 168.19 159.62 256.73 253.3 254.31 277.81 263.71 293.79 277.28 289.11 278.84 282.74 266.78 265.08 271.66 250.88 287.55 262.37 302.36 257.63 299.99 244.22 282.42 232.01 270.63 238.7 244.95 229.94 251.99 238.95 257.93 234.62 252.5 224.59 170.31 155.39 127.4 104.17 116.52 88.31 105.64 97.98"/><path d="M265.95,310.99c-15.64,2.2-30.51-9.92-35.38-24.23-2.03-5.96-1.04-10.76-1.76-16.52-.97-7.73-13.43-23.75-18.64-30.46-27.03-34.85-72.58-82.54-109.62-106.13-4.84-3.08-9.24-6.03-14.77-6.93-5.67-.92-10.81-.36-16.51-2.26-14.16-4.72-26.4-19.95-23.76-35.37,2.08-12.17,12.82-20.22,24.85-20.71.51-29.45,32.32-35.4,50.19-14.81,10.73,12.37,7.79,22.18,9.29,36.18.74,6.88,12.6,21.12,17.36,26.81,15.41,18.44,32.87,35.41,50.33,51.88,18.93,17.85,41.67,39.47,63.9,52.79,12.52,7.51,24,2.67,36.5,11.24,23.7,16.25,20.64,51.4-10.9,52.72-1.1,9.56-3.87,17.26-12.53,22.53-1.65,1-6.7,3.01-8.53,3.27ZM100.18,45.71c-15.85-2.93-30.87,12.92-22.31,27.79l-.93.5c-21.7-6.2-35.87,17.57-21.54,34.76,6.21,7.45,13.57,11.89,23.27,12.57,3.04.21,7.81-.94,10.26.18.34.16.71.9,1.04,1.05,24.97,10.81,48.85,34.29,68.24,53.18,25.08,24.42,57.94,57.79,74.44,88.61.34.64.17,2.47,1.73,3.13-1.58,8.59.34,20.1,6.05,26.96,10.61,12.75,27.76,17.67,38.41,2.33,2.71-3.91,4.4-11.5,2.81-15.99l2.09-1.39.86.51c14.51,2.42,26.95-8.92,24.57-23.77-2.79-17.41-18.56-26.17-35.08-25.45-.48-.6-3.64-.64-4.17-.51-.42.11-.6.48-.69.5-.14.03-.22.32-.35.35-.72-.49-2.72-3.08-3.13-3.14-.14-.02-.52.68-.69.7-4.52.41-38.99-27.35-44.29-31.9-22.51-19.36-44.1-40.56-64.2-62.35-9.21-9.98-29.96-31.61-31.58-44.92-.47-3.88.55-8.19.37-12.17-.65-14.56-10.28-28.77-25.18-31.52Z"/><path class="cls-6" d="M265.05,228.57l1.22,1.56c-1.79-.21-3.48.18-5.23.36-.61.06-1.46-.49-1.73-.37-.93.43-1.08,1.16,0,1.64,1.67.74,7.57-.36,9.57-.75.13-.03.21-.32.35-.35.71,1.19,1.55-.06,2.61-.16.77-.07,1.51.2,2.26.16,16.52-.72,32.29,8.04,35.08,25.45-1.61,1.66-2.28,3.97-3.75,5.73-3.99,4.79-10.84,7.2-16.97,6.52-6.84-.75-12.64-4.85-18.76-7.62-1.39,1.42,4.8,10.38,5.89,11.83.9,1.19,2.38,2.14,3.29,3.31,1.19,1.52,2.14,3.07,2.77,4.87,1.59,4.49-.1,12.08-2.81,15.99-1.45-.36-2.53.96-4,1.36-13.57,3.66-27.18-9.39-28.83-22.45-1.3-10.26-.49-14.68-6.41-24.35-11.67-19.08-34.11-40.66-49.82-57.12-22.75-23.84-49.4-54.37-77.05-71.84-.59-.37-2.1-1.48-2.26-2.2.7.27,1.39.26,2.09,0,.11.12.23.23.35.35s.22.25.35.35c1.48,1.18,2.84,1.57,4.17,2.79l1.04-1.04c-1.9-1.95-4.24-2.88-6.6-3.84-.7-.29-1.37-.46-2.09-.7.33-1.01-.91-1.4-1.56-1.77-11.56-6.7-23.48.59-34.42-8.56-7.89-6.6-13.44-21.78-3.77-29.15,6.14-4.68,9.62.9,14.6,4.02,1.79,1.12,9.04,4.99,10.77,4.71.77-.12,1.25-.48,1.74-1.06-5.4-8.69-14.43-19.17-9.12-29.95,2.59-5.27,7.01-8.19,12.15-10.59,14.9,2.75,24.53,16.95,25.18,31.52.18,3.99-.84,8.29-.37,12.17,1.62,13.31,22.37,34.93,31.58,44.92,20.1,21.79,41.69,42.99,64.2,62.35,5.3,4.56,39.76,32.32,44.29,31.9ZM111.49,60.02c-6.97-6.48-14.93-1.49-10.82,6.73,2.77,5.53,5.51,2.49,9.72,5.94,2.01,1.65,5.93,7.64,7.56,2.44,1.41-4.51-3.28-12.15-6.46-15.11ZM293.37,242.55c-2.7-2.14-11.66-6.28-13.79-1.96-.93,1.88,4.48,5.99,5.57,8.36.81,1.76.11,4.21,1.57,5.6,1.1,1.05,8.29,3.48,9.75,3.02,7.8-2.46.71-12.01-3.1-15.02ZM258.76,241.57c4.16-.34.88-5.29-.83-6.95-11.01-10.65-26.88-19.87-38.22-30.65l-21.53-19.51-1.21.18c1.59,1.76,3.48,3.29,5.06,5.05,12.04,13.45,24.49,27.13,37.81,39.34,3.37,3.08,8.35,7.57,12.15,9.92,1.18.73,5.57,2.71,6.77,2.62ZM159.47,146.32c-1.68-1.87-3.73-3.49-5.37-5.4-5.95-6.92-12.01-14.1-17.7-21.24-4.18-5.25-14.28-21.33-18.74-24.07-1.68-1.03-2.71-.78-3.69,1.08-1.18,2.23,3.72,9.21,5.15,11.14,6.79,9.12,15.27,16.71,23.52,24.39,5.03,4.68,10.29,10.05,15.63,14.29.58.46,1.34.78,1.21-.18ZM79.76,85.99c-3.24-2.05-5.74.59-6.65,3.67-1.29,4.36.99,10.13,5.23,12.03,7.55,3.39,7-7.31,4.69-11.67-.81-1.52-1.79-3.09-3.28-4.03ZM262.54,276.43c-3.84.55-5.24,4.15-2.91,7.26,2.76,3.69,7.51,6.86,12.1,4.74,4.08-1.88,4.41-6.03,1.07-8.9-1.99-1.71-7.73-3.46-10.27-3.1Z"/><path class="cls-3" d="M278.84,296.76c-10.65,15.34-27.8,10.43-38.41-2.33-5.71-6.86-7.63-18.37-6.05-26.96.29-1.56,1.87-4.33,1.94-6.08.18-4.27-8.36-12.97-10.93-16.72-.55-.8-.45-.39-1.06.18,3.67,4.84,10.38,11.5,9.19,17.93-.07.38-.13,2.1-.88,1.56-16.51-30.82-49.36-64.19-74.44-88.61-19.4-18.89-43.28-42.37-68.24-53.18,6.79-4.83,11.44-5.93,19.32-3.29.53.18.91.77,1.2.89.16.72,1.67,1.82,2.26,2.2,27.65,17.46,54.3,47.99,77.05,71.84,15.71,16.46,38.15,38.04,49.82,57.12,5.92,9.67,5.11,14.1,6.41,24.35,1.65,13.06,15.26,26.11,28.83,22.45,1.47-.4,2.55-1.72,4-1.36Z"/><path class="cls-2" d="M100.18,45.71c-5.14,2.39-9.55,5.31-12.15,10.59-5.3,10.78,3.73,21.26,9.12,29.95-.49.58-.97.94-1.74,1.06-1.74.28-8.98-3.59-10.77-4.71-4.98-3.12-8.46-8.69-14.6-4.02-9.67,7.36-4.11,22.55,3.77,29.15,10.94,9.15,22.86,1.86,34.42,8.56.64.37,1.89.76,1.56,1.77-8.03-2.65-14.36-3.07-20.87,3.44-2.45-1.12-7.22.03-10.26-.18-9.7-.68-17.06-5.12-23.27-12.57-14.33-17.19-.16-40.96,21.54-34.76l.93-.5c-8.56-14.87,6.45-30.71,22.31-27.79Z"/><path class="cls-5" d="M283.74,279.38l-3.82-4.53-1.04,1.04c-.91-1.17-2.38-2.12-3.29-3.31-1.1-1.45-7.29-10.41-5.89-11.83,6.12,2.77,11.92,6.87,18.76,7.62,6.13.67,12.98-1.73,16.97-6.52,1.47-1.76,2.14-4.07,3.75-5.73,2.38,14.85-10.06,26.19-24.57,23.77l-.86-.51Z"/><path class="cls-12" d="M111.88,118.76c-.29.64.34.98.69,1.39-.7.25-1.39.27-2.09,0-.29-.11-.67-.71-1.2-.89-7.88-2.64-12.53-1.55-19.32,3.29-.33-.14-.7-.89-1.04-1.05,6.52-6.51,12.84-6.1,20.87-3.44.72.24,1.38.41,2.09.7Z"/><path class="cls-8" d="M234.38,267.47c-1.56-.66-1.39-2.49-1.73-3.13.75.54.81-1.19.88-1.56,1.18-6.43-5.52-13.09-9.19-17.93.61-.56.51-.98,1.06-.18,2.56,3.75,11.1,12.45,10.93,16.72-.07,1.75-1.65,4.52-1.94,6.08Z"/><path class="cls-4" d="M268.87,231.01c-2,.39-7.9,1.48-9.57.75-1.09-.48-.93-1.21,0-1.64.27-.12,1.12.43,1.73.37,1.75-.17,3.44-.57,5.23-.36l-1.22-1.56c.18-.02.55-.72.69-.7.4.06,2.4,2.65,3.13,3.14Z"/><path class="cls-7" d="M283.74,279.38l-2.09,1.39c-.64-1.8-1.59-3.35-2.77-4.87l1.04-1.04,3.82,4.53Z"/><path class="cls-4" d="M274.09,230.67c-.75.03-1.49-.23-2.26-.16-1.06.09-1.89,1.35-2.61.16.09-.02.27-.39.69-.5.54-.14,3.69-.09,4.17.51Z"/><path class="cls-11" d="M258.76,241.57c-1.2.1-5.59-1.88-6.77-2.62-3.8-2.35-8.78-6.84-12.15-9.92-13.33-12.21-25.77-25.9-37.81-39.34-1.58-1.77-3.47-3.29-5.06-5.05l1.21-.18,21.53,19.51c11.34,10.78,27.21,19.99,38.22,30.65,1.72,1.66,4.99,6.61.83,6.95Z"/><path class="cls-14" d="M159.47,146.32c.13.96-.63.64-1.21.18-5.34-4.24-10.6-9.61-15.63-14.29-8.24-7.68-16.73-15.27-23.52-24.39-1.44-1.93-6.33-8.91-5.15-11.14.98-1.85,2.02-2.1,3.69-1.08,4.47,2.73,14.57,18.82,18.74,24.07,5.69,7.14,11.75,14.33,17.7,21.24,1.64,1.91,3.69,3.53,5.37,5.4Z"/><path class="cls-13" d="M293.37,242.55c3.82,3.01,10.9,12.56,3.1,15.02-1.46.46-8.65-1.97-9.75-3.02-1.46-1.39-.76-3.84-1.57-5.6-1.09-2.37-6.5-6.47-5.57-8.36,2.13-4.32,11.09-.18,13.79,1.96Z"/><path class="cls-10" d="M111.49,60.02c3.18,2.95,7.86,10.6,6.46,15.11-1.62,5.21-5.54-.79-7.56-2.44-4.21-3.45-6.95-.41-9.72-5.94-4.12-8.23,3.85-13.22,10.82-6.73Z"/><path class="cls-13" d="M262.54,276.43c2.53-.36,8.28,1.39,10.27,3.1,3.33,2.87,3.01,7.01-1.07,8.9-4.59,2.12-9.34-1.06-12.1-4.74-2.33-3.11-.93-6.71,2.91-7.26Z"/><path class="cls-13" d="M79.76,85.99c1.49.94,2.47,2.51,3.28,4.03,2.31,4.36,2.86,15.06-4.69,11.67-4.24-1.9-6.52-7.67-5.23-12.03.91-3.07,3.41-5.72,6.65-3.67Z"/><path class="cls-9" d="M111.88,118.76c2.35.96,4.7,1.88,6.6,3.84l-1.04,1.04c-1.34-1.22-2.69-1.61-4.17-2.79l.17-.51-.51.17c-.11-.12-.24-.23-.35-.35-.35-.41-.98-.75-.69-1.39Z"/><path class="cls-12" d="M113.26,120.85c-.12-.1-.23-.23-.35-.35l.51-.17-.17.51Z"/><rect class="cls-1" width="358.65" height="358.65"/></g></svg>