<?xml version="1.0" encoding="UTF-8"?><svg id="Lager_2" xmlns="http://www.w3.org/2000/svg" viewBox="0 0 358.65 358.65"><defs><style>.cls-1{fill:none;}.cls-2{fill:#95c7ec;}.cls-3{fill:#adc5e7;}.cls-4{fill:#daeef2;}.cls-5{fill:#414153;}.cls-6{fill:#46548d;}.cls-7{fill:#cddcf2;}.cls-8{fill:#a0a7d4;}.cls-9{fill:#e4edf3;}.cls-10{fill:#a5cbec;}.cls-11{fill:#27293a;}.cls-12{fill:#c2c3e3;}.cls-13{fill:#d9eef8;}.cls-14{fill:#a5b8df;}.cls-15{fill:#a2c7df;}.cls-16{fill:#8f96cb;}.cls-17{fill:#addcee;}.cls-18{fill:#fcfbfc;}.cls-19{fill:#3f4c78;}.cls-20{fill:#3f445f;}.cls-21{fill:#bbd9f2;}.cls-22{fill:#cee7f6;}.cls-23{fill:#eaf4f8;}.cls-24{fill:#d4cbe6;}.cls-25{fill:#f2f7f9;}.cls-26{fill:#8199cd;}.cls-27{fill:#e2dff0;}.cls-28{fill:#b6c3e5;}.cls-29{fill:#95bee5;}.cls-30{fill:#b3b0d8;}</style></defs><g id="Lager_1-2"><path class="cls-4" d="M40.44,134.61l21.43,31.7s101.06,118.68,115.42,122.66l8.86,3.94,55.64-60.38,69.81-82.79,8.85-14.15-8.85-11.8-46.12-41.19s-164.41-9.33-171.47,1.59c-11.35,10.92-46.22,37.12-53.57,50.41Z"/><path class="cls-5" d="M207.97,270.49c-6.66,7.08-14.61,16.17-21.82,22.43-1.56,1.35-3.39,3.52-5.53,1.97-3.6-3.42-7.5-6.52-11.2-9.84-.14-1.86,1.58.23,2.08.48.55.28,1.28.23,1.83.53,1.61.88,1.21,3.51,3.96,2.92,0-.95.29-2.37,1.57-2.36.19,1.25.88,2.52,2.37,2.36.32.5.63,1.48,1.18,1.57.91-12.89.15-25.98.4-38.93v-9.44c0-.13,0-.26,0-.39s0-.26,0-.39h.39c.46.42.84.91,1.57.78.66-9.2.39-18.5.41-27.74.02-12.35-.64-25.09-.44-37.34.03-1.79.81-3.9.43-5.87l-1.97-.23c-.06-3.25-.25-6.39-.41-9.62-.08-1.64.09-3.3.02-4.93-1.44.04-2.89-.05-4.33,0l-23.4-1.18c-13.29-1.23-26.64-1.91-39.92-3.14-.06-.08.13-.62-.03-.74-.24-.18-1.44-.03-1.94-.05-.26,0-.52,0-.79,0-.55-.73-1.88-.33-2.75-.39-.52-.04-1.05.04-1.57,0-.04,0-.09-.35-.79-.39-.9-.05-1.85-.02-2.75,0-.39-.67-1.46-.24-2.08-.48-.81-.31-1.31-1.49-2.64-1.1l.79-2.96c.95-.71,2.33-.55,1.97,1-.17.14-.29.64-.59.79-.34.96,3.16.7,3.93.8,2.81.36,5.66.88,8.46,1.17v.78c1.05-.06,2.29.32,3.15-.39.64.06,1.32-.06,1.97,0-.22.94.5.88,1.16.99,1.82.32,3.87-.16,5.53-.21.26,0,.52,0,.79,0-.22,1.27.64.66,1.37.77,1.9.3,3.95.86,5.71-.38,1.73.08,3.4.3,5.11.39,2.49.14,4.99.25,7.47.39,8.61.49,17.15.9,25.76,1.18,2.88.1,6.88,1.07,9.64,0,.18-.07.54.06.79,0v-.58s-1.57-.99-1.57-.99c-.04-.13.04-.29,0-.39-.41-1.05-.72-2.14-1.68-3.05-.21-.19-.63-.05-.68-.1-1.24-1.25-1.48-2.05-2.36-3.15l.39-1.57s.53-.07.79.28c1.5,2.05,3.72,5.94,5.33,7.56.33.33.36.56.95.41.03-.35.15-.72.39-.97,3.19-3.41,5.87-7.49,8.66-11.22.28-.38.5-.8.79-1.18,8.85-11.84,17.97-23.49,26.74-35.39l-71.57,1.18,1.18,1.96c-.12.02-.33.53-.88.35-.76-.24-.9-1.32-2.26-1.14-1.22.16-10.14,9.06-11.8,10.62-.13.13-.26.27-.39.39-.57.54-1.4,1.03-1.97,1.57l-1.19-.2,1.19-2.55c.68-.66,1.2-1.27,1.97-1.97.73,0,1.44-1,1.97-1.57.07-.07-.07-.32,0-.39.24-.26.53-.52.79-.79,1.76-1.81,4.17-3.51,5.7-5.5.3-.39.76-.5.59-1.18-2.84-.56-5.8-.72-8.65-1.18-5.88-.96-11.85-1.99-17.7-3.15-.2-.52-.75-.37-1.18-.39-.13,0-.26,0-.39,0-1.46-.7-2.66-.68-2.36-2.75.37.06.81-.06,1.18,0,.04,0,.12.28.79.39,9.78,1.6,19.65,3.17,29.5,4.33,7.13.84,14.36.47,21.63.39,11.21-.11,22.45-.54,33.61-.8,6.55-.15,13.61.46,20.07.01,9.05-.63,20.25-3.97,29.3-5.9,1.95-.42,3.95-.76,5.9-1.18,5.22-1.12,10.48-2.2,15.73-3.15.24-.92-.22-.66-.5-.9-1.84-1.58-4.4-2.83-6.49-4.11-18.07-2.13-37.31-5.61-55.54-5.22-1.31-.73-3.5-.39-5.11-.39s-3.15,0-4.72,0c-1.62-.73-4.03-.39-5.9-.39-.26,0-.52,0-.79,0-21.71-.39-41.63-.35-63.32,1.57-.65.06-1.32-.06-1.97,0-9.59.93-19.38,2.1-28.71,4.33-1.36-.35-2.72-.09-4.24-1.05-.69-.44-.44-.88-.48-.91,9.22-2.12,18.71-3.65,28.12-4.71,39.08-4.4,83.19-3.03,122.3,1.18,5.46.59,16.82,1.32,21.53,2.86,1.79.59,8.24,5.06,10.1,6.42,9.4,6.87,19.34,16.36,27.96,24.34,7.01,6.48,13.85,13.18,20.65,19.88.2.29.21.6.2.93-.07,1.38-5.33,8.41-6.53,10.03-8.26,11.16-18.11,22.41-27.1,33.08-26.52,31.48-54.58,63.23-82.79,93.2ZM262.24,94.69l-1.42-1.15c-1.48-.15-2.2,1.02-2.51,2.33l-33.43,7.27,38.93,36.78c-.79.08-2.03.12-2.75-.2-3.1-2.73-6.03-5.64-9.05-8.45-8.55-7.95-16.81-16.47-25.56-24.19-.93-.82-3.47-3.29-4.49-2.92-10.31,13.91-20.92,27.62-31.31,41.48-.26.35-.29.83-.39.97-.74.99-6.2,6.43-5.11,7.47,10.24-.51,20.47-1.4,30.67-2.36.26-.02.53.02.79,0,.81-.08,1.69-.37,1.97-.39,13.32-1.29,26.52-2.64,39.72-4.72.61-.1,1.36.09,1.97,0,.67-.1.74-.39.79-.39,1.27-.2,2.68-.08,3.93-.39l1.96.19c-1.05,1.52-2.61,1.63-4.26,2.05-.68.18-1.48-.24-1.25.9-.26.02-.53-.03-.79,0-.06-.59-1.12-.59-1.18,0-8.91.96-17.83,2.57-26.74,3.54-.64.07-1.32-.07-1.97,0-15.04,1.61-30.11,3.18-45.23,3.93.01,27.79,0,55.59,0,83.38l-.39,47.19c.9.22.64-.16.9-.49.37-.48,1.24-1.52,1.46-1.86.86-.62,1.99-.22,2.89-.47.51-.14.54-.63.65-.71,3.87-2.66,10.26-10.07,13.76-13.76,3.29-3.47,6.52-7.42,9.83-11.01,13.42-14.54,26.63-29.21,39.72-44.05,13.31-15.09,26.58-30.21,39.53-45.61,6.95-8.26,13.69-17.59,20.64-25.57.87-1,2.27-1.29,3.54-1.18l-1.96-1.18c.21-.03.48.1.69-.09l3.63-5.42c-5.83.8-11.79,4.17-17.7,3.93-1.73-.07-2.15-.43-3.54-.79,2.18-1.06,20.04-4.89,20.05-6.1-.6-.85-1.69-1.48-2.35-2.16l-.39-.39c-.13-.13-.26-.26-.39-.39-12.82-13.18-26.85-25.31-40.92-37.16-.41-.29-.83-.21-1.29-.18-2.95.17-8.47,1.67-11.67,2.34ZM184.76,243.74c-.59-.3-1.57,1.07-1.57,1.38v6.49h1.57v-7.87Z"/><path class="cls-18" d="M93.52,83.29s-.21.48.48.91c1.52.96,2.87.7,4.24,1.05,5.26,1.35,9.51,1.52,14.64,2.46.73.13,1.99.25,2.27,1.07-4.83.77-9.82.8-14.63,1.69-1.97.36-4.9.68-6.21,2.24-.71.08-1.95.72-2.49,1.16-.37.31-.23.76-.27.8-6.39,6.53-4.86,17.87-6.7,26.34h-1.17c.3-1.58.12-3.24-.05-4.86-.78-7.29-.88-12.9-4.67-19.12-.18-.29.02-1.38-.59-1.98-.51-.5-1.26-.29-1.38-.38-.06-.05-.04-.85-.8-1.36-4.81-3.22-12.62-3.27-18.23-3.8l-3.78-.93c7.58-2.87,18.28-1.08,24.19-7.67,4.6-5.12,4.52-18.45,5.3-25.18l1.2.17.31.48c1.06,6.67.74,17.84,4.38,23.54,1.22,1.91,2.44,2.28,3.94,3.34Z"/><path class="cls-5" d="M78.97,97.05c-.78.93-1.83,1.58-2.75,2.36-.58.49-1.26.8-1.57,1.57-1.19.91-1.83,1.95-2.75,2.75-9.3,8.09-18.69,17.06-27.15,26.14-1.42,1.53-2.63,3.37-4.31,4.73l3.53,1.77,14.94,4.33-1.57,1.18c-.12-.07-1.88-.14-2.75-.39-.31-.09-.57-.26-1.18-.39-.12-.03-.27.03-.39,0-.15-.03-.63-.27-1.18-.39-2.07-.46-4.58-.61-6.69-1.18-.29-.08-2.9-1.83-2.75-.6,13.96,17.69,28.32,35.08,43.05,52.12,3.63,4.2,13.82,17.24,17.51,19.66,0,.77.53,1.09.98,1.58,6,6.49,12.02,13.06,17.9,19.66.38.43.84.8,1.18,1.18,1.44,1.62,5.55,5.9,6.29,7.47.1.22-.07.84,0,1.18l.78-.39c.46.44.74.69,1.18,1.18-.8.81-.82,2.07-.79,3.15-16.43-17.6-32.48-35.61-48.18-53.87-15.73-18.3-31.36-36.78-45.66-56.23l.21-1.4c12.99-13.62,26.39-26.67,40.14-39.51.12.09.87-.12,1.38.38.62.6.41,1.69.59,1.98Z"/><path class="cls-20" d="M134.43,245.71c4.01,4.29,8.1,8.39,12.19,12.58,8.2,8.42,16.28,16.82,25.17,24.78,1.51,1.35,3.04,3.31,4.91,4.33.59-.3-.08-.95-.27-1.3-.56-.99-1.26-2.07-1.89-3.03-.57-1.51-.16-3.32-.39-4.72,1.83,2.19,3.58,4.68,5.11,7.08.66,1.04,1.22,2.38,1.97,3.54-1.48.16-2.18-1.1-2.37-2.36-1.28-.01-1.57,1.41-1.57,2.36-2.75.59-2.35-2.04-3.96-2.92-.55-.3-1.28-.25-1.83-.53-.49-.25-2.22-2.34-2.08-.48-5.18-4.65-10.39-9.65-15.34-14.55-8.1-8.02-15.82-16.45-23.6-24.78-.03-1.07-.02-2.34.79-3.15.97,1.06,2.18,2.12,3.15,3.15Z"/><path class="cls-17" d="M261.45,148.97c1.23-.11,2.55-.69,3.93-.39v1.18c-1.1,1.1-3.09,5.18-4,6.81-4.07,7.32-7.68,14.95-11.73,22.29-1.63,2.96-3.25,6.42-4.72,9.05-3.21,5.75-6.91,11.53-10.23,17.3-1.81.64-2.7,3.34-3.85,5-3.24,4.69-6.74,9.48-9.47,14.52-.36.66-2.16,4.1-2.24,4.46-.15.68.18,1.31.22,1.97-.94,1.62-4.38,7.02-4.72,8.26-.99.2-.84-.45-1.06-1.09-1.64-4.84-2.27-10.03-4.45-14.64l7.47-27.53c6.1,3.21,5.42,3.58,8.74,9.15.26.44.26.69.89.69.4,0,2.83-5.55,4.14-6.88.84-.85,4.65-2.88,4.71-3.16.17-.72-2.62-1.97-3.33-2.56-2.58-2.13-4.24-5.11-5.32-8.25l-.81.24c-1.3,2.54-2.93,5.92-5.35,7.55-.93.63-2.05.81-2.88,1.25l4.33-18.09,22.8,10.62c.07-1.29-.47-2.46-.88-3.64-3-8.79-7.07-17.29-10.15-26.03-.43-1.22-1.39-3.4-.77-4.54,8.92-.97,17.83-2.58,26.74-3.54.39-.04.79.04,1.18,0,.26-.03.53.02.79,0Z"/><path class="cls-25" d="M252.01,131.27c-1.15-.21-.86.56-.69,1.3.35,1.53,1.19,1.02,2.08,1.84s1.27,2.39,1.88,3.04c.78.82,2.97.76,2.59,2.22-.41,1.56-5.83,1.2-7.45,1.63-.41.11-1.31.4-.77.98,1.22,1.29,12.01-.61,8.65,4.33-13.2,2.08-26.4,3.43-39.72,4.72-.63.02-1.63-.24-1.97.39-.26.02-.53-.02-.79,0v-.79c3.86-.48,14.37-7.85,18.36-10.15,5.09-2.94,10.37-5.61,15.5-8.49,1.02-1.23-.01-1.86-1.31-1.73-3.01.32-10.18,2.89-13.67,3.85.24-1.11-.66-.88-1.37-.79-1.55.19-2.72,1.25-4.21,1.71-1.57.48-3.05.46-4.76,1.16-.61.25-1.27.09-1.07,1.07-.66.19-1.38.23-1.97.39-1.75-2.02-6.18,2.08-7.08.78-.71-1.04,1.31-1.63,1.51-2.22.85-2.54-.56-2.26-1.29-3.3-1.61-2.3.24-4.99-2.52-6.92-.26-1.3,3.06-3.36,3.65-4.5.56-1.07.38-3.02.97-3.75.71-.88,2.29-1.27,3.28-3.4.2-.43.71-2.36-.29-1.86-.51.4-.68,1.19-1.18,1.58-7.27,5.79-11.85,13.84-17.34,21.2-2.57,3.45-6.49,6.27-7.64,10.64-.57.18-1.93.4-2.36.79l-.79-.39c.1-.14.13-.62.39-.97,10.39-13.86,21-27.57,31.31-41.48,1.02-.37,3.56,2.1,4.49,2.92,8.75,7.72,17.01,16.24,25.56,24.19ZM221.73,119.08c-1.12-.94-3.14,3.58-4.12,4.34-1.52,1.17-3.51.29-4.08,2.62,1.89,2.72,6.32,3.11,7.07,7.15,2.43.52,2.28-2.62,3.71-4.25,3.16-3.58,4.56-1.63,7.39.73l2.43-2.73c.5-.65-1.59-2.53-2.07-2.68-1.23-.36-2.4.86-4.23.73-3.25-.23-5.74-2.69-6.11-5.91Z"/><path class="cls-23" d="M193.81,138.35c-.28.38-.5.8-.79,1.18h-.39c-.27-.57-.72-.97-1.21-1.34-12.05-9.2-23.49-19.5-35.79-28.31-1.01-.72-2.21-1.76-3.51-1.8-.19-.28-1.45-1.92-1.57-1.97-.05-1.37-.24-1.09.96-1.18,4.74-.37,9.15.48,13.79.78,13,.84,26.15,2.11,38.93,3.23,1.11.1,6.24.3,6.51.49.41.28.44.74.39,1.19-2.03,3.42-4.24,6.76-6.46,10.08-3.05,4.57-6.49,9.03-9.61,13.6-.61.89-2.27,3.1-1.25,4.06Z"/><path class="cls-18" d="M285.44,115.93c.22,1.72.1,3.61.39,5.51.15.95.51,3.75.98,4.33.97,1.19,3.76-1.51,3.35,1.96-.26,0-.53.03-.79,0-.5-.05-1.02-.45-1.57-.39-.22.54.4,1.31.39,1.57-.01.35-.62.8-.32,2.07.27,1.15,2.86,4.15,3.88,4.79.84.53,1.62.43,1.95.61,2.37,1.28,2.65,1.62,5.51,2.36,1.39.36,1.81.72,3.54.79,3.31.56,7.11,1.35,10.43,1.57.85.06,2.13.12,2.95,0l1.96,1.18c-1.27-.11-2.66.18-3.54,1.18-.76-.43-1.58-.01-1.97,0-6.01.18-11.13.24-16.91,2.36-4.79,1.76-7.25,5.09-8.65,9.83-1.33,4.48-1.47,9.15-1.97,13.76-.16,1.46-.62,8.9-1.19,9.44-.61.58-.67-.12-.82-.54-.49-1.38-.94-4.24-1.14-5.75-.48-3.67-.55-7.26-1.18-11.01-.77-4.6-1.66-10.02-5.5-13.18-.63-.52-1.54-1.31-2.36-1.37-.11-1.37-3.97-2.26-4.99-2.35-.45-.04-1.88.92-2.88,1.17-1.25.31-2.67.19-3.93.39l-.79.39c-.61.09-1.36-.1-1.97,0,3.36-4.94-7.43-3.04-8.65-4.33-.55-.58.36-.87.77-.98,1.61-.44,7.03-.07,7.45-1.63.38-1.46-1.81-1.4-2.59-2.22-.61-.65-.97-2.21-1.88-3.04s-1.73-.3-2.08-1.84c-.17-.74-.45-1.51.69-1.3,3.02,2.81,5.95,5.72,9.05,8.45.72.32,1.96.29,2.75.2.89-.09,1.63-.63,2.36-.79s1.17-.17,1.97-.39c3.08-.88,5.4-1.5,7.89-3.72.63-.56.54-1.08.76-1.39.06-.09,1.11.5.79-1.57,1.44-.26,1.52-1.47,1.85-2.67.96-3.47.69-7.63,1.3-10.31.39-1.73.89-3.55,1.18-5.51.34-2.26.43-4.77.79-6.88.26-1.54,1.28-1.3,1.57.39.49,2.85.82,6.06,1.18,8.85Z"/><path class="cls-26" d="M209.15,223.69c2.18,4.62,2.81,9.81,4.45,14.64.22.64.07,1.29,1.06,1.09-.06.22.05.55,0,.79-9.23,13.77-17.5,28.25-26.28,42.35-.41.65-.48,1.49-.86,2.09-.22.35-1.09,1.38-1.46,1.86-.25.33,0,.72-.9.49l.39-47.19c0,.13,0,.26,0,.39,0,12.74-.52,26.08,0,38.74.02.48-.3,1.46.39,1.37-.1-6.65.68-13.27,1.18-19.86.22-2.97.05-6.52.39-9.44.29-2.51.93-5.3,1.28-8.15.11-.92.8-4.24,1.09-5.01.1-.26,1.6-2.06,1.97-2.36,4.25-3.48,10.86-7.88,15.54-11,.57-.38,1.02-.78,1.76-.79ZM200.89,253.18c-1.96-1.66-3.43-2.9-4.13-5.51-.79,2.64-2.25,3.94-4.52,5.31,3.22.92,3.45,2.96,4.52,5.7.7-2.16,1.52-5.11,4.13-5.51Z"/><path class="cls-13" d="M232.74,152.5c-.62,1.14.34,3.32.77,4.54,3.08,8.74,7.15,17.24,10.15,26.03.4,1.18.95,2.35.88,3.64l-22.8-10.62-4.33,18.09c-1.29.68-2.45,1.09-.79,1.97l-7.47,27.53c-.74.01-1.19.42-1.76.79-4.68,3.12-11.3,7.53-15.54,11,.46-.97.68-2.03,1.11-3.02,8.58-19.91,19.4-40.05,28.72-59.76,2.87-6.07,6.53-13.19,8.71-19.41.07-.19.42-.46.39-.79.64-.07,1.32.07,1.97,0Z"/><path class="cls-13" d="M258.31,95.87h.77c.13,2.79.99,5.49,1.19,8.26-.61.16-.59,1.45,0,1.57,0,.13,0,.26,0,.39.65,9.1,1.28,18.2,4.33,26.93l.78-.58c.34,2.2.53,4.47.79,6.69-.73.15-1.47.69-2.36.79l-38.93-36.78,33.43-7.27ZM248.84,106.51h-1.13c-.35,1.03-.66,2.55-1.33,3.4-.59.73-2.96,1.72-3.03,1.89-.46,1.2,1.05,1.11,1.78,1.77.54.49,1.09,1.05,1.47,1.68.6.99,1.14,4.52,2.37,2.55.62-.99.96-2.42,1.69-3.41.83-1.12,2.75-1.61,1.95-2.79s-3.92-2.49-3.77-5.08Z"/><path class="cls-10" d="M173.75,235.88c1.44,1.13,3.04,2.34,4.53,3.53,1.08.86,2.99,1.66,3.34,2.76h.38c.06-.23-.07-.66,0-.78.04-.06.28.05.39,0v.39l.39.39v9.44c-1.19-.22-.76.6-.79,1.36-.07,1.97.32,4.93-.02,6.69-.17.88-.98,1.36-1.15,2.39-1.12,6.91-.32,14.71-.78,21.63-.05.73.09,1.47-.81,1.75-1.53-2.4-3.28-4.89-5.11-7.08-.48-2.9-5.65-8.83-7.08-11.8-.12-.46-.21-.74-.39-1.18-1.08-2.55-3.97-6.38-5.51-9.05s-3.13-5.52-4.72-8.26c1.67-2.85-2.59-3.19-1.96-6.29l5.9.39c.53.47,1.13.76,1.43,1.52l1.32,2.81c.64-2.52,1.43-4.84,4.33-5.11.28-.03.82.35,1.31.28,1.78-.25,1.23-1.73,1.88-2.81l3.1-2.98Z"/><path class="cls-21" d="M171,137.95c-1.69,1.3.12,3.41,1.02,4.69,1.01,1.44,4.2,5.2,5.47,6.33.6.54,1.47.79,2.17,1.17.22.36,1.12,1.37,1.57,1.18.04.11-.04.27,0,.39.17.63.34,1.08.79,1.57-2.76,1.08-6.76.1-9.64,0-8.6-.29-17.15-.69-25.76-1.18-.01-.81-.44-1.11-1.04-1.51-5.92-4.03-13.18-7.49-19.36-11.31-1.71-1.06-3.38-2.93-5.55-3.3-.85-.92,2.2-1.49,2.36-1.57.78,1.55,2.37,1.71,3.93,1.57.07-1.07-.13-2.68-1.57-2.75.06-.05.01-.64.4-.96,2.55-2.07,5.26-4.4,8.64-4.55.65,1.43,1.81,5.54,3.7,5.06.5-.12,1.87-4.7,2.59-5.85l3.93-.79c-.43.97-.61,2.12-1.03,3.1-1.67,3.9-3.94,7.62-4.87,11.84,3.82.25,7.62-.5,11.4-.78,6.41-.48,12.85-.88,19.27-1.18.04-.56.04-1.04-.21-1.56-.72-1.52-3.82-4.78-4.91-6.3-.23-.32-.14-1.35-.51-1.85-3.06-4.12-6-5.25-7.37-10.85-.08-.34-.6-.3-.78-.56-1.33-1.91-.47-.63-1.94-1.49-.64-.38-1.6-2.72-2.22-2.92-.74-.21-.9.11-1.29.62-1.43,1.88-2.98,6.87-4.08,9.3-.19.41-.66.61-.69.68-.87.19-.83-.48-1.17-.97-1.69-2.45-3.03-4.93-4.14-7.69l-1.02.24c-.31,4.01-3.29,5.32-5.08,8.42-.21.08-.45.41-.79.39-.66-1.5-1.16-3.37-2.36-4.33.63-.6,1.33-1.76,1.97-2.36.57-.54,1.4-1.04,1.97-1.57l.39-.39c1.66-1.56,10.58-10.46,11.8-10.62,8.29,10.65,15.93,21.82,23.99,32.64Z"/><path class="cls-18" d="M208.75,80.14c18.23-.39,37.47,3.09,55.54,5.22,2.09,1.27,4.65,2.52,6.49,4.11.28.24.74-.02.5.9-5.25.94-10.52,2.03-15.73,3.15-.71-.5-2.1-.72-2.96-.78-19.56-1.3-39.2-2.33-58.79-3.55-.91-.06-1.77-.33-2.75-.39-.65-.04-1.32.04-1.97,0-.91-.06-1.84.06-2.75,0-.1-2.56,3.28-2.07,4.82-2.46,5.4-1.37,10.85-2.58,16.18-4.19l.21-1.58-1.15-.42c.78-.02,1.57.01,2.36,0Z"/><path class="cls-22" d="M186.34,88.79c.91.06,1.84-.06,2.75,0v.79s1.72,0,1.72,0l.25-.79c.99.06,1.84.34,2.75.39.35,2.23,3.01,1.36,4.5,1.59,2.16.34,4.64,4.05,2.47,5.18-.99.52-4.31,1.2-5.61,1.48-.71.15-1.59-.49-1.36.79-8.45.73-17.58,2.11-25.78,2.36-.76.02-1.58-.4-1.36.79-7.27.07-14.5.45-21.63-.39.43-2.05-1.05-1.79-1.94-2.58-1.52-1.34-4.03-2.8-3.56-4.89,1.9-.59,3.01,1.01,4.51,1.2,1.61.21,14.3.15,14.77-.42.04-.05.16-1.13-.24-1.2l-9.83-4.26c-.26-1.82-1.83-1.32-2.12-2.79,1.41-.15,3.46-.07,4.91,0,11.61.6,23.25,2.04,34.81,2.75Z"/><path class="cls-27" d="M314.55,143.46c-6.95,7.97-13.69,17.31-20.64,25.57-12.95,15.41-26.23,30.53-39.53,45.61-1.28-1.49-2.96-2.76-4.51-3.94-.58-.44-.86-.95-1.78-.78.03-.12-.02-.26,0-.39,1.86-1.04,2.7-2.99,3.94-4.51,5.39-6.59,11.23-12.79,16.51-19.47.5-.63,1.93-.94,1.57-2.36l11.8-10.62c.2,1.51.65,4.37,1.14,5.75.15.42.22,1.12.82.54.56-.54,1.03-7.98,1.19-9.44l27.53-25.96c.39-.01,1.21-.43,1.97,0Z"/><path class="cls-9" d="M316.12,129.69l-30.68-13.76c-.36-2.79-.69-6-1.18-8.85-.29-1.69-1.31-1.93-1.57-.39-.36,2.11-.45,4.62-.79,6.88l-5.9-2.36c-.25,1.57,1.61,2.54,2.15,3.56.24.46.12.98.21,1.15-1.5-.42-2.77-2.33-3.71-3.56-2.93-3.84-5.81-8.06-9.14-11.66-.42-.45-.62-.77-1.31-.9-.69-1.12-1.24-3.34-2.75-3.54,0-.39,0-.79,0-1.18.37-.08.67-.37.79-.39,3.2-.67,8.72-2.17,11.67-2.34.46-.03.88-.11,1.29.18,14.07,11.85,28.1,23.97,40.92,37.16Z"/><path class="cls-23" d="M192.24,79.36l-.39,1.96c1.47-.41,3.31.44,4.54.42s1.7-1.07,2.4-1.13c.75-.06,5.3,1.91,4.86-.86,1.62,0,3.81-.33,5.11.39-.78.02-1.58-.02-2.36,0l1.15.42-.21,1.58c-5.33,1.61-10.78,2.82-16.18,4.19-1.53.39-4.92-.1-4.82,2.46-11.56-.71-23.2-2.15-34.81-2.75-1.45-.07-3.51-.15-4.91,0-.29.03-1.88.34-1.97.39-5.57,0-11.15-2.61-15.73-5.51,21.68-1.93,41.61-1.96,63.32-1.57Z"/><path class="cls-22" d="M115.94,99.02c.13,0,.26,0,.39,0,.23.55.78.31,1.18.39,5.85,1.16,11.81,2.19,17.7,3.15l-31.46,27.53c.98-5.91,3.2-14.83,3.15-20.45l2.36-11.4c2.04.35,4.62.67,6.69.79Z"/><path class="cls-10" d="M135.21,102.56c2.85.47,5.81.62,8.65,1.18.18.68-.28.79-.59,1.18-1.54,2-3.95,3.69-5.7,5.5l-.79.79c-.07.07.07.32,0,.39-1.05.18-1.41,1.06-1.97,1.57-.76.7-1.29,1.31-1.97,1.97-2.21,2.15-4.68,4.14-6.89,6.28l-24.37,23.61c-.35-.07-.22-.86-.19-1.18.36-4.54,1.61-9.26,2.36-13.76l31.46-27.53Z"/><path class="cls-3" d="M130.89,120.26c1.2.96,1.7,2.82,2.36,4.33.42.95.75,2.21,1.18,3.15-3.38.15-6.1,2.48-8.64,4.55-.39.32-.35.91-.4.96-.4.34-.64.3-.79.39l-.2-.39h-.58s0,.78,0,.78c-.27.12-.53.28-.79.39-.16.07-3.21.65-2.36,1.57,2.17.38,3.83,2.24,5.55,3.3,6.18,3.82,13.45,7.28,19.36,11.31.6.41,1.03.71,1.04,1.51-2.49-.14-4.99-.25-7.47-.39l.59-.79c-10.11-2.19-21.51-3.07-32.2-4.37-.97-.12-2.08-.39-3-.74,8.85-8.43,17.5-17.12,26.35-25.56Z"/><path class="cls-21" d="M124.59,83.68c1.31,2.53,5,2.41,7.45,4.15,1.38.99,4.42,5.2,5.35,5.3,1.36.15,1.92-2.92,3.94-3.16l-.23-1.96c.19-.26,2.76-.61,3.25-.81.46-.18.25-.75.29-.77.08-.06,1.68-.36,1.97-.39.29,1.47,1.87.96,2.12,2.79l9.83,4.26c.4.08.28,1.15.24,1.2-.47.57-13.16.62-14.77.42-1.5-.19-2.61-1.79-4.51-1.2-.47,2.1,2.04,3.55,3.56,4.89.89.79,2.38.53,1.94,2.58-9.85-1.16-19.72-2.73-29.5-4.33l-.79-.39c-.37-.06-.81.06-1.18,0s-.9-.29-1.57-.39c.06-.89.77-1.42,1.37-1.98,3.7-3.44,7.55-6.75,11.22-10.22Z"/><path class="cls-30" d="M316.12,129.69c.13.13.26.26.39.39s.27.26.39.39c.66.69,1.75,1.31,2.35,2.16-.01,1.2-17.87,5.04-20.05,6.1-2.85-.74-3.14-1.07-5.51-2.36.15-.9-.3-1.2-.77-1.79-1.5-1.87-2.97-3.73-4.34-5.69l.79-1.18c.26.03.53,0,.79,0,1.03.03,2.85-.22,3.66,0,.55.14.42,1.47,1.45,1.19v-3.14c-4.74,1.96-5.54-4.03-9.44-4.33-.29-1.89-.17-3.79-.39-5.51l30.68,13.76Z"/><path class="cls-25" d="M150.16,106.1l-1.18-1.96,71.57-1.18c-8.77,11.9-17.9,23.55-26.74,35.39-1.02-.96.64-3.17,1.25-4.06,3.12-4.57,6.55-9.02,9.61-13.6,2.22-3.32,4.44-6.66,6.46-10.08.05-.45.01-.91-.39-1.19-.27-.18-5.4-.39-6.51-.49-12.78-1.13-25.93-2.39-38.93-3.23-4.64-.3-9.05-1.16-13.79-.78-1.21.09-1.01-.19-.96,1.18-.08-.03-.3-.02-.39,0Z"/><path class="cls-25" d="M254.37,214.64c-13.09,14.84-26.3,29.51-39.72,44.05-.27-.24-.41-.55-.37-.91.19-1.81.34-3.12.37-4.99,0-.39,0-.79,0-1.18.89.06,1.01-.61,1.43-1.12,2-2.44,4.16-5.07,6.04-7.53,3.18-.39,8.54-4.67,10.23-7.27,1.74-2.69,4.64-9.55,5.5-12.39.35-1.15.92-2.16,1.57-3.15s1.69-2.29,2.36-3.15c.86-1.1,6.15-6.55,6.29-7.08.92-.17,1.2.33,1.78.78,1.55,1.19,3.23,2.45,4.51,3.94Z"/><path class="cls-21" d="M230.78,152.5c.03.33-.33.59-.39.79l-11.58,1.2c-7.11,2.07-14.61,3.09-21.93,4.42-.94.17-6.21,1.12-6.43,1.43-.12,5.87-.96,11.69-1.35,17.53s-.38,12.1-.77,18.1c-.88,13.4-2.86,27.58-2.39,40.9.03.75-.04,1.49.41,2.14-.13.08-.36,1.03-.79,1.18,0-.13,0-.26,0-.39-.01-27.79,0-55.59,0-83.38,15.12-.75,30.19-2.32,45.23-3.93Z"/><path class="cls-13" d="M255.55,93.51c-1.95.42-3.94.76-5.9,1.18-2.59-.83-6.41-.55-9.24-.39-15.3.88-31.26,2.61-46.61,3.93-.23-1.28.65-.63,1.36-.79,1.31-.28,4.62-.96,5.61-1.48,2.17-1.14-.3-4.85-2.47-5.18-1.49-.23-4.15.63-4.5-1.59,19.59,1.21,39.23,2.25,58.79,3.55.86.06,2.25.28,2.96.78Z"/><path class="cls-24" d="M178.47,156.44c1.43-.05,2.89.04,4.33,0,.07,1.63-.1,3.3-.02,4.93.16,3.22.35,6.37.41,9.62,0,.13,0,.26,0,.39-.65.41-.39,1.49-.4,2.16-.09,8.58,0,17.19,0,25.77,0,.66,0,1.31,0,1.97v1.18c0,2.09,0,4.2,0,6.29v3.54c0,1.44,0,2.89,0,4.33,0,5.17-.07,10.36,0,15.54,0,.67-.25,1.75.4,2.16-.03,1.57-.37,3.63-.39,5.51-2.3-.01-2.25-2.66-1.78-4.34.64-2.29,1.54-1.78,1.4-5.31-.46-12.17-.8-25.61-1.98-37.54-.05-.46-.36-.89-.39-1.18-.66-5.17-3.18-16.45-2.75-20.84,0-.08.76-.85.39-1.57h-.79c-.02-.39.04-.8,0-1.18,1.14.23.85-.62.78-1.36-.1-1.1-.68-2.18-.71-3.16-.03-1.2.73-2.88.26-4.28l-.59-.59c-1.19-.38-3.65.73-3.68-1.23,1.87-.58,3.56-.72,5.5-.79Z"/><path class="cls-9" d="M249.66,94.69c-9.05,1.92-20.25,5.27-29.3,5.9-6.46.45-13.51-.16-20.07-.01-11.16.26-22.4.69-33.61.8-.22-1.19.6-.76,1.36-.79,8.19-.25,17.33-1.63,25.78-2.36,15.35-1.32,31.31-3.04,46.61-3.93,2.83-.16,6.65-.45,9.24.39Z"/><path class="cls-15" d="M126.95,80.93c-.19,1.06-1.48,1.92-2.36,2.75-3.67,3.47-7.52,6.77-11.22,10.22-.59.55-1.31,1.09-1.37,1.98-1.85-.3-3.65-.54-5.51-.79-1.07-.14-2.05-.29-3.15-.39l-.39-.39c-2.58-.2-6.15-1.84-8.65-1.57,1.31-1.57,4.24-1.88,6.21-2.24,4.81-.89,9.8-.92,14.63-1.69-.28-.82-1.54-.94-2.27-1.07-5.14-.94-9.38-1.11-14.64-2.46,9.33-2.22,19.12-3.4,28.71-4.33Z"/><path class="cls-20" d="M132.85,115.14l-1.19,2.55,1.19.2c-.63.6-1.34,1.76-1.97,2.36-8.85,8.44-17.49,17.13-26.35,25.56-.62.59-1.62.89-1.97,1.18.36-1.55-1.02-1.71-1.97-1l-.79,2.96c1.34-.4,1.83.78,2.64,1.1.61.24,1.68-.19,2.08.48-.63.01-1.64-.24-1.97.39-.13-.02-.26.02-.39,0-2.06-.28-3.38-1.01-5.11-1.18-1.25-.12-2.65.07-3.93,0-.04,0-.1-.37-.79-.39-.26,0-.53.01-.79,0l-16.91-3.15-.39-.39c-.21-1.43-.03-1.47,1.18-1.97,7.62,1.47,15.41,2.29,23.03,3.84.45-.1.62-1.31.96-1.87.54-.9.81-1.7,1.97-1.97-.02.31-.16,1.11.19,1.18l24.37-23.61c2.21-2.14,4.68-4.13,6.89-6.28Z"/><path class="cls-11" d="M183.19,170.99l1.97.23c.37,1.97-.4,4.08-.43,5.87-.2,12.26.46,25,.44,37.34-.02,9.25.25,18.54-.41,27.74-.73.13-1.11-.37-1.57-.78-.14-.12-.25-.27-.39-.39,0-.39,0-.79,0-1.18.02-1.88.37-3.93.39-5.51.09-5.16.07-10.37,0-15.54,0-.67.25-1.75-.4-2.16,0-1.44,0-2.89,0-4.33.66-.73.66-2.81,0-3.54,0-2.09,0-4.2,0-6.29.59-.06.59-1.12,0-1.18,0-.66,0-1.31,0-1.97.65-.41.39-1.49.4-2.16.09-8.63.14-17.24,0-25.77,0-.13,0-.26,0-.39Z"/><path class="cls-6" d="M214.65,243.74c0,.26,0,.52,0,.79-.67.24-.89.77-1.25,1.31-6.18,9.35-11.73,19.76-17.63,29.37-1.42,2.31-2.92,4.56-4.32,6.89-.18.29-1.14,1.22-.4,1.37-.11.08-.14.56-.65.71-.9.26-2.03-.15-2.89.47.37-.6.45-1.44.86-2.09,8.78-14.09,17.04-28.58,26.28-42.35-.33,1.6,0,2.48,0,3.54Z"/><path class="cls-12" d="M178.47,156.44c-1.95.07-3.63.21-5.5.79.03,1.96,2.49.85,3.68,1.23l.59.59c.47,1.39-.3,3.08-.26,4.28.03.98.61,2.06.71,3.16.07.74.35,1.59-.78,1.36-.12-1.15-1.13-8.05-1.86-8.26-4.66-.62-9.36-1-14.02-1.62-8.18-1.1-16.33-2.2-24.43-3.1-6.62-.73-13.48-.96-20.04-1.99-.68-.11-.96-.22-1.4-.76,13.29,1.23,26.63,1.92,39.92,3.14l23.4,1.18Z"/><path class="cls-22" d="M128.92,80.93c4.58,2.9,10.16,5.51,15.73,5.51-.03.02.17.59-.29.77-.5.2-3.07.55-3.25.81l.23,1.96c-2.02.24-2.58,3.31-3.94,3.16-.93-.1-3.97-4.32-5.35-5.3-2.45-1.74-6.13-1.63-7.45-4.15.88-.83,2.17-1.69,2.36-2.75.64-.06,1.32.06,1.97,0Z"/><path class="cls-20" d="M150.16,106.1c.09-.02.31-.03.39,0,.12.04,1.38,1.68,1.57,1.97,4.97,7.33,15.24,24.01,21.24,29.5.72,1.64,2.03,3.14,3.09,4.6.32.44.34,1.14.45,1.3l-.39,1.57c-1.88-2.35-3.71-4.67-5.51-7.08-8.06-10.82-15.7-21.99-23.99-32.64,1.37-.18,1.51.9,2.26,1.14.55.18.76-.33.88-.35Z"/><path class="cls-28" d="M182.8,251.61c-.25,12.95.51,26.05-.4,38.93-.55-.09-.85-1.07-1.18-1.57-.75-1.16-1.3-2.5-1.97-3.54.9-.28.76-1.02.81-1.75.47-6.92-.34-14.72.78-21.63.17-1.04.98-1.52,1.15-2.39.33-1.76-.05-4.71.02-6.69.03-.76-.4-1.58.79-1.36Z"/><path class="cls-21" d="M104.54,145.82c.92.35,2.02.62,3,.74,10.69,1.3,22.09,2.18,32.2,4.37l-.59.79c-1.71-.1-3.38-.31-5.11-.39-.78-.04-1.58.03-2.36,0-.2-.52-.75-.37-1.18-.39-.26-.02-.53,0-.79,0-.13,0-.26,0-.39,0-.78-.01-1.58-.03-2.36,0-.26,0-.52,0-.79,0-2.06-.59-4.53-.6-6.69-.79-.65-.06-1.32.06-1.97,0-.87-.08-2.12-.29-3.15-.39-2.81-.29-5.66-.81-8.46-1.17-.76-.1-4.26.17-3.93-.8.3-.15.43-.65.59-.79.35-.29,1.34-.59,1.97-1.18Z"/><path class="cls-20" d="M258.31,95.87c.31-1.31,1.03-2.48,2.51-2.33l1.42,1.15c-.12.03-.42.31-.79.39-.44.1-1.08-.08-1.57,0l1.2,8.43,1.55,2.97c.02.13-.02.27,0,.39.08.52-.11,1.17.01,1.75.08.36.37.57.38.61.23,1.42.82,3.12,1.07,4.64,1.36,8.28,2.63,16.59,4.05,24.86-.79.23-1.27.25-1.97.39-.26-2.21-.44-4.49-.79-6.69-1.28-8.18-2.72-16.48-4.29-24.61-.13-.67.11-1.47-.82-1.74,0-.13,0-.26,0-.39-.03-.52.04-1.05,0-1.57-.2-2.77-1.06-5.47-1.19-8.25h-.77Z"/><path class="cls-12" d="M214.65,252.79c-.03,1.87-.18,3.17-.37,4.99-.04.37.11.67.37.91-3.31,3.59-6.54,7.54-9.83,11.01l-1.95.38-.41-1.95c2.16-2.71,4.07-5.77,6.3-8.44l5.89-6.89Z"/><path class="cls-9" d="M191.06,147c-.16.14-2.15,2.82-2.45,3.25-.25.37-1.41,1.97-1.09,2.25,7.29-.29,14.55-1.09,21.83-1.57,2.08-.14,4.5.24,6.49,0v.79c-10.21.95-20.43,1.85-30.67,2.36-1.09-1.04,4.37-6.48,5.11-7.47l.79.39Z"/><path class="cls-22" d="M302.75,139.53c5.9.24,11.87-3.13,17.7-3.93l-3.63,5.42c-.21.19-.48.06-.69.09-.81.11-2.09.05-2.95,0-3.32-.22-7.12-1.01-10.43-1.57Z"/><path class="cls-30" d="M202.46,268.13l.41,1.95,1.95-.38c-3.51,3.7-9.89,11.1-13.76,13.76-.74-.15.22-1.08.4-1.37,1.4-2.32,2.9-4.58,4.32-6.89,1.13.25.96-.16,1.43-.72,1.74-2.09,3.57-4.24,5.26-6.36Z"/><path class="cls-22" d="M173.36,137.56c1.28,1.17,3.5,3.06,4.92,4.71.82.96,5.05,7.08,5.5,7.08,3.15-3.22,4.94-7.38,8.85-9.82h.39c-2.8,3.73-5.48,7.81-8.66,11.22-.24.25-.36.63-.39.97-.59.14-.63-.09-.95-.41-1.61-1.62-3.83-5.51-5.33-7.56-.26-.36-.76-.25-.79-.28-.12-.16-.13-.86-.45-1.3-1.06-1.46-2.36-2.96-3.09-4.6Z"/><path class="cls-7" d="M176.51,145.03c.88,1.1,1.12,1.89,2.36,3.15.11.7.41,1.37.79,1.97-.7-.39-1.57-.64-2.17-1.17-1.26-1.14-4.45-4.89-5.47-6.33-.9-1.28-2.71-3.39-1.02-4.69,1.8,2.41,3.63,4.73,5.51,7.08Z"/><path class="cls-20" d="M264.99,145.82c1-.25,2.43-1.2,2.88-1.17,1.01.08,4.88.98,4.99,2.35-1.39-.1-3.1.71-4.33,1.18-1.08.42-2.29.73-3.15,1.57v-1.18c-1.38-.3-2.7.28-3.93.39-.23-1.14.56-.72,1.25-.9,1.64-.43,3.2-.54,4.26-2.05l-1.96-.19Z"/><path class="cls-19" d="M112.01,95.87c.67.11,1.22.34,1.57.39-.3,2.07.9,2.05,2.36,2.75-2.07-.12-4.65-.44-6.69-.79-.91-.16-2.3-.56-3.54-.79-.13-.02-.27.02-.39,0l-.39-.79c.21-.02.99-.61,1.54-.43l.04-1.14c1.86.25,3.65.49,5.51.79Z"/><path class="cls-18" d="M193.02,79.36c1.62.73,4.03.39,5.9.39,1.57,0,3.15,0,4.72,0,.44,2.77-4.1.8-4.86.86-.7.06-1.24,1.1-2.4,1.13-1.23.03-3.07-.82-4.54-.42l.39-1.96c.26,0,.52,0,.79,0Z"/><path class="cls-11" d="M184.76,243.74v7.87h-1.57v-6.49c0-.31.98-1.68,1.57-1.38Z"/><path class="cls-19" d="M104.54,150.54c.91-.02,1.85-.05,2.75,0l.79.39c.52.04,1.05-.04,1.57,0,.54.69,1.89.38,2.75.39.26,0,.53,0,.79,0l1.18.79c-3.92-.37-7.9-.7-11.8-1.18.33-.63,1.34-.38,1.97-.39Z"/><path class="cls-20" d="M126.17,150.93c-1.66.05-3.7.52-5.53.21-.65-.11-1.38-.06-1.16-.99,2.15.19,4.63.2,6.69.79Z"/><path class="cls-20" d="M129.31,150.93l.2.39.2-.39c.26,0,.53-.02.79,0,.19.51.75.38,1.18.39.78.03,1.58-.04,2.36,0-1.76,1.24-3.81.68-5.71.38-.73-.11-1.6.5-1.37-.77.78-.03,1.58-.01,2.36,0Z"/><path class="cls-20" d="M178.87,148.18s.47-.1.68.1c.97.91,1.27,2,1.68,3.05-.46.19-1.35-.82-1.57-1.18-.37-.6-.67-1.26-.79-1.97Z"/><path class="cls-20" d="M117.51,150.15c-.86.71-2.1.33-3.15.39v-.78c1.03.11,2.28.31,3.15.39Z"/><path class="cls-23" d="M198.92,79.75c-1.87,0-4.28.33-5.9-.39,1.87,0,4.28-.33,5.9.39Z"/><path class="cls-20" d="M181.23,151.72l1.57.99v.58c-.24.06-.61-.07-.78,0-.45-.49-.61-.95-.79-1.57Z"/><path class="cls-20" d="M113.19,151.33c.49.02,1.7-.14,1.94.05.16.12-.04.66.03.74-.26-.02-.53.02-.79,0l-1.18-.79Z"/><path class="cls-20" d="M112.4,151.33c-.86-.01-2.22.29-2.75-.39.87.07,2.2-.33,2.75.39Z"/><path class="cls-9" d="M218.59,151.33c-.28.03-1.16.32-1.97.39.34-.64,1.34-.37,1.97-.39Z"/><path class="cls-19" d="M117.51,99.41c-.4-.08-.95.16-1.18-.39.43.02.98-.12,1.18.39Z"/><path class="cls-20" d="M260.67,148.97c-.39.04-.79-.04-1.18,0,.06-.59,1.12-.59,1.18,0Z"/><path class="cls-20" d="M136.79,111.6c-.53.57-1.23,1.58-1.97,1.57.56-.51.91-1.39,1.97-1.57Z"/><path class="cls-25" d="M261.06,146.21s-.12.29-.79.39l.79-.39Z"/><path class="cls-19" d="M115.55,96.66c-.66-.11-.74-.39-.79-.39l.79.39Z"/><path class="cls-20" d="M108.08,150.93l-.79-.39c.7.04.74.39.79.39Z"/><path class="cls-20" d="M134.82,116.32c.13-.13.26-.27.39-.39l-.39.39Z"/><path class="cls-9" d="M316.91,130.48c-.13-.13-.26-.26-.39-.39l.39.39Z"/><path class="cls-24" d="M183.19,241.39h-.39c0-.13,0-.26,0-.39.14.12.26.27.39.39Z"/><path class="cls-20" d="M136.79,111.21l.79-.79c-.26.27-.54.53-.79.79Z"/><path class="cls-29" d="M182.8,241.78h-.39v-.39c.11-.05.27.03.39,0,0,.13,0,.26,0,.39Z"/><path class="cls-12" d="M182.8,242.17l-.39-.39h.39c0,.13,0,.26,0,.39Z"/><path class="cls-26" d="M102.18,96.66c.66.12,1.3.27,1.97.39.32.06.72.31,1.18.39.13.02.27-.02.39,0-.03.73-.38,1.2-.79,1.76-6.56,9.08-13.65,17.87-20.43,26.78-.34.45-1.16.5-1.2.55-.97,0-1.51-1.12-1.89-1.84-2.59-4.94-4.34-10-6.56-15.07-.86-1.97-2.63-3.58-2.95-5.9.93-.8,1.57-1.84,2.75-2.75.42-.33,1.66-.21,1.57-1.57.93-.77,1.97-1.43,2.75-2.36,3.79,6.22,3.88,11.83,4.67,19.12.17,1.62.36,3.28.05,4.86h1.17c1.84-8.47.31-19.82,6.7-26.35,3.55.6,7.09,1.3,10.62,1.97Z"/><path class="cls-20" d="M94.31,92.73c2.5-.27,6.07,1.37,8.65,1.57.04.19.21.38.39.39,1.09.1,2.07.25,3.15.39l-.04,1.14c-.55-.18-1.33.41-1.54.43-.26.02-.53,0-.79,0-.16,0-1.49-1.06-1.97,0-3.53-.67-7.07-1.37-10.62-1.97.04-.04-.1-.49.27-.8.53-.44,1.78-1.09,2.49-1.16Z"/><path class="cls-24" d="M45.15,139.53l59.78,59.38c.88,1.36,2.1,2.36,3.15,3.93,2.96,4.43,5.64,9.42,8.71,13.9,1.15,1.68,4.84,7.51,5.95,8.4.44.35,2.31.98,2.84.93.95-.09.81-1.12,1.25-1.23.83-.2,1.98.44,2.87.42,5.71,10.11,10.86,20.73,16.29,31.1.34.64.72,1.12.62,1.94-4.09-4.2-8.18-8.3-12.19-12.58,1.9-1.53-.62-2.35-1.35-3.57-1.21-2.01-.56-3.42-3.37-4.69-3.69-6.32-9.96-10.52-14.94-15.73-1.26-2.89-9.04-9.2-11.8-11.01-3.69-2.41-13.87-15.46-17.51-19.66-14.74-17.04-29.1-34.43-43.05-52.12-.15-1.23,2.46.52,2.75.6Z"/><path class="cls-16" d="M83.3,126.55c-.08.1,0,.97-.31,1.44-2.7,4.12-6.11,7.74-9.13,11.53-1.5.46-4.08.19-5.7,0-4.89-.58-11.58-2.69-16.14-2.76-.88-.01-1.89.14-2.54.8-1.7-.45-3.76-.76-5.51-1.18l-3.53-1.77c1.67-1.36,2.88-3.2,4.31-4.73,8.46-9.08,17.84-18.05,27.15-26.14.32,2.32,2.09,3.93,2.95,5.9,2.22,5.07,3.97,10.13,6.56,15.07.38.72.92,1.83,1.89,1.84ZM70.71,117.5c-1.11-.22-.93,1.37-1.49,2.25-.74,1.15-1.77,2.3-3.23,2.48-.57.61,1.98,1.67,2.54,2.37.66.81,1.3,2.45,1.4,3.52,1.65-1.58,1.77-4.93,4.71-5.12-1.93-1.57-4.09-2.56-3.93-5.5Z"/><path class="cls-8" d="M51.84,140.71l1.18.39c.12.03.27-.03.39,0l1.18.39c.88.25,2.63.32,2.75.39.04.02-.18.62.28.78,1.04.35,9.88,2.04,10.73,1.98.05.19.35.3.39.39,1.35,2.81,3.74,4.92,5.51,7.47,10.41,15.06,20.76,31.07,30.68,46.41l-59.78-59.38c2.1.57,4.61.72,6.69,1.18Z"/><path class="cls-27" d="M114.76,221.72c.17.38.04,1,.44,1.71,1.64,2.94,6.07,5.12,6.64,8.51-5.88-6.6-11.9-13.16-17.9-19.66-.45-.48-.98-.81-.98-1.58,2.76,1.81,10.53,8.12,11.8,11.01Z"/><path class="cls-18" d="M129.71,237.45c-1.69-.77-2.01-.8-3.4-2.08-.9-.83-1.52-2.41-3.28-2.25-.34-.38-.8-.75-1.18-1.18-.57-3.4-5-5.58-6.64-8.51-.4-.72-.28-1.33-.44-1.71,4.99,5.21,11.25,9.41,14.94,15.73Z"/><path class="cls-20" d="M49.48,137.56c6.28,1.67,12.5,3.37,18.88,4.72.83.41,1.55.68,1.58,1.77-.36,0-1.49.59-1.58.59-.85.06-9.69-1.63-10.73-1.98-.46-.15-.24-.75-.28-.78l1.57-1.18-14.94-4.33c1.75.42,3.8.73,5.51,1.18Z"/><path class="cls-27" d="M123.02,233.13c1.76-.16,2.38,1.42,3.28,2.25,1.39,1.28,1.71,1.31,3.4,2.08,2.81,1.27,2.17,2.68,3.37,4.69.73,1.22,3.24,2.04,1.35,3.57-.96-1.03-2.17-2.08-3.15-3.15-.44-.48-.72-.74-1.18-1.18-.21-.2-.31-.7-.79-.79-.74-1.58-4.85-5.85-6.29-7.47Z"/><path class="cls-16" d="M74.65,100.99c.31-.77.99-1.09,1.57-1.57.09,1.36-1.15,1.25-1.57,1.57Z"/><path class="cls-20" d="M130.1,241.39l-.78.39c-.07-.34.1-.96,0-1.18.47.08.57.58.79.79Z"/><path class="cls-20" d="M54.59,141.49l-1.18-.39c.61.14.87.3,1.18.39Z"/><path class="cls-20" d="M53.02,141.1l-1.18-.39c.55.12,1.03.36,1.18.39Z"/><path class="cls-30" d="M139.14,232.73c.22.28.9,1.5,1.18,1.97.1.16.07,1.05.44,1.71.55.97,2.11,1.83,2.49,2.63.36.76.15,1.82.63,2.51.43.62,1.31.55,1.9,1.25.89,1.05.64,2.78,1.26,3.85.31.53,2.72,3.12,3.57,4.3,5.81,8.05,11.21,16.26,17.17,24.1.44.58,2.26,4.26,2.49,4.41.33.23,1.06,0,1.5.06.52,1.25,1.01,2.5,1.58,3.73l-1.58-.19c-8.89-7.95-16.97-16.36-25.17-24.78.11-.81-.28-1.29-.62-1.94-5.43-10.37-10.59-20.99-16.29-31.1-.35-.62-.76-1.62-.79-2.36,2.86,2.91,7.91,6.84,10.23,9.83Z"/><path class="cls-19" d="M174.15,278.35c.23,1.4-.18,3.21.39,4.72-.42-.65-1.88-3.35-2.04-3.48-.22-.17-.49-.04-.71-.06-.48-1.15-1.26-2.49-1.57-3.54-.82-2.75-2.16-3.88-2.64-5.42-.35-1.13-.26-3.05-.51-4.02,1.43,2.97,6.6,8.9,7.08,11.8Z"/><path class="cls-12" d="M149.37,241.78l20.84,34.21c.31,1.05,1.09,2.39,1.57,3.54.22.03.49-.11.71.06.16.12,1.62,2.83,2.04,3.48.62.96,1.33,2.04,1.89,3.03.2.35.87,1,.27,1.3-1.87-1.02-3.4-2.98-4.91-4.33l1.58.19c-.57-1.23-1.06-2.49-1.58-3.73-.44-.05-1.17.17-1.5-.06-.23-.16-2.05-3.83-2.49-4.41-5.96-7.84-11.36-16.05-17.17-24.1-.85-1.17-3.26-3.77-3.57-4.3-.62-1.07-.37-2.81-1.26-3.85-.59-.69-1.47-.63-1.9-1.25-.48-.69-.28-1.75-.63-2.51-.38-.8-1.94-1.66-2.49-2.63-.37-.66-.34-1.55-.44-1.71,3.64,1.52,5.46,5.78,9.05,7.08Z"/><path class="cls-18" d="M217.41,194.19c.83-.44,1.96-.62,2.88-1.25,2.42-1.63,4.05-5.01,5.35-7.55l.81-.24c1.08,3.14,2.75,6.12,5.32,8.25.71.59,3.51,1.84,3.33,2.56-.07.28-3.88,2.31-4.71,3.16-1.31,1.33-3.73,6.88-4.14,6.88-.63,0-.62-.24-.89-.69-3.32-5.57-2.65-5.94-8.74-9.15-1.67-.88-.5-1.29.79-1.97Z"/><path class="cls-20" d="M246.51,188.69c-.66,1.17-1.15,2.88-1.9,4.2-4.85,8.57-10.16,16.9-14.62,25.69-.13,0-.26,0-.39,0-.82-.03-1.63.11-2.36-.39,2.37-4.45,5.01-8.69,7.47-12.98,3.32-5.77,7.02-11.55,10.23-17.3l1.57.79Z"/><path class="cls-6" d="M268.53,148.18c-.12,1.26-1.01,2.12-1.57,3.15-3.98,7.24-7.47,14.77-11.4,22.02-1.03,1.91-2.6,3.79-3.54,5.51-.74.51-1.61.52-2.36,0,4.05-7.34,7.66-14.97,11.73-22.29.91-1.63,2.9-5.72,4-6.81.85-.85,2.06-1.16,3.15-1.57Z"/><path class="cls-21" d="M234.71,205.2c-2.47,4.29-5.1,8.53-7.47,12.98-.14.26-.26.54-.39.79-.13.12-.3.24-.39.39-2.26,3.71-4.14,7.7-6.29,11.4-.08.13-.7.25-.79.39-.04-.67-.37-1.29-.22-1.97.08-.36,1.89-3.8,2.24-4.46,2.73-5.04,6.22-9.84,9.47-14.52,1.15-1.66,2.03-4.37,3.85-5Z"/><path class="cls-20" d="M220.16,230.77c.28.67.29,1.39,1.18,1.18-.23.33-.41,1.73-.86,2.49-1.86,3.14-3.73,6.32-5.83,9.31,0-1.06-.33-1.94,0-3.54.05-.24-.06-.57,0-.79.34-1.24,3.78-6.64,4.72-8.26.09-.15.71-.26.79-.39Z"/><path class="cls-19" d="M252.01,178.85c-.2.37-.32,1.51-.79,2.36-1.31,2.38-3.43,5.17-4.72,7.47l-1.57-.79c1.46-2.63,3.09-6.08,4.72-9.05.75.52,1.62.51,2.36,0Z"/><path class="cls-22" d="M234.71,134.41c3.49-.96,10.66-3.53,13.67-3.85,1.3-.14,2.33.49,1.31,1.73-5.13,2.88-10.41,5.55-15.5,8.49-3.99,2.31-14.5,9.67-18.36,10.15-1.98.25-4.41-.13-6.49,0-7.28.48-14.54,1.27-21.83,1.57-.32-.29.84-1.88,1.09-2.25.3-.44,2.29-3.11,2.45-3.25.43-.38,1.79-.61,2.36-.79,9.19-2.85,18.71-5.67,27.92-8.26.59-.17,1.31-.21,1.97-.39,3.79-1.06,7.62-2.1,11.4-3.15Z"/><path class="cls-23" d="M193.42,146.21c1.15-4.38,5.07-7.19,7.64-10.64,5.48-7.36,10.07-15.41,17.34-21.2.49-.39.66-1.18,1.18-1.58,1-.5.49,1.44.29,1.86-.99,2.13-2.57,2.53-3.28,3.4-.59.73-.41,2.67-.97,3.75-.59,1.13-3.91,3.19-3.65,4.5,2.76,1.93.91,4.62,2.52,6.92.73,1.04,2.15.76,1.29,3.3-.2.59-2.22,1.18-1.51,2.22.9,1.3,5.33-2.8,7.08-.78-9.21,2.59-18.73,5.41-27.92,8.26Z"/><path class="cls-18" d="M221.73,119.08c.36,3.22,2.86,5.68,6.11,5.91,1.84.13,3.01-1.09,4.23-.73.48.14,2.57,2.02,2.07,2.68l-2.43,2.73c-2.83-2.36-4.24-4.32-7.39-.73-1.44,1.63-1.28,4.77-3.71,4.25-.75-4.04-5.17-4.44-7.07-7.15.56-2.32,2.56-1.45,4.08-2.62.98-.75,3-5.27,4.12-4.34Z"/><path class="cls-23" d="M223.31,137.56c-.2-.98.46-.83,1.07-1.07,1.71-.7,3.19-.68,4.76-1.16s2.65-1.52,4.21-1.71c.71-.09,1.61-.31,1.37.79-3.79,1.04-7.62,2.08-11.4,3.15Z"/><path class="cls-21" d="M192.63,139.53c-3.91,2.44-5.7,6.6-8.85,9.82-.45,0-4.68-6.12-5.5-7.08-1.42-1.66-3.65-3.55-4.92-4.71-6-5.48-16.27-22.17-21.24-29.5,1.3.04,2.5,1.08,3.51,1.8,12.3,8.82,23.74,19.11,35.79,28.31.49.38.94.77,1.21,1.34Z"/><path class="cls-29" d="M264.21,99.81c.92,1.5,1.91,3.3,2.97,4.69.62.81,2.45,2.17,2.72,2.78.42.94.07,2.08.38,3.16.17.58,1.59,3.68,2,4.69.36.89,2.66,3,2.07,4.26-.06.13-.53.28-.7.47-.2.22-.48.35-.77.41v.77c1.74.35,2.17,2.41,3.53,3.38.32.14.98-.39,1.18-.62l1.59-.17c.59.87.1,7.53-1.98,7.64-.24-.72-.27-1.48-.99-1.97-3.84,2.01.04,1.98.6,4.33-.22.31-.13.83-.76,1.39-2.49,2.22-4.81,2.84-7.89,3.72-1.42-8.27-2.69-16.57-4.05-24.86-.25-1.51-.84-3.22-1.07-4.64-.06-.74.3-1.92-.39-2.36-.02-.13.02-.27,0-.39-.49-3.19-1.2-7.05-1.18-10.23,1.52.19,2.06,2.42,2.75,3.54Z"/><path class="cls-26" d="M272.86,147c.83.06,1.73.86,2.36,1.37,3.85,3.15,4.73,8.57,5.5,13.18-.46.44-.3.97-.68,1.6-2.49,4.13-5.83,8.05-9.45,11.67-.53.53-.59,1.11-1.67.89-.13-1.42-.29-2.92-.39-4.33-.3-4.17-.62-8.45-.79-12.58-.08-1.85.14-3.85.02-5.72-.05-.73.09-1.47-.81-1.75.56-1.02,1.45-1.89,1.57-3.15,1.22-.47,2.93-1.28,4.33-1.18Z"/><path class="cls-30" d="M312.58,143.46l-27.53,25.96c.5-4.62.64-9.29,1.97-13.76,2.44,1.06,1.96-.97,2.75-2.17,1.73-2.61,3.88-5.27,5.9-7.67,5.78-2.12,10.9-2.18,16.91-2.36Z"/><path class="cls-8" d="M281.9,172.56l-11.8,10.62c-.03-.1-.62-.47-.71-1.04-.16-1.05-.39-2.73-.47-3.68s.08-1.85,0-2.75c1.08.22,1.14-.36,1.67-.89,3.62-3.63,6.96-7.55,9.45-11.67.38-.63.22-1.16.68-1.6.63,3.76.7,7.34,1.18,11.01Z"/><path class="cls-15" d="M264.21,99.81c.69.13.89.44,1.31.9,3.33,3.61,6.21,7.82,9.14,11.66.94,1.23,2.21,3.14,3.71,3.56.58,1.16.67,3.01,2.36,3.15-.6,2.67-.33,6.83-1.3,10.31-.33,1.2-.41,2.42-1.85,2.67,0-.04-.25-.37-.39-.79,2.08-.11,2.57-6.78,1.98-7.64l-1.59.17c.06-.07-.09-.38.02-.52,2.32-2.92.54-2.53-.82-4.98l-3.13,1.57c.18-.2.64-.34.7-.47.59-1.26-1.7-3.37-2.07-4.26-.41-1.01-1.83-4.1-2-4.69-.31-1.08.04-2.22-.38-3.16-.27-.61-2.1-1.97-2.72-2.78-1.07-1.39-2.05-3.2-2.97-4.69Z"/><path class="cls-25" d="M285.84,121.44c3.9.29,4.7,6.28,9.44,4.33v3.14c-1.03.29-.91-1.05-1.45-1.19-.81-.21-2.62.04-3.66,0,.41-3.48-2.37-.78-3.35-1.96-.47-.57-.83-3.38-.98-4.33Z"/><path class="cls-24" d="M281.9,113.57c-.29,1.95-.79,3.78-1.18,5.51-1.69-.13-1.78-1.98-2.36-3.15-.08-.17.04-.7-.21-1.15-.55-1.02-2.41-1.99-2.15-3.56l5.9,2.36Z"/><path class="cls-8" d="M287.02,155.65c1.41-4.74,3.86-8.07,8.65-9.83-2.02,2.4-4.17,5.06-5.9,7.67-.79,1.19-.31,3.23-2.75,2.17Z"/><path class="cls-21" d="M288.59,128.91c1.37,1.96,2.84,3.82,4.34,5.69.47.58.92.89.77,1.79-.33-.18-1.11-.08-1.95-.61-1.02-.65-3.61-3.64-3.88-4.79-.3-1.27.31-1.72.32-2.07h.39Z"/><path class="cls-13" d="M277.18,131.27c.14.42.39.74.39.79.33,2.07-.72,1.48-.79,1.57-.56-2.35-4.44-2.32-.6-4.33.72.49.75,1.25.99,1.97Z"/><path class="cls-25" d="M289.38,127.73l-.79,1.18h-.39c0-.26-.61-1.03-.39-1.57.55-.06,1.07.34,1.57.39Z"/><path class="cls-2" d="M230.38,153.29c-2.17,6.22-5.84,13.34-8.71,19.41-9.32,19.71-20.15,39.85-28.72,59.76-.43.99-.65,2.05-1.11,3.02-.36.3-1.87,2.1-1.97,2.36-.82.44-2.94.8-3.54,1.18-.45-.65-.38-1.4-.41-2.14-.47-13.33,1.51-27.51,2.39-40.9.4-6,.38-12.1.77-18.1s1.22-11.66,1.35-17.53c.22-.31,5.5-1.26,6.43-1.43,7.32-1.32,14.82-2.35,21.93-4.42l11.58-1.2ZM203.64,188.29c.97-3.96,3.91-5.97,7.08-8.06-3.29-1.88-5.91-4.45-7.27-8.06-1.14,1.39-1.9,3.44-3.13,4.73-.76.8-4.28,2.67-4.14,3.32.06.29,3.69,2.66,4.53,3.74.98,1.26,1.29,2.64,2.06,3.83.25.38-.04.7.87.51Z"/><path class="cls-14" d="M189.88,237.85c-.29.77-.98,4.09-1.09,5.01-.35,2.85-.99,5.64-1.28,8.15-.34,2.92-.16,6.47-.39,9.44-.5,6.6-1.28,13.21-1.18,19.86-.69.09-.37-.89-.39-1.37-.52-12.66,0-26.01,0-38.74.43-.15.66-1.1.79-1.18.6-.38,2.72-.74,3.54-1.18Z"/><path class="cls-25" d="M200.89,253.18c-2.61.41-3.43,3.35-4.13,5.51-1.07-2.75-1.3-4.78-4.52-5.7,2.28-1.38,3.73-2.67,4.52-5.31.7,2.6,2.17,3.84,4.13,5.51Z"/><path class="cls-18" d="M248.84,106.51c-.15,2.59,2.98,3.92,3.77,5.08s-1.12,1.67-1.95,2.79c-.73.99-1.07,2.42-1.69,3.41-1.22,1.96-1.76-1.57-2.37-2.55-.38-.62-.93-1.19-1.47-1.68-.73-.66-2.24-.57-1.78-1.77.06-.17,2.44-1.16,3.03-1.89.67-.84.98-2.36,1.33-3.39h1.13Z"/><path class="cls-9" d="M265.39,132.45l-.78.58c-3.05-8.73-3.68-17.83-4.33-26.93.93.27.69,1.07.82,1.74,1.57,8.14,3.02,16.43,4.29,24.61Z"/><path class="cls-9" d="M260.27,105.71c-.59-.13-.61-1.41,0-1.57.04.52-.03,1.05,0,1.57Z"/><path class="cls-12" d="M180.44,192.62c1.18,11.93,1.52,25.37,1.98,37.54.13,3.53-.76,3.03-1.4,5.31-.47,1.68-.52,4.33,1.78,4.34,0,.39,0,.79,0,1.18,0,.13,0,.26,0,.39-.12.03-.29-.05-.39,0-.12.05-.35-.06-.39,0-4.18-6.5-8.12-13.22-12.42-19.63-1.39-2.07-3.15-5.25-5.27-6.33.11-.2.08-.98.39-1.57,2.52-4.73,8.62-12.19,12.03-16.88,1.08-1.48,2.33-3.14,3.7-4.36Z"/><path class="cls-6" d="M113.98,174.92c4.51,8.32,9.88,16.74,14.55,25.17l1.62,5.26,2.7,2.61c.04.12-.04.27,0,.39.56,1.71.49,3.06,1.59,4.81.31.5,1.48,1.07,1.67,1.58.32.84.23,2.14.63,2.79.3.48,1.29.47,1.8,1.05.91,1.05,1.37,4.37,3.35,4.71,2.34,4.07,4.71,8.13,7.08,12.19s5.02,8.38,7.47,12.58c1.59,2.73,3.14,5.52,4.72,8.26-1.12,1.61.65,3.77,1.24,5.25l4.27,3.79c.19.44.28.72.39,1.18.25.97.16,2.88.51,4.02.48,1.54,1.82,2.67,2.64,5.42l-20.84-34.21c-3.56-7.35-8.11-14.18-12.19-21.24-8.65-14.97-17.32-30.02-25.56-45.23l2.36-.39Z"/><path class="cls-3" d="M173.75,235.88l-3.1,2.98c-.65,1.08-.1,2.56-1.88,2.81-.49.07-1.04-.31-1.31-.28l-2.92-3.17-1.79-3.12c-.33,2.76-1.95,4.45-4.32,5.7.76.52,1.24.74,1.96,1.38l-5.9-.39c-.63,3.1,3.64,3.44,1.96,6.29-2.45-4.21-5.03-8.39-7.47-12.58.87.03,1.06-.52,1.5-1.05,2.79-3.3,5.05-7.12,7.94-10.35l12.16,8.88c1.07.79,2.19,2.14,3.18,2.92Z"/><path class="cls-29" d="M182.01,241.39c-.08.12.06.55,0,.79h-.38c-.35-1.1-2.26-1.9-3.34-2.76-1.5-1.19-3.09-2.4-4.53-3.53-.99-.78-2.11-2.13-3.18-2.92l-12.16-8.88v-.79c2.32-2.13,4.34-5.11,5.9-7.87,2.12,1.08,3.88,4.26,5.27,6.33,4.31,6.41,8.25,13.13,12.42,19.63Z"/><path class="cls-25" d="M167.46,241.39c-2.9.27-3.69,2.59-4.33,5.11l-1.32-2.81c-.3-.76-.91-1.05-1.43-1.52-.72-.64-1.2-.86-1.96-1.38,2.38-1.25,3.99-2.94,4.32-5.7l1.79,3.12,2.92,3.17Z"/><path class="cls-19" d="M166.67,265.38l-4.27-3.79c-.59-1.48-2.36-3.65-1.24-5.25,1.54,2.67,4.42,6.5,5.51,9.05Z"/><path class="cls-10" d="M145.44,124.19c.03-.07.5-.26.69-.68,1.1-2.43,2.66-7.42,4.08-9.3.38-.51.54-.82,1.29-.62.63.2,1.58,2.54,2.22,2.92,1.47.87.62-.42,1.94,1.49.18.26.7.22.78.56,1.36,5.6,4.3,6.73,7.37,10.85.37.5.29,1.53.51,1.85-1.29.71-3.45-.14-4.81.07-2.09.33-2.37,1.72-4.74.31-.58-.34.08-1.17-2.02-.4-.42-.11-.6-.76-.63-1.16-.04-.5.51-.89.11-1.85-.94-2.27-4.1-1.57-3.65,1.06-.36-.13-1.21.14-1.74,0-.68-.19-1.29-1.11-1.8-.58.7,4.2,4.54,7.38,5.12,11.6-3.79.28-7.58,1.03-11.4.78.93-4.22,3.2-7.94,4.87-11.84.42-.98.59-2.13,1.03-3.1.31-.69.54-1.43.79-1.97Z"/><path class="cls-15" d="M148.58,129.3c.71.24.77,2.4,3.54.79.03.41.21,1.06.63,1.16,2.1-.77,1.44.06,2.02.4,2.38,1.41,2.65.02,4.74-.31,1.36-.22,3.52.63,4.81-.07,1.09,1.52,4.18,4.78,4.91,6.3.25.52.25,1.01.21,1.56-6.42.3-12.86.7-19.27,1.18-.58-4.21-4.42-7.4-5.12-11.6.51-.53,1.12.39,1.8.58.54.15,1.38-.12,1.74,0ZM161.17,132.84c-.32,1.53,1.26,1.78,2.23,2.3,1.04.1,1.29-1.61.54-2.13l-2.77-.18Z"/><path class="cls-23" d="M134.03,124.19c1.33-.51,3.7-1.19,3.94-2.75h.58c.78,1.65,1.86,2.77,3.74,3.15.34.45-1.23,1.81-1.57,2.35-.72,1.15-2.09,5.72-2.59,5.85-1.9.47-3.05-3.63-3.7-5.06-.43-.94-.76-2.19-1.18-3.15.33.02.58-.31.79-.39Z"/><path class="cls-22" d="M134.03,124.19c1.78-3.1,4.77-4.41,5.08-8.42l1.02-.24c1.11,2.76,2.45,5.24,4.14,7.69.34.49.3,1.17,1.17.97-.24.54-.48,1.28-.79,1.97l-3.93.79c.34-.54,1.91-1.91,1.57-2.35-1.88-.38-2.96-1.5-3.74-3.15h-.58c-.24,1.56-2.61,2.24-3.94,2.75Z"/><path class="cls-23" d="M125.38,133.23c1.44.07,1.65,1.68,1.57,2.75-1.56.14-3.16-.02-3.93-1.57.26-.12.51-.27.79-.39.3-.14.48-.19.79-.39.14-.09.38-.05.79-.39Z"/><path class="cls-13" d="M191.06,88.79l-.25.79h-1.72s0-.79,0-.79c.65.04,1.32-.04,1.97,0Z"/><path class="cls-30" d="M268.53,185.54c-5.28,6.69-11.12,12.89-16.51,19.47-1.24,1.52-2.08,3.47-3.94,4.51.33-1.84.26-1.99,1.41-3.9,2.19-3.64,8.69-14.39,11.57-16.55,1.53-1.15,4.12-2.5,5.9-3.35.4-.19,1.34-.98,1.58-.19Z"/><path class="cls-7" d="M262.24,185.93c-.57,1.08-1.36,1.96-1.18,3.15-2.88,2.16-9.39,12.91-11.57,16.55-1.15,1.91-1.08,2.07-1.41,3.9-.02.13.03.28,0,.39-.14.53-5.43,5.98-6.29,7.08.76-2.55,2.57-5.28,3.99-7.61,3.91-6.42,7.56-14,11.74-20.31.73-1.1,1.71-1.51,2.36-2.75l2.36-.39Z"/><path class="cls-24" d="M268.93,178.46c.08.95.31,2.63.47,3.68.09.57.68.94.71,1.04.35,1.42-1.07,1.73-1.57,2.36-.24-.79-1.18,0-1.58.19-1.77.84-4.36,2.19-5.9,3.35-.18-1.18.61-2.07,1.18-3.15,1.72-3.29,2.39-3.17,4.7-5.33.75-.7.62-2.14,1.98-2.15Z"/><path class="cls-19" d="M261.45,95.09c0,.39,0,.79,0,1.18-.02,3.18.69,7.04,1.18,10.23l-1.55-2.97-1.2-8.43c.49-.07,1.13.1,1.57,0Z"/><path class="cls-6" d="M109.26,98.23l-2.36,11.4c0-.45.29-1.66-.39-1.57-1.39,2.14-.45,3.75-.62,5.56-.22,2.4-1.34,7.22-1.86,9.86-.44,2.22-.75,4.49-2.24,6.21,1.01-6.37,2.19-12.83,3.11-19.11.46-3.15.99-6.42,1.02-9.6l-32.05,42.08c-.69-.14-1.68.14-2.36,0,1.01-.95,1.58-2.57,2.36-3.54,3.02-3.79,6.43-7.42,9.13-11.53.31-.47.23-1.34.31-1.44.04-.05.86-.11,1.2-.55,6.78-8.92,13.87-17.71,20.43-26.78.41-.56.76-1.03.79-1.76,1.24.22,2.63.63,3.54.79Z"/><path class="cls-19" d="M106.9,109.64c.05,5.62-2.17,14.54-3.15,20.45-.75,4.5-2,9.22-2.36,13.76-1.16.27-1.43,1.06-1.97,1.97.42-5.42,1.51-10.77,2.36-16.12,1.49-1.73,1.8-3.99,2.24-6.21.52-2.64,1.65-7.46,1.86-9.86.16-1.81-.77-3.42.62-5.56.68-.09.38,1.12.39,1.57Z"/><path class="cls-21" d="M124.59,133.63c-.31.2-.48.26-.79.39v-.78s.59,0,.59,0l.2.39Z"/><path class="cls-3" d="M239.43,220.15c-.65.98-1.22,2-1.57,3.15-1.03.13-1.72,1.41-2.34,2.18-3.55,4.34-7.19,8.74-10.63,13.16-1.26-1.07-3.16.37-4.72,0,3.5-6.65,6.86-13.57,10.62-20.06,1.12-1.93,2.36-3.56,3.54-5.51,2.05-.88,3.3-3.06,4.72-4.72l-1.6,4.14c1.23,2.49,2.14,4.79,2,7.66Z"/><path class="cls-10" d="M257.52,189.08c-4.18,6.31-7.83,13.9-11.74,20.31-1.42,2.33-3.23,5.06-3.99,7.61-.67.85-1.72,2.18-2.36,3.15.14-2.87-.77-5.17-2-7.66l1.6-4.14c2.96-3.47,7.05-7.49,9.62-11.42.42-.64.93-2.61,1.05-2.68.33-.22,1.49.1,2.3-.25,1.82-.8,3.21-4.91,5.51-4.91Z"/><path class="cls-8" d="M214.65,246.5c0,1.7.02,3.41,0,5.11,0,.39,0,.79,0,1.18l-5.89,6.89c-2.23,2.68-4.15,5.73-6.3,8.44-1.69,2.12-3.52,4.26-5.26,6.36-.47.57-.3.98-1.43.72,5.9-9.61,11.44-20.02,17.63-29.37.36-.54.57-1.06,1.25-1.31,0,.66,0,1.31,0,1.97Z"/><path class="cls-9" d="M237.86,223.29c-.86,2.84-3.76,9.71-5.5,12.39-1.69,2.6-7.05,6.88-10.23,7.27.89-1.15,1.9-3.23,2.75-4.33,3.44-4.42,7.08-8.82,10.63-13.16.63-.77,1.32-2.05,2.34-2.18Z"/><path class="cls-28" d="M224.88,238.63c-.86,1.1-1.87,3.17-2.75,4.33-1.88,2.45-4.04,5.09-6.04,7.53-.42.51-.55,1.18-1.43,1.12.02-1.7,0-3.41,0-5.11,3.01-.5,4.14-5.26,5.51-7.87,1.55.37,3.46-1.07,4.72,0Z"/><path class="cls-28" d="M114.37,152.11c.26.02.53-.02.79,0,.44.54.72.65,1.4.76,6.56,1.03,13.42,1.26,20.04,1.99,8.1.89,16.25,2,24.43,3.1,4.66.62,9.36,1.01,14.02,1.62.72.21,1.74,7.11,1.86,8.26.04.39-.02.79,0,1.18.03.58-.1,1.12.39,1.57-.43,4.39,2.1,15.68,2.75,20.84l-16.52-8.65,4.72-1.17c-2.53-.62-5.17-.37-7.69-1.16-1.58-.5-10.19-4.58-10.97-5.54-2.02-2.49-2.25-11.25-2.96-14.74-.13-.63.12-1.3-.6-1.76-.97,4.54-.88,9.27-2.16,13.76-2.14.01-3.64-1.6-5.23-2.44-11.68-6.15-24.79-11.85-36.06-18.41-.15-.09-.27-.26-.39-.39.13.02.26-.02.39,0,3.9.48,7.88.81,11.8,1.18Z"/><path class="cls-25" d="M163.53,182.79l16.52,8.65c.04.29.35.72.39,1.18-1.37,1.22-2.62,2.88-3.7,4.36-3.41,4.68-9.51,12.15-12.03,16.88-.91.2-.85-.45-1.12-1.03-4.2-8.97-7.19-18.53-11.86-27.29,3.34-2.47,7.75-2.82,11.8-2.75Z"/><path class="cls-5" d="M182.8,199.3c0-8.58-.1-17.18,0-25.77,0-.67-.25-1.75.4-2.16.15,8.52.1,17.14,0,25.77,0,.66.25,1.75-.4,2.16Z"/><path class="cls-5" d="M183.19,234.31c-.65-.41-.39-1.49-.4-2.16-.06-5.18,0-10.37,0-15.54.65.41.39,1.49.4,2.16.06,5.17.08,10.38,0,15.54Z"/><path class="cls-5" d="M182.8,212.28v-3.54c.66.73.66,2.81,0,3.54Z"/><path class="cls-12" d="M176.9,169.02h.79c.37.72-.38,1.49-.39,1.57-.5-.45-.36-1-.39-1.57Z"/><path class="cls-5" d="M182.8,202.45v-1.18c.59.06.59,1.12,0,1.18Z"/><path class="cls-19" d="M103.36,94.69c-.18-.02-.36-.2-.39-.39l.39.39Z"/><path class="cls-30" d="M101.78,129.69c-.85,5.36-1.94,10.7-2.36,16.12-.34.56-.51,1.77-.96,1.87-7.62-1.55-15.41-2.37-23.03-3.84-.58-.11-1.3-.73-1.57-.79l32.05-42.08c-.03,3.18-.56,6.45-1.02,9.6-.92,6.27-2.1,12.74-3.11,19.11Z"/><path class="cls-27" d="M91.56,149.36c-.05,0-.39.42-.95.42-.85,0-1.69-.59-2.59-.41.16,3.26,4.48,2.99,6.5,4.31,1.28.84,2.8,4.77,4.31,4.74.64-.01,1.09-1.09,1.79-.62,1.33.82.07,5.93,3.14,5.73,2.32,6.5,5.59,12.71,7.86,19.27l-17.7-13.76c-3.02-2.47-5.31-5.72-7.87-8.65-3.97-4.56-8-9.16-11.4-14.16l16.91,3.15ZM99.82,164.3c-.27-2.39-6.42-2.17-4.92.01.33.48,1.72.61,1.39,1.96,1.09.27.72-.8,1.58-1.36.52-.34,1.34-.49,1.95-.61Z"/><path class="cls-19" d="M102.18,150.93c.12.13.24.3.39.39,1.15,3.6,3.15,7.24,4.91,10.63,2.17,4.19,4.35,9.01,6.5,12.97l-2.36.39c-3.18-5.86-6.38-11.77-9.44-17.7-.89-1.72-2.08-5.5-3.18-6.85-.62-.76-1.32-.46-1.93-1.02,1.73.17,3.05.9,5.11,1.18Z"/><path class="cls-24" d="M91.56,149.36c.26.01.53,0,.79,0v.78s.79-.39.79-.39c1.28.07,2.68-.12,3.93,0,.62.56,1.31.26,1.93,1.02,1.1,1.34,2.29,5.13,3.18,6.85-.41,2.21.87,3.93,1.57,5.9-3.07.2-1.8-4.91-3.14-5.73-.69-.47-1.15.61-1.79.62-1.51.03-3.03-3.9-4.31-4.74-2.02-1.32-6.34-1.05-6.5-4.31.89-.17,1.74.41,2.59.41.56,0,.9-.42.95-.42Z"/><path class="cls-26" d="M74.25,145.82l.39.39c3.41,5,7.43,9.6,11.4,14.16-3.07-.75-5.37-3.9-7.66-5.91l-4.14-1.95c-1.76-2.55-4.16-4.66-5.51-7.47l5.51.79Z"/><path class="cls-19" d="M71.5,143.07c.68.14,1.67-.14,2.36,0,.27.05.99.67,1.57.79-1.2.5-1.38.53-1.18,1.97l-5.51-.79c-.04-.09-.34-.2-.39-.39.08,0,1.21-.6,1.58-.59-.03-1.09-.74-1.35-1.58-1.77,1.08.23,2.06.57,3.15.79Z"/><path class="cls-27" d="M93.13,149.75l-.78.39v-.78c.69.03.74.39.78.39Z"/><path class="cls-7" d="M230.78,218.58c-3.76,6.49-7.12,13.41-10.62,20.06-1.37,2.6-2.49,7.36-5.51,7.87,0-.66,0-1.31,0-1.97,0-.26,0-.52,0-.79,2.09-2.99,3.97-6.17,5.83-9.31.45-.75.63-2.15.86-2.49.03-.04.56.13.92-.48,2.51-4.26,4.9-8.6,7.34-12.89.13,0,.26,0,.39,0,.26,0,.52,0,.79,0Z"/><path class="cls-5" d="M131.67,151.33c-.43-.02-.99.12-1.18-.39.43.03.98-.13,1.18.39Z"/><path class="cls-5" d="M129.31,150.93c.13,0,.26,0,.39,0l-.2.39-.2-.39Z"/><path class="cls-19" d="M263.03,109.24s-.3-.26-.38-.61c-.12-.58.07-1.23-.01-1.75.7.44.34,1.62.39,2.36Z"/><path class="cls-6" d="M104.93,96.66l.39.79c-.46-.08-.86-.34-1.18-.39v-.39c.26,0,.53.02.79,0Z"/><path class="cls-19" d="M104.14,96.66v.39c-.66-.12-1.31-.27-1.97-.39.48-1.06,1.8,0,1.97,0Z"/><path class="cls-16" d="M74.25,152.5l4.14,1.95c2.29,2.02,4.58,5.16,7.66,5.91,2.56,2.93,4.84,6.18,7.87,8.65-.17.92.33,1.2.78,1.78,8.76,11.48,18.27,22.99,27.54,34.01-1.21,1.83.33,2.64.94,3.97.88,1.92,3.48,7.01,3.02,8.79l-1.21,1c-3.75-3.74-7.54-7.59-11.4-11.21-1.6-1.5-3.66-3.37-5.51-4.52-1.05-1.57-2.27-2.58-3.15-3.93-9.92-15.34-20.26-31.35-30.68-46.41Z"/><path class="cls-12" d="M124.99,218.58c1.36,1.35,2.59,2.96,3.93,4.33.02.73.44,1.74.79,2.36-.89.02-2.04-.62-2.87-.42-.44.11-.3,1.13-1.25,1.23-.53.05-2.4-.57-2.84-.93-1.11-.89-4.79-6.72-5.95-8.4-3.07-4.47-5.75-9.47-8.71-13.9,1.85,1.15,3.92,3.02,5.51,4.52,3.86,3.62,7.65,7.48,11.4,11.21Z"/><path class="cls-8" d="M73.86,139.53c-.78.97-1.35,2.59-2.36,3.54-1.08-.22-2.06-.56-3.15-.79-6.38-1.35-12.59-3.05-18.88-4.72.65-.66,1.66-.81,2.54-.8,4.57.07,11.25,2.18,16.14,2.76,1.62.19,4.2.46,5.7,0Z"/><path class="cls-25" d="M70.71,117.5c-.16,2.94,2.01,3.93,3.93,5.5-2.95.18-3.06,3.53-4.71,5.12-.1-1.08-.74-2.71-1.4-3.52-.56-.69-3.11-1.76-2.54-2.37,1.46-.18,2.49-1.33,3.23-2.48.56-.88.38-2.47,1.49-2.25Z"/><path class="cls-26" d="M122.23,204.81c2.26,2.69,5.12,5.96,7.47,8.65-.68.47.37,2.2.63,2.71,2.3,4.44,4.84,8.75,7.44,13.01l1.37,3.55c-2.31-2.99-7.36-6.93-10.23-9.83-1.34-1.36-2.58-2.98-3.93-4.33l1.21-1c.46-1.78-2.14-6.87-3.02-8.79-.61-1.33-2.15-2.14-.94-3.97Z"/><path class="cls-8" d="M137.18,220.54c4.08,7.06,8.63,13.88,12.19,21.24-3.59-1.3-5.41-5.55-9.05-7.08-.28-.47-.96-1.68-1.18-1.97l-1.37-3.55c-2.6-4.26-5.14-8.58-7.44-13.01-.26-.51-1.31-2.24-.63-2.71,1.8,2.06,4.18,4.74,6.08,6.7.3.31,1.09,1.28,1.39.38Z"/><path class="cls-28" d="M234.32,213.07c-1.18,1.94-2.42,3.58-3.54,5.51-.26,0-.52,0-.79,0,4.46-8.79,9.77-17.12,14.62-25.69.75-1.32,1.24-3.03,1.9-4.2,1.29-2.3,3.41-5.09,4.72-7.47.77.41-.32,1.89-.58,2.37-5.39,9.85-10.64,20.08-16.33,29.49Z"/><path class="cls-5" d="M229.6,218.58c-2.44,4.29-4.83,8.64-7.34,12.89-.36.61-.89.43-.92.48-.89.21-.9-.51-1.18-1.18,2.15-3.7,4.03-7.7,6.29-11.4.14-.11.3-.24.39-.39.14-.24.26-.53.39-.79.73.5,1.54.36,2.36.39Z"/><path class="cls-14" d="M267.75,158.8c.17,4.13.49,8.42.79,12.58-1.23,1.33-2.29,3.3-3.16,4.9-1.81,3.35-3.74,6.68-5.49,10.04-.65,1.24-1.63,1.65-2.36,2.75-2.3,0-3.69,4.11-5.51,4.91-.81.35-1.97.03-2.3.25-.12.08-.63,2.05-1.05,2.68-2.57,3.93-6.66,7.95-9.62,11.42-1.42,1.66-2.67,3.84-4.72,4.72,5.69-9.41,10.94-19.64,16.33-29.49.26-.47,1.35-1.95.58-2.37.47-.85.58-1.99.79-2.36.94-1.71,2.51-3.6,3.54-5.51.69.57.92.1,1.38-.38,3.55-3.7,6.68-8.7,9.42-13.01.38-.59.44-1.21,1.39-1.17Z"/><path class="cls-16" d="M267.75,158.8c-.95-.05-1.01.57-1.39,1.17-2.74,4.3-5.87,9.31-9.42,13.01-.46.48-.7.95-1.38.38,3.93-7.26,7.42-14.78,11.4-22.02.9.28.76,1.02.81,1.75.12,1.87-.1,3.87-.02,5.72Z"/><path class="cls-20" d="M226.45,219.36c.09-.15.26-.27.39-.39-.09.16-.25.28-.39.39Z"/><path class="cls-25" d="M273.64,119.86l3.13-1.57c1.36,2.45,3.14,2.07.82,4.98-.11.14.05.45-.02.52-.2.22-.86.76-1.18.62-1.36-.97-1.78-3.03-3.54-3.38v-.77c.3-.06.58-.18.78-.41Z"/><path class="cls-3" d="M268.93,175.71c.08.9-.08,1.85,0,2.75-1.36,0-1.24,1.45-1.98,2.15-2.31,2.16-2.98,2.04-4.7,5.33l-2.36.39c1.76-3.36,3.68-6.69,5.49-10.04.87-1.6,1.93-3.57,3.16-4.9.1,1.4.27,2.91.39,4.33Z"/><path class="cls-18" d="M203.64,188.29c-.92.2-.63-.12-.87-.51-.77-1.19-1.08-2.57-2.06-3.83-.84-1.07-4.47-3.45-4.53-3.74-.14-.65,3.38-2.52,4.14-3.32,1.23-1.29,1.99-3.34,3.13-4.73,1.35,3.61,3.98,6.18,7.27,8.06-3.17,2.09-6.11,4.1-7.08,8.06Z"/><path class="cls-7" d="M143.86,172.17c-2.75,9.63-11.48,7.56-19.46,9.06-.64.12-.68-.26-.59.77,4.95.6,14.13.31,17.69,4.13,1.81,1.95,2.24,4.74,3.06,7.17l1.27,11.9c.98.07.67.1.78-.59.74-5.05.87-15.07,4.32-18.81.36-.39.73-.21.81-.27,4.67,8.76,7.66,18.32,11.86,27.29.27.58.21,1.22,1.12,1.03-.32.59-.28,1.38-.39,1.57-1.56,2.76-3.58,5.74-5.9,7.87l-.81-.22.42-1.74-3.37-.76c-7.79-5.77-15.05-12.34-22.96-17.94-.46-.32-1.15-1.13-1.59-.19-.39-.72-1.17-1.63-1.57-2.36-4.67-8.43-10.04-16.85-14.55-25.17-2.14-3.96-4.33-8.78-6.5-12.97-1.76-3.39-3.75-7.02-4.91-10.63,11.27,6.56,24.39,12.25,36.06,18.41,1.59.84,3.09,2.45,5.23,2.44Z"/><path class="cls-12" d="M111.62,175.31c8.24,15.2,16.91,30.25,25.56,45.23-.3.91-1.09-.07-1.39-.38-1.9-1.96-4.28-4.64-6.08-6.7-2.35-2.69-5.21-5.96-7.47-8.65-9.27-11.02-18.78-22.53-27.54-34.01-.45-.58-.95-.86-.78-1.78l17.7,13.76c-2.28-6.56-5.54-12.77-7.86-19.27-.7-1.97-1.98-3.69-1.57-5.9,3.06,5.92,6.26,11.83,9.44,17.7Z"/><path class="cls-23" d="M130.1,202.45c.44-.95,1.13-.14,1.59.19,7.91,5.59,15.17,12.17,22.96,17.94l3.37.76-.42,1.74.81.22v.79c-2.89,3.23-5.15,7.05-7.94,10.35-.45.53-.63,1.08-1.5,1.05-2.36-4.06-4.74-8.12-7.08-12.19-2.58-4.49-5.27-9.3-7.94-13.9-.3-.52-.12-1.26-1.1-1.04-.04-.12.04-.27,0-.39-.59-1.92-1.81-3.75-2.75-5.51Z"/><path class="cls-19" d="M132.85,208.35c.98-.22.8.52,1.1,1.04,2.67,4.61,5.36,9.42,7.94,13.9-1.98-.35-2.44-3.66-3.35-4.71-.5-.58-1.5-.57-1.8-1.05-.41-.65-.31-1.96-.63-2.79-.19-.5-1.36-1.08-1.67-1.58-1.1-1.75-1.04-3.1-1.59-4.81Z"/><path class="cls-19" d="M130.1,202.45c.95,1.76,2.16,3.59,2.75,5.51l-2.7-2.61-1.62-5.26c.4.73,1.18,1.64,1.57,2.36Z"/><path class="cls-25" d="M152.12,130.09c-2.77,1.62-2.83-.54-3.54-.79-.45-2.63,2.71-3.33,3.65-1.06.4.96-.14,1.34-.11,1.85Z"/><path class="cls-10" d="M161.17,132.84l2.77.18c.75.52.5,2.22-.54,2.13-.97-.53-2.55-.77-2.23-2.3Z"/><path class="cls-18" d="M143.86,172.17c1.28-4.49,1.19-9.22,2.16-13.76.72.46.47,1.13.6,1.76.71,3.49.94,12.25,2.96,14.74.78.96,9.39,5.05,10.97,5.54,2.52.79,5.16.55,7.69,1.16l-4.72,1.17c-4.04-.07-8.46.28-11.8,2.75-.07.05-.45-.12-.81.27-3.44,3.74-3.57,13.76-4.32,18.81-.1.69.21.66-.78.59l-1.27-11.9c-.82-2.42-1.24-5.22-3.06-7.17-3.56-3.82-12.74-3.53-17.69-4.13-.09-1.03-.05-.65.59-.77,7.99-1.5,16.72.58,19.46-9.06Z"/><path class="cls-18" d="M99.82,164.3c-.62.12-1.43.27-1.95.61-.86.56-.49,1.62-1.58,1.36.33-1.35-1.06-1.48-1.39-1.96-1.49-2.19,4.65-2.4,4.92-.01Z"/><rect class="cls-1" width="358.65" height="358.65"/></g></svg>