<?xml version="1.0" encoding="UTF-8"?><svg id="Lager_2" xmlns="http://www.w3.org/2000/svg" viewBox="0 0 358.65 358.65"><defs><style>.cls-1{fill:none;}.cls-2{fill:#f6e9e3;}.cls-3{fill:#343030;}.cls-4{fill:#565151;}.cls-5{fill:#e9dcda;}.cls-6{fill:#fef4ed;}.cls-7{fill:#f4f1f0;}.cls-8{fill:#433e3e;}.cls-9{fill:#fdf7f2;}.cls-10{fill:#fcf5ef;}.cls-11{fill:#3e3939;}.cls-12{fill:#332e2e;}.cls-13{fill:#eadddb;}.cls-14{fill:#262424;}.cls-15{fill:#dbcfcd;}.cls-16{fill:#5a5959;}.cls-17{fill:#f4eae6;}.cls-18{fill:#e7d9d8;}.cls-19{fill:#f6eae4;}.cls-20{fill:#3d3a3b;}.cls-21{fill:#fbf2ec;}.cls-22{fill:#464141;}.cls-23{fill:#f4eded;}.cls-24{fill:#3a3737;}.cls-25{fill:#e5d8d7;}.cls-26{fill:#2b2a29;}.cls-27{fill:#393435;}.cls-28{fill:#fcf2ea;}.cls-29{fill:#fefcf9;}</style></defs><g id="Lager_1-2"><path class="cls-23" d="M112.92,85.74l-38.98,14.85-8.17,7.05-9.27,54.94s-9.88,100.12,40.17,111.84,75.51,16.55,75.51,16.55l7.56.56,40.09-6.08,56.15-20.69,13.26-7.89,5.94-35.45,4.9-55.48-6.39-46.41-7.8-14.85-22.64-11.14-80.55-19.3-32.3,1.48-37.49,10.02Z"/><ellipse class="cls-16" cx="81.08" cy="148.65" rx="13.82" ry="19.84"/><ellipse class="cls-16" cx="147.62" cy="237.44" rx="13.82" ry="19.84"/><ellipse class="cls-16" cx="174.54" cy="99.1" rx="17.22" ry="9.09"/><ellipse class="cls-16" cx="212.06" cy="242.38" rx="14.13" ry="19.57"/><ellipse class="cls-16" cx="242.54" cy="196.7" rx="14.13" ry="19.57"/><ellipse class="cls-16" cx="272.5" cy="149.56" rx="14.13" ry="19.57"/><path class="cls-27" d="M180.48,71.63c.26.56,1,.36,1.48.37,5.47.12,10.82,1.85,15.96,2.23l.74.37c6.13.5,12.19,2,18.19,3.34l.74.37c.22.05.52-.05.74,0l.74.37,18.93,4.45.74.37c6.59,1.86,13.19,3.75,19.67,5.94l.74.37c21.01,7.19,33.85,10.26,37.86,34.52l.37,1.11c.51,3.57,1.12,7.06,1.48,10.95,1.59,17.35,1.32,34.96.73,52.32-.56,16.4-1.53,55.05-10.38,68.13-6.45,9.53-25.24,16.67-35.91,20.7-4.78,1.81-9.63,3.61-14.58,4.91l-.37-.37v.74c-2.74.69-6.75,1.6-9.28,2.6-.15.06-.28.24-.37.37-13.82,3.43-27.66,7.25-41.95,8.17-.75.05-1.76.37-1.86.37-14.08.69-33.29-4.43-47.14-7.8-.22-.05-.63-.55-1.11-.37h-.37c-.11-.4-.45-.3-.74-.37-.22-.05-.53.05-.74,0-.2-.05-.64-.25-1.11-.37-.59-.15-1.23-.21-1.86-.37-.04-.01-.22-.23-.74-.37-.62-.16-1.45-.17-2.23-.37-.04-.01-.24-.24-.74-.37-.57-.15-1.23-.2-1.86-.37-.04-.01-.25-.24-.74-.37-.56-.15-1.23-.2-1.86-.37-.04-.01-.24-.23-.74-.37-1.95-.54-3.98-.87-5.94-1.48-.04-.01-.32-.23-.74-.37-.11-.04-.26.04-.37,0-.04-.01-.23-.24-.74-.37-.11-.03-.25.02-.37,0-.11-.38-.44-.32-.74-.37-5.02-.93-12.41-3.69-17.37-5.46-10.05-3.59-26.15-9.16-32.37-17.92-1.53-2.16-2.39-3.89-3.34-6.31l2.23-.37c3.73,9.22,12.32,13.43,20.9,17.15,11.16,4.83,23.11,8.42,34.78,11.81,10.82,3.15,22.02,6.16,33.04,8.54,1.35.29,2.74.47,4.08.74,1.14.23,2.07.2,2.97.37,4.34.82,8.72,2.01,13.23,2.55,15.28,1.83,30.61-1.13,45.43-4.78.69-.17,1.44-.54,2.23-.74,10.85-2.79,20.42-6.14,30.81-10.02,11.4-4.26,30.24-10.1,36.91-20.82,4.98-8.01,6.63-23.69,7.64-33.2,3.14-29.66,3.14-60.33.74-90.02l-.37-1.11c.02-3.36-.68-6.77-1.48-10.02-.13-.52-.36-.7-.37-.74-1.62-5.95-3.13-10.52-7.8-14.85-.13-.12-.24-.26-.37-.37-1.45-1.26-3.16-2.38-4.83-3.34-.78-.45-1.46-.53-1.86-.74-.59-.31-1.15-.77-1.86-1.11-.25-.12-.49-.25-.74-.37-.84-.4-1.75-.74-2.6-1.11-.22-.1-.46-.25-.74-.37-.39-.17-.78-.23-1.11-.37-.16-.07-.4-.23-.74-.37s-.73-.22-1.11-.37c-.14-.06-.4-.24-.74-.37-1.7-.67-3.48-1.22-5.2-1.86-.18-.07-.42-.25-.74-.37-1.46-.53-3.05-.8-4.45-1.48l-.74-.37-1.48-.37-.74-.37c-.11-.04-.26.04-.37,0-.04-.01-.33-.23-.74-.37-.11-.04-.26.04-.37,0-.04-.01-.34-.52-.74-.37h-.37c-.49-.14-1-.22-1.48-.37-.06-.02-.34-.24-.74-.37-.48-.15-1-.22-1.48-.37-.04-.01-.29-.23-.74-.37-.2-.06-.54.06-.74,0-.05-.01-.33-.24-.74-.37-.86-.26-1.78-.34-2.6-.74l-.74-.37h-.74l-.74-.37c-.11-.03-.26.03-.37,0-.04-.01-.33-.53-.74-.37h-.74l-.74-.37h-.37l-.74-.37-3.71-.74-.74-.37h-.37l-1.11-.37h-.37c-.11-.4-.46-.3-.74-.37-.21-.06-.53.06-.74,0-.04-.01-.22-.24-.74-.37-.21-.06-.53.06-.74,0-.04-.01-.22-.24-.74-.37-.22-.06-.53.06-.74,0-.04-.01-.22-.24-.74-.37-.12-.03-.25.03-.37,0-.21-.05-.63-.25-1.11-.37-.22-.05-.53.05-.74,0-.04,0-.33-.53-.74-.37h-.37l-1.11-.37c-.24-.03-.53.05-.74,0-.04,0-.33-.53-.74-.37h-.74c-.11-.4-.45-.3-.74-.37-.21-.05-.51.03-.74,0l-.74-.37h-.74c-.18-.54-.76-.29-1.11-.37-.22-.05-.52.05-.74,0-.04,0-.18-.25-.74-.37-.22-.05-.52.05-.74,0-.04,0-.17-.25-.74-.37-.33-.07-.79.07-1.11,0-.04,0-.17-.25-.74-.37-.22-.05-.52.05-.74,0-.11-.02-.58-.26-1.11-.37-.22-.05-.52.05-.74,0-.04,0-.16-.25-.74-.37-.33-.07-.78.07-1.11,0-.04,0-.15-.25-.74-.37-.33-.07-.78.07-1.11,0-.04,0-.15-.26-.74-.37-.23-.04-.51.04-.74,0-.07-.01-.56-.27-1.11-.37-.34-.06-.78.06-1.11,0-.04,0-.14-.26-.74-.37-.23-.04-.51.04-.74,0-.06-.01-.54-.27-1.11-.37-.34-.06-.77.06-1.11,0-.04,0-.12-.27-.74-.37-.46-.08-1.02.07-1.48,0-.06,0-.47-.28-1.11-.37-.35-.05-.76.05-1.11,0-.19-.02-.76-.3-1.48-.37-.24-.02-.5,0-.74,0-.55-1.1-1.37-.36-1.48-.37-.49-.04-1,.05-1.48,0-.04,0-.09-.3-.74-.37-.6-.07-1.25.07-1.86,0-.06,0-.41-.29-1.11-.37-.6-.07-1.25.06-1.86,0-.06,0-.37-.3-1.11-.37-.61-.06-1.24.05-1.86,0-.21-.02-1.02-.33-1.86-.37-1.11-.05-2.23.03-3.34,0-2.39-.62-5.77-.62-8.17,0-.62.02-1.24-.01-1.86,0-.44-.74-1.74-.11-2.23.37h-1.11c-.05-.56-1.06-.56-1.11,0l-2.23.37-1.11.37-3.71.37c-.44-.16-.7.36-.74.37-.34.06-.78-.06-1.11,0-.6.11-.7.36-.74.37-.23.04-.52-.04-.74,0-.55.11-1.01.35-1.11.37-.23.05-.52-.05-.74,0-.53.11-1,.35-1.11.37s-.25-.03-.37,0c-.53.11-.99.34-1.11.37-.22.05-.52-.05-.74,0-.52.12-.97.34-1.11.37-.62.14-1.25.23-1.86.37-.54.12-.7.36-.74.37-.22.05-.52-.05-.74,0-.29.07-.63-.03-.74.37l-2.6.37c-.43-.16-.7.36-.74.37-.22.05-.53-.05-.74,0-.53.13-.7.36-.74.37-.12.03-.26-.03-.37,0-.48.12-.89.31-1.11.37-.12.03-.26-.03-.37,0l-1.11.37-3.34.74c-.4-.15-.7.36-.74.37-.56.15-1.23.2-1.86.37-.44.12-.7.36-.74.37-.21.06-.53-.06-.74,0-.49.14-.7.36-.74.37-.11.03-.26-.03-.37,0-.48.14-.7.36-.74.37-.11.03-.26-.03-.37,0-.48.14-.7.36-.74.37-.55.16-1.23.19-1.86.37-.42.12-.7.36-.74.37-.62.19-1.32.21-1.86.37-.45.14-.7.36-.74.37-.53.16-1.23.18-1.86.37-.38.12-.63.34-.74.37-.13.04-.27.34-.37.37-1.78.56-4.05.87-5.94,1.48-.42.14-.7.36-.74.37-.11.04-.26-.04-.37,0-.41.14-.7.36-.74.37-.11.04-.26-.04-.37,0-.41.14-.7.36-.74.37-.11.04-.26-.04-.37,0-.41.14-.69.35-.74.37-.11.04-.26-.04-.37,0l-.74.37-3.34,1.11-.74.37c-.11.04-.26-.04-.37,0-.39.14-.66.34-.74.37-.11.04-.26-.04-.37,0-.38.14-.65.34-.74.37-.11.04-.26-.04-.37,0l-.74.37c-2.28.99-4.76,1.66-7.05,2.6-.31.13-.54.29-.74.37-2.35.98-4.75,1.89-7.05,2.97-.66.31-1.01.69-1.11.74-1.49.73-3.02,1.4-4.45,2.23-.61.35-1.64.75-2.23,1.11-.14.09-.24.29-.37.37-.54.35-.98.73-1.48,1.11-3.58,2.72-6.44,6.12-8.17,10.39-.75.16-1.14-.09-1.48-.74v-.74c4.64-10.29,10.72-12.91,20.42-17.45l.74-.37c.1-.05.27.05.37,0l1.11-.74,4.83-1.86.74-.37c.11-.04.26.04.37,0l.74-.37c2.08-.8,4.21-1.48,6.31-2.23l.74-.37c.11-.04.26.04.37,0l.74-.37c.11-.04.26.04.37,0l.74-.37,5.94-1.86.74-.37c.11-.04.26.04.37,0l.74-.37c2.52-.58,4.96-1.47,7.42-2.23l.74-.37,1.86-.37.74-.37,4.45-1.11.74-.37c.11-.03.26.03.37,0l.74-.37c.11-.03.26.03.37,0l.74-.37c.21-.06.53.06.74,0l.74-.37c1.59-.44,3.22-.74,4.83-1.11l.74-.37,1.86-.37.74-.37c.22-.05.52.05.74,0l.74-.37c.22-.05.52.05.74,0l1.11-.37h.37l1.11-.37c5.67-1.3,11.33-2.45,17.08-3.34l.74-.37c2.58-.38,5.55-.55,8.17-.74.25-.02.5.02.74,0,5.32-.37,9.2-.13,14.48.37Z"/><path class="cls-12" d="M60.21,112.84c.34.65.73.9,1.48.74-2.27,5.63-3.48,15.41-3.71,21.53-.48.18-.36.71-.37,1.11-.04,1.15-.37,2.81-.37,3.53v7.05c0,.97-.32,2.93-.37,4.27-.04.99.03,1.98,0,2.97s.03,1.98,0,2.97c-.04,1.69-.34,3.71-.37,5.57-.06,3.33-.01,6.69,0,10.02.01,3.1.32,6.28.37,9.28.2,11.38.19,23.01,1.11,34.52.02.24-.02.5,0,.74.21,2.7.66,4.95.74,7.8.01.41-.11.94.37,1.11.05,1.96.14,3.99.37,5.94.08.7.36,1.06.37,1.11.71,5.36,1.31,11.69,3.34,16.7l-2.23.37c-.53-1.35-.73-2.37-1.11-3.71l-.37-.74c-.21-.82-.21-1.82-.37-2.6l-.37-.74c-.06-.34.06-.77,0-1.11l-.37-1.11c-.41-2.65-.43-5.26-.74-7.8h1.11s0-.55,0-.55l-1.12-.19c-.03-.26-.29-.8-.37-1.48l-.37-1.48c-3.5-32.41-5.05-71.76,0-103.94l.37-.74c.08-.45-.08-1.04,0-1.48l.37-.74,1.11-5.57.37-.74c.03-.11-.04-.26,0-.37l.37-.74c.14-.41.13-.89.37-1.48h.37Z"/><path class="cls-24" d="M57.61,231.62l1.12.19v.55s-1.12,0-1.12,0c-.03-.24.03-.5,0-.74Z"/><path class="cls-20" d="M181.96,72.01c-.49-.01-1.23.19-1.48-.37.1,0,.94-.73,1.48.37Z"/><path class="cls-24" d="M57.24,230.14c-.03-.25-.3-.79-.37-1.48l.37,1.48Z"/><path class="cls-20" d="M197.93,74.23s.4-.5.74-.37v.74s-.74-.37-.74-.37Z"/><path class="cls-24" d="M58.72,241.28c-.01-.06-.27-.49-.37-1.11l.37,1.11Z"/><path class="cls-20" d="M139.27,75.72l-1.11.37,1.11-.37Z"/><path class="cls-20" d="M137.79,76.09l-1.11.37c.06-.01.57-.64,1.11-.37Z"/><path class="cls-20" d="M297.41,125.46l-.37-1.11c0,.06.28.46.37,1.11Z"/><path class="cls-20" d="M106.61,85l-.74.37.74-.37Z"/><path class="cls-20" d="M81.37,94.28l-.74.37c.25-.11.48-.25.74-.37Z"/><path class="cls-20" d="M166,71.26c-.25.02-.5-.02-.74,0l.19-.37.55.37Z"/><path class="cls-20" d="M238.76,83.51l-.74-.37.74.37Z"/><path class="cls-20" d="M60.21,112.84h-.37c.12-.3.27-.51.37-.74v.74Z"/><path class="cls-20" d="M59.09,115.07c.14-.45.35-.68.37-.74l-.37.74Z"/><path class="cls-20" d="M58.72,116.18c-.15-.4.36-.7.37-.74l-.37.74Z"/><path class="cls-20" d="M157.09,72.01l-.74.37s.11-.28.74-.37Z"/><path class="cls-20" d="M114.77,82.4l-.74.37c.06-.02.38-.5.74-.37Z"/><path class="cls-20" d="M57.24,122.49c.05-.3-.01-.64.37-.74l-.37.74Z"/><path class="cls-20" d="M56.87,124.72c.1-.64.36-.7.37-.74l-.37.74Z"/><path class="cls-20" d="M82.85,93.54l-1.11.74c.05-.02.12-.43.38-.54l.74-.2Z"/><path class="cls-20" d="M105.49,85.37l-.74.37c.11-.41.48-.29.74-.37Z"/><path class="cls-20" d="M117.37,81.66l-.74.37.74-.37Z"/><path class="cls-20" d="M122.57,80.17l-.74.37.74-.37Z"/><path class="cls-20" d="M123.68,79.8l-.74.37s.26-.23.74-.37Z"/><path class="cls-20" d="M88.42,91.31l-.74.37c.19-.26.48-.27.74-.37Z"/><path class="cls-20" d="M124.8,79.43l-.74.37s.25-.23.74-.37Z"/><path class="cls-20" d="M126.28,79.06l-.74.37s.3-.25.74-.37Z"/><path class="cls-20" d="M219.08,78.69l-.74-.37c.29.07.63-.03.74.37Z"/><path class="cls-20" d="M217.6,78.32l-.74-.37c.5.11.7.36.74.37Z"/><path class="cls-20" d="M131.85,77.57l-.74.37.74-.37Z"/><path class="cls-20" d="M89.53,90.94l-.74.37c.16-.06.4-.24.74-.37Z"/><path class="cls-20" d="M134.45,76.83l-.74.37c.11-.4.45-.3.74-.37Z"/><path class="cls-20" d="M135.93,76.46l-.74.37s.2-.24.74-.37Z"/><path class="cls-20" d="M259.17,89.82l-.74-.37c.37.13.63.33.74.37Z"/><path class="cls-24" d="M59.09,243.13s-.26-.15-.37-.74l.37.74Z"/><path class="cls-24" d="M59.84,246.47s-.24-.24-.37-.74l.37.74Z"/><path class="cls-20" d="M96.59,88.34l-.74.37c.07-.02.35-.23.74-.37Z"/><path class="cls-20" d="M97.7,87.97l-.74.37c.06-.02.35-.23.74-.37Z"/><path class="cls-20" d="M98.81,87.6l-.74.37.74-.37Z"/><path class="cls-24" d="M134.82,285.82l-1.11-.37c.47.12.91.32,1.11.37Z"/><path class="cls-24" d="M137.79,286.56h-1.11v-.37c.48-.18.9.32,1.11.37Z"/><path class="cls-24" d="M136.3,286.19l-.74-.37c.29.07.63-.03.74.37Z"/><path class="cls-24" d="M114.77,280.25c-.31-.05-.62,0-.74-.37.3.06.64,0,.74.37Z"/><path class="cls-24" d="M115.89,280.62l-.74-.37c.51.13.7.36.74.37Z"/><path class="cls-24" d="M117,281l-.74-.37c.42.14.7.36.74.37Z"/><path class="cls-24" d="M123.68,282.85l-.74-.37c.5.14.7.36.74.37Z"/><path class="cls-24" d="M126.28,283.59l-.74-.37c.49.13.7.36.74.37Z"/><path class="cls-24" d="M128.88,284.34l-.74-.37c.5.13.7.36.74.37Z"/><path class="cls-24" d="M131.85,285.08l-.74-.37c.53.14.7.36.74.37Z"/><path class="cls-24" d="M238.76,282.48c-.07.16-.21.33-.37.37v-.74s.37.37.37.37Z"/><path class="cls-24" d="M229.11,285.82h-.37c.1-.14.22-.31.37-.37v.37Z"/><path class="cls-9" d="M166.37,73.49c2.67-.09,5.49-.07,8.17,0,1.11.03,2.23-.05,3.34,0,.32.6,1.26.35,1.86.37.61.05,1.25-.06,1.86,0l1.11.37c.61.06,1.25-.07,1.86,0l1.11.37c.6.07,1.25-.07,1.86,0l.74.37c.48.05,1-.04,1.48,0,.26.56,1,.36,1.48.37.24,0,.5-.02.74,0l1.48.37c.36.05.76-.05,1.11,0l1.11.37c.46.07,1.03-.08,1.48,0l.74.37c.34.06.77-.06,1.11,0l1.11.37c.23.04.51-.04.74,0l.74.37c.34.06.78-.06,1.11,0l1.11.37c.23.04.52-.04.74,0l.74.37c.33.07.78-.07,1.11,0l.74.37c.33.07.78-.07,1.11,0l.74.37c.23.05.52-.05.74,0l1.11.37c.22.05.52-.05.74,0l.74.37c.33.07.79-.07,1.11,0l.74.37c.22.05.52-.05.74,0l.74.37c.22.05.52-.05.74,0l1.11.37h.74l.74.37c.24.03.53-.05.74,0l.74.37h.74l.74.37c.21.05.51-.03.74,0l1.11.37h.37l.74.37c.22.05.53-.05.74,0l1.11.37c.12.03.25-.03.37,0l.74.37c.22.06.53-.06.74,0l.74.37c.21.06.53-.06.74,0l.74.37c.21.06.53-.06.74,0l.74.37h.37l1.11.37h.37l.74.37,3.71.74.74.37h.37l.74.37h.74l.74.37c.11.03.26-.03.37,0l.74.37h.74l.74.37c.82.4,1.74.48,2.6.74l.74.37c.2.06.54-.06.74,0l.74.37c.48.15,1,.22,1.48.37l.74.37c.48.16,1,.23,1.48.37.33,1.81-1.52,1.46-2.6,1.11-.49,1.33,1.27,1.44,1.42,2.07l-.31,2.75c-.94-.36-2.42-.43-3.16.36-.8.85.62.54.6,1.29-.01.46-.12,1.17-.59,1.31-2.59.79.46-4.23-2.04-3.34.38,2.47-1.85,4.04-2.23,6.31.24.22,4.5-1.21,4.08.55-.28,1.18-3.41,1.16-4.19,1.38-1.96.56-.73,3.01,1.22,2.52.37,1.6-.95,1.97-1.64,3-.55.82-2.18,2.76-2.26,2.94-.41.83.04,2.15-.75,2.97l-3.89,2.61c-21.34,6.58-44.29,15.82-66.9,12.15-17.7-2.87-36.72-7.96-54.11-12.52-.69-2.04-3.59-1.09-4.55-3.44-.19-.47-.92-3.26-1-3.82-.18-1.21.14-4.27-.08-5.1-.16-.58-1.05-.85-1.06-1.55s1.29-1.62,1.47-2.62c.52-2.82-.76-5.69.4-8.88.66-1.81,3.24-2.3,3.26-4.54.01-1.16-1.61-.83-1.41-1.97.1-.03.24-.33.37-.37l.74-.37c.62-.19,1.32-.21,1.86-.37l.74-.37c.53-.16,1.23-.19,1.86-.37l.74-.37c.63-.18,1.31-.21,1.86-.37l.74-.37c.11-.03.26.03.37,0l.74-.37c.11-.03.26.03.37,0l.74-.37c.21-.06.53.06.74,0l.74-.37c.63-.18,1.3-.22,1.86-.37l.74-.37,3.34-.74,1.11-.37c.12-.03.26.03.37,0l1.11-.37c.12-.03.26.03.37,0l.74-.37c.22-.05.53.05.74,0l.74-.37,2.6-.37.74-.37c.22-.05.52.05.74,0l.74-.37c.61-.14,1.24-.23,1.86-.37l1.11-.37c.22-.05.52.05.74,0l1.11-.37c.12-.03.25.03.37,0l1.11-.37c.22-.05.52.05.74,0l1.11-.37c.23-.04.51.04.74,0l.74-.37c.34-.06.77.06,1.11,0l.74-.37,3.71-.37,1.11-.37,2.23-.37h2.23l2.23-.37c.62-.01,1.24.02,1.86,0ZM170.01,90.68c-4.97.43-18.64,4.01-13.45,11.37,3.86,5.46,17.27,6.6,23.36,5.96,4.7-.49,18.51-3.92,13.71-11.11-4-5.99-17.15-6.78-23.62-6.22ZM113.29,100.96h-1.48v.74h1.48v-.74Z"/><path class="cls-29" d="M285.53,104.3v.37c.42,6.37-6.81,8.29-11.51,10.02-1.23.45-2.64,1.1-3.71,1.48-3.28,1.19-6.72,2.17-10.02,3.34-2.34.83-4.78,1.82-7.05,2.6-1.84.63-3.72,1.23-5.57,1.86-9.82,3.33-19.86,6.14-29.68,9.48-21.58,7.35-26.43,10.41-27.86,34.13-1.53,25.35-1.95,51.97-1.48,77.4.15,8.4.14,21.44,2.23,29.33,1.35,5.1,3.79,8.38,8.54,10.77-5.32-.58-7.52-1.74-10.96-5.93-7.47-9.11-5.06-24.17-4.99-35.07.11-15.78.08-31.6-.39-47.35-.4-13.39-1.09-26.8-1.57-40.19-2.08-4-3.53-8.98-6.61-12.32-1.83-1.98-4.13-2.85-5.94-4.46-1.66-1.48-1.07-2.41-3.93-2.75-1.31-.16-2.63.07-3.95-.13-11.74-1.79-27.5-6.25-39.26-9.37s-23.92-6.77-35.26-10.58c-1.67-.56-11.69-4.06-12.19-4.88-.3-.5.18-1.77-.11-2.12-.05-.06-1.04-.26-1.48-.54-2.94-1.9-1.51-3.55-2.91-6.19.5-.38.95-.76,1.48-1.11h.37c6.31,7.71,18.52,9.79,27.84,12.62,21.28,6.45,44.1,12.22,66.01,16.22,18.44,3.37,26.32,1.75,43.95-2.96,18.77-5.01,40.67-11.02,58.57-18.27,4.35-1.76,11.12-3.86,12.63-8.72,1.66.96,3.37,2.08,4.83,3.34Z"/><path class="cls-5" d="M293.7,119.52l.37.74c.81,3.25,1.51,6.67,1.48,10.02l.37,1.11c2.4,29.68,2.39,60.35-.74,90.02-1,9.5-2.66,25.19-7.64,33.2-6.66,10.72-25.51,16.56-36.91,20.82-.94-.42.05-.97.48-1.19.82-.42,1.97-.73,2.86-1.04.3-1.54-1.97.11-2.87.29-5.33,1.04-8.97,2.81-14.13,4.06-2.84.69-5.79.96-8.61,1.79-1.03.3-8.24,2.98-8.55,3.33-.74.84-.24,1.83,0,2.79-.79.2-1.54.57-2.23.74l.75-2.43-1.12-1.28c21.75-7.29,47.84-20.1,61.92-38.86,19.58-26.09,17.47-65.07,15.27-96.06-.55-7.82-.43-24.46-7.39-29.36-.89-.63-3.99-1.59-5.06-1.62-1.38-.04-3.65.81-5.12.29-.55-.19-.49-1.05-.82-1.08-.99-.09-2.37,1.59-2.01-1.1,4.69-1.74,11.92-3.65,11.51-10.02h.37c4.66,4.33,6.17,8.9,7.8,14.85Z"/><path class="cls-18" d="M56.87,181.88c2.99-1.76,4.12,2.28,5.76,2.27,1.41-.01,2.3-2.1,3.9-1.89-1.41,1.67-.69,3.18.14,4.89.26.54.06,1.26.98,1.04.04.36-.05.76,0,1.11-.87-.19-.79.42-1.05.97-1.43,3.01.07,2.73-.02,5.16-.05,1.19-.59,1.41-.78,2.4,1.76-.59,3.39,1.31,2.03,2.59-.96.91-1.71.12-2,2.46-.24,1.99.63,2.4.68,3.29.04.7-.71,1.62-.72,2.6s.26,3.8.41,4.8c.1.7,1.07,3.8,1.67,3.92,1.9-.62,2.18-.95,2.39-2.96,4.24.36-.56,5.46-2.98,4.82-.15.14.36,3.23.48,3.8,1.03,4.84,7,20.24,11.2,22.58,1.1.61,2.7.72,3.89,1.87.29.41-1.03,1.99-1.08,2.77-.09,1.44,2.96,4.9.81,5.78l-.07.49c.14.39,4.43,2.83,5.24,3.31,5.7,3.39,12.23,8.05,18.52,10.44,1.14.43,2.33.36,3.79,1.03,1.31.61,3.82,2.92,4.65,3.16,1.57.46,3.19-1.22,4.51,1.04.83,1.43.15,1.8-.33,3.11-11.67-3.39-23.62-6.97-34.78-11.81-8.58-3.72-17.17-7.93-20.9-17.15-2.03-5.02-2.63-11.34-3.34-16.7l-.37-1.11c-.23-1.95-.32-3.98-.37-5.94-.01-.41.11-.93-.37-1.11-.09-2.85-.53-5.1-.74-7.8l.37-.55-.37-.19c-.92-11.52-.92-23.14-1.11-34.52Z"/><path class="cls-13" d="M67.63,189.31c6.28,47.26,36.69,83.48,83.82,94.18,2.62.6,5.45.64,7.87,1.59-.19.04-1.41.75-1.48.95l1.11,2.39c-.9-.17-1.83-.14-2.97-.37l-.24-2.54c-1.68-.3-3.49-.18-3.84,1.8-11.02-2.38-22.21-5.39-33.04-8.54.48-1.32,1.16-1.69.33-3.11-1.32-2.26-2.94-.58-4.51-1.04-.83-.24-3.33-2.56-4.65-3.16-1.46-.67-2.65-.6-3.79-1.03-6.29-2.39-12.82-7.05-18.52-10.44-.8-.48-5.09-2.91-5.24-3.31l.07-.49c2.15-.88-.9-4.34-.81-5.78.05-.78,1.37-2.37,1.08-2.77-1.19-1.15-2.79-1.26-3.89-1.87-4.2-2.34-10.17-17.75-11.2-22.58-.12-.57-.63-3.66-.48-3.8,2.41.64,7.22-4.46,2.98-4.82-.21,2-.49,2.34-2.39,2.96-.6-.12-1.56-3.22-1.67-3.92-.15-1-.41-3.84-.41-4.8s.76-1.9.72-2.6c-.05-.89-.92-1.3-.68-3.29.29-2.34,1.03-1.55,2-2.46,1.36-1.28-.28-3.18-2.03-2.59.19-.99.73-1.21.78-2.4.1-2.44-1.4-2.16.02-5.16.26-.54.19-1.16,1.05-.97ZM72.42,227.51c.34-.87-.31-1.95-.22-2.7.09-.83,1.64-2.37-.29-2.85-2.28.84-2.8,3.89-2.01,5.92l2.52-.38ZM83.17,243.45c1.8-8.74-5.98-2.67-4.38-1.08.21.21,1.54-.16,1.69,1.53l2.7-.45Z"/><path class="cls-21" d="M112.92,85.74c-.2,1.13,1.43.81,1.41,1.97-.02,2.24-2.6,2.73-3.26,4.54-1.16,3.19.13,6.06-.4,8.88-.19,1-1.48,1.89-1.47,2.62s.9.98,1.06,1.55c.23.83-.1,3.89.08,5.1.08.56.81,3.35,1,3.82.96,2.34,3.85,1.4,4.55,3.44-5.29-1.39-10.72-2.51-15.96-4.08-5.81-1.75-22.26-6.54-25.45-11.12-.46-.66-.69-1.02-.53-1.88,1.44-.83,2.97-1.5,4.45-2.23l1.11-.74c2.31-1.08,4.7-1.99,7.05-2.97l.74-.37c2.3-.94,4.77-1.6,7.05-2.6l.74-.37c.11-.04.26.04.37,0l.74-.37c.11-.04.26.04.37,0l.74-.37c.11-.04.26.04.37,0l.74-.37,3.34-1.11.74-.37c.11-.04.26.04.37,0l.74-.37c.11-.04.26.04.37,0l.74-.37c.11-.04.26.04.37,0l.74-.37c.11-.04.26.04.37,0l.74-.37c1.89-.62,4.15-.93,5.94-1.48ZM100.3,101.7l1.48.2c.88-.53.1-1.95-.85-1.96-1.65-.01-2.96,1.21-2.32,2.89l1.12.36.56-1.49Z"/><path class="cls-18" d="M69.86,103.19c1.4,2.63-.03,4.29,2.91,6.19.45.29,1.43.48,1.48.54.3.35-.19,1.62.11,2.12.5.82,10.52,4.32,12.19,4.88.18.9-.4.83-1.03,1-1.73.47-3.93.52-5.55,1.15-.42.16-4.36,2.53-4.49,2.76-.22.39.07,1.13-.13,1.36-.12.13-.71-.04-.95.12-.1.07-1.13,1.93-1.16,2.05-.11.55.43,1.45.31,1.58-.04.04-.76-.02-1.09.2-.7.47-2.25,4.02-1.51,5-5.7,5.68-6.4,16.62-3.34,23.76-.25-.01-.5.02-.74,0-1.9-.17-2.89-1.75-4.93-.66-1.2.65-.72,1.9-1.36,2.72-1.2,1.54-2.51-.78-3.74-.95.03-.99-.03-1.98,0-2.97,2.03-.04,1.83-3.41,0-2.97.05-1.34.37-3.3.37-4.27v-7.05c0-.72.33-2.38.37-3.53.48-.18.36-.71.37-1.11.24-6.12,1.44-15.9,3.71-21.53,1.72-4.27,4.59-7.68,8.17-10.39Z"/><path class="cls-25" d="M183.08,196.73c.47,15.74.5,31.57.39,47.35-.07,10.9-2.48,25.96,4.99,35.07,3.44,4.19,5.63,5.35,10.96,5.93s12.51-.82,17.82-2.6l1.12,1.28-.75,2.43c-14.81,3.64-30.15,6.61-45.43,4.78-4.51-.54-8.89-1.73-13.23-2.55l-1.11-2.39c.06-.2,1.28-.91,1.48-.95,1.54-.3,3.83.12,5.65-.1,1.09-.14,7.67-2.21,8.44-2.69,7.29-4.59,7.92-19,8.2-26.7.68-19.15-.03-38.44.73-57.57.03-.71-.38-1.49.74-1.28Z"/><path class="cls-10" d="M254.35,90.57c.11.04.26-.04.37,0l.74.37c.11.04.26-.04.37,0l.74.37,1.48.37.74.37c1.41.69,3,.95,4.45,1.48l.74.37c1.72.64,3.49,1.19,5.2,1.86l.74.37c.38.15.78.24,1.11.37l.74.37c.33.14.72.2,1.11.37l.74.37c.85.37,1.76.71,2.6,1.11l.74.37c.7.35,1.27.8,1.86,1.11-.71,3.61-6.23,5.73-9.4,7.12-10.41,4.54-21.71,7.36-32.55,10.7l3.89-2.61c.79-.82.34-2.14.75-2.97.08-.17,1.71-2.12,2.26-2.94.69-1.03,2.01-1.4,1.64-3-1.96.49-3.18-1.96-1.22-2.52.78-.23,3.91-.2,4.19-1.38.42-1.76-3.84-.34-4.08-.55.38-2.27,2.61-3.84,2.23-6.31,2.5-.89-.55,4.13,2.04,3.34.48-.15.58-.85.59-1.31.02-.75-1.39-.44-.6-1.29.74-.79,2.22-.72,3.16-.36l.31-2.75c-.15-.63-1.91-.74-1.42-2.07,1.08.35,2.93.7,2.6-1.11h.37l.74.37Z"/><path class="cls-17" d="M280.7,100.96c-1.5,4.86-8.28,6.96-12.63,8.72-17.9,7.25-39.79,13.26-58.57,18.27-17.63,4.71-25.51,6.32-43.95,2.96-21.91-4-44.73-9.76-66.01-16.22l.37-1.11c5.24,1.57,10.67,2.69,15.96,4.08,17.39,4.56,36.41,9.65,54.11,12.52,22.61,3.67,45.56-5.57,66.9-12.15,10.83-3.34,22.13-6.16,32.55-10.7,3.18-1.38,8.69-3.51,9.4-7.12.4.21,1.08.29,1.86.74Z"/><path class="cls-25" d="M219.83,285.45c-.24-.96-.75-1.95,0-2.79.31-.35,7.52-3.03,8.55-3.33,2.82-.82,5.77-1.1,8.61-1.79,5.16-1.25,8.79-3.02,14.13-4.06.9-.18,3.17-1.83,2.87-.29-.89.32-2.04.62-2.86,1.04-.43.22-1.42.77-.48,1.19-10.39,3.89-19.96,7.23-30.81,10.02Z"/><path class="cls-2" d="M73.94,100.59c-.15.85.08,1.22.53,1.88,3.19,4.58,19.64,9.37,25.45,11.12l-.37,1.11c-9.32-2.83-21.53-4.91-27.84-12.62v-.37c.58-.36,1.62-.76,2.23-1.11Z"/><path class="cls-25" d="M155.98,288.05c-1.34-.27-2.74-.45-4.08-.74.36-1.98,2.16-2.1,3.84-1.8l.24,2.54Z"/><path class="cls-20" d="M174.54,73.49c-2.67-.07-5.5-.09-8.17,0,2.39-.62,5.77-.62,8.17,0Z"/><path class="cls-20" d="M164.52,73.49l-2.23.37c.48-.48,1.78-1.11,2.23-.37Z"/><path class="cls-20" d="M161.18,73.86h-1.11c.05-.56,1.06-.56,1.11,0Z"/><path class="cls-20" d="M191.24,75.35c-.49-.01-1.23.19-1.48-.37.12,0,.94-.73,1.48.37Z"/><path class="cls-24" d="M186.79,293.99c-.32.6-1.26.35-1.86.37.1,0,1.11-.32,1.86-.37Z"/><path class="cls-20" d="M179.74,73.86c-.59-.02-1.54.23-1.86-.37.84.04,1.65.36,1.86.37Z"/><path class="cls-20" d="M193.47,75.72l-1.48-.37c.72.07,1.3.35,1.48.37Z"/><path class="cls-20" d="M157.84,74.23l-1.11.37,1.11-.37Z"/><path class="cls-20" d="M185.68,74.6l-1.11-.37c.7.08,1.06.36,1.11.37Z"/><path class="cls-20" d="M182.71,74.23l-1.11-.37c.74.07,1.06.37,1.11.37Z"/><path class="cls-20" d="M149.67,75.72l-1.11.37c.1-.02.56-.26,1.11-.37Z"/><path class="cls-20" d="M195.7,76.09l-1.11-.37c.65.09,1.06.36,1.11.37Z"/><path class="cls-20" d="M147.81,76.09l-1.11.37c.12-.02.58-.26,1.11-.37Z"/><path class="cls-20" d="M146.33,76.46l-1.11.37c.13-.03.59-.26,1.11-.37Z"/><path class="cls-20" d="M200.15,76.83l-1.11-.37c.57.1,1.06.36,1.11.37Z"/><path class="cls-20" d="M144.47,76.83l-1.11.37c.14-.03.59-.26,1.11-.37Z"/><path class="cls-20" d="M203.86,77.57l-1.11-.37c.55.1,1.04.36,1.11.37Z"/><path class="cls-20" d="M210.92,79.06l-1.11-.37c.53.11,1,.35,1.11.37Z"/><path class="cls-20" d="M134.08,79.43l-1.11.37c.22-.06.64-.25,1.11-.37Z"/><path class="cls-20" d="M132.59,79.8l-1.11.37,1.11-.37Z"/><path class="cls-20" d="M217.6,80.54l-1.11-.37c.36.08.93-.16,1.11.37Z"/><path class="cls-20" d="M295.92,131.4l-.37-1.11.37,1.11Z"/><path class="cls-20" d="M223.91,82.03l-1.11-.37,1.11.37Z"/><path class="cls-20" d="M226.88,82.77l-1.11-.37c.49.12.91.32,1.11.37Z"/><path class="cls-20" d="M233.93,84.63l-1.11-.37,1.11.37Z"/><path class="cls-20" d="M269.94,96.13l-.74-.37c.35.14.6.32.74.37Z"/><path class="cls-20" d="M114.03,85l-.74.37c.11-.03.36-.25.74-.37Z"/><path class="cls-20" d="M271.8,96.88l-.74-.37c.34.14.58.31.74.37Z"/><path class="cls-20" d="M273.65,97.62l-.74-.37c.29.12.52.28.74.37Z"/><path class="cls-20" d="M79.51,97.62l-1.11.74c.11-.05.46-.43,1.11-.74Z"/><path class="cls-20" d="M264,93.91l-.74-.37c.33.12.56.31.74.37Z"/><path class="cls-20" d="M276.99,99.1l-.74-.37c.26.12.49.25.74.37Z"/><path class="cls-20" d="M235.05,85l-.74-.37.74.37Z"/><path class="cls-20" d="M87.31,94.28l-.74.37c.2-.08.44-.25.74-.37Z"/><path class="cls-20" d="M116.63,84.26l-.74.37s.29-.24.74-.37Z"/><path class="cls-20" d="M232.45,84.26l-.74-.37c.28.08.63-.03.74.37Z"/><path class="cls-20" d="M230.96,83.88l-.74-.37c.52.14.7.36.74.37Z"/><path class="cls-20" d="M119.23,83.51l-.74.37s.32-.25.74-.37Z"/><path class="cls-20" d="M229.48,83.51l-.74-.37c.52.13.7.36.74.37Z"/><path class="cls-20" d="M243.21,87.22l-.74-.37.74.37Z"/><path class="cls-20" d="M227.99,83.14l-.74-.37c.52.13.7.36.74.37Z"/><path class="cls-20" d="M121.83,82.77l-.74.37s.27-.23.74-.37Z"/><path class="cls-20" d="M122.94,82.4l-.74.37s.26-.23.74-.37Z"/><path class="cls-20" d="M225.02,82.4l-.74-.37c.41-.16.7.36.74.37Z"/><path class="cls-20" d="M294.07,120.26l-.37-.74s.24.23.37.74Z"/><path class="cls-20" d="M124.06,82.03l-.74.37s.25-.23.74-.37Z"/><path class="cls-20" d="M242.1,86.85l-.74-.37c.41-.16.7.36.74.37Z"/><path class="cls-20" d="M125.54,81.66l-.74.37s.3-.25.74-.37Z"/><path class="cls-20" d="M222.05,81.66l-.74-.37c.42-.16.7.36.74.37Z"/><path class="cls-20" d="M220.57,81.29l-.74-.37c.29.07.63-.03.74.37Z"/><path class="cls-20" d="M128.14,80.91l-.74.37s.34-.52.74-.37Z"/><path class="cls-20" d="M219.08,80.91l-.74-.37.74.37Z"/><path class="cls-20" d="M239.5,86.11l-.74-.37.74.37Z"/><path class="cls-20" d="M258.8,92.05l-.74-.37.74.37Z"/><path class="cls-20" d="M215.74,80.17l-.74-.37c.56.13.7.36.74.37Z"/><path class="cls-20" d="M95.1,91.31l-.74.37.74-.37Z"/><path class="cls-20" d="M214.26,79.8l-.74-.37c.57.13.7.36.74.37Z"/><path class="cls-20" d="M212.4,79.43l-.74-.37c.57.12.7.36.74.37Z"/><path class="cls-20" d="M135.19,79.06l-.74.37s.21-.24.74-.37Z"/><path class="cls-20" d="M256.58,91.31l-.74-.37.74.37Z"/><path class="cls-20" d="M136.68,78.69l-.74.37s.32-.53.74-.37Z"/><path class="cls-20" d="M209.06,78.69l-.74-.37c.59.12.7.36.74.37Z"/><path class="cls-20" d="M207.21,78.32l-.74-.37c.59.12.7.36.74.37Z"/><path class="cls-20" d="M140.02,77.94l-.74.37c.11-.4.45-.3.74-.37Z"/><path class="cls-20" d="M205.35,77.94l-.74-.37c.59.12.7.36.74.37Z"/><path class="cls-20" d="M141.5,77.57l-.74.37s.2-.25.74-.37Z"/><path class="cls-20" d="M96.21,90.94l-.74.37c.09-.03.36-.23.74-.37Z"/><path class="cls-20" d="M201.64,77.2l-.74-.37c.6.11.7.36.74.37Z"/><path class="cls-20" d="M255.46,90.94l-.74-.37c.41.14.7.36.74.37Z"/><path class="cls-20" d="M97.33,90.57l-.74.37c.08-.03.36-.23.74-.37Z"/><path class="cls-20" d="M254.35,90.57l-.74-.37c.4-.15.7.36.74.37Z"/><path class="cls-20" d="M197.93,76.46l-.74-.37c.62.1.7.36.74.37Z"/><path class="cls-20" d="M240.61,86.48l-.74-.37.74.37Z"/><path class="cls-20" d="M98.44,90.19l-.74.37.74-.37Z"/><path class="cls-20" d="M251.75,89.82l-.74-.37c.4.13.68.35.74.37Z"/><path class="cls-20" d="M249.52,89.08l-.74-.37c.45.14.7.36.74.37Z"/><path class="cls-20" d="M102.53,88.71l-.74.37.74-.37Z"/><path class="cls-20" d="M248.04,88.71l-.74-.37c.41.13.7.36.74.37Z"/><path class="cls-20" d="M103.64,88.34l-.74.37s.34-.23.74-.37Z"/><path class="cls-20" d="M151.15,75.35l-.74.37s.14-.26.74-.37Z"/><path class="cls-20" d="M153.01,74.98l-.74.37s.3-.53.74-.37Z"/><path class="cls-20" d="M188.27,74.98l-.74-.37c.65.07.7.37.74.37Z"/><path class="cls-20" d="M104.75,87.97l-.74.37s.33-.24.74-.37Z"/><path class="cls-20" d="M105.87,87.6l-.74.37s.33-.24.74-.37Z"/><path class="cls-20" d="M244.7,87.6l-.74-.37.74.37Z"/><path class="cls-20" d="M106.98,87.22l-.74.37s.32-.24.74-.37Z"/><path class="cls-20" d="M285.9,104.67h-.37v-.37c.13.11.24.25.37.37Z"/><path class="cls-20" d="M71.71,102.07h-.37c.13-.08.23-.28.37-.37v.37Z"/><path class="cls-13" d="M66.89,155.9c-.32,4.21-.35,8.4-.37,12.62-2.01-1.21-3.58,1.12-5.35-.04-1.89-1.24-1.49-6.36-4.68-5.9.03-1.85.33-3.87.37-5.57,1.23.17,2.54,2.49,3.74.95.64-.82.15-2.08,1.36-2.72,2.04-1.1,3.03.49,4.93.66Z"/><path class="cls-13" d="M56.5,172.6c1.16-.1,1.27,1.63,2.08,1.78,1.46.29,2.07-1.7,2.99-1.72l2.61,1.35,2.34-1.41c.12,5.4.45,10.23,1.11,15.59-.92.21-.72-.51-.98-1.04-.82-1.71-1.55-3.22-.14-4.89-1.6-.21-2.48,1.88-3.9,1.89-1.64.01-2.77-4.03-5.76-2.27-.05-3-.36-6.18-.37-9.28Z"/><path class="cls-18" d="M66.52,168.52c0,1.36-.03,2.73,0,4.08l-2.34,1.41-2.61-1.35c-.92.02-1.53,2.01-2.99,1.72-.81-.16-.92-1.89-2.08-1.78-.01-3.33-.06-6.69,0-10.02,3.19-.46,2.79,4.66,4.68,5.9,1.77,1.16,3.33-1.18,5.35.04Z"/><path class="cls-13" d="M56.87,151.07c1.83-.44,2.03,2.93,0,2.97.03-.99-.04-1.98,0-2.97Z"/><path class="cls-24" d="M59.84,233.11c0-.06-.29-.41-.37-1.11l.37,1.11Z"/><path class="cls-24" d="M59.09,226.06c-.48-.18-.36-.71-.37-1.11.48.18.36.71.37,1.11Z"/><path class="cls-20" d="M57.61,136.22c.01-.41-.11-.93.37-1.11-.02.41.11.93-.37,1.11Z"/><path class="cls-24" d="M57.98,217.15c-.02-.24.02-.5,0-.74l.37.19-.37.55Z"/><path class="cls-26" d="M170.01,90.68c6.48-.55,19.62.24,23.62,6.22,4.8,7.18-9.02,10.61-13.71,11.11-6.09.64-19.5-.5-23.36-5.96-5.19-7.36,8.47-10.94,13.45-11.37ZM162.66,94.28c-7.25,3.01-6.07,7.4.75,9.83,2.45.87,2.59.73,4.74.27,1.98-.42,3.24,1.38,3.97,1.42.27.01.06-.73.89-.96.63-.18,2.94-.54,3.58-.54,4.02-.04,6.75,2.11,11.22-.25.63-.33.41-.83.46-.85.91-.46,2.37.43,2.3-2.16.11-.15.48-.11.67-.06.05.01-.02.57.74.37.05-.23-.06-.58,0-.74.67-1.7.23-2.65-1.1-3.93-.42-.41-.96-.39-1.13-.52-4.5-3.49-9.24-4.08-14.85-4.08-4.45,0-8.11.51-12.25,2.23Z"/><rect class="cls-21" x="111.81" y="100.96" width="1.48" height=".74"/><path class="cls-2" d="M183.08,196.73c-1.12-.21-.71.57-.74,1.28-.76,19.13-.05,38.41-.73,57.57-.27,7.7-.91,22.11-8.2,26.7-.77.49-7.35,2.56-8.44,2.69-1.82.23-4.11-.19-5.65.1-2.43-.95-5.25-1-7.87-1.59-47.13-10.69-77.54-46.92-83.82-94.18-.05-.36.04-.75,0-1.11-.66-5.36-1-10.19-1.11-15.59-.03-1.36,0-2.73,0-4.08.02-4.22.05-8.41.37-12.62.24.02.5-.01.74,0,4.3,10.03,17.84,17.65,26.17,7.43,8.24-10.11,3.01-29.46-9.37-33.7-4.03-1.38-10.38-.56-13.47,2.52-.74-.98.81-4.53,1.51-5,.33-.22,1.05-.16,1.09-.2.13-.13-.42-1.03-.31-1.58.02-.12,1.06-1.98,1.16-2.05.24-.17.83,0,.95-.12.2-.23-.09-.97.13-1.36.13-.23,4.07-2.6,4.49-2.76,1.62-.63,3.82-.68,5.55-1.15.63-.17,1.21-.09,1.03-1,11.34,3.81,23.69,7.51,35.26,10.58s27.51,7.58,39.26,9.37c1.32.2,2.64-.03,3.95.13,2.86.34,2.27,1.27,3.93,2.75,1.81,1.61,4.1,2.47,5.94,4.46,3.08,3.34,4.53,8.32,6.61,12.32.47,13.39,1.17,26.8,1.57,40.19ZM141.13,218.26c-1.74-1-2.24.24-3.33.57-.54.17-1.46-.27-2.01.13-.34.25-.25,1.6-.96,2.46s-2.81,1.58-2.92,1.71c-.19.21,0,1.64-.14,2.28-.52,2.3-2.11,4.69-.66,6.95-1.56,13.71,12.32,31.22,26.4,23.25,17.83-10.1,2.97-44.63-16.38-37.35Z"/><path class="cls-19" d="M274.02,114.69c-.36,2.69,1.02,1.01,2.01,1.1.33.03.27.88.82,1.08,1.47.52,3.74-.33,5.12-.29,1.08.03,4.17,1,5.06,1.62,6.96,4.9,6.84,21.53,7.39,29.36,2.2,30.99,4.31,69.97-15.27,96.06-14.08,18.76-40.18,31.57-61.92,38.86-5.31,1.78-12.4,3.19-17.82,2.6-4.74-2.38-7.19-5.67-8.54-10.77l1.5-3.88c-1.45-23.06-.01-46.07,1.46-69.07.92-14.31.87-37.26,10.61-48.78,1.41-1.67,2.77-1.84,3.87-4.11.05-.1-.05-.27,0-.37,1.29-.75,3.54-1.92,4.08-3.34.65-.31,2.27-.9,2.6-1.48,4.37-2.11,8.68-4.4,13.11-6.37,13.13-5.85,27.71-10.31,40.47-16.69.87-.44,2.44-1.1,2.78-2.06.43-1.21-1.22-.82-1.06-1.97,1.07-.39,2.48-1.03,3.71-1.48ZM274.69,130.01c-15.95,1.25-23.78,32.04-8.92,38.41,15.75,6.75,28.33-21.93,17.35-34.43-2.14-2.44-5.09-4.25-8.43-3.98ZM245,177.16c-15.47,1-23.96,28.08-11.19,37.33,11.25,8.15,21.98-6.51,23.46-16.87,1.13-7.87-2.19-21.11-12.27-20.46ZM213.43,222.81c-8.31,1.21-14.89,12.76-15.5,20.51-.87,11.14,6.72,23.02,18.88,17.02,16.28-8.03,15.59-40.31-3.38-37.53Z"/><path class="cls-6" d="M247.67,123.97l-4.56,3.81-2.12-.1c.47,4.75-2.71,3.42-5.31,4.16-.95.27-7.09,3.54-8.68,4.31-3.51,1.69-10.18,3.91-11.99,7.12-.33.59-1.95,1.17-2.6,1.48-2.53,1.21-2.68.51-4.08,3.34-.05.1.05.27,0,.37-1.34.79-3.44,2.04-4.45,3.16-3.99,4.39-7.04,14.79-8.44,20.51-1.21,4.94-1.95,9.24-2.32,14.38-.33,4.53-.08,9.22-.38,13.73-.23,3.5-1.24,4.82-.85,8.22s-.65,6.92-.98,10.01c-.18,1.73.26,3.98-.04,5.53-.18.94-1.46,1.6-1.44,2.99.02,1.2,1.47,1.84,1.45,2.58-.01.51-.69.93-.75,1.5-.08.73.51,1.42.31,2.49-.13.69-.92,1.41-.97,2.01-.07.8,1.11,2.05,1.02,3.26-.05.65-.63,1.2-.72,1.89-.13,1.04.45,4.14-1.13,4.25-.46-25.43-.05-52.05,1.48-77.4,1.43-23.72,6.28-26.78,27.86-34.13,9.82-3.34,19.86-6.15,29.68-9.48Z"/><path class="cls-28" d="M208.32,148.47c-1.09,2.27-2.46,2.44-3.87,4.11-9.74,11.52-9.7,34.47-10.61,48.78-1.47,23-2.91,46.01-1.46,69.07l-1.5,3.88c-2.09-7.89-2.07-20.92-2.23-29.33,1.58-.11,1-3.21,1.13-4.25.09-.69.67-1.24.72-1.89.09-1.21-1.09-2.46-1.02-3.26.05-.6.84-1.32.97-2.01.2-1.07-.38-1.76-.31-2.49.06-.57.74-1,.75-1.5.02-.74-1.43-1.38-1.45-2.58-.03-1.39,1.26-2.04,1.44-2.99.3-1.55-.15-3.8.04-5.53.33-3.09,1.36-6.71.98-10.01s.61-4.72.85-8.22c.3-4.51.05-9.19.38-13.73.37-5.14,1.11-9.44,2.32-14.38,1.4-5.72,4.45-16.12,8.44-20.51,1.02-1.12,3.11-2.36,4.45-3.16Z"/><path class="cls-28" d="M270.31,116.18c-.16,1.15,1.49.76,1.06,1.97-.34.96-1.91,1.62-2.78,2.06-12.77,6.39-27.34,10.85-40.47,16.69-4.44,1.98-8.74,4.27-13.11,6.37,1.81-3.21,8.48-5.44,11.99-7.12,1.59-.76,7.73-4.04,8.68-4.31,2.6-.74,5.78.59,5.31-4.16l2.12.1,4.56-3.81c1.85-.63,3.73-1.22,5.57-1.86,1.76.67,6.32-.74,7.05-2.6,3.31-1.17,6.75-2.15,10.02-3.34Z"/><path class="cls-6" d="M260.29,119.52c-.73,1.85-5.29,3.27-7.05,2.6,2.27-.78,4.71-1.77,7.05-2.6Z"/><path class="cls-18" d="M83.17,243.45l-2.7.45c-.15-1.69-1.48-1.33-1.69-1.53-1.59-1.59,6.19-7.66,4.38,1.08Z"/><path class="cls-5" d="M72.42,227.51l-2.52.38c-.79-2.04-.28-5.08,2.01-5.92,1.94.48.39,2.01.29,2.85-.08.75.56,1.83.22,2.7Z"/><path class="cls-5" d="M100.3,101.7l-.56,1.49-1.12-.36c-.64-1.68.68-2.9,2.32-2.89.95,0,1.73,1.43.85,1.96l-1.48-.2Z"/><path class="cls-14" d="M67.63,155.9c-3.06-7.14-2.36-18.08,3.34-23.76,3.08-3.07,9.44-3.9,13.47-2.52,12.38,4.24,17.61,23.59,9.37,33.7-8.33,10.22-21.88,2.6-26.17-7.43ZM74.68,132.51c-1.88,1.12-2.17,1.83-3.34,3.34-2.25,2.9-2.8,4.06-3.34,7.8-1.47,10.17,7.36,25.41,19.31,21.72,3.56-1.1,1.95-2.34,3.33-4.46,1.11-1.71,2.66-1.02,3.71-3.15.74-1.49,1.42-4.29,1.48-5.94.29-7.42-5.87-21.81-14.85-20.42-.17.03-.33.19-.37.37-.12.01-.25-.02-.37,0,.22-1.06-.61-.8-1.3-.76-1.65.1-2.88.67-4.27,1.5Z"/><path class="cls-8" d="M174.91,92.05c.01.37-.02.74,0,1.11.02.29-.15.62.22.78,2.95-.06,6.87,3.16,9.3,3.27.64.03,1.13-.3,1.62-.34,1.33-.09,2.64.35,3.71-.74.17.13.71.11,1.13.52,1.33,1.28,1.77,2.23,1.1,3.93l-.74.37c-.19-.04-.56-.08-.67.06.07,2.59-1.39,1.7-2.3,2.16-.05-.79-.51-1.38-1.32-1.49-1.06-.14-5.52,1.37-7.39,1.51-4.79.36-9.72-.07-13.9-2.46-2.98-1.7-5.36-2.96-3-6.47,4.14-1.72,7.8-2.23,12.25-2.23Z"/><path class="cls-27" d="M162.66,94.28c-2.36,3.51.02,4.77,3,6.47,4.18,2.39,9.11,2.81,13.9,2.46,1.87-.14,6.33-1.65,7.39-1.51.81.11,1.27.7,1.32,1.49-.04.02.17.52-.46.85-4.47,2.35-7.2.2-11.22.25-.64,0-2.95.37-3.58.54-.83.23-.63.97-.89.96-.74-.03-2-1.83-3.97-1.42-2.14.45-2.28.6-4.74-.27-6.83-2.43-8.01-6.82-.75-9.83Z"/><path class="cls-4" d="M189.76,96.13c-1.07,1.1-2.38.65-3.71.74.45-.63.47-1.03.03-1.69-1.52-2.29-8.63-2.06-11.17-2.02-.02-.37.01-.74,0-1.11,5.61,0,10.35.59,14.85,4.08Z"/><path class="cls-27" d="M191.99,100.59c-.07.17.05.51,0,.74-.76.2-.69-.36-.74-.37l.74-.37Z"/><path class="cls-14" d="M131.11,232.37c.61-5.4,4.83-12.15,10.02-14.11,19.35-7.28,34.21,27.26,16.38,37.35-14.08,7.97-27.96-9.54-26.4-23.25ZM133.71,231.25c-2.32,11.26,6.14,25.09,18.74,23.76,2.15-.23,1.79-.99,2.51-1.38.49-.27,1.39-.06,2.28-.51.29-.15,2.34-2.09,2.48-2.35.52-.92.18-1.73.53-2.44.21-.44,1.03-.68,1.68-1.85,2.44-4.39,1.44-10.79-.37-15.22-1.34-3.27-2.59-5.06-5.2-7.42-3.27-2.97-4.81-3.72-9.28-4.08-.13-.01-.5-.41-1.25-.39-6.73.12-10.87,5.87-12.11,11.9Z"/><path class="cls-15" d="M141.13,218.26c-5.19,1.95-9.41,8.71-10.02,14.11-1.46-2.27.13-4.65.66-6.95.14-.64-.04-2.06.14-2.28.11-.13,2.22-.87,2.92-1.71s.62-2.22.96-2.46c.55-.39,1.47.04,2.01-.13,1.09-.33,1.59-1.58,3.33-.57Z"/><path class="cls-14" d="M213.43,222.81c18.98-2.77,19.67,29.5,3.38,37.53-12.16,6-19.75-5.88-18.88-17.02.61-7.75,7.19-19.3,15.5-20.51ZM212.03,225.69c-2.63.92-1.41.73-2.59,2.04-.99,1.09-2.84,2.71-3.51,3.93-.79,1.45-3.02,9.38-3.1,11.04-.12,2.31.92,4.71,1.06,6.57.13,1.67-1.8,3.68.54,4.63,1.11.45-.1-1.54,1.12-1.5,1.1.04,1.89,1.12,2.77,1.69l-3.16,1.29c-1.25,3.99,4.53,4.29,7.24,4.09.1-1.83.13-3.19-.74-4.83.21-.22,4.3-.69,5.1-1.02,1.68-.7,3.33-3.89,5.4-5,2.2-1.18,2.63.25,3.44-3.24s-.15-4.95-.24-8.03c-.02-.67.71-.46.78-.78.26-1.18-.48-2.15-.75-3.09-1.88-6.65-6.29-10.26-13.36-7.8ZM202.75,249.81l-.36-1.31-1.12-.18.36,1.31,1.12.18Z"/><path class="cls-14" d="M245,177.16c10.08-.65,13.4,12.59,12.27,20.46-1.48,10.36-12.21,25.02-23.46,16.87-12.77-9.25-4.28-36.33,11.19-37.33ZM241.36,180.4c-1.6.65-2.36,1.13-3.71,2.23-8.19,6.69-12.12,25.93-1.13,31.01,11.23,5.19,19.81-11.89,18.95-21.36-.08-.92-.59-1.85-.74-2.6-1.49-7.19-5.34-12.55-13.36-9.28Z"/><path class="cls-14" d="M274.69,130.01c3.34-.26,6.29,1.54,8.43,3.98,10.98,12.5-1.6,41.18-17.35,34.43-14.86-6.37-7.03-37.16,8.92-38.41ZM271.42,133.25c-1.32.52-2.23.98-3.34,1.86-7.48,5.87-11.36,20.11-5.19,28.02,3.3,4.22,7.15,4.9,12.01,2.75,6.78-3,10.42-12.59,10.25-19.63-.03-1.42-.45-2.72-.74-4.08-.19-.87-.15-1.73-.47-2.68-1.95-5.7-6.72-8.51-12.52-6.23Z"/><path class="cls-28" d="M212.4,144.76c-.54,1.42-2.79,2.59-4.08,3.34,1.4-2.83,1.55-2.13,4.08-3.34Z"/><path class="cls-27" d="M80.25,131.77c.12-.02.25.01.37,0h.37c-4.07,2.18-5.37,5.4-2.38,9.25,2.22,2.86,5.11,3.77,7.55,5.81,3.29,2.73,3.8,8.28,9.68,4.99-.06,1.65-.75,4.45-1.48,5.94-5.22,1.71-5.98,4.35-11.76,1.92s-6.89-5.9-9.03-11.2l-.38-6.51c.21-2.74,1.24-4.68,2.83-6.82,1.17-1.58,2.23-3.12,4.24-3.37Z"/><path class="cls-8" d="M95.84,151.82c-5.88,3.3-6.39-2.25-9.68-4.99-2.45-2.04-5.33-2.95-7.55-5.81-2.99-3.85-1.69-7.07,2.38-9.25v-.37c8.98-1.39,15.13,13,14.85,20.42ZM85.34,135.92c-3.48,1.04,2.64,9.81,5.68,8.29,2.44-1.22-1.54-9.52-5.68-8.29Z"/><path class="cls-12" d="M73.57,148.47c2.14,5.3,3.24,8.77,9.03,11.2s6.54-.21,11.76-1.92c-1.06,2.13-2.6,1.44-3.71,3.15-1.38,2.12.22,3.37-3.33,4.46-11.95,3.69-20.78-11.55-19.31-21.72,1,2.35,2.99.06,3.72.53.73,1.37,1.27,2.87,1.85,4.3Z"/><path class="cls-3" d="M74.68,132.51c1.39-.83,2.62-1.4,4.27-1.5.69-.04,1.52-.31,1.3.76-2.01.25-3.07,1.79-4.24,3.37-1.59,2.15-2.62,4.08-2.83,6.82l.38,6.51c-.58-1.43-1.12-2.93-1.85-4.3-.73-.47-2.72,1.82-3.72-.53.54-3.74,1.09-4.9,3.34-7.8,3.29,1.99,3.4-.62,3.34-3.34Z"/><path class="cls-12" d="M71.34,135.85c1.17-1.51,1.47-2.22,3.34-3.34.06,2.72-.05,5.33-3.34,3.34Z"/><path class="cls-3" d="M81,131.77h-.37c.04-.18.2-.34.37-.37v.37Z"/><path class="cls-7" d="M186.05,96.88c-.49.03-.98.36-1.62.34-2.43-.11-6.35-3.33-9.3-3.27-.37-.15-.2-.49-.22-.78,2.54-.03,9.64-.26,11.17,2.02.44.66.42,1.05-.03,1.69Z"/><path class="cls-11" d="M156.35,223.83l-3.34-.37v.74c-.19-.08-.66.08-.74,0s.24-.98-.51-.72l-2.09,1.28,1.48.92c-.1.77.09,1.88.37,2.6-1.66.15-1.88,1.95-1.15,3.19.67.85,2.83.66,3.75.15.21.19.67.7.74.74-.42,1.51,2.49,2.65,3.5,2.59,1.94-.1,1.84-2.59,3.19-3.71,1.82,4.43,2.81,10.83.37,15.22-2.39,1.08-3.82,2.84-6.59,3.24-7.31,1.07-13.4-4.54-15.68-11.04.77-.65.45-3.26-.74-2.97-.19-1.22-.45-1.99-.37-3.34.22-3.63,2.01-8.17,5.01-10.39,1.15-.85,2.69-1.05,3.53-2.23,4.47.37,6.01,1.12,9.28,4.08Z"/><path class="cls-3" d="M133.71,231.25c.78,1.65,2.76.18,3.84.36.29.05.23,1.03.99.76-.08,1.35.18,2.12.37,3.34.21,1.33.3,1.71.74,2.97,2.28,6.5,8.37,12.11,15.68,11.04,2.78-.41,4.21-2.16,6.59-3.24-.65,1.17-1.46,1.41-1.68,1.85-.35.71-.01,1.52-.53,2.44-.14.25-2.19,2.2-2.48,2.35-.89.45-1.79.25-2.28.51-.71.39-.36,1.16-2.51,1.38-12.6,1.33-21.06-12.5-18.74-23.76Z"/><path class="cls-27" d="M147.07,219.75c-.84,1.18-2.38,1.38-3.53,2.23-3,2.22-4.79,6.76-5.01,10.39-.76.27-.7-.71-.99-.76-1.08-.18-3.06,1.29-3.84-.36,1.24-6.03,5.38-11.78,12.11-11.9.75-.01,1.13.38,1.25.39Z"/><path class="cls-4" d="M156.35,223.83c2.61,2.37,3.86,4.15,5.2,7.42-1.35,1.12-1.25,3.61-3.19,3.71-1.01.05-3.92-1.09-3.5-2.59,4.09,2.73,4.61-1.88,2.54-4.95-1.25-1.85-2.43-2.41-4.39-3.22v-.74s3.34.37,3.34.37Z"/><path class="cls-27" d="M212.03,225.69c-2.13,3.53-6.2,5.46-5.94,10.2,1.35-.32,3.88.78,4.72,1.78.6.71.54,2.54,1.6,3.05.56.27,1.27.12,1.84.39.51.24.81,1.08,1.39,1.24.15.04,2.94-.04,3.07-.12.33-.2.51-1,.92-1.33.82-.66,2.09-.97,2.8-1.76,1.21-1.34,2-4.09,2.96-5.66.27.94,1,1.91.75,3.09-.07.32-.8.11-.78.78.09,3.07,1.04,4.56.24,8.03s-1.24,2.06-3.44,3.24c-2.06,1.11-3.72,4.29-5.4,5-.8.34-4.9.8-5.1,1.02.87,1.63.84,2.99.74,4.83-2.72.2-8.5-.1-7.24-4.09l3.16-1.29c-.88-.57-1.68-1.65-2.77-1.69-1.22-.04,0,1.95-1.12,1.5-2.34-.96-.41-2.96-.54-4.63-.14-1.86-1.18-4.26-1.06-6.57.08-1.65,2.31-9.58,3.1-11.04.67-1.22,2.52-2.84,3.51-3.93,1.18-1.3-.04-1.12,2.59-2.04Z"/><path class="cls-8" d="M225.39,233.48c-.96,1.57-1.76,4.32-2.96,5.66-.71.79-1.98,1.1-2.8,1.76-.41.33-.59,1.13-.92,1.33-.13.08-2.92.15-3.07.12-.58-.15-.88-1-1.39-1.24-.57-.27-1.27-.12-1.84-.39-1.06-.51-1-2.34-1.6-3.05-.84-1-3.37-2.1-4.72-1.78-.26-4.74,3.82-6.67,5.94-10.2,7.07-2.47,11.48,1.15,13.36,7.8ZM215.64,227.98c-2.99.63-4.39,6.17-1.18,6.63,4.11.58,5.7-7.57,1.18-6.63Z"/><polygon class="cls-27" points="202.75 249.81 201.63 249.64 201.27 248.33 202.39 248.51 202.75 249.81"/><path class="cls-11" d="M237.64,185.22c-.1,1.46-.75,2.38.2,3.7,1.17,1.65,3.89,2.03,5.2,2.96.71.5.67,1.39,1.62,1.71,4.5,1.48,7.41-.41,10.05-3.92.16.75.66,1.68.74,2.6-.89-.19-.81.41-1.02,1-.93,2.59-1.01,4.72-2.39,7.28-2.56,4.72-8.11,9.55-13.77,7.23-7.97-3.26-5.98-17.5-.63-22.57Z"/><path class="cls-3" d="M237.64,184.85c0,.12,0,.25,0,.37-5.35,5.06-7.33,19.3.63,22.57,5.66,2.32,11.21-2.51,13.77-7.23,1.38-2.56,1.47-4.69,2.39-7.28.21-.59.13-1.19,1.02-1,.86,9.47-7.72,26.55-18.95,21.36-10.99-5.08-7.06-24.33,1.13-31.01-.02.74.03,1.49,0,2.23Z"/><path class="cls-22" d="M254.72,189.68c-2.64,3.51-5.55,5.4-10.05,3.92-.96-.31-.92-1.2-1.62-1.71-1.31-.93-4.03-1.32-5.2-2.96-.94-1.33-.3-2.24-.2-3.7,0-.12,0-.25,0-.37,1.26-1.21,3.56-2.58,3.71-4.45,8.02-3.27,11.87,2.09,13.36,9.28ZM247.21,183.08c-2.96-2.08-6.85,2.76-4.95,5.14,2.46,3.08,7.11-2.13,4.95-5.14Z"/><path class="cls-11" d="M241.36,180.4c-.15,1.88-2.45,3.24-3.71,4.45.03-.74-.02-1.49,0-2.23,1.35-1.1,2.11-1.58,3.71-2.23Z"/><path class="cls-24" d="M268.08,138.08c-.33,2.36-1.14,2.36.21,4.8,2.3,4.16,8.35,4.8,12.41,3.18,2.14-.86,2.37-2.3,3.71-3.9.29,1.36.71,2.67.74,4.08-.85-.18-.81.41-1.05.97-1.64,3.65-1.91,6.41-4.73,9.77-4.22,5.02-12.18,6.07-15.31-.59-.4-.84-1.96-5.58-1.96-6.25,0-1,.77-1.34.97-2.03,1.16-3.97,1.45-5.6,3.9-9.11.32-.46.28-1.1,1.11-.92Z"/><path class="cls-12" d="M268.45,136.97c0,.19-.31.71-.37,1.11-.83-.18-.79.46-1.11.92-2.45,3.51-2.73,5.15-3.9,9.11-.2.69-.96,1.03-.97,2.03,0,.66,1.56,5.4,1.96,6.25,3.12,6.66,11.08,5.61,15.31.59,2.82-3.35,3.09-6.12,4.73-9.77.25-.55.21-1.15,1.05-.97.17,7.04-3.47,16.63-10.25,19.63-4.86,2.15-8.72,1.47-12.01-2.75-6.17-7.91-2.29-22.15,5.19-28.02-.08.6.39,1.36.37,1.86Z"/><path class="cls-8" d="M284.42,142.16c-1.35,1.6-1.57,3.04-3.71,3.9-4.06,1.62-10.11.99-12.41-3.18-1.35-2.44-.54-2.44-.21-4.8.06-.4.36-.92.37-1.11,1.25-.85,2.45-2.28,2.97-3.71,5.8-2.29,10.57.52,12.52,6.23.33.96.29,1.81.47,2.68ZM274.66,135.56c-3.29.74-4.39,7.61.11,6.43,3.64-.95,4.23-7.41-.11-6.43Z"/><path class="cls-24" d="M271.42,133.25c-.52,1.43-1.72,2.87-2.97,3.71.02-.49-.45-1.26-.37-1.86,1.12-.87,2.02-1.34,3.34-1.86Z"/><path class="cls-7" d="M85.34,135.92c4.13-1.24,8.11,7.07,5.68,8.29-3.04,1.52-9.16-7.25-5.68-8.29Z"/><path class="cls-7" d="M153.01,224.2c1.96.81,3.14,1.37,4.39,3.22,2.08,3.07,1.55,7.68-2.54,4.95-.07-.05-.53-.55-.74-.74-.6-.55-2.33-2.66-2.6-3.34-.28-.72-.47-1.83-.37-2.6.07-.58.62-1.18,1.11-1.48.08.08.55-.08.74,0Z"/><path class="cls-4" d="M151.52,228.28c.27.68,2,2.79,2.6,3.34-.92.51-3.08.7-3.75-.15-.74-1.24-.51-3.04,1.15-3.19Z"/><path class="cls-4" d="M151.15,225.69l-1.48-.92,2.09-1.28c.75-.27.43.64.51.72-.49.3-1.04.9-1.11,1.48Z"/><path class="cls-27" d="M138.9,235.71c1.19-.29,1.51,2.32.74,2.97-.44-1.26-.53-1.64-.74-2.97Z"/><path class="cls-7" d="M215.64,227.98c4.52-.95,2.93,7.2-1.18,6.63-3.22-.45-1.82-6,1.18-6.63Z"/><path class="cls-7" d="M247.21,183.08c2.16,3-2.5,8.22-4.95,5.14-1.9-2.38,1.99-7.21,4.95-5.14Z"/><path class="cls-7" d="M274.66,135.56c4.34-.97,3.75,5.48.11,6.43-4.5,1.18-3.4-5.7-.11-6.43Z"/><rect class="cls-1" width="358.65" height="358.65"/></g></svg>