<?xml version="1.0" encoding="UTF-8"?><svg id="Lager_2" xmlns="http://www.w3.org/2000/svg" viewBox="0 0 358.65 358.65"><defs><style>.cls-1{fill:none;}.cls-2{fill:#e0ddd2;}.cls-3{fill:#b54747;}.cls-4{fill:#9dc55d;}.cls-5{fill:#fcdd97;}.cls-6{fill:#7fab52;}.cls-7{fill:#76a14f;}.cls-8{fill:#373432;}.cls-9{fill:#699049;}.cls-10{fill:#ffea73;}.cls-11{fill:#8b643d;}.cls-12{fill:#b88652;}.cls-13{fill:#9ac459;}.cls-14{fill:#9bb972;}.cls-15{fill:#b7d073;}.cls-16{fill:#aecc6a;}.cls-17{fill:#8cb753;}.cls-18{fill:#fbf8ef;}.cls-19{fill:#53733b;}.cls-20{fill:#bad58f;}.cls-21{fill:#d6bd4d;}.cls-22{fill:#415c34;}.cls-23{fill:#3c3e36;}.cls-24{fill:#717679;}.cls-25{fill:#faf8f8;}.cls-26{fill:#f2da67;}.cls-27{fill:#445634;}.cls-28{fill:#3a462d;}.cls-29{fill:#729a4d;}</style></defs><g id="Lager_1-2"><path class="cls-7" d="M133.61,52.49l-10.61,11.41-.17,19.82-6.49,6.16s-18.79,33.24,6.68,49.11c-1.77,4.45-19.89,74.26-19.89,74.26,0,0,3.22,11.39-3.19,16.77-.24,11.29-.04,28.43,10.95,28.83s23.67,1.2,23.67,1.2l-11.4,1.43,2.97,23.59,5.87,22.64-7.9,7.16-23.07,13.52,10.1,9.13,8.86-.63,13.18,4.56,13.44-2.49,23.59-15.54,2.69-10.75-4.12-9.22,6.97-8.24,5.39-23.77,14.26-.32-5.98,5.7,7.46,20.92,1.69,8.55-.95,11.28s27.22,22.05,37.63,21.59c10.84-2.13,25.41-7.2,25.41-7.2l7.04-2.31-24.92-10.7-13.17-12.66,6.69-8.23,4.35-16.49-.41-30.27,1.76-8.59,12.95-13.43,13.47-10.46-4.98-14.79-5.32-22.59-14.26-45.31-.95-6.34,8-11.09,5.32-7.75-7.3-12.85-11.25-12.67,4.91-7.93s6.65-32.32-18.06-29.47c-14.57.32-22.81,6.02-22.81,6.02l-1.9,9.19-12.67,12.04-17.74-9.19-16.18-10.77-19.61-2.85Z"/><path class="cls-23" d="M248.92,251.49s.44-.23.58-.52c.85-1.78,2.27-3.35,1.95-5.5l-2.2,3.02c-.49.47-2.24,1.59-2.86,1.73-.44.1-1.1-.07-1.58,0,.09.59.31,1.12.33,1.72.36,11.66-.19,24.59-2.33,36.04-1.17,6.25-2.87,12.23-5.94,17.82,5.59,2.75,10.93,6.12,16.49,8.91,5.13,2.57,18.56,6.88,18.94,13.7.13,2.24-1.93,3.16-2.78,4.83-.37-.02-7.03,1.2-7.38,1.33-.4.15-1.66,2.07-2.46,2.61-1.93,1.31-6.66,2.07-9,2.1-1.44.02-4.04-.72-5.04-.56-.42.07-1.45,1.05-2.1,1.34-9.14,4-28.72-6.58-36.75-11.57-10.41-6.47-14.29-10.92-9.56-23.85-5.71-9.52-8.11-20.59-10.04-31.42l-4.28-.2c-2.29,11.47-4.04,23.42-10.28,33.53,1.65,4.23,2.84,8.2,1.7,12.77-1.03,4.13-4.58,6.67-7.45,9.5-8.66,5.6-24.03,16.98-34.85,14.1-1.18-.31-3.22-1.7-3.65-1.74-1.05-.09-3.39.58-4.72.64-4.2.2-10.2-.21-12.51-4.3-3.05.46-10.99-.85-12.37-3.96-.21-.48-.3-1.2-.33-1.73-.39-7.09,10.4-10.91,15.75-13.11l17.82-11.02c-8.15-13.83-9.61-30.63-10.43-46.39-2.85,1.28-5.82.46-8.44-.9-.68-.35-1.81-1.45-2.23-1.57-1.92-.54-3.05.02-5.44-1.21-9.18-4.73-8.17-19.28-5.51-27.62.31-.96,1.84-3.86,1.86-4.34.03-.79-1.25-2.79-1.42-4.16-.32-2.61-.07-4.36,1.28-6.57.38-.61,1.32-1.17,1.47-1.7.33-1.16.23-3.35.42-4.65,2.78-18.59,6.62-41.84,13.26-59.3.51-1.34,3.81-8.09,3.79-8.55-.02-.56-1.41-2.16-1.08-3.34-19.53-8.69-10.69-33.27-3.19-47.53.75-1.43,4.08-6.23,4.23-7.2.25-1.6-.93-5.68-.91-7.85.04-6.6,2.93-15.73,8.09-20.12.51-.44,1.31-.54,1.43-.63h.63c.49.64-.52,1.08-.63,1.27-.92,1.5-1.79,2.06-2.8,3.38-4.96,6.46-6.06,17.4-3.55,24.99.26.79,2.21,4.53,1.91,4.9-.25.31-.83-.16-.82-.6l-2.35-3.68c-3.97,6.04-6.9,12.65-9.18,19.49-2.62,7.85-4.88,16.72-.63,24.4,6.71,12.15,21.52,9.49,33.26,8.56.42-.03.85.03,1.27,0,.78-.07,1.47-.25,2.22-.32.11.53-.24.71-.63.95-1.54.2-3.16.08-4.75.64l.54.56,10.86.7c.45.07,1.09,0,1.58,0,.11,0,.21,0,.32,0,.21,0,.42,0,.63,0s.29-.32.32-.32c2-.05,4.02.04,6.02,0-.1.21-.21.42-.32.63-6.32.51-12.33,1.08-18.69.32-4.69-.56-7-.95-11.87-.94-3.16,0-6.33-.02-9.49-.03-.26,1.65-1.09,2.98-1.77,4.45-9.68,21.06-12.35,45.93-16.48,68.6-.03.43-.02.62.47.47.77-.23,1.98-1.15,2.93-1.5,3.65-1.35,7.58-2.15,11.49-1.98.3.04.64-.02.95,0,.42.03.85-.04,1.27,0,2.8.28,5.49.63,8.24,1.27l5.86,3.17c.85.17.39-1.04.48-1.59.56-3.35.24-7.77.64-11.56,1.08-10.2,4.49-21.51,2.53-31.54h.63c.2.96.44,1.88.63,2.85.1.51.31.6.32.63.09.47-.07,1.09,0,1.58.08.62-.16.92.63,1.27-.12.14-.21.44-.32.63-.01.02-.27.08-.32.32-.22,1.22.14,2.94,0,4.27-1.15,10.5-2.68,19.36-3.15,30.12-.05,1.09-.64,2.58-.6,3.49s1.17,1.85,1.54,2.67c.61,1.36.79,3.12.63,4.6-.31,2.93-1.79,2.67-.61,6.25.08.23.39.86.61,1.51.11.31.29.54.32.63.68,2.11,1.8,4.84,2.22,6.97.06.28-.05.66,0,.95.02.1-.02.21,0,.32.77,4.67.91,5.71-.95,10.14-1.76,2.04-3.07,3.73-6.11,3.1-.56-.12-2.52-1.46-2.76-1.19,1.13,4.76,2.64,9.17-2.85,11.72-1.79-.06-3.83.81-5.69-.49l-.64.34c.63,1.93.19,4.02.32,6.01.07,1.1.54,2.62.63,3.65.9,9.99,1.99,18.79,5.7,28.2,4.77,12.11,11.61,16.22,24.86,15.21s17.26-8.09,21.07-19.33c1.87-5.53,3.32-11.05,4.43-16.79.43-2.22.53-5.02.95-6.97,0-.02.38,0,.32-.32.18.04.43-.02.63,0,1.32.77,4.3,1.11,5.39,0,1.3-1.33,1.2-3.54,1.58-5.07.3-1.2.83-1.88.95-3.8l.35-1.24.92-.03c-.3,3.48-1.31,7.04-2.54,10.29,0,.25,1.9.21,2.22.16.24-.04.3-.31.32-.32.29-.1.81.11,1.1-.32.05-.5,1.38-2.01,1.42-2.14.34-1.16.74-3.53.97-4.83l.95.32c-.07.35-.3.56-.32.63-.11.49-.2,1.08-.32,1.58-.37,1.67-.91,2.77-1.27,4.44l-.31.16.31.16c.53,0,1.06,0,1.58,0v.63s.95-.63.95-.63c.31-.03.64.04.95,0v.95c-2.11.5-3.53.47-5.87.62-.8.05-1.55.32-2.35.35-.26,2.94.91,5.74,1.57,8.54,3.02,12.97,5.75,26.48,20.27,30.1.02,0,.09.27.32.32.1.02.22-.02.32,0,6.2,1.25,14.26.9,19.74-2.6,3.49-2.23,5.52-6.93,6.87-10.71,4.31-11.99,5.42-28.74,5.39-41.51,0-2.02.33-5.68,0-7.44-.14-.75-1.46-1.69-1.95-2.8-1.79-4.07-.53-11.98-.57-16.7-.12-13.87-.43-27.74-1.58-41.51-.56-6.62-.93-13.38-1.9-19.96-.04-.25-.31-.29-.32-.32-.12-.81-.13-1.82-.32-2.85h.63c.4,1.77.96,3.56.95,5.39.35.43,2.09-2.27,2.22-2.53h.63c-.28.6-1.26,2.94-1.36,3.08-.12.18-.58.22-.7.4-.43.65,1.55,13.3,1.74,15.37.49,5.23.82,10.76.95,16,.07,2.95-.06,5.92,0,8.87,2.72-.76,5.1-2.4,7.92-3.17,5.24-1.43,9.62-.86,14.89-.63.11,0,.21,0,.32,0l2.05.96c.57-.27-.14-.84-.15-.96-.03-.2.03-.43,0-.63-1.49-9.33-5.4-21.47-8.01-30.81-1.25-4.46-2.66-8.85-4.03-13.24-2.69-8.64-5.89-20.11-11.09-27.57-.18-.26-.19-.9-.53-.97l-3.27.34c.07-.21.24-.42.32-.63,1.59-.47,4.14-1.3,4.75-2.85.26-.66.49-1.06.31-1.9-.43-.15-.6.31-.63.32-.21.03-.43-.02-.63,0-.07,0,.04-.17-.63,0-.19.05-.46-.05-.63,0v-.63c4.18-1.96,8.12-4.69,11.09-8.24,1.39-1.66,1.69-2.08,2.53-4.12.07-.18.22-.33.32-.63.03-.09-.03-.22,0-.32,3.47-11.3-9.27-27.14-17.74-33.91-.02-.33.38-.33.63-.32.06,0,.23.41.61.19.7-.4,1.96-3.97,2.24-4.94,4.21-14.75-3.84-28.97-19.32-31.05-.1-.01-.21.01-.32,0-.02,0-.08-.3-.32-.32-3.63-.3-8.19.18-11.4,1.9-.09-.02-.22,0-.32,0-.1,0-.22-.02-.32,0-.19.04-.42.24-.63.32-2.28.82-3.74,2.17-5.7,3.49-.08.05-.46-.1-.6.03-.15.14.02.53-.04.6-.73.99-1.67,1.32-1.9,1.58.31-1.61-2.41-1-1.9-3.17.71.38,1.46.65,2.06,1.21,17.89-17.33,46.88-3.14,43.19,22.04-.47,3.21-1.7,6.14-2.77,9.17,7.39,7.17,17.79,19.21,17.08,30.18-.34,5.22-3.71,9.22-7.46,12.5-.74.65-4.6,3.22-4.75,3.48-.08.13.25,1.65.01,2.56-.3,1.12-2.07,2.42-2.02,2.94,12.53,23.02,16.92,49.52,23.99,74.56,3.12,2.64,4.55,4.89,4.15,9.16-.09.98-.76,1.85-.59,2.78.12.65,2.07,3.69,2.54,4.77,3.74,8.58,6.71,25.17-4.06,29.96-2.02.9-3.2,1.43-5.17,2.43-3.6,1.83-4.73.5-7.74.78-.66.06-1.37.66-2.07.81-2.2.46-5.19-.11-6.5-2.09-.92-1.39-1.41-5.11-.81-6.64ZM250.19,210.3c-2.94.75-5.57,2.02-8.17,3.55l.25,8.81c6.2-5.55,18.6-7.03,26.14-3.81.88.38,1.92,1.34,2.54,1.58.76.31.39-.89.47-1.26,2.35-11.5-14-10.72-21.22-8.87ZM113.02,210.93c-3.5.68-9.28,2.71-10.69,6.26-.81,2.04-.64,5.33.87,7.05.2.22.45.4.63.63-.33.48-1.31,2.92-1.59,3.64-3.51,9.01-5.29,26.84,7.61,28.68-.49-1.43-1.61-2.51-2.27-3.9-.41-.85-1.84-4.75-1.84-5.45v-5.55c.45-.07.5.88.54,1.2.55,3.94.72,6.91,2.78,10.53,2.48,4.37,8,8.09,12.83,5.22-3.24-3.08-4.78-7.37-6.01-11.57,0-.53.03-1.06,0-1.58-.02-.46.08-.9-.32-1.27.11-1.58.03-3.18.32-4.75.38-.51.57,0,.63.47.12.94-.08,2.05,0,3.02.26,3.24.85,6.1,2.16,9.09,1.22,2.79,4,7.24,7.21,7.68,3.44.47,6.13-1.11,6.15-4.72.02-2.81-1.34-4.61-1.82-7.21-.55-2.97-.39-8.73-.08-11.8,2.26,4.11-.99,10.46,4.31,12.96,3.15,1.48,4.65-.11,5.83-2.82,2.02-4.67.46-11.05-.95-15.84-.11-.39-.31-.6-.32-.63-.03-.1.03-.22,0-.32-.07-.22-.31-.3-.32-.32-.06-.17.06-.48,0-.63-.09-.24-.31-.3-.32-.32-.04-.09.04-.23,0-.32-.08-.18-.29-.26-.32-.32-.44-.92-.98-2.71-1.58-3.49.34-.3.72-.55.95-.95.61-1.05.56-1.38.63-2.54.17-2.76-.19-4.53-2.43-6.28-5.84-4.57-15.56-5.22-22.59-3.86ZM255.57,218.22c-3.19.26-12,2.7-13.13,6.04l-.45,18.48c.59,2.27.54,5.82,3.62,5.91,4.9.14,5.25-7.33,6.19-10.6.1-.36.13-1.18.6-1.13-.31,3.26.72,6.77.33,9.99-.22,1.8-1.93,3.49-2.2,5.41-.37,2.7-.15,5.9,3.06,6.4,3.8.59,5.84-2.14,8.32-4.36.03.08.26.19.32.32l-2.85,3.48c6.42.59,9.64-2.84,12.04-8.24.18-.42.2-.64.32-.95,0-.02.24-.08.32-.32.03-.1-.03-.22,0-.32.08-.27.21-.47.32-.95.13-.54.24-1.03.32-1.58h.95c-.04.19.04.44,0,.63,0,.04-.27.15-.32.32-.03.1.03.22,0,.32,0,.02-.26-.09-.32.32-.08.57-.01,1.33-.32,2.22l-3.01,5.39c2.47-.85,4.72-3.06,5.86-5.39.76-1.56,1.02-3.08,1.27-4.75.01-.09.29-.35.33-.77.44-4.96-1.39-12.85-3.44-17.51-1.92-4.35-3.21-6.98-8.29-7.39-.04-.18.04-.43,0-.63-.31-.05-.66.05-.95,0-2.53-.45-6.28-.52-8.87-.32ZM245.12,334.83c-.04-.6-.23-.66-.32-.95-.29-.97-.97-2.4-1.58-3.17.24-.73.89.05,1.12.31,1.27,1.46,2.45,4.15,1.73,6.02,3.94.73,15.07,1.14,14.57-5.07-.07-.87-.52-1.27-.95-1.9-.18-.26-.49-.78-.63-.95l.32-.63c1.26,1.46,2,1.67,2.05,4.13.67.95,5.96-.51,7.1-1.16,1.36-.77,1.98-1.3,1.94-2.97-.15-5.68-12.41-10.19-17.09-11.27-.64-.15-1.26-.18-1.92-.14l1.58-.32c-4.09-3.25-9.22-4.98-13.65-7.74-.39-.23-.81-.18-1.24-.18.21-.83-2.28-1.63-2.63-1.54-9.43,10-27.81,8.75-36.97-.99-2.64,7.09-2.7,12.39,3.57,17.18,6.87,5.25,24.72,14.74,33.1,15.69,3.48.39,10.26.63,9.89-4.35ZM124.11,314.87c-1.86.22-7.5,4.38-9.19,5.7-3.99.71-11.52,4.45-13.88,7.82-.85,1.21-1.13,1.71-1.01,3.27.34,4.2,7.97,4.3,11.09,4.12-.34-1.1.39-1.62.63-2.22h.63c-.12.4-.41.77-.32,1.27-.1.13-.02,1.37.07,1.67,1.3,4.22,12.28,4.23,15.74,3.05-.02-1.34.17-2.76.03-4.09,1.75-2.09,2.91-5.35,6.02-5.7v.32c-1.48.97-3.36,3.14-4.12,4.75-.16.33-.21.62-.32.95-.22.7-.61,1.02-.55,1.98.15,2.44,2.01,3.42,4.23,3.69,8.28,1,16.45-3.83,23.25-7.89.12-.07.2-.25.32-.32.17-.1.4-.18.63-.32,2.83-1.74,5.94-3.21,8.24-5.7,1.16-.51,3.72-2.74,4.6-3.8,3.53-4.25,3.59-10.51.95-15.21-7.86,8.68-23.62,10.36-33.52,4.37-1.63-.99-2.9-2.42-4.49-3.43l-9.03,5.71Z"/><path class="cls-23" d="M169.09,47.74c.07-.06.23-.83.77-1.28,3.02-2.55,5.87-4.13,10-4.1.14-1.78-.19-3.8,0-5.55.68-6.31,8.75-7.11,6.18-15.05-1.63-5.04-9.05-5.46-12.01-1.25-1.02,1.45-1.41,5.32-3.67,4.61-2.02-.63-.89-3.41-.27-4.75,5.06-10.85,21.59-6.87,19.89,5.95-.65,4.9-5.58,6.76-6.49,9.67-.53,1.72.1,4.5-.14,6.36,4.88-.52,8.9,2.58,12.38,5.53.49.42.53,1.04.61,1.12l-.63.63c-5.9-4.61-9.5-7-17.49-5.61-4.04.7-5.16,1.92-8.17,4.34h-.95s0-.63,0-.63ZM182.08,42.35c.64-3.18-.44-5.95,1.59-8.72,2.4-3.28,5.57-4.23,5.39-9.49-.38-11.53-17.39-11.67-18.7-.49l1.23-.03c1.56-10.95,18.72-8.52,15.97,2.83-1.02,4.21-5.65,5.78-6.35,10.12-.15.94-.53,5.01-.11,5.59l.98.19Z"/><path class="cls-8" d="M169.09,47.74v.63s.95,0,.95,0c-1.47,1.18-2.76,2.59-4.43,3.8-.42.3-3.72,1.94-3.17,2.53,2.06-.28,5.78,6.44,6.53,6.59,5.76-.63,9.51-5.52,15.63-3.88,3.78,1.02,7.12,3.61,11.22,3.6.32-.11,2.11-3.7,2.6-4.38.71-1.01,2.77-2.3,2.04-3.19-.69-.84-3.44-2.32-4.53-3.17-.29-.22-.2-.62-.23-.64l.63-.63c.22.22,1.35.53,1.9.95.1.11.19.24.32.32.39.25.86.41,1.27.63-.51,2.17,2.21,1.56,1.9,3.17-.09.1-.07.73-.31,1.04-1.6,2.06-3.26,4.12-4.13,6.72,1.07.41,1.41,1.18,2.54,1.44-.88.37-.65,1.07-.63,1.9h-.63c-.13-.23-.23-.5-.32-.64-.22-.34-.23-.62-.63-.95-3-2.45-13.97-2.44-17.89-2.22-3.55.2-7.13.94-10.62,1.58.31,1.04.22,2.11.32,3.17-1.8-4.9-4.94-8.69-8.87-12.04.35.12.81.51,1.21.27l.69-2.17c.09-.04.24.04.32,0l.32-.32c.08-.04.24.05.32,0l.63-.63c.08-.05.24.05.32,0h.63s0-.63,0-.63c.07-.05.25.05.32,0l.63-.63c.31-.22.64-.41.95-.63.26-.18.54-.29.63-.63.43-.33,1.45-.83,1.58-.95ZM179.07,59.78c2.47-.14,4.98.1,7.44,0-.36-.57-1.84-1.09-2.45-1.19-2.74-.47-4.56.38-7.05,1.2.19.89,1.76.01,2.06,0Z"/><path class="cls-8" d="M143.43,48.05c-.2,1.36,3.67,1.1,4.23.96.34-.09.18-.62.21-.64.07-.05.71,0,.95,0,.41-.01,1.22-.03,1.58,0,.21.02.43-.02.63,0l.63.32c.2.04.45-.04.63,0,1.48.88-.23.21,0,1.27,2.27-.16,4.13,2.23,6.34,1.27.12.06.21.26.32.32l.63.32c.08.04.23-.04.32,0v1.9c-8.4-3.9-12.93-6.16-22.49-2.85-1.32.46-2.48,1.14-3.8,1.58-.31.11-.6.3-.95.32,2.3-1.73,4.99-2.63,7.51-3.8.7-.33,1.6-.15,2-.95.4-.05.86.04,1.27,0Z"/><path class="cls-23" d="M142.17,48.05c-.39.8-1.3.63-2,.95-2.51,1.17-5.21,2.07-7.51,3.8-.11.08-.2.22-.32.32-.93.29-1.56,1.05-2.53.32,4.31-3.37,6.58-4.6,12.35-5.39Z"/><path class="cls-19" d="M248.92,251.49c-1.01.07-2.47-.03-2.53-1.27.62-.14,2.37-1.26,2.86-1.73l2.2-3.02c.32,2.15-1.1,3.73-1.95,5.5-.14.29-.56.47-.58.52Z"/><path class="cls-23" d="M158.64,51.22c-2.21.96-4.07-1.43-6.34-1.27-.23-1.06,1.48-.38,0-1.27,2.5.58,4.12,1.46,6.34,2.54Z"/><path class="cls-23" d="M143.43,48.05c.06,0,.35-.31.77-.33,1.22-.07,2.46.07,3.67.01v.63s.13.55-.21.64c-.56.15-4.43.41-4.23-.96Z"/><path class="cls-23" d="M162.44,52.17l-.69,2.17c-.4.24-.86-.15-1.21-.27-.28-.09-.43-.22-.63-.32v-1.9c.51.25.9.74,1.48.9.44.05.73-.45,1.05-.58Z"/><path class="cls-8" d="M132.35,53.12c-.97.78-1.97,1.81-3.17,2.22.11-.18,1.12-.63.63-1.27h-.63c.09-.08.12-.23.63-.64.98.73,1.6-.03,2.53-.32Z"/><path class="cls-23" d="M150.4,48.37c-.36-.03-1.17-.01-1.58,0,.45-.5,1.1-.34,1.58,0Z"/><path class="cls-23" d="M164.98,50.59v.63s-.63,0-.63,0c.05-.03.29-.4.63-.63Z"/><path class="cls-23" d="M159.59,51.86l-.63-.32c.21.11.41.2.63.32Z"/><path class="cls-23" d="M151.67,48.69l-.63-.32c.54.07.6.31.63.32Z"/><path class="cls-23" d="M166.88,49.32c.09-.36.39-.44.63-.63-.09.35-.38.45-.63.63Z"/><path class="cls-23" d="M162.76,52.17s.14-.22.32-.32l-.32.32Z"/><path class="cls-23" d="M163.39,51.86s.25-.4.63-.63l-.63.63Z"/><path class="cls-23" d="M165.29,50.59c.1-.07.3-.4.63-.63l-.63.63Z"/><path class="cls-23" d="M198.55,50.27c-.12-.08-.22-.21-.32-.32.12.09.22.21.32.32Z"/><path class="cls-4" d="M188.42,147.87c-37.8,1.98-46.82,43.02-41.1,74.23,3.96,21.63,19.44,40.16,42.68,40.17-.12,1.92-.65,2.6-.95,3.8-6.69,1.22-14.24-.91-19.96-4.44-1.61-.99-3.56-2.73-5.07-3.96-.25-.21-.63-.84-.95-.31,3.63,5.67,9.31,10.98,9.82,18.06.32,4.47-1.7,10.65-4.11,14.41-1,1.56-2.38,3.32-3.48,4.75-2.87,2.24-5.49,4.52-8.87,6.02-4.51.15-5.55,1.93-10.76-.16-11.36-4.57-14.23-21.13-14.57-32-.13-4.21,1.49-4.94,3.48-8.39s5.31-8.85,6.65-12.04c1.86-4.43,1.72-5.47.95-10.14l.95-.16v-.47s-.95.32-.95.32c-.05-.29.06-.67,0-.95,1.35.33,1.01-.86.96-1.75-.4-7.38-1.8-14.82-1.91-22.33-.17-11.78,1.88-27.45,4.43-38.98.49-2.2,1.51-4.55,1.87-6.84.6-3.81.44-8.01.98-11.85l-.63,2.53-.78-.63c-.6.25-2.72,10.44-3.68,11.05-1.88,1.18-3.62-4.11-4.4-5.03-.02-.1.02-.21,0-.32-.03-.15-.17-.27-.32-.32-.02-.1.03-.23,0-.32-.15-.47-.11-.94-.63-1.27-.22-.63-.41-1.28-.63-1.9-1.5-4.2-4.16-10.35-7.03-13.73-.36-.43-.51-.87-1.21-.85.13-.13.18-.51.32-.63,2.91.15,5.72,1.02,8.55,1.58,6.82,1.36,11.71,2.07,18.55-.3,1.18-.41,3.55-1.26,3.94-2.55,7.77-.87,15.3-2.82,23.2-1.5,5.02.84,4.79,2.4,4.68,7.2Z"/><path class="cls-13" d="M137.42,50.9l-1.27,1.9c12.33-3.68,24.56.32,29.83,12.46.29.67,1.01,3.62,1.37,3.7l2.23-1.25c.54-.77-.15-1.32-.17-1.6-.1-1.05-.01-2.13-.32-3.17,3.49-.64,7.06-1.38,10.62-1.58,3.92-.22,14.89-.24,17.89,2.22,0,.46.18.81.63.95.09.14.18.41.32.63.59,1,1.09,2.12,1.59,3.17.73-.42.13-2.11.31-2.85.66.41,2.46.41,2.22-.63.18.05.46-.05.63,0,.32.66,1.08,1.99,1.6,2.36,1.46,1.04,7.36,2.73,9.6,3.71,4.32,1.89,9.22,4.41,13.19,6.93,3.43,2.17,6.47,4.91,9.99,6.96v.64s-1.9-.64-1.9-.64l-.16.63c8.76,3.82,17.3,11.51,18.06,21.55l1.26-.32c-.14,1.55,1.25,2.75,1.29,4.29.03,1.32-1.17,2.96-.65,4.58.97,0,1.47-.34,1.27.95-.03.1.03.22,0,.32l-.32.63c-.84,2.04-1.14,2.46-2.53,4.12-1.07-1.04-1.83.61-2.55,1.09-6.07,4.03-12.96,6.78-20.18,8.02-7.81,1.34-18.85.69-26.05,3.89l-.32-.63c10.15-6.11,16.12-5.18,26.93-7.76,4.12-.98,10.88-3,14.36-5.28.23-.15.93-.56.69-.89-1.69,1.71-12.81,3.64-13.47,4.43-3.17.5-6.35,1.03-9.5,1.58-7.56,1.33-12.93,2.09-19.62,6.2-.75.46-2.12,1.1-2.24,2.03-.86.41-1.44.75-2.22,1.27-.14-.68-1.14-1.52-1.54-2.1-.02-.83.72-1.21,1.22-1.7.1-.1.21-.22.32-.32s.2-.23.32-.32c3.12-2.51,7.66-4.39,11.4-5.7.13-.05.24-.29.32-.32.23-.08.67.05.95,0l.32-.32c.2-.03.46.05.63,0,.24-.06.3-.31.32-.32.18-.05.45.05.63,0,.25-.06.54.02.63-.32h.32l13.94-2.85,1.27-.32c.34.45.5.03.63,0,.19-.04.44.04.63,0,.22-.05.29-.31.32-.32.28-.06.67.06.95,0,.48-.11.6-.31.63-.32.19-.04.45.04.63,0,.43-.1.86-.22,1.27-.32.1-.02.22.02.32,0,.43-.1.79-.28.95-.32.1-.02.22.03.32,0,.44-.11.6-.31.63-.32.18-.05.45.05.63,0,.43-.12.6-.31.63-.32.1-.03.22.03.32,0,.63-.16,1.41-.17,1.9-.63.1-.02.22.03.32,0,.24-.06.3-.31.32-.32,1.75-.53,2.17-.56,3.8-1.58.44-.28,1.05-.34,1.27-.95.74-.45.69-.48,1.27-.95.72-.59,1-.86,1.58-1.58.09-.11.23-.2.32-.32.2-.27.22-.48.32-.63.15-.23.21-.4.32-.63.03-.06.25-.14.32-.32.03-.09-.03-.22,0-.32,0-.02.27-.08.32-.32.04-.19-.03-.43,0-.63,1.08-1.32.89-4.34,0-5.7,0-.21.03-.43,0-.63-.07-.53-.31-.6-.32-.63-.53-2.07-1.07-2.78-2.22-4.44-.08-.12-.23-.2-.32-.32-.68-.95-.84-1.07-1.58-1.9-.18-.2-.29-.6-.63-.95-.62-.64-.98-.7-1.27-.95-.11-.1-.2-.22-.32-.32-.19-.16-.31-.39-.63-.63-.11-.08-.19-.23-.32-.32-.07-.05-.25.05-.32,0-.12-.08-.26-.4-.63-.63-.25-.16-.46-.21-.63-.32-.22-.62-.83-.67-1.27-.95-2.31-1.47-3.74-2.28-6.34-3.17-.05-.02-.21-.2-.63-.32-.1-.03-.22.03-.32,0-.36-.68-1.05-.49-1.58-.63-.1-.03-.22.02-.32,0-.02,0-.08-.26-.32-.32-.19-.05-.45.05-.63,0v-.63c-.51-.06-1.08.07-1.58,0-.2-.03-.44.03-.63,0-.03,0-.14-.21-.63-.32-.19-.04-.44.04-.63,0-.03,0-.16-.21-.63-.32-.1-.02-.22.02-.32,0-.11-.03-.48-.22-.95-.32-.19-.04-.44.04-.63,0-.31-.06-.75-.22-1.27-.32-23.53-4.28-52.21-.41-72.95,11.79-6.8,4-17.11,11.21-15.67,20.3.44,2.75,3.08,5.34,5.63,6.26.15.05.31.22.63.32.17.05.44-.04.63,0,.24.87,1.05.51,1.58.63.19.04.45-.05.63,0,.05.01.16.28.32.32.42.1.84.25,1.27.32.1.02.21-.02.32,0,.79.12,1.38.24,2.22.32.1,0,.21,0,.32,0,2.76.2,5.19.11,7.92,0,1.32-.05,3.05.3,4.12-.32.53,0,1.06,0,1.58,0,.11,0,.21,0,.32,0,1.78,0,3.6-.07,5.39,0,.32.01.63-.02.95,0,2.02.1,5.02.31,6.97.63.2.03.44-.04.63,0,.05,0,.53.23.95.32,4.77,1.05,10.19,3.68,13.78,6.99.21.19.52.26.79.3v.32c-.1.22-.22.42-.32.63-.69.32-1.25,1.14-1.27,1.9l-2.85-1.9c-5.79-4.78-13.58-5.92-20.91-6.02-2.35-.03-4.42.24-6.65.32-6.9.25-13.99.99-20.58-1.75-8.16-3.39-10.17-10.74-6.34-18.53s12.75-13.56,20.27-17.43c19.34-9.94,37.19-13.64,59.08-11.72,3.39.3,7.22,1.39,10.46,1.58.63.04.49-.06.47-.63-3.25-.52-6.45-1.39-9.71-1.86-24.67-3.57-39.63-.3-60.94,11.68-4.85,2.72-11.95,6.89-15.84,10.77l-1.07-.72-.52-3.4c.73-.16,2.13-.56,2.85-.8,2.13-.71-2.11-1.93-2.76-2.3-.46-.26-1.9-.95-1.99-1.02-10.56-7.4-12.15-25.14-3.96-34.86,1.26-1.5,3.57-2.8,3.96-4.75,1.32-.44,2.48-1.13,3.8-1.58ZM129.5,64.53c-2.35,1.03-2.09,5.83-1.86,8.04,1.38,13.61,16.01,20.16,27.5,13.32,2.49-1.48,2.06-1.78,3.51-3.62,4.87-6.16,7.68-11.96,3.42-19.74-7.2-13.15-27.76-12.25-32.57,2ZM179.55,69.28c-.15-.82-2.4-2.19-3.01-2.2-.65,0-1.84.78-1.74,1.56,1.72.02,2.69-.31,4.12.64.69.46,1.58,1.42,2.38,1.89-.27-.92-.79-1.71-1.75-1.89ZM247.5,119.67v.32c.21-.11.21-.21,0-.32Z"/><path class="cls-18" d="M138.05,221.07c-1.79.65-3.13-.09-4.87-.34-.39.08-.13.51-.2.66-.05.12-.45.27-.32.63,1.14.28,3.11,1.65,3.8,2.54.6.78,1.14,2.56,1.58,3.49l.32.32c.04.09-.04.23,0,.32l.32.32c.06.16-.06.47,0,.63l.32.32c.03.1-.03.22,0,.32l.32.63c1.41,4.8,2.97,11.18.95,15.84-1.09-.62-2.06.1-3.29-.02-5.27-.52-4.18-9.81-6.38-10.75-.61-.26-.44.34-.47.63-.31,3.07-.47,8.83.08,11.8.48,2.6,1.84,4.4,1.82,7.21l-1.59-1.58h-.46c-2.27,3.91-7.35,2.15-9.61-.85-1.8-2.39-2.64-5.62-3.22-8.52-.12-.58.38-1.27-.64-1.09-.08-.97.12-2.08,0-3.02-.06-.46-.25-.98-.63-.47-.29,1.57-.21,3.17-.32,4.75,0,.07-.62.68-.32,1.27h.63c.03.53,0,1.06,0,1.59,0,.05-.32.3-.26,1,.12,1.44,1.41,3.81,1.48,4.93.14,2.23-4.42-.7-5.19-1.48-5.37-5.45-6.12-17.07-3.24-23.86,1.83-4.32,5.41-6.19,9.45-7.99.47-.21,1.12.07.93-.8,2.07-.04,5.69.65,7.29,0,.13-.05.42.06.61-.02v-.91c-3.61-1.12-7.45-1.36-11.24-1.3-1.67.03-6,1.46-6.15-1.12-.12-2.03,2.3-3.79,3.47-5.21,7.04-1.36,16.75-.71,22.59,3.86,2.24,1.75,2.6,3.52,2.43,6.28Z"/><path class="cls-4" d="M124.43,206.81c-1.35-.48-4.08-.99-5.58-1.23-2.27-.38-4.68.69-5.17-2.76s.78-10.59,1.33-14.14c1.05-6.78,2.63-14.07,4.3-20.73,1.87-7.48,3.95-15.64,8.44-21.98.63.85,1.71,1.64,2.37,2.37,2.25,2.5,4.95,7.5,6.35,10.62,1.08,2.41,1.55,4.5,2.22,6.97l-.63.43c-.05-1.79-1.69-2.94-1.27-4.86-2.16.53-1.11,4.61-.74,6.29.4,1.81,1.78,3.99,1.99,5.3.96,6.16-2.34,15.99-3.11,22.52-.37,3.18.04,9.74-1.79,12.16-.35.46-.77.47-1.12.82-.1.58,2.16,2.69,2.7,3.01.6.36,1.09.37,1.76.3-.09.55.37,1.76-.48,1.59l-5.86-3.17c-.05-.54.32-1.04-.39-1.36-1.05-.49-2.91-.67-3.93-1.14-.72-.33-.45-.65-1.39-.99Z"/><path class="cls-4" d="M242.27,136.78c-.12,1.35-2.35,2-2.17,3.25,1.85,3.4,4.18,6.48,5.93,9.95,2.82,5.56,5.47,12.31,7.65,18.18,1.63,4.39,3.07,8.82,4.43,13.31-1.99.27-4.37.3-6.01-1.12-1-.86-.87-2.43-1.58-3.4-.17-.24-1.93-1.58-2.21-1.68-2.01-.66-2.97,1.48-4.1.77s2.75-6.04-.67-6.62c.41-2.71.87-5.83,0-8.24-.18-.5.46-1.51-.63-1.27-.18,1.25-.5,2.97-.95,4.12-.15.04-.29.17-.32.32-.04.19.03.43,0,.63-.69-.04-.96.7-1.49.89-1.51.55-2.06-2.77-2.62-3.9l-.63.47c-.13-.42-.3-1.79-.96-1.1.16,1.44.7,2.87.96,4.27.19,1.03.19,2.05.32,2.85l.32.32c.97,6.59,1.34,13.35,1.9,19.96-.34-.46-.26-.8-.95-.63.03.71-.13,1.33-.95,1.27-1.02-7.98-3.2-15.46-7.12-22.51-5.63-10.12-16.34-19.02-28.36-19.32-.29-1.68-.78-3.44-1.27-5.07,1.07.05,1.47-.81,2.46-1.19,5.77-2.23,17.1-.63,23.69-1.02,4.38-.25,11.34-1.75,15.35-3.5ZM230.86,142.8c-1.29-.24-.39,2.27-.22,2.92,1.07,4.19,3.38,8.35,4.03,12.73.31.63,1.33-.5,1.22-1.14-.81-4.72-3.45-9.97-5.02-14.51Z"/><path class="cls-13" d="M236.88,309.16c-.12.82.15.93.72,1.34,2.71,1.96,8.24,3.71,11.48,5.63.95.56,1.65,1.58,2.46,1.97,1.97.95,5.54,1.55,7.91,2.54,4.15,1.74,7.58,4,10.05,7.85-.55.31-.42.8-1.83,1.18-4.95,1.33-6.71-2.16-10.1-4.61-2.39-1.73-5.27-3.11-8.02-4.17-2.28-.88-4.29-1.67-6.79-1.92l-.49,1.59c.36-.15.89.33.94.33.12.47.08.96.56,1.27,1.18.76,4.42,1.5,6.11,2.36,3.19,1.63,5.58,3.68,8.07,6.19.36.36.91,1.47,1.11,1.59-.66,2.47-5.38,2.14-7.37,1.82-3.91-.62-4.76-3.62-7.36-5.63-3.38-2.61-9.51-5.14-13.78-4.12-.09.66-.02.71.63.63l.03,1.55c4.6,1.03,9.88,3.51,12.01,7.95l1.58-.63c.09.29.27.35.32.95-6.5,4.28-15.84-.05-22.24-2.95-.39-.18-1.16-.18-1.2-.22-.04-.03.1-.48-.05-.57-2.25-1.23-9.85-6.05-10.57-8.28-.5-1.54.9-3.64,2.07-4.62,1.06-.89,2.62-.75,2.22-2.37,5.39.58,12.64-.83,17.33-3.74,1.54-.96,2.38-2.34,4.21-2.92Z"/><path class="cls-13" d="M158.32,317.09c.13.99,1.33,1,2.07,1.89.93,1.13.99,2.52.76,3.95-.06.35-.78,2.67-.93,3.03-.89,2.12-6.72,6.43-8.87,7.61-3.41,1.87-11.63,5.3-15.38,5.4-2.12.05-6.02-.69-6.48-3.18.1-.33.16-.62.32-.95l1.1.63c2.13-2.46,4.79-4.25,7.77-5.54,1.05-.45,4.16-1.18,4.73-1.61.32-.24.42-.34.34-.77-.74-.03-1.74.35-1.58-.64.34-.37.08-.42,0-.63-.07-.17.19-.61-.2-.66-3.45.44-7.13,1.74-10.15,3.46-3.52,2-5.13,5.03-8.34,7.34-3.53.31-8.03,1.79-10.14-1.9,1.58-.64,2.6-2.81,3.79-3.97,1.8-1.75,5.58-3.74,7.93-4.74.68-.29,4.5-.98,3.48-2.06-.48-.5-2.4,1.56-2.22,0,.41-.17.88-.41,1.27-.63.73-.43,1.05-.52,1.58-1.43-1.36-1.64-2.17-.08-3.63.49-2.86,1.1-5.8,2-8.5,3.54-4.22,2.4-7.27,7.28-12.73,6.91-1.43-.1-2.55-.97-3.97-.95l2.05-2.54c1.92-2.08,4.69-3.89,7.23-5.12s5.66-1.59,7.5-3.43c.74-.1,1.72-.57,2.53-.64l-.95-.94c5.17-2.81,10.68-2.46,16.34-2.53.41,0,.72-.33.77-.33,2.49-.07,5.02.91,7.48,1.23,5.03.65,10.02.47,15.01-.28Z"/><path class="cls-18" d="M264.44,218.54v.63c.31.03.64-.02.95,0,.49,2.09,2.25,3.38,3.47,5.24,3.36,5.08,4.21,8.8,6.42,14.17.22.53.86.9,1.05,1.48.41,1.27,0,3.34.46,4.77-.24,1.68-.5,3.19-1.27,4.75-1.16-.31-1.82.65-2.85.63v-.63c.3-.89.24-1.65.32-2.22l.32-.32c.03-.1-.03-.22,0-.32l.32-.32c.04-.19-.04-.44,0-.63.3-1.54.51-3.28.33-4.92-.05-.47-.07-.98-.64-1.1-.41,1.99-.36,3.99-.64,6.02-.08.56-.19,1.04-.32,1.58l-.32.95c-.03.1.03.22,0,.32l-.32.32c-.11.31-.13.54-.32.95-2.15,1.3-3.83,3.4-6.65,3.17-.06-.61.32-1.14.32-1.74,0-.55-.32-.45-.32-.48,0-1.06.36-1.35.63-2.22,0-.02.24-.09.32-.32.05-.15-.04-.44,0-.63.23-1.09.03-.67,0-1.27-.04-.7.31-.89.32-.95.03-.28,0-.3,0-.32.05-.59.27-1.18.32-1.9.06-1.04.04-2.28,0-3.33-.02-.43.26-1.32-.47-1.11-.34.1-.1,3.73-.16,4.44-.02.21.02.43,0,.63,0,.04-.25.08-.32.63-.05.4.07.88,0,1.27,0,.03-.21.14-.32.63-.04.19.04.45,0,.63-.04.15-.22.62-.32.95-.12.41-.17.87-.32,1.27-.04.11-.21.37-.32.63-.09.22-.22.42-.32.63-.07.16-.44.58-.63.95-.22.42-.41.84-.63,1.27-2.16.58-6.66,3.37-8,.23-.63-1.49,1.41-6.28,1.63-8.35.3-2.83.32-9.3-3.23-9.91-1.97,1.18-1.83,3.61-2.61,5.66-.66,1.74-3.81,8.1-4.83,2.94-1.15-5.81-.03-17.1,4.51-21.33l5.56-3.79c2.59-.21,6.34-.14,8.87.32Z"/><path class="cls-6" d="M240.37,257.2l2.37,1.59.8-1.59c.03,12.77-1.07,29.52-5.39,41.51l-.48-1.27-.46.82-.93-.17c-4.75,8.99-15,13-24.65,9.24-2.71-1.05-4.79-2.33-6.12-4.81-.63-1.17-1.04-2.57-2.06-3.48l-.63,1.58c-1.84-1.98-3.04-3.86-4.11-6.35-.8-1.87-1.86-4.7-2.39-6.64-.86-3.17-1.62-7.76-.23-10.85s6.73-4.41,9.26-6.59c.41-.36,1-.65.48-1.26.64-.36,1.33-.79,1.9-1.27,1.2-.52,2.25-1.2,3.48-1.59.2-1.21-.7-.2-1.36-.36-.5-.12-.83-.72-.85-1.22,2.02-.69,4.13-1.68,6.03-2.69.66-.35,5.46-3.57,5.69-3.33.14.6-.34.75-.63,1.11-2.91,3.51-7.87,6.95-10.45,10.46-.86,1.16-1.34,3.9-2.44,4.21-1.22.35-1.73-.52-2.47,1.02-.87,1.81.17,5.52.78,7.45.84,2.66,2.82,6.11,4.44,8.39l.95,2.69c2.38,3.25,6.07,6.33,10.32,6.19.41-.01.71-.33.77-.33.87-.05,1.81.11,2.66-.03,14.86-2.53,15.72-26.79,15.7-38.48l.02-3.95ZM213.12,264.8l.16-.94-.79.31v.63s.63,0,.63,0ZM212.17,264.8h-.63v.63h.63v-.63Z"/><path class="cls-6" d="M134.56,260.05c-1.99,3.45-3.61,4.18-3.48,8.39.34,10.87,3.21,27.43,14.57,32,5.21,2.1,6.25.32,10.76.16.03,0-.07.29.49.33,2.32.14,6.95-4.49,8.38-6.35,1.11-1.43,2.48-3.19,3.48-4.75.56.29.31,1.13.18,1.6-.82,3.04-2.7,6.19-3.37,9.34,0,1.36.82,1.05,1.88,1.14.23.85.03,1.83,1.3,1.55-3.86,3.94-8.59,7.01-14.38,6.62-3.11-.21-6.31-.45-9.22-1.86-3.08-1.49-7.92-6.97-10.29-9.67-.98-1.11-1.76-2.78-2.69-3.96-.9.95,1.31,5.2,1.11,5.38l-3.48-.63c-3.71-9.41-4.8-18.21-5.7-28.2l2.53.95c-.03,1.37.17,3.82,1.26,4.75l-.63-6.34c2.78-.11,2.02-2.78,2.62-4.82.21-.72.91-2.85,1.18-3.42.47-.98,2.3-2.44,3.48-2.22Z"/><path class="cls-7" d="M121.26,143.43c2.3-.03,4.48.56,6.51,1.59.29-.33,1.34-.9,1.41-.96.7-.02.85.42,1.21.85,2.86,3.38,5.52,9.52,7.03,13.73l-.95.32c-1.4-3.12-4.1-8.12-6.35-10.62-.65-.73-1.73-1.52-2.37-2.37-4.48,6.34-6.56,14.49-8.44,21.98-1.67,6.66-3.25,13.95-4.3,20.73-.55,3.55-1.8,10.86-1.33,14.14.49,3.45,2.9,2.38,5.17,2.76,1.49.25,4.23.76,5.58,1.23.18.96-.48.61-1.09.63-1.74.06-3.5-.04-5.24,0v1.26c.62-.25,1.28.29,1.59.33-3.91-.18-7.83.63-11.49,1.98-.96.35-2.17,1.28-2.93,1.5-.5.15-.5-.04-.47-.47,4.13-22.68,6.8-47.55,16.48-68.6Z"/><path class="cls-29" d="M245.12,334.83c.37,4.98-6.41,4.74-9.89,4.35-8.38-.94-26.23-10.44-33.1-15.69-6.27-4.79-6.21-10.09-3.57-17.18,9.16,9.74,27.54,10.99,36.97.99.35-.09,2.83.71,2.63,1.54-.3,0-.93.21-1.27.32-1.83.57-2.67,1.96-4.21,2.92-4.69,2.91-11.94,4.32-17.33,3.74-3.03-.33-10.13-2.91-8.72,2.55,1.13,4.35,10.32,11.42,14.25,13.63.6.34.85.62.81-.33.05.04.81.04,1.2.22,6.4,2.91,15.74,7.23,22.24,2.95Z"/><path class="cls-2" d="M119.04,219.49c.19.86-.46.59-.93.8-4.04,1.81-7.62,3.67-9.45,7.99-2.88,6.8-2.13,18.41,3.24,23.86.77.78,5.33,3.71,5.19,1.48-.07-1.12-1.37-3.49-1.48-4.93-.06-.7.26-.95.26-1,1.23,4.2,2.78,8.49,6.01,11.57-4.83,2.87-10.35-.86-12.83-5.22-2.06-3.63-2.22-6.59-2.78-10.53-.04-.32-.09-1.26-.54-1.2v5.55c0,.69,1.43,4.59,1.84,5.45.66,1.39,1.79,2.47,2.27,3.9-12.9-1.85-11.11-19.68-7.61-28.68.28-.72,1.26-3.16,1.59-3.64,2.51-3.61,11.06-5.31,15.21-5.39Z"/><path class="cls-29" d="M123.16,128.22c4.6,2.56,7.24,3.8,12.67,4.44,15.19,1.77,30.24-.61,45.5,1.23.67.08,1.34.04,2.02.04,0,.18-.07.42.05.57.19.23,4.71,2.8,5.33,1.96l1.9.95c-.03.2.01.43,0,.63-.05.94.03,1.91,0,2.85-.19,1.14-.08,2.49-.95,3.49,0-.07-.28-.45-.29-.81-.03-.99.52-1.71-.49-2.69-.56-.55-4-1.42-4.93-1.57v-.32c1.04.16,4.1.83,4.86.59,1.18-.38.28-1.54-.51-1.92-2.56-1.24-10.32-2.78-13.21-2.79-4.23-1.29-8.98.09-13.3.63-.51-.54-1.69-.37-2.37-.31-3.64.29-7.3.93-10.93,1.26-.74.07-1.43.25-2.22.32-.13-.49-1.16-.47-1.27,0-11.74.94-26.55,3.6-33.26-8.56,1.55.47,2.93.3,4.28-.63s1.19-2.66,3.32-1.74c.45.2,1.14,1.26,1.8,1.68.77.49,1.67.5,2.01.69Z"/><path class="cls-7" d="M133.61,52.49c-.39,1.94-2.7,3.25-3.96,4.75-8.19,9.72-6.6,27.47,3.96,34.86l-1.46,3.19c-2.01.47-7.15-1.5-8.67-.81-1.21.55-2.65,4.23-3.17,5.54-.21.52-.45,1.05-.63,1.58-.81-.05-1.4.89-2.07.95-.47.04-.95-.32-1.5-.25-1.11.13-2.5,1.5-3.71,1.52,2.28-6.84,5.21-13.45,9.18-19.49l2.35,3.68c-.02.44.56.91.82.6.3-.37-1.65-4.11-1.91-4.9-2.51-7.6-1.4-18.53,3.55-24.99,1.01-1.32,1.88-1.88,2.8-3.38,1.2-.41,2.2-1.44,3.17-2.22.12-.09.21-.23.32-.32.35-.01.64-.21.95-.32Z"/><path class="cls-17" d="M169.09,261.63c-2.66,1.44,2.13,3.59,3.18,4.58.77.72,2.41,2.5,3.15,3.34,2.3,2.62,3.41,4.24,4.11,7.79.11.58-.37,1.27.64,1.09-1.11,5.75-2.56,11.27-4.43,16.79-.8-.06-.8.52-1.11.95-2,2.77-3.45,4.83-5.86,7.29-1.27.28-1.08-.69-1.3-1.55-1.06-.09-1.88.22-1.88-1.14.67-3.15,2.55-6.3,3.37-9.34.13-.47.38-1.31-.18-1.6,2.42-3.76,4.43-9.94,4.11-14.41-.51-7.08-6.19-12.39-9.82-18.06.32-.53.7.11.95.31,1.51,1.23,3.46,2.97,5.07,3.96Z"/><path class="cls-29" d="M168.78,303.46c2.41-2.46,3.86-4.52,5.86-7.29.31-.43.31-1.01,1.11-.95-3.81,11.24-7.9,18.32-21.07,19.33s-20.09-3.1-24.86-15.21l3.48.63c.21-.19-2.01-4.43-1.11-5.38.93,1.18,1.72,2.85,2.69,3.96,2.37,2.7,7.21,8.18,10.29,9.67,2.92,1.41,6.11,1.66,9.22,1.86,5.79.38,10.52-2.68,14.38-6.62Z"/><path class="cls-2" d="M255.57,218.22l-5.56,3.79c-4.54,4.24-5.66,15.52-4.51,21.33,1.02,5.15,4.17-1.21,4.83-2.94.78-2.04.64-4.48,2.61-5.66,3.55.61,3.53,7.07,3.23,9.91-.22,2.07-2.26,6.86-1.63,8.35,1.34,3.13,5.84.35,8-.23-.04.08.04.24,0,.32-.04.07-.29.14-.32.32v.32l-.32.32c.02.1-.03.22,0,.32-2.47,2.22-4.52,4.95-8.32,4.36-3.21-.49-3.43-3.7-3.06-6.4.27-1.92,1.98-3.6,2.2-5.41.39-3.22-.64-6.72-.33-9.99-.48-.05-.5.77-.6,1.13-.94,3.27-1.29,10.75-6.19,10.6-3.08-.09-3.03-3.64-3.62-5.91l.45-18.48c1.13-3.33,9.95-5.78,13.13-6.04Z"/><path class="cls-29" d="M165.61,327.23c-1.47.65-2.66.87-4.12,0,.37-.56.6-1.31.95-1.9,1.31-2.17,4.02-5.12,2.93-7.84s-5.06-.7-7.04-.4c-4.99.75-9.98.93-15.01.28-2.47-.32-4.99-1.3-7.48-1.23-.2-.65-.81-.59-1.32-.74-3.6-1.03-6.88-.94-10.4-.53l9.03-5.71c1.6,1.01,2.87,2.44,4.49,3.43,9.89,6,25.65,4.31,33.52-4.37,2.64,4.69,2.58,10.96-.95,15.21-.88,1.06-3.43,3.28-4.6,3.8Z"/><path class="cls-6" d="M119.68,101.61c-1.46,4.31-3.28,12.16-2.04,16.46,1,3.49,3.18,7.41,5.53,10.16-.34-.19-1.24-.2-2.01-.69-.65-.42-1.35-1.49-1.8-1.68-2.13-.93-1.98.81-3.32,1.74s-2.73,1.11-4.28.63c-4.24-7.68-1.98-16.55.63-24.4,1.21-.02,2.6-1.39,3.71-1.52.55-.06,1.03.29,1.5.25.67-.06,1.25-1,2.07-.95Z"/><path class="cls-13" d="M224.53,48.05c9.72,1.44,16.82,9.8,17.7,19.53.3,3.28-.4,6.74.36,9.94-.28.97-1.54,4.54-2.24,4.94-.38.22-.55-.18-.61-.19-1.3-1.45-2.98-2.68-4.75-3.49.14-.49.69.09.97-.18,1.39-1.38,1.51-2.38,2.2-3.94,2.11-4.79,3.09-6.65,1.58-12.36-.06-.25-.01-.52-.32-.63-.01-.1.02-.22,0-.32-.94-5.12-7.38-10.45-12.34-11.58s-8.28-.5-12.37,2.07c-5.13,3.22-7.37,7.17-7.6,13.31-.18.18-2.39-.82-2.85-.95-.37-1.71-1.96-2.34-1.91-4.26.03-1.57,1.56-4.95,2.55-6.2.8-1.01,3.04-2.75,4.15-3.62.82-.65,2.51-.94.92-1.77.21-.08.45-.28.63-.32l.16.31.16-.31c.09,0,.23-.02.32,0,.15.03.32-.02.47,0l.16.63-.79.96c4.16-1.76,9.01-2.25,13.46-1.59Z"/><path class="cls-18" d="M271.41,219.17c-3.16-1.56-6.14-2.46-9.67-2.85-3.8-.42-6.23.17-9.82.31-1.46.06-2.68.4-3.59-.84-1.92-2.6,1.02-3.42,1.85-5.5,7.22-1.85,23.58-2.62,21.22,8.87Z"/><path class="cls-9" d="M238.15,298.71c-1.36,3.78-3.38,8.48-6.87,10.71-5.47,3.5-13.54,3.85-19.74,2.6.09-.68-.18-.99-.62-1.44-1.12-1.14-3.47-3.06-4.79-4.08-1.84-1.43-3.04-.88-2.2-4.3l1.58.32c1.33,2.49,3.41,3.76,6.12,4.81,9.65,3.76,19.9-.25,24.65-9.24l.93.17.46-.82.48,1.27Z"/><path class="cls-29" d="M145.65,173.54c-2.56,11.52-4.61,27.2-4.43,38.98-1.54.09-.87,2.57-.95,3.65-.06.9-.78.33-1.27.47-.37-.83-1.5-1.75-1.54-2.67s.56-2.41.6-3.49c.47-10.76,2-19.62,3.15-30.12.15-1.33-.21-3.05,0-4.27l.32-.32c.11-.19.2-.5.32-.63.86-1,1.38-1.41,2.22-2.85.67.33.72,1.33,1.58,1.27Z"/><path class="cls-29" d="M196.34,287.62c.52,1.94,1.58,4.77,2.39,6.64,1.07,2.49,2.27,4.37,4.11,6.35l.63-1.58c1.02.91,1.43,2.31,2.06,3.48l-1.58-.32c-.85,3.41.36,2.87,2.2,4.3,1.31,1.02,3.67,2.95,4.79,4.08.44.45.7.76.62,1.44-.1-.02-.22.02-.32,0l-.32-.32c-14.52-3.62-17.25-17.14-20.27-30.1,2.68.9,2.71,5.58,5.7,6.02Z"/><path class="cls-7" d="M204.89,133.93c-.2.12-.67.12-1.05.36-1.32.85-2.3,2.01-3.72,2.7l.31,2.82c.58.4,3.17-.35,4.14-.49,2.12-.33,4.2-.74,6.34-.95,6.77-.68,13.65.1,20.43-.64,2.09-.23,6.64-.91,8.5-1.58.42-.15.15-.44.21-.64l3.27-.34c.34.07.35.71.53.97-.78-.23-1.2.47-1.58.63-4.01,1.75-10.97,3.24-15.35,3.5-6.59.38-17.93-1.21-23.69,1.02-.98.38-1.39,1.24-2.46,1.19-.15-.51-.78-1.04-.92-2.09-.2-1.5.24-3.55-.03-4.88.78-.52,1.36-.86,2.22-1.27,3.28-1.58,6.27-3.71,9.83-4.9,3.8-1.27,8.09-1.92,12.02-2.71,1.37-.27,9.11-1.31,9.51-1.59.08-.05-.07-.55,0-.63.66-.79,11.78-2.72,13.47-4.43.24.33-.46.74-.69.89-3.48,2.28-10.24,4.3-14.36,5.28-10.81,2.58-16.78,1.65-26.93,7.76Z"/><path class="cls-16" d="M136.47,211.88c-.67.07-1.16.06-1.76-.3-.53-.32-2.8-2.43-2.7-3.01.35-.35.78-.36,1.12-.82,1.83-2.41,1.42-8.97,1.79-12.16.76-6.53,4.07-16.36,3.11-22.52-.2-1.31-1.59-3.49-1.99-5.3-.37-1.68-1.42-5.76.74-6.29-.42,1.92,1.22,3.08,1.27,4.86l.63-.43c.23.85.77,1.94.95,2.85,1.96,10.03-1.44,21.34-2.53,31.54-.4,3.79-.08,8.21-.64,11.56Z"/><path class="cls-29" d="M243.54,169.42c-.49,3.31-1.11,3.86-.6,7.73.82,6.15,2.81,12.51,3.76,18.89-1.65.66-2.02,2.69-4.1,2.88.43,1.59.21,3.14.3,4.73l-.95-.32c-.13-5.25-.47-10.78-.95-16-.19-2.07-2.17-14.72-1.74-15.37.12-.18.58-.22.7-.4.09-.14,1.08-2.48,1.36-3.08,1.05-2.29,2.15-4.7,2.22-7.29.87,2.41.41,5.52,0,8.24Z"/><path class="cls-15" d="M243.85,136.15c5.19,7.46,8.39,18.93,11.09,27.57-2.15,1.13,1.65,4.45-1.27,4.44-2.18-5.87-4.83-12.62-7.65-18.18-1.75-3.46-4.08-6.55-5.93-9.95-.18-1.25,2.06-1.9,2.17-3.25.39-.17.8-.86,1.58-.63Z"/><path class="cls-14" d="M196.34,231.53l-1.58.95c1.32.35,1.97.84,1.59,2.32-.07.27-2.5,1.53.31,2.44,0,.53.02,1.06,0,1.58s.02,1.06,0,1.58c-.14,4.15-.63,8.24-.95,12.36l-2.85,1.11c0,.11,1.72.77,2.02.85.71.2.29.44.84-.38-.15,1.72-.15,3.78-.32,5.39-.1.99-.18,2.28-.32,3.17-.02.12-.24.51-.32.95-.23,1.3-.63,3.67-.97,4.83-.04.12-1.37,1.63-1.42,2.14-.28.43-.81.22-1.1.32l-.32.32c-.32.05-2.22.09-2.22-.16,1.23-3.25,2.24-6.82,2.54-10.29.03-.31-.01-.64,0-.95.02-.53-.01-1.06,0-1.58.11.01.25-.03.32,0,.08.04.14.6.76.61.22,0,1.67-.17,1.46-.78-.14-1.1-1.31-1.21-2.23-1.1h-.32l.32-1.58h.32c.03.25-.14.65.16.64l2.05-.64-2.22-.95c-.01-.52-.02-1.06,0-1.58,2.71.35,3.18-1.43.32-1.9.24-4.01.46-8.03.63-12.04l2.22-.64c-.2-1.43-2.19-1.22-1.55-3.14l.94-.19v-2.15s-1.29-.53-1.29-.53c0-.21,0-.42,0-.63.86.37,1.59-.55,1.9-.63s1.12-.09,1.27.32Z"/><path class="cls-7" d="M253.99,121.57c-2.97,3.54-6.91,6.28-11.09,8.24-1.84.86-3.8,1.51-5.7,2.22-1.49.21-1.69.95-1.8.96-.6.1-2.61-.36-3.74-.32s-2.5.26-3.82.31c-.61.02-1.27-.32-1.09.64-.63-.04-1.27.02-1.9,0v.63c-1.97-.11-4.35-.09-6.33,0l-.16-.64h-.79s0,.64,0,.64c-2.74.15-7.37.6-9.95,1.3-1.54.42-3.38,1.76-5.25,1.55-.43-.4,2.39-2.33,2.85-2.53,7.2-3.2,18.24-2.55,26.05-3.89,7.22-1.24,14.11-3.98,20.18-8.02.73-.48,1.48-2.13,2.55-1.09Z"/><path class="cls-15" d="M228.65,75.62c-.17.77.39.66.83.89,3.2,1.72,6.79,3.82,9.62,6.08,8.47,6.77,21.21,22.61,17.74,33.91.2-1.29-.3-.95-1.27-.95-.51-1.62.69-3.26.65-4.58-.04-1.55-1.43-2.74-1.29-4.29l-1.26.32c-.76-10.04-9.3-17.73-18.06-21.55l.16-.63,1.89.64v-.64c-3.5-2.05-6.55-4.8-9.97-6.96l-.32-2.54c.35.15.87.2,1.27.32Z"/><path class="cls-6" d="M246.7,196.04c.12.79.5,5.14.68,5.34.09.1.69.04,1.04.37.32.29.5.89.95,1.28,3.88,3.34,8.56,2.3,13.16,3.79.27.09.75.23.95.32.41.17,1.53.79,1.27,1.27-5.27-.23-9.65-.8-14.89.63-1.86-.75-4.19.25-5.87-.94-1.54-1.1-1.01-2.85-1.1-4.44s.13-3.14-.3-4.73c2.08-.19,2.45-2.22,4.1-2.88Z"/><path class="cls-7" d="M183.98,139.32c.92.15,4.36,1.02,4.93,1.57,1.01.98.46,1.7.49,2.69.01.36.29.74.29.81-.07,1.13-.84,2.64-.95,3.49h-.32c.11-4.8.34-6.36-4.68-7.2-7.9-1.32-15.43.62-23.2,1.5-5.21.59-10.43.76-15.69.65-.74-.02-2.13-.55-2.68-.33l-.32-1.58c.84-.04,2.69.23,2.53-.95,6.36.76,12.37.2,18.69-.32,7.28-.59,13.5-1.51,20.91-.32Z"/><path class="cls-17" d="M237.52,189.38c.82.06.98-.56.95-1.27.69-.16.61.18.95.63,1.16,13.77,1.47,27.64,1.58,41.51-1.24-.24-1.37.87-2.22.95-.05-.84-.32-2.22-.32-2.69v-5.7c0-.11.33-.49.33-.94,0-.79-.28-3.26-1.28-3.02,1.24-9.69,1.23-19.81,0-29.47Z"/><path class="cls-16" d="M266.98,207.76c-1.37.43-2.4-1.65-3.48-.63-.2-.08-.68-.23-.95-.32-.97-1.62.62-1.89.89-2.76.85-2.83-4.16-18.79-5.32-22.59-1.37-4.48-2.8-8.91-4.43-13.31,2.92,0-.88-3.3,1.27-4.44,1.37,4.4,2.78,8.78,4.03,13.24,2.61,9.34,6.52,21.47,8.01,30.81Z"/><path class="cls-2" d="M113.02,210.93c-1.17,1.42-3.59,3.18-3.47,5.21.15,2.58,4.48,1.14,6.15,1.12,3.78-.06,7.63.18,11.24,1.3v.91c-.19.08-.49-.03-.61.02-.76-.73-2.58-.89-3.63-.96-6.73-.45-14.57.81-19.49,5.72-1.51-1.72-1.68-5.01-.87-7.05,1.41-3.55,7.19-5.58,10.69-6.26Z"/><path class="cls-9" d="M196.34,287.62c-2.99-.44-3.02-5.12-5.7-6.02-.65-2.8-1.83-5.6-1.57-8.54.8-.03,1.55-.3,2.35-.35,2.34-.15,3.77-.12,5.87-.62s3.64-1.03,5.7-1.9c.98-.41,1.92-.75,2.85-1.27.51.61-.07.9-.48,1.26-2.52,2.18-7.81,3.36-9.26,6.59s-.62,7.68.23,10.85Z"/><path class="cls-17" d="M183.98,139c-2.77-.42-5.58-1.12-8.4-1.26-4.02-.21-8,.41-12,.62-.39.04-.12.51-.19.65-2,.04-4.02-.05-6.02,0l-.32.32c-.21,0-.42,0-.63,0l-.16-.31-.16.31c-.49,0-1.13.07-1.58,0-.25-.04-.75-.53-1.27-.32-.08-.44.02-.52.34-.77.28-.22,4.52-1.22,5.29-1.37,5.03-.97,11.22-2,16.23-1.98,2.89,0,10.65,1.55,13.21,2.79.79.38,1.69,1.54.51,1.92-.76.24-3.82-.43-4.86-.59Z"/><path class="cls-2" d="M250.19,210.3c-.83,2.07-3.77,2.9-1.85,5.5.91,1.23,2.13.9,3.59.84,3.58-.14,6.02-.73,9.82-.31,3.53.39,6.51,1.29,9.67,2.85-.08.37.29,1.57-.47,1.26-.62-.25-1.65-1.21-2.54-1.58-7.53-3.23-19.93-1.75-26.14,3.81l-.25-8.81c2.6-1.53,5.23-2.8,8.17-3.55Z"/><path class="cls-7" d="M189.05,266.07c-.39,1.53-.29,3.74-1.58,5.07-1.7.21-3.66.16-5.39,0-.21-.02-.46.04-.63,0-.03,0-.5-.25-.63-.32-1.63-.81-3.78-2.35-5.51-3.21-.17-.08-1.25-.54-1.14.04.84-.1,1.29,1.09,1.58,1.27l-.32.63c-.74-.84-2.38-2.62-3.15-3.34-1.06-.99-5.84-3.13-3.18-4.58,5.72,3.53,13.26,5.66,19.96,4.44Z"/><path class="cls-29" d="M156.42,333.25v.32c-6.8,4.06-14.97,8.89-23.25,7.89-2.22-.27-4.08-1.25-4.23-3.69-.06-.96.33-1.28.55-1.98.46,2.49,4.35,3.23,6.48,3.18,3.75-.1,11.97-3.53,15.38-5.4,1.5,2.04,3.35-1.32,5.07-.32Z"/><path class="cls-29" d="M259.06,332.3c.14.09.92.02,1.24.29l.03-.61h.32c.49,6.2-10.63,5.79-14.57,5.07.72-1.88-.46-4.57-1.73-6.02-.23-.26-.87-1.04-1.12-.31-.1-.12-.47-.48-.63-.63.67-1.47-.54-1.21-1.16-1.7-2.43-1.91-5.09-3.17-8.28-3.61-.51-.07-1.33-.34-1.65.23h-.32c-.65.08-.72.03-.63-.63,4.27-1.02,10.4,1.51,13.78,4.12,2.61,2.01,3.45,5.01,7.36,5.63,1.99.31,6.71.64,7.37-1.82Z"/><path class="cls-9" d="M144.38,139.95c.15,1.18-1.69.91-2.53.95-4.11.21-9.13-.47-12.35,2.54-.13.12-.19.5-.32.63-.06.06-1.12.63-1.41.96-2.03-1.03-4.21-1.62-6.51-1.59.68-1.47,1.5-2.81,1.77-4.45,3.16.01,6.33.04,9.49.03,4.86-.01,7.17.38,11.87.94Z"/><path class="cls-29" d="M100.35,331.66c1.41-.02,2.53.85,3.97.95,5.46.37,8.51-4.51,12.73-6.91,2.7-1.54,5.64-2.44,8.5-3.54,1.47-.57,2.27-2.13,3.63-.49-.53.91-.85,1-1.58,1.43-.31-.61-1.06-.22-1.52-.1-5.85,1.57-12.02,4.81-14.32,10.55-.24.6-.98,1.12-.63,2.22-3.12.19-10.75.08-11.09-4.12h.32Z"/><path class="cls-25" d="M264.44,218.54c.28.05.64-.05.95,0,.05.2-.04.45,0,.63,5.09.41,6.38,3.04,8.29,7.39,2.05,4.66,3.88,12.55,3.44,17.51-.04.42-.32.68-.33.77-.45-1.43-.05-3.5-.46-4.77-.19-.58-.83-.95-1.05-1.48-2.21-5.38-3.06-9.1-6.42-14.17-1.23-1.86-2.99-3.15-3.47-5.24-.31-.03-.64.03-.95,0v-.63Z"/><path class="cls-16" d="M238.15,308.85c.43,0,.85-.06,1.24.18,4.43,2.76,9.57,4.5,13.65,7.74l-1.58.32c.65-.04,1.28,0,1.92.14,4.67,1.08,16.94,5.59,17.09,11.27-.25.06-.81-.08-.95,0-2.47-3.85-5.9-6.11-10.05-7.85-2.37-.99-5.94-1.59-7.91-2.54-.81-.39-1.51-1.41-2.46-1.97-3.24-1.92-8.77-3.67-11.48-5.63-.57-.41-.84-.52-.72-1.34.33-.1.97-.31,1.27-.32Z"/><path class="cls-7" d="M241,230.26c.04,4.71-1.22,12.63.57,16.7.49,1.11,1.81,2.05,1.95,2.8.33,1.76,0,5.42,0,7.44l-.8,1.59-2.37-1.59c-.37-8.71-1.12-17.35-1.58-25.98.84-.08.98-1.19,2.22-.95Z"/><path class="cls-9" d="M129.5,261.63c.69.03,1.07.19,1.58.63-.27.57-.97,2.69-1.18,3.42-.6,2.05.16,4.71-2.62,4.82-.02,0-.1-.35-.31-.32-.2.65-.31,1.21-.32,1.9l-2.53-.95c-.09-1.03-.56-2.55-.63-3.65-.13-2,.31-4.09-.32-6.01l.64-.34c1.87,1.31,3.91.43,5.69.49Z"/><path class="cls-7" d="M199.82,262.58l-.63,3.8c.72.68,8.48-1.44,9.82-1.9.02.5.36,1.11.85,1.22.67.16,1.57-.86,1.36.36-1.23.39-2.28,1.06-3.48,1.59-1.4.61-3.33,1.42-4.75,1.9-.17.06-.47-.06-.63,0l-.32.32c-1.39.45-3.34,1.09-4.75,1.27-.31.04-.64-.03-.95,0-.05,0-.79,0-.95,0-.53,0-1.06,0-1.58,0v-.32c.36-1.67.9-2.76,1.27-4.44h.32l3.13-.04.68-3.76c.21,0,.42.01.63,0Z"/><path class="cls-6" d="M145.65,173.54c-.87.07-.91-.94-1.58-1.27.04-.08-.04-.23,0-.32.12-.08.27-.19.32-.32.86-2.23,2.02-5.42,2.21-7.77.03-.35.23-1.18-.31-1.1-.89,3.31-1.61,7.61-3.74,10.36-.42.54-.48.86-1.33.73-.07-.49.09-1.12,0-1.58l-.32-.63c-.2-.97-.44-1.89-.63-2.85-.42-2.03-.86-4-1.27-6.02.78.92,2.52,6.21,4.4,5.03.97-.61,3.09-10.8,3.68-11.05l.78.63.63-2.53c-.54,3.84-.38,8.04-.98,11.85-.36,2.29-1.38,4.65-1.87,6.84Z"/><path class="cls-2" d="M116.51,243.57c1.01-.18.52.51.64,1.09.58,2.9,1.42,6.13,3.22,8.52,2.26,3,7.34,4.76,9.61.85h.46s1.59,1.58,1.59,1.58c-.02,3.61-2.71,5.2-6.15,4.72-3.21-.44-5.98-4.89-7.21-7.68-1.31-2.99-1.9-5.84-2.16-9.09Z"/><path class="cls-9" d="M113.34,334.52c2.11,3.69,6.61,2.21,10.14,1.9.04,0,.28.33.74.31,1.19-.04,2.48-1.02,3.22-1.9.69-.12.43.18.47.63.13,1.33-.06,2.75-.03,4.09-3.46,1.18-14.43,1.17-15.74-3.05-.09-.3-.16-1.54-.07-1.67h.63s0-1.27,0-1.27h.31c-.04.38.15.64.32.95Z"/><path class="cls-15" d="M242.59,77.52c-.76-3.21-.06-6.67-.36-9.94-.88-9.73-7.98-18.09-17.7-19.53l-.05-.89-1.22-.69c15.48,2.08,23.54,16.3,19.32,31.05Z"/><path class="cls-6" d="M141.22,212.52c.11,7.51,1.51,14.94,1.91,22.33.05.89.39,2.08-.96,1.75-.42-2.13-1.54-4.86-2.22-6.97l-.32-.63c-.22-.65-.53-1.28-.61-1.51-1.17-3.58.31-3.32.61-6.25.15-1.48-.02-3.24-.63-4.6.49-.13,1.21.44,1.27-.47.07-1.08-.6-3.56.95-3.65Z"/><path class="cls-29" d="M134.56,260.05c-1.18-.22-3.02,1.24-3.48,2.22-.51-.45-.89-.61-1.58-.63,5.49-2.55,3.98-6.97,2.85-11.72.24-.26,2.2,1.08,2.76,1.19,3.03.63,4.35-1.05,6.11-3.1-1.34,3.19-4.74,8.72-6.65,12.04Z"/><path class="cls-29" d="M269.51,328.49c.14-.08.7.06.95,0,.04,1.68-.58,2.21-1.94,2.97-1.14.64-6.43,2.11-7.1,1.16-.05-2.46-.79-2.67-2.05-4.13-2.03-2.35-7.12-5.98-10.14-6.97l.32-.63c2.75,1.06,5.63,2.44,8.02,4.17,3.39,2.45,5.15,5.94,10.1,4.61,1.41-.38,1.28-.86,1.83-1.18Z"/><path class="cls-2" d="M140.27,246.74c-1.17,2.71-2.68,4.3-5.83,2.82-5.3-2.49-2.05-8.85-4.31-12.96.03-.29-.14-.89.47-.63,2.2.94,1.11,10.24,6.38,10.75,1.23.12,2.2-.6,3.29.02Z"/><path class="cls-29" d="M204.89,53.76c-.99,1.25-2.51,4.62-2.55,6.2-.04,1.92,1.55,2.56,1.91,4.26-1.48-.43-2.99-.62-4.43-.95-1.14-.26-1.48-1.02-2.54-1.44.87-2.6,2.53-4.66,4.13-6.72.24-.31.22-.94.31-1.04.23-.27,1.17-.6,1.9-1.58l.63-.32.63,1.58Z"/><path class="cls-6" d="M175.11,134.88c-5.01-.01-11.2,1.01-16.23,1.98-.76.15-5.01,1.15-5.29,1.37-.32.25-.42.33-.34.77.51-.21,1.02.28,1.27.32l-10.86-.7-.54-.56c1.59-.56,3.21-.44,4.75-.64,4.65-.61,9.28-1.32,13.94-1.9,4.32-.54,9.07-1.93,13.3-.63Z"/><path class="cls-6" d="M244.8,130.44l.32,1.58c-.62,1.55-3.16,2.38-4.75,2.85-2.74.81-6.32,1.3-9.19,1.58-1.63-.29-1.03-.8-1.56-1.44-.44-.54-3.78-.72-4.78-.78v-.63c.63.02,1.27-.04,1.9,0,5.31.34,12.7,1.01,16.79-2.85.08-.08.51-.08.63-.32.21-.02.43.03.63,0Z"/><path class="cls-2" d="M271.41,249.91c-2.39,5.39-5.62,8.83-12.04,8.24l2.85-3.48.32-.63c.11-.02.25.04.32,0,.67-.38,1.03-2.7,1.9-3.17,0,.03.32-.07.32.48,0,.6-.38,1.13-.32,1.74,2.82.23,4.5-1.86,6.65-3.17Z"/><path class="cls-6" d="M135.83,316.14s-.36.32-.77.33c-5.66.07-11.17-.29-16.34,2.53l.95.94c-.81.07-1.79.53-2.53.64-.68.1-1.56-.12-2.22,0,1.69-1.32,7.33-5.49,9.19-5.7,3.52-.41,6.8-.5,10.4.53.51.15,1.13.09,1.32.74Z"/><path class="cls-16" d="M126.33,323.74c-.19,1.56,1.74-.5,2.22,0,1.02,1.07-2.81,1.77-3.48,2.06-2.35,1-6.13,2.99-7.93,4.74-1.19,1.16-2.21,3.33-3.79,3.97-.17-.3-.36-.57-.32-.95h-.31s0,1.27,0,1.27h-.63c-.09-.5.2-.87.32-1.27,1.54-5.09,9.44-7.93,13.94-9.82ZM113.18,332.93v.32c.21-.11.21-.21,0-.32Z"/><path class="cls-16" d="M243.22,320.89c.29.02.74-.31,1.08-.33.25.84.8.5,1.77.65,4.48,1.95,9.73,4.09,12.99,7.92.14.17.46.69.63.95l.63,1.9-.03.61c-.32-.27-1.1-.21-1.24-.29-.19-.12-.74-1.22-1.11-1.59-2.49-2.51-4.88-4.56-8.07-6.19-1.69-.86-4.93-1.6-6.11-2.36-.48-.31-.43-.8-.56-1.27Z"/><path class="cls-28" d="M240.37,134.88c-.08.21-.25.42-.32.63-.06.2.21.49-.21.64-1.86.67-6.41,1.35-8.5,1.58-6.78.74-13.66-.04-20.43.64v-.63c.76-.11,2.46-.63,3.01-.63h10.14c2.02,0,5-.42,7.13-.63,2.87-.29,6.45-.78,9.19-1.58Z"/><path class="cls-16" d="M114.92,320.57c.66-.12,1.53.1,2.22,0-1.84,1.84-5.04,2.24-7.5,3.43s-5.32,3.04-7.23,5.12l-2.05,2.54h-.32c-.13-1.56.15-2.06,1.01-3.27,2.36-3.37,9.89-7.11,13.88-7.82Z"/><path class="cls-16" d="M242.59,330.08c.16.16.54.51.63.63.62.77,1.29,2.2,1.58,3.17l-1.58.63c-2.13-4.44-7.41-6.92-12.01-7.95l-.03-1.55h.32c3.55.66,8.47,2.53,11.09,5.07Z"/><path class="cls-7" d="M123.48,336.42c3.21-2.31,4.82-5.34,8.34-7.34,3.03-1.72,6.71-3.02,10.15-3.46.39.05.13.49.2.66-1.69.5-3.4.8-5.06,1.43-.87.33-3.2,1.26-3.17,2.05-3.1.36-4.27,3.61-6.02,5.7-.04-.45.21-.75-.47-.63-.74.88-2.04,1.86-3.22,1.9-.46.02-.7-.32-.74-.31Z"/><path class="cls-16" d="M142.17,326.91c-.15.99.85.6,1.58.64.08.43-.01.53-.34.77-.57.43-3.68,1.16-4.73,1.61-2.98,1.29-5.64,3.07-7.77,5.54l-1.1-.63c.76-1.61,2.63-3.79,4.12-4.75.92-.6,7.84-3.47,8.24-3.17Z"/><path class="cls-6" d="M162.44,325.33c-.35.59-.58,1.34-.95,1.9-.95,1.44-2.05,2.8-3.17,4.12-1.25.05-1.19.05-.95.95.05.17-.03.43,0,.63-.23.14-.46.21-.63.32h-.32c-1.71-1-3.57,2.36-5.07.32,2.15-1.17,7.98-5.48,8.87-7.61l2.22-.63Z"/><path class="cls-27" d="M126.33,219.49c-1.59.65-5.21-.04-7.29,0-4.15.08-12.7,1.77-15.21,5.39-.19-.23-.44-.41-.63-.63,4.92-4.91,12.77-6.17,19.49-5.72,1.05.07,2.87.23,3.63.96Z"/><path class="cls-9" d="M242.9,203.64c.09,1.59-.44,3.34,1.1,4.44,1.67,1.19,4.01.2,5.87.94-2.82.77-5.2,2.41-7.92,3.17-.06-2.95.07-5.92,0-8.87l.95.32Z"/><path class="cls-16" d="M222.63,46.15l.32.32c.1.01.21-.01.32,0l1.22.69.05.89c-4.45-.66-9.3-.17-13.46,1.59l.79-.96-.16-.63c-.15-.02-.32.03-.47,0,3.21-1.72,7.78-2.2,11.4-1.9Z"/><path class="cls-29" d="M180.5,271.14c.14.07.3.41.63.32-.43,1.95-.52,4.75-.95,6.97-1.01.18-.53-.51-.64-1.09-.7-3.55-1.81-5.16-4.11-7.79l.32-.63c.99.62,3.48,1.6,4.75,2.22Z"/><path class="cls-9" d="M243.54,130.44v.32c-4.09,3.86-11.48,3.19-16.79,2.85-.18-.96.48-.61,1.09-.64,1.32-.05,2.65-.27,3.82-.31s3.14.42,3.74.32c.11-.02.31-.76,1.8-.96,2.7-.38,3.3-.86,5.7-1.58.17-.05.45.05.63,0Z"/><path class="cls-27" d="M183.98,139v.32c-7.41-1.19-13.62-.28-20.91.32.11-.21.21-.42.32-.63.07-.14-.2-.61.19-.65,4-.21,7.98-.82,12-.62,2.82.15,5.62.84,8.4,1.26Z"/><path class="cls-17" d="M124.43,206.81c.94.33.67.65,1.39.99,1.01.47,2.88.65,3.93,1.14.71.33.34.82.39,1.36-2.75-.63-5.43-.99-8.24-1.27-.13-.49-1.16-.47-1.27,0-.31-.02-.65.04-.95,0s-.97-.57-1.58-.33v-1.26c1.74-.05,3.49.06,5.24,0,.61-.02,1.27.32,1.09-.63Z"/><path class="cls-7" d="M236.88,162.45l.63-.47c.56,1.12,1.11,4.45,2.62,3.9.53-.19.8-.93,1.49-.89-.14.84-.62,2.78-.95,3.49-.12.26-1.87,2.96-2.22,2.53,0-1.82-.55-3.62-.95-5.39-.22-.98-.35-2.24-.63-3.17Z"/><path class="cls-28" d="M127.6,323.11c-.39.23-.86.46-1.27.63-4.49,1.89-12.4,4.73-13.94,9.82h-.63c2.3-5.75,8.47-8.98,14.32-10.55.46-.12,1.21-.51,1.52.1Z"/><path class="cls-13" d="M199.19,262.58l-.68,3.76-3.13.04v-1.58c.02-.07.25-.29.32-.63.08-.43.25-.84.32-1.27.02-.1-.01-.21,0-.32,1-.84,2.46.02,3.17,0Z"/><path class="cls-9" d="M165.61,327.23c-2.3,2.5-5.41,3.97-8.24,5.7-.03-.2.05-.46,0-.63.52-.16.66-.61.95-.95,1.11-1.32,2.22-2.68,3.17-4.12,1.46.87,2.65.65,4.12,0Z"/><path class="cls-27" d="M229.6,75.62c.1.03.22-.03.32,0,1.14.34,2.99,1.5,3.65,2.55.54,0,.75-.39,1.1-.65l.32,1.27c1.77.81,3.45,2.03,4.75,3.49-.25-.01-.66-.01-.63.32-2.83-2.26-6.42-4.36-9.62-6.08-.44-.24-1-.13-.83-.89.26.07.7-.08.95,0Z"/><path class="cls-28" d="M249.24,321.52c3.02.99,8.11,4.62,10.14,6.97l-.32.63c-3.26-3.83-8.51-5.97-12.99-7.92.88.14,2.32.04,3.17.32Z"/><path class="cls-2" d="M272.68,249.59v.63c1.03.02,1.69-.94,2.85-.63-1.13,2.33-3.39,4.54-5.86,5.39l3.01-5.39Z"/><path class="cls-6" d="M209.96,48.37c1.58.83-.1,1.13-.92,1.77-1.1.87-3.34,2.6-4.15,3.62l-.63-1.58v-.32c1.96-1.31,3.42-2.67,5.7-3.49Z"/><path class="cls-22" d="M144.38,171.64c-.11.09-.25.19-.32.32-.04.09.04.24,0,.32-.84,1.44-1.36,1.85-2.22,2.85-.79-.34-.55-.65-.63-1.27.86.13.91-.18,1.33-.73,2.13-2.76,2.85-7.05,3.74-10.36.54-.08.34.75.31,1.1-.19,2.35-1.35,5.54-2.21,7.77Z"/><path class="cls-22" d="M137.42,158.65c.22.62.41,1.28.63,1.9.16.45.09.97.63,1.27.03.09-.02.21,0,.32.03.14.18.26.32.32.02.1-.02.22,0,.32.41,2.02.85,3.99,1.27,6.02h-.63c-.18-.91-.72-2-.95-2.85-.67-2.47-1.14-4.56-2.22-6.97l.95-.32Z"/><path class="cls-19" d="M161.81,135.51c-4.66.58-9.29,1.29-13.94,1.9.39-.24.74-.42.63-.95,3.63-.33,7.29-.97,10.93-1.26.68-.05,1.86-.23,2.37.31Z"/><path class="cls-28" d="M241.95,164.03c.45-1.15.77-2.87.95-4.12,1.1-.24.45.77.63,1.27-.07,2.59-1.16,4.99-2.22,7.29h-.63c.33-.71.81-2.65.95-3.49.03-.2-.04-.44,0-.63.12-.08.27-.19.32-.32Z"/><path class="cls-2" d="M138.05,221.07c-.07,1.15-.03,1.49-.63,2.54-.61.53-.72-.03-1.1-.31-1.01-.75-1.98-1.93-3.33-1.9.07-.15-.19-.58.2-.66,1.75.25,3.09.99,4.87.34Z"/><path class="cls-22" d="M142.17,326.91c-.4-.3-7.32,2.57-8.24,3.17v-.32c-.03-.79,2.31-1.72,3.17-2.05,1.66-.64,3.37-.93,5.06-1.43.08.22.34.26,0,.63Z"/><path class="cls-24" d="M273.63,245.79h-.95c.27-2.03.23-4.03.64-6.02.58.12.59.62.64,1.1.18,1.64-.03,3.38-.33,4.92Z"/><path class="cls-28" d="M202.99,269.55v.63c-2.06.87-3.53,1.38-5.7,1.9v-.95c1.41-.18,3.36-.82,4.75-1.27.11-.04.22-.28.32-.32.17-.06.47.06.63,0Z"/><path class="cls-24" d="M137.42,223.61c-.23.41-.61.65-.95.95-.69-.89-2.67-2.26-3.8-2.54-.13-.36.27-.51.32-.63,1.35-.03,2.32,1.15,3.33,1.9.38.28.49.84,1.1.31Z"/><path class="cls-28" d="M190.95,256.56c.04.41-.03.85,0,1.27l.31-.63h.32v1.27c-.07-.03-.2.01-.32,0-.21-.02-.42,0-.63,0v1.38s.63.2.63.2c-.01.31.03.64,0,.95l-.92.03-.35,1.24c.04-.73-.03-1.48,0-2.22,0-.11,0-.21,0-.32.29-.51.63-2,.63-2.54,0-.21,0-.42,0-.63h.32Z"/><path class="cls-22" d="M242.9,130.44c-2.4.73-3,1.21-5.7,1.58,1.9-.71,3.86-1.36,5.7-2.22v.63Z"/><path class="cls-22" d="M236.88,165.62c-.26-1.41-.79-2.83-.96-4.27.65-.68.83.69.96,1.1.28.93.41,2.19.63,3.17h-.63Z"/><path class="cls-13" d="M266.98,207.76c.03.2-.03.43,0,.63-.68-.25-1.49,0-1.9,0-.11,0-.21,0-.32,0,.26-.47-.86-1.1-1.27-1.27,1.08-1.02,2.11,1.07,3.48.63Z"/><path class="cls-28" d="M187.47,271.14c-1.08,1.11-4.07.77-5.39,0,1.73.16,3.69.21,5.39,0Z"/><path class="cls-16" d="M266.98,208.4c.02.12.72.69.15.96l-2.05-.96c.41,0,1.22-.25,1.9,0Z"/><path class="cls-28" d="M196.02,262.9c-.07.43-.24.84-.32,1.27l-.95-.32c.08-.44.3-.83.32-.95h.95Z"/><path class="cls-9" d="M244.8,130.44s.2-.46.63-.32c.17.84-.05,1.24-.31,1.9l-.32-1.58Z"/><path class="cls-2" d="M115.87,246.1h-.63c-.3-.59.31-1.2.32-1.27.4.36.29.8.32,1.27Z"/><path class="cls-28" d="M196.34,271.14l-.95.63v-.63c.15,0,.89,0,.95,0Z"/><path class="cls-28" d="M181.45,271.14c.07.31-.31.29-.32.32-.33.09-.49-.25-.63-.32l.32-.32c.14.07.6.31.63.32Z"/><path class="cls-6" d="M142.17,237.55l.95-.32v.47s-.95.16-.95.16c-.02-.1.02-.21,0-.32Z"/><path class="cls-28" d="M195.39,266.39h-.32c.11-.51.21-1.1.32-1.58v1.58Z"/><path class="cls-7" d="M121.89,209.03c-.42-.04-.85.03-1.27,0,.1-.47,1.14-.49,1.27,0Z"/><path class="cls-22" d="M244.17,130.44c-.12.23-.55.24-.63.32v-.32c.67-.17.57,0,.63,0Z"/><path class="cls-19" d="M146.29,136.78c-.42.03-.85-.03-1.27,0,.1-.47,1.14-.49,1.27,0Z"/><path class="cls-2" d="M272.05,248.32l.32-.95c-.11.48-.23.68-.32.95Z"/><path class="cls-27" d="M262.54,254.03l-.32.63c-.06-.13-.29-.24-.32-.32-.03-.09.02-.22,0-.32.2-.02.44.03.63,0Z"/><path class="cls-8" d="M204.26,51.86v.32l-.63.32c.05-.07-.11-.46.04-.6.14-.13.52.02.6-.03Z"/><path class="cls-28" d="M260.64,331.98h-.32l-.63-1.9c.43.63.88,1.03.95,1.9Z"/><path class="cls-27" d="M139.95,229.63c-.03-.09-.21-.32-.32-.63l.32.63Z"/><path class="cls-27" d="M139.32,230.89l-.32-.63s.2.24.32.63Z"/><path class="cls-22" d="M141.22,172.27s-.21-.13-.32-.63l.32.63Z"/><path class="cls-15" d="M256.52,117.45l.32-.63c-.1.3-.24.45-.32.63Z"/><path class="cls-6" d="M157.06,139.32l.32-.32s-.11.31-.32.32Z"/><path class="cls-6" d="M156.42,139.32c-.11,0-.21,0-.32,0l.16-.31.16.31Z"/><path class="cls-2" d="M271.73,248.96l.32-.32c-.08.24-.31.3-.32.32Z"/><path class="cls-22" d="M237.52,168.79l-.32-.32s.28.07.32.32Z"/><path class="cls-24" d="M273,247.37c.06-.4.31-.3.32-.32l-.32.32Z"/><polygon class="cls-28" points="193.8 271.14 193.49 270.98 193.8 270.82 193.8 271.14"/><path class="cls-28" d="M190.95,271.46l.32-.32s-.07.28-.32.32Z"/><path class="cls-15" d="M222.95,46.47l-.32-.32c.23.02.29.31.32.32Z"/><path class="cls-24" d="M273.31,246.74c.04-.17.31-.28.32-.32l-.32.32Z"/><path class="cls-22" d="M141.22,176.07c.04-.24.3-.29.32-.32l-.32.32Z"/><path class="cls-16" d="M210.59,48.05c.1-.02.21,0,.32,0l-.16.31-.16-.31Z"/><path class="cls-9" d="M211.23,312.02c-.22-.05-.3-.31-.32-.32l.32.32Z"/><path class="cls-27" d="M139,229.94l-.32-.32s.24.09.32.32Z"/><path class="cls-27" d="M138.68,228.99l-.32-.32s.23.08.32.32Z"/><path class="cls-27" d="M138.37,228.36l-.32-.32c.03.05.24.14.32.32Z"/><path class="cls-9" d="M156.42,333.56v-.32h.32c-.11.07-.2.25-.32.32Z"/><path class="cls-12" d="M195.7,49.64s-.06.41.23.64c1.08.85,3.83,2.32,4.53,3.17-2.6-.61-3.24,1.92-5.1,3.3-.88.65-2.19,1.42-3.31,1.4-2.17-.04-6.8-2.63-9.3-2.84-.13-.21.23-4.31-.67-3.13l-.05,3.12c-4.09.69-9.38,4.75-13.24,2.08-.33-.23-3.1-2.64-3.22-2.82-.55-.82.13-1.47.03-2.39,1.67-1.21,2.97-2.62,4.43-3.8,3.01-2.43,4.14-3.64,8.17-4.34,7.99-1.39,11.58,1,17.49,5.61Z"/><path class="cls-24" d="M182.08,42.35l-.98-.19c-.42-.58-.04-4.65.11-5.59.7-4.34,5.34-5.92,6.35-10.12,2.74-11.35-14.42-13.78-15.97-2.83l-1.23.03c1.3-11.17,18.31-11.03,18.7.49.18,5.26-3,6.21-5.39,9.49-2.02,2.77-.94,5.54-1.59,8.72Z"/><path class="cls-15" d="M159.91,53.76c.21.1.36.22.63.32,3.93,3.35,7.07,7.14,8.87,12.04.03.28.71.83.17,1.6l-2.23,1.25c-.36-.08-1.08-3.03-1.37-3.7-5.27-12.14-17.5-16.14-29.83-12.46l1.27-1.9c9.56-3.3,14.09-1.04,22.49,2.85Z"/><path class="cls-11" d="M165.61,52.17c.1.92-.58,1.57-.03,2.39.12.18,2.89,2.59,3.22,2.82,3.86,2.67,9.15-1.39,13.24-2.08l.05-3.12c.91-1.19.54,2.92.67,3.13,2.49.21,7.13,2.8,9.3,2.84,1.12.02,2.43-.76,3.31-1.4,1.86-1.38,2.5-3.91,5.1-3.3.73.89-1.32,2.19-2.04,3.19-.49.68-2.28,4.27-2.6,4.38-4.1,0-7.43-2.58-11.22-3.6-6.13-1.65-9.87,3.25-15.63,3.88-.75-.15-4.47-6.86-6.53-6.59-.55-.59,2.75-2.23,3.17-2.53Z"/><path class="cls-27" d="M215.03,52.17c-1.06.56-2.46,2.66-3.17,3.49-.04.04-.57.04-.91.5-1.88,2.56-2.75,6.31-2.91,9.44,1.99.74,4.05,1.34,6.04,2.09.44.17.83.45,1.27.63v.95c-3.79-1.55-8.14-3.26-12.04-4.44-.17-.05-.46.05-.63,0-.5-.15-2.97-1.14-3.17-.95-.11.37.78,1.48.95,1.58-.19.74.41,2.43-.31,2.85-.5-1.05-1-2.17-1.59-3.17h.63c-.01-.83-.25-1.53.63-1.9,1.44.33,2.96.52,4.43.95.45.13,2.67,1.14,2.85.95.24-6.14,2.48-10.09,7.6-13.31l.32.32Z"/><path class="cls-27" d="M198.24,64.53c-.45-.14-.63-.49-.63-.95.4.33.41.61.63.95Z"/><path class="cls-21" d="M188.42,147.87h.32c-.2,1.59-.08,4.3.34,5.84.68,2.53,2.49,2.98,2.79,5.76.44,4.16-.25,8.89.04,13.11,0-.06-.33-.5-.34-1.07-.09-3.68.11-7.38.03-11.06l-2.04-1.84-1.77-3.14c-.26,1.67.28,3.3.33,4.89.75,24.1.28,49.73-.34,73.84-.16,6.21-.15,12.34-.62,18.55-.22,2.84-.73,5.71-.95,8.55l3.3.02.5-1.29c-.03.73.04,1.49,0,2.22-23.25,0-38.72-18.54-42.68-40.17-5.72-31.21,3.3-72.25,41.1-74.23ZM147.24,205.54c-.52,1.28-.4,3.23-.33,4.61.45,9.71,2.55,20.08,7.14,28.67,6.38,11.94,17.44,20.81,31.21,22.18l.95-8.56c.06-1.42-.09-2.86,0-4.27,1.79-28.64,1.89-60.96.62-89.67-.14-3.22.12-6.47-.66-9.64-15.4.47-28.14,12.32-34.13,25.83-3.87,8.74-6.24,21.37-4.8,30.85Z"/><path class="cls-17" d="M160.54,142.17c-.39,1.29-2.77,2.14-3.94,2.55-6.84,2.37-11.73,1.66-18.55.3.96-.74,2.19-1.03,3.28-1.64.46-.26.78-.88.84-.9.55-.22,1.94.31,2.68.33,5.26.11,10.48-.06,15.69-.65Z"/><path class="cls-6" d="M141.85,140.9l.32,1.58c-.06.02-.37.64-.84.9-1.09.6-2.32.9-3.28,1.64-2.83-.56-5.65-1.44-8.55-1.58,3.23-3.01,8.25-2.32,12.35-2.54Z"/><path class="cls-9" d="M156.42,300.61c3.38-1.5,6-3.78,8.87-6.02-1.44,1.86-6.06,6.49-8.38,6.35-.55-.03-.46-.33-.49-.33Z"/><path class="cls-6" d="M138.68,161.81c-.55-.29-.48-.82-.63-1.27.52.33.48.8.63,1.27Z"/><path class="cls-6" d="M139,162.45c-.14-.06-.28-.17-.32-.32.14.05.29.17.32.32Z"/><path class="cls-8" d="M223.9,84.81l1.27.32c.19.04.44-.04.63,0l.95.32c.1.02.22-.02.32,0l.63.32c.19.04.44-.04.63,0l.63.32c.2.03.43-.03.63,0,.41.49,1.03.49,1.58.63.18.05.45-.05.63,0l.32.32c.1.02.22-.03.32,0,.41.49,1.03.49,1.58.63.1.03.22-.03.32,0l.63.32c2.59.89,4.02,1.7,6.34,3.17.22.59.8.68,1.27.95.18.1.38.16.63.32l.63.63c.07.05.25-.05.32,0l.32.32c.32.24.45.47.63.63l.32.32c.29.26.64.31,1.27.95,0,.47.19.8.63.95.75.83.91.96,1.58,1.9l.32.32c1.14,1.66,1.69,2.37,2.22,4.44l.32.63c.03.2,0,.43,0,.63.03.63-.01,1.27,0,1.9-.19.04-.53-.06-.63,0-.45-4.49-2.65-7.17-5.7-10.14-5.48-5.34-13-8.56-20.59-9.5-.14.55.23.63.47.95.96,1.25,2.64,2.35,3.64,3.48,3.51,3.95,6.22,9.5,5.7,14.89-.02.21.03.44,0,.63,0,.04-.28.16-.32.32-1.4,5.34-6.24,8.09-10.76,10.62-4.48,2.51-9.23,4.71-13.78,7.14-.36.19-.71.33-1.12.31l.62.47c1.89-1.26,4.33-1.24,6.35-1.74v.63h-.32l-.63.32c-.18.05-.45-.05-.63,0l-.32.32c-.17.05-.43-.03-.63,0l-.32.32c-.28.05-.72-.08-.95,0l-.32.32c-3.74,1.32-8.28,3.2-11.4,5.7l-.32.32c-.11.09-.21.21-.32.32-1.31.21-1.78,1.32-1.58,2.54-.05-.05-1.2-.62-1.27-.63l-.16-.31-.16.31c-.41-.07-1.14-.03-1.58,0l-.16-.32-.47.32c-.11.02-.23-.03-.32,0l-.32.32c-.56.34-1.24,1.01-1.58,1.58-.35-.54-1.02.65,0-1.58.1-.21.22-.42.32-.63l.31-.16-.31-.16c-.28-.04-.58-.11-.79-.3-3.59-3.31-9.01-5.94-13.78-6.99l-.95-.32c-.2-.04-.43.03-.63,0-1.31-.38-1.94-1.16-3.17-1.58-8.02-2.79-17.53-4.05-25.98-4.75l-6.97-2.54c0-.11,0-.21,0-.32-.11-1.22-2.61-2.44-2.54-4.12-.56.16-.9,1.71-.95,2.22-.14,1.43.13,3.14.82,4.41.96,1.77,1.97,2.31,3.62,3.19.45.24.72.21.95.32.09.04.19.26.32.32.23.1.45.5.95.32h.32c2.36,1.42,7.97,1.26,10.77,1.27,2.34,0,5.48-.47,7.46-.32.98.07.82-.14.78.95-.53,0-1.06,0-1.58,0-1.3,0-3.06-.27-4.12.32-2.73.11-5.16.2-7.92,0l-.16-.31-.16.31c-.83-.08-1.43-.2-2.22-.32l-.16-.31-.16.31c-.42-.07-.85-.22-1.27-.32l-.32-.32c-.19-.05-.45.04-.63,0-.37-.66-1.01-.51-1.58-.63-.19-.04-.46.05-.63,0l-.63-.32c-2.54-.92-5.19-3.51-5.63-6.26-1.45-9.09,8.86-16.3,15.67-20.3,20.75-12.2,49.43-16.07,72.95-11.79ZM162.12,119.67c3.42.69,6.85,1.29,10.2,2.31,3.66,1.11,7.72,3.26,11.34,4.03,3.31,1.95,7.12,3.35,9.4,6.62l4-.35c2.76-3.11,6.41-5.27,9.85-7.59,6.49-4.38,14.5-7.11,20.45-11.53,11.88-8.84,2.57-20.37-5.9-27.33-24.47-3.13-54.41.58-74.82,15.34-1.32.95-7.34,5.9-7.33,7.25,0,.4.55.8.63,1.29.45,3-.93,3.84,2.44,5.79,3.97,2.3,14.66,3.15,19.74,4.17Z"/><path class="cls-4" d="M135.51,96.22l.52,3.4,1.07.72c-2.29,2.29-3.27,4.74-4.75,7.29-.11.19-.91.56-1.22,1.16-3.4,6.48-2.07,13.09,3.44,17.86l-.59,3.25c.25,1.33,2.05,1.25,1.85,2.77-5.43-.63-8.07-1.87-12.67-4.44-2.35-2.75-4.53-6.67-5.53-10.16-1.23-4.31.59-12.15,2.04-16.46.18-.53.43-1.06.63-1.58l.97,1.57c1.27.39,1.61-.79,2.4-1.21s2.32-.71,2.94-1.18c.46-.35.48-.97,1.2-1.34,1.75-.9,5.76-1.21,7.7-1.65Z"/><path class="cls-28" d="M199.5,131.71c-.5.49-1.24.87-1.22,1.7.39.58,1.4,1.43,1.54,2.1.27,1.33-.17,3.38.03,4.88.14,1.05.77,1.58.92,2.09.48,1.63.98,3.39,1.27,5.07.07.41.31.9.32.95.2,2.01-.36,3.87-.32,5.7-1.13,1.78-2.12,3.16-4.13,4.01v11.83c-.36,22.26.3,44.72.02,67.03,0,.54.2,1.41-.32,1.74-.02-1.54.31-5.29,0-6.45-.09-.36-.62-.18-.64-.21s-.31-.6-.32-.63c-.12-.73.33-1.8.35-2.69.13-8.34-.03-16.81-.03-25.19,0-.84.22-1.86-.32-2.54v-.95c.51-.59.32-1.46.32-2.22,0-.42,0-.85,0-1.27,0-.84,0-1.69,0-2.54,0-.21,0-.42,0-.63,0-.84,0-1.69,0-2.54,0-.32,0-.63,0-.95,0-.74,0-1.48,0-2.22,0-.42,0-.85,0-1.27v-6.02c0-.42,0-.85,0-1.27,0-.84,0-1.69,0-2.54,0-.32,0-.63,0-.95,0-.84,0-1.69,0-2.54-.02-1.43-.3-2.91-.32-4.12-.01-.8.32-1.54.32-1.9,0-.97.14-2.5.02-3.35-.07-.55-.45-.39-.64-.7-.13-.2.04-.61-.02-.71.6-.45.24-1.52.32-2.22.04-.38.63-1.19.32-1.9l-3.62-.28c-1.15.27-.2,2.73-.18,3.13.04.94-.01,1.91,0,2.85.02,1.47-.01,2.96,0,4.44,0,.74,0,1.48,0,2.22,0,.32,0,.63,0,.95,0,.74,0,1.48,0,2.22,0,1.58,0,3.17,0,4.75,0,.74,0,1.48,0,2.22,0,.42,0,.85,0,1.27,0,.95,0,1.9,0,2.85,0,.32,0,.63,0,.95,0,.84,0,1.69,0,2.54,0,.21,0,.42,0,.63v9.19c0,.42,0,.85,0,1.27,0,.74,0,1.48,0,2.22,0,.42,0,.85,0,1.27,0,.53,0,1.06,0,1.58,0,.74,0,1.48,0,2.22,0,.32,0,.63,0,.95v11.09c0,.84,0,1.69,0,2.54,0,.32,0,.63,0,.95,0,.74,0,1.48,0,2.22-.02,1.58.01,3.17,0,4.75v2.54c0,.21,0,.42,0,.63-.04,1.7-.25,3.4-.32,5.07-.01.32.01.63,0,.95,0,.21,0,.42,0,.63-.17,4.02-.39,8.03-.63,12.04-.04.65-.29,1.25-.32,1.9-.02.52-.01,1.06,0,1.58,0,.31-.04.65,0,.95h-.95s-.3-.26-.3-.73c0-1.3.62-3.16.3-4.65.1-.84.23-1.67.32-2.54.31-3.15.2-6.35.32-9.51.77-21.46.76-44.09.32-65.59-.29-4.22.4-8.95-.04-13.11-.3-2.78-2.12-3.23-2.79-5.76-.41-1.55-.54-4.25-.34-5.84.11-.85.88-2.36.95-3.49.87-.99.76-2.35.95-3.49.15-.88.44-1.37.32-2.54h.95c.09.68.3,1.92.46,2.55.92,3.47,6.09,3.46,6.51-.16.19-1.58.29-5.44-.96-6.5-.2-1.21.27-2.32,1.58-2.54ZM190.32,148.19c-.56,1.34-.45,3.61-.1,5.01,1.34,5.42,9.7,5.62,10.87-.26.51-2.57-.31-5.43-.95-7.92-.11-.44-.38-2.56-.79-2.53-1,1.99-4.03,2.54-5.85,1.41-.82-.51-1.22-1.49-1.91-2.04-.47,2.2-1.21,4.04-1.27,6.34Z"/><path class="cls-6" d="M152.94,89.56c21.3-11.98,36.26-15.25,60.94-11.68,3.26.47,6.46,1.34,9.71,1.86.02.57.16.67-.47.63-3.24-.19-7.08-1.29-10.46-1.58-21.89-1.92-39.74,1.78-59.08,11.72-.45-.14-.63-.49-.63-.95Z"/><path class="cls-27" d="M158.64,82.28c-5.38,3.82-10.02,6.03-16.79,4.6-10.24-2.17-15.68-12.46-12.35-22.34,4.81-14.25,25.36-15.15,32.57-2,4.26,7.78,1.45,13.58-3.42,19.74ZM135.2,58.19c-12.25,10.66-3.92,29.37,12.99,27.89,6.34-.56,12.98-6.02,14.43-12.34,3.58-15.54-15.81-25.64-27.42-15.54Z"/><path class="cls-7" d="M133.3,107.94c-3.83,7.79-1.82,15.15,6.34,18.53,6.6,2.74,13.69,2,20.58,1.75v.32c-8.12.57-18.59,4.21-25.66-1.9-5.51-4.77-6.84-11.38-3.44-17.86.31-.6,1.11-.97,1.22-1.16l.95.32Z"/><path class="cls-17" d="M204.89,133.93l.32.63c-.46.2-3.28,2.14-2.85,2.53,1.88.21,3.71-1.14,5.25-1.55,2.58-.7,7.21-1.14,9.95-1.3.32-.02.63.01.95,0,1.98-.09,4.36-.11,6.34,0,1,.05,4.34.24,4.78.78.52.64-.08,1.15,1.56,1.44-2.13.21-5.11.63-7.13.63h-10.14c-.55,0-2.25.52-3.01.63-2.16.31-4.46.2-6.34,1.58-.97.15-3.56.9-4.14.49l-.31-2.82c1.42-.69,2.4-1.85,3.72-2.7.37-.24.84-.24,1.05-.36Z"/><path class="cls-7" d="M172.89,123.79c-1,.5-2.5.04-3.8,0-.8-.02-5.48-.17-5.7,0-.07.06.07.55,0,.63-.06.06-.58-.05-.63.32-.11,0-.21,0-.32,0,.04-1.1.2-.88-.78-.95-1.98-.15-5.12.33-7.46.32-2.68-1.31-5.64-2.49-7.29-5.07,8.45.71,17.96,1.96,25.98,4.75Z"/><path class="cls-17" d="M133.61,92.1c.09.07,1.53.76,1.99,1.02.65.37,4.89,1.59,2.76,2.3-.72.24-2.12.64-2.85.8-1.94.44-5.95.74-7.7,1.65-.71.37-.73.99-1.2,1.34-.62.47-2.12.75-2.94,1.18s-1.13,1.6-2.4,1.21l-.97-1.57c.52-1.31,1.96-4.99,3.17-5.54,1.52-.7,6.66,1.28,8.67.81l1.46-3.19Z"/><path class="cls-7" d="M158.64,82.28c-1.45,1.84-1.02,2.13-3.51,3.62-11.48,6.83-26.12.29-27.5-13.32-.22-2.22-.49-7.01,1.86-8.04-3.33,9.89,2.11,20.18,12.35,22.34,6.78,1.43,11.41-.78,16.79-4.6Z"/><path class="cls-16" d="M215.34,69.28c4.35,1.78,8.07,4.27,12.04,6.02l.32,2.54c-3.98-2.51-8.88-5.03-13.19-6.93-2.23-.98-8.13-2.67-9.6-3.71-.52-.37-1.28-1.7-1.6-2.36,3.9,1.18,8.25,2.88,12.04,4.44Z"/><path class="cls-17" d="M152.94,89.56c0,.46.18.81.63.95-7.53,3.87-16.43,9.61-20.27,17.43l-.95-.32c1.48-2.54,2.47-5,4.75-7.29,3.89-3.89,10.99-8.05,15.84-10.77Z"/><path class="cls-8" d="M251.77,109.85c-.03.2.04.44,0,.63l-.32.32c-.03.1.03.23,0,.32l-.32.32c-.11.23-.17.4-.32.63l-.32.63c-.09.12-.23.2-.32.32l-1.58,1.58c-.58.47-.52.5-1.27.95-.46.28-1.05.35-1.27.95-1.63,1.02-2.06,1.05-3.8,1.58l-.32.32c-.1.03-.22-.02-.32,0-.6.15-1.47-.16-1.9.63-.1.03-.22-.03-.32,0l-.63.32c-.18.05-.45-.05-.63,0l-.63.32c-.1.03-.22-.02-.32,0l-.95.32c-.1.02-.22-.02-.32,0l-1.27.32c-.19.04-.45-.04-.63,0l-.63.32c-.28.06-.67-.06-.95,0l-.32.32c-.19.04-.44-.04-.63,0h-.63l-1.27.32-.32-.63c2.22-.44,5.27-1.21,7.92-1.9.14-.04.26-.18.32-.32.1-.03.22.02.32,0,.19-.04.44.04.63,0l.32-.32c.93-.23,1.44-.22,2.53-.63l.32-.32c.14-.06.44.04.63,0,.14-.03.27-.17.32-.32,3-.46,4.08-1.98,6.18-3.81.29-.25.91-.22,1.04-.38.74-.88,1.34-4.38,1.34-5.63,1.3-.95.78,1.85.63,2.85Z"/><path class="cls-22" d="M187.78,133.93c-.75.1-1.72-.19-2.53-.32-.1-.02-.21.02-.32,0,.02-.75-1.65-1.47-2.21-1.75-4.77-2.36-10.88-3.14-16.16-3.32-.42-.01-.85,0-1.27,0l1.58-.63c7.33.1,15.11,1.24,20.91,6.02Z"/><path class="cls-19" d="M223.9,126.01v.63c-3.93.78-8.23,1.44-12.02,2.71-3.56,1.19-6.55,3.32-9.83,4.9.12-.93,1.49-1.57,2.24-2.03,6.69-4.12,12.06-4.88,19.62-6.2Z"/><path class="cls-28" d="M229.28,120.62l.32.63-13.94,2.85v-.63c4.61-1.15,8.94-1.93,13.62-2.85Z"/><path class="cls-19" d="M187.78,133.93l2.85,1.9c0,.21.18.81.32.95.06.27-.3.55-.32.63l-1.9-.95-3.48-2.85c.82.13,1.79.42,2.53.32Z"/><path class="cls-28" d="M172.89,123.79c1.23.43,1.86,1.2,3.17,1.58-1.95-.32-4.95-.53-6.97-.63v-.95c1.3.04,2.8.5,3.8,0Z"/><path class="cls-9" d="M233.4,124.42c-.07.09.08.58,0,.63-.39.28-8.14,1.31-9.51,1.59v-.63c3.16-.55,6.34-1.08,9.5-1.58Z"/><path class="cls-27" d="M178.91,69.28c-1.43-.95-2.4-.62-4.12-.64-.11-.78,1.09-1.56,1.74-1.56.61,0,2.86,1.37,3.01,2.2-.19-.04-.43.03-.63,0Z"/><path class="cls-8" d="M169.09,123.79v.95c-.32-.02-.63.01-.95,0-1.32-.71-3.24-.14-4.75-.32.07-.08-.08-.58,0-.63.23-.17,4.9-.02,5.7,0Z"/><path class="cls-28" d="M251.77,109.85c.14-1,.66-3.8-.63-2.85,0-.09-.22-.29-.23-.53.01-.16.1-.34.23-.42.1-.06.44.05.63,0-.01-.63.03-1.27,0-1.9.89,1.36,1.08,4.39,0,5.7Z"/><path class="cls-16" d="M202.67,64.85c.24,1.05-1.56,1.04-2.22.63-.17-.11-1.06-1.21-.95-1.58.2-.19,2.67.8,3.17.95Z"/><path class="cls-19" d="M166.88,127.91l-1.58.63c-1.63-.01-3.47-.11-5.07,0v-.32c2.24-.08,4.31-.35,6.65-.32Z"/><path class="cls-28" d="M191.9,133.93c-1.02,2.23-.35,1.04,0,1.58.1.16-.05,1.46,0,1.9-.11-.64-.91-.59-.95-.63-.13-.14-.32-.74-.32-.95.02-.76.57-1.58,1.27-1.9Z"/><path class="cls-28" d="M163.39,124.42c1.51.18,3.43-.4,4.75.32-1.78-.07-3.6,0-5.39,0,.06-.37.58-.25.63-.32Z"/><path class="cls-28" d="M160.86,124.74c-1.07.62-2.8.27-4.12.32,1.05-.59,2.82-.31,4.12-.32Z"/><path class="cls-19" d="M179.55,69.28c.96.19,1.48.97,1.75,1.89-.79-.47-1.69-1.44-2.38-1.89.2.03.44-.04.63,0Z"/><path class="cls-28" d="M143.75,124.1c-.53-.12-1.34.24-1.58-.63.57.12,1.21-.03,1.58.63Z"/><path class="cls-28" d="M229.6,86.08c.5.07,1.07-.06,1.59,0v.63c-.56-.15-1.17-.15-1.59-.63Z"/><path class="cls-28" d="M241.64,118.4c-.49.46-1.27.47-1.9.63.43-.79,1.3-.49,1.9-.63Z"/><path class="cls-28" d="M235.93,119.99c-.4.09-.84.22-1.27.32l1.27-.32Z"/><path class="cls-28" d="M225.16,85.13l-1.27-.32c.52.09.96.26,1.27.32Z"/><path class="cls-28" d="M177.65,125.69c-.42-.09-.9-.31-.95-.32l.95.32Z"/><path class="cls-28" d="M237.2,119.67c-.16.04-.52.21-.95.32l.95-.32Z"/><path class="cls-28" d="M234.03,87.66c-.55-.15-1.17-.15-1.58-.63.53.14,1.22-.05,1.58.63Z"/><path class="cls-28" d="M226.75,85.45l-.95-.32c.47.1.84.29.95.32Z"/><path class="cls-28" d="M234.03,120.3s-.15.21-.63.32l.63-.32Z"/><path class="cls-28" d="M231.5,120.94c-.13.03-.29.45-.63,0h.63Z"/><path class="cls-28" d="M234.98,87.98l-.63-.32c.42.11.58.3.63.32Z"/><path class="cls-28" d="M242.59,92.1c-.47-.27-1.04-.36-1.27-.95.44.28,1.05.34,1.27.95Z"/><path class="cls-28" d="M141.53,123.47c-.32-.09-.48-.26-.63-.32l.63.32Z"/><path class="cls-28" d="M215.34,124.1c-.09.34-.39.26-.63.32l.63-.32Z"/><path class="cls-28" d="M247.34,96.22c-.45-.15-.64-.48-.63-.95.34.35.45.75.63.95Z"/><path class="cls-28" d="M238.15,119.35s-.19.2-.63.32l.63-.32Z"/><path class="cls-28" d="M239.42,119.03s-.21.2-.63.32l.63-.32Z"/><path class="cls-28" d="M251.77,103.51l-.32-.63s.24.1.32.63Z"/><path class="cls-28" d="M228.97,86.08l-.63-.32c.49.11.6.31.63.32Z"/><path class="cls-28" d="M227.7,85.76l-.63-.32c.48.11.6.31.63.32Z"/><path class="cls-28" d="M246.07,116.5c.22-.6.81-.67,1.27-.95-.22.61-.82.67-1.27.95Z"/><path class="cls-28" d="M250.51,112.7l.32-.63c-.1.16-.12.37-.32.63Z"/><path class="cls-28" d="M251.14,111.43l.32-.32c-.06.18-.29.26-.32.32Z"/><path class="cls-28" d="M248.61,114.6l1.58-1.58c-.59.73-.87,1-1.58,1.58Z"/><path class="cls-28" d="M251.46,110.8l.32-.32c-.04.23-.31.3-.32.32Z"/><path class="cls-28" d="M241.95,118.4l.32-.32s-.08.25-.32.32Z"/><polygon class="cls-28" points="192.22 133.29 192.22 132.98 192.53 133.14 192.22 133.29"/><path class="cls-28" d="M199.82,131.39l.32-.32c-.11.09-.2.22-.32.32Z"/><path class="cls-28" d="M232.13,87.03l-.32-.32c.24.06.3.31.32.32Z"/><path class="cls-28" d="M249.24,98.44l-.32-.32c.08.11.23.2.32.32Z"/><path class="cls-28" d="M211.54,125.37l.32-.32c-.08.03-.18.27-.32.32Z"/><path class="cls-28" d="M212.81,125.06l.32-.32-.32.32Z"/><path class="cls-28" d="M245.44,94.32l-.32-.32c.11.1.21.22.32.32Z"/><path class="cls-28" d="M148.82,125.06c-.11,0-.21,0-.32,0l.16-.31.16.31Z"/><path class="cls-28" d="M244.49,93.37l-.32-.32c.12.09.21.24.32.32Z"/><path class="cls-28" d="M243.85,93.05l-.63-.63c.38.24.51.55.63.63Z"/><path class="cls-28" d="M213.76,124.74l.32-.32s-.08.25-.32.32Z"/><path class="cls-28" d="M146.29,124.74c-.1-.02-.21.02-.32,0l.16-.31.16.31Z"/><path class="cls-28" d="M144.7,124.42c-.15-.04-.27-.31-.32-.32l.32.32Z"/><path class="cls-7" d="M247.5,119.67c.21.11.21.21,0,.32v-.32Z"/><path class="cls-28" d="M232.13,120.94l.32-.32s-.1.27-.32.32Z"/><path class="cls-13" d="M243.54,169.42c3.42.57-.48,5.89.67,6.62s2.09-1.43,4.1-.77c.28.09,2.04,1.44,2.21,1.68.72.97.58,2.54,1.58,3.4,1.64,1.41,4.02,1.39,6.01,1.12,1.16,3.81,6.17,19.76,5.32,22.59-.26.87-1.86,1.13-.89,2.76-4.6-1.49-9.29-.45-13.16-3.79-.45-.38-.63-.99-.95-1.28-.36-.32-.96-.27-1.04-.37-.18-.2-.56-4.56-.68-5.34-.96-6.38-2.95-12.74-3.76-18.89-.51-3.87.1-4.42.6-7.73Z"/><path class="cls-21" d="M237.52,189.38c1.23,9.66,1.24,19.78,0,29.47-1.86,14.52-7.22,28.08-19.35,36.89-4.12,2.99-13.29,6.53-18.35,6.84-.21.01-.42,0-.63,0-.71.02-2.17-.84-3.17,0,.02-.21-.02-.43,0-.63l3.34-.62c.54-2.72.81-5.49,1.1-8.25.55-5.25,1.09-10.71,1.28-15.99.84-23.47.51-49.43-.34-72.88-.08-2.26.22-4.58-.14-6.82l-2.96,3.06c-.17,2.94.05,5.9-.04,8.85-.01.41-.33.73-.33.77v-11.83c2-.85,2.99-2.23,4.12-4.01.27,12.81.62,25.66.62,38.49,0,20.32.63,40.14-1.25,60.38-.25,2.69-.38,5.41-.96,8.08.02.57,7.03-1.3,7.68-1.51,19.05-6.16,26.26-24.37,28.44-42.69,1.62-13.6,1.51-26.85-2.85-39.93-4.14-12.42-12.21-23.95-25.66-27.57-.98-.26-1.82-.77-3.05-.91-.88-.1-1.77-.02-2.66-.04,0-.05-.25-.54-.32-.95,12.02.31,22.72,9.2,28.36,19.32,3.92,7.04,6.1,14.52,7.12,22.51Z"/><path class="cls-15" d="M230.86,142.8c1.57,4.54,4.21,9.79,5.02,14.51.11.64-.9,1.77-1.22,1.14-.65-4.38-2.95-8.54-4.03-12.73-.17-.65-1.07-3.16.22-2.92Z"/><path class="cls-7" d="M241.64,164.35c.03-.15.17-.27.32-.32-.05.13-.2.24-.32.32Z"/><path class="cls-17" d="M215.34,315.82c.4,1.62-1.17,1.49-2.22,2.37-1.17.98-2.57,3.08-2.07,4.62.72,2.23,8.33,7.06,10.57,8.28.16.09.02.54.05.57.05.95-.2.67-.81.33-3.92-2.21-13.12-9.28-14.25-13.63-1.41-5.45,5.69-2.87,8.72-2.55Z"/><path class="cls-6" d="M249.56,320.89l-.32.63c-.85-.28-2.29-.18-3.17-.32-.96-.15-1.51.19-1.77-.65-.34.02-.79.35-1.08.33-.05,0-.58-.48-.94-.33l.49-1.59c2.5.24,4.51,1.04,6.79,1.92Z"/><path class="cls-17" d="M162.44,325.33l-2.22.63c.15-.36.87-2.68.93-3.03.23-1.43.17-2.82-.76-3.95-.73-.89-1.93-.9-2.07-1.89,1.98-.3,5.97-2.27,7.04.4s-1.62,5.67-2.93,7.84Z"/><path class="cls-23" d="M266.35,243.25c-.04.72-.27,1.31-.32,1.9v.32c0,.06-.36.25-.32.95v1.27c-.04.2.05.48,0,.63l-.32.32c-.28.87-.63,1.16-.63,2.22-.87.46-1.23,2.79-1.9,3.17l-.63-.32v-.32l.32-.32c.04-.08-.04-.23,0-.32.22-.43.42-.84.63-1.27h.62s.01-.95.01-.95c.09-.22.23-.42.32-.63l.32-.63c.15-.4.2-.86.32-1.27l.32-.95c.04-.18-.04-.44,0-.63l.32-.63c.07-.38-.05-.87,0-1.27l.32-.63c.02-.21-.02-.43,0-.63h.63Z"/><path class="cls-27" d="M265.71,243.25c.06-.71-.18-4.34.16-4.44.74-.21.45.68.47,1.11.04,1.05.06,2.29,0,3.33h-.63Z"/><path class="cls-27" d="M263.81,250.54v.94s-.63.01-.63.01c.19-.37.57-.8.63-.95Z"/><path class="cls-27" d="M265.71,247.69v-1.27c.03.6.23.18,0,1.27Z"/><path class="cls-27" d="M264.76,248.01c.1-.33.28-.8.32-.95l-.32.95Z"/><path class="cls-27" d="M265.39,244.52c.07-.55.31-.6.32-.63l-.32.63Z"/><path class="cls-27" d="M265.08,246.42c.1-.5.31-.6.32-.63l-.32.63Z"/><path class="cls-27" d="M264.13,249.91c.11-.26.28-.52.32-.63l-.32.63Z"/><path class="cls-27" d="M265.39,248.64l.32-.32c-.08.23-.31.3-.32.32Z"/><path class="cls-27" d="M266.03,245.47v-.32s.03.03,0,.32Z"/><path class="cls-4" d="M238.79,231.21c.46,8.64,1.22,17.28,1.58,25.98l-.02,3.95c.02,11.69-.83,35.95-15.7,38.48-.85.14-1.79-.02-2.66.03-4.98-1.36-9.06-4.38-12.04-8.56-1.62-2.28-3.6-5.73-4.44-8.39-.61-1.93-1.65-5.64-.78-7.45.74-1.54,1.24-.67,2.47-1.02,1.1-.31,1.58-3.05,2.44-4.21,2.59-3.51,7.54-6.95,10.45-10.46.3-.36.77-.51.63-1.11-.23-.23-5.04,2.98-5.69,3.33-1.89,1-4,2-6.03,2.69-1.34.46-9.1,2.58-9.82,1.9l.63-3.8c5.05-.31,14.23-3.85,18.35-6.84,12.13-8.81,17.49-22.37,19.35-36.89,1-.24,1.28,2.23,1.28,3.02,0,.45-.33.82-.33.94v5.7c0,.48.27,1.85.32,2.69Z"/><path class="cls-9" d="M209.96,291.1c2.97,4.17,7.06,7.2,12.04,8.56-.05,0-.36.32-.77.33-4.25.14-7.94-2.95-10.32-6.19l-.95-2.69Z"/><path class="cls-22" d="M207.74,267.65c-.57.47-1.26.91-1.9,1.27-.93.52-1.88.86-2.85,1.27v-.63c1.42-.48,3.35-1.29,4.75-1.9Z"/><rect class="cls-7" x="211.54" y="264.8" width=".63" height=".63"/><polygon class="cls-7" points="213.12 264.8 212.49 264.8 212.49 264.17 213.29 263.86 213.12 264.8"/><path class="cls-19" d="M127.28,270.5l.63,6.34c-1.1-.93-1.29-3.38-1.26-4.75.02-.69.13-1.25.32-1.9.21-.03.29.32.31.32Z"/><path class="cls-13" d="M160.22,128.54c1.6-.11,3.44-.01,5.07,0,.42,0,.85-.01,1.27,0-.18,1.02.52.54,1.11.62,3.8.49,7,.7,10.68,2.01,1.48.53,4.08,2.23,5,2.45v.32c-.67,0-1.34.04-2.02-.04-15.26-1.84-30.32.54-45.5-1.23.2-1.52-1.6-1.44-1.85-2.77l.59-3.25c7.06,6.11,17.54,2.47,25.66,1.9Z"/><path class="cls-6" d="M184.93,133.61c.1.02.21-.02.32,0l3.48,2.85c-.62.83-5.15-1.74-5.33-1.96-.13-.15-.06-.39-.05-.57v-.32c.43.1,1.1-.07,1.58,0Z"/><path class="cls-8" d="M190.95,136.78s.84,0,.95.63c.04.31-.04.65,0,.95h-.95c-.02-.14-.17-.28-.32-.32.01-.21-.03-.44,0-.63.01-.09.38-.37.32-.63Z"/><path class="cls-19" d="M190.95,138.36c.12,1.16-.17,1.65-.32,2.54.03-.95-.05-1.91,0-2.85.15.03.3.17.32.32Z"/><path class="cls-18" d="M262.86,254.03c-.06.04-.2-.02-.32,0-.2.03-.43-.02-.63,0l.32-.32.63.32Z"/><path class="cls-18" d="M262.23,253.39c.03-.17.28-.25.32-.32l-.32.32Z"/><path class="cls-19" d="M239.42,61.36c-.47.22-.32.85-.32,1.27-1.44-5.04-5.05-9.15-9.92-11.15-4.32-1.77-10.02-1.48-14.15.69l-.32-.32c4.09-2.57,7.49-3.18,12.37-2.07s11.4,6.46,12.34,11.58Z"/><path class="cls-27" d="M239.42,61.68c.03.27,0,.53.32.63,1.51,5.7.53,7.56-1.58,12.36-.63.24-.78,1.16-1.27,1.45-.19.11-.29-.18-.31-.18,2.3-3.73,3.06-7.34,2.85-11.72l-.32-.63c-.03-.31,0-.64,0-.95,0-.42-.15-1.05.32-1.27.02.1-.01.21,0,.32Z"/><path class="cls-19" d="M238.15,74.67c-.69,1.55-.81,2.55-2.2,3.94-.28.28-.83-.3-.97.18l-.32-1.27c.91-.68,1.01-1.41,1.9-1.58.02,0,.12.29.31.18.49-.29.64-1.21,1.27-1.45Z"/><path class="cls-19" d="M239.74,62.31c-.31-.1-.28-.36-.32-.63.31.12.25.39.32.63Z"/><path class="cls-22" d="M210.91,137.73v.63c-2.14.22-4.22.62-6.34.95,1.87-1.38,4.17-1.27,6.34-1.58Z"/><path class="cls-15" d="M194.44,202.37c.84.29,1.69.94,2.53,1.27,0,8.38.16,16.86.03,25.19-.01.9-.47,1.96-.35,2.69h-.32c-.15-.41-.96-.4-1.27-.32.11-1.03-.82-2-1.9-1.9.01-1.58-.02-3.17,0-4.75l2.54-1.11-2.54-1.11c0-.32,0-.63,0-.95,2.84-.46,2.27-1.74,0-2.54v-7.29l2.54-1.11c-.79-.41-1.52-1.6-2.54-.79v-1.9c2.73,1.19,1.53-3.03,0-.95,0-.74,0-1.48,0-2.22,1.77,2.05,2.91-1.97,0-1.58,0-.42,0-.85,0-1.27h.32c.02,1.36.88.61.95.63Z"/><path class="cls-8" d="M196.65,240.4c.96-.18.61.49.63,1.1.05,1.28.31,2.99.32,3.98,0,.57-.21,1.3-.32,1.9-.07.41-.85,1.36,0,1.9-.12,1.79-.46,3.6-.63,5.39-.14,1.39-.3,2.6-.32,4.12-.51.27-.3,1.08-.32,1.58l-.63-.63c.17-1.6.17-3.66.32-5.39.04-.52-.04-1.06,0-1.58.32-4.11.81-8.21.95-12.36Z"/><path class="cls-20" d="M193.17,232.48l1.28.53v2.15s-.93.19-.93.19c-.64,1.92,1.35,1.72,1.55,3.14l-2.22.64c0-.21,0-.42,0-.63.48-.04.48-.91,0-.95.07-1.67.28-3.37.32-5.07Z"/><path class="cls-8" d="M196.97,232.16s.55-.15.64.21c.3,1.15-.03,4.91,0,6.45,0,.21,0,.42,0,.63-.53.11-.71-.24-.95-.63.02-.53,0-1.06,0-1.58.02-1.69-.2-3.44.32-5.07Z"/><path class="cls-20" d="M196.34,231.53h.32s.3.6.32.63c-.51,1.63-.3,3.38-.32,5.07-2.81-.91-.38-2.17-.31-2.44.38-1.47-.27-1.97-1.59-2.32l1.58-.95Z"/><path class="cls-20" d="M195.07,231.21c-.31.09-1.05,1-1.9.63v-2.54c1.08-.1,2.01.87,1.9,1.9Z"/><path class="cls-20" d="M191.58,257.2c.91-.11,2.08,0,2.23,1.1.2.61-1.24.78-1.46.78-.62-.02-.68-.58-.76-.61v-1.27Z"/><path class="cls-28" d="M196.65,238.82c.24.4.42.74.95.63,0,.04.34.35.34.78,0,1.56-.68,3.52-.34,5.24-.01-.98-.27-2.7-.32-3.98-.02-.61.33-1.27-.63-1.1.02-.53-.02-1.06,0-1.58Z"/><path class="cls-20" d="M195.7,252.76c-.04.52.04,1.06,0,1.58-.54.82-.13.58-.84.38-.3-.08-2.02-.74-2.02-.85l2.85-1.11Z"/><path class="cls-20" d="M192.22,251.17c2.86.48,2.39,2.25-.32,1.9.03-.65.28-1.25.32-1.9Z"/><path class="cls-20" d="M191.9,254.66l2.22.95-2.05.64c-.3.01-.13-.39-.16-.64-.04-.3,0-.64,0-.95Z"/><path class="cls-23" d="M196.02,260.36c0,.11,0,.21,0,.32s0,.21,0,.32c-.49.02-.49.93,0,.95-.02.21.02.43,0,.63-.01.1.02.21,0,.32h-.95c.14-.89.21-2.18.32-3.17l.63.63Z"/><path class="cls-23" d="M191.58,255.61l-.32,1.58-.31.63c-.04-.42.04-.85,0-1.27-.03-.31,0-.64,0-.95h.63Z"/><path class="cls-23" d="M191.27,258.46c-.01.53.02,1.06,0,1.58l-.64-.2v-1.38c.22.01.43-.02.64,0Z"/><path class="cls-6" d="M217.56,134.25v-.63s.79,0,.79,0l.16.64c-.32.01-.64-.02-.95,0Z"/><path class="cls-8" d="M225.16,57.24c-1.1,4.12,4.52,8.2,7.6,4.75,2.03,3.53.39,8.73-3.12,10.67-1.12.62-2.25.48-3.22,1.22l3.17,1.74c-.25-.08-.69.07-.95,0-.4-.11-.92-.16-1.27-.32-3.96-1.75-7.68-4.24-12.04-6.02v-.95c.41.17,2.41,1.08,2.53.95-1.06-2.62-1.64-4.64-.57-7.38s4.75-5.58,7.85-4.66Z"/><path class="cls-22" d="M175.75,268.92c-.3-.18-.74-1.37-1.58-1.27-.11-.59.97-.13,1.14-.04,1.73.86,3.88,2.4,5.51,3.21l-.32.32c-1.27-.61-3.76-1.6-4.75-2.22Z"/><path class="cls-27" d="M231.5,325.01c.32-.57,1.14-.3,1.65-.23,3.19.44,5.85,1.7,8.28,3.61.62.48,1.83.23,1.16,1.7-2.62-2.54-7.53-4.41-11.09-5.07Z"/><path class="cls-22" d="M202.04,269.87l.32-.32c-.1.03-.21.28-.32.32Z"/><path class="cls-29" d="M144.07,171.95c.06-.12.21-.22.32-.32-.05.13-.2.24-.32.32Z"/><path class="cls-13" d="M113.18,332.93c.21.11.21.21,0,.32v-.32Z"/><path class="cls-29" d="M158.32,331.35c-.29.34-.43.79-.95.95-.24-.9-.3-.9.95-.95Z"/><path class="cls-25" d="M239.1,62.63c0,.31-.03.64,0,.95.05.56.32.6.32.63.21,4.38-.55,7.99-2.85,11.72-.89.17-.99.9-1.9,1.58-.34.26-.56.65-1.1.65-.67-1.05-2.51-2.21-3.65-2.55,6.14-3.1,8.67-11.49,3.8-16.79.12.92-.35,2.49-.95,3.17-3.08,3.45-8.7-.64-7.6-4.75.2-.76,2.21-2.32,3.17-2.22.34-.42-1.74-.87-2.09-.91-4.89-.6-10.42,2.08-11.84,6.94-.9-1.05-2.13-.78-2.11-2.64.01-.92,1.22-2.67-.42-2.75.71-.83,2.11-2.93,3.17-3.49,4.14-2.17,9.84-2.46,14.15-.69,4.87,2,8.48,6.11,9.92,11.15Z"/><path class="cls-3" d="M229.92,75.62c-.1-.03-.22.03-.32,0l-3.17-1.74c.97-.74,2.1-.6,3.22-1.22,3.5-1.94,5.15-7.14,3.12-10.67.6-.67,1.07-2.25.95-3.17,4.87,5.3,2.34,13.69-3.8,16.79Z"/><path class="cls-26" d="M190.32,252.76c-.13,1.42.31,2.82.32,3.8,0,.21,0,.42,0,.63h-.63c-.02.84.03,1.69,0,2.54,0,.11,0,.21,0,.32l-.5,1.29-3.3-.02c.22-2.84.73-5.72.95-8.55,1.04.25,2.37-.82,3.17,0Z"/><path class="cls-21" d="M190.95,255.61c0,.31-.03.64,0,.95h-.32c0-.99-.45-2.39-.32-3.8.05-.53.57-2,.63-2.54.31,1.5-.31,3.36-.3,4.65,0,.48.3.69.3.73Z"/><path class="cls-21" d="M190.63,257.2c0,.53-.34,2.02-.63,2.54.03-.84-.02-1.69,0-2.54h.63Z"/><path class="cls-3" d="M214.39,61.05c1.42-4.85,6.95-7.53,11.84-6.94.36.04,2.43.49,2.09.91-.96-.1-2.96,1.46-3.17,2.22-3.1-.92-6.75,1.83-7.85,4.66s-.49,4.76.57,7.38c-.13.13-2.12-.78-2.53-.95-.43-.18-.83-.47-1.27-.63-.67-2.24-.32-4.48.32-6.65Z"/><path class="cls-18" d="M211.86,55.66c1.65.08.44,1.83.42,2.75-.02,1.86,1.21,1.58,2.11,2.64-.64,2.17-.99,4.41-.32,6.65-1.99-.76-4.05-1.35-6.04-2.09.17-3.13,1.03-6.88,2.91-9.44.34-.46.87-.46.91-.5Z"/><path class="cls-10" d="M147.24,205.54c-1.44-9.48.92-22.11,4.8-30.85,5.99-13.52,18.74-25.36,34.13-25.83.77,3.17.51,6.42.66,9.64,1.27,28.71,1.18,61.03-.62,89.67-.09,1.42.05,2.86,0,4.27-19.38-1.87-31.12-18.81-36.27-36.13-.93-3.12-2.22-7.64-2.69-10.77Z"/><path class="cls-26" d="M186.2,252.44l-.95,8.56c-13.77-1.36-24.83-10.23-31.21-22.18-4.59-8.59-6.69-18.96-7.14-28.67-.06-1.38-.19-3.33.33-4.61.48,3.13,1.77,7.66,2.69,10.77,5.15,17.32,16.89,34.26,36.27,36.13Z"/><path class="cls-10" d="M187.15,252.76c.47-6.21.46-12.34.62-18.55.62-24.1,1.09-49.73.34-73.84-.05-1.6-.59-3.22-.33-4.89l1.77,3.14,2.04,1.84c.08,3.68-.12,7.38-.03,11.06.01.57.34,1.02.34,1.07.44,21.5.46,44.13-.32,65.59l-.65,6.17.33,3.34c-.08.87-.22,1.69-.32,2.54-.06.54-.58,2.01-.63,2.54-.8-.82-2.13.25-3.17,0Z"/><path class="cls-27" d="M162.12,119.67c-5.08-1.02-15.77-1.87-19.74-4.17-3.37-1.95-2-2.79-2.44-5.79-.07-.49-.62-.88-.63-1.29-.02-1.34,6.01-6.29,7.33-7.25,20.41-14.76,50.35-18.47,74.82-15.34,8.48,6.95,17.78,18.49,5.9,27.33-5.95,4.42-13.96,7.16-20.45,11.53-3.44,2.32-7.09,4.48-9.85,7.59l-4,.35c-2.29-3.27-6.09-4.67-9.4-6.62.12.03,1.57.29,1.76.3,1.37.11,3.09.04,4.41-.31.42-.11.51.27.49-.47-.09-2.5-4.12-7.05-5.45-9.45-.73-1.32-1.41-3.71-2.02-4.64-.67-1.02-8.11-5.59-9.57-6.27-3.75-1.74-11.02-3.77-15.05-2.87-1.45.32-1.57,2.79-2.72,2.1-.15-.09-.06-.84-.83-.91-.65-.06-2.89.82-2.99,1.48-.09.59,1.41,1.05-.07,2.77-.98,1.13-2.43.97-3.44,1.95-.08.33,1.68,1.73,2.07,2.05.99.81,6.56,4.85,7.35,5.01,2.2.44,4.96-.75,4.52,2.92ZM220.3,93.8c-4.92-5.22-10.99-5.46-17.78-5.5-2.48.46,1.59,3.68,2.2,4.45.19.24,1.56,2.39,1.44,2.51-1.07-.14-1.55-1.28-2.43-1.85-.77-.5-3.49-2.12-4.22-2.43-4.85-2.02-19.42.58-24.72,2.21-2.34.72-8.06,2.77-10.04,3.9-2.55,1.46,1.82,1.27,2.53,1.41,2.83.54,8.47,4.08,10.97,5.82,3.83,2.65,9.96,8.08,11.81,12.27.78,1.75,1.94,6.98,3.33,7.76,5.12,2.87,9.19-5.01,12.65-7.17,6.4-3.99,13.34-3.23,17.17-11.34,1.95-4.12.06-8.88-2.92-12.05Z"/><path class="cls-22" d="M162.12,119.67c.44-3.68-2.32-2.49-4.52-2.92-.79-.16-6.36-4.19-7.35-5.01-.39-.32-2.14-1.72-2.07-2.05,1.01-.98,2.46-.82,3.44-1.95,1.48-1.72-.02-2.18.07-2.77.1-.66,2.34-1.55,2.99-1.48.77.08.68.82.83.91,1.14.7,1.27-1.77,2.72-2.1,4.04-.9,11.3,1.13,15.05,2.87,1.47.68,8.9,5.24,9.57,6.27.61.92,1.29,3.32,2.02,4.64,1.33,2.41,5.36,6.96,5.45,9.45.03.74-.07.36-.49.47-1.33.35-3.04.42-4.41.31-.19-.02-1.64-.28-1.76-.3-3.62-.77-7.68-2.92-11.34-4.03-3.36-1.02-6.79-1.62-10.2-2.31Z"/><path class="cls-9" d="M234.67,105.73c1.86.35,1.52-1.14,2.21-2.06,1.6-2.13,2.62.69,3.62.46l.86-1.52c1.55-1.08,2.52,3.21,2.52,4.24,0,1.53-.78,2.91-1.29,4.28l3.8-1.58c.77,4.69-4.06,5.52-7.07,7.34-.46.28-1.57.87-1.48,1.53-.1.02-.22-.03-.32,0-.15.04-.27.17-.32.32-2.65.69-5.7,1.46-7.92,1.9-4.68.93-9.01,1.7-13.62,2.85-2.02.5-4.46.48-6.35,1.74l-.62-.47c.41.02.76-.12,1.12-.31,4.55-2.43,9.3-4.62,13.78-7.14,4.52-2.54,9.36-5.28,10.76-10.62l.32-.32c.03-.19-.02-.43,0-.63Z"/><path class="cls-19" d="M228.97,90.83c.27-.82.64-.49,1.2-.44,4.7.43,10.04,4.83,12.11,8.99,1.07.25.39-.68.7-1.19.1-.16.62-.23.84-.57.47-.73.17-1.95,1.62-1.72,3.05,2.97,5.25,5.65,5.7,10.14-.13.08-.22.26-.23.42,0,.24.23.44.23.53,0,1.25-.59,4.75-1.34,5.63-.13.16-.75.12-1.04.38-2.09,1.84-3.18,3.35-6.18,3.81-.15.02-.28.17-.32.32-.2.04-.49-.06-.63,0-.24.1-.3.31-.32.32-1.09.42-1.6.4-2.53.63-.27.07-.29.31-.32.32-.19.04-.44-.04-.63,0-.09-.66,1.03-1.25,1.48-1.53,3-1.82,7.84-2.65,7.07-7.34l-3.8,1.58c.51-1.37,1.3-2.75,1.29-4.28,0-1.02-.97-5.31-2.52-4.24l-.86,1.52c-1,.24-2.02-2.59-3.62-.46-.69.92-.35,2.42-2.21,2.06.51-5.39-2.19-10.95-5.7-14.89Z"/><path class="cls-22" d="M245.44,95.9c-1.45-.23-1.15.99-1.62,1.72-.22.34-.75.41-.84.57-.31.51.37,1.44-.7,1.19-2.07-4.16-7.41-8.57-12.11-8.99-.56-.05-.93-.38-1.2.44-1.01-1.13-2.69-2.24-3.64-3.48-.24-.32-.61-.4-.47-.95,7.59.94,15.11,4.17,20.59,9.5Z"/><path class="cls-9" d="M146.92,119.03c1.65,2.58,4.61,3.76,7.29,5.07-2.8,0-8.41.15-10.77-1.27-.06-.04-.06-.23-.16-.31l-.16.31c-.5.18-.72-.22-.95-.32l-.32-.32c-.23-.1-.5-.08-.95-.32,1.46-1.99-.62-2.6-1.14-4.45-.21-.75.19-.89.19-.94l6.97,2.54Z"/><path class="cls-5" d="M194.75,133.61c.45-.03,1.17-.07,1.58,0,.1.02.22-.02.32,0,.07.02,1.21.59,1.27.63,1.25,1.06,1.14,4.92.96,6.5-.43,3.63-5.59,3.63-6.51.16-.17-.62-.37-1.87-.46-2.55-.04-.3.04-.64,0-.95-.05-.44.1-1.74,0-1.9.34-.58,1.03-1.24,1.58-1.58.13-.08.25-.29.32-.32.08-.03.21.02.32,0,.2-.03.43.01.63,0ZM195.31,136.2c-3.52.45-2.43,5.96.83,5.64,2.97-.29,2.44-6.06-.83-5.64Z"/><path class="cls-19" d="M139.95,116.18c0,.1,0,.21,0,.32,0,.05-.4.19-.19.94.52,1.85,2.6,2.46,1.14,4.45-1.65-.88-2.66-1.42-3.62-3.19-.68-1.27-.96-2.99-.82-4.41,1.14.87,1.85,1.98,3.48,1.9Z"/><path class="cls-27" d="M139.95,116.18c-1.63.07-2.35-1.03-3.48-1.9.05-.51.38-2.06.95-2.22-.07,1.68,2.43,2.9,2.54,4.12Z"/><path class="cls-28" d="M194.75,133.61c-.21.01-.44-.03-.63,0l.47-.32.16.32Z"/><path class="cls-19" d="M234.35,106.68c.04-.16.31-.28.32-.32l-.32.32Z"/><path class="cls-28" d="M193.49,133.93l.32-.32c-.07.02-.19.24-.32.32Z"/><path class="cls-28" d="M196.65,133.61c-.1-.02-.21.02-.32,0l.16-.31.16.31Z"/><path class="cls-19" d="M143.43,122.84h-.32l.16-.31c.09.08.09.27.16.31Z"/><path class="cls-19" d="M142.17,122.52c-.13-.06-.23-.28-.32-.32l.32.32Z"/><path class="cls-10" d="M208.06,149.46l-1.13,2.86c2.37,1.23,4.95,2.17,7.24,3.54,5.74,3.43,10.96,9.29,14.61,14.85,1.07,1.63,2.28,5.04,3.65,6.17.36.3.97.86,1.28.14,4.36,13.08,4.47,26.32,2.85,39.93-.79-.16-.68.36-.85.87-.83,2.53-1.29,4.95-2.31,7.53-5.52,13.9-16.64,25.56-32,27.72,1.89-20.24,1.26-40.06,1.25-60.38,0-12.82-.35-25.68-.62-38.49-.04-1.83.51-3.69.32-5.7.88.02,1.77-.07,2.66.04,1.23.14,2.06.65,3.05.91Z"/><path class="cls-10" d="M200.45,253.08l-3.17.32v1.74s-.63-.47-.63-.47c.18-1.79.52-3.6.63-5.39.04-.63-.03-1.27,0-1.9.1-.61.32-1.33.32-1.9-.34-1.72.35-3.69.34-5.24,0-.43-.34-.74-.34-.78,0-.21,0-.42,0-.63.53-.33.32-1.2.32-1.74.28-22.31-.38-44.76,0-67.03,0-.04.32-.36.33-.77.09-2.94-.14-5.9.04-8.85l2.96-3.06c.36,2.24.06,4.56.14,6.82.85,23.46,1.18,49.42.34,72.88-.19,5.28-.73,10.74-1.28,15.99Z"/><path class="cls-5" d="M190.63,150.72l1.27-6.34c1.95,2.23,5.14,2.22,7.13,0l1.1.63c.65,2.49,1.46,5.35.95,7.92-1.27.46-1.49,1.73-2.88,2.34-4.03,1.77-6.7-.77-7.57-4.56Z"/><path class="cls-14" d="M193.17,161.18c-.02-.4-.96-2.86.18-3.13l3.62.28c.31.71-.28,1.52-.32,1.9l-2.85.64s.25.56.32.63c-.27-.12-.67-.11-.95-.32Z"/><path class="cls-14" d="M196.34,162.45c.06.1-.11.51.02.71.19.31.57.15.64.7.11.85-.03,2.37-.02,3.35-2.46.09-2.68,1.2-.32,1.9.02,1.21.3,2.69.32,4.12-2.13.13-2.34,2.87,0,2.54,0,.32,0,.63,0,.95-2.19.27-2.18,2.27,0,2.54,0,.42,0,.85,0,1.27-2.05.19-1.28,1.2-1.58,2.22-.73-.31-1.32-.8-2.22-.63,0-.42,0-.85,0-1.27,2.86.22,2.42-2.18,0-2.22,0-1.58,0-3.17,0-4.75,3.25-.92,2.66-.99,0-2.22,0-.32,0-.63,0-.95l2.21-.79c-.66-.61-1.14-1.56-2.21-1.43-.01-1.47.02-2.96,0-4.44l1.54-1,.05-1.22c.32.16,1.4.34,1.58.63Z"/><path class="cls-14" d="M195.39,182.73c.32.14,1.16.12,1.25.51v1.35s-1.22.38-1.22.38c-.27,1.28.29,1.73,1.55,1.55,0,.42,0,.85,0,1.27l-2.22.8c-.17.59,1.78,1.37,2.22,1.42,0,.32,0,.63,0,.95-2.3.38-1.92,1.84,0,2.54,0,.21,0,.42,0,.63-2.6.24-2.63,2.56,0,2.54,0,.42,0,.85,0,1.27l-2.22.95,1.9,1.26v.95l-2.22,1.27c-.07-.02-.93.73-.95-.63l1.61-.51c-.03-1.05-.63-1.72-1.61-2.03.03-.15.02-.46,0-.63.81.07,1.44-.28,1.58-1.12.15-.91-.35-.88-1.26-1.1-.7-.62,0-1.42,0-1.58l1.9-.64-1.9-1.26c.02-.34-.46-.91-.19-1.28l2.72-1.25-3.17-1.27c0-.21,0-.42,0-.63,2.67-.06,2.2-2.14,0-2.54,0-.32,0-.63,0-.95.86,1.02,1.99-1.47,2.22-2.22Z"/><path class="cls-14" d="M194.75,161.81c-.2-.11-.42-.1-.63-.32.19.09.51,0,.63.32Z"/><path class="cls-12" d="M190.63,150.72c.87,3.8,3.54,6.33,7.57,4.56,1.39-.61,1.62-1.88,2.88-2.34-1.17,5.88-9.53,5.67-10.87.26-.35-1.4-.46-3.67.1-5.01-.03,1.18.09,1.53.32,2.54Z"/><path class="cls-21" d="M200.14,145.02l-1.1-.63c-1.99,2.21-5.18,2.22-7.13,0l-1.27,6.34c-.23-1.01-.35-1.36-.32-2.54.06-2.29.8-4.13,1.27-6.34.7.55,1.09,1.53,1.91,2.04,1.82,1.13,4.85.59,5.85-1.41.41-.03.68,2.09.79,2.53Z"/><path class="cls-20" d="M195.39,182.73c-.22.75-1.36,3.23-2.22,2.22,0-.95,0-1.9,0-2.85.89-.17,1.49.32,2.22.63Z"/><path class="cls-20" d="M196.97,180.51v6.02c-1.26.17-1.83-.27-1.55-1.55l1.22-.38v-1.35c-.09-.39-.93-.38-1.25-.51.3-1.01-.46-2.03,1.58-2.22Z"/><path class="cls-15" d="M193.17,189.07l3.17,1.27-2.72,1.25c-.27.37.2.94.19,1.28-.04.8-.01,1.11,0,1.9,0,.16-.7.97,0,1.58-.18-.04-.43.03-.63,0v-7.29Z"/><path class="cls-20" d="M196.97,194.14c0,.84,0,1.69,0,2.54-2.63.03-2.6-2.29,0-2.54Z"/><path class="cls-20" d="M193.49,199.21c.97.31,1.57.98,1.61,2.03l-1.61.51h-.32c0-.74,0-1.48,0-2.22.15-.04.28-.16.32-.32Z"/><path class="cls-20" d="M193.17,188.43c0-.84,0-1.69,0-2.54,2.2.4,2.67,2.47,0,2.54Z"/><path class="cls-20" d="M193.17,178.61c2.42.04,2.86,2.44,0,2.22,0-.74,0-1.48,0-2.22Z"/><path class="cls-20" d="M193.17,170.69c0-.74,0-1.48,0-2.22,1.07-.13,1.55.81,2.21,1.43l-2.21.79Z"/><path class="cls-20" d="M196.97,173.22c0,.84,0,1.69,0,2.54-2.34.33-2.13-2.41,0-2.54Z"/><path class="cls-20" d="M193.8,196.35c.91.22,1.41.18,1.26,1.1-.14.84-.77,1.19-1.58,1.12-.02-.15-.17-.28-.32-.32v-1.9c.2.03.46-.04.63,0Z"/><path class="cls-20" d="M196.97,203.64c-.85-.33-1.7-.98-2.53-1.27l2.22-1.27c.54.68.32,1.69.32,2.54Z"/><path class="cls-20" d="M193.17,209.66c1.02-.81,1.75.38,2.54.79l-2.54,1.11v-1.9Z"/><path class="cls-20" d="M196.65,160.23c-.08.7.29,1.77-.32,2.22-.19-.3-1.27-.47-1.58-.63-.12-.32-.44-.23-.63-.32-.07-.07-.36-.61-.32-.63l2.85-.64Z"/><path class="cls-20" d="M194.12,161.5c.22.22.43.21.63.32l-.05,1.22-1.54,1c-.01-.95.04-1.91,0-2.85.28.21.68.2.95.32Z"/><path class="cls-21" d="M191.27,247.69l-.33-3.34.65-6.17c-.11,3.16,0,6.35-.32,9.51Z"/><path class="cls-20" d="M193.17,221.39c0-.84,0-1.69,0-2.54,2.27.79,2.84,2.08,0,2.54Z"/><path class="cls-20" d="M193.17,203.01c2.91-.39,1.77,3.64,0,1.58,0-.53,0-1.06,0-1.58Z"/><path class="cls-20" d="M196.97,176.71c0,.84,0,1.69,0,2.54-2.18-.26-2.19-2.27,0-2.54Z"/><path class="cls-20" d="M196.97,187.8c0,.74,0,1.48,0,2.22-.43-.06-2.39-.83-2.22-1.42l2.22-.8Z"/><path class="cls-20" d="M193.17,222.34l2.54,1.11-2.54,1.11c0-.74,0-1.48,0-2.22Z"/><path class="cls-20" d="M196.97,190.97c0,.84,0,1.69,0,2.54-1.92-.7-2.3-2.15,0-2.54Z"/><path class="cls-20" d="M193.17,171.64c2.66,1.23,3.25,1.3,0,2.22,0-.74,0-1.48,0-2.22Z"/><path class="cls-20" d="M196.97,197.94c0,.76.2,1.62-.32,2.22l-1.9-1.26,2.22-.95Z"/><path class="cls-20" d="M193.17,206.81c1.53-2.08,2.73,2.14,0,.95,0-.32,0-.63,0-.95Z"/><path class="cls-20" d="M196.97,167.2c0,.36-.33,1.11-.32,1.9-2.37-.7-2.15-1.81.32-1.9Z"/><path class="cls-15" d="M193.49,198.57c.02.17.03.48,0,.63s-.16.27-.32.32c0-.42,0-.85,0-1.27.15.04.3.17.32.32Z"/><path class="cls-14" d="M192.85,238.5c.01-.32-.01-.63,0-.95.48.04.48.91,0,.95Z"/><path class="cls-25" d="M148.19,86.08c-.01-1.47.85-2.65.32-4.12,9.11-.75,14.62-11.83,8.39-19.01-.21,1.24-.24,2.47-1.11,3.48-3.28,3.81-9.96-.32-7.92-5.07.63-1.48,2.21-1.53,3.17-2.53-4.54-1.57-10.86.1-13.62,4.12-2.39-.59-1.66-2.99-2.22-4.75,11.61-10.1,30.99,0,27.42,15.54-1.45,6.32-8.09,11.78-14.43,12.34Z"/><path class="cls-18" d="M137.42,62.95c-5.85,8.52.87,19.85,11.09,19.01.53,1.47-.33,2.65-.32,4.12-16.91,1.49-25.24-17.23-12.99-27.89.55,1.76-.17,4.17,2.22,4.75ZM147.87,82.28h-1.58v.31h1.58v-.31Z"/><path class="cls-28" d="M242.27,117.13c.04-.15.17-.29.32-.32-.04.14-.17.29-.32.32Z"/><path class="cls-28" d="M241.32,117.45s.08-.22.32-.32l-.32.32Z"/><path class="cls-28" d="M238.47,118.4s.05-.25.32-.32l-.32.32Z"/><path class="cls-28" d="M237.2,118.72c.05-.15.17-.28.32-.32-.06.13-.18.28-.32.32Z"/><path class="cls-7" d="M166.56,128.54c5.28.18,11.39.96,16.16,3.32.56.28,2.23,1,2.21,1.75-.48-.07-1.15.1-1.58,0-.92-.21-3.52-1.92-5-2.45-3.68-1.3-6.88-1.52-10.68-2.01-.59-.08-1.29.4-1.11-.62Z"/><path class="cls-26" d="M236.57,216.95c-2.19,18.32-9.4,36.53-28.44,42.69-.65.21-7.65,2.08-7.68,1.51.58-2.67.71-5.39.96-8.08,15.36-2.16,26.48-13.82,32-27.72,1.02-2.57,1.48-5,2.31-7.53.17-.52.07-1.03.85-.87Z"/><path class="cls-5" d="M208.06,149.46c13.44,3.62,21.52,15.15,25.66,27.57-.31.72-.92.16-1.28-.14-1.36-1.13-2.57-4.54-3.65-6.17-3.66-5.57-8.87-11.42-14.61-14.85-2.29-1.37-4.87-2.31-7.24-3.54l1.13-2.86Z"/><path class="cls-26" d="M200.45,253.08c-.29,2.76-.55,5.53-1.1,8.25l-3.34.62c.03-.31,0-.64,0-.95,0-.11,0-.21,0-.32.53-.34.31-1.3.32-1.9.02-1.52.18-2.73.32-4.12l.64.47v-1.74s3.17-.32,3.17-.32Z"/><path class="cls-19" d="M239.42,64.21s-.27-.07-.32-.63l.32.63Z"/><path class="cls-28" d="M197.29,249.27c-.85-.54-.07-1.49,0-1.9-.03.63.04,1.27,0,1.9Z"/><path class="cls-28" d="M196.02,260.68c0-.11,0-.21,0-.32.01-.51-.19-1.32.32-1.58,0,.6.21,1.56-.32,1.9Z"/><path class="cls-28" d="M196.02,261.95c-.49-.02-.49-.93,0-.95,0,.31.03.64,0,.95Z"/><path class="cls-22" d="M220.3,93.8c2.99,3.17,4.87,7.93,2.92,12.05-3.83,8.11-10.77,7.35-17.17,11.34-3.47,2.16-7.53,10.03-12.65,7.17-1.39-.78-2.56-6-3.33-7.76-1.86-4.19-7.98-9.62-11.81-12.27-2.51-1.73-8.14-5.28-10.97-5.82-.71-.13-5.08.05-2.53-1.41,1.98-1.13,7.7-3.19,10.04-3.9,5.3-1.63,19.87-4.23,24.72-2.21.73.31,3.45,1.93,4.22,2.43.87.57,1.36,1.7,2.43,1.85.12-.12-1.25-2.27-1.44-2.51-.6-.77-4.68-4-2.2-4.45,6.8.04,12.87.27,17.78,5.5Z"/><path class="cls-27" d="M195.31,136.2c3.27-.42,3.8,5.35.83,5.64-3.26.32-4.35-5.19-.83-5.64ZM194.98,137.48c-1.19.36-1.36,2.83.08,3.29,2.81.9,3.15-4.26-.08-3.29Z"/><path class="cls-20" d="M193.8,192.87l1.9,1.26-1.9.64c-.01-.79-.04-1.1,0-1.9Z"/><path class="cls-8" d="M147.87,61.36c-2.04,4.75,4.64,8.88,7.92,5.07.66.29.84,1.14.92,1.77,1.51,11.77-13.88,14.89-17.64,4.97-2.31-6.11,2.15-12.61,8.8-11.81Z"/><path class="cls-3" d="M137.42,62.95c2.76-4.02,9.08-5.69,13.62-4.12-.96,1-2.53,1.05-3.17,2.53-6.65-.8-11.11,5.71-8.8,11.81,3.76,9.92,19.15,6.81,17.64-4.97-.08-.63-.26-1.49-.92-1.77.87-1.01.9-2.24,1.11-3.48,6.23,7.18.72,18.26-8.39,19.01-10.21.84-16.94-10.49-11.09-19.01Z"/><rect class="cls-25" x="146.29" y="82.28" width="1.58" height=".31"/><path class="cls-21" d="M194.98,137.48c3.23-.97,2.9,4.19.08,3.29-1.44-.46-1.27-2.93-.08-3.29Z"/><rect class="cls-1" width="358.65" height="358.65"/></g></svg>