<?xml version="1.0" encoding="UTF-8"?><svg id="Lager_2" xmlns="http://www.w3.org/2000/svg" viewBox="0 0 358.65 358.65"><defs><style>.cls-1{fill:none;}.cls-2{fill:#d29018;}.cls-3{fill:#f8ed85;}.cls-4{fill:#e2b767;}.cls-5{fill:#f7efa0;}.cls-6{fill:#c98315;}.cls-7{fill:#f4d561;}.cls-8{fill:#ecaf2e;}.cls-9{fill:#f1ba30;}.cls-10{fill:#fcf3cd;}.cls-11{fill:#e3a622;}.cls-12{fill:#f8ec68;}.cls-13{fill:#db9c1a;}.cls-14{fill:#fed863;}.cls-15{fill:#fadd71;}.cls-16{fill:#fbce54;}.cls-17{fill:#fdfbf2;}.cls-18{fill:#fed747;}.cls-19{fill:#fde853;}.cls-20{fill:#f9bf3a;}.cls-21{fill:#bd7318;}.cls-22{fill:#dfa01f;}.cls-23{fill:#fdde47;}.cls-24{fill:#d89816;}.cls-25{fill:#fbc747;}.cls-26{fill:#ac6418;}</style></defs><g id="Lager_1-2"><polygon class="cls-7" points="204.71 85.61 108.55 121.99 101.64 125.89 87.76 149.48 42.97 167.04 25.4 218.37 72.19 231.56 112.03 237.62 127.12 234.94 129.15 245.41 216.4 260.57 238.92 253.64 338.52 206.44 343.72 202.54 323.8 156.2 269.42 148.84 266.2 145.81 285.61 135.75 270.53 94.27 214.67 83.29 204.71 85.61"/><path d="M124.16,113.76c1.59-.55.48-.95,1.14-1.32,30.28-10.45,59.9-23.12,90.52-32.43,12.07,1.72,24.2,3.26,36.23,5.23,7.3,1.2,18.49,1.34,22.15,8.6l14.49,41.39c.39,2.3-.94,4.16-2.56,5.59l-6.94,3.67c12.08,2.08,24.45,3.31,36.46,5.77,8.26,1.69,10.42,2.49,13.68,10.58,5.42,13.47,9.06,28.14,14.39,41.69.09,1.48.09,3.11-.87,4.33-.51.65-2.62,1.92-3.46,2.39-7.7,4.31-17.3,8.37-25.4,12.27-26.19,12.61-53.72,26.64-80.41,37.81-12.49,5.23-15.68,5-28.96,2.82-23.12-3.79-46.08-8.86-69.21-12.64-5.02-1.75-11.96-4.32-9.53-11.04-8.36,4.1-15.45,3.77-24.4,2.52-22.99-3.2-46.31-9.95-69.24-13.91-2.26-.64-7.65-2.82-9.01-4.64-2.8-3.76.28-8.39,1.54-12.12.21-.61.07-1.37.19-1.74,3.6-10.52,8.01-22.69,12.24-33.02,1.42-3.48,2.65-6.17,5.75-8.54,2.65-2.03,13.16-6.24,16.35-5.55.7.15,1.31.53,1.61,1.21-.14.05-.28.37-.43.43-6.09,2.37-15.94,4.29-19,10.23-3.3,6.4-5.42,14.97-7.85,21.82-1.71,2.91-8.11,20.14-8.24,23.19-.18,4.16,3.5,4.15,6.51,4.96,11.13,3,29.01,7.14,40.28,8.23.52.64,1.28.66,2.01.8,8.43,1.71,17.22,3.72,25.71,4.83,8.99,3.14,18.71,1.76,27.22-2.24.21-.21,0-.6.06-.79.31-.99.53-2.05.87-3.03,3.47-10,7.04-19.99,10.51-29.98.87-2.5,1.25-5.65,2.14-7.82.59-1.46,1.98-2.08,1.65-3.77-8.1-1.32-16.13-3.04-24.17-4.65-.79-.16-1.64,0-2.25-.12-1.43-.29-2.9-.57-4.33-.87-2-.41-4.05-.87-6.06-1.3-4.3-.92-8.75-1.9-12.99-3.03-3.2-.85-7.3-1.76-9.96-3.9-.13-.11-.32-.3-.43-.43-.81-.94-1.26-2.66-1.3-3.9-.06-1.82.72-3.86,1.3-5.63.84-2.58,2.07-5.57,3.03-8.23.34-.95,1.44-2.49,1.73-3.69-.03-.4-.73-.24-1.05-.18-4.28.78-11.81,4.39-16.27,6.04-.13.05-.31-.05-.43,0l-3.03-.88.9-1.47,20.74-7.85c4.6-7.82,6.4-23.94,14.88-28.43,2-1.06,7.18-2.95,9.39-3.39.33-.07.74-.62,1.28-.23.98.46.95,1.36,1.32,1.97-2.86,2.45-7.41,2.93-10.72,4.68-.6.32-.76.81-.98.95-.51.34-.58.15-1.3.87-1.64,1.63-2.13,2.82-3.11,4.9-1.83,3.89-3.33,8.33-4.69,12.42-1.22.03-7.43,20.42-8.23,22.95-1.05,1.84-1.97,5.73-.23,7.37,2.55,2.4,10.92,3.5,14.52,4.32,9.64,2.22,20.92,4.61,31.61,6.06,6.07,1.45,12.3,2.51,18.48,3.39,4.76.68,10.11,1.67,14.87,1.8,1.1.03,2.39.09,3.46,0,5.44-.44,11.04-3.52,16.02-5.63,33.27-14.11,65.74-30.3,98.74-45.04,1.16-.54,2.6-1.22,2.52-2.69-.15-2.95-3.27-10.61-4.35-13.91-.19-.57-.72-.99-.77-1.16-2.07-6.27-5.98-22.45-9.53-26.85-3.06-3.8-5.2-3.01-9.53-3.46-9.5-2.31-19.34-3.33-29.02-4.76-7.5-1.11-14.13-3.59-21.66-1.52-15.37,4.23-33.73,12.38-49.04,18.09-9.66,3.6-19.24,7.59-28.91,11.15-4.68,1.72-9.57,3.14-14.29,4.76,1.51-3.09,2.44-3.23,5.63-4.33ZM275.73,147.11c-4.09-.05-13.66,5.54-17.76,7.36-26.17,11.65-53.77,25.69-80.26,36.02-3.73,1.45-7.12,2.43-11.12,2.96-.68.09-1.46-.05-2.17,0-.13-.43-.5-.38-.87-.43-.28-.04-.59.04-.87,0-3.25-.53-10.27-2.21-12.99-1.73-2.04.36-2.58.73-3.9,2.17-1.82,1.98-2.39,4.37-3.36,6.82-4.43,11.25-8.85,23.6-12.23,35.19-1.73,5.94-4.17,7.63,3.03,9.96,1.17.38,2.37,1.19,3.82,1.16l58.54,10.53c2.44.49,4.95.81,7.36,1.3,1.75.36,2.96.58,4.76.87.31.05.97.32,1.73.43.03,0,.11.39.43.43.41.06.88-.05,1.3,0,1.31.15,2.57.38,3.9.43.43.02.87,0,1.3,0,5.52.02,9.53-.8,14.59-2.95l7.5-3.98c.13-.05.31.05.43,0,1.36-.49,3.08-.89,3.9-2.17.38-.14,1.15.04,1.6-.33,21.63-10.42,43.25-20.92,64.94-31.22,8.83-4.19,21.17-8.56,29.17-13.49,2.12-1.31,2.48-1.67,2.06-4.44-4.56-12.87-8.32-26.08-13.09-38.88-.25-.66-.26-1.44-1.09-1.72-.6-2.6-.49-3.27-2.6-5.2-1.96-1.79-3.08-1.75-5.63-2.17-.87-.14-1.73-.32-2.6-.43-5.41-1.44-11.05-1.8-16.57-2.71-6.96-1.14-16.38-3.7-23.28-3.79Z"/><path class="cls-17" d="M112.03,117.66c-.45-1.83-1.29-2.61-3.02-3.26-.99-.37-2.51.32-2.18-1.06,5.51-.48,8.65-6.2,8.66-11.26,1.14-.13.68.02.87.64,1.5,4.97,1.52,7.45,6.6,9.88.62.3,1.42.05,1.18,1.18-3.19,1.1-4.12,1.24-5.63,4.33-.24.5-.63.11-.87,1.73-.04.28.06.62,0,.87l-.82.05-.04,1.25h-.64c-.58-.84-.99-1.73-1.52-2.6-.37-.6-.34-1.51-1.32-1.97-.54-.39-.95.17-1.28.23Z"/><path class="cls-17" d="M69.59,159.67c-.21,1.46-2.09,1.62-3.04,2.81-.62.78-.55,1.28-.86,1.96-.42.93-.6.92-.87,2.17h-1.3c-.04-.15-.39-.3-.43-.43-.58-1.57-.99-2.32-2.6-3.03.15-.06.29-.38.43-.43,2.72-1.05,5.5-2.02,8.23-3.03.13-.05.31.05.43,0Z"/><path class="cls-17" d="M63.96,151l1.27,7.09-4.73,1.57c1.25-1.43,1.95-3.33,2.4-5.17.3-1.24-.38-3.81,1.06-3.49Z"/><path class="cls-20" d="M92.97,183.92c4.24,1.49,4.36,3.7,5.08,7.7,1.19,6.65,2.23,14.16,3.15,20.88.75,5.47,2.01,12.59,2.18,17.96.18,5.59-3.27,4.11-7.59,3.69-7.89-.76-15.74-1.84-23.61-2.59-11.27-1.09-29.14-5.23-40.28-8.23-1.4-5.41,3.31-11.15,5.2-16.02.99.17,1.32-.33,1.96-.85,2.3-1.86,12.05-11.33,13.82-11.3.76.01.63.46.67.46l-13.01,14.1c1.96,4.9,6.39,8.45,9.11,12.98l1.44.59,40.14-39.36c.57.05,1.16-.05,1.73,0Z"/><path class="cls-25" d="M147.11,137.58c.89.21,6.21,1.13,6.5,1.3.05.03.02.71.45,1.04,2.52,1.96,3.59,2.87,4.2,6.21,1.47,8.07,1.68,18.6,2.28,26.96.27,3.8.5,6.37.41,10.17s2.4,4.38,5.66,3.69l-.86,1.29c.86-.03,1.74.07,2.6,0v.87c-1.08.09-2.36.03-3.46,0,.24-1.31-.66-.83-1.49-.87-1.48-.06-4.27.05-5.58-.42-.53-.19.19-1.62-2.72-2.14-7.39-1.32-15.73-.71-23.56-1.77-10.69-1.45-21.97-3.85-31.61-6.06l47.2-40.28Z"/><path class="cls-9" d="M315.57,153.6c.87.12,1.73.29,2.6.43.03,1.04-.57,1.14-1.3,1.52-5.12,2.65-11.39,4.7-16.75,7.07-20.09,8.89-40,18.4-60.35,26.69-3.74,1.52-9.23,4.22-12.98,4.99-1.71.35-5.12,1.01-5.63-1.29l1.5-.43.03-.88-5.43-1.29c-.7-1.43-1.54-4.04-1.73-5.63s.33-3.66-.22-5.2l-1.06,4.2c-.05.62.42.95.42,1-.04.85-.27,1.1-.43,1.73,0,.03-.35.16-.43.43-.29.98-.28,2.19-.85,3.18-.23.4-.86.24-.89.28-4.63-1.79-9.66-1.75-14.54-2.15-.58-.05-1-.44-1.05-.45.29-.71.94-.95,1.57-1.25,20.16-9.7,39.95-19.96,59.93-29.93,1.63-.82,4.15-1.45,5.63-2.17,2.66,1.58,6.67,2.18,9.8,2.55,3.85.45,9.06-.46,11.86.05,3.08.56,6.49,2.42,10.16,2.61,2.46.13,12.91-1.9,8.44-5.4-3.48-.56-6.91-1.33-10.37-1.97-2.15-.4-4.35-.95-6.5-1.3-.31-1.34,1.21-.93,1.93-.86,1.86.17,3.59,1.01,5.25,1.26,7.02,1.03,14.36,1.27,21.4,2.2ZM268.24,159.76c-.59.18-1.62,1.21-1.62,1.86.5,2.46,4.53,2.69,5.44.64s-2.04-3.02-3.82-2.49Z"/><path class="cls-14" d="M147.11,137.58l-47.2,40.28c-3.6-.83-11.96-1.93-14.52-4.32-1.74-1.64-.83-5.53.23-7.37.74-1.3,4.15-3.63,5.43-5.18,3.56-4.34,7.07-11.15,8.87-16.47,1.91.42,2.71-1.84,4.12-3.02,3.28-2.75,7.2-5.35,10.65-7.97.59-.45,1.3-.58,1.25-1.57,10.39,1.7,20.93,3.24,31.18,5.63Z"/><path class="cls-8" d="M323.8,156.2c2.1,1.93,2,2.59,2.6,5.2.26,1.14.81,3.5.43,4.33-1.1-2.29-1.98-4.04-4.76-3.9l-.22-2.17c-10.53,3.14-19.83,9.68-30.17,13.47l-1.22,1.25c-5.92,2.53-11.86,5.64-17.76,8.23-1.56.69-3.32,1.53-4.76,2.17-6.37,2.81-12.72,5.8-19.05,8.66-8.31,3.75-17.13,6.83-25.42,10.75-2.04.96-2.54,1.3-2.27,3.72.36,3.15,2.01,8.55,2.78,11.96,2.38,10.54,5.01,21.07,7.93,31.48l1.26,1.37c1.38.38,14.08-5.72,16.44-6.8,7.03-3.21,13.92-6.79,20.93-10.04,2.71-1.26,5.5-2.63,8.23-3.9s5.62-2.68,8.23-3.9c6.85-3.2,13.78-6.26,20.63-9.47,8.73-4.08,19.87-8.07,28.01-12.7,3.8-2.16,3.08-3.34,2.46-7.29,1.16-.25.84.58,1.08,1.28.87,2.57,2.02,4.74-.64,6.51-8,4.93-20.34,9.29-29.17,13.49-21.69,10.3-43.31,20.8-64.94,31.22-.45.37-1.22.19-1.6.33-1.1.41-3.97.62-3.9,2.17-.13.05-.31-.05-.43,0-2.88,1.08-5.91,2.12-8.66,3.03-3.67-11.37-6.06-23.21-9.2-34.77-.15-.54-.74-.69-.76-.74-.92-3.38-1.28-7.26-2.38-10.83-.42-1.37-.82-3.62-1.95-4.33-.34-1.22,1.02-1.96,1.3-2.6l106.97-47.2Z"/><path class="cls-26" d="M115.93,184.78c.61.12,1.45-.04,2.25.12,8.04,1.61,16.07,3.32,24.17,4.65.33,1.69-1.05,2.31-1.65,3.77-.88,2.17-1.27,5.32-2.14,7.82-3.47,10-7.05,19.98-10.51,29.98-.91-.21-2.35-.43-2.81-1.31-.55-1.04-1.98-7.75-2.39-9.52-2.35-10.07-5.37-22.74-6.81-32.82-.13-.9-.18-1.78-.12-2.69Z"/><path class="cls-3" d="M261.44,90.38c4.33.45,6.46-.34,9.53,3.46l-.43.43c-2.82-2.21-5.3,1.08-8.23,1.3-.19-1.01-.58-1.97-.43-3.03l-1.27.02c-.34.22-.74,3.71-1,4.44-.2.56-.71.66-.76.74-2.86.57-5.53,1.74-8.21,2.83-25.82,10.47-52.25,22.22-77.1,33.55-.51.17-1.29.2-1.73.43-.58-.81-2.78.13-2.6,1.3-1.29.31-2.63.58-3.9.87-.95.21-4.05.18-4.28,1.11.27,2.52.93,5.05,1.25,7.55.63,4.96,1.02,9.87,1.73,14.72-4.54.71-.45,2.96-.09,4.2.13.42.56,5.92.46,6.31-.24.91-2.61,2.98-3.83,2.48-.6-8.35-.81-18.89-2.28-26.96-.61-3.35-1.68-4.25-4.2-6.21-.43-.33-.41-1.01-.45-1.04l.43-.43c.27.04.58-.02.87,0-.25,1.26.69.9,1.51.88,2.36-.05,3.26-.93,4.95-2.44.57-1.83-3.65-2.6-4.73-2.77-.54-.09-1.2.09-1.73,0,.26-1.28-.63-.77-1.38-.98-7.68-2.19-15.54-2.63-23.3-3.35-.28-.03-.58.02-.87,0,.25-1.38-.69-.72-1.49-.87-3.87-.75-7.17-.88-11.07-1.29.03-.86-.07-1.74,0-2.6,11.21,2.15,22.46,4.13,33.78,5.63,3.28.43,6.63,1.48,9.96,1.3,1-.05,1.23-.34,1.73-.43.69-.13,1.08-.23,1.73-.43,1-.3,2.02-.6,3.03-.87.44,1.24.51,2.12.8,3.32.1.4-.13,1.41.71,1.01.94-.45,1.5-4.28,1.95-5.63,1.32.3,2.24-.97,3.03-1.3,1.17-.48,2.62-.8,3.9-1.3l.43-.43c.4-.16,1.07-.17,1.73-.43l.43-.43c25.27-9.86,52.91-20.26,77.38-31.97,1.09-.52,3.63-1.14,3.17-2.68.28.03.58-.03.87,0Z"/><path class="cls-6" d="M111.6,183.92c1.43.29,2.9.58,4.33.87-.06.91,0,1.79.12,2.69,1.44,10.08,4.46,22.76,6.81,32.82-.91-.11-1.46.13-1.86.98-1.07,2.27,2.7,10.68,2.29,13.74-2.47.88-5.91,2.7-8.48,3.03-1.15.15-2.08-.46-2.78-.43,4.64-3.53,2.07-8.75,1.3-13.43-1-6.02-2.01-12.73-3.46-18.62-.09-.36.06-.89,0-1.3l-.43-.87c.04-.25,0-.59,0-.87-.02-.8.02-1.46-.87-1.73-.04-.27.02-.58,0-.87l.36-.27-.36-.6-.43-2.17v-.43c-.04-.28.02-.58,0-.87-.04-.57.04-1.16,0-1.73h-.87c-.04-.42.02-.87,0-1.3l.42-.22-.42-.22c-.06-.41.04-.88,0-1.3v-1.3s-.87,0-.87,0c-.06-.27.07-.65,0-.87h.87c.12.32.49.7.68,1.25.22.63.04,1.91.24,2.15.35.41,3.95,1.27,4.69.47-.23-2.58-1.09-5-1.8-7.47-.22-.77-.95-1.31.52-1.16Z"/><path class="cls-12" d="M323.8,156.2l-106.97,47.2c.28-.66.55-2.16.87-3.03.05-.13-.05-.31,0-.43,1.62,0,1.66-1.46,2.17-2.17,1.93-.81,3.82-1.64,5.86-2.17,1.03-.26,1.23.52,1.06-1.3,3.75-.77,9.24-3.47,12.98-4.99,20.35-8.29,40.26-17.8,60.35-26.69,5.36-2.37,11.63-4.42,16.75-7.07.73-.38,1.33-.48,1.3-1.52,2.55.41,3.67.37,5.63,2.17Z"/><path class="cls-21" d="M257.97,154.47l.33.26-.33,1.91c-19.98,9.98-39.77,20.24-59.93,29.93-.62.3-1.28.54-1.57,1.25-1.25-.07-5.08,1.55-6.5,2.17.24-1.29-.67-.86-1.5-.87-4.24-.06-7.23,1.57-11.06,3.04l2.16,2.16c-.27.11-2.03,1.47-2.6,1.73-.54-.05-1.28.11-1.73,0-2.27-.54-4.73-1.23-7.17-1.73-.79-.16-1.74.52-1.49-.87,4-.52,7.39-1.5,11.12-2.96,26.49-10.33,54.09-24.37,80.26-36.02Z"/><path class="cls-15" d="M60.49,163.13c1.61.72,2.02,1.46,2.6,3.03-2.32.3-5.59,1.42-7.67,2.51-.49.26-1.43.67-.57,1.18s8.77,1.83,9.1,1.51c-.26-1.3-.14-3.64-.43-4.76h1.3c-.33,1.54-.61,3.13-.39,4.72,4.71,1.04,9.44,2.04,14.19,2.94.77.15,1.61-.17,1.35,1-.76-.11-2.98-.39-3.58-.34-1.39.13-2.95,1.91-4.65,2.07-1.16-.14-2.31-.27-3.46-.43-.05,0-.12-.33-.87-.43-1.06-.15-2.36.1-3.46,0l-.05-.8c-.96-.59-1.71-.07-2.11-.07-.29,0-.58,0-.87,0v-.86c-.64-.28-1.14.41-1.3.43-.41.06-.88-.04-1.3,0v-.86c-.39-.15-.82.43-.87.43-.94-.08-1.97-.67-3.03-.43v-.87c-.28-.04-.58.03-.87,0-1.41-.15-9.92-2.14-8.03.88.68,1.08,8.46,2.26,10.2,2.58v.87c-2.01-.24-7.2-1.82-8.67-1.09-.94.47-2.65,6.98-3.02,8.45-1.01-.26-1.25.87-1.3,1.73h.86c-.05.26.06.61,0,.87h-.87c-.04.28.03.59,0,.87-.06.55.09,1.21,0,1.73l-7.33,2.84c-.87.53-1.27,1.52-1.76,2.35,2.43-6.85,4.55-15.42,7.85-21.82,3.06-5.94,12.91-7.86,19-10.23Z"/><path class="cls-8" d="M282.22,129.35c1.03-.26,1.4,1.81,1.63,2.49.88,2.66,1.99,4.83-.76,6.61-32.99,14.74-65.47,30.92-98.74,45.04l-.26-.34c-.51,0-.99.2-1.47.34-.23-1.05.54-.9,1.14-1.22,8.49-4.57,17.9-8.93,26.58-13.07.23-.11.85,0,1.29-.21,23.13-11.05,46.24-22.1,69.25-33.41,1.94-1.02,1.47-4.27,1.35-6.23Z"/><path class="cls-3" d="M232.42,85.61v.43c-7.97-1.16-13.76-2.79-21.64-.2-19.24,6.34-38.65,15.97-58.05,22.72-.62.22-1.33.13-1.73.87-.14.02-.3-.03-.43,0-1.66.38-4.38,1.43-5.63,2.6-1.78.56-3.44,1.11-5.2,1.73-.41.14-.7.37-.87.43-.32.12-.97-.16-1.3.43l-19.92,7.36c.07-.4-.09-.94,0-1.3.06-.24-.04-.59,0-.87l15.48-5.96-.33-.54c9.67-3.56,19.24-7.55,28.91-11.15,15.31-5.71,33.67-13.85,49.04-18.09,7.52-2.07,14.16.41,21.66,1.52Z"/><path class="cls-3" d="M145.81,193.45c.45.89.76.96,1.73.87v.43c-1.74,3.58,5.92,2.37,7.8,4.33-.04,0-.3.41-.65.41-1.24-.02-4.04-1.85-5.89-.58-1.89,7.74-4.02,15.42-6.01,23.13-1.4-.04-1.05.7-1.3,1.52-1.05,3.44-1.68,5.52-3.03,8.88l.43-2.6c-1.13-1.04-6.91,5.66-8.66,5.63,3.38-11.59,7.81-23.94,12.23-35.19.96-2.45,1.54-4.84,3.36-6.82Z"/><path class="cls-14" d="M42.74,189.98c-.79,4.65-3.87,12.78-5.63,17.32-1.89,4.88-6.59,10.62-5.2,16.02-3.01-.81-6.69-.8-6.51-4.96.14-3.05,6.53-20.28,8.24-23.19.49-.83.89-1.83,1.76-2.35l7.33-2.84Z"/><path class="cls-3" d="M93.84,143.21s-.06.51.43.43c.64-1.07,1.74-5.87,2.28-6.39.32-.3,1.3-.03,1.57-.81.3-.84-.08-2.37.25-3.65.45-1.73,1.94-1.95,2.4-3.45,1.14-.34.75.57,1.3,1.06,1.1.97,1.57.33,2.59.24-2.61,4.21-3.2,9.24-4.76,13.86-1.8,5.32-5.31,12.12-8.87,16.47-1.27,1.56-4.68,3.89-5.43,5.18.8-2.53,7.01-22.92,8.23-22.95Z"/><path class="cls-20" d="M85.18,157.5c-.96,2.65-2.19,5.65-3.03,8.23-1.26.21-2.46-.48-3.68-.47-1.73.01-11.24,2.01-11.9,3.29-.38.73.77.83,1.2.94,4.25,1.08,8.81.93,13.08,1.87.04,1.24.49,2.96,1.3,3.9l-.43.43c-.54-.17-1.18-.35-1.73-.43.25-1.18-.58-.86-1.35-1-4.75-.89-9.48-1.9-14.19-2.94-.22-1.59.05-3.18.39-4.72.27-1.24.44-1.24.87-2.17l19.49-6.93Z"/><path class="cls-18" d="M102.5,212.5l3.9,20.79c-.07.05-.1.9-.88,1.49-1.65,1.26-3.17,1.33-4.75,2.41-.28-.03-.59.04-.87,0-8.49-1.1-17.28-3.11-25.71-4.83-.73-.15-1.49-.16-2.01-.8,7.87.76,15.72,1.83,23.61,2.59,4.32.42,7.78,1.9,7.59-3.69-.18-5.36-1.44-12.48-2.18-17.96h1.3Z"/><path class="cls-5" d="M114.63,119.39c.53.87.95,1.76,1.52,2.59h.64s.04-1.24.04-1.24l.82-.05c-.09.36.07.9,0,1.3-.15.8-.73,1.21-.87,3.03-.07.86.03,1.74,0,2.6,3.9.42,7.21.54,11.07,1.29.8.16,1.74-.51,1.49.87-2.89-.25-9.66-2.61-9.96,1.29,8.48,1.84,17.06,3.26,25.57,4.97,2.82.57,6.58,2.03,9.08,2.4l-.43.43c-.28-.17-5.6-1.09-6.5-1.3-10.25-2.39-20.79-3.93-31.18-5.63-4.25-.69-6.78-1.71-11.26-1.3-1.02.09-1.49.74-2.59-.24-.55-.48-.16-1.4-1.3-1.06-.46,1.5-1.95,1.72-2.4,3.45-.33,1.27.04,2.81-.25,3.65-.28.78-1.25.5-1.57.81-.54.51-1.65,5.32-2.28,6.39-.49.08-.4-.43-.43-.43,1.36-4.09,2.86-8.53,4.69-12.42.98-2.08,1.47-3.28,3.11-4.9.44.7.63,2.43,1.29,2.82.43.25,5.31.95,6.29,1.07,2.38.28,5.16.32,7.58.44.03-.86-.03-1.74,0-2.6l-13.86-2.6c.21-.14.38-.64.98-.95,3.31-1.74,7.86-2.23,10.72-4.68Z"/><path class="cls-5" d="M79.98,175.26c.56.08,1.19.27,1.73.43.11.03.29.47.61.42l.26-.42c2.66,2.14,6.76,3.05,9.96,3.9-.44.85-1.08.86.2,1.3,2.68.93,5.15,2.17,7.88,2.98,1.03.3,1.18-.3,1.01,1.35-2.96-.53-5.93-1.06-8.66-1.3-.57-.05-1.16.05-1.73,0-5.77-.48-15.6-3.14-21.65-4.33-1.41-.28-2.47-.74-3.03-.87l22.52,2.6-.44-1.51c-1.13-.28-2.24-.66-3.37-.96-4.3-1.14-9.18-1.32-13.51-1.86,1.7-.17,3.26-1.95,4.65-2.07.6-.05,2.82.23,3.58.34Z"/><path class="cls-19" d="M218.13,254.51c-1.32,5.53-6.08,3.36-10.39,4.76-1.8-.29-3.01-.51-4.76-.87l.87-1.73c5.25.28,5.86-.14,5.62-5.41-.21-4.79-1.42-11.35-2.16-16.24.27-.16.6-.26.87-.43l3.69,19.48c.75,1.11,2.3-.79,3.45-.82.96-.02,2.05.73,2.83,1.25Z"/><path class="cls-5" d="M130.22,235.45c1.75.03,7.53-6.66,8.66-5.63l-.43,2.6c-1.05,2.6-4.11,8.39-3.9,10.83-1.22.12-2.18,1.05-1.3,2.17-7.21-2.33-4.76-4.02-3.03-9.96Z"/><path class="cls-15" d="M69.59,159.67c4.46-1.65,11.99-5.26,16.27-6.04.32-.06,1.02-.22,1.05.18-.29,1.19-1.38,2.74-1.73,3.69l-19.49,6.93c.31-.68.23-1.18.86-1.96.95-1.19,2.83-1.34,3.04-2.81Z"/><path class="cls-14" d="M82.15,165.73c-.58,1.77-1.36,3.81-1.3,5.63-4.27-.93-8.84-.78-13.08-1.87-.44-.11-1.58-.21-1.2-.94.67-1.28,10.17-3.28,11.9-3.29,1.23,0,2.42.68,3.68.47Z"/><path class="cls-7" d="M315.57,153.6c-7.04-.93-14.39-1.17-21.4-2.2-1.66-.24-3.39-1.08-5.25-1.26-.73-.07-2.24-.48-1.93.86-3.11-.51-6.4-.9-9.53-1.3l-.03-1.26c-.57.23-1.61-.47-1.7-.47v-.87c6.89.09,16.32,2.65,23.28,3.79,5.51.9,11.16,1.26,16.57,2.71Z"/><path class="cls-3" d="M134.55,243.25c.02.26-.11.54.06.79.78.95,7.29,1.08,8.88,1.76.86.37.84,1.1,1.63,1.43,3.51,1.47,8.49,1.25,11.96,1.65,1.16.13,2.32.3,3.46.43-.26,1.26.62.79,1.37.99,10.37,2.74,23.07,4.67,33.7,6.81l-58.54-10.53c-1.45.03-2.65-.78-3.82-1.16-.88-1.11.08-2.05,1.3-2.17Z"/><path class="cls-17" d="M102.93,125.02l13.86,2.6c-.03.86.03,1.74,0,2.6-2.41-.12-5.2-.16-7.58-.44-.98-.12-5.86-.82-6.29-1.07-.67-.39-.85-2.12-1.29-2.82.72-.72.79-.53,1.3-.87Z"/><path class="cls-12" d="M203.84,256.67l-.87,1.73c-2.41-.49-4.92-.81-7.36-1.3-10.63-2.14-23.33-4.07-33.7-6.81-.75-.2-1.63.27-1.37-.99,14.18,1.59,29.04,6.59,43.31,7.36Z"/><path class="cls-21" d="M111.6,183.92c-1.47-.15-.74.39-.52,1.16.7,2.47,1.57,4.89,1.8,7.47-.74.81-4.34-.06-4.69-.47-.21-.24-.02-1.52-.24-2.15-.19-.55-.56-.93-.68-1.25-.68-1.8-2.03-4.25-1.73-6.06,2.01.43,4.06.89,6.06,1.3Z"/><path class="cls-2" d="M122.86,220.3c.41,1.77,1.84,8.48,2.39,9.52.46.87,1.9,1.1,2.81,1.31-.34.98-.56,2.04-.87,3.03-1.38-.05-2.63.42-3.9.87.41-3.06-3.37-11.47-2.29-13.74.4-.85.95-1.09,1.86-.98Z"/><path class="cls-4" d="M338.52,206.44c2.67-1.77,1.52-3.94.64-6.51-.24-.7.08-1.53-1.08-1.28-1.21-7.68-7.77-25.63-11.26-32.91.37-.83-.17-3.19-.43-4.33.83.28.85,1.06,1.09,1.72,4.77,12.79,8.54,26,13.09,38.88.41,2.77.06,3.13-2.06,4.44Z"/><path class="cls-25" d="M217.26,259.7c-.29.29-.58.58-.87.87-.43,0-.87.02-1.3,0v-.87c-1.22.15-3.01-.46-3.9.43-.42-.05-.88.06-1.3,0l-.43-.43c-.76-.11-1.42-.38-1.73-.43,4.32-1.4,9.07.77,10.39-4.76.09-.37.47-.61.49-1.48.07-3.49.28-7.02-.05-10.64.76.43.72,1.21.88,1.93.58,2.49,1.78,8.05,1.68,10.38s-2.42,3.58-3.87,5.01Z"/><path class="cls-7" d="M131.52,183.92c7.83,1.06,16.17.45,23.56,1.77,2.91.52,2.18,1.95,2.72,2.14,1.31.47,4.1.35,5.58.42.83.04,1.74-.44,1.49.87-4.76-.13-10.11-1.12-14.87-1.8-6.18-.89-12.41-1.94-18.48-3.39Z"/><path class="cls-6" d="M275.73,147.11v.87c-.37.01-1.38.97-1.73,1.3-3.3.39-7.61,3.85-10.39,5.2-1.48.72-4,1.35-5.63,2.17l.33-1.91-.33-.26c4.09-1.82,13.66-7.41,17.76-7.36Z"/><path class="cls-4" d="M105.53,182.62c-.3,1.81,1.05,4.26,1.73,6.06h-.87c-.09-.28-2.45-2.84-2.8-3.05-.91-.55-1.22-.28-1.96-.41.17-1.66.02-1.05-1.01-1.35-2.73-.8-5.2-2.04-7.88-2.98-1.28-.45-.64-.45-.2-1.3,4.25,1.13,8.69,2.11,12.99,3.03Z"/><path class="cls-15" d="M280.49,120.69h-.43c-2.83-8.88-6.49-17.61-9.53-26.42l.43-.43c3.55,4.4,7.46,20.58,9.53,26.85Z"/><path class="cls-4" d="M127.19,234.15c-.06.19.15.58-.06.79-8.51,4-18.23,5.38-27.22,2.24.28.04.58-.03.87,0,4.69.55,6.49.69,11.26.43.7-.04,1.62.57,2.78.43,2.58-.32,6.01-2.15,8.48-3.03,1.27-.45,2.52-.92,3.9-.87Z"/><path class="cls-4" d="M261.44,90.38c-.28-.03-.58.03-.87,0-9.51-1.07-18.73-2.95-28.15-4.33v-.43c9.67,1.43,19.51,2.45,29.02,4.76Z"/><path class="cls-22" d="M163.56,193.01v.86c.46.17.82-.43.87-.43.7-.05,1.49.09,2.17,0-.25,1.39.7.71,1.49.87,2.45.5,4.91,1.18,7.17,1.73v.43c-.29-.02-.58.02-.87,0-.14-.01-.29,0-.43,0-1-.07-2.04.09-3.03,0-3.33-.29-5.96-1.43-9.09-2.17.54-.33,1.02-.58.87-1.3.27.04.59-.04.87,0Z"/><path class="cls-4" d="M238.48,253.64l-7.5,3.98c-5.06,2.16-9.07,2.97-14.59,2.95.29-.29.58-.58.87-.87,4.63.07,8.37-1.64,12.56-3.03,2.75-.91,5.78-1.95,8.66-3.03Z"/><path class="cls-21" d="M162.7,193.01c.15.72-.33.97-.87,1.3-2.05-.48-4.84-1-6.93-1.3-.21-.55-.82-.44-1.3-.43-.28,0-.61-.04-.87,0-.83-.83-2.4-.15-3.03-1.3,2.72-.48,9.74,1.2,12.99,1.73Z"/><path class="cls-4" d="M184.35,183.49c-4.98,2.11-10.59,5.19-16.02,5.63v-.87c3.59-.26,4.98-1.62,7.8-2.6,2.1-.73,4.37-1.54,6.5-2.17.48-.14.96-.34,1.47-.34l.26.34Z"/><path class="cls-4" d="M283.09,138.45c2.75-1.77,1.64-3.95.76-6.61-.22-.68-.6-2.75-1.63-2.49-.17-2.74-1.3-5.94-2.17-8.66h.43c.05.16.59.58.77,1.16,1.08,3.3,4.2,10.96,4.35,13.91.07,1.47-1.36,2.15-2.52,2.69Z"/><path class="cls-5" d="M132.82,113.33l.33.54-15.48,5.96c.24-1.62.62-1.23.87-1.73,4.72-1.63,9.61-3.04,14.29-4.76Z"/><path class="cls-7" d="M149.71,191.28c.63,1.15,2.2.47,3.03,1.3-1.55.27-3.52,1.58-5.2,1.73-.97.09-1.29.02-1.73-.87,1.32-1.44,1.86-1.8,3.9-2.17Z"/><path class="cls-4" d="M242.82,251.48c-.82,1.28-2.54,1.67-3.9,2.17-.07-1.54,2.8-1.75,3.9-2.17Z"/><path class="cls-4" d="M211.2,260.14c.89-.89,2.68-.28,3.9-.43v.87c-1.33-.05-2.59-.28-3.9-.43Z"/><path class="cls-21" d="M164.43,193.45s-.41.6-.86.43v-.86c.36.05.74,0,.86.43Z"/><path class="cls-15" d="M82.58,175.69l-.26.42c-.32.05-.5-.39-.61-.42l.43-.43c.12.13.3.33.43.43Z"/><path class="cls-4" d="M209.9,260.14c-.32-.05-.4-.43-.43-.43l.43.43Z"/><path class="cls-25" d="M63.09,166.16c.05.13.39.28.43.43.29,1.12.17,3.47.43,4.76-.33.33-8.26-1.02-9.1-1.51s.08-.92.57-1.18c2.07-1.09,5.35-2.21,7.67-2.51Z"/><path class="cls-14" d="M91.24,183.92l-40.14,39.36-1.44-.59c-2.72-4.53-7.14-8.08-9.11-12.98l13.01-14.1c1.24.02,13.17-12.35,14.95-14.28.49-.53,1.08-.89,1.07-1.74,6.06,1.19,15.88,3.85,21.65,4.33Z"/><path class="cls-25" d="M55.73,177.42c1.09.13,2.35-.09,3.46,0l.22.87h1.08s0-.87,0-.87c.27.05.6-.05.87,0v1.3c.68.36,1.57-.43,1.73-.43.76-.02,1.45.27,2.17.43.37.09.92-.09,1.3,0,.56.13,1.62.59,3.03.87,0,.85-.58,1.2-1.07,1.74-1.78,1.93-13.71,14.3-14.95,14.28-.04,0,.09-.44-.67-.46-1.77-.03-11.52,9.44-13.82,11.3-.64.52-.98,1.02-1.96.85,1.76-4.54,4.84-12.67,5.63-17.32.09-.52-.06-1.18,0-1.73h.87c.06-.28-.05-.62,0-.87.06-.26-.05-.6,0-.87.09-.44.31-1.24.43-1.73.38-1.47,2.09-7.98,3.02-8.45,1.47-.73,6.66.85,8.67,1.09Z"/><path class="cls-19" d="M101.64,185.22c.74.13,1.06-.14,1.96.41.35.21,2.71,2.78,2.8,3.05.07.22-.06.6,0,.87.08.37-.07.89,0,1.3h.87c.04.42-.06.88,0,1.3,0,.02-.01.23,0,.43.02.43-.04.87,0,1.3.05.57-.05,1.16,0,1.73h.87c.02.28-.04.58,0,.86,0,.02-.48.2,0,.43l.43,2.17c-.87.13,0,.79,0,.87.02.28-.04.6,0,.87.08.55-.07,1.17,0,1.73h.87c0,.27.04.61,0,.86,0,.06-.61.37-.43.86h.86c.06.41-.09.95,0,1.3-.51,2-2.01,1.99-2.89,2.74-.39.34-.52,1.03-.97,1.4-1.11.92-2.71,1.11-3.5,2.78h-1.3c-.92-6.72-1.96-14.23-3.15-20.88-.71-4-.84-6.21-5.08-7.7,2.74.24,5.7.76,8.66,1.3Z"/><path class="cls-2" d="M165.3,136.71c1.53,4.13,2.4,8.58,3.35,12.89,2.02,9.21,3.39,21.1,6.19,29.76.28.88,1.11,1.34,1.23,1.83.23.86-.56,3.16.06,4.45-2.82.98-4.2,2.34-7.8,2.6-.86.06-1.74-.04-2.6,0l.86-1.29c.15-.03.32.04.43,0,3.57-1.26,1.59-5.19.92-8.09-.18-.78.42-1.7-.92-1.44-.05-.27.05-.6,0-.87.73-.44.47-1.62.39-2.32-.98-8.32-2.27-18.74-3.88-26.87-.17-.85-.4-1.6-1.27-1.98-.32-2.5-.98-5.03-1.25-7.55.23-.94,3.34-.9,4.28-1.11Z"/><path class="cls-12" d="M164,160.1c.82,5.57,2.06,10.97,3.03,16.46.05.27-.05.59,0,.87.53,3.12,1.73,6.55,0,9.53-.12.04-.29-.03-.43,0-3.26.69-5.75.02-5.66-3.69s-.14-6.37-.41-10.17c1.22.5,3.59-1.57,3.83-2.48.1-.39-.33-5.89-.46-6.31-.37-1.24-4.46-3.49.09-4.2Z"/><path class="cls-14" d="M274,149.27c1.38-.16,2.27.28,3.46.43,3.13.4,6.42.79,9.53,1.3,2.14.35,4.35.9,6.5,1.3.1,1.08.21,1.17-.85,1.52-2.08.67-4.23,1.16-6.26,2.01-.65.27-1.33.28-1.12,1.24-2.79-.51-8,.4-11.86-.05-3.13-.37-7.13-.97-9.8-2.55,2.78-1.35,7.1-4.81,10.39-5.2Z"/><path class="cls-18" d="M196.48,187.82c.06,0,.48.4,1.05.45,4.88.41,9.91.36,14.54,2.15-.31.54-.35,1.95-.87,2.6-.79.54-1.39,1.33-2.17,1.73-1.25.65-2.93,1-4.33.87v.87c-5.69-.77-11.22-1.28-16.91-2.36-1.07-.2-2.53-.51-3.44-1.1,1.7-.73,3.98-2.32,5.63-3.03,1.42-.61,5.24-2.24,6.5-2.17Z"/><path class="cls-25" d="M285.26,157.07c-.21-.96.47-.97,1.12-1.24,2.03-.85,4.18-1.33,6.26-2.01,1.06-.34.95-.44.85-1.52,3.46.64,6.89,1.41,10.37,1.97,4.47,3.5-5.98,5.53-8.44,5.4-3.67-.2-7.08-2.05-10.16-2.61Z"/><path class="cls-10" d="M215.53,184.78c.19,1.59,1.03,4.2,1.73,5.63.56,1.15.68.8,1.04,1.32.95,1.38,1.18,2.84,3.28,3.02.44,1.53-.97,1.46-1.5,2.17-.24.32-.15.74-.23.85-.5.71-.55,2.16-2.17,2.17.31-.84,1.35-2.05,1.29-2.34-.14-.69-1.65-1.07-1.94-1.56-.4-.7-.03-1.74-.27-2.1-.2-.32-1.59-.25-2.01-.6-1.28-1.07.48-3.08-3.57-.33.52-.65.55-2.06.87-2.6.02-.04.66.12.89-.28.56-.99.56-2.21.85-3.18l.43-.43c.17-.63.4-.88.43-1.73h.87Z"/><path class="cls-15" d="M217.26,190.41l5.43,1.29-.03.88-1.5.43c.5,2.31,3.92,1.65,5.63,1.29.17,1.82-.03,1.03-1.06,1.3-2.05.52-3.93,1.36-5.86,2.17.07-.11-.01-.53.23-.85.52-.7,1.94-.64,1.5-2.17-2.1-.19-2.34-1.64-3.28-3.02-.36-.53-.48-.18-1.04-1.32Z"/><path class="cls-18" d="M268.24,159.76c1.78-.53,4.7.52,3.82,2.49s-4.94,1.82-5.44-.64c0-.64,1.03-1.68,1.62-1.86Z"/><path class="cls-15" d="M214.67,184.78c0-.05-.46-.38-.42-1l1.06-4.2c.56,1.54.04,3.67.22,5.2h-.87Z"/><path class="cls-15" d="M213.8,186.95c.08-.28.43-.4.43-.43l-.43.43Z"/><path class="cls-16" d="M115.93,131.95c.06.99-.65,1.12-1.25,1.57-3.46,2.62-7.37,5.22-10.65,7.97-1.41,1.18-2.21,3.44-4.12,3.02,1.56-4.62,2.15-9.65,4.76-13.86,4.48-.41,7.01.61,11.26,1.3Z"/><path class="cls-13" d="M322.07,161.83c2.78-.14,3.67,1.6,4.76,3.9,3.49,7.29,10.05,25.23,11.26,32.91.62,3.94,1.35,5.13-2.46,7.29-8.14,4.63-19.28,8.62-28.01,12.7-6.85,3.2-13.78,6.27-20.63,9.47.11-2.33-2.06-2.65-.86-5.2,1.67-.38.44,1.79.92,2.54l3.4.92c.16-1.53-1.11-1.67-1.32-3.22-.35-2.57.76-3.9.88-5.7.09-1.32-1.4-4.15,1.54-4.05.8.03,1.07,1.04,1.94.85v-4.33s-1.72-.02-1.72-.02c.53-2.61-1.99-2.17-2.93-3.13-.51-.52-.41-2.07-1.62-2.07-1.65,0-.6,1.59-.76,2.28-.44,1.88-2.39,2.32-2.06,4.23l-2.17-.44.4-1.48c-1.9-1.09-3.23-.92-3-3.72l-2.99.47-.48,3.43c-.1.09-2.32-.31-2.71-.45-.51-.18-.03-1.21-1.18-.84v5.63s1.29,0,1.29,0l.5-2.1,1.67-.06-.43,3.03c1.72-.34,3.76,1.13,4.58-.87l2.35.44c-.79,3.89-2.71,1.4-3.69,1.41-1.81.02-1.08,2.6-1.12,3.16-.04.62-.65.98-.72,1.39-.21,1.25.38,5.01-2.31,2.85l.47-2.31-2.59,1.3c-1.07-1.84-.36-3.3-.87-5.19h1.3c.49-1.64-1.64-2-3.03-2.17v1.73c-1.11.2-1.37-1.31-2.38-1.3-1.1,0-2.27,2.2-3.85,1.71s.91-3.87-1.35-3.87c-.41,0-2.04,7.17-3.33-1.65-1.38.28-2.09-1.07-2.82-1.29-.89-.27-2.31.27-2.95-.51-.59-.7-1.67-4.19-1.08-5.2h-1.29c.66,3.05-3.31,3.52-4.24,4.42-.38.37-.34,1.4-.59,1.57-.78.55-2.44.34-1.18-1.39.11-.15.63-.1.8-.61.27-.8.55-3.76.96-4.35l2.91-.99-.4-2.99c5.82.19-.7-3.49,0-6.5,6.34-2.86,12.69-5.85,19.05-8.66l1.33,2.57c1.89.45,2.53-1.55,4.33-1.97l-.89-2.77c5.9-2.59,11.83-5.7,17.76-8.23,8.55-3.65,21.1-9.84,29.66-12.15.7-.19,1.19-.37,1.96-.41Z"/><path class="cls-24" d="M248.88,193.45c-.7,3.01,5.82,6.69,0,6.5l.4,2.99-2.91.99c-.41.58-.69,3.55-.96,4.35-.17.5-.68.45-.8.61-1.26,1.73.4,1.94,1.18,1.39.25-.18.21-1.21.59-1.57.93-.9,4.9-1.37,4.24-4.43h1.29c-.59,1.02.49,4.51,1.08,5.21.65.78,2.07.24,2.95.51.73.22,1.44,1.57,2.82,1.29,1.29,8.82,2.92,1.65,3.33,1.65,2.25,0-.25,3.37,1.35,3.87s2.75-1.7,3.85-1.71c1,0,1.27,1.5,2.37,1.3v-1.73c1.39.17,3.52.53,3.03,2.17h-1.3c.51,1.9-.2,3.36.87,5.2l2.59-1.3-.47,2.31c2.69,2.16,2.09-1.6,2.31-2.85.07-.41.68-.77.72-1.39.04-.56-.69-3.14,1.12-3.16.98-.01,2.9,2.48,3.69-1.41l-2.35-.44c-.82,2-2.86.53-4.58.87l.43-3.03-1.67.06-.5,2.1h-1.28s0-5.63,0-5.63c1.15-.37.67.66,1.18.84.39.14,2.61.55,2.71.45l.48-3.43,2.99-.47c-.23,2.8,1.1,2.63,3,3.72l-.4,1.48,2.17.44c-.33-1.91,1.62-2.35,2.06-4.23.16-.69-.89-2.29.76-2.28,1.21,0,1.11,1.55,1.62,2.07.95.96,3.46.52,2.93,3.13l1.72.02v4.33c-.88.19-1.14-.83-1.94-.85-2.94-.1-1.45,2.73-1.54,4.05-.12,1.8-1.23,3.13-.88,5.7.21,1.56,1.48,1.69,1.32,3.22l-3.4-.92c-.48-.75.74-2.92-.92-2.54-1.19,2.55.98,2.87.86,5.2-2.61,1.22-5.49,2.63-8.23,3.9.55-1.71-3.55-4.71-.43-4.33-.07-1.9-.4-3.17-2.6-2.85-.74.45-.61,1.94-.98,2.31-.31.31-1.48.18-1.87.97-.26.53.28,1.23.16,1.85-.26,1.29-3.28,3.55-2.51,5.95-7,3.25-13.9,6.82-20.93,10.04-2.36,1.08-15.06,7.18-16.44,6.8l-1.26-1.37c-2.93-10.4-5.55-20.94-7.93-31.48-.77-3.41-2.42-8.8-2.78-11.96-.27-2.42.23-2.76,2.27-3.72,8.28-3.91,17.1-6.99,25.42-10.75ZM278.32,210.34h-.86v.86h.86v-.86ZM257.51,218.59c-.07-.11-1.78-.66-2.16-.28l-.41,2.41c.94.15,3.32-.97,2.57-2.13ZM259.27,220.3h-.86v.86h.86v-.86ZM279.19,220.3c-.84-.84-2.42,1.25-1.08,1.73,1.51.54,1.26-1.55,1.08-1.73ZM266.2,221.16l-2.16.44v.86s2.17,0,2.17,0v-1.3Z"/><path class="cls-2" d="M229.82,256.67c-4.19,1.39-7.93,3.1-12.56,3.03,1.45-1.44,3.78-2.73,3.87-5.01s-1.1-7.89-1.68-10.38c-.17-.72-.12-1.5-.88-1.93-.54-5.85-1.99-12.09-3.46-17.76,0-.28-.03-.59,0-.87s-.01-.58,0-.87c.02-.43-.02-.87,0-1.3,1.69-.23,3.52,1.25,4.76-.43.01.05.61.2.76.74,3.15,11.56,5.54,23.4,9.2,34.77Z"/><path class="cls-6" d="M213.8,204.27s.59-.12.76.1c.57.74-.61.64.98,1.63,1.13.71,1.53,2.96,1.95,4.33,1.1,3.57,1.46,7.44,2.38,10.83-1.25,1.68-3.08.2-4.76.43-.02.43.02.87,0,1.3h-.43c.05-.32.05-.99,0-1.3-.04-.2-.23-.38-.43-.43-1.4-4.85-1.8-9.52-3.46-14.72-.13-.41.09-1.23,0-1.73.97-.24,2.03-.38,3.03-.43ZM215.53,207.31h-.86v1.73h.86v-1.73Z"/><path class="cls-13" d="M270.53,235.89c-.77-2.4,2.25-4.67,2.51-5.95.12-.62-.42-1.32-.16-1.85.39-.79,1.56-.66,1.87-.97.37-.37.24-1.86.98-2.31,2.2-.33,2.54.95,2.6,2.85-3.12-.38.98,2.62.43,4.33-2.73,1.27-5.51,2.64-8.23,3.9Z"/><path class="cls-25" d="M290.45,174.39l1.22-1.25c10.35-3.8,19.64-10.33,30.17-13.47l.22,2.17c-.76.04-1.26.22-1.96.41-8.56,2.3-21.11,8.5-29.66,12.15Z"/><path class="cls-24" d="M272.7,182.62l.89,2.77c-1.8.42-2.43,2.41-4.33,1.97l-1.33-2.57c1.44-.64,3.2-1.48,4.76-2.17Z"/><path class="cls-10" d="M217.7,200.37c-.31.87-.58,2.37-.87,3.03s-1.64,1.38-1.3,2.6c-1.58-1-.41-.9-.98-1.63-.17-.22-.74-.07-.76-.1-.08-.13-.24-2.27-.43-3.03,1.37-.56.89,2.25,1.94,1.73.93-.46.99-2.72,2.39-2.6Z"/><path class="cls-11" d="M270.53,94.27c3.04,8.81,6.7,17.54,9.53,26.42.87,2.72,1.99,5.92,2.17,8.66.12,1.96.59,5.2-1.35,6.23-23,11.3-46.12,22.36-69.25,33.41-.44.21-1.06.1-1.29.21.09-.93-1.06-3.76-1.53-4.32-1.29-1.55-5.58.66-4.97-3.04-1.33-.37-1.09,1.62-1.54,1.76l-1.44-.08-.49-2.11c-1.6-.72-1.95,2.04-2.8,1.72-.78-.22-1.86-2.39-2.05-2.5-.66-.36-3.97-.36-4.89-1.39-1.2-1.35-.05-4.14-.23-4.31-.33-.33-1.95.34-2.15-2.41-.11-1.46,1.91.57,2.16-.86.16-.89-.92-2.31-2.16-1.73-2.04.95-1.68,4.04-5.8,1.46-.46-.29-.59-1.01-.8-1.13-.57-.32-1.47.1-2.31-.51-1.4-1.01-2.67-3.43-2.36-5.22-1.93.59-2.36-1.6-3.48-2.35-.6-.4-1.85-.15-2.11-.96l.9-3.58,1.67-.05-.44-3.47c24.85-11.33,51.28-23.08,77.1-33.55,2.68-1.09,5.36-2.25,8.21-2.83-.21.4-.7,1.58-1.3,1.73s-1.73-.31-2.17.22c0,.47,1.69.1,2.17.22,1.59.38,2.7,2.89,3.03,4.33.13.55.26,3.47.65,3.47.24-1.16.36-2.31.65-3.47.62-2.45,1.75-4.13,4.33-4.77-.06-.73-1.16-.36-1.97-.83-.52-.3-1.1-1.24-1.49-1.76-.12-.16-.28-.3-.43-.43-.05-.26.05-.6,0-.87,2.93-.22,5.41-3.51,8.23-1.3ZM190.41,142.35c-1.17-1.07-2.08,1.87-1.73,2.59,1.25.26.68-.41.98-.94.17-.3,1.04-1.38.74-1.65ZM189.12,146.24l-3.03-.43c-.81.77,3.82,3.23,3.03.43ZM209.47,156.2h-.86v.86h.86v-.86ZM206.87,156.64h-.86v.86h.86v-.86ZM201.67,159.67h-.86v.86h.86v-.86Z"/><path class="cls-25" d="M232.42,86.05c9.42,1.38,18.64,3.26,28.15,4.33.46,1.54-2.08,2.16-3.17,2.68-24.47,11.71-52.11,22.11-77.38,31.97-.35.13-.4.42-.43.43-.67.26-1.33.27-1.73.43-.28.11-.4.42-.43.43-1.28.5-2.73.82-3.9,1.3l.87-3.03c.56-.24,2.5-.85,3.03-.87.07,0,1.32.97,1.3.21-.02-.99-.66-.88-1.3-1.08-.34-.1-.95.1-1.3,0-.05-.01-.38-.27-.87-.43s-.67-.13-1.3-.43l-5.2-8.23c-.07-.4.06-.89,0-1.3-.05-.3-.16-5.38-1.3-3.9.3,1.58-.32,3.06-.42,4.52-.02.32.42.62.42.68-.02.29.01.58,0,.87-1.2-.26-.81.62-1.07,1.29-.75,1.99-1.75,3.69-2.4,5.64-1.3,1.2-.85,1.45-3.03,1.73-.29.04-2.54-.8-2.16.86.76.04,1.25.78,1.98.89,1,.15.99-.45,1.05-.44.39.05.62.34.87.43.36,2.23,2.5,3.75,1.3,6.06-.66.2-1.05.3-1.73.43l-1.73-.43v.86c-3.33.18-6.68-.87-9.96-1.3l.87-2.6c1.98-.29,3.61-.66,5.63-.87.28-.03.58.04.87,0,.04-.28-.03-.58,0-.87.05-.42.12-1.35-.08-1.65l-3.39-.95v-.86c-.39-.15-.81.43-.87.43-2.25-.17-5.39-.92-7.8-1.3-.36-1.67-2.9-1.89-4.3-2.84-1.5-1.02-1.96-2.93-4.36-2.36l.44-2.16c.33-.59.98-.32,1.3-.43l.86.43v-.86c1.76-.62,3.42-1.17,5.2-1.73,1.51-.47,5.2-.71,5.63-2.6.14-.03.29.02.43,0,.53-.08,1.18.07,1.73,0v-.87c19.4-6.75,38.81-16.38,58.05-22.72,7.88-2.6,13.66-.97,21.64.2ZM216.71,92.61c-3.64,1.06-1.41,5.41,1.86,4.52s1.35-5.45-1.86-4.52Z"/><path class="cls-22" d="M173.52,134.12l.44,3.47-1.67.05-.9,3.58c.26.81,1.51.56,2.11.96,1.12.75,1.54,2.94,3.48,2.35-.31,1.8.96,4.21,2.36,5.22.84.61,1.74.18,2.31.51.21.12.34.84.8,1.13,4.13,2.58,3.76-.51,5.8-1.46,1.25-.58,2.32.84,2.16,1.73-.25,1.43-2.27-.59-2.16.86.2,2.75,1.82,2.08,2.15,2.41.18.18-.97,2.96.23,4.31.92,1.03,4.23,1.03,4.89,1.39.19.11,1.27,2.28,2.05,2.5.84.32,1.19-2.44,2.8-1.72l.49,2.11,1.44.08c.45-.14.21-2.13,1.54-1.76-.6,3.71,3.68,1.49,4.97,3.04.46.56,1.61,3.39,1.53,4.32-8.68,4.14-18.09,8.5-26.58,13.07-.6.33-1.37.17-1.14,1.22-2.12.62-4.4,1.43-6.5,2.17-.62-1.29.17-3.59-.06-4.45-.13-.49-.95-.95-1.23-1.83-2.8-8.66-4.16-20.55-6.19-29.76-.95-4.31-1.82-8.76-3.35-12.89,1.27-.28,2.61-.55,3.9-.87,1.39-.34,1.62-.79,2.6-1.3.45-.23,1.22-.26,1.73-.43Z"/><path class="cls-16" d="M137.58,114.63l-.44,2.16c2.4-.57,2.86,1.33,4.36,2.36,1.4.95,3.94,1.18,4.3,2.84-4.47-.71-10.02-2.18-14.5-1.73-1.24.13-5.98,1.57-6.88,2.21-.74.53-.81.76-.7,1.68l24.97,4.3c.98.26,1.84-.27,2.74-.4l-.87,2.6c-11.32-1.5-22.57-3.48-33.78-5.63.14-1.82.72-2.23.87-3.03l19.92-7.36Z"/><path class="cls-17" d="M129.35,129.78c.29.02.58-.03.87,0,8.11,1.9,16.46,2.96,24.68,4.33.53.09,1.2-.09,1.73,0-.15,1.25,1.48,1.17,1.95,2.17,1.21,2.58-1.91,2.3-3.68,2.16-.28-.02-.59.04-.87,0-2.5-.37-6.26-1.83-9.08-2.4-8.51-1.71-17.09-3.13-25.57-4.97.3-3.9,7.07-1.54,9.96-1.29Z"/><path class="cls-10" d="M168.76,112.46c.06.41-.07.9,0,1.3.52,3.06,2.37,6.86,5.2,8.23.63.3.81.27,1.3.43l.87.43c.35.1.96-.1,1.3,0v.87c-.53.01-2.47.63-3.03.87-1.02.44-3.29,2.27-3.77,3.17-.26.49-.05.92-.13,1.16-.45,1.34-1.01,5.18-1.95,5.63-.83.4-.61-.61-.71-1.01-.29-1.2-.36-2.08-.8-3.32-.77-2.17-2.14-4.38-4.33-5.2-.25-.09-.47-.38-.87-.43-.54-.36-1.04-.56-.87-1.3,2.18-.28,1.74-.54,3.03-1.73,1.85-1.7,3.33-4.33,3.46-6.93.01-.29-.02-.58,0-.87.52-.62.26-1.58,1.3-1.3Z"/><path class="cls-10" d="M258.84,97.74c.05-.09.56-.18.76-.74.26-.73.66-4.22,1-4.44l1.27-.02c-.15,1.06.24,2.03.43,3.03.05.27-.05.6,0,.87.03.13.31.3.43.43.39.52.97,1.46,1.49,1.76.82.47,1.91.11,1.97.83-2.58.64-3.71,2.32-4.33,4.77h-1.3c-.33-1.44-1.44-3.95-3.03-4.33v-.43c.6-.15,1.08-1.33,1.3-1.73Z"/><path class="cls-5" d="M130.22,129.78c7.77.72,15.62,1.16,23.3,3.35.75.21,1.64-.3,1.38.98-8.23-1.37-16.57-2.43-24.68-4.33Z"/><path class="cls-5" d="M156.64,134.12c1.08.17,5.31.94,4.73,2.77-1.69,1.51-2.59,2.39-4.95,2.44-.82.02-1.77.37-1.51-.88,1.78.14,4.89.42,3.68-2.16-.47-1-2.1-.91-1.95-2.17Z"/><path class="cls-16" d="M167.03,130.22c-1.01.26-2.03.56-3.03.87,1.2-2.31-.94-3.83-1.3-6.06,2.19.82,3.56,3.03,4.33,5.2Z"/><path class="cls-16" d="M174.39,124.59l-.87,3.03c-.79.33-1.71,1.6-3.03,1.3.08-.24-.13-.66.13-1.16.48-.9,2.75-2.74,3.77-3.17Z"/><path class="cls-11" d="M171.79,134.55c-.98.5-1.21.96-2.6,1.3-.18-1.17,2.01-2.1,2.6-1.3Z"/><path class="cls-16" d="M162.27,131.52c-.5.09-.73.38-1.73.43v-.86s1.73.43,1.73.43Z"/><path class="cls-16" d="M179.59,125.45s.09-.3.43-.43l-.43.43Z"/><path class="cls-16" d="M177.42,126.32s.15-.32.43-.43l-.43.43Z"/><path class="cls-25" d="M113.33,224.19l-.55,4.66c-1.57,1.27-3.25,2.82-4.85,4.03-.59.44-1.43.34-1.52.41l-3.9-20.79c.79-1.68,2.39-1.87,3.5-2.78.45-.37.58-1.07.97-1.4.88-.75,2.38-.74,2.89-2.74,1.45,5.89,2.47,12.6,3.46,18.62Z"/><path class="cls-9" d="M112.03,237.62c-4.77.25-6.57.11-11.26-.43,1.58-1.07,3.1-1.15,4.75-2.41.78-.59.81-1.44.88-1.49.1-.07.93.03,1.52-.41,1.6-1.21,3.29-2.76,4.85-4.03l.55-4.66c.77,4.68,3.34,9.9-1.3,13.43Z"/><path class="cls-4" d="M107.27,193.88h.87c.04.57-.04,1.16,0,1.73h-.87c-.05-.57.05-1.16,0-1.73Z"/><path class="cls-4" d="M109.43,202.54h-.87c-.07-.56.08-1.19,0-1.73.88.27.85.93.87,1.73Z"/><path class="cls-4" d="M106.4,189.55h.87s0,1.3,0,1.3h-.87c-.07-.41.08-.92,0-1.3Z"/><path class="cls-4" d="M108.56,199.94c0-.07-.87-.74,0-.87l.36.6-.36.27Z"/><path class="cls-4" d="M109.86,204.27h-.86c-.18-.5.42-.81.43-.87l.43.87Z"/><path class="cls-4" d="M107.27,192.58c-.01-.2,0-.41,0-.43l.42.22-.42.22Z"/><path class="cls-4" d="M108.13,196.91c-.48-.23,0-.41,0-.43v.43Z"/><path class="cls-17" d="M211.2,193.01c4.05-2.75,2.29-.74,3.57.33.41.35,1.8.28,2.01.6.24.36-.13,1.4.27,2.1.28.49,1.8.87,1.94,1.56.06.29-.98,1.5-1.29,2.34-.05.13.05.31,0,.43-1.4-.12-1.46,2.14-2.39,2.6-1.05.52-.57-2.29-1.94-1.73-.04-.14.04-.31,0-.43-.6-1.75-.91-.95-1.3-1.3-.13-.11-.32-.63-.43-.87-.07-.15.14-.65-.04-.82s-.6,0-.83-.04c-.14-.03-.3.04-.43,0,.27-1.11-.84-1.11-1.73-1.31l.44-1.73c.78-.41,1.37-1.19,2.17-1.73Z"/><path class="cls-20" d="M184.35,193.01c.91.6,2.37.9,3.44,1.1,5.68,1.08,11.21,1.59,16.91,2.36,2.22.3,3.55.71,5.63,1.3.13.04.29-.03.43,0l.43.87c-9.79,2.12-20.94-2.82-30.59-3-.79-.01-1.44.12-1.89.83-.28-.03-.58.03-.87,0-.12-.42-.5-.4-.87-.43.57-.26,2.33-1.63,2.6-1.73,1.07-.42,3.39-.71,4.76-1.3Z"/><path class="cls-2" d="M179.59,194.31l-2.16-2.16c3.83-1.47,6.82-3.09,11.06-3.04.83.01,1.74-.43,1.5.87-1.65.72-3.93,2.3-5.63,3.03-1.38.59-3.69.88-4.76,1.3Z"/><path class="cls-12" d="M176.99,196.04c.37.03.75,0,.87.43-.85-.08-1.74.07-2.6,0v-.43c.45.11,1.19-.05,1.73,0Z"/><path class="cls-10" d="M53.57,173.09v.87s.87,0,.87,0c1.06-.23,2.09.36,3.03.43l.87.43c.42-.04.88.06,1.3,0,.21.55.82.43,1.3.43.29,0,.58,0,.87,0,.51.82,1.31.79,2.17.87,1.11.1,2.4-.15,3.46,0v.86s.87-.43.87-.43c1.16.16,2.31.29,3.46.43,4.33.54,9.22.72,13.51,1.86,1.12.3,2.23.68,3.37.96l.44,1.51-22.52-2.6c-.38-.09-.93.09-1.3,0v-.87c-.69-.09-1.51.11-2.17,0-.58-.1-1.15-.31-1.73-.43-.26-.05-.6.05-.87,0-.24-.04-.68-.33-1.3-.43-1.23-.21-2.43-.24-3.46-.43-1.74-.32-9.52-1.5-10.2-2.58-1.89-3.03,6.62-1.04,8.03-.88Z"/><path class="cls-5" d="M59.2,176.99v.43c-1.12-.09-2.38.13-3.46,0v-.87c1.04.19,2.23.22,3.46.43Z"/><path class="cls-5" d="M61.79,175.26c.4,0,1.15-.52,2.11.07l.05.8c-.85-.08-1.66-.04-2.17-.87Z"/><path class="cls-14" d="M44.04,184.78c-.13.49-.34,1.3-.43,1.73h-.86c.05-.86.29-1.99,1.3-1.73Z"/><path class="cls-5" d="M59.63,174.82c.16-.02.66-.71,1.3-.43v.86c-.47,0-1.09.12-1.3-.43Z"/><path class="cls-14" d="M43.6,187.38c-.06.24.06.59,0,.87h-.87c.03-.28-.04-.58,0-.86h.87Z"/><path class="cls-5" d="M68.29,176.56l-.86.43v-.86c.74.1.81.43.86.43Z"/><path class="cls-5" d="M57.46,174.39c.05,0,.47-.58.86-.43v.86s-.86-.43-.86-.43Z"/><path class="cls-5" d="M53.57,173.09c.28.03.58-.04.87,0v.87s-.86,0-.86,0v-.87Z"/><path class="cls-16" d="M150.57,109.43c-.43,1.89-4.12,2.12-5.63,2.6,1.25-1.17,3.97-2.22,5.63-2.6Z"/><path class="cls-16" d="M152.74,108.56v.87c-.56.07-1.2-.08-1.73,0,.4-.74,1.11-.65,1.73-.87Z"/><path class="cls-16" d="M139.75,113.76v.86s-.87-.43-.87-.43c.17-.06.46-.29.87-.43Z"/><path class="cls-12" d="M169.63,201.24c.58,0,1.16-.01,1.73,0v.86c.78.41,1.64-.42,1.73-.43.28-.04.58.02.87,0v.87c.88.44,2.38-.42,2.6-.43.43-.03.87.01,1.3,0-.21,1.03.46.98,1.19,1.17,3.56.91,8.86,1.36,12.67,1.86l-14.72,13.86c-1.67.27-1.73,1.48-2.6,2.17-.27.21-.66.32-1.3.87-9.07,7.73-18.05,15.58-27.07,23.39l-.22,1.3,11.26,2.17c-3.47-.4-8.44-.19-11.96-1.65-.79-.33-.77-1.06-1.63-1.43-1.58-.67-8.1-.81-8.88-1.76-.16-.25-.04-.53-.06-.79-.21-2.43,2.85-8.22,3.9-10.83,1.35-3.36,1.98-5.44,3.03-8.88.25-.82-.1-1.55,1.3-1.52-.13.51-1.5,3.58-.22,3.03,6.71-6.58,14.03-12.54,20.8-19.04,1.3-1.24,3.55-2.94,3.67-4.78,1.08.12,1.84,0,2.6,0Z"/><path class="cls-23" d="M155.34,199.08c.28.03.58-.03.87,0v.86s.87-.43.87-.43c1.49.21,3.34.2,4.76.43v.86s.87-.43.87-.43c.87.14,1.73.29,2.6.43.41.07.86.34,1.73.43-.12,1.83-2.37,3.53-3.67,4.78-6.77,6.5-14.1,12.46-20.8,19.04-1.27.55.09-2.52.22-3.03,1.99-7.71,4.12-15.39,6.01-23.13,1.85-1.27,4.66.56,5.89.58.35,0,.61-.41.65-.41Z"/><path class="cls-10" d="M166.6,198.21c-.46,1.09,2.57,1.27,2.88,1.27,1.17,0,1.84-.82,2.97-.87,8.52-.37,19.03,2.79,27.5,3.93.28.04.58-.02.87,0,1.01.08.46.17,1.73,0,.42-.05.88.04,1.3,0v.87c.28.06.63-.06.87,0,.25.06.62-.07.87,0,.05.01.26.32.87.43s1.14.35,1.73.43l.43.87-.23,1.33c-1.07.02-2.17-.11-3.23-.03-.28.02-.58,0-.87,0-2.58-.98-5.76-1.68-8.49-2.12-4.61-.75-13.62-2.33-17.93-2.21-.43.01-.87-.03-1.3,0-.72-.62-1.72-.5-2.6-.43-.28.02-.59-.04-.87,0-.51-.54-1.09-.42-1.73-.43-.58-.01-1.16,0-1.73,0-.87-1.12-3.34-1.28-4.33-.43-.87-.14-1.73-.29-2.6-.43-.05,0-.13-.32-.87-.43-1.43-.23-3.28-.23-4.76-.43-.05,0-.12-.34-.87-.43-.28-.03-.58.03-.87,0-1.87-1.96-9.53-.75-7.8-4.33,6.18-.28,12.98,3.64,19.05,3.46Z"/><path class="cls-15" d="M153.6,192.58c.21.6.85.37,1.3.43,2.09.3,4.88.82,6.93,1.3,3.14.74,5.77,1.88,9.09,2.17-1.08,1.4-2.71,1.69-4.33,1.73-6.07.17-12.87-3.75-19.05-3.46v-.43c1.68-.15,3.65-1.46,5.2-1.73.25-.04.59,0,.87,0Z"/><path class="cls-18" d="M176.99,219c3.6-.59,4.25,2.59,6.47,3.27,1.56.48,3.81-.03,5.35,1.04.81.57,1.08,2.64,2.25,2.64,1.76,0,1.71-2.52,2.24-3.09.16-.17,3.79-2.31,4.03-2.38,1.71-.52,2.78.77,3.63.6.77-.15,1.66-2.31,3.31-1.65,1,5.17,2.24,10.37,3.03,15.59.74,4.9,1.95,11.45,2.16,16.24.23,5.27-.37,5.69-5.62,5.41-14.27-.77-29.13-5.77-43.31-7.36-1.14-.13-2.31-.3-3.46-.43l-11.26-2.17.22-1.3c9.01-7.81,17.99-15.66,27.07-23.39l1.26-.05.04-.82c.87-.69.93-1.89,2.6-2.17Z"/><path class="cls-12" d="M204.27,206.44c.29,0,.58.02.87,0v.86c1.96.23,3.78-.4,5.63-.86,1.66,5.21,2.07,9.87,3.46,14.72.05.19.25.35.43.43.05.31.05.98,0,1.3-.01.07-.61.39-.43.86h.86c-.03.28,0,.59,0,.87-.02.94.08,1.96.04,2.82-.09,2.07-3.77,3.86-5.26,5.17-.68.6-.82,1.37-1.72,1.97-.26.18-.59.27-.87.43-.79-5.22-2.03-10.42-3.03-15.59-.69-3.59-.38-10.34-4.03-12.21-1.28-.66-2.76-.77-4.14-1.08-.76-.18-1.62.23-1.36-1,3.39.41,6.22,1.3,9.53,1.3Z"/><path class="cls-23" d="M218.56,242.38c.33,3.62.12,7.15.05,10.64-.02.87-.4,1.11-.49,1.48-.78-.52-1.87-1.27-2.83-1.25-1.15.02-2.7,1.92-3.45.82l-3.69-19.48c.89-.6,1.04-1.37,1.72-1.97,1.49-1.31,5.16-3.1,5.26-5.17.04-.86-.06-1.88-.04-2.82,1.47,5.67,2.92,11.9,3.46,17.76Z"/><path class="cls-9" d="M275.73,147.97c.09,0,1.13.7,1.7.47l.03,1.26c-1.2-.15-2.09-.6-3.46-.43.36-.33,1.37-1.29,1.73-1.3Z"/><path class="cls-5" d="M173.96,196.48l.22.42.22-.42c.29.02.58-.02.87,0,.85.07,1.75-.08,2.6,0,.28.03.58-.03.87,0,5.71.54,11.99,1.79,17.76,2.6l.05,2.12,3.41.49v.85c-8.46-1.14-18.97-4.3-27.49-3.93-1.14.05-1.8.86-2.97.87-.31,0-3.34-.18-2.88-1.27,1.62-.05,3.25-.33,4.33-1.73,1,.09,2.03-.07,3.03,0Z"/><path class="cls-15" d="M173.96,196.48c.14,0,.29-.01.43,0l-.22.42-.22-.42Z"/><path class="cls-7" d="M154.9,193.01c-.45-.07-1.09.16-1.3-.43.48,0,1.09-.12,1.3.43Z"/><path class="cls-15" d="M63.09,177.86v.43c-.16,0-1.05.79-1.73.43v-1.3c.58.12,1.15.34,1.73.43Z"/><path class="cls-15" d="M60.49,177.42v.86s-1.08,0-1.08,0l-.22-.87v-.43c.62.11,1.06.39,1.3.43Z"/><path class="cls-5" d="M63.09,177.86c.66.11,1.48-.09,2.17,0v.87c-.72-.17-1.41-.45-2.17-.43v-.43Z"/><path class="cls-25" d="M167.03,176.56c-.98-5.49-2.21-10.89-3.03-16.46-.72-4.85-1.1-9.76-1.73-14.72.87.38,1.1,1.13,1.27,1.98,1.61,8.13,2.9,18.55,3.88,26.87.08.7.35,1.89-.39,2.32Z"/><path class="cls-25" d="M167.03,177.42c1.34-.26.74.66.92,1.44.67,2.9,2.65,6.82-.92,8.09,1.73-2.97.53-6.4,0-9.53Z"/><path class="cls-10" d="M209.04,194.74l-.44,1.73c.9.2,2,.19,1.73,1.31-2.08-.58-3.41-1-5.63-1.3v-.87c1.4.13,3.08-.22,4.33-.87Z"/><path class="cls-13" d="M257.51,218.59c.75,1.17-1.63,2.28-2.57,2.13l.41-2.41c.38-.38,2.09.17,2.16.28Z"/><polygon class="cls-13" points="266.2 221.16 266.2 222.46 264.04 222.46 264.04 221.6 266.2 221.16"/><path class="cls-13" d="M279.19,220.3c.18.18.43,2.26-1.08,1.73-1.34-.48.23-2.57,1.08-1.73Z"/><rect class="cls-13" x="277.46" y="210.34" width=".86" height=".86"/><rect class="cls-13" x="258.41" y="220.3" width=".86" height=".86"/><path class="cls-23" d="M215.1,222.89c-.01.28.03.59,0,.87h-.86c-.18-.48.42-.8.43-.87h.43Z"/><path class="cls-12" d="M211.2,198.64h.43c.12.24.31.75.43.87,0,.87.43,1.34,1.3,1.3.04.12-.04.29,0,.43.2.76.35,2.9.43,3.03-1,.05-2.07.19-3.03.43-.14.03-.3-.04-.43,0-.85-1.24-1.86-.39-2.17-.43-.59-.08-1.15-.33-1.73-.43v-.86s-.87.43-.87.43c-.25-.07-.61.06-.87,0v-.87s-.87,0-.87,0c-.42.04-.88-.05-1.3,0-.09-.17-.39-.31-.43-.43-.08-.22.18-.59-.27-.9s-4.7-2.04-5.36-2.13c-5.77-.8-12.05-2.06-17.76-2.6.45-.71,1.1-.85,1.89-.83,9.65.18,20.8,5.11,30.59,3Z"/><path class="cls-5" d="M210.77,206.44c-1.85.46-3.67,1.09-5.63.86v-.86c1.07-.08,2.16.05,3.24.03l.23-1.33c.75.28,1.26-.3,1.73-.43.13-.04.3.03.43,0,.09.51-.13,1.32,0,1.73Z"/><rect class="cls-8" x="214.67" y="207.31" width=".86" height="1.73"/><path class="cls-23" d="M214.67,221.6c-.18-.09-.38-.24-.43-.43.21.05.4.23.43.43Z"/><path class="cls-22" d="M189.12,146.24c.79,2.8-3.85.33-3.03-.43l3.03.43Z"/><path class="cls-22" d="M190.41,142.35c.3.27-.57,1.35-.74,1.65-.31.54.27,1.2-.98.94-.36-.72.56-3.67,1.73-2.59Z"/><path class="cls-3" d="M261.87,104.23c-.29,1.16-.41,2.31-.65,3.47-.39,0-.52-2.92-.65-3.47h1.3Z"/><path class="cls-3" d="M257.54,99.47v.43c-.48-.12-2.17.26-2.17-.22.44-.53,1.58-.06,2.17-.22Z"/><rect class="cls-22" x="200.81" y="159.67" width=".86" height=".86"/><rect class="cls-22" x="206.01" y="156.64" width=".86" height=".86"/><rect class="cls-22" x="208.61" y="156.2" width=".86" height=".86"/><path class="cls-3" d="M262.74,96.87c-.12-.13-.41-.3-.43-.43.16.13.31.27.43.43Z"/><path class="cls-15" d="M145.81,121.99c2.4.38,5.54,1.13,7.8,1.3l.87.43,3.39.95c.2.29.13,1.23.08,1.65h-.87s0,.87,0,.87c-2.02.2-3.65.58-5.63.87-.9.13-1.77.65-2.74.4l-24.97-4.3c-.11-.92-.04-1.15.7-1.68.9-.64,5.64-2.08,6.88-2.21,4.48-.45,10.03,1.01,14.5,1.73Z"/><path class="cls-18" d="M216.71,92.61c3.21-.94,5.16,3.61,1.86,4.52s-5.5-3.45-1.86-4.52Z"/><path class="cls-16" d="M168.76,113.76l5.2,8.23c-2.83-1.37-4.68-5.17-5.2-8.23Z"/><path class="cls-16" d="M167.46,114.63c-.13,2.59-1.62,5.23-3.46,6.93.65-1.95,1.64-3.65,2.4-5.64.26-.67-.13-1.55,1.07-1.29Z"/><path class="cls-16" d="M167.46,113.76c0-.06-.44-.35-.42-.68.1-1.46.72-2.94.42-4.52,1.14-1.49,1.25,3.59,1.3,3.9-1.04-.28-.78.68-1.3,1.3Z"/><path class="cls-16" d="M160.97,123.29c-.17.74.33.94.87,1.3-.06,0-.05.6-1.05.44-.72-.11-1.22-.84-1.98-.89-.38-1.66,1.87-.82,2.16-.86Z"/><path class="cls-16" d="M177.42,122.86c.64.2,1.28.09,1.3,1.08.01.75-1.23-.21-1.3-.21v-.87Z"/><path class="cls-16" d="M153.6,123.29c.05,0,.47-.58.86-.43v.86s-.86-.43-.86-.43Z"/><path class="cls-16" d="M157.93,126.32c-.03.28.04.58,0,.87-.28.04-.58-.03-.87,0v-.87s.87,0,.87,0Z"/><path class="cls-16" d="M176.12,122.86l-.87-.43c.48.16.82.42.87.43Z"/><path class="cls-10" d="M213.37,200.81c-.87.04-1.3-.43-1.3-1.3.39.35.7-.45,1.3,1.3Z"/><path class="cls-10" d="M210.77,197.78c.23.05.66-.13.83.04s-.03.67.04.82h-.43l-.43-.87Z"/><path class="cls-23" d="M194.75,205.14c-.26,1.22.6.82,1.36,1,1.38.32,2.85.43,4.14,1.08,3.65,1.87,3.33,8.62,4.03,12.21-1.64-.66-2.53,1.5-3.31,1.65-.86.17-1.93-1.12-3.63-.6-.24.07-3.87,2.21-4.03,2.38-.53.57-.48,3.09-2.24,3.09-1.17,0-1.44-2.08-2.25-2.64-1.53-1.07-3.79-.55-5.35-1.04-2.22-.69-2.87-3.86-6.47-3.27l14.72-13.86c.95.13,2.07-.11,3.03,0Z"/><path class="cls-5" d="M204.27,206.44c-3.31,0-6.14-.89-9.53-1.3-.96-.11-2.09.13-3.03,0-3.81-.5-9.1-.96-12.67-1.86-.74-.19-1.4-.14-1.19-1.17,4.31-.12,13.32,1.46,17.93,2.21,2.73.44,5.91,1.14,8.49,2.12Z"/><path class="cls-5" d="M169.63,201.24c-.75,0-1.52.12-2.6,0-.87-.1-1.32-.37-1.73-.43,1-.84,3.46-.69,4.33.43Z"/><path class="cls-5" d="M176.56,202.11c-.22.01-1.72.87-2.6.43v-.87c.88-.07,1.88-.19,2.6.43Z"/><path class="cls-5" d="M173.09,201.67c-.09.01-.96.84-1.73.43v-.86c.65.01,1.22-.11,1.73.43Z"/><path class="cls-23" d="M174.39,221.16l-.04.82-1.26.05c.64-.55,1.03-.65,1.3-.87Z"/><path class="cls-3" d="M157.07,199.51l-.86.43v-.86c.74.09.82.43.86.43Z"/><path class="cls-3" d="M162.7,200.37l-.86.43v-.86c.73.12.82.43.86.43Z"/><path class="cls-3" d="M196.48,199.08c.66.09,4.9,1.81,5.36,2.13s.19.67.27.9l-1.3.43c-.28-.02-.59.04-.87,0v-.85s-3.42-.49-3.42-.49l-.05-2.12Z"/><path class="cls-3" d="M210.34,204.71c-.47.13-.99.71-1.73.43l-.43-.87c.3.04,1.31-.8,2.17.43Z"/><path class="cls-5" d="M202.11,202.11c.05.12.34.27.43.43-1.27.17-.73.08-1.73,0l1.3-.43Z"/><path class="cls-5" d="M203.84,202.54h.87s0,.87,0,.87c-.24-.06-.59.06-.87,0v-.87Z"/><path class="cls-5" d="M205.57,203.41l.86-.43v.86c-.6-.11-.82-.42-.86-.43Z"/><rect class="cls-1" width="358.65" height="358.65"/></g></svg>