<?xml version="1.0" encoding="UTF-8"?><svg id="Lager_2" xmlns="http://www.w3.org/2000/svg" viewBox="0 0 358.65 358.65"><defs><style>.cls-1{fill:#aaa6a7;}.cls-2{fill:none;}.cls-3{fill:#e8b484;}.cls-4{fill:#b0adae;}.cls-5{fill:#a7a4a5;}.cls-6{fill:#89868e;}.cls-7{fill:#bcbcbb;}.cls-8{fill:#99979b;}.cls-9{fill:#969398;}.cls-10{fill:#b4b1b2;}.cls-11{fill:#414043;}.cls-12{fill:#939099;}.cls-13{fill:#989599;}.cls-14{fill:#3f3b3f;}.cls-15{fill:#453e41;}.cls-16{fill:#aaa6a8;}.cls-17{fill:#ada9aa;}.cls-18{fill:#79777f;}.cls-19{fill:#959297;}.cls-20{fill:#9a979b;}.cls-21{fill:#ebb27e;}.cls-22{fill:#bdb6b9;}.cls-23{fill:#626168;}.cls-24{fill:#525154;}.cls-25{fill:#9c9a9e;}.cls-26{fill:#b9b4b5;}.cls-27{fill:#c49773;}.cls-28{fill:#ecc8a4;}</style></defs><g id="Lager_1-2"><polygon class="cls-7" points="110.31 87.07 101.03 100.78 101.64 108.25 89.64 117.82 59.5 303.16 73.99 332.26 94.5 337.95 101.59 308.05 105 298.18 115.41 321.88 254 321.67 252.12 293.19 262.3 299 269.79 325.6 272.67 335.99 292.63 334.94 292.22 305.09 301.77 310.01 272.54 134.86 259.68 111.58 241.71 97.45 240.04 83.77 234.04 71.27 197.47 67.93 181.41 52.22 167.5 61.48 150.71 74.18 133.33 75.53 117.75 86.36 110.31 87.07"/><path class="cls-14" d="M215.34,66.29c-.21,1.69.89.44,1.25.42.78-.06,1.71-.04,2.49,0l1.25.42c.14.02.28-.02.42,0l1.25.42c.37.07.88-.08,1.25,0l.83.42c1.31.29,2.84.47,4.16.83l.83.42c1.58.48,2.07.53,3.74,1.25v.83s1.25,0,1.25,0c2.9,1.48,5.21,2.49,7.69,4.99.79.8,3.35,4.76,3.61,4.91.51.3,2.79-.53,4.19-.25,1.26.25,2.62,1.43,3.39,2.44l8.9,14.82c.28,1.68-1.19,4.19-2.41,5.31v.6c3.75,2.74,10.48,7.07,13.05,10.84,1.83,2.68,3.35,10.23,4.19,13.68,6.16,25.3,10.09,52.23,14.26,77.99,4.92,30.4,11.77,65.39,12.97,95.91.09,2.22.28,6.27-.04,8.3-.38,2.43-5.22,5.37-6.55,7.59-.12,7.41,4.57,14.77-4.24,18.6-7.3,3.18-18.35,3.02-25.85.51-1.22-.41-2.93-.64-3.23-2.18l-.42-14.54c-.27-1.42-2.62-1.49-3.15-3.09-1.08-3.28,1.47-8.07-1.22-11.25-.34,1.08-1.67,1.26-1.87,2.28-.67,3.4.83,9.5-.18,12.7s-8.82,4.55-11.71,4.91c-15.23,1.93-31.57,1.78-46.93,2.11-23.9.51-48.91.78-72.7-1.23-4.02-.34-16.32-1.07-18.19-5.08-1.22-2.62.44-9.89-.3-12.91-.11-.44-2.34-1.32-2.29-2.37-2.29,3.86-1.27,8.4-3.94,12.15-.4.56-1.34.61-1.6,1.43-.86,2.78.34,10.14-.07,13.65-.33,2.85-2.58,3.15-4.91,3.82-7.24,2.08-14.96,1.96-22.11-.3l-.83-.42c-.12-.05-.3.05-.42,0,.24-.95-.64-1.08-1.41-1.18l-.25.35c-.27-.14-.52-.22-.83-.42l-.06-.78-1.14-.07-.04-1.64h-1.66c-.7-1.43-.89-3.81-.83-5.4h.57s.67.83.67.83l-.83-2.08c.17-2.38.77-5.27.83-7.48.02-.63-.15-1.24-.38-1.83-.16-.42-.79-.18-.87-.25-1.92-1.57-4.52-3.46-5.4-5.82l-.42-.83c-.06-.37.03-.84,0-1.25.77-1.71.41-4.26.42-6.23,0-2.21-.08-4.45,0-6.65h.83c.39-.77-.41-1.58-.41-1.66-.2-2.77.31-5.54.42-8.31h.83c.39-.75-.4-1.58-.41-1.66-.07-.62-.02-1.43,0-2.08l.42-.83c.04-1.24-.04-2.5,0-3.74,1.69.21.44-.88.42-1.25-.05-.67-.02-1.4,0-2.08h.83c-.24-1.36.43-2.68.46-3.96.02-1.02-.45-1.37-.45-1.45-.01-.27.03-.56,0-.83h.83c.41-.76-.4-1.96-.41-2.08-.04-.41.03-.84,0-1.25h.83c.31-.74-.39-1.65-.41-2.08-.04-.65-.05-1.44,0-2.08,1.24.3.47-1.19,1.66-1.48v-1.02s-.83,0-.83,0c.61-4.81.92-9.69,1.66-14.54l.42-1.25c.04-.26-.04-.57,0-.83,1.54.82,1.43-.07,1.61-1.5.33-2.57.85-5.05.88-7.64-.91-.02-.17,1.75-.41,2.08-.07.1-.66-.1-.83,0,.04-.4-.06-.86,0-1.25l.42-.83c.2-1.26.21-2.81.42-4.16l1.24.42v-1.24s-.83,0-.83,0c.32-2.2.51-4.44.83-6.65,2.5.35,1.67-4.78,2.07-6.23-.79-.13-.2.81-.47,1.19-.16.21-.64,0-.77.06.6-3.15.79-6.39,1.25-9.56l.42-.83c.02-.13-.03-.28,0-.42h.83c.39-.75-.4-1.58-.41-1.66-.03-.27,0-.56,0-.83,1.45.25.54-1.07.96-1.97.05-.11.61-.1.69-.38.17-.59.36-1.95-.82-.97.11-.77-.11-1.72,0-2.49l1.24-.84v-.82s-.82,0-.82,0c.18-1.11.25-2.23.42-3.32.94.46,1.19-1.48,1.19-2.3,0-.34-.36-.56-.36-.61.02-.68-.06-1.41,0-2.08l.42-.83c.78-7.06,2.11-14.18,3.32-21.19,1.37.04.99-.71,1.24-1.46.86-2.62,2.54-6.51.84-8.93.07-.38-.07-.87,0-1.25l.42-.83c.75-3.99,1.35-8.05,2.08-12.05,1.83.16.76-1.95.83-2.91.02-.27-.03-.56,0-.83l.42-.83c.05-.4-.06-.86,0-1.25l.42-.83c.07-.38-.07-.88,0-1.25,1.71-.68,1.75-3.52,2.19-4.06.18-.22.69-.06.72-.1-1.59,8.74-3.38,17.44-4.99,26.18-4.95,27-9.55,54.16-13.65,81.3-3.76,24.84-7.77,49.91-7.87,75.07,2.96,2.95,5.11,4.59,7.4,8.19-.14.13-.32.25-.42.42-.99,1.69-1.71,11-.97,12.78,1.8,1.98,4.27,2.77,6.79,3.42.34.09.89-.08,1.25,0,.55.13.92.29,1.66.42,1.06.18,1.75.29,2.91.42.1.01.44.39.83.42,5.4.37,10.95-.82,16.16-2.13.47-3.71.55-7.42.47-11.17-.02-.97.02-1.94,0-2.91-6.3,1.48-12.87,1.93-19.34,1.68-.99-.04-1.87-.39-2.88-.46-1.71-.11-1.2.27-3.13-.39-1.05-.36-3.53-.97-3.32-2.08.14.02.28-.02.42,0,7.05,1.27,21.42,1.11,28.27-1.03,4.02-1.26,3.03-7.02,4.26-10.7.47-1.4,2.3-3.98,2.33-5.08.08-2.65-2.55-8.98-2.85-12.49-2.27-26.37,1.81-55.34,3.73-81.65v-.83c.02-.27-.02-.56,0-.83.26-2.89.56-5.83.83-8.73.04-.41.34-1.2.42-2.08.81-8.77,1.66-17.56,2.48-26.34-2.5-12.17-6.67-23.71-11.21-35.17-.42-1.05-.53-2.66-1.25-3.74l1.19.05c3.71,7.67,6.6,15.67,9.61,23.63l2.49,8.72c1.09-7.86,1.64-15.76,2.08-23.69.05-.88-.53-2.87.83-2.49-.1,4,.14,8.05,0,12.05-.4,11.47-1.91,23.43-2.91,34.91-.47,5.4-1.19,10.82-1.66,16.21-1.16,13.13-2.42,26.33-3.32,39.48-.07.97-.35,1.86-.42,2.91-.03.41.02.83,0,1.25-.24,4.1-.29,8.15-.42,12.26-.43,13.51-1.84,28.6,1.45,41.78.33,1.32,2.37,8.3,2.95,8.69,2.34,1.58,9.72.25,12.64,1.28-.91-6.56-3.41-12.71-4.15-19.33-.3-2.69-.81-10.65.09-12.79.22-.53,5.13-3.77,6.15-4.66,11.76-10.19,14.04-19.68,14.95-34.71.06-.99.21-1.92.46-2.87,8.33-.73,16.75-.58,25.12-.86,20.29-.66,40.13-1.19,60.45.4v.42c-1.1-.06-2.22.03-3.32,0-.28,0-.55,0-.83,0-23.67-.5-47.44.21-71.06.41-.1,14.74-3.09,29.09-14.13,39.48-2.63,2.47-9.86,7.7-13.18,8.64-.39.11-1.47.4-1.36-.32,4.94-2.17,10.03-5.84,13.88-9.61.45-.45.69-1.2,1.08-1.62.63-.67,1.62-1.25,2.29-2.07,7.82-9.55,10.02-22.46,10.59-34.5l-7.9.42c-.35,8.64-1.38,18.4-5.4,26.18-3.38,6.55-9.71,12.69-16.22,16.07-1.13,11.1,2.47,21.04,4.18,31.72,2.83-.1,5.7.15,8.53.02,16.07-.72,32.1-2.83,48.19-2.96,19.89-.17,40.24,2.11,60.05,2.11,1.43,0,6.83.3,7.52-.68,2.91-8.63,4.64-17.23,5.36-26.33.08-1.03.66-3.92.33-4.49-8.21-6.36-14.26-15.25-18.09-24.91-1.8-4.53-3.41-9.54-4.68-14.23-.18-.68-.41-1.36-.42-2.08,0-.13-.02-.29,0-.42.03-.15.45-.51.42-.83.4.08.65.36.83.42,2.92,12.59,7.69,24.84,16.22,34.69,1.85,2.14,4.45,4.02,6.22,6.04,1.68,1.91,1.34,3.14,1.24,5.61-.16,3.94-1.09,8.78-1.86,12.68-.9,4.58-2.05,9.25-3.95,13.51.25.41,1.18.18,1.66.2,1.76.07,6.22.19,7.26-1.26.92-1.29,2.69-9.88,3.02-11.94,2.85-17.51.91-43.74-.31-61.8-1.75-25.99-6.07-52.04-7.48-77.92-.32-5.9-.67-11.54,0-17.45l.83.61,2.08,26.81,5.61-21.61c.63-2.16,5.31-17.27,6.08-17.81.35-.24,1.43-.31,1.17.54-.83,2.75-2.18,5.42-3,8.22-.52,1.78-.69,3.66-1.14,5.3-2.91,10.85-5.81,21.91-7.92,33.03,3.83,34.36,7.68,68.93,7.17,103.49-.08,5.32.14,10.78-.56,16.15-.37,2.86-2.56,9.57-2.42,11.67.09,1.35,1.62,2.7,2.06,3.97.32.92.37,1.72.43,2.68.41,6.59-3,7.44,4.95,9.18,5.41,1.18,13.66,2.25,19.13,1.86,1.82-.13,6.06-.81,7.47-1.88.91-.69,1-1.75,1.67-2.49,1.16-1.26,5.58-5.09,5.81-6.24-.61-16.98-2.73-33.83-5.04-50.63-5.4-39.32-11.71-81.31-20.02-120.03-1.12-5.23-3.66-19.09-6.02-23.07-1.15-1.94-9.24-8.51-11.42-9.78-.71-.41-1.01-.8-1.97-.73-.72.05-2.48,1.24-3.32,1.66-2.96,1.5-5.8,3.32-8.86,4.64-11.95,5.18-24.9,7.51-37.64,9.94-.04,1.64-.11,3.31-.04,4.95.04,1.11.4,2.06.43,3.1.4,14.88-.27,29.81-.88,44.48-.09,2.24,1.53,6.46-1.4,8.12-1.71.97-2.22-.02-3.14-.02-1.88-2.07-1.26-5.6-1.7-8.48-.24-1.57-1.34-3.6-1.23-5.42v-45.52c-4.67.32-9.09,1.76-13.58,2.82-1.12.26-1.15.16-.53-.75.75-.33,1.67-.4,2.08-1.25l12.05-2.91c-.49-1.16-1.49-2-1.66-3.32-.43-3.33,1.26-4.1,3.61-5.55.19-.11.1-.67.13-.69.1-.06,1.35-.03,1.66,0,.14.02.3-.03.42,0,.58.14,1.59,1.04,2.4,1.17,1.69.27,13.89-4.5,16.29-5.55,8.6-3.75,16.92-8.41,21.62-16.82,1.39-2.49,2.1-3.34,2.08-6.23.47.1,1.14-.08,1.66,0l-.83,4.57c-.4.51-.95,2.08-1.49,2.87-6.06,8.92-12.74,13.2-22.63,17.27-5.02,2.07-10.41,3.44-15.34,5.44,1.01,2.06.75,3.45.18,5.57,12.55-2.38,24.2-4.98,35.95-9.96,4.95-2.1,11.22-4.35,14.76-8.72,2.95-3.64.31-3.74-1.39-6.51-1.43-2.33-5.26-10.87-7.53-11.59-1.2-.38-2.18-.16-3.32.26-.07.26-.02.53-.02.8-2.12-.46-4.52-5.2-6.22-6.87-6.64-6.54-19.67-8.89-28.69-9.75v-.83c.94.39,1.96-.35,2.49-.42.49-.06,1.14-.01,1.66,0ZM206.07,114.62c-3.14-3.48-9.64,1.01-6.11,4.44-.76-4.05,6.05-5.55,6.44-1.25,1.18-.48.22-2.59-.33-3.2ZM201.62,120.31c-.87,9.56.34,19.75.44,29.28.08,7.56-.66,14.84.04,22.4.21.66.64.6,1.18.68,1.48.22,2.93-.14,2.93-1.85-.05-15.1-.01-30.3-.85-45.32-.1-1.82.28-7.27-.61-8.53-1.19-1.7-5.09.74-3.13,3.34ZM205.78,173.92l-3.33.21c1.08,1.54-.68,7.14,1.81,7.19.58.01,1.52-.86,1.52-1.38v-6.03ZM74.46,198.44v-1.24h-.41v1.24h.41ZM71.96,213.81v-1.24h-.41v1.24h.41ZM174.2,308.15c-15.03.27-30.38,2.37-45.07,2.51-6.46.06-13.25-1.33-19.76-1.26v5.63c-.13.48.41,1.17.42,1.43.06,2.29-1.72,3.79,1.11,5.75,4.42,3.05,25.46,3.57,31.72,3.81,4.55.18,9.16-.09,13.71,0,17.85.36,35.88.68,53.8-.02,3.38-.13,6.99.45,10.2-.4,6.27-.12,12.65-.26,18.91-.83,3.45-.32,12.46-.89,14.77-3.1s1.09-7.01.81-9.78c-.11-1.08.08-2.24,0-3.33-5.26.37-10.51,1.19-15.79,1.25-6.88.08-14.07-.57-21-.81-14.6-.5-29.25-1.11-43.83-.85ZM293.05,321.03c-7.59,3.46-18.97.94-27.01,0v13.51c3.36,1.8,8.26,2.52,12.05,2.7,4.56.22,10.38-.26,14.54-2.29,6.48-3.17,2.62-9.53,2.5-15.16-.7.43-1.31.9-2.07,1.25ZM66.14,331.42v-1.24h-.41v1.24h.41Z"/><path class="cls-15" d="M120.17,80c1.22-1.31,2.36-2.79,3.74-3.95,9.1-7.7,21.38-8.95,32.84-9.96,5.23-8.41,10.58-16.46,21.6-16.84.31-4.84-1.24-10.1,2.48-13.94,2.09-2.15,4.85-2.58,6.42-5.63,5.23-10.22-9.34-17.38-15.06-8.82-1.04,1.55-1.95,6.09-4.37,5.87-3.88-.35-.45-5.82.64-7.52,9.06-14.06,30.44-1.92,22.28,12.72-2.14,3.83-5.13,4.21-7.16,6.55s-.68,7.78-1.07,10.78c10.27.09,16.46,7.33,20.89,15.68l10.28,1.36c-.53.07-1.55.8-2.5.42v.83c-.27-.03-.55.02-.83,0v-.83s-3.56-.04-3.56-.04c-.8-.14-.54.82-.59.87-.12.11-.87-.23-.83.21l1.93,2.22c2.55.19,5.12.43,7.62.9,13.53,2.54,19.21,6.46,8.73,18.7-.54-.29-1.15-2-1.25-2.08.85-.47,3.67-4.93,3.32-5.4l-6.23-2.5c-.13-.14-.25-.32-.42-.42-4.65-2.71-9.27-4.1-13.25-8.15-5.47-5.57-6.98-13.8-14.31-17.69-6.41-3.4-15.87-3.86-21.89.49-7.07,3.26-8.71,11.12-13.71,16.62-.14.14-.28.28-.42.42-1.21.87-2.14,1.99-3.32,2.91l-1.46.41-4.77,3.33c-.4.11-.83.29-1.25.42-3.41,1.03-6.04.75-5.38,5.18.22,1.43,1.87,2.16-.44,2.72-1.54-2.68-2.62-3.73-2.05-7.25.15-.91,2.63-3.99,3.3-4.39,3.18-1.86,9.15-1.74,12.05-2.91,1.02-.41,2-2.01,2.91-2.7-5.95.07-12.7,1.38-18.42,3.21-.56.18-.93.67-1.11.74-6.01,2.17-6.4,2.42-11.22,6.65-.59.51-2.08,1.2-2.91,2.08l-1.25-1.25ZM180.85,49.25v-9.35c0-.18,1.83-2.57,2.12-2.87,1.33-1.34,3.55-2.31,4.94-3.79,9.24-9.83-3.82-24.53-15.1-16.76-1.87,1.29-4.84,5.9-5.27,8.03-.12.62.02.74.62.62,2.35-3.22,2.68-6.69,6.77-8.61,10.65-5.01,20.33,8.33,11.53,16.52-1.57,1.47-6.45,4.05-6.45,6.43v9.77h.83ZM204.53,65.87c-2.57-.44-.52,1.8,0,1.24v-1.24ZM226.97,80.42c.7-5.18-4.68-6.35-8.64-7.36-2.99-.76-6.13-1.3-9.23-1.36l3.2,2.41c1.84.81,13.88,7.1,14.67,6.32ZM150.51,72.94c-4.37.29-9.86,1.59-11.62,6.03l7.48-3.32,4.15-2.71Z"/><path class="cls-14" d="M120.17,80l1.25,1.25c-.47.5-3.7,4.8-3.67,5.12,4.63,12.38,16.4,18.89,28.09,23.46,2.19.86,5.35,2.2,7.58,2.6,1.65.29,2.62-.81,4.38-.84,3.02-.06,5.69,2.85,5.59,5.83-.05,1.48-.99,2.64-.81,4.14,2.83.64,5.59,1.49,8.29,2.51v.83c-2.85-.85-5.72-1.3-8.73-1.25-.01,1.8.02,3.61,0,5.4-.17,15.97.66,32.28-.45,48-.14,2.04,1.74,7.88-1.51,8.84-2.82.84-3.15-.89-4.28-1.16-.84-2.46-.06-5.27-.44-7.66-.21-1.35-1.21-2.04-1.26-3.76-.04-1.25.46-2.41.47-3.72.19-15.88-.55-31.73-.44-47.6-10.32-1.71-20.62-3.65-30.75-6.24-.24-.06-.59.06-.83,0s-.59.06-.83,0c-3.61-.95-9.07-2.83-12.69-4.14-1.58-.57-6.62-3.3-7.5-3.34-1.06-.05-4.88,3.13-5.94,4.02-.42.36-1.18.45-1.3.55.15-.69-.31-.93-.83-1.25.95-.88,1.94-1.65,2.91-2.49l.83-.83c.53-.48,1.37-.7,1.87-1.27.4-.49.1-1.21.21-1.64.54-2.13,1.51-5.38.83-7.48.6-.86.79-.77.83-.83l1.25.42c-.76.76-1.39,6.87-.95,7.79,1.03,2.19,13.48,6.13,16.32,6.96,9.98,2.93,23.09,5.97,33.36,7.41,1.16.16.72.07,1.55-.13.31-.08.84.2.84-.21l-.84-.21c0-.28,0-.55,0-.83,0-1.35-.08-2.61.36-3.92l-.35-.44c-14.6-4.87-33.51-12.11-36.35-29.33l-2.31-.39c.22-.15.17-.92,2.08-1.25.13-.02.28.02.42,0,.3.92.82.38,1.25,0,.78-.68,1.74-2.1,2.49-2.91ZM161.72,118.65c1.13-3.92-3.35-7.39-6.66-4.38-1.08.98-1.93,2.94-.4,3.96-.65-3.58,4.69-4.55,6.19-1.82.45.82.16,2.04.87,2.24ZM156.33,122.8c-.06.68.03,1.39,0,2.08,0,.14,0,.28,0,.42-.56,16.1.44,32.32-.02,48.44.22,1.88,1.13,1.76,2.52,1.43.35-.08.89.1,1.25-.18.46-.31.37-.79.43-1.25,1.32-10.95-1.05-24.54,0-35.78l-.93-20.68c-.39-1.34-2.78-1.63-3.18-.44l-.06,5.97ZM160.01,176.89l-2.85-.06c.66,1.47-.12,7.06,1.09,7.45,3.18,1.03,2.43-5.74,1.76-7.39Z"/><path class="cls-15" d="M93.58,111.58c.52.32.98.56.83,1.25-4.89,4.43-3.84,11.54-6.65,15.79-.03.04-.54-.12-.72.1-.44.54-.48,3.38-2.19,4.06,1-5.01,3.34-16.2,6.65-19.73.61-.65,1.5-.93,2.07-1.46Z"/><path class="cls-15" d="M116.02,82.91c-1.91.33-1.85,1.1-2.08,1.25-.12.08-.72-.23-1.27.28-1.94,1.79-4.16,6.79-6.21,9.28-1.42,1.72-2.98,2.57-4.16,3.74l-1.25-.42c1.24-1.69,2.65-3.33,3.91-5.02,2.41-3.23,6.2-12.39,11.05-9.11Z"/><path class="cls-15" d="M78.62,165.19c.6-3.48,1.44-6.93,2.08-10.39,1.71,2.42.03,6.3-.84,8.93-.25.76.13,1.5-1.24,1.46Z"/><path class="cls-15" d="M67.4,235.01c.17-.09.76.1.83,0,.25-.33-.5-2.1.41-2.08-.03,2.59-.54,5.07-.88,7.64-.19,1.43-.07,2.32-1.61,1.5.18-1.14.68-6.75,1.25-7.06Z"/><path class="cls-15" d="M70.3,216.31c.13-.06.61.16.77-.06.28-.38-.31-1.32.47-1.19-.4,1.46.43,6.58-2.07,6.23.13-.94-.04-4.56.83-4.99Z"/><path class="cls-15" d="M99.39,105.35c-.71-.43-.44-1.55-.37-2.23.21-2.04.13-3.71,1.2-5.25.68,2.1-.29,5.35-.83,7.48Z"/><path class="cls-15" d="M62.41,269.5c0,.08.47.43.45,1.45-.02,1.28-.7,2.59-.46,3.96h-.83c.04-1.68.3-3.9.83-5.41Z"/><path class="cls-15" d="M73.21,199.68c1.18-.98.99.38.82.97-.08.28-.64.27-.69.38-.42.9.49,2.22-.96,1.97-.04-1.85.71-2.47.83-3.32Z"/><path class="cls-15" d="M59.08,309.39c-.12-1.86-.26-4.6.42-6.23,0,1.97.35,4.52-.42,6.23Z"/><path class="cls-15" d="M64.07,258.7h.83s0,1.02,0,1.02c-1.2.29-.43,1.77-1.66,1.48.1-1.22.78-2.11.83-2.49Z"/><path class="cls-15" d="M74.88,189.3s.36.27.36.61c0,.83-.24,2.76-1.19,2.3.14-.96.15-2.14.83-2.91Z"/><path class="cls-15" d="M84.02,137.76c-.07.96.99,3.07-.83,2.91.17-.91.29-2.18.83-2.91Z"/><path class="cls-15" d="M62.82,266.59c.01.12.82,1.31.41,2.08h-.83c-.07-.74-.13-1.48.42-2.08Z"/><path class="cls-15" d="M65.73,333.5h1.66s.04,1.64.04,1.64l1.14.07.06.78c-1.12-.7-2.2-1.05-2.91-2.49Z"/><path class="cls-15" d="M65.32,326.85l.83,2.08-.67-.84h-.57c.03-.68.41-1.14.42-1.24Z"/><path class="cls-15" d="M63.24,263.27c.02.42.72,1.34.41,2.08h-.83c-.05-.74-.14-1.47.42-2.08Z"/><path class="cls-15" d="M60.75,284.88c0,.08.81.91.41,1.66h-.83c.02-.61-.11-1.18.42-1.66Z"/><path class="cls-15" d="M72.38,203.84c.01.08.81.91.41,1.66h-.83c.11-.5-.18-1.18.42-1.66Z"/><path class="cls-15" d="M59.91,294.85c0,.09.81.89.41,1.66h-.83c.02-.61-.1-1.18.42-1.66Z"/><path class="cls-15" d="M69.47,336.41l.25-.35c.77.1,1.65.23,1.41,1.18-.82-.33-1-.48-1.66-.83Z"/><path class="cls-15" d="M68.64,227.94h.83s0,1.25,0,1.25l-1.24-.42c.06-.38.4-.72.42-.83Z"/><path class="cls-15" d="M216.58,66.7c-.36.03-1.45,1.27-1.25-.42.46.01,1.05-.12,1.25.42Z"/><path class="cls-15" d="M61.58,276.98c.03.36,1.27,1.45-.42,1.25.02-.46-.12-1.05.42-1.25Z"/><path class="cls-15" d="M234.04,71.27h-1.25s0-.83,0-.83c.86.37,1.05.73,1.25.83Z"/><path class="cls-15" d="M73.63,195.53h.83s0,.82,0,.82l-1.24.84c.08-.56.32-1.1.42-1.66Z"/><path class="cls-15" d="M64.9,317.29c.08.07.71-.17.87.25.23.58.4,1.19.38,1.83l-1.25-2.08Z"/><path class="cls-15" d="M220.32,67.12l-1.25-.42c.89.04,1.18.41,1.25.42Z"/><path class="cls-15" d="M221.99,67.53l-1.25-.42c.7.11,1.15.4,1.25.42Z"/><path class="cls-15" d="M117.68,82.91c-.43.38-.95.92-1.25,0,.39-.06.84.04,1.25,0Z"/><path class="cls-15" d="M65.73,244.15c.11-.71.41-1.18.42-1.25l-.42,1.25Z"/><path class="cls-15" d="M80.69,153.56c.13-.68.41-.79.42-.83l-.42.83Z"/><path class="cls-15" d="M72.38,337.65c-.45-.14-.68-.36-.83-.42l.83.42Z"/><path class="cls-15" d="M60.75,282.8c.02-.74.41-.78.42-.83l-.42.83Z"/><path class="cls-15" d="M84.02,136.93c.07-.72.41-.79.42-.83l-.42.83Z"/><path class="cls-15" d="M84.43,134.86c.11-.7.41-.79.42-.83l-.42.83Z"/><path class="cls-15" d="M71.55,206.75c.1-.72.41-.79.42-.83l-.42.83Z"/><path class="cls-15" d="M224.06,67.95l-.83-.42c.65.14.79.41.83.42Z"/><path class="cls-15" d="M67.4,233.76c.1-.71.41-.79.42-.83l-.42.83Z"/><path class="cls-15" d="M229.05,69.2l-.83-.42c.56.16.79.4.83.42Z"/><path class="cls-15" d="M59.5,311.47c-.08-.21-.34-.37-.42-.83l.42.83Z"/><path class="cls-15" d="M74.88,187.22c.07-.73.41-.78.42-.83l-.42.83Z"/><path class="cls-15" d="M96.49,109.09c.22-.19.5-.54.83-.83l-.83.83Z"/><path class="cls-1" d="M253.99,111.17c.15-.07.62.12.96,0,.42-.15.1-1.06.87-.8,3.03,2.19,11.94,7.8,11.9,11.82,0,.65-.5,1.2-.44,1.87l1.19-.39c.59.42,2.61,5.79,2.92,6.88,6.12,21.8,8.02,47.55,10.9,70.13,1.03,8.1,3.21,17.45,3.68,25.42.06.94.38,2.04-.82,1.86l1.15,1.53c2.19,17.04,4.71,34.17,8.09,50.94,1.57,7.79,6.77,20.88,3.95,28.25-.8,2.1-3.19,6.79-5.71,6.96.12-.91-.06-.99-.42-1.66-1.78-3.37-7.07-2.43-10.06-3.45-.64-.22-3.42-1.58-4.07-1.95-1-.57-6.05-4.64-4.99-5.82l1.25-.83c.47.12,1.48,0,2.08,0,1.9.01,3.62-.3,5.4-.83.46-.14,2.34.21,2.08-1.03-.09-.42-2.36-1.77-2.91-2.29-.37-.35-.93-.88-1.25-1.25-5.52-6.4-7.46-24.07-8.31-32.62-1.41-14.33-1.71-28.81-2.66-43.14-1.75-26.63-4.12-53.13-4.4-79.87,0-.7.27-1.85-.42-2.28.44-1.65.62-3.53,1.14-5.3.82-2.8,2.17-5.47,3-8.22.26-.85-.83-.78-1.17-.54-.77.54-5.46,15.65-6.08,17.81l-5.61,21.61-2.08-26.81-.83-.61c-.67,5.91-.32,11.55,0,17.45-.69.43-.41,1.58-.42,2.28-.12,9.61.78,18.75,1.25,28.27,1.3,26.43,2.26,52.86,2.92,79.36.27,10.88,1.55,23.12-.96,33.96-.72,3.12-1.93,8.16-5.28,9.06-.48-.02-1.4.21-1.66-.2,1.9-4.26,3.04-8.93,3.95-13.51.77-3.91,1.7-8.74,1.86-12.68.1-2.46.44-3.7-1.24-5.61.53-.71.4-1.29.24-2.08-1.32-6.64-12.83-24.23-16.94-30.88-1.53-2.47-3.67-4.99-4.58-7.69-.27-.25-.88.01-1.16-.07-.18-.05-.43-.34-.83-.42-.74-.15-2.11-.33-2.91-.42-.68-.08-1.4.06-2.08,0-.27-.02-.56.02-.83,0-20.32-1.59-40.16-1.06-60.45-.4-8.37.27-16.79.12-25.12.86-.25.95-.4,1.88-.46,2.87l-1.66,2.7c-3.01,8.9-8.3,16.75-15.59,22.64-.59-4.03-.64-8.15-1.09-12.21-.14-1.23-.66-2.89-.78-4-.08-.68.08-1.4,0-2.08-.11-.97-.3-1.93-.42-2.91-.36-3.03-.92-6.13-1.25-9.14-.18-1.71-.27-3.45-.45-5.16-.04-.34-.37-.58-.38-.66-2.14-20.3-3.4-42.15-3.36-62.54,0-4.16.59-8.3.45-12.49-.03-.8.42-1.67-.83-1.44.14-4-.1-8.05,0-12.05-1.36-.37-.78,1.61-.83,2.49-1.28-.05-1.01.66-1.27,1.43-1.02,3.06-1.94,8.35-2.46,11.66-.12.74.2,1.56-.84,1.86-3.01-7.96-5.9-15.96-9.61-23.63l-1.19-.05c.72,1.08.83,2.68,1.25,3.74-.75.37-.31,1.42-.15,2.02,5.18,19.54,3.7,42.31,1.4,62.4-1.71,14.87-5.19,29.78-7.59,44.57-.06.37-.18,1.25-.72,1.14-.1-1.86.11-3.76.01-5.63-1.34-25.14-.59-50.4.81-75.41.02-.28-.02-.56,0-.83s-.02-.56,0-.83c.41-6.65.98-13.14,1.66-19.74.55-5.32.85-18.17,3.56-22.2.66-.99,7.94-6.68,8.71-6.68,4.69,3.91,9.8,6.06,15.58,7.9,10.09,3.22,20.5,4.77,30.99,6.21.23,15.2.2,30.41.44,45.6.04,2.41-1.32,10.65,2.04,11.36.59.12,1.37-.12,1.86,0,1.13.27,1.46,1.99,4.28,1.16,3.25-.96,1.37-6.8,1.51-8.84,1.1-15.72.27-32.04.45-48,3.66-.65,11.1.9,14.27-.06,2.3-.7-1.1-2.63-1.39-2.84-1.95-1.46-2.02-1.27-4.16-2.08-2.71-1.02-5.46-1.87-8.29-2.51-.18-1.5.77-2.66.81-4.14.97-.09,3.23.67,3.89,1.2.53.42.05,1.45.66,1.93.34.26,1.38.25,1.97.53.94.44,2.88,1.84,3.62,1.77.18-.02.97-2.14,2.97-1.32.11.05,1.81,1.39,1.84,1.51.36,1.26-2.99-.32-3.33.21l1.68,2.89c2.21-.36,3.32.08,3.3-2.48.4-.05.88.07,1.25,0v1.66c1.03,0,2.06-.91,2.49.42-.71.39-1.84,1.36-1.69,2.26l1.95,1.39,12.21-.73c.47,3.24.49,6.5.43,9.78-.23,14.19-.77,28.52-.82,42.76,1.74,5.52,5.16,1.49,6.62,1.48.92,0,1.43.98,3.14.02,2.94-1.66,1.31-5.88,1.4-8.12.6-14.68,1.28-29.6.88-44.48-.03-1.04-.39-1.99-.43-3.1,12.72-1.62,27.26-3.92,38.53-10.3,2.65-1.5,5.47-4.28,8.02-5.49Z"/><path class="cls-16" d="M219.49,233.76c.84,19.35,9.84,41.37,29.51,47.79-2.59-2.1-5.96-3.54-8.69-5.64-13.01-9.99-18.33-26.35-19.98-42.15,1.1.03,2.22-.06,3.32,0,.08,0,.45.39.83.42.55.04,1.12-.05,1.66,0v.83s2.91,0,2.91,0c0,.72.23,1.4.42,2.08-.95.06-1.28.22-1.08,1.26,1.66,8.93,4.52,17.91,9.22,25.72.31.51.88.83,1.18,1.31,1.22,1.95,2.11,4.54,4.39,5.38l-.83,1.65c2.67-.77,2.44,1.38,4.57,1.67l-.42,1.24c2.07-.7,2.18,2.44,4.33,2.12.46-.07-.05-1.05.65-.86l.42,4.15c-.72,9.1-2.45,17.7-5.36,26.33-.69.98-6.09.68-7.52.68.25-1.02-1.31-1.34-1.99-1.54-4.77-1.42-9.57-2.17-14.11-3.35-.65-.17-1.32-.11-1.98-.09-.37,0-.21-.54-.21-.83.23-.06.56.05.83,0,.12-.87.04-.94-.83-.83-.02.28,0,.55,0,.83-4.37,1.08-12.31-1.45-16.89-1.93-16.37-1.7-49.33-.35-62.61-8.95-4.74-3.07-6.04-7.63-6.52-13.03-.15-1.63.83-2.9-.41-4.35,11.04-10.4,14.02-24.74,14.13-39.48,23.62-.2,47.39-.91,71.06-.41Z"/><path class="cls-8" d="M82.77,154.8c3.26-.41.09,1.28,2.11,1.92l-.45,1.82c.84-.53,4.01-1,4.57-.41.78.82-2.25,2.13-1.21,3.7l3.28.46c-.02.28.02.56,0,.83h-.83s0,.62,0,.62l.83.21c-1.4,25.01-2.16,50.27-.81,75.41.1,1.86-.11,3.76-.01,5.63.54.11.66-.76.72-1.14,2.39-14.8,5.88-29.71,7.59-44.57l1.65,1.88c.04.96-1.23.35-.82,1.86h1.25s-.36,4.93-.36,4.93l2.02.48-.02,1.21-1.64.45c-.44,1.71,2.3,3.25,3.3,2.04.11-.14-.82-3.6.86-3.29-1.92,26.31-6,55.28-3.73,81.65.3,3.51,2.93,9.84,2.85,12.49-.03,1.1-1.86,3.69-2.33,5.08-1.23,3.68-.24,9.44-4.26,10.7-6.85,2.14-21.21,2.3-28.27,1.03-.11-.16-.32-.27-.42-.42-2.29-3.6-4.43-5.24-7.4-8.19.1-25.16,4.11-50.23,7.87-75.07,4.11-27.14,8.7-54.31,13.65-81.3ZM72.8,299.01c1.66,5.27,5.97,10.01,11.52,11.12,1.75.35,4.21.34,6.09.56,1.46.18,5.44,1.74,3.53-1.86-2.01-3.78-8.1-3.09-11.59-4.21-1.5-.48-3.16-1.81-4.78-2.28l-4.77-3.33Z"/><path class="cls-20" d="M134.3,260.77c1.44-.17.59.45.54,1.16-.19,2.94-.12,5.87-.12,8.81-.39.42-.62,1.17-1.08,1.62-3.85,3.77-8.94,7.43-13.88,9.61-.11.73.97.43,1.36.32,3.33-.94,10.56-6.16,13.18-8.64,1.23,1.44.26,2.72.41,4.35.49,5.41,1.78,9.96,6.52,13.03,13.29,8.6,46.25,7.25,62.61,8.95,4.59.48,12.52,3.01,16.89,1.93,0-.28-.02-.55,0-.83.87-.12.94-.04.83.83-.26.05-.6-.05-.83,0,0,.3-.17.84.21.83.66-.02,1.33-.08,1.98.09,4.54,1.18,9.33,1.93,14.11,3.35.68.2,2.24.53,1.99,1.54-19.81,0-40.16-2.28-60.05-2.11-16.09.14-32.12,2.24-48.19,2.96-2.83.13-5.7-.12-8.53-.02-1.71-10.68-5.3-20.62-4.18-31.72,6.51-3.38,12.84-9.52,16.22-16.07Z"/><path class="cls-9" d="M279.75,296.51c-2.08-.28-3.17.51-2.94,2.66l1.69,1.49-2.08,1.25c-.6,0-1.61.12-2.08,0-.14-.04-1.16-1.46-2.49-.83v-2.08s-2.02.68-2.02.68l-.06,2.65h-2.08s-.02,2.06-.02,2.06l-3.72.44.42,1.66-2.08.42c-.44-1.27-1.97-2.62-2.06-3.97-.14-2.1,2.05-8.81,2.42-11.67.7-5.38.48-10.83.56-16.15.51-34.56-3.34-69.13-7.17-103.49,2.11-11.12,5.01-22.18,7.92-33.03.69.43.42,1.58.42,2.28.28,26.74,2.65,53.24,4.4,79.87.94,14.33,1.24,28.82,2.66,43.14.85,8.56,2.79,26.22,8.31,32.62Z"/><path class="cls-13" d="M137.63,236.67c-.92,15.03-3.2,24.52-14.95,34.71-1.02.89-5.93,4.13-6.15,4.66-.9,2.14-.39,10.1-.09,12.79.74,6.62,3.24,12.76,4.15,19.33-2.92-1.03-10.3.31-12.64-1.28-.57-.39-2.62-7.37-2.95-8.69-3.29-13.17-1.88-28.27-1.45-41.78.13-4.1.18-8.16.42-12.26h.83s0-1.04,0-1.04l-.83-.21c.06-1.04.35-1.94.42-2.91,2.04.09,3.09,1.78,5.4.83v2.08s1.66,0,1.66,0l.02-1.64,2.89-.43-1.24,1.66c1.99-.51,1.15,1.99,2.5,2.7.76.4,2.05.26,2.9.63.12,1.11.64,2.76.78,4,.45,4.06.5,8.17,1.09,12.21,7.28-5.9,12.57-13.75,15.59-22.64l1.66-2.7Z"/><path class="cls-26" d="M286.82,320.62l3.93-2.09c.46-1.09,1.71-1.63,1.88-2.89,2.52-.18,4.91-4.86,5.71-6.96,2.82-7.37-2.38-20.46-3.95-28.25-3.38-16.77-5.9-33.9-8.09-50.94l-1.15-1.53c1.2.18.88-.92.82-1.86-.47-7.97-2.65-17.32-3.68-25.42-2.88-22.58-4.78-48.33-10.9-70.13-.31-1.09-2.32-6.46-2.92-6.88l-1.19.39c-.07-.67.43-1.22.44-1.87.04-4.01-8.87-9.63-11.9-11.82-.77-.26-.45.65-.87.8-.34.12-.81-.07-.96,0,.39-1.02,1.11-1.71,1.66-2.49.59-.83,1.66-1.51,1.66-2.91.96-.07,1.26.32,1.97.73,2.17,1.27,10.27,7.84,11.42,9.78,2.35,3.99,4.89,17.84,6.02,23.07,8.31,38.72,14.62,80.71,20.02,120.03,2.31,16.8,4.42,33.65,5.04,50.63-.22,1.16-4.65,4.98-5.81,6.24-.67.73-.76,1.8-1.67,2.49-1.41,1.07-5.65,1.75-7.47,1.88Z"/><path class="cls-5" d="M158.82,315.63c.25-.08.43-.38,1-.43,14.28-1.35,29.12-.93,43.26-.4,9.02.34,18.03.68,27,1.67l.83-2.08.21,2.08c.97.02,1.95-.04,2.91,0,.11,3.36.63,4.96-2.9,6.23-.12-1.27.15-2.72,0-3.96-.08-.61-.32-1.29-.83-.61l-.04,4.53c-3.41.51-6.7,2.09-9.93,2.95s-6.82.26-10.2.4c-17.92.7-35.95.38-53.8.02.06-.67-.09-1.42,0-2.08.19-1.39.95-2.7.83-4.15l-2.08-.83,2.9.41.83-3.74Z"/><path class="cls-20" d="M239.03,309.81c5.29-.06,10.53-.88,15.79-1.25.08,1.09-.11,2.25,0,3.33-.65,2.76-1.91,2.46-3.72,3.57-.32.2-.36.99-.68,1.02-.35.03-1.05-.48-1.64-.45-3.62.17-6.47.47-10.17.44-1.11,0-2.22.03-3.32,0-.1-1.28.65-3.81-1.03-4.16l.2,4.16c-.14,0-.28,0-.42,0-.97-.03-1.95.03-2.91,0l-.21-2.08-.83,2.08c-8.97-.99-17.98-1.33-27-1.67-14.14-.53-28.98-.95-43.26.4-.58.05-.76.36-1,.43-.41.13-.77-.24-1.25.42-1.22-.82-2.23-.05-2.91,0-.41.03-.84-.04-1.25,0-.59.06-1.17-.15-1.66.42-.12-.04-.27.02-.42,0-.51-.09-1.52-.05-2.08,0-1.55.14-3.79.56-5.4.83-2.87.49-6.31,1.32-9.14,2.08l-.42-6.65c13.34-1.3,26.82-2.54,40.31-2.91,4.06-.11,8.2-.02,12.28-.02,6.86,0,13.91-.08,20.77,0,1.04.01,1.69.79,2.47.81.99.02,2.39-.86,4.17-.82,5.14.12,10.92,1.74,15.99,2.11l.21.84.21-.84c.41.02,3.29.04,3.46.02.32-.05.11-.84.88-.9,1.64-.11,3.52,1.47,3.96-1.2ZM240.69,315.63c.12-.12-.04-3.24-.82-3.32-.01,1.21-1.18,1.89-.45,3.07l1.27.25Z"/><path class="cls-16" d="M214.92,70.86c-.33-1.35,1.56-.85,2.23-.78,2.73.3,10.21,3.03,12.45,4.59,6.07,4.22.22,11.02-1.8,15.72.76.81,4.96-4.84,5-6,.02-.52-.43-1.16-.34-1.64.11-.64,2.63-2.74,2.61-4,.5,0,4.46,4.38,4.96,5.02,1.53,1.99,3.08,4.3,3.97,6.62-4.71,8.41-13.02,13.07-21.62,16.82-2.4,1.05-14.6,5.82-16.29,5.55-.81-.13-1.82-1.03-2.4-1.17.47-1.91.98-2.96.42-4.99.04-.02-.09-.56.3-.83,5.88-4.13,11.59-8.72,16.74-13.72.71-.68.93-.87,1.66-1.66.24-.26.51-.45.83-.83,10.48-12.25,4.8-16.16-8.73-18.7Z"/><path class="cls-26" d="M249.83,306.9c3.35-.9,4.56-5.94,5.28-9.06,2.51-10.84,1.22-23.08.96-33.96-.65-26.5-1.62-52.93-2.92-79.36-.47-9.52-1.37-18.66-1.25-28.27,0-.7-.27-1.85.42-2.28,1.4,25.89,5.73,51.93,7.48,77.92,1.22,18.06,3.16,44.29.31,61.8-.33,2.06-2.11,10.65-3.02,11.94-1.03,1.46-5.49,1.33-7.26,1.26Z"/><path class="cls-25" d="M112.28,149.4c1.25-.23.8.64.83,1.44.14,4.19-.44,8.33-.45,12.49-.04,20.38,1.22,42.24,3.36,62.54-1.55.75-1.54,1.7-.42,2.91v.42c-.43.12-1.08-.12-1.48.38l-.15,1.45c.33.97,2.02.64,2.87.66.33,3.01.89,6.11,1.25,9.14-1.41-.23-1.22,1.87-1.25,2.91h1.66c.08.68-.08,1.4,0,2.08-.85-.37-2.15-.23-2.9-.63-1.35-.71-.51-3.21-2.5-2.7l1.24-1.66-2.89.43-.02,1.64h-1.66s0-2.08,0-2.08c-2.31.95-3.36-.74-5.4-.83.91-13.15,2.17-26.35,3.32-39.48.99-.27,1.22,1.8,1.45,2.51.18.54.26,1.08.21,1.65l.94-.53-.55-10.05c-.29-2.81.36-5.57.45-8.33.02-.78.36-1.69-.84-1.45,1-11.47,2.51-23.43,2.91-34.91ZM112.27,226.28c-2.06-.38-1.16,4.73-.82,4.98,2.78-.48-.42-3.1.82-4.98ZM113.11,233.34c.32-.53-1.04-1.82-1.24-1.66l-.42,1.66h1.66ZM113.52,235.84h-.83v1.66h.83v-1.66Z"/><path class="cls-20" d="M121.83,115.74c-.05,2.26-.49,3.71-1.25,5.82-5.78-1.84-10.89-3.99-15.58-7.9-.77,0-8.04,5.7-8.71,6.68-2.72,4.03-3.02,16.88-3.56,22.2-.68,6.6-1.25,13.09-1.66,19.74l-3.28-.46c-1.04-1.57,1.99-2.88,1.21-3.7-.56-.59-3.73-.12-4.57.41l.45-1.82c-2.02-.63,1.15-2.33-2.11-1.92,1.6-8.74,3.4-17.44,4.99-26.18,2.81-4.25,1.76-11.37,6.65-15.79.11-.1.88-.19,1.3-.55,1.05-.9,4.88-4.08,5.94-4.02.88.05,5.92,2.77,7.5,3.34,3.62,1.31,9.08,3.19,12.69,4.14ZM85.26,153.97c.16-1-.19-1.76-1.24-1.66l-.42,1.66h1.66Z"/><path class="cls-19" d="M106.04,196.36l-3.32-1.67.83-2.07c-2.22.14-1.28.78-1.47,1.42-.49,1.58-1.19,3.07-1.02,4.81l4.57-.42c-.27,2.9-.57,5.84-.83,8.73h-.83s0,.62,0,.62l.83.21v.83c-1.67-.3-.74,3.16-.86,3.29-1,1.21-3.74-.33-3.3-2.04l1.64-.45.02-1.21-2.02-.48.36-4.93h-1.25c-.41-1.51.87-.89.82-1.86l-1.65-1.88c2.3-20.09,3.78-42.86-1.4-62.4-.16-.59-.6-1.64.15-2.02,4.53,11.46,8.7,23,11.21,35.17-.82,8.77-1.67,17.57-2.48,26.34Z"/><path class="cls-25" d="M262.3,306.9l2.08-.42-.42-1.66,3.72-.44.02-2.06h2.08s.06-2.64.06-2.64l2.02-.68v2.08c1.33-.63,2.36.8,2.5.83l-1.25.83c-1.06,1.18,3.98,5.24,4.99,5.82.26,1.02.67,2.43.43,3.45-.14.57-1.56.45-1.25,1.54l2.29-.87.82.89c1.94.29.96-2.01,2.08-1.68.37.11.12.54.36.69.34.22.83.07,1.12.41.38.45.55,2.12,1.08,2.24,2.64-.03,5.09.98,7.2-1.26.35.67.54.76.42,1.66-.17,1.27-1.43,1.8-1.88,2.89l-3.93,2.09c-5.48.4-13.72-.68-19.13-1.86-7.95-1.73-4.54-2.59-4.95-9.18-.06-.96-.12-1.76-.43-2.68ZM269.78,307.31c.19-1.04-1.43-1.77-2.23-1.68l-1.51,2.1,3.74-.42Z"/><path class="cls-9" d="M185.42,125.3c-.62.91-.58,1.01.53.75,4.49-1.06,8.91-2.5,13.59-2.82v45.52c-.12,1.82.97,3.85,1.21,5.42.44,2.89-.18,6.42,1.7,8.48-1.46,0-4.88,4.04-6.62-1.48.05-14.24.59-28.57.82-42.76.05-3.28.03-6.54-.43-9.78l-12.21.73-1.95-1.39c-.15-.9.98-1.87,1.69-2.26s1.31-.26,1.66-.42Z"/><path class="cls-19" d="M253.99,107.43l.02.8,1.64.45c-.55.78-1.28,1.47-1.66,2.49-2.54,1.22-5.37,3.99-8.02,5.49-11.27,6.38-25.81,8.69-38.53,10.3-.07-1.64,0-3.31.04-4.95,12.74-2.43,25.69-4.76,37.64-9.94,3.06-1.33,5.91-3.15,8.86-4.64Z"/><path class="cls-5" d="M134.3,260.77c4.02-7.78,5.05-17.54,5.4-26.18l7.9-.42c-.57,12.04-2.78,24.95-10.59,34.5-.67.82-1.66,1.41-2.29,2.07,0-2.94-.06-5.87.12-8.81.05-.71.9-1.33-.54-1.16Z"/><path class="cls-12" d="M174.2,308.15l.42,1.66c-13.49.37-26.97,1.61-40.31,2.91-.41.04-1.54-.09-1.66,0l-.83.42c-.87-.06-3.55-.22-3.97.39l.23,5.43h-3.33s0-4.57,0-4.57c-.28-.38-.82-.28-.77.58.07,1.35-.05,2.64-.06,3.99-4.86-.11-9.4-1.67-14.13-2.5,0-.26-.55-.95-.42-1.43v-5.63c6.51-.06,13.3,1.32,19.76,1.26,14.69-.14,30.04-2.24,45.07-2.51Z"/><path class="cls-10" d="M278.09,337.24c-1.21-3.74-.94-7.78-.65-11.66,4.7-.96,10.17-.83,14.61-2.84.93-.42,1.11-.66,1-1.7.76-.35,1.38-.81,2.07-1.25.12,5.63,3.98,11.99-2.5,15.16-4.15,2.03-9.97,2.51-14.54,2.29Z"/><path class="cls-25" d="M293.05,321.03c.11,1.05-.07,1.28-1,1.7-4.44,2.02-9.91,1.88-14.61,2.84-.29,3.89-.56,7.93.65,11.66-3.79-.18-8.69-.9-12.05-2.7v-13.51c8.04.94,19.42,3.46,27.01,0Z"/><path class="cls-4" d="M97.32,323.94c.08,3.75,0,7.45-.47,11.17-5.2,1.31-10.76,2.5-16.16,2.13.3-3.21-.4-7.08-.02-10.2.24-1.98,2.08-1.77,3.76-1.85.09.84-.49,1.95.83,1.67v-1.67s12.05-1.24,12.05-1.24Z"/><path class="cls-25" d="M134.3,312.72l.42,6.65c-1.87.5-4.05,1.79-6.23,1.67-.77.62,5.6,2.63,6.15,2.78,2.17.59,4.39.93,6.61,1.31.78.13,1.62-.34,1.37.89-6.27-.24-27.3-.76-31.72-3.81-2.83-1.96-1.05-3.46-1.11-5.75,4.73.82,9.27,2.39,14.13,2.5,0-1.35.13-2.64.06-3.99-.05-.86.49-.96.77-.58v4.57s3.33,0,3.33,0l-.23-5.43c.42-.61,3.1-.45,3.97-.39.06,0,.34.66.76.36.19-.19.01-.73.07-.78.12-.09,1.25.04,1.66,0Z"/><path class="cls-8" d="M230.3,234.18c.28.08.89-.19,1.16.07.91,2.7,3.05,5.22,4.58,7.69,4.11,6.65,15.62,24.24,16.94,30.88.16.8.29,1.38-.24,2.08-1.78-2.02-4.37-3.9-6.22-6.04-8.52-9.85-13.3-22.09-16.22-34.69Z"/><path class="cls-22" d="M220.32,325.6c3.23-.86,6.53-2.44,9.93-2.95l.04-4.53c.51-.67.75,0,.83.61.16,1.23-.12,2.69,0,3.96,3.54-1.27,3.01-2.87,2.9-6.23.14,0,.28,0,.42,0,.28,0,.55,0,.83,0,.05.57.38,1.19.43,1.88s-.85,3.57.61,3.54c2.46-.04,2.28-3.66,2.29-5.43,3.7.03,6.54-.27,10.17-.44.59-.03,1.29.48,1.64.45.32-.03.36-.82.68-1.02,1.81-1.11,3.08-.81,3.72-3.57.28,2.78,1.4,7.68-.81,9.78s-11.32,2.78-14.77,3.1c-6.26.58-12.63.71-18.91.83Z"/><path class="cls-22" d="M206.2,67.53c1.37.07,2.79-.1,4.16,0,.27.02.56-.03.83,0,9.02.86,22.05,3.2,28.69,9.75,1.7,1.67,4.1,6.41,6.22,6.87.02,2.89-.69,3.75-2.08,6.23-.89-2.32-2.44-4.64-3.97-6.62-.49-.64-4.46-5.02-4.96-5.02.02,1.26-2.5,3.35-2.61,4-.09.48.36,1.12.34,1.64-.05,1.17-4.25,6.81-5,6,2.01-4.7,7.87-11.5,1.8-15.72-2.24-1.56-9.72-4.28-12.45-4.59-.67-.07-2.56-.58-2.23.78-2.5-.47-5.08-.71-7.62-.9l-1.93-2.22c-.04-.44.71-.1.83-.21Z"/><path class="cls-4" d="M204.12,106.6c.56,2.02.06,3.08-.42,4.99-.12-.03-.27.02-.42,0-.08-.91-.92-1.92-1.87-2.08-.4,0-.38,1.93.2,2.08-.03.02.06.57-.13.69-2.35,1.45-4.05,2.22-3.61,5.55-1.99,0-4.05,1.36-5.76,2.34-1.39.79-3.87,2.95-5.04,3.48-2.38,1.07-2.51-.34-2.77-.41-1.21-.31-2.05.22-3.05.41-.37.07-.85-.05-1.25,0,0-.59-.08-1.15-.42-1.66.52.15,2.74.6,2.91-.21s-2.01-1.06-1.24-2.7c.79-.09,7.7-3.79,9.01-4.5,4.55-2.49,9.54-5.34,13.85-7.97ZM185,119.9h-.83v1.24h.83v-1.24Z"/><path class="cls-26" d="M203.29,172.67c1-1.97.14-4.39.16-6.37.1-13.73.73-27.54-.15-41.22-.16-2.45.64-5.9-1.25-7.68.42,1.05-.37,2.35-.42,2.91-1.96-2.6,1.94-5.04,3.13-3.34.89,1.26.51,6.71.61,8.53.83,15.02.8,30.22.85,45.32,0,1.71-1.45,2.07-2.93,1.85Z"/><path class="cls-17" d="M143.86,317.29c.5,1.7,1.4,4.88,3.21,5.36.78.21,3.13-1.47,4.1-1.61,1.14-.17,2.28.58,3.49,0-.13,1.39-.02,2.76,1.66,2.91-.09.66.06,1.41,0,2.08-4.56-.09-9.16.18-13.71,0,.24-1.23-.6-.76-1.37-.89-2.22-.38-4.44-.71-6.61-1.31-.55-.15-6.92-2.17-6.15-2.78,2.18.13,4.37-1.17,6.23-1.67,2.84-.75,6.27-1.59,9.14-2.08Z"/><path class="cls-26" d="M243.6,109.92c.03-.96-.42-1.19.58-1.73,3.15-1.69,10.7-5.98,9.64-10.32-.28-1.13-5.19-9.72-5.85-9.97.07.69-.99.77-1.04.83l.83-4.57c-.52-.08-1.19.1-1.66,0,0-.27-.05-.54.02-.8,1.14-.42,2.12-.64,3.32-.26,2.27.72,6.1,9.26,7.53,11.59,1.7,2.77,4.34,2.88,1.39,6.51-3.54,4.37-9.81,6.62-14.76,8.72Z"/><path class="cls-25" d="M68.64,319.78c-.2,1.11,2.28,1.72,3.32,2.08-.58,4.38,4.62,2.47,6.65,3.74l-1.66,10.8c-.74-.13-1.11-.29-1.66-.42l-.21-7.48c-.66-.02-1.28,6.69-1.04,7.48-2.51-.65-4.99-1.44-6.79-3.42-.74-1.78-.02-11.09.97-12.78h.42Z"/><path class="cls-6" d="M239.03,309.81c-.44,2.67-2.33,1.08-3.96,1.2-.77.05-.56.85-.88.9-.17.03-3.06,0-3.46-.02-.14,0-.28,0-.42,0-5.07-.37-10.85-1.99-15.99-2.11-1.78-.04-3.18.84-4.17.82-.78-.02-1.43-.8-2.47-.81-6.86-.08-13.92-.01-20.77,0-4.08,0-8.22-.09-12.28.02l-.42-1.66c14.57-.26,29.23.34,43.83.85,6.94.24,14.12.89,21,.81Z"/><path class="cls-10" d="M229.47,237.09c1.26,4.69,2.88,9.7,4.68,14.23,3.83,9.67,9.88,18.55,18.09,24.91.34.57-.24,3.46-.33,4.49l-.42-4.15c-.7-.19-.19.79-.65.86-2.15.33-2.26-2.81-4.33-2.12l.42-1.24c-2.14-.29-1.9-2.43-4.57-1.67l.83-1.65c-2.28-.84-3.18-3.44-4.39-5.38-.3-.48-.88-.8-1.18-1.31-4.7-7.81-7.56-16.78-9.22-25.72-.19-1.04.13-1.2,1.08-1.26Z"/><path class="cls-5" d="M203.29,172.67c-.55-.08-.97-.02-1.18-.68-.7-7.56.04-14.84-.04-22.4-.1-9.53-1.31-19.72-.44-29.28.05-.56.84-1.86.42-2.91,1.89,1.78,1.09,5.23,1.25,7.68.88,13.67.25,27.49.15,41.22-.01,1.98.85,4.4-.16,6.37Z"/><path class="cls-9" d="M71.97,321.86c1.93.66,1.42.28,3.13.39,1,.06,1.89.42,2.88.46,6.47.25,13.04-.2,19.34-1.68.02.97-.02,1.94,0,2.91l-12.05,1.24v1.67c-1.32.28-.74-.83-.83-1.67-1.68.08-3.52-.13-3.76,1.85-.38,3.12.33,6.99.02,10.2-.39-.03-.73-.4-.83-.42-.46-3.02.06-7.37-.42-10.19-.12-.73-.31-.71-.82-1.03-2.03-1.27-7.23.64-6.65-3.74Z"/><path class="cls-11" d="M220.32,233.76c1.65,15.8,6.97,32.15,19.98,42.15,2.74,2.1,6.1,3.54,8.69,5.64-19.67-6.42-28.67-28.44-29.51-47.79.28,0,.55,0,.83,0Z"/><path class="cls-19" d="M111.45,139.84c-.44,7.93-.99,15.83-2.08,23.69l-2.49-8.72c1.04-.3.72-1.13.84-1.86.53-3.31,1.45-8.6,2.46-11.66.26-.78,0-1.48,1.27-1.43Z"/><path class="cls-13" d="M197.88,117.82c.17,1.32,1.18,2.16,1.66,3.32l-12.05,2.91-.42-.42c1.17-.53,3.65-2.69,5.04-3.48,1.72-.98,3.77-2.33,5.76-2.34Z"/><path class="cls-6" d="M109.37,184.31c1.2-.24.87.66.84,1.45-.09,2.76-.74,5.53-.45,8.33l.55,10.05-.94.53c.04-.57-.04-1.11-.21-1.65-.23-.71-.46-2.78-1.45-2.51.48-5.39,1.19-10.81,1.66-16.21Z"/><path class="cls-4" d="M205.78,173.92v6.03c0,.52-.94,1.39-1.52,1.38-2.49-.05-.73-5.65-1.81-7.19l3.33-.21Z"/><path class="cls-4" d="M79.86,336.82c-1.16-.13-1.85-.23-2.91-.42l1.66-10.8c.52.32.7.3.82,1.03.48,2.81-.03,7.17.42,10.19Z"/><path class="cls-8" d="M105.63,198.44l-4.57.42c-.17-1.74.52-3.23,1.02-4.81.2-.64-.74-1.27,1.47-1.42l-.83,2.07,3.32,1.67c-.08.88-.38,1.67-.42,2.08Z"/><path class="cls-26" d="M206.07,114.62c.55.61,1.51,2.72.33,3.2-.4-4.3-7.2-2.8-6.44,1.25-3.53-3.43,2.97-7.93,6.11-4.44Z"/><path class="cls-17" d="M181.26,123.64c.99-.19,1.83-.72,3.05-.41.27.07.4,1.48,2.77.41l.42.42c-.41.84-1.33.91-2.08,1.25-.36.16-.98.04-1.66.42-.43-1.32-1.46-.42-2.49-.42v-1.66Z"/><path class="cls-10" d="M75.29,335.99c-.36-.08-.9.09-1.25,0-.24-.8.37-7.5,1.04-7.48l.21,7.48Z"/><path class="cls-1" d="M257.31,105.77c0,1.39-1.07,2.08-1.66,2.91l-1.64-.45-.02-.8c.84-.43,2.61-1.61,3.32-1.66Z"/><path class="cls-16" d="M203.29,111.58c-.31-.03-1.56-.06-1.66,0-.59-.15-.6-2.09-.2-2.08.94.16,1.78,1.17,1.87,2.08Z"/><path class="cls-10" d="M229.05,234.59c-.02.12,0,.28,0,.42h-2.91s0-.83,0-.83c.14.01.28,0,.42,0,.86.04,1.72-.12,2.49.42Z"/><path class="cls-11" d="M229.47,233.76c.04.32-.39.68-.42.83-.77-.54-1.63-.37-2.49-.42v-.83c.8.09,2.17.27,2.91.42Z"/><path class="cls-25" d="M103.97,242.9l.83.21v1.03s-.83,0-.83,0c.02-.41-.03-.83,0-1.25Z"/><path class="cls-8" d="M104.8,207.16c-.02.27.02.56,0,.83l-.83-.21v-.62s.83,0,.83,0Z"/><path class="cls-11" d="M224.48,233.35v.83c-.38-.03-.75-.41-.83-.42v-.42c.27.02.56-.02.83,0Z"/><rect class="cls-15" x="74.05" y="197.19" width=".41" height="1.24"/><rect class="cls-15" x="65.74" y="330.18" width=".41" height="1.24"/><rect class="cls-15" x="71.56" y="212.57" width=".41" height="1.24"/><path class="cls-15" d="M69.06,319.78c-.13-.02-.28.02-.42,0h-.42c.09-.16.28-.29.42-.42.09.14.31.26.42.42Z"/><path class="cls-1" d="M246.92,88.73c.04-.06,1.11-.14,1.04-.83.67.25,5.58,8.85,5.85,9.97,1.07,4.34-6.49,8.64-9.64,10.32-1,.53-.55.77-.58,1.73-11.75,4.99-23.41,7.59-35.95,9.96.57-2.13.83-3.51-.18-5.57,4.93-2,10.32-3.38,15.34-5.44,9.88-4.07,16.57-8.34,22.63-17.27.54-.79,1.09-2.36,1.49-2.87Z"/><path class="cls-3" d="M169.63,53.82c2.65-1.22,8.11-3.13,10.93-2.48.3.07.26.7.86.88,4.59,1.4,8.41,2.27,12.12,5.74,3.92,3.66,5.84,9.07,9.33,12.48-2.81-.18-4.59,2.66-3.77,5.15,1.7.36.97.41,1.28,1.08l-20.06-9.49c-.56.12-1.04.6-1.55.76-.2-.44.55-1.75-.53-1.58-.86.13-2.39.33-3.1.64-1.03.45-1.22,1.56-1.43,1.68-.64.35-2.31-.21-3.12.82l-2.81-1.15-.66,1.45.87.42c-.86,2.65-2.98,3.36-5.01,1.23l1.25-2.27-3.33-1.05.87-2.05-1.27-1.05c-.06.45-.19,1.06-.46,1.4-1.24,1.56-2.73,2.58-4.11,4,5-5.5,6.64-13.37,13.71-16.62Z"/><path class="cls-14" d="M200.38,76.68c.06.12-.06.38,0,.42-1.14-.55-2.59-.34-2.91-.42-2.22-.49-4.47-1.91-6.65-2.91.44-1.17-.94-1.81-1.94-1.98-.3-.05-.52.32-.55.31-.99-.21-1.99-.75-2.49-.83-.58-2.69-3.89-.58-4.79-3.33-.58-.15-1.3,1.05-1.97,1.35-1.25.55-3.48.04-3.63,1.98-6.31,3.47-12.95,6.3-19.4,9.48-3.05,1.51-7.08,4.43-10.11,5.48-1.35.47-2.75.6-4.15.83-.49.54,2.14,2.93,2.49,3.32,1.82,2.04,3.31,3.26,5.2,4.98,1.12,1.02,1.02,2.55,3.11,2.5.38.41.57,1.2.95,1.54.34.31,1.96,1.02,2.38,1.37.93.77,2.38,2.88,3.14,2.93,4.6-1.96,9.67-1.44,14.54-1.67,4.56-.22,9.07-.63,13.69-.43,4.74.2,12.28,1.92,16.53,1.57,2.35-.2,12.23-8.19,14.23-10.29.84-.88,1.32-2.24,1.87-2.91.13-.16,1.49-.13,1.25-1.03,0-.48-.98-.06-1.25-.21-1.45-.8-3.05-2.09-4.57-2.91-.82-.44-1.67-.81-2.49-1.25-.88-.46-1.64-.61-2.08-.83-1.56-.81-5.56-2.78-6.65-3.74-.78-.68-2.49-2.31-3.74-2.91,5.33,3.06,13.04,5.88,18.7,8.73.59.3,3.17,1.55,3.32,1.66.1.07.71,1.78,1.25,2.08-.32.38-.59.57-.83.83-1.41-.31-1.44.48-1.66,1.66-5.14,5-10.86,9.59-16.74,13.72-.39.27-.26.81-.3.83-4.31,2.63-9.3,5.48-13.85,7.97-1.3.71-8.21,4.41-9.01,4.5-2.65.32-17.52-9.57-20.49-11.71-5.54-4-10.57-8.28-15.25-13.22l.41-.21-.2-.63-1.46-.41c-2.26-2.53-3.67-4.04-5.4-7.06,2.3-.56.65-1.28.44-2.72-.66-4.43,1.97-4.15,5.38-5.18-.15.43-.43.65-.83.83-3.41,1.56-5.45.7-3.41,5.69.68,1.66,1.21,2.63,2.97,1.55.49-.3.77-.96.85-1.01,3.05-1.65,6.58-2.73,9.56-4.57.16-.1.29-.27.42-.42.12-.05.3.05.42,0l.42-.42c.11-.05.3.06.42,0l.42-.42c.11-.06.3.06.42,0l.42-.42c.11-.05.3.05.42,0l.42-.42c.11-.05.3.05.42,0l.42-.42c.11-.05.3.05.42,0,1.53-.73,3.24-1.45,4.57-2.49.12-.05.3.05.42,0,1.37-.6,3.25-1.37,4.16-2.49.34-.15.81-.23,1.25-.42.59-.03,1.07-.24,1.25-.83.12-.05.3.05.42,0,2.54-1.1,5.2-2.14,7.48-3.74.12-.04.29.04.42,0,.51-.16.99-.64,1.55-.76l20.06,9.49ZM202.04,104.52c-7.91-1.01-15.93-1.11-23.91-1.27l-17.23,1.27c5.89,5.01,12.81,9.06,19.77,12.46,7.49-3.28,14.73-7.65,21.37-12.46Z"/><path class="cls-17" d="M135.55,72.52c.36,2.23-1.59,2.09-2.22,3.01-5.49,8.09,6.53,20.28,12.41,25.24,4.28,3.61,9.38,6.13,13.87,9.4,2.87,2.09,2.4,2.4,5.75,3.81,3.98,1.67,10.16,6.87,14.23,8,.33.51.41,1.07.42,1.66.02,2.56-1.09,2.12-3.3,2.48l-1.68-2.89c.33-.52,3.69,1.05,3.33-.21-.03-.11-1.73-1.46-1.84-1.51-2-.82-2.79,1.3-2.97,1.32-.75.07-2.69-1.33-3.62-1.77-.59-.28-1.63-.26-1.97-.53-.61-.48-.14-1.5-.66-1.93-.66-.53-2.92-1.29-3.89-1.2.1-2.99-2.57-5.89-5.59-5.83-1.76.04-2.73,1.14-4.38.84.3-.51,1.57-.15,1.24-1.03s-11.84-7.19-13.84-8.6c-6.94-4.9-15.14-13.38-15.66-22.18-.05-.8.44-1.66-.83-1.43,4.82-4.23,5.21-4.48,11.22-6.65Z"/><path class="cls-22" d="M135.55,72.52c.18-.07.55-.56,1.11-.74,5.72-1.83,12.47-3.14,18.42-3.21-.91.7-1.88,2.29-2.91,2.7.07-.84-.01-1.57-1.05-1.68-.48-.05-8.85,1.15-9.46,1.36-.54.18-2.94,2.51-1.54,3.24-.67.39-3.15,3.47-3.3,4.39-.57,3.52.52,4.57,2.05,7.25,1.74,3.02,3.15,4.53,5.4,7.06.47.52.85.83,1.25,1.25,4.68,4.94,9.71,9.22,15.25,13.22,2.98,2.15,17.85,12.03,20.49,11.71-.76,1.63,1.41,1.91,1.24,2.7s-2.38.36-2.91.21c-4.07-1.13-10.25-6.33-14.23-8-3.35-1.41-2.88-1.72-5.75-3.81-4.5-3.27-9.59-5.79-13.87-9.4-5.88-4.96-17.9-17.15-12.41-25.24.62-.92,2.58-.78,2.22-3.01Z"/><path class="cls-13" d="M124.33,79.17c1.27-.23.79.64.83,1.43.52,8.79,8.72,17.28,15.66,22.18,2,1.41,13.51,7.7,13.84,8.6s-.95.52-1.24,1.03c-2.23-.4-5.39-1.74-7.58-2.6-11.69-4.57-23.46-11.08-28.09-23.46-.03-.31,3.2-4.61,3.67-5.12.83-.88,2.32-1.56,2.91-2.08Z"/><path class="cls-21" d="M155.91,70.44c1.38-1.42,2.88-2.43,4.11-4,.27-.35.4-.96.46-1.4l1.27,1.05-.87,2.05,3.33,1.05-1.25,2.27c2.03,2.13,4.15,1.42,5.01-1.23l-.87-.42.66-1.45,2.81,1.15c.81-1.04,2.48-.47,3.12-.82.22-.12.4-1.24,1.43-1.68.71-.31,2.24-.51,3.1-.64,1.08-.17.34,1.14.53,1.58-.13.04-.29-.04-.42,0-1.78.61-5,1.65-6.54,2.36-.66.3-.7.78-.94,1.38-.12.05-.3-.05-.42,0-.8.35-1.17.8-1.25.83-.44.19-.9.27-1.25.42-.46.2-2.33.57-2.5.65-.57.26-1.27,1.3-1.66,1.84-.12.05-.3-.05-.42,0-1.52.68-3.54,1.07-4.57,2.49-.11.05-.3-.05-.42,0-.23.11-.35.38-.42.42-.11.05-.3-.05-.42,0-.23.11-.35.38-.42.42-.11.05-.3-.05-.42,0-.23.11-.35.38-.42.42-.11.06-.3-.06-.42,0-.23.11-.35.38-.42.42-.11.06-.3-.05-.42,0-.23.11-.35.38-.42.42-.11.05-.3-.05-.42,0-.18.08-.32.25-.42.42-2.97,1.84-6.5,2.92-9.56,4.57-.66-1.87-.37-3.87-.42-5.82,1.38.38,1.48-1.05,2.49-1.66.13-.03.29.04.42,0,4.27-1.35,5.77-3.74,8.73-6.65.14-.14.28-.28.42-.42Z"/><path class="cls-28" d="M219.08,79.17v.42c.03.27-.05.58,0,.83-.95-.28-2.14-.49-3.02-.93-5.02-2.53-9.12-5.07-13.19-9.04-3.49-3.41-5.42-8.82-9.33-12.48-3.71-3.47-7.53-4.34-12.12-5.74-.6-.18-.56-.81-.86-.88-2.82-.65-8.28,1.26-10.93,2.48,6.02-4.34,15.47-3.89,21.89-.49,7.33,3.89,8.84,12.12,14.31,17.69,3.98,4.05,8.61,5.44,13.25,8.15Z"/><path class="cls-22" d="M180.85,49.25h-.83v-9.77c0-2.38,4.88-4.97,6.45-6.43,8.79-8.19-.88-21.53-11.53-16.52-4.09,1.92-4.42,5.39-6.77,8.61-.61.11-.75,0-.62-.62.43-2.13,3.4-6.74,5.27-8.03,11.27-7.77,24.33,6.93,15.1,16.76-1.39,1.47-3.61,2.44-4.94,3.79-.29.3-2.12,2.69-2.12,2.87v9.35Z"/><path class="cls-18" d="M226.97,80.42c-.79.79-12.82-5.5-14.67-6.32l-3.2-2.41c3.1.06,6.23.6,9.23,1.36,3.96,1.01,9.34,2.18,8.64,7.36Z"/><path class="cls-27" d="M219.49,79.58l6.23,2.5c.35.47-2.48,4.92-3.32,5.4-.15-.11-2.73-1.37-3.32-1.66.99-1.55.31-3.76,0-5.4-.05-.25.03-.56,0-.83h.42Z"/><path class="cls-5" d="M152.17,71.27c-2.9,1.16-8.87,1.05-12.05,2.91-1.4-.73,1-3.05,1.54-3.24.61-.21,8.98-1.41,9.46-1.36,1.04.11,1.12.84,1.05,1.68Z"/><path class="cls-14" d="M206.2,67.53c.05-.05-.21-1.01.59-.87l3.57.04v.83c-1.37-.1-2.79.07-4.16,0Z"/><path class="cls-3" d="M146.77,77.51c1.48-1.59,3.66-2.39,5.4-3.74,1.18-.92,2.11-2.04,3.32-2.91-2.96,2.91-4.45,5.29-8.73,6.65Z"/><path class="cls-14" d="M204.53,65.87v1.24c-.52.56-2.57-1.68,0-1.24Z"/><path class="cls-3" d="M146.35,77.51c-1.02.62-1.11,2.05-2.49,1.66v-.42c.4-.18.68-.4.83-.83.42-.13.85-.31,1.25-.42.13-.04.29.03.42,0Z"/><path class="cls-14" d="M152.17,73.77c-1.74,1.35-3.92,2.15-5.4,3.74-.12.04-.28-.03-.42,0s-.29-.04-.42,0l4.77-3.33,1.46-.41Z"/><path class="cls-21" d="M219.49,79.58h-.42v-.42c.16.1.29.28.42.42Z"/><path class="cls-18" d="M150.51,72.94l-4.15,2.71-7.48,3.32c1.76-4.44,7.26-5.74,11.62-6.03Z"/><path class="cls-16" d="M113.94,84.16l2.31.39c2.84,17.22,21.75,24.45,36.35,29.33l.35.44c-.44,1.31-.37,2.57-.36,3.92-3.93-.24-7.81-1.82-11.62-2.72-8.38-1.97-30.13-6.4-34.45-14.18-2.24-4.04,1.07-4.22-.06-7.63,2.05-2.49,4.28-7.49,6.21-9.28.55-.51,1.15-.2,1.27-.28Z"/><path class="cls-19" d="M122.67,115.74v1.24s.62,0,.62,0l.21-1.25c10.13,2.59,20.43,4.53,30.75,6.24-.11,15.87.63,31.72.44,47.6-.02,1.31-.51,2.47-.47,3.72.05,1.73,1.05,2.42,1.26,3.76.38,2.4-.4,5.2.44,7.66-.49-.12-1.27.13-1.86,0-3.36-.71-2-8.95-2.04-11.36-.24-15.2-.21-30.4-.44-45.6-10.49-1.43-20.89-2.99-30.99-6.21.75-2.1,1.2-3.56,1.25-5.82.24.06.59-.06.83,0Z"/><path class="cls-13" d="M152.59,118.23c0,.28,0,.55,0,.83v.42c-.83.2-.38.3-1.55.13-10.27-1.44-23.38-4.48-33.36-7.41-2.84-.83-15.29-4.77-16.32-6.96-.44-.93.18-7.03.95-7.79,1.18-1.17,2.74-2.02,4.16-3.74,1.13,3.41-2.18,3.58.06,7.63,4.32,7.78,26.06,12.2,34.45,14.18,3.81.9,7.69,2.47,11.62,2.72Z"/><path class="cls-26" d="M158.82,175.17l-.39-43.03c-.67-3.48.04-7.87-.41-11.22-.05-.34-.86-1.33-1.27-1.44.42,1.17-.36,2.6-.42,3.32l.06-5.97c.4-1.19,2.79-.9,3.18.44l.93,20.68c-1.04,11.24,1.33,24.83,0,35.78-.06.46.03.94-.43,1.25-.36.28-.91.1-1.25.18Z"/><path class="cls-1" d="M156.33,122.8c.06-.73.84-2.15.42-3.32.41.1,1.22,1.09,1.27,1.44.45,3.34-.26,7.73.41,11.22l.39,43.03c-1.38.33-2.29.45-2.52-1.43.46-16.12-.54-32.34.02-48.44l.41-.21-.41-.21c.03-.69-.06-1.4,0-2.08Z"/><path class="cls-19" d="M170.87,124.88c1.37.41,2.66,1.23,4.16,1.25.29.22,3.69,2.14,1.39,2.84-3.17.96-10.61-.58-14.27.06.02-1.8-.01-3.61,0-5.4,3.01-.06,5.88.4,8.73,1.25Z"/><path class="cls-4" d="M160.01,176.89c.67,1.65,1.41,8.43-1.76,7.39-1.21-.39-.43-5.98-1.09-7.45l2.85.06Z"/><path class="cls-26" d="M161.72,118.65c-.71-.19-.42-1.42-.87-2.24-1.5-2.72-6.85-1.76-6.19,1.82-1.53-1.03-.68-2.98.4-3.96,3.32-3.01,7.79.45,6.66,4.38Z"/><path class="cls-11" d="M175.03,126.13c-1.5-.02-2.78-.84-4.16-1.25v-.83c2.14.81,2.21.62,4.16,2.08Z"/><path class="cls-20" d="M123.5,115.74l-.21,1.25h-.62s0-1.25,0-1.25c.24.06.59-.06.83,0Z"/><path class="cls-16" d="M152.59,119.06l.84.21c0,.41-.53.13-.84.21v-.42Z"/><path class="cls-26" d="M156.33,125.3c0-.14,0-.28,0-.42l.41.21-.41.21Z"/><path class="cls-13" d="M292.22,313.97c-2.11,2.24-4.56,1.24-7.2,1.26-.54-.12-.7-1.8-1.08-2.24-.29-.34-.78-.2-1.12-.41-.24-.15,0-.58-.36-.69-1.12-.33-.14,1.96-2.08,1.68l-.82-.89-2.29.87c-.31-1.09,1.12-.97,1.25-1.54.25-1.02-.16-2.43-.43-3.45.65.37,3.44,1.74,4.07,1.95,2.98,1.02,8.27.08,10.06,3.45Z"/><path class="cls-25" d="M279.75,296.51c.31.36.87.89,1.25,1.25l-.83,1.03,1.6.69.06,1.6c-1.78.53-3.5.85-5.4.83l2.08-1.25-1.69-1.49c-.23-2.16.86-2.94,2.94-2.66Z"/><path class="cls-13" d="M116.85,231.68c-.85-.02-2.55.31-2.87-.66l.15-1.45c.4-.51,1.05-.27,1.48-.38.15-.04.39.05.41-.21l-.41-.21c-1.12-1.21-1.14-2.16.42-2.91,0,.08.35.32.38.66.18,1.71.26,3.45.45,5.16Z"/><path class="cls-9" d="M281.83,301.08l-.06-1.6-1.6-.69.83-1.03c.55.52,2.82,1.87,2.91,2.29.26,1.24-1.61.9-2.08,1.03Z"/><path class="cls-13" d="M118.09,240.83c.12.98.3,1.94.42,2.91h-1.66c.02-1.03-.16-3.14,1.25-2.91Z"/><path class="cls-14" d="M226.56,233.35v.83c-.14,0-.28.01-.42,0-.55-.05-1.11.04-1.66,0v-.83c.68.06,1.4-.08,2.08,0Z"/><path class="cls-20" d="M91.08,163.11c-.02.28.02.56,0,.83l-.83-.21v-.62s.83,0,.83,0Z"/><path class="cls-16" d="M72.8,299.01l4.77,3.33c1.62.47,3.28,1.8,4.78,2.28,3.48,1.12,9.57.43,11.59,4.21s-2.07,2.04-3.53,1.86c-1.87-.23-4.33-.21-6.09-.56-5.55-1.11-9.87-5.85-11.52-11.12Z"/><path class="cls-16" d="M158.82,315.63l-.83,3.74-2.9-.41,2.08.83c.12,1.46-.64,2.77-.83,4.15-1.68-.15-1.8-1.52-1.66-2.91-1.22.59-2.35-.16-3.49,0-.98.14-3.32,1.82-4.1,1.61-1.81-.48-2.71-3.66-3.21-5.36,1.61-.27,3.85-.69,5.4-.83-.1.83-.05,2.1,1.03,2.08l1.04-2.08c.14.02.3-.04.42,0,.16.05,1.13,2.16,1.66-.42.41-.04.84.03,1.25,0l.21,1.25c.31.01,2.53-.42,2.64-.5.2-.16,0-.67.06-.75.48-.66.84-.29,1.25-.42Z"/><path class="cls-17" d="M235.29,316.46c1.11.03,2.22,0,3.32,0,0,1.76.17,5.38-2.29,5.43-1.46.03-.56-2.86-.61-3.54s-.38-1.31-.43-1.88c-.28,0-.55,0-.83,0l-.2-4.16c1.69.35.93,2.88,1.03,4.16Z"/><path class="cls-5" d="M157.57,316.04c-.06.09.14.59-.06.75-.1.08-2.32.51-2.64.5l-.21-1.25c.67-.05,1.69-.82,2.91,0Z"/><path class="cls-22" d="M240.69,315.63l-1.27-.25c-.73-1.17.43-1.86.45-3.07.78.09.95,3.2.82,3.32Z"/><path class="cls-17" d="M151.34,316.46l-1.04,2.08c-1.08.01-1.13-1.26-1.03-2.08.55-.05,1.57-.09,2.08,0Z"/><path class="cls-5" d="M153.42,316.04c-.53,2.57-1.5.46-1.66.42.49-.57,1.08-.35,1.66-.42Z"/><path class="cls-5" d="M230.71,311.89l-.21.84-.21-.84c.14,0,.28,0,.42,0Z"/><path class="cls-15" d="M222.82,90.39c-.73.79-.96.98-1.66,1.66.23-1.18.25-1.97,1.66-1.66Z"/><path class="cls-13" d="M112.27,226.28c-1.24,1.88,1.95,4.5-.82,4.98-.33-.25-1.24-5.36.82-4.98Z"/><path class="cls-13" d="M113.11,233.34h-1.66s.42-1.66.42-1.66c.2-.16,1.56,1.13,1.24,1.66Z"/><rect class="cls-13" x="112.69" y="235.84" width=".83" height="1.66"/><path class="cls-1" d="M115.6,229.19v-.42l.41.21c-.02.26-.26.17-.41.21Z"/><path class="cls-8" d="M85.26,153.97h-1.66s.42-1.66.42-1.66c1.05-.1,1.4.66,1.24,1.66Z"/><path class="cls-9" d="M269.78,307.31l-3.74.42,1.51-2.1c.79-.09,2.42.64,2.23,1.68Z"/><path class="cls-20" d="M132.64,312.72c-.06.04.12.58-.07.78-.43.3-.7-.36-.76-.36l.83-.42Z"/><rect class="cls-17" x="184.17" y="119.9" width=".83" height="1.24"/><path class="cls-21" d="M202.87,70.44c4.07,3.97,8.17,6.51,13.19,9.04.87.44,2.07.65,3.02.93.31,1.64.99,3.86,0,5.4-5.67-2.84-13.37-5.67-18.7-8.73-.06-.04.06-.3,0-.42-.32-.67.42-.72-1.28-1.08-.82-2.5.96-5.34,3.77-5.15Z"/><path class="cls-11" d="M215.34,85.82c1.53.82,3.12,2.11,4.57,2.91-.63.06-.63,1.19,0,1.25-.55.67-1.02,2.03-1.87,2.91-2,2.1-11.88,10.1-14.23,10.29-4.25.36-11.79-1.37-16.53-1.57-4.62-.2-9.13.21-13.69.43-4.87.23-9.94-.29-14.54,1.67-.76-.06-2.21-2.16-3.14-2.93,1.79-1.36-.42-3.19-1.91-3.32-.68-.06-1.19.4-1.41.41-2.08.04-1.98-1.48-3.11-2.5-1.89-1.72-3.39-2.94-5.2-4.98-.27-1.45.87-1.54,1.69-2.28.33-.3.34-1.01.39-1.04,1.59-1.19,22.6-3.19,25.96-3.34,14.52-.64,27.35,1.64,41.46,2.67.72.05,1.21.52,1.57-.57Z"/><path class="cls-24" d="M185.83,71.27c.5.08,1.51.62,2.49.83.48.91,1.61,1.26,2.49,1.66,2.18.99,4.43,2.42,6.65,2.91,1.94,1.34,4.3,2.94,6.65,3.32,1.09.96,5.09,2.93,6.65,3.74l.07,1.17,1.8.9.21-1.24c.82.43,1.68.81,2.49,1.25-.36,1.09-.85.62-1.57.57-14.11-1.03-26.94-3.31-41.46-2.67-3.36.15-24.37,2.15-25.96,3.34l-.42-.83c3.02-1.05,7.05-3.97,10.11-5.48,6.45-3.18,13.09-6.02,19.4-9.48,3.15,1.21,7.75-.42,10.39,0Z"/><path class="cls-23" d="M202.04,104.52c-6.64,4.81-13.88,9.18-21.37,12.46-6.96-3.4-13.88-7.45-19.77-12.46l17.23-1.27c7.99.17,16.01.26,23.91,1.27Z"/><path class="cls-27" d="M143.86,78.75v.42c.05,1.95-.25,3.95.42,5.82-.08.04-.36.71-.85,1.01-1.76,1.09-2.29.11-2.97-1.55-2.05-5,0-4.13,3.41-5.69Z"/><path class="cls-15" d="M185.83,71.27c-2.64-.42-7.24,1.21-10.39,0,.16-1.94,2.38-1.43,3.63-1.98.67-.29,1.39-1.5,1.97-1.35.9,2.75,4.21.64,4.79,3.33Z"/><path class="cls-15" d="M146.35,87.07c-.05.04-.06.74-.39,1.04-.82.74-1.96.83-1.69,2.28-.35-.39-2.98-2.78-2.49-3.32,1.4-.24,2.8-.36,4.15-.83l.42.83Z"/><path class="cls-15" d="M155.91,100.78c-.41-.34-2.03-1.05-2.38-1.37-.38-.34-.56-1.13-.95-1.54.23,0,.74-.46,1.41-.41,1.49.13,3.7,1.96,1.91,3.32Z"/><path class="cls-15" d="M200.38,77.09c1.25.6,2.96,2.23,3.74,2.91-2.35-.38-4.7-1.99-6.65-3.32.32.07,1.76-.13,2.91.42Z"/><path class="cls-15" d="M212.84,84.57l-.21,1.24-1.8-.9-.07-1.17c.43.23,1.2.37,2.08.83Z"/><path class="cls-15" d="M188.33,72.1s.25-.36.55-.31c1,.17,2.38.81,1.94,1.98-.88-.4-2.01-.75-2.49-1.66Z"/><path class="cls-3" d="M178.35,67.95c-2.29,1.6-4.94,2.64-7.48,3.74.23-.6.28-1.08.94-1.38,1.54-.71,4.77-1.75,6.54-2.36Z"/><path class="cls-15" d="M219.91,88.73c.27.15,1.25-.27,1.25.21.24.9-1.12.87-1.25,1.03-.63-.06-.63-1.19,0-1.25Z"/><path class="cls-3" d="M167.96,72.94c-.9,1.13-2.79,1.89-4.16,2.49.39-.55,1.09-1.59,1.66-1.84.17-.08,2.04-.45,2.5-.65Z"/><path class="cls-15" d="M145.52,94.13c-.39-.41-.78-.72-1.25-1.25l1.46.41.2.63-.41.21Z"/><path class="cls-3" d="M170.46,71.69c-.18.6-.65.8-1.25.83.07-.03.45-.48,1.25-.83Z"/><path class="cls-3" d="M163.39,75.43c-1.33,1.04-3.04,1.76-4.57,2.49,1.03-1.43,3.05-1.81,4.57-2.49Z"/><path class="cls-3" d="M153.83,80.42c.1-.17.24-.33.42-.42-.13.14-.25.31-.42.42Z"/><path class="cls-3" d="M154.66,80c.07-.03.18-.3.42-.42l-.42.42Z"/><path class="cls-3" d="M157.99,78.34c.07-.03.18-.3.42-.42l-.42.42Z"/><path class="cls-3" d="M155.5,79.58c.07-.03.18-.3.42-.42l-.42.42Z"/><path class="cls-3" d="M156.33,79.17c.07-.04.18-.3.42-.42l-.42.42Z"/><path class="cls-3" d="M157.16,78.75c.07-.03.18-.3.42-.42l-.42.42Z"/><rect class="cls-2" width="358.65" height="358.65"/></g></svg>