<?xml version="1.0" encoding="UTF-8"?><svg id="Lager_2" xmlns="http://www.w3.org/2000/svg" viewBox="0 0 358.65 358.65"><defs><style>.cls-1{fill:none;}.cls-2{fill:#725fa6;}.cls-3{fill:#bdba31;}.cls-4{fill:#f8af31;}.cls-5{fill:#c7842a;}.cls-6{fill:#ae5b9f;}.cls-7{fill:#f0bfca;}.cls-8{fill:#7ac193;}.cls-9{fill:#bf3057;}.cls-10{fill:#ded8d5;}.cls-11{fill:#df572d;}.cls-12{fill:#ec624d;}.cls-13{fill:#878190;}.cls-14{fill:#bdb1b4;}.cls-15{fill:#9e9eaa;}.cls-16{fill:#ed7e80;}.cls-17{fill:#fcf1e8;}.cls-18{fill:#fae945;}.cls-19{fill:#5e4394;}.cls-20{fill:#432c2d;}.cls-21{fill:#5f96d0;}.cls-22{fill:#f2ddd7;}.cls-23{fill:#f7e6df;}.cls-24{fill:#48224d;}.cls-25{fill:#642b70;}.cls-26{fill:#336e5d;}.cls-27{fill:#84be54;}.cls-28{fill:#cebdc0;}.cls-29{fill:#fee88d;}.cls-30{fill:#53c0e3;}</style></defs><g id="Lager_1-2"><path class="cls-17" d="M273.19,252.02s13.56,19.82-71.01,39.78c-62.45-8.56-94.88,3.54-120.2-40.64,4.6-41.17.86-73.33.86-73.33l-2.79-71.24-7.71-29.97s18.93-50.16,146.95-35.2c28.7,7.15,59.03,20.11,60.76,34.84-.78,19.93-11.13,37.17-11.13,37.17l2.14,96.67,2.14,41.92Z"/><path class="cls-20" d="M82.84,231.91c-1.27-24.86-3.42-49.78-5.13-74.65-.25-3.57.16-9.66-.44-12.82-.16-.86-2.06-2.59-2.74-3.68-4.06-6.57-5.29-17.05.64-22.84l-1.34-21.38c-8.69-15.76-4.59-28.83,9.9-38.48,39.05-26.01,126.11-25.06,168.61-7.85,17.17,6.95,35.94,19.17,29.43,40.77-.48,1.6-2.22,3.95-2.5,5.2-.4,1.76.27,3.85-.52,5.68,9.1.8,10.83,12.71,3.49,17.32,9.75,23.27,17.1,51.82-.93,73.14-1.19,1.41-6.66,5.99-6.82,6.87l-2.17,40.22c.23,2.41,2.27,4.45,3.02,7.04,2.79,9.63-1.45,17.92-8.55,24.17-.92.81-3.5,2.08-3.85,2.78s.08,1.1,0,1.25-2.6.55-3.41.89c-5.12,2.15-9.35,4.83-14.97,6.84-4.81,1.72-9.58,3.06-14.54,4.28-3.41.84-6.93,1.46-10.27,2.57-1.3.02-2.57.26-3.85.43-1.99.26-4.26,1.06-5.99,1.28-2.47.32-5.3.61-7.7.86-8.85.89-18.53-.03-26.95.86-8.45.23-16.87-.69-25.24-1.71-3.62-.44-21.05-3.81-22.67-3.42-.26-.87-1.09-.8-1.78-1-2.45-.68-7.52-2.36-9.77-2.43-6.34-2.94-13.2-5.01-19.25-8.56-.69-.4-1.48-.85-2.14-1.28-9.7-6.32-19.17-17.46-14.2-29.82.58-1.44,2.88-4.07,3.07-5.05.45-2.36-.31-5.25-.42-7.48ZM72.57,84.34c2.51,21.46,33.89,28.87,51.33,33.37h.43c.72,1.16,1.22,1.4,2.14,2.99-.9.08-1.72-.23-2.57-.43-3.76-.89-7.9-1.53-11.55-2.57-7.37-2.1-18.66-6.43-25.24-10.27-3.21-1.87-6.32-4.92-9.41-6.84-.31-.19-.37-1.17-1.28-.85-.29.66.4,1.11.43,1.28.05.4-.02.86,0,1.28.16,4.44.59,8.83.86,13.26,2.21-1.65,4.92-2.51,7.7-2.57.57-.01,1.14,0,1.71,0,.91.84,4.59,1.86,5.99,2.99,5.72,4.63,7.93,17.2,5.68,23.86-.55,1.62-1.73,3.95-3.54,4.38l.04.58c3.78,5.33,7.77,10.82,12.14,15.67,3.02,3.36,6.32,6.35,9.63,9.4,7.46,6.87,14.39,12.26,23.1,17.54,9.32,5.65,17.91,9.68,28.23,13.26,10.05,3.49,19.93,5.94,30.53,7.31,1.53-2.92,3.02-6.35,6.56-7.21,1.97-.48,4.76-.26,6.75-.53,12.5-1.7,23.13-4.08,35.29-6.84,3.97-.9,7.39-2.11,11.42-.51.89.35,3.01,2.07,3.34,2.08.8.05,1.27-1.04,1.5-1.14s.79.01,1.24-.24c1.49-.85,7.03-4.96,7.31-6.4.35-1.85-.12-4.79,0-6.85,1.08-20.33,2.13-40.63,3.01-60.94.19-4.42.22-8.85.43-13.26,0-.06.41-.49.45-1.04.12-1.97-.3-3.87.41-5.81-.74-.19-.86.3-1.28.64-.63.49-4.97,4.37-5.15,4.69-1.04,1.83,0,6.64-1.26,8.79.34-2.43-.14-5.77-.86-8.13.41-1.76,1.15-3.53,2.57-4.71.32-.26,1.42-.5,2.1-1.11,4.85-4.31,6.9-8.66,7.31-15.15.03-.42,0-.86,0-1.28,0-.14,0-.29,0-.43.15-15.76-14.48-23.9-27.39-29.29-39.43-16.47-99.69-16.34-140.29-4.72-12.66,3.62-37.66,13.14-40.02,28-.38,2.42-.05,5.26.24,7.72ZM278.75,105.3c-1.29,3.22,1.18,8.26,2.16,11.53,2.53-.05,2.91-3.03,2.97-5.12.12-3.73-.83-7.07-5.1-7.23-.15.25.04.64-.03.81ZM85.4,115.56c-2.41,0-4.17.13-5.99,1.93,1.87.41,3.81.64,5.56,1.5,2.44,1.2,5.53,5.21,6.42,7.7.79,2.23.81,5.34.86,7.7.05,2.83-1.37,5.5,1.56,7.2,2.77-.83,3.38-3.25,3.57-5.92.03-.42,0-.86,0-1.28,0-7.01-2.44-17.52-10.69-18.82-.14-.02-.29.01-.43,0-.28-.03-.57,0-.86,0ZM278.32,116.42c-.58,1.72-.47,4.16-.43,5.99.08,4.05.68,4.3,1.85,7.78,4.64,13.77,8.6,29.73,3.71,44.41-3.11,9.33-10.97,17.57-19.49,22.23l-.13.57c.23.61,1.08,1.48,1.23,2.01.12.44-.1,1.2,0,1.71.75.09,1.33-.05,2.02-.34,9.38-3.87,18.72-17.43,21.08-27.04,4.15-16.9-.7-35.15-6.88-51-.08-.21-1.45-1.89-1.68-2.47-.3-.79-.27-2.84-.86-3.85l-.21-.42-.21.42ZM90.11,135.67c.34-4.59-.25-8.79-3.2-12.41-4.22-5.18-11.81-5.63-12.94,2.04-1.06,7.23,1.41,18.39,10.15,18.92-1.6-4.72-8.11-10.59-5.73-15.78.94-2.06,2.51-2.5,4.68-2.21,3.86.51,4.17,7.37,7.03,9.44ZM206.89,213.09c-.05-.84-.21-2.18-1.14-2.5-1.34-.46-6.55-.26-8.48-.5-34.34-4.24-67.52-21.55-90.69-47.04-9.37-10.31-16.93-22.09-23.27-34.47-2.55-1.33-3.72.65-3.03,3.24,1.21,4.55,5.55,10.49,8.13,14.54,21.09,33.1,54.21,56.39,92.47,65.58,8.27,1.99,17.12,3.7,25.62,3.53.57-.4.44-1.72.4-2.38ZM274.9,184.43c13.19-14.52,8.86-36.2,2.98-53.04l-2.98,53.04ZM81.55,170.75c1.72,26.02,3.62,52.03,5.13,78.07.38,2.66,1.59,4.19,3,6.2,2.82,4.02,5.01,5.42,8.98,8.13,11.08,7.56,24.88,11.56,38.07,14.12,2.09.41,4.31.51,6.42.86,5.79.94,10.77,1.69,16.68,2.14,22.78,1.74,44.53.55,66.73-4.71,11.39-2.7,23.82-6.07,32.94-13.69,3.17-2.65,8.61-7.7,9.31-11.87.76-13.3,1.64-26.58,2.24-39.89.14-3.15.78-6.29.22-9.41l-5.71,3.49c.34,10.52-13.32,12.74-21.36,14.78-9.45,2.4-19.65,4.51-29.4,5.25-1.75.13-6.48.54-7.93.25-3.71-.74-5.91-3.92-7.52-7.03-45.09-4.54-84.86-29.55-110.94-65.93-.48-.67-2.25-4.38-2.65-4.62-.64-.37-2.1.08-2.91-.09-.98-.2-2.06-.89-2.99-1.28.59,8.41,1.15,16.83,1.71,25.24ZM250.09,195.56c-13.16,2.85-26.18,6.69-39.78,7.28.35.62,1.53,1.99,2.14,2.13,1.57,2.82,2.74,6.14,2.57,9.41-.13,2.44-1.07,5.31-2.57,7.27,11.29-.66,22.54-2.77,33.46-5.68,7.84-2.09,18.71-3.43,17.02-13.99-1.27-7.92-6.19-7.86-12.83-6.42ZM202.61,217.8c-.53.49,3.02,6.29,7.29,3.22s3.49-12.18-.02-15.84-7.66-1.29-8.12,3.2c2.49.17,3.77-1.29,5.79.84s2.24,6.85-.54,8.48l-4.4.09ZM81.98,251.16c-.05,2.26.11,4.5.28,6.73,14.97,23.5,52.72,30.09,78.85,31.77,28.16,1.81,56.52-.2,82.98-9.84,12.37-4.51,29.6-12.36,29.09-27.8-.04-1.32.13-2.65-.1-3.96l-1.6-3.73c.86,15.24-16,24.41-28.24,29.09-30.05,11.48-72.08,12.39-103.52,6.84-15.08-2.66-34.84-8.07-46.63-18.17-5.89-5.05-9.88-10.86-8.98-19.04l-1.95,3.82c-.35,1.42-.16,2.87-.19,4.3Z"/><path class="cls-5" d="M93.96,295.22c6.41.64,13.86.64,20.34.45,4.86-.14,10.11-1.37,14.96-.88,1.71.18,2.65,1.72,4.48,2.14.92,2.48,12.62,5.93,15.4,6.42,3.85.67,10.23,1.26,14.12,1.28h.85s0,2.14,0,2.14c1.14.02,2.29-.03,3.42,0-.82.71-2.62.51-3.66.45-12.58-.76-24.4-1.59-34.65-9.84-16.11.91-34.27,2.75-49.83-2.38-.69-.23-1.51.07-1.27-1.06,3.87.98,10.59,3.02,14.35,2.59.97-.11,1.48-.14,1.47-1.3Z"/><path class="cls-11" d="M94.39,274.26c.66.43,1.45.88,2.14,1.28-.4,1.17-1.9.78-3.03,1.05-.41.09-.73.65-.82.67-1.46.3-3.73-.39-5.13.86-.42-.02-.87-.03-1.28,0l-1.28.43c-4.32.6-7.62,1.6-11.12,4.28-.08.06-.51-.08-.72.12-3.1,3.08-.53,6.58,2.84,7.82,1.71.62.93-.57,1.91-.7,5.27-.7,9.5,2.49,14.36,2.6l-1.28,2.14c1.05-.22,2.06.34,2.99.43,0,1.16-.51,1.19-1.47,1.3-3.76.43-10.49-1.61-14.35-2.59-.25-.06-.61.06-.86,0h-.43c-3.68-1.03-8.34-4.2-7.7-8.56.85-5.76,11.47-8.51,16.25-9.63,2.93-.69,5.98-1.23,8.99-1.49Z"/><path class="cls-25" d="M247.1,296.51c-.26,0-.68-.11-.82.05-.13,3.05-2.52.35-1.32-1.76.66-.24,1.44-.38,2.14-.43,4.15-.31,9.06.49,13.26.43,6.44-.09,23.5-.92,27.62-6.39,2.12-2.81-1.56-4.4-2.81-6.45-.09-.15.1-.8-.21-1.27-.67-1-3.28-.88-3.21-2.58,1.93.37,6.8,3.87,7.89,5.58,4.56,7.13-6.49,10.7-11.56,11.93-6.94,1.68-15.08,2.02-22.23,1.76-2.64-.1-6.18-.93-8.75-.87Z"/><path class="cls-19" d="M244.96,294.8c-1.2,2.11,1.19,4.81,1.32,1.76.13-.16.56-.04.82-.05.52,4.16-.99,6.22-4.42,8.2-7.96,4.59-21.42,5.07-30.46,4.65-1.54-.07-3.85-.43-5.33-.87.06,0,.49-.39,1.03-.45,1.65-.18,3.32.83,3.67-1.26.28.03.57-.02.86,0,7.73.55,22.94-.16,29.66-4.78,4.68-3.21,1.12-4.45,1.53-6.51.24-.38.89-.53,1.32-.69Z"/><path class="cls-26" d="M190.63,302.07l-1.71,1.71c-2.02-.39-10.52,2.13-13.54,2.51-2.66.33-5.16.55-7.85.49-1.14-.03-2.29.02-3.42,0v-2.15s-.85,0-.85,0c3.22.02,8.31-.48,11.7-.92,3.84-.49,8.3-2.19,11.82-2.51,2.13-.19,2.47.52,3.85.86Z"/><path class="cls-19" d="M295.43,273.41c.34-.11,1.39-.4,1.28-.85-3.49.63-6.03-1.79-9.4-2.16l-.44-2.12c2.14-2.72,12.23-2.74,13.8.53,1.3,2.7-2.93,4.92-5.25,4.6ZM297.14,268.7c-2.32.58-4.75-.49-7.29.21-.76.21-1,.12-.83,1.07,2.54-.68,5.14-.03,7.69.43l.43-1.71Z"/><path class="cls-25" d="M273.19,275.55c2.56.59,5.46,1.19,7.7,2.57-.03,0-.27.4-.56.33-1.47-.37-3.84-1.48-5.26-1.63-.72-.07-.62,1.38-1.88.87-.83-.22-2.36-.19-3.42-.43-.03,0-.08-.35-.43-.43-.73-.15-1.81.14-2.57,0-2.19-.4-4.8-1.58-7.27-1.28.81-.34,3.32-.74,3.41-.89s-.35-.54,0-1.25c3.33,1.08,6.85,1.36,10.27,2.14Z"/><path class="cls-2" d="M203.47,305.49c2.46.47,5.79,1.07,8.13,1.28-.36,2.09-2.02,1.09-3.67,1.26-.55.06-.98.45-1.03.45-1.45.03-2.86-.23-4.28-.43l-1.28-.86c-.28.02-.58-.04-.86,0,1-.44.97-1.13.86-2.14.7.15,1.43.29,2.14.43Z"/><path class="cls-19" d="M280.89,278.11c.25.06.59-.05.86,0-.07,1.7,2.54,1.58,3.21,2.58.31.47.12,1.12.21,1.27-.38-.07-.98.1-1.28,0-3.31-1.12-6.96-3.3-10.69-4.28,1.26.51,1.15-.94,1.88-.87,1.42.15,3.8,1.26,5.26,1.63.29.07.53-.34.56-.33Z"/><path class="cls-25" d="M286.88,268.27l.44,2.12c3.36.37,5.91,2.79,9.4,2.16.11.45-.94.74-1.28.85-3.08.99-11.98-.78-8.56-5.13Z"/><path class="cls-21" d="M201.33,305.06c.12,1.01.14,1.7-.86,2.14-2.81.37-4.63-.87-7.27-1.71.99.16,2.21-1.02,2.99-1.71,1.71.47,3.4.91,5.13,1.28Z"/><path class="cls-13" d="M195.34,303.35c.37.11.68.38.86.43-.79.69-2,1.87-2.99,1.71-1.19-.38-3.6-1.58-4.28-1.71l1.71-1.71c1.73.42,3.04.81,4.71,1.28Z"/><path class="cls-21" d="M202.61,308.06c-.4-.06-.87.05-1.28,0v-.85s1.28.86,1.28.86Z"/><path class="cls-5" d="M76.85,293.94h.43s.06.14-.43,0Z"/><path class="cls-17" d="M159.41,213.95c1.66-.09,10.59,3.44,13.17,4.16,9.07,2.5,18.18,4.29,27.6,4.82,2.05,4.66,6.61,7.25,11.66,7.3,9.86.1,26.11-3.59,35.7-6.43-.34.86.86.83.87,1.1.02,1.23-.82,2.14-.25,4.07.27.93,1.07.89,1.47,1.5.96,1.48,1.55,3.57-.4,4.31l.85,3.28c-.35,1.21-6,1.73-4.45,4.98.53,1.12,2.24,1.15,1.07,3.42l2.69-.36,1.1,1.09c.05.2-.89,3.71-1.02,3.97-.39.78-2.87,1.87-3.58,3.27-1.1,2.17-.72,5.26-2.54,8.16-.57.91-4.2,5.38-4.91,5.99-1.49,1.27-2.44-.85-4.14-.09-1.9.86-.71,2.55-1.33,4.04l-5.91-.78c-.19,1.37-1.23,2.38-.48,3.8-22.2,5.26-43.95,6.45-66.73,4.71.19-1.05-.78-1.91-.84-2.8-.1-1.52.93-4.28.83-5.92-.08-1.25-1.17-2.45-1.27-3.51-.18-1.99.4-4.68-.02-7.21-.12-.74-.99-1.35-.87-2.12.03-.21,1.81-1.06,2.13-3.5.35-2.66-.58-3.31-.79-5.12-.24-2.01-.71-5.98.65-7.45.57-.62,1.39-.1,1.72-1.27.5-1.79-.83-2.78-.68-4.07.27-2.25,1.5-1.58-.19-4.96-2.81-5.61-2.06-7.54-3.68-13-.38-1.29-2.44-2.55-.64-4.12.24-.21,2.94-1.24,3.23-1.26ZM169.46,234.48c-1.2.75-.25,2.59-.84,3.44-.47.68-3.09.29-1.55,2.79.25.41,1.57,1.36,2.03,1.41,3.02.28,2.27-8.04.36-7.63ZM162.62,249.46c-1.05.24-.74,2.4.41,2.13,1.05-.24.74-2.4-.41-2.13Z"/><path class="cls-28" d="M88.4,151.5c26.08,36.38,65.86,61.39,110.94,65.93,1.62,3.11,3.81,6.28,7.52,7.03,1.45.29,6.18-.11,7.93-.25,9.75-.74,19.94-2.85,29.4-5.25,8.04-2.04,21.71-4.27,21.36-14.78l5.71-3.49c.56,3.12-.07,6.26-.22,9.41l-8.13,8.13c-5,2.29-10.13,4-15.4,5.56-9.59,2.84-25.84,6.53-35.7,6.43-5.05-.05-9.6-2.63-11.66-7.3-9.42-.53-18.53-2.32-27.6-4.82-2.58-.71-11.51-4.24-13.17-4.16-8.04-3.77-16.04-7.62-23.53-12.4-6.1-3.9-12-8.35-17.33-13.26-.76,5.77.34,11.57.64,17.33.73,13.82,1.13,27.68,2.15,41.48.7,9.49-.1,19.28,8.35,25.44l7.05,4.72c-13.19-2.55-26.99-6.56-38.07-14.12-1.32-4.19-3.86-7.24-4.27-11.77-.23-2.48.16-5.18-.01-7.69-1.7-25.58-3.43-51.21-5.13-76.79-.34-5.12-1.32-10.21-.86-15.4Z"/><path class="cls-17" d="M173.95,142.51c.46-.46.02-1.76,1.43-1.22,1.52.57,1.9,3.84,2.01,5.27.41,5.22-.98,14.15.44,18.73.05.15,1.49,2.43,1.68,2.68,5.47,6.95,13.04.63,11.98-6.64,2.22-.85,1.86-3.51,5.13-2.14.11,7.44-1.28,26.32,1.28,32.08.15.34.15.5.43.86.12.16.28.3.43.43.33.85.29,1.39,1.05,2.17.64.66.96.53,1.52.82,2.53,1.31,4.42,1.3,6.65-.84,2.72-2.61,2.04-4.54,2.33-7.72.9-9.76.11-19.68.43-29.52.88-.88.13-2.26.65-3.42.28-.64,2.86-3.07,3.61-2.56,0,1.1.94,1.81,1.3,2.55s.38,1.63,1.01,2.63c3.35,5.33,9.07,5.5,12.68.37.39-.03.93-.8,1.73-.24,1.64,1.13,1.2,13.61,1.26,16.07-1.27,1.21,0,11.45.93,13.4,1.36,2.85,5.46,5.47,8.48,3.71.8,3.41,4.79.5,5.13,3.42-12.17,2.76-22.8,5.14-35.29,6.84-1.99.27-4.77.05-6.75.53-3.54.86-5.04,4.29-6.56,7.21-10.6-1.36-20.49-3.82-30.53-7.31.08-1.85.9-3.62.14-5.47-.27-.66-3.34-1.4-4.51-3.64-1.73-3.34-1.03-6.38-1.71-9.41-.22-1-1.45-1.91-1.53-2.72-.12-1.25,1.86-2.3,1.96-3.42.09-.95-1.21-1.96-1.17-2.93.02-.66.81-1.31.98-2,1.12-4.65-1.43-11.95-.57-16.39.31-1.61,2.38-1.08,2.12-3.81-.09-.93-1.03-2.23-.8-2.98s1.85-.8,1.67-1.99c1.02.11,3,.13,3.98-.09.21-.05,3.54-1.9,3.72-2.05l2.56,1.71-1.28-2.99ZM166.67,185.29c-1.25-.93-2.71,4.11-1.02,4.67,2.88.96,1.77-3.31,1.02-4.67Z"/><path class="cls-23" d="M280.03,82.63l-.42.21.42.21c0,.43.03.86,0,1.28l-5.34,8.14-4.93,4.27c-2.16-.68-4.11-2.21-6.42-2.99,20.46-16.29-.32-30.48-16.27-36.99-31.03-12.66-73.78-13.88-106.64-9.14-16.04,2.31-39.81,7.6-52.25,18.33-25.22,21.78,18.22,38.09,34.85,41.91-.11.92-.75,1.65-.86,2.57-.04.36-.04.92,0,1.28-.26-.07-.43.23-.43.43-15.54-3.9-31.75-8.64-43.65-19.87l-5.54-7.93c-.29-2.46-.62-5.3-.24-7.72,2.36-14.85,27.36-24.37,40.02-28,40.6-11.63,100.86-11.75,140.29,4.72,12.91,5.39,27.54,13.53,27.39,29.29Z"/><path class="cls-22" d="M135.88,201.54c-.38,1.34-.69,3.13-.42,4.49.2,1,1.31,1.38,1.21,2.05-.07.47-.9,1.65-1.11,2.77-.22,1.21.11,2.63-.2,3.65-.17.57-.96.9-1.13,1.46-.58,1.93,1.35,3.96,1.62,5.49.23,1.3-.27,2.99.1,4.18.28.9,1.3.86,1.63,1.47.39.73.44,2.34.84,3.33s1.49,2.01,1.65,2.66c.35,1.47-.98,3.74-1.07,5.08-.14,2.02,1.17,11.29,1.66,13.54.26,1.18,2.05,2.63,2.05,3.51s-1.57,1.77-1.21,2.9c.66,2.4,3.44,2.12,4.01,4.58.49,2.12-.41,2.16-.63,3.67-.32,2.15-.41,4.11,1.66,5.14l.04.83c-1.47.37-.62,1.77-1.1,3.19-.34.98-1.57,1.91-2.33,2.58-2.11-.34-4.32-.45-6.42-.86l-7.05-4.72c-8.45-6.16-7.65-15.96-8.35-25.44-1.02-13.81-1.42-27.66-2.15-41.48-.3-5.75-1.4-11.55-.64-17.33,5.32,4.91,11.22,9.35,17.33,13.26Z"/><path class="cls-23" d="M159.41,213.95c-.29.02-2.99,1.04-3.23,1.26-1.79,1.57.26,2.83.64,4.12,1.63,5.46.88,7.39,3.68,13,1.69,3.38.46,2.71.19,4.96-.15,1.29,1.18,2.28.68,4.07-.33,1.17-1.15.65-1.72,1.27-1.36,1.47-.89,5.44-.65,7.45.22,1.81,1.15,2.45.79,5.12-.32,2.44-2.1,3.29-2.13,3.5-.11.76.75,1.38.87,2.12.42,2.53-.16,5.22.02,7.21.09,1.06,1.18,2.26,1.27,3.51.11,1.63-.93,4.39-.83,5.92.06.9,1.03,1.75.84,2.8-5.91-.45-10.89-1.2-16.68-2.14.76-.68,2-1.6,2.33-2.58.48-1.42-.37-2.82,1.1-3.19l-.04-.83c-2.07-1.02-1.98-2.99-1.66-5.14.22-1.5,1.12-1.55.63-3.67-.57-2.45-3.34-2.18-4.01-4.58-.36-1.13,1.21-2.02,1.21-2.9s-1.79-2.33-2.05-3.51c-.49-2.26-1.8-11.52-1.66-13.54.09-1.34,1.42-3.61,1.07-5.08-.16-.66-1.26-1.71-1.65-2.66s-.45-2.6-.84-3.33c-.33-.62-1.35-.58-1.63-1.47-.37-1.18.13-2.88-.1-4.18-.27-1.53-2.2-3.56-1.62-5.49.17-.56.96-.89,1.13-1.46.31-1.02-.02-2.44.2-3.65.2-1.12,1.03-2.3,1.11-2.77.1-.67-1.01-1.06-1.21-2.05-.27-1.36.04-3.15.42-4.49,7.49,4.79,15.49,8.64,23.53,12.4Z"/><path class="cls-23" d="M164.97,145.94c.18,1.19-1.45,1.27-1.67,1.99s.71,2.05.8,2.98c.27,2.73-1.81,2.2-2.12,3.81-.86,4.44,1.68,11.74.57,16.39-.17.69-.96,1.33-.98,2-.03.97,1.26,1.98,1.17,2.93-.11,1.13-2.09,2.17-1.96,3.42.08.81,1.31,1.72,1.53,2.72.68,3.03-.02,6.07,1.71,9.41,1.17,2.25,4.23,2.98,4.51,3.64.76,1.84-.06,3.62-.14,5.47-10.32-3.58-18.91-7.61-28.23-13.26-.41-1.92-1.45-3.64-1.93-5.56s-.39-3.96-.82-5.59-3.21-8.27-3.14-9.1c.05-.6,2.64-5.67,3.17-5.77l1.38.41c-.37,3.1.63,3.57,3.48,4,1.11-.7-.64-2.95-1.25-3.46-1.43-1.2-2.72,0-.9-3.42l2.73.28.27-.88c4.94.55,7.27-3.05,7.7-7.49.17-1.76-.34-4.4.01-5.9.08-.35.78-.11.88-.91.18-1.37-.63-11.8,2.96-9.89,2.88,4.74,3.42,11.02,10.26,11.79Z"/><path class="cls-22" d="M125.19,125.4c2.41.67,1.95,2.05,4.15,2.9,2.64,1.02,5.53-.56,6.54,2.66.22.7.86,5.92.86,6.63v8.56c0,.59.41,3.36.55,4.16.61,3.58,1.89,7.21,5.87,8.03l-.27.88-2.73-.28c-1.82,3.42-.52,2.22.9,3.42.61.52,2.36,2.76,1.25,3.46-2.85-.43-3.85-.9-3.48-4l-1.38-.41c-.54.1-3.12,5.16-3.17,5.77-.07.83,2.72,7.49,3.14,9.1s.36,3.72.82,5.59,1.52,3.63,1.93,5.56c-8.71-5.28-15.64-10.67-23.1-17.54-.39-15.87-1.18-31.84-3.85-47.48,3.89,1.28,8.05,1.91,11.97,2.99Z"/><path class="cls-23" d="M263.78,193.84c-.23.11-.7,1.19-1.5,1.14-.32-.02-2.45-1.73-3.34-2.08-4.03-1.6-7.45-.39-11.42.51-.35-2.92-4.34-.02-5.13-3.42,1.04-.6,2.39-3.31,3.38-4.2.59-1.38.26-3.06.47-4.36.12-.72.35-1.36.43-2.14,1.21-12.26.15-25.21.43-37.64.02-1-.04-2,0-2.99l.85-2.29c1.09-2.03,2.85,3.96,3.34,4.73,1.94,3.05,5.46,3.9,8.01,1,2.1-2.39,1.91-4.84,2.34-7.71.02-.14-.02-.29,0-.43.33-2.41.36-7.16.85-9.11.1-.41.94-.49,1.25-.97.54-.85.28-1.92,1.09-2.78.69-.73,2.51-1.05,3.23-1.69l-4.28,74.43Z"/><path class="cls-28" d="M112.35,117.7c3.65,1.04,7.78,1.68,11.55,2.57l1.28,5.13c-3.92-1.08-8.08-1.71-11.97-2.99,2.67,15.64,3.45,31.61,3.85,47.48-3.31-3.05-6.61-6.05-9.63-9.4-4.37-4.85-8.36-10.35-12.14-15.67l-.04-.58c1.8-.43,2.99-2.77,3.54-4.38,2.25-6.66.04-19.23-5.68-23.86l3.09.12,15.14,5.86,1.41-.69-.39-3.58Z"/><path class="cls-23" d="M262.92,218.23c-.74,6.18-.51,12.42-.86,18.6-.32,5.75-.42,11.72-1.39,17.43-.44,2.55-2.26,5.22-1.17,7.6-9.12,7.61-21.55,10.99-32.94,13.69-.75-1.41.29-2.42.48-3.8l5.91.78c.62-1.49-.57-3.18,1.33-4.04,1.7-.77,2.65,1.36,4.14.09.71-.61,4.34-5.08,4.91-5.99,1.81-2.89,1.44-5.99,2.54-8.16.71-1.4,3.18-2.49,3.58-3.27.13-.26,1.07-3.77,1.02-3.97l-1.1-1.09-2.69.36c1.18-2.27-.53-2.3-1.07-3.42-1.54-3.25,4.11-3.77,4.45-4.98l-.85-3.28c1.95-.74,1.36-2.83.4-4.31-.4-.61-1.19-.56-1.47-1.5-.57-1.94.27-2.84.25-4.07,0-.27-1.21-.24-.87-1.1,5.27-1.56,10.4-3.27,15.4-5.56Z"/><path class="cls-22" d="M82.84,146.79l.81,18.14c2.68.07,3.48.61,5.61,1.96,1.7,25.57,3.42,51.2,5.13,76.79.17,2.51-.22,5.21.01,7.69.41,4.53,2.95,7.58,4.27,11.77-3.97-2.71-6.16-4.11-8.98-8.13-.05-1.2.09-2.43,0-3.63-1.7-21.46-3.25-43.08-4.7-64.6-.28-4.15.17-9.67-.46-13.66-.26-1.65-1.33-2.4-2.97-2.38-.56-8.41-1.12-16.83-1.71-25.24.93.39,2.01,1.08,2.99,1.28Z"/><path class="cls-17" d="M275.33,119.41c-.88,20.31-1.94,40.61-3.01,60.94-.11,2.06.36,5,0,6.85-.27,1.44-5.81,5.55-7.31,6.4-.45.26-1.02.13-1.24.24l4.28-74.43c.06-.05.73-1.08.86-1.28,1.85,2.09,3.93,1.92,6.42,1.28Z"/><path class="cls-2" d="M266.77,276.83c.1,1.3-.8,1.01-1.44,1.34-4.58,2.34-9.22,4.66-14.09,6.36l-.31,1.07c2.94,1.86,4.07,4.65,7.69,5.59,5.01,1.31,9.67.49,14.57-.24,2.66-.4,14.45-1.62,10.27-6.84l.43-2.14c.3.1.9-.07,1.28,0,1.25,2.05,4.92,3.64,2.81,6.45-4.11,5.46-21.18,6.3-27.62,6.39.63-1.7-3.58-3.52-4.45-3.44-.28.02-.46,1.2-1.51,1.55-2.35.79-5.96-1.01-7.3,1.47-.7.05-1.48.18-2.14.43-.43.16-1.07.31-1.32.69-.42,2.06,3.15,3.3-1.53,6.51-6.72,4.62-21.93,5.32-29.66,4.78,1.47-.54.35-2.17,1.5-2.99h11.98c1.48,0,3.74-1.06,4.92-1.28,2.48-.47,5.67-.04,7.92-2.13,2.89-2.69-2.01-7.56-3.21-6.42-.14,1.53,1.34,2.3.64,3.83-.46,1.01-3.83,3.03-4.92,3.01-.04,0,.05-.38-.63-.42s-3.2.39-2.78-.65c.11-.28,2.16-3.81,2.36-4.06,1.52-1.89,4.04-1.78,2.3-5.54-3.71.47-7.28,1.65-11.08,1.25v-2.14c-.56,0-1.14,0-1.71,0,3.33-1.1,6.85-1.73,10.27-2.57,1.34.69,1.16,2.8,2.8,3.01s9.78-1.97,11.93-2.6c.98-.29,2.71-.77,3.55-1.16.44-.2.68.08.55-.75-.91-1.88-2.19-2.96-4.29-2.78,5.62-2.01,9.85-4.7,14.97-6.84,2.47-.3,5.08.88,7.27,1.28Z"/><path class="cls-15" d="M262.92,201.97c-4.48,4.67-11.01,6.32-17.11,7.92-9.93,2.61-20.5,4.63-30.8,4.49.17-3.27-.99-6.6-2.57-9.41,8.92,2.06,28.89-.6,37.37-4.34.87-.38,5.76-2.64,3.71-4.01-.8-.73-3.66.71-3.43-1.06,6.65-1.44,11.56-1.5,12.83,6.42Z"/><path class="cls-10" d="M206.89,213.09c-10.22.05-20.62-2.18-30.46-4.83-25.29-6.81-49.71-21.09-67.93-39.86-3.97-4.09-8.74-11.04-12.82-14.34-.08-.83-.53-1.39-1.28-1.71-.43-1.03-.79-1.32-1.28-2.14-2.41-4-5.17-7.85-7.62-11.85-1-1.63-2.06-4.48-3.12-5.86-.62-.81-1.17-.77-2.1-.68-.69-2.59.48-4.57,3.03-3.24,6.34,12.38,13.9,24.17,23.27,34.47,23.17,25.49,56.35,42.81,90.69,47.04,1.93.24,7.14.04,8.48.5.93.32,1.09,1.65,1.14,2.5Z"/><path class="cls-23" d="M243.25,273.41c.44,4.52-4.93.67-5.13,4.71-25.92,8.18-51.53,10.33-78.71,8.13-6.61-.54-13.18-1.74-19.68-2.99v-2.99c31.43,5.54,73.47,4.64,103.52-6.84Z"/><path class="cls-11" d="M126.04,108.29v1.28c-1.67-.02-2.16.94-2.11,2.53,1.17.3,2.24,1,3.39,1.32-.32,1.71,1.56,2.6,1.95,3.83.51,1.59-.45,4.6,1.04,5.37,2.36,1.22,1.68-1.26,2.55-2.59,2.27-3.45,5.55-1.55,7.37,1.22,4.02,6.1,1.11,17.5,2.17,24.78.25,1.75,1.03,4.49,3.35,3.56.53-.37.26-1.24.39-1.53.01-.03.4-.42.43-.43.29-.12.98.32,1.3-.28.21-.41.59-2.92.41-3.15h-.85c.23-1.77.34-4.16.43-5.99.08-1.65-.42-3.14-.38-4.44.02-.92.71-5.7,1.22-6.05,1.66-1.13,4.17.38,3.91-4.27-.11-1.9-4.33-4.43-4.74-6.62,2.12.76,3.06,3.28,4.92,4.7,3.68,2.8,8.68,3.85,6.63,10.27-.16-.49-1.37-1.57-1.33-2.52l-1.67.38c-3.28-2.83-5.68-.58-6.01,3.19-.41,4.8,1.52,17.31-2.4,20.27-4.54,3.44-8.37-.89-9.02-5.4-.9-6.21,1.2-18.56-1.82-23.63-.2-.34-.09-1.49-1.06-1.28-.54.12-1.75,2.2-2.67,2.47-3.87,1.15-5.36-1.83-6.97-4.62-.92-1.59-1.42-1.84-2.14-2.99-.57-.92-2.01-4.97-2.14-5.99-.04-.36-.04-.92,0-1.28,1.01.14,1.84-1.63,2.14-2.57.57.13,1.14.3,1.71.43Z"/><path class="cls-17" d="M271.05,210.1c-.6,13.31-1.48,26.59-2.24,39.89-.7,4.16-6.14,9.22-9.31,11.87-1.09-2.39.73-5.05,1.17-7.6.98-5.71,1.07-11.68,1.39-17.43.35-6.19.12-12.42.86-18.6l8.13-8.13Z"/><path class="cls-15" d="M88.4,146.36c1.61-.35,1.05.44,1.42.92.81,1.05,1.7,3.13,3.28,2.93.5.82.85,1.11,1.28,2.14.1.24-.13.82.2,1.29.35.51.98.34,1.08.42,4.08,3.3,8.85,10.25,12.82,14.34,18.22,18.77,42.64,33.05,67.93,39.86,9.85,2.65,20.24,4.88,30.46,4.83.04.66.16,1.98-.4,2.38-8.5.17-17.35-1.54-25.62-3.53-38.27-9.19-71.38-32.49-92.47-65.58Z"/><path class="cls-14" d="M81.98,251.16c1.47-.02,1.47,2.6,2.06,3.71,9.49,17.95,37.26,24.81,55.69,28.37,6.5,1.25,13.07,2.46,19.68,2.99.15,1.23,1.98,1.72,1.71,3.42-26.14-1.68-63.88-8.27-78.85-31.77-.18-2.23-.33-4.47-.28-6.73Z"/><path class="cls-13" d="M262.92,201.97c1.69,10.56-9.18,11.9-17.02,13.99-10.92,2.91-22.16,5.02-33.46,5.68,1.5-1.96,2.44-4.82,2.57-7.27,10.3.14,20.87-1.88,30.8-4.49,6.1-1.6,12.62-3.24,17.11-7.92Z"/><path class="cls-4" d="M150,290.95l-.86,2.99c-2.42-.02-4.85-.01-7.27,0-1.28,0-2.57-.02-3.85,0-1.56.02-3.14-.02-4.7,0,.24.76.21,2.4.43,2.99-1.83-.42-2.77-1.96-4.48-2.14-4.85-.5-10.1.73-14.96.88-6.47.19-13.92.19-20.34-.45-.93-.09-1.94-.65-2.99-.43l1.28-2.14c3.11.07,4.25-1.33,6.22-1.7,4.27-.8,8.79.3,12.6-3.01,3.15,1.56,6.95,2.59,10.49,2.15,2.27-.28,4.46-2.26,5.76-2.58,1.62-.39,19.05,2.98,22.67,3.42Z"/><path class="cls-27" d="M202.18,291.8c.43,2.57-2.27,3.23-2.99,5.13-.58.28-.86.83-1.71.86-.07,0-.46-.58-.85-.43v.85c-.43-.01-.86.02-1.29,0-1.29-.07-6.86.94-8.12,1.5-.62.27-2.48,1.42-.43,1.49-3.52.31-7.99,2.02-11.82,2.51-3.4.43-8.49.94-11.7.92-3.88-.02-10.27-.61-14.12-1.28l2.14-2.57c.79.11,2.66-.17,3.42-.43.78.55,2.27.78,3.22.85,4.32.31,9.88.74,14.13.46,1.65-.11,7.16-.84,8.44-1.39.44-.19.85-.43.73-.97-.51-.61-1.18-.93-1.95-1.05-4.36-.68-10.14.33-14.55.44-.78.02-1.38-.47-1.46-.47,2.51-1.16,5.36-1.9,7.7-3.42,1.66-1.08,1.16-1.81,4.28-2.14,8.42-.88,18.1.03,26.95-.86Z"/><path class="cls-28" d="M244.53,276.4l-.43,3.42c-26.47,9.64-54.82,11.65-82.98,9.84.27-1.7-1.56-2.19-1.71-3.42,27.18,2.2,52.79.05,78.71-8.13,1.97-.62,4.33-.94,6.42-1.71Z"/><path class="cls-28" d="M72.57,84.34l5.54,7.93c11.9,11.23,28.11,15.97,43.65,19.87-.01,1.54,1.19,4.29,2.14,5.56-17.44-4.49-48.82-11.91-51.33-33.37Z"/><path class="cls-15" d="M279.61,122.41c.85,4.88,3.31,9.64,4.68,14.36,3,10.32,4.28,19.13,3.89,29.93-.08,2.14-1.19,4.92-.02,7.04-2.36,9.62-11.7,23.18-21.08,27.04-.68.28-1.27.43-2.02.34-.1-.52.12-1.27,0-1.71,7.91-4.34,18.28-13.89,19.25-23.33.08-.79.36-1.74-.86-1.48,4.89-14.68.93-30.65-3.71-44.41-1.17-3.48-1.77-3.73-1.85-7.78h1.71Z"/><path class="cls-21" d="M219.72,289.23c.57,0,1.14,0,1.71,0v2.14c3.8.4,7.37-.78,11.08-1.25,1.74,3.76-.78,3.65-2.3,5.54-.2.25-2.25,3.78-2.36,4.06-.42,1.03,2.09.61,2.78.65s.6.41.63.42l-.43,1.71c-1.18.22-3.43,1.28-4.92,1.28h-11.98c-1.14.83-.03,2.45-1.5,2.99-.28-.02-.57.03-.86,0-2.34-.22-5.67-.81-8.13-1.28.19-1.37,3.27-3.52,4.4-3.94,2.09-.79,5.32-.27,7.82-1.17,2.67-.96,6.39-5.09,6.18-8.14-.25-.34-4.75-.1-5.56-.01l-.43-2.57c1.28-.17,2.55-.41,3.85-.43Z"/><path class="cls-12" d="M115.77,284.1c-2.39-.07-1.32.4-2.54,1.51-.73.66-1.92,2.13-2.16,2.34-3.81,3.31-8.34,2.21-12.6,3.01-1.96.37-3.11,1.77-6.22,1.7-4.86-.11-9.09-3.3-14.36-2.6-.98.13-.21,1.33-1.91.7-3.38-1.23-5.94-4.74-2.84-7.82.2-.2.64-.06.72-.12-.47,1.41,1.51,3.98,2.78,2.57.39-.43.42-1.13,1.07-1.71,2.81-.8,2.91,3.67,3.85,4.49s6.84,1.81,8.35,1.92c6.08.46,12.91-.34,18.56-2.6,1.09-1.56-2.45-3.09-3.5-3.47-2.47-.89-10.02-1.95-11.67-3.3-.95-.77-.56-2.34-.61-3.46.09-.02.41-.57.82-.67,1.13-.26,2.63.13,3.03-1.05,6.05,3.55,12.91,5.61,19.25,8.56Z"/><path class="cls-23" d="M89.68,255.01c-1.41-2.01-2.62-3.54-3-6.2-1.51-26.04-3.41-52.05-5.13-78.07,1.64-.02,2.71.72,2.97,2.38.63,3.99.18,9.51.46,13.66,1.44,21.52,2.99,43.14,4.7,64.6.1,1.21-.05,2.43,0,3.63Z"/><path class="cls-22" d="M139.73,280.25v2.99c-18.42-3.56-46.19-10.42-55.69-28.37-.59-1.12-.59-3.73-2.06-3.71.03-1.43-.16-2.89.19-4.3l1.95-3.82c-.89,8.18,3.09,13.99,8.98,19.04,11.79,10.11,31.56,15.52,46.63,18.17Z"/><path class="cls-28" d="M250.09,195.56c-.23,1.77,2.64.33,3.43,1.06,2.05,1.37-2.84,3.63-3.71,4.01-8.48,3.74-28.45,6.4-37.37,4.34-.61-.14-1.79-1.52-2.14-2.13,13.6-.59,26.62-4.42,39.78-7.28Z"/><path class="cls-13" d="M90.11,135.67c-2.87-2.07-3.17-8.92-7.03-9.44-2.17-.29-3.73.15-4.68,2.21-2.38,5.19,4.13,11.05,5.73,15.78-8.75-.53-11.21-11.7-10.15-18.92,1.13-7.67,8.72-7.22,12.94-2.04,2.95,3.62,3.54,7.82,3.2,12.41Z"/><path class="cls-22" d="M273.19,252.02c-5.21,12.6-16.28,19.82-28.66,24.38-2.09.77-4.44,1.09-6.42,1.71.2-4.03,5.57-.18,5.13-4.71,12.23-4.67,29.1-13.84,28.24-29.09l1.6,3.73c.23,1.31.06,2.65.1,3.96Z"/><path class="cls-14" d="M87.12,107.44c6.58,3.83,17.87,8.17,25.24,10.27l.39,3.58-1.41.69-15.14-5.86-3.09-.12c-1.4-1.13-5.08-2.15-5.99-2.99-1.07-.98-2.82-5.54,0-5.56Z"/><path class="cls-14" d="M244.1,279.82l.43-3.42c12.38-4.56,23.45-11.78,28.66-24.38.51,15.45-16.71,23.3-29.09,27.8Z"/><path class="cls-13" d="M202.61,217.8l4.4-.09c2.77-1.63,2.64-6.28.54-8.48s-3.31-.67-5.79-.84c.46-4.49,4.55-6.93,8.12-3.2s4.4,12.68.02,15.84-7.82-2.73-7.29-3.22Z"/><path class="cls-10" d="M82.84,146.79c.81.17,2.27-.28,2.91.09.4.23,2.17,3.95,2.65,4.62-.46,5.18.52,10.28.86,15.4-2.13-1.35-2.92-1.89-5.61-1.96l-.81-18.14Z"/><path class="cls-28" d="M268.91,113.43c1.26-2.15.22-6.96,1.26-8.79.18-.32,4.52-4.2,5.15-4.69.43-.33.54-.83,1.28-.64-.7,1.93-.29,3.84-.41,5.81-.03.55-.44.98-.45,1.04-.39-1.03-1.15.13-1.5.43-4.12,3.47-2.35,2.3-3.67,7.03-.38,1.37-.96,3.33-1.68,4.52-.13.21-.8,1.23-.86,1.28-.73.63-2.54.96-3.23,1.69-.81.86-.55,1.93-1.09,2.78-.3.48-1.14.56-1.25.97-.49,1.95-.52,6.69-.85,9.11.27-4.95-.37-10.27,0-15.18.15-2.04.53-2.93,1.28-4.5.87,3.64,5.55,2.31,5.99-.86Z"/><path class="cls-10" d="M279.61,120.27c.22.59,1.59,2.27,1.68,2.47,6.18,15.85,11.03,34.1,6.88,51-1.17-2.12-.06-4.9.02-7.04.38-10.81-.89-19.62-3.89-29.93-1.37-4.72-3.83-9.47-4.68-14.36-.13-.75-.73-1.51,0-2.14Z"/><path class="cls-22" d="M86.26,115.56l.21.42.21-.42c8.26,1.3,10.7,11.81,10.69,18.82-.77.12-1.75-1.87-2.06-2.43-.61-1.11-.97-2.42-1.54-3.39-.44-.75-1.26-2.21-2.39-1.88-.88-2.49-3.98-6.5-6.42-7.7l.43-3.42c.28,0,.58-.03.86,0Z"/><path class="cls-10" d="M283.46,174.6c1.22-.25.94.69.86,1.48-.97,9.44-11.35,18.99-19.25,23.33-.15-.53-1-1.4-1.23-2.01l.13-.57c8.52-4.66,16.39-12.9,19.49-22.23Z"/><path class="cls-19" d="M244.53,282.39c2.1-.18,3.38.89,4.29,2.78.12.83-.12.55-.55.75-.84.38-2.56.87-3.55,1.16-2.15.64-10.22,2.82-11.93,2.6s-1.46-2.31-2.8-3.01c4.96-1.22,9.73-2.55,14.54-4.28Z"/><path class="cls-23" d="M275.76,106.15c-.21,4.41-.24,8.84-.43,13.26-2.49.63-4.57.81-6.42-1.28.72-1.19,1.3-3.15,1.68-4.52,1.31-4.73-.46-3.56,3.67-7.03.35-.3,1.11-1.46,1.5-.43Z"/><path class="cls-11" d="M115.77,284.1c2.25.07,7.32,1.74,9.77,2.43.69.19,1.52.12,1.78,1-1.31.31-3.49,2.29-5.76,2.58-3.54.44-7.34-.59-10.49-2.15.24-.21,1.44-1.68,2.16-2.34,1.22-1.11.15-1.58,2.54-1.51Z"/><path class="cls-14" d="M126.47,120.7c1.61,2.79,3.11,5.77,6.97,4.62.92-.27,2.12-2.35,2.67-2.47.96-.21.85.94,1.06,1.28l.86,6.61-2.15.24c-1.01-3.22-3.9-1.64-6.54-2.66-2.21-.85-1.74-2.24-4.15-2.9l-1.28-5.13c.85.2,1.67.51,2.57.43Z"/><path class="cls-12" d="M269.77,96.74l.86,3.85c-1.42,1.18-2.16,2.95-2.57,4.71-.26,1.12-.79,3.25-.86,4.28-.39-3,.46-6.09.43-8.98-.01-1.03-.23-1.04-.43-1.71-.11-.35.28-.95-.26-1.32-3.89-2.64-10.23,2.7-13.99,4.4-.92.41-2.04.42-2.86.77l-1.28-.86c4.28-1.71,10.96-5.27,14.54-8.13,2.31.79,4.25,2.32,6.42,2.99Z"/><path class="cls-22" d="M76.85,102.3c1.65.44,2.13,2.92,3.2,4.29,1.94,2.48,5.73,3.31,5.36,6.41-2.77.06-5.49.91-7.7,2.57-.27-4.43-.7-8.82-.86-13.26Z"/><path class="cls-14" d="M280.03,84.34c-.41,6.48-2.46,10.84-7.31,15.15-.68.61-1.78.84-2.1,1.11l-.86-3.85,4.93-4.27,5.34-8.14Z"/><path class="cls-3" d="M175.23,292.66c-3.12.33-2.62,1.06-4.28,2.14l-10.03-.87c-3.93.01-7.86.04-11.78.02l.86-2.99c8.37,1.02,16.79,1.94,25.24,1.71Z"/><path class="cls-28" d="M87.12,107.44c-2.82.02-1.07,4.58,0,5.56-.57,0-1.14-.01-1.71,0,.38-3.09-3.41-3.93-5.36-6.41-1.07-1.37-1.55-3.85-3.2-4.29-.02-.42.05-.88,0-1.28l.86-.43c3.09,1.93,6.2,4.97,9.41,6.84Z"/><path class="cls-14" d="M93.1,150.21c-1.58.2-2.47-1.88-3.28-2.93-.37-.48.19-1.28-1.42-.92-2.58-4.05-6.92-10-8.13-14.54.92-.08,1.47-.13,2.1.68,1.06,1.39,2.12,4.23,3.12,5.86,2.44,4,5.2,7.84,7.62,11.85Z"/><path class="cls-15" d="M283.88,111.72c-.06,2.09-.44,5.07-2.97,5.12-.98-3.27-3.45-8.31-2.16-11.53.07,1.14,1.11,1.53,1.61,2.46.91,1.72.76,4.4,3.53,3.96Z"/><path class="cls-15" d="M92.25,134.39l.81.06.28,1.25,4.04-.03c-.2,2.67-.81,5.09-3.57,5.92-2.93-1.71-1.51-4.37-1.56-7.2Z"/><path class="cls-10" d="M91.39,126.69c1.13-.33,1.95,1.13,2.39,1.88.56.97.93,2.28,1.54,3.39.31.56,1.29,2.55,2.06,2.43,0,.42.03.86,0,1.28l-4.04.03-.28-1.25-.81-.06c-.04-2.35-.06-5.47-.86-7.7Z"/><path class="cls-8" d="M209.88,290.95l.43,2.14c-1.79.24-6.1.47-7.41.93-.23.08-2.02,2.12-3.71,2.92.72-1.9,3.43-2.57,2.99-5.13,2.4-.24,5.23-.54,7.7-.86Z"/><path class="cls-11" d="M268.91,113.43c-.44,3.17-5.12,4.49-5.99.86.11-.23.31-.21.43-.86,1.82,1.08,3.65,1.34,4.21-1.18.26-1.18-.36-1.72-.36-1.81.01-.28-.02-.57,0-.86.06-1.03.59-3.16.86-4.28.72,2.36,1.19,5.7.86,8.13Z"/><path class="cls-10" d="M283.88,111.72c-2.77.44-2.61-2.23-3.53-3.96-.49-.93-1.54-1.32-1.61-2.46.07-.17-.12-.56.03-.81,4.28.16,5.22,3.5,5.1,7.23Z"/><path class="cls-15" d="M215.87,289.66l.43,2.57c-1.75.19-4.08.61-5.99.86l-.43-2.14c1.73-.22,3.99-1.02,5.99-1.28Z"/><path class="cls-10" d="M85.4,115.56l-.43,3.42c-1.75-.86-3.69-1.08-5.56-1.5,1.82-1.8,3.58-1.93,5.99-1.93Z"/><path class="cls-28" d="M279.61,120.27c-.73.63-.13,1.39,0,2.14h-1.71c-.04-1.82-.15-4.27.43-5.99h.43c.58,1.01.55,3.06.86,3.85Z"/><path class="cls-22" d="M77.7,100.59l-.86.43c-.02-.17-.72-.62-.43-1.28.91-.32.97.66,1.28.85Z"/><path class="cls-12" d="M124.33,117.7h-.43c-.95-1.27-2.15-4.02-2.14-5.56,0-.2.17-.5.43-.43.12,1.02,1.57,5.07,2.14,5.99Z"/><polygon class="cls-15" points="278.75 116.42 278.32 116.42 278.54 116 278.75 116.42"/><path class="cls-10" d="M86.26,115.56c.14.01.29-.02.43,0l-.21.42-.21-.42Z"/><path class="cls-14" d="M280.03,83.06l-.42-.21.42-.21c0,.14,0,.29,0,.43Z"/><path class="cls-11" d="M69.48,266.25c3.03,0,11.72,1.15,9.71,5.87-1.66,3.9-16.69,4.12-18.97.17-2.65-4.57,6.31-6.03,9.26-6.04ZM63.59,269.56c-.35.22-1.49.09-1.28,1.06.69,1.02,1.52,1.16,2.56,1.5,3.18,1.03,6.6.89,9.86.24,1.35-.27,4.56-1.29,2.09-2.58-.49-.25-.99-.12-1.25-.23-1.53-.62-3.05-1.14-4.71-1.28-2.84-.24-4.83-.24-7.27,1.28Z"/><path class="cls-18" d="M138.02,293.94c-.19,1.99.91,3.19,2.55,4.08,2.04,1.11,8.31,2.44,10.71,2.76l-2.14,2.57c-2.78-.48-14.48-3.94-15.4-6.42-.22-.59-.19-2.23-.43-2.99,1.56-.02,3.14.02,4.7,0Z"/><path class="cls-16" d="M92.68,277.26c.05,1.12-.34,2.68.61,3.46,1.65,1.35,9.2,2.4,11.67,3.3,1.05.38,4.6,1.92,3.5,3.47-5.65,2.26-12.48,3.06-18.56,2.6-1.51-.11-7.43-1.12-8.35-1.92s-1.04-5.29-3.85-4.49c2.57-2.28,8.38-3.23,11.55-4.71.08-.62-1.33-.83-1.71-.85,1.4-1.25,3.67-.56,5.13-.86Z"/><path class="cls-7" d="M87.54,278.11c.38.02,1.79.23,1.71.85-3.17,1.48-8.98,2.44-11.55,4.71-.65.58-.68,1.28-1.07,1.71-1.27,1.41-3.26-1.16-2.78-2.57,3.51-2.67,6.8-3.67,11.12-4.28.61-.08,1.22-.42,1.28-.43.41-.03.87-.02,1.28,0Z"/><path class="cls-16" d="M86.26,278.11c-.07,0-.68.34-1.28.43l1.28-.43Z"/><path class="cls-19" d="M260.36,294.8c-4.2.06-9.11-.74-13.26-.43,1.34-2.48,4.95-.68,7.3-1.47,1.05-.35,1.23-1.53,1.51-1.55.87-.07,5.08,1.75,4.45,3.44Z"/><path class="cls-8" d="M195.34,298.22c.25,1.56-2.72.83-2.99,1.93-.31,1.28,2.51,1.05,3.18,1.47l-.19,1.73c-1.67-.47-2.97-.86-4.71-1.28-1.38-.33-1.72-1.04-3.85-.86-2.05-.07-.19-1.22.43-1.49,1.26-.56,6.84-1.57,8.12-1.5Z"/><path class="cls-6" d="M297.14,268.7l-.43,1.71c-2.55-.46-5.15-1.12-7.69-.43-.16-.95.07-.86.83-1.07,2.53-.71,4.97.37,7.29-.21Z"/><path class="cls-6" d="M269.34,276.83l.43.43c1.06.23,2.59.21,3.42.43,3.74.98,7.39,3.15,10.69,4.28l-.43,2.14c-2.74-3.42-10.34-5.09-14.54-5.13.1,1.94,2.2,1.55,3.34,2,1.46.57,6.92,2.58,7.29,3.86.8,2.74-6.02,3.35-6.36,6.12-4.9.73-9.55,1.54-14.57.24-3.61-.94-4.75-3.72-7.69-5.59l.31-1.07c4.87-1.7,9.51-4.02,14.09-6.36.64-.33,1.55-.04,1.44-1.34.76.14,1.83-.15,2.57,0Z"/><path class="cls-2" d="M269.77,277.26l-.43-.43c.35.07.4.42.43.43Z"/><path class="cls-30" d="M216.3,292.23c.81-.09,5.31-.33,5.56.01.22,3.05-3.5,7.18-6.18,8.14-2.5.9-5.73.38-7.82,1.17-1.13.43-4.21,2.57-4.4,3.94-.71-.14-1.44-.28-2.14-.43-1.73-.37-3.43-.82-5.13-1.28-.18-.05-.48-.32-.86-.43l.19-1.73c-.67-.42-3.49-.19-3.18-1.47.27-1.1,3.24-.37,2.99-1.93.43.02.86-.01,1.28,0l.86-.43c.85-.03,1.13-.58,1.71-.86,1.69-.8,3.48-2.84,3.71-2.92,1.31-.46,5.62-.69,7.41-.93,1.91-.25,4.23-.67,5.99-.86Z"/><path class="cls-23" d="M169.46,234.48c1.91-.41,2.66,7.91-.36,7.63-.46-.04-1.77-1-2.03-1.41-1.55-2.5,1.08-2.11,1.55-2.79.59-.85-.36-2.69.84-3.44Z"/><path class="cls-23" d="M162.62,249.46c1.16-.26,1.46,1.9.41,2.13-1.16.26-1.46-1.9-.41-2.13Z"/><path class="cls-28" d="M156.41,129.68c.66,6.36,5.46,16.46,13.28,12.21,3.1-1.69,3.08-4.49,4.89-5.8,3.26-2.38,4.64,1.24,4.92,4.08.63,6.24-1.39,18.18,1.05,23.33,2.9,6.1,9.13,3.7,10.5-2.16h.43c1.06,7.27-6.51,13.58-11.98,6.64-.19-.25-1.63-2.52-1.68-2.68-1.42-4.58-.03-13.51-.44-18.73-.11-1.43-.48-4.7-2.01-5.27-1.41-.53-.97.77-1.43,1.22-.22.21-1.21,1.22-1.28,1.28-.19.15-3.52,2-3.72,2.05-.97.22-2.95.2-3.98.09-6.84-.76-7.39-7.04-10.26-11.79-3.59-1.91-2.78,8.52-2.96,9.89-.1.79-.8.56-.88.91-.35,1.5.16,4.15-.01,5.9-.43,4.44-2.75,8.04-7.7,7.49-3.98-.83-5.26-4.45-5.87-8.03-.14-.8-.55-3.57-.55-4.16v-8.56c0-.71-.64-5.93-.86-6.63l2.15-.24-.86-6.61c3.02,5.07.92,17.42,1.82,23.63.65,4.51,4.48,8.83,9.02,5.4,3.92-2.96,1.99-15.47,2.4-20.27.32-3.77,2.73-6.02,6.01-3.19Z"/><path class="cls-26" d="M207.31,188.28c.81-1.58,1.16-3.1,1.3-4.9.69-9.01-.12-19.47-.02-28.68,0-.72-.27-1.9.44-2.35.09,2.41.8,2.52.89,3.18.15,1.11-.17,2.5-.03,3.66l.85-2.14c0,.14,0,.29,0,.43-.32,9.83.47,19.76-.43,29.52-1.05,2.25-1.84,3.82-3.98,5.24-.51.34-1.37.2-1.58.32-3.45-.16-4.53-2.99-5.99-5.56.8-12.34.87-31.12.02-43.43-.25-3.64-1.36-5.01-2.16-7.9-.09-.34.06-.89,0-1.28.16.1.89-.15,1.49.42,1.33,1.27,2.21,6.46,2.35,8.36,1.02,13.67-.85,28.45.12,42.23.46,3.67,4.39,7.5,6.73,2.89Z"/><path class="cls-14" d="M196.62,135.67c.79,2.89,1.9,4.26,2.16,7.9.85,12.31.78,31.09-.02,43.43-.08,1.18-.68,2.64-.51,3.99l-.35.28c-2.56-5.76-1.17-24.64-1.28-32.08-.05-3.22.38-15.28-1.26-17.35-1.18-1.5-2.31.06-3.02,1.09-.89-.88-.26-2.64-.43-3.85.6-2.69,1.36-4.92,4.71-3.42Z"/><path class="cls-28" d="M234.69,153.21c.05.55-.24,1.41.43,1.71.04,1.7,0,3.43,0,5.13-.64.06-.64,1.22,0,1.28,0,.86,0,1.71,0,2.57l-.42.21.42.21c0,.71,0,1.43,0,2.14-.72.8-.72,3.05,0,3.85,0,.85-.01,1.71,0,2.57-.71,1.29-.73,4.19,0,5.56.01.28-.02.57,0,.86l-.42.21.42.21c.09.95.12,1.23.43,2.14,2.05,6.1,6.64,5.22,9.84.43.21-.32.59-.57.86-.86-.21,1.3.12,2.98-.47,4.36-.98.89-2.34,3.59-3.38,4.2-3.03,1.76-7.12-.86-8.48-3.71-.93-1.95-2.2-12.2-.93-13.4.1-.09.75.25.87-.27,1.07-4.58.34-12.49.4-17.49,0-.72-.27-1.9.44-2.35.02.14-.01.29,0,.43Z"/><path class="cls-23" d="M196.62,159.2c-3.27-1.37-2.92,1.29-5.13,2.14h-.43c.06-.25-.05-.59,0-.86l.42-.21-.42-.21c.31-2.51-.05-3.77,0-5.99.71-.87.73-3.33,0-4.28.05-2,.27-4,.43-5.99,1.22.29.71-.65.86-.86.71-1.03,1.84-2.59,3.02-1.09,1.63,2.07,1.21,14.13,1.26,17.35Z"/><path class="cls-14" d="M234.69,152.78c-.71.45-.43,1.62-.44,2.35-.06,5,.67,12.9-.4,17.49-.12.52-.78.18-.87.27-.06-2.46.37-14.94-1.26-16.07-.8-.55-1.34.21-1.73.24-1.84.15-1.2-1.53-.86-2.57,1.29-3.88,4.35-9.17,5.56-1.71Z"/><path class="cls-28" d="M218.01,151.92c.27,1.33,1.44,2.62,2.57,3.42,1.98,1.41,3.38,1.78,5.83.89.69-.25.81-.76,1.02-.89.44-.27,1.28-.32,1.71-.86-.35,1.04-.99,2.72.86,2.57-3.61,5.14-9.33,4.96-12.68-.37-.63-1-.63-1.87-1.01-2.63,1.6,0,1.15-1.1,1.28-2.14h.43Z"/><path class="cls-14" d="M215.44,144.65c.5,1.5,1.51,3.2,2.14,4.71,0,.14,0,.29,0,.43,0,.43.01.86,0,1.28,0,.16,0,.41,0,.43-.01.14.02.29,0,.43-.14,1.04.32,2.14-1.28,2.14-.37-.74-1.31-1.45-1.3-2.55-.76-.52-3.33,1.92-3.61,2.56-.51,1.15.23,2.53-.65,3.42,0-.14,0-.29,0-.43.14-3.78-.32-12,4.71-12.4Z"/><path class="cls-14" d="M201.33,195.56c1.97-.06,2.4-2.39,3.42-2.99.21-.12,1.07.02,1.58-.32,2.14-1.42,2.93-2.99,3.98-5.24-.29,3.18.38,5.11-2.33,7.72-2.22,2.14-4.12,2.15-6.65.84Z"/><path class="cls-8" d="M204.75,192.56c-1.03.6-1.46,2.93-3.42,2.99-.56-.29-.88-.17-1.52-.82-.76-.78-.72-1.32-1.05-2.17-.07-.17-.27-.32-.43-.43-.28-.36-.28-.52-.43-.86l.35-.28c-.17-1.35.43-2.82.51-3.99,1.46,2.57,2.54,5.4,5.99,5.56Z"/><path class="cls-23" d="M166.67,185.29c.76,1.36,1.86,5.62-1.02,4.67-1.69-.56-.23-5.6,1.02-4.67Z"/><path class="cls-23" d="M173.95,142.51l1.28,2.99-2.56-1.71c.08-.06,1.07-1.07,1.28-1.28Z"/><path class="cls-14" d="M198.76,192.56c-.15-.13-.3-.27-.43-.43.16.11.36.25.43.43Z"/><path class="cls-20" d="M263.35,93.75c-3.59,2.86-10.27,6.42-14.54,8.13-2.6,1.04-6.24,1.87-9,2.77-.69.23-1.37.31-1.7,1.08-1.47-.21-3.25.55-4.71.86-2.72.58-5.39,1.17-8.13,1.71-.61.12-1.21.41-1.28.43-.26.05-.59-.05-.86,0-.7.13-1.54.32-2.14.43-.27.05-.59-.05-.86,0l.43-1.71h.43l1.28-.43c13.24-3.16,27.68-6.57,38.93-14.54,1.3-.92,5.43-3.43,4.97-5.14-.37-1.38-4.54-5.55-5.82-6.63-4.18-3.53-10.25-6.35-15.4-8.34-1.23-.47-2.59-.88-3.85-1.28-2.08-.67-4.12-1.88-6.42-1.71-.38-1.19-1.52-.66-2.14-.86-2.65-.85-4.92-1.53-7.7-2.14-4.84-1.07-9.63-1.87-14.54-2.57-7.36-1.05-14.38-1.74-21.82-2.14-7.8-.42-14.46-.35-22.24,0-3.43.15-6.84.15-10.27.43-6.69.55-13.49,1.42-20.1,2.57-13.04,2.26-29.74,6.43-40.86,13.68-3.61,2.35-6.76,4.93-8.7,8.86,1.42,2.6,4.03,4.09,6.36,5.69,11.12,7.66,24.96,11.18,38.07,13.69,9.53,1.83,17.72,2.68,27.38,3.42,2.01.15,5.22.86,7.06.86h8.98c1.05,0,2.9.44,4.49.43.28,0,.57,0,.86,0,.43-.01.86,0,1.28,0,.29,0,.4-.43.43-.43.57-.01,1.14.02,1.71,0,3.3-.09,6.58-.29,9.84-.43,2.7-.11,6.01-.54,8.56-.43.54.02,1.24-.09,1.71,0,.18.04,2.78,1.22,2.14,1.71l-19.25,1.71c-.11-.03-.28,0-.43,0s-.29,0-.43,0l-23.95-.43-14.12-1.28-20.96-3.42c-.57-.13-1.14-.3-1.71-.43-.38-.08-.91.08-1.28,0-16.63-3.82-60.07-20.13-34.85-41.91,12.43-10.74,36.21-16.02,52.25-18.33,32.86-4.74,75.61-3.53,106.64,9.14,15.95,6.51,36.73,20.69,16.27,36.99ZM129.89,51.83c-10.07,2.07-20.39,4.54-29.67,9.04-7,3.4-18.68,10.61-17.38,19.62.23,1.61.71,3.73,2.13,4.7,7.58-11.69,24.59-17.23,37.65-20.53,3.25-.82,7.92-2.01,11.12-2.57,21.24-3.72,54.59-4.81,75.71-.86,4.34.81,10.1,1.1,14.97,2.14,6.31,1.34,13.41,3.71,19.47,5.98,8.84,3.32,18.28,8.19,23.52,16.26.69.33,1.37-1.86,1.51-2.33.36-1.12.31-1.72.4-2.8.83-9.42-10.2-15.67-17.54-19.25-6.32-3.08-27.9-11.01-34.22-10.27-.36-.37-.79-.44-1.28-.43-.28,0-.6-.04-.86,0-1.76-.62-3.98-.98-5.84-1.22-26.42-3.41-53.63-2.86-79.72,2.51Z"/><path class="cls-12" d="M124.33,107.87c-.3.93-1.13,2.7-2.14,2.57.1-.92.75-1.65.86-2.57.37.08.91-.08,1.28,0Z"/><path class="cls-24" d="M253.08,134.39l.43.86c.01.27.04.6,0,.86-.05.35-.62,1.32-.86,1.71-1.89-2.89-.75-6.25-1.82-9.08-.65-1.72-2.3-.91-2.79.41-.84,2.31-.86,6.99-.95,9.53-.04.99.02,2,0,2.99l-.43,37.64c-.08.77-.31,1.42-.43,2.14-.26.28-.64.54-.86.86l-.43-20.1c0-.43,0-.86,0-1.28.04-5.41-.09-10.85,0-16.25.07-4.16-.42-13.19,1.71-16.68.17-.27,1.93-1.64,2.37-1.72,4.7-.8,3.94,5.27,4.04,8.13Z"/><path class="cls-28" d="M252.66,137.81c2.87,4.38,8.42.57,8.56-3.42h.43c-.43,2.88-.24,5.32-2.34,7.71-2.55,2.9-6.07,2.05-8.01-1-.49-.77-2.25-6.76-3.34-4.73l-.85,2.29c.1-2.54.11-7.22.95-9.53.48-1.32,2.13-2.13,2.79-.41,1.07,2.83-.06,6.2,1.82,9.08Z"/><path class="cls-24" d="M263.35,112.14c0,.41.06.92,0,1.28-.11.65-.32.62-.43.86-.75,1.56-1.12,2.45-1.28,4.5-.37,4.91.26,10.23,0,15.18-.02.14.02.29,0,.43h-.43c0-.05-.45-.37-.41-.99.09-1.4.76-2.99.41-4.57h-.85c.02-.42-.02-.85,0-1.28.15-3.82-.68-11.23,1.18-14.43.49-.85.79-1.09,1.81-.97Z"/><path class="cls-14" d="M246.67,179.3l.43-37.64c-.28,12.43.78,25.38-.43,37.64Z"/><path class="cls-7" d="M283.46,284.1c4.19,5.23-7.61,6.45-10.27,6.84.33-2.77,7.15-3.38,6.36-6.12-.37-1.28-5.83-3.28-7.29-3.86-1.15-.45-3.24-.06-3.34-2,4.21.04,11.8,1.71,14.54,5.13Z"/><path class="cls-28" d="M230.84,302.49l.43-1.71c1.09.02,4.46-2,4.92-3.01.7-1.53-.78-2.31-.64-3.83,1.2-1.14,6.1,3.73,3.21,6.42-2.25,2.09-5.44,1.66-7.92,2.13Z"/><path class="cls-14" d="M95.67,154.06c-.1-.08-.73.09-1.08-.42-.33-.47-.1-1.06-.2-1.29.75.32,1.2.88,1.28,1.71Z"/><path class="cls-4" d="M169.24,118.13c1.01,2.45,4.34,2.37,5.76,4.29,1.26,1.7,1.32,5.16,1.53,7.24,3.57-.14,6.35,3.91,6.79,7.12.13.96.24,4.69.05,5.44-.04.15-1.71,1.33-1.72,2.44-.15-3.28-.18-8.98-3.46-10.87-5.15-2.97-5.84,5.6-10.11,6.49-4.73.98-6.91-2.06-8.38-5.97-.35-.92-.12-1.95-.29-2.48,2.05-6.42-2.95-7.46-6.63-10.27-1.86-1.42-2.8-3.94-4.92-4.7v-.43c6.97.81,14.39,1.51,21.39,1.71ZM169.67,136.53c-3.46-.12-5.71-2.1-8.12-4.28.07,3.97,5.03,8.62,8.12,4.28Z"/><path class="cls-12" d="M129.04,113.85c1.4.28,3.33.2,4.71.43,4.38.72,8.86,1.62,13.26,2.14.28.03.58-.03.86,0v.43c.41,2.19,4.64,4.72,4.74,6.62.26,4.65-2.24,3.14-3.91,4.27-.51.35-1.2,5.13-1.22,6.05-.03,1.3.46,2.79.38,4.44l-1.71-.21c.3,2.98-.39,5.84-.64,8.77-.07.78-.77,1.47.65,1.28-.13.28.14,1.16-.39,1.53-2.32.93-3.09-1.82-3.35-3.56-1.06-7.28,1.86-18.68-2.17-24.78-1.83-2.77-5.11-4.67-7.37-1.22-.87,1.32-.19,3.81-2.55,2.59-1.5-.77-.53-3.78-1.04-5.37-.39-1.22-2.26-2.11-1.95-3.83.56.16,1.14.32,1.71.43Z"/><path class="cls-5" d="M156.41,129.68l1.67-.38c-.04.95,1.17,2.03,1.33,2.52.17.53-.05,1.56.29,2.48,1.47,3.91,3.65,6.95,8.38,5.97,4.27-.89,4.96-9.46,10.11-6.49,3.28,1.89,3.31,7.59,3.46,10.87.02.43-.01.86,0,1.28s-.01.86,0,1.28c.09,3.68-1.29,16.19,2.87,17.45s4.85-5.3,4.4-8.04c.2-1.56.11-4.35,0-5.99.67-3.78-.18-10.83,1.28-14.12.53-1.2,3.16-3.54,4.71-3.42,1.36.11,1.25.98,1.71,1.28.06.39-.09.95,0,1.28-3.34-1.5-4.11.74-4.71,3.42-.43,1.93-.28,2.85-.43,4.71-.16,1.99-.37,3.99-.43,5.99-.04,1.42.03,2.86,0,4.28-.05,2.22.31,3.48,0,5.99-.02.14.02.29,0,.43-.05.27.06.61,0,.86-1.37,5.86-7.6,8.26-10.5,2.16-2.44-5.15-.43-17.08-1.05-23.33-.28-2.83-1.66-6.45-4.92-4.08-1.81,1.32-1.79,4.12-4.89,5.8-7.82,4.25-12.62-5.85-13.28-12.21Z"/><path class="cls-12" d="M147,111.72h-1.28s0,.86,0,.86h-.43c-3.65-.87-8.23-.71-11.98-1.28-.71-.11-1.42-.31-2.14-.43-.06,0-.23-.39-.43-.43-1.26-.22-2.2-.29-3.42-.43-.16-.02-.53-.42-1.28-.43v-1.28l20.96,3.42Z"/><path class="cls-16" d="M147.86,138.24c-.09,1.83-.2,4.22-.43,5.99-.16,1.25-.54,2.23-.86,3.42-.03.01-.41.4-.43.43-1.42.19-.72-.51-.65-1.28.26-2.93.95-5.79.64-8.77l1.71.21Z"/><path class="cls-4" d="M126.04,109.58c.76,0,1.12.41,1.28.43-.68,2.45,1.44,2.34,1.71,3.85-.57-.11-1.15-.27-1.71-.43-1.15-.32-2.22-1.02-3.39-1.32-.05-1.59.44-2.55,2.11-2.53Z"/><path class="cls-12" d="M147.43,144.22h.85c.17.23-.2,2.74-.41,3.14-.31.6-1.01.16-1.3.28.31-1.19.69-2.17.86-3.42Z"/><path class="cls-18" d="M149.14,293.94c3.92.03,7.85,0,11.78-.02l10.03.87c-2.34,1.52-5.19,2.26-7.7,3.42-2.37-.02-4.47,1.01-6.84.86-4.22-.27-9.17-2.75-13.27-4.08-.69-.22-1.52.11-1.28-1.05,2.42-.01,4.85-.02,7.27,0Z"/><path class="cls-29" d="M141.87,293.94c-.25,1.16.59.83,1.28,1.05,4.1,1.33,9.04,3.81,13.27,4.08-.31.51-1.19,1.11-1.71,1.28-.76.26-2.63.53-3.42.43-2.4-.32-8.67-1.64-10.71-2.76-1.64-.89-2.74-2.1-2.55-4.08,1.28-.02,2.57,0,3.85,0Z"/><path class="cls-8" d="M163.26,298.22c.08,0,.68.49,1.46.47,4.41-.12,10.2-1.12,14.55-.44.77.12,1.45.44,1.95,1.05.12.54-.3.78-.73.97-1.28.56-6.8,1.29-8.44,1.39-4.25.28-9.81-.14-14.13-.46-.94-.07-2.44-.3-3.22-.85.52-.17,1.4-.77,1.71-1.28,2.37.15,4.48-.87,6.84-.86Z"/><path class="cls-8" d="M197.48,297.79l-.86.43v-.85c.39-.15.79.43.86.43Z"/><path class="cls-7" d="M250.09,102.73c.82-.35,1.94-.36,2.86-.77,3.76-1.69,10.1-7.04,13.99-4.4.54.37.15.97.26,1.32-7.22,3.56-14.56,7.32-22.24,9.84-1.22.4-2.72.95-3.85,1.28-4.17,1.23-13.51,3.74-17.54,3.85-.38.01-.97.07-1.28,0-.73-.17-2.27-1.21-2.14-2.14,4.75-1.37,10.02-3.05,14.97-4.28,1.49-.37,3.05-.43,4.71-.86,4.25-1.08,6.37-2.18,10.27-3.85Z"/><path class="cls-16" d="M267.2,98.88c.2.67.42.68.43,1.71-2.4,2.68-1.75,6.99-2.57,10.27h-1.71l-.05-.79-.59-.06c-3.11,2.26-3.08,5.9-3.21,9.41-.94-.82-.04-2.42-.64-3.42-.32-.54-1.55-.82-2.03-1.28-1.06-1-2.08-2.66-3.59-3.38-2.36-1.12-6.04-.55-8.28-2.62,7.68-2.52,15.02-6.28,22.24-9.84Z"/><path class="cls-16" d="M248.81,101.88l1.28.86c-3.9,1.67-6.02,2.77-10.27,3.85-.53-.15-1.25-.79-1.71-.86.33-.77,1.01-.85,1.7-1.08,2.76-.9,6.39-1.73,9-2.77Z"/><path class="cls-7" d="M267.2,109.58c-.02.28.01.57,0,.86l-.64,1.73h-1.49s0-1.3,0-1.3c.81-3.28.17-7.59,2.57-10.27.03,2.89-.82,5.98-.43,8.98Z"/><path class="cls-12" d="M263.35,113.43c.06-.36,0-.88,0-1.28,0-.43,0-.86,0-1.28h1.71v1.28s1.5.01,1.5.01l.64-1.73c0,.1.62.63.36,1.81-.55,2.52-2.39,2.26-4.21,1.18Z"/><path class="cls-12" d="M64.87,272.12h.85s-.43-1.71-.43-1.71c.71.05,1.43-.06,2.14,0,.09,0,.47.43,1.03.44,2.27.06,5.22.24,7.09-1.3.26.11.77-.03,1.25.23,2.48,1.29-.73,2.31-2.09,2.58-3.27.65-6.68.8-9.86-.24Z"/><path class="cls-16" d="M75.57,269.56c-1.87,1.54-4.82,1.36-7.09,1.3-.56-.01-.95-.44-1.03-.44.8-.98,2.22-1.04,3.37-1.34l.05-.79c1.66.14,3.18.67,4.71,1.28Z"/><path class="cls-7" d="M70.86,268.27l-.05.79c-1.15.3-2.57.37-3.37,1.34-.7-.06-1.43.05-2.14,0-.57-.04-1.15.04-1.71,0v-.85c2.44-1.52,4.44-1.53,7.27-1.28Z"/><path class="cls-16" d="M63.59,269.56v.85c.56.04,1.14-.04,1.71,0l.43,1.71h-.85c-1.04-.34-1.87-.48-2.56-1.5-.21-.98.93-.85,1.28-1.06Z"/><path class="cls-27" d="M205.18,116.85c.59,2.15-2.15,1.23-2.8,2.12-.33.46-.71,3.24-.42,3.85.88,1.89,1.95-.02,2.91-.51,1.48-.76,3.44-.76,3.3-2.9h.63c2.55,2.17,4.8,2.71,5.67,6.31,1.15,4.77-.06,8.8-.3,13.51-2.77,1.65-5.02,3.76-5.9,7.02-2.94,10.86-2.33,20.87-1.8,31.96.16,3.34-.33,6.83.84,10.07-2.34,4.6-6.27.78-6.73-2.89-.96-13.78.91-28.57-.12-42.23-.14-1.9-1.02-7.08-2.35-8.36-.6-.57-1.33-.31-1.49-.42-.46-.31-.35-1.18-1.71-1.28-.34-2.43,1.09-2.26,3-2.14-.4-1.06.95-4.63-.86-4.71-.27-2.17-2.77-4.4-4.28-5.99-.36-.87-.36-1.69,0-2.57,2.45-.03,4.8-.59,7.27-.43.16.01.69.65,1.44.46l.27-.89c1.12-.03,2.34.1,3.42,0Z"/><path class="cls-8" d="M208.6,116.42c-.07,3.31,4.17,4.02,5.57,5.76,2.68,3.33,2.05,14.31,1.7,18.62-.06.76-.88,2.07-.86,2.99-1.87-.22-2.87-.2-4.03,1.31-.75.97-2.06,4.78-2.2,5.96-.09.78.24,1.03.24,1.28-.71.44-.43,1.62-.44,2.35-.1,9.22.71,19.67.02,28.68-.14,1.81-.49,3.32-1.3,4.9-1.17-3.24-.68-6.73-.84-10.07-.53-11.09-1.14-21.1,1.8-31.96.88-3.25,3.14-5.36,5.9-7.02.24-4.72,1.45-8.74.3-13.51-.87-3.6-3.12-4.14-5.67-6.31h-.63c.13,2.14-1.82,2.14-3.3,2.9-.96.49-2.03,2.4-2.91.51-.28-.61.1-3.39.42-3.85.64-.9,3.39.03,2.8-2.12.97-.09,2.35-.29,3.42-.43Z"/><path class="cls-20" d="M215.01,143.8c0,.19.34.59.43.86-5.03.41-4.56,8.63-4.71,12.4l-.85,2.14c-.14-1.16.18-2.55.03-3.66-.09-.66-.8-.77-.89-3.18,0-.25-.34-.5-.24-1.28.14-1.18,1.45-5,2.2-5.96,1.16-1.51,2.17-1.53,4.03-1.31Z"/><path class="cls-28" d="M192.34,142.94c-.14.21.36,1.14-.86.86.15-1.86,0-2.77.43-4.71.16,1.21-.46,2.97.43,3.85Z"/><path class="cls-24" d="M236.83,154.49v11.12l-1.28,16.25c-.31-.91-.34-1.19-.43-2.14-.01-.14,0-.29,0-.43-.02-.28.01-.57,0-.86-.08-1.84.03-3.72,0-5.56-.01-.85,0-1.71,0-2.57-.01-1.28,0-2.57,0-3.85,0-.71,0-1.43,0-2.14,0-.14,0-.29,0-.43,0-.86,0-1.71,0-2.57,0-.43,0-.86,0-1.28,0-1.71.04-3.43,0-5.13-.01-.56.21-1.41-.43-1.71-.01-.14.02-.29,0-.43-1.21-7.45-4.27-2.17-5.56,1.71-.43.53-1.27.59-1.71.86,1.47-1.39,1.27-3.15,1.71-4.71.33-1.15.59-2.14,1.82-2.67,4.7-2.02,5.27,3.32,5.88,6.52Z"/><path class="cls-25" d="M245.39,182.29c-3.2,4.8-7.79,5.67-9.84-.43l1.28-16.25c0,3.23-1.04,17.51,2.57,18.39,1.82.45,3.33-.45,4.21-1.99,2.21-3.85,1.3-14.95,1.35-19.83l.43,20.1Z"/><path class="cls-15" d="M235.12,178.45c-.73-1.37-.71-4.28,0-5.56.03,1.84-.08,3.72,0,5.56Z"/><path class="cls-15" d="M235.12,170.32c-.72-.8-.72-3.05,0-3.85,0,1.28-.01,2.57,0,3.85Z"/><path class="cls-15" d="M235.12,154.92c-.67-.3-.38-1.16-.43-1.71.64.3.41,1.15.43,1.71Z"/><path class="cls-15" d="M235.12,161.33c-.64-.06-.64-1.22,0-1.28,0,.43,0,.86,0,1.28Z"/><path class="cls-15" d="M235.12,164.33l-.42-.21.42-.21c0,.14,0,.29,0,.43Z"/><path class="cls-15" d="M235.12,179.73l-.42-.21.42-.21c0,.14-.01.29,0,.43Z"/><path class="cls-28" d="M191.06,154.06c.03-1.42-.04-2.86,0-4.28.73.95.71,3.41,0,4.28Z"/><path class="cls-28" d="M191.06,160.48c.02-.14-.02-.29,0-.43l.42.21-.42.21Z"/><path class="cls-25" d="M227.42,155.35c-.21.13-.33.64-1.02.89-2.44.9-3.84.53-5.83-.89l.42-.21-1.69-1.74.07-.54.77-.07c.12.12,2.66,1.57,2.87,1.62,3.2.74,4.46-1.24,5.68-3.76h.43c-.44,1.56-.24,3.32-1.71,4.71Z"/><path class="cls-24" d="M220.15,152.78l-.77.07-.07.54,1.69,1.74-.42.21c-1.12-.8-2.29-2.09-2.57-3.42-.13-.62.34-1.77-.43-2.14,0-.14,0-.29,0-.43,0-1.28,0-2.57,0-3.85,1.66,2.15,2.01,6.71,2.57,7.27Z"/><path class="cls-26" d="M218.01,151.92h-.43c.02-.14-.01-.29,0-.43v-.43c.01-.43,0-.86,0-1.28.77.36.3,1.52.43,2.14Z"/><path class="cls-26" d="M217.58,145.51c0,1.28,0,2.57,0,3.85-.62-1.51-1.64-3.21-2.14-4.71-.09-.27-.42-.66-.43-.86,1.71.2,1.6.47,2.57,1.71Z"/><path class="cls-28" d="M217.58,151.5s0-.26,0-.43v.43Z"/><path class="cls-12" d="M155.98,62.1c1.97,5.08-4.82,4.07-6.42,7.48-.01.66,5.61-.15,6.42-.21.07,1.05-.66,1.09-1.27,1.51-5.02,3.41-11.67,6.09-14.98,11.33-1.51.14-5.01,1.4-4.71,3.42-.6.07-6.46,3.42-7.29,4.04-1.38,1.04-4.03,5.3-4.18,6.97-.24,2.6,6.88,6.65,7.19,9.94-13.11-2.51-26.95-6.03-38.07-13.69,2.88-6.31,10.86-10.9,17.12-13.47s12.18-3.33,17.83-6.98c2.79-1.8,6.53-4.95,8.26-7.78,6.61-1.14,13.42-2.02,20.1-2.57ZM125.08,77.18c-1.79.24-9.57,2.87-8.88,5.22.36.63.85.61,1.48.68,1.9.22,11.13-2.43,12.79-3.51,4.42-2.87-3.51-2.65-5.39-2.39Z"/><path class="cls-27" d="M224.85,66.37c1.62,5.73-5.43,9.13-9.84,10.9-7.46,3-20.97,6.33-26.09,12.83-3.55,4.51-2.4,10.84,2.17,14.09,1.71,1.22,7.08,2.29,7.27,3.88.31,2.66-4.3.65-5.59,2.35-3.26.14-6.54.33-9.84.43-3.86-4.76-16.18-7.22-16.22-14.38-.02-3.66,6.78-11.49,9.66-13.78,7.5-5.95,16.48-8.12,24.95-12.05,2.43-1.13,6.22-3.16,7.92-5.13.45-.52.83-1.06,1.06-1.72,4.91.7,9.7,1.5,14.54,2.57Z"/><path class="cls-18" d="M179.08,68.51l.21.42.21-.42c.43,0,.86-.01,1.28,0,6.09.16,13.02.54,19.03,1.3.8.1,1.74-.54,1.5.84-8.47,3.93-17.45,6.1-24.95,12.05-2.88,2.28-9.68,10.11-9.66,13.78.03,7.16,12.35,9.62,16.22,14.38-.57.02-1.14-.01-1.71,0l-.43.43c-.43,0-.86-.01-1.28,0l-.64-.43-.22.43c-1.59.01-3.44-.43-4.49-.43h-8.98c-1.84,0-5.05-.7-7.06-.86-.79-4.42-6.14-4.57-9.13-6.49-3.55-2.28-5.05-5.51-3.23-9.51.85-1.87,3.65-4.72,5.09-6.25,1.06-1.12.91-1.1,1.71-2.14,4.44-5.74,17.5-12.35,24.11-15.91.6-.32,1.35-.17,1.13-1.21.43,0,.86,0,1.28,0Z"/><path class="cls-4" d="M177.8,68.51c.23,1.04-.53.88-1.13,1.21-6.61,3.55-19.68,10.16-24.11,15.91-2.28-.96-5.94-1.34-8.23-.31-5.11,2.3,5.75,1.91,6.52,2.45-1.44,1.53-4.23,4.37-5.09,6.25-1.82,4-.32,7.23,3.23,9.51,2.99,1.92,8.34,2.07,9.13,6.49-9.65-.74-17.84-1.6-27.38-3.42-.31-3.3-7.43-7.34-7.19-9.94.15-1.67,2.79-5.93,4.18-6.97.83-.63,6.69-3.97,7.29-4.04,1.81-.21,3.9.22,5.74-.04,5.77-.8,4.17-3.87-1.03-3.38,3.31-5.24,9.96-7.92,14.98-11.33.62-.42,1.34-.45,1.27-1.51.85-.06,1.72.05,2.57,0,6.44-.36,12.78-.9,19.25-.86Z"/><path class="cls-14" d="M209.45,51.83c1.22,3.35.72,6.03,0,9.41-21.13-3.96-54.47-2.87-75.71.86,1.27-1.87-.49-3.98-.4-5.74.05-1.03.96-2.1.83-3.24,24.82-4.38,50.34-4.55,75.29-1.28Z"/><path class="cls-2" d="M261.21,92.47c-11.24,7.98-25.68,11.39-38.93,14.54l-1.28.43h-.43c-2.29.14-4.58.53-6.84.86-.17-1.59-2.14-2.22-2.67-3.53-1.86-4.56,3.52-10,7.38-11.65,8.13-3.47,18.06-5.11,24.88-11.06.6-.52,1.06-.36.78-1.57,6.62,2.92,12.54,6.18,17.11,11.98Z"/><path class="cls-30" d="M234.69,69.37c-.33.02-.65-.02-.97.09-.6.21-3.65,4.92-3.69,5.32-.15,1.67,3.99.71,2.87,2.64-.16.27-4.56,3.22-5.18,3.58-2.46,1.42-5.25,2.99-7.69,4.28-2.73,1.44-9.28.74-7.04,5.59.56,1.22,1.72,1.38,1.1,3.43-.17.55-2.41,2.67-3.09,3.76s-1.22,3.05-1.77,3.79c-1.06,1.43-7.83,1.14-9.51,3.12-.2.29-.14.82-.09,1.18,1.53.6,3.37,1.82,3.85,3.42-.2.02-.39.22-.43.43-.47-.09-1.17.02-1.71,0-.06-1.47-1.52-2.53-1.71-3.85-.28-.11-.82,0-1.28-.2-4.86-2.21-12.78-6.2-10.16-12.74,3.41-8.5,21.82-12.53,29.7-16.07,4.12-1.85,4-2.57,8.87-3.54,3.53-.7,3.81-2.52,5.81-5.1.62.2,1.76-.33,2.14.86Z"/><path class="cls-13" d="M254.37,64.23c-.05.27.01.57,0,.85,6.41,3,12.76,8.45,14.97,15.41-.1,1.08-.05,1.68-.4,2.8-.15.47-.82,2.65-1.51,2.33-5.25-8.07-14.68-12.94-23.52-16.26-6.06-2.27-13.17-4.64-19.47-5.98,1.93-2.13,2.94-5.25,2.99-8.13,9.38,2.33,18.26,4.54,26.95,8.98Z"/><path class="cls-21" d="M234.69,69.37c2.29-.17,4.34,1.04,6.42,1.71l-1.74,7.43c.15.71,3.59,1.24,4.31,1.56.14.06.27.36.43.43.28,1.2-.18,1.05-.78,1.57-6.82,5.95-16.75,7.59-24.88,11.06-3.86,1.65-9.24,7.09-7.38,11.65.53,1.31,2.5,1.94,2.67,3.53-3.43.49-6.81.96-10.27,1.28-.48-1.61-2.32-2.82-3.85-3.42-.05-.36-.1-.89.09-1.18,1.68-1.98,8.45-1.7,9.51-3.12.55-.74,1.07-2.66,1.77-3.79s2.92-3.21,3.09-3.76c.62-2.05-.53-2.21-1.1-3.43-2.23-4.85,4.32-4.15,7.04-5.59,2.45-1.29,5.23-2.86,7.69-4.28.62-.36,5.02-3.3,5.18-3.58,1.12-1.93-3.02-.97-2.87-2.64.04-.41,3.09-5.11,3.69-5.32.33-.11.64-.07.97-.09Z"/><path class="cls-9" d="M135.88,64.66c-1.73,2.84-5.47,5.98-8.26,7.78-5.65,3.65-11.82,4.52-17.83,6.98s-14.23,7.16-17.12,13.47c-2.33-1.6-4.94-3.09-6.36-5.69,1.94-3.93,5.09-6.5,8.7-8.86,11.12-7.25,27.82-11.42,40.86-13.68Z"/><path class="cls-13" d="M120.48,56.11c.73,2.92,1.11,5.7,2.14,8.56-13.06,3.3-30.07,8.84-37.65,20.53-1.42-.98-1.9-3.09-2.13-4.7,1.29-1.3,1.57-3.32,2.49-4.99,5.89-10.73,24.02-16.36,35.15-19.39Z"/><path class="cls-10" d="M215.44,50.55c-.75.12-2.54.7-2.99,1.28-.92-.14-2.06.12-2.99,0-24.95-3.27-50.46-3.09-75.29,1.28-1.27.22-2.79.13-4.28.43v-1.71c26.09-5.36,53.29-5.91,79.72-2.51,1.86.24,4.07.6,5.84,1.22Z"/><path class="cls-19" d="M244.96,72.36c5.15,1.98,11.22,4.8,15.4,8.34,1.28,1.08,5.45,5.25,5.82,6.63.46,1.71-3.67,4.22-4.97,5.14-4.57-5.79-10.49-9.06-17.11-11.98-.15-.07-.29-.37-.43-.43,1.43-2.28.62-5.16,1.28-7.7Z"/><path class="cls-3" d="M210.31,63.81c-.23.66-.61,1.19-1.06,1.72-1.7,1.97-5.5,4-7.92,5.13.24-1.38-.7-.73-1.5-.84-6.01-.77-12.95-1.14-19.03-1.3,2.06-2.59,6.9-3.19,7.7-6.84,7.43.4,14.45,1.09,21.82,2.14Z"/><path class="cls-15" d="M212.45,51.83c5.21.77,9.95,2.18,14.97,3.42-.06,2.88-1.06,6-2.99,8.13-4.88-1.03-10.63-1.33-14.97-2.14.72-3.38,1.22-6.06,0-9.41.94.12,2.07-.14,2.99,0Z"/><path class="cls-5" d="M188.49,61.67c-.8,3.65-5.64,4.26-7.7,6.84-.43-.01-.86,0-1.28,0-.14,0-.29,0-.43,0-.43,0-.86,0-1.28,0-6.47-.04-12.81.5-19.25.86.64-2.5,6.96-4,7.92-5.56.44-.72.18-1.49-.22-2.14,7.79-.35,14.44-.42,22.24,0Z"/><path class="cls-8" d="M232.55,68.51c-2,2.58-2.28,4.4-5.81,5.1-4.87.97-4.75,1.69-8.87,3.54-7.88,3.54-26.29,7.57-29.7,16.07-2.62,6.53,5.3,10.53,10.16,12.74.46.21,1,.09,1.28.2.19,1.32,1.65,2.38,1.71,3.85-2.55-.11-5.85.31-8.56.43,1.28-1.7,5.9.32,5.59-2.35-.19-1.59-5.56-2.66-7.27-3.88-4.57-3.25-5.72-9.59-2.17-14.09,5.12-6.5,18.63-9.84,26.09-12.83,4.41-1.77,11.46-5.17,9.84-10.9,2.78.61,5.05,1.28,7.7,2.14Z"/><path class="cls-29" d="M145.72,112.57c5.07.88,10.26,1.37,15.4,1.28v-.85s23.95.43,23.95.43c-2.19.1-5.07,1.12-7.05,1.29-2.28.19-4.76-.15-7.06,0l.27,1.31,4.01,2.11c-1.99,0-4,.06-5.99,0-7-.2-14.42-.91-21.39-1.71-.28-.03-.58.03-.86,0v-.57c-1.18-.67-1.66-1.96-1.71-3.28h.43Z"/><path class="cls-15" d="M134.17,53.11c.13,1.14-.78,2.21-.83,3.24-.09,1.76,1.68,3.87.4,5.74-3.2.56-7.87,1.74-11.12,2.57-1.03-2.86-1.4-5.63-2.14-8.56,3.08-.84,6.29-1.93,9.41-2.57,1.49-.3,3.01-.2,4.28-.43Z"/><path class="cls-28" d="M129.89,51.83v1.71c-3.12.63-6.33,1.73-9.41,2.57-11.13,3.03-29.26,8.66-35.15,19.39-.92,1.68-1.21,3.69-2.49,4.99-1.3-9,10.38-16.22,17.38-19.62,9.28-4.5,19.6-6.97,29.67-9.04Z"/><path class="cls-10" d="M220.15,111.72c-.13.93,1.41,1.97,2.14,2.14v.43c-2.1-.51-10.84,1.77-13.69,2.14-1.07.14-2.45.33-3.42.43-1.08.1-2.31-.03-3.42,0-.56.01-1.41-.21-1.71.43-2.47-.16-4.82.4-7.27.43-.85,0-1.71,0-2.57,0-.14-.15-.29-.28-.43-.43-1.43-1.55-3.46-2.07-4.28-3.85.14,0,.32-.03.43,0,6.39,1.88,16.61-.12,23.53-.86,2.64-.28,4.58-.43,7.27-.86.98-.16,2.61.23,3.42,0Z"/><path class="cls-28" d="M216.3,50.55v.85c1.05.33,1.21-.42,1.28-.42,6.32-.74,27.9,7.19,34.22,10.27-.17,1.38,2.42,1.23,2.93,2.23.24.47-.34.64-.36.76-8.69-4.45-17.57-6.66-26.95-8.98-5.02-1.25-9.76-2.66-14.97-3.42.46-.59,2.25-1.16,2.99-1.28.26-.04.58,0,.86,0Z"/><path class="cls-11" d="M166.25,61.67c.4.65.66,1.42.22,2.14-.96,1.57-7.29,3.06-7.92,5.56-.85.05-1.72-.06-2.57,0s-6.43.87-6.42.21c1.61-3.42,8.39-2.4,6.42-7.48,3.43-.28,6.84-.28,10.27-.43Z"/><path class="cls-17" d="M189.78,117.28c-1.07.14-2.68-.43-3.42.43-3.41-.24-7.48.42-11.12.43l-4.01-2.11-.27-1.31c2.3-.15,4.79.19,7.06,0,1.99-.17,4.86-1.18,7.05-1.29.14,0,.29,0,.43,0,.82,1.78,2.85,2.3,4.28,3.85Z"/><path class="cls-14" d="M269.34,80.49c-2.21-6.96-8.56-12.41-14.97-15.41,0-.27-.05-.58,0-.85.02-.12.6-.29.36-.76-.51-1-3.1-.85-2.93-2.23,7.33,3.57,18.37,9.83,17.54,19.25Z"/><path class="cls-24" d="M220.58,107.44l-.43,1.71c-1.39.25-3.39,1.06-4.71,1.28-1.97.33-4.01.58-5.99.86-1.34.18-2.89-.23-4.28.43.64-.49-1.96-1.68-2.14-1.71.04-.21.23-.41.43-.43,3.46-.32,6.84-.8,10.27-1.28,2.27-.32,4.55-.72,6.84-.86Z"/><path class="cls-2" d="M244.96,72.36c-.66,2.54.14,5.42-1.28,7.7-.73-.31-4.16-.85-4.31-1.56l1.74-7.43c1.26.41,2.62.81,3.85,1.28Z"/><path class="cls-8" d="M209.45,111.29v1.28c-6.92.73-17.13,2.74-23.53.86l19.25-1.71c1.39-.66,2.94-.24,4.28-.43Z"/><path class="cls-2" d="M233.41,106.58l1.71.86c-4.96,1.23-10.22,2.91-14.97,4.28-.81.23-2.44-.16-3.42,0l-1.28-1.28c1.31-.22,3.32-1.03,4.71-1.28.27-.05.59.05.86,0,.69-.02,1.77.27,2.14-.43.26-.05.59.05.86,0l1.28-.43c2.74-.54,5.41-1.14,8.13-1.71Z"/><path class="cls-4" d="M147,111.72l14.12,1.28v.85c-5.14.08-10.33-.4-15.4-1.28v-.85s1.28,0,1.28,0Z"/><path class="cls-6" d="M238.11,105.73c.46.07,1.18.71,1.71.86-1.66.42-3.22.49-4.71.86l-1.71-.86c1.45-.31,3.23-1.07,4.71-.86Z"/><path class="cls-10" d="M217.58,50.97c-.08,0-.23.76-1.28.42v-.85c.49-.01.92.05,1.28.43Z"/><path class="cls-24" d="M223.14,108.72c-.37.69-1.45.4-2.14.43.6-.11,1.43-.29,2.14-.43Z"/><path class="cls-24" d="M222.29,107.01l-1.28.43,1.28-.43Z"/><path class="cls-24" d="M225.28,108.29l-1.28.43c.07-.01.67-.31,1.28-.43Z"/><path class="cls-27" d="M179.51,111.29c-.28,0-.57,0-.86,0l.22-.43.64.43Z"/><path class="cls-27" d="M180.79,111.29l.43-.43s-.14.42-.43.43Z"/><path class="cls-2" d="M241.11,110c-.53,3.38,3.34,4.48,4.17,6.31,1.44,3.2.83,8.13,1.39,11.65-2.13,3.49-1.64,12.52-1.71,16.68-.81,2.52-.4,5.67-.43,8.36,0,.63-.43,1.27-.43,1.47-1.5-.05-1.18-.26-1.28,1.05-.53,6.69.39,14.01,0,20.76l1.68-3.23c.06-4.05,0-8.12.03-12.17h.43c0,.43,0,.86,0,1.28-.05,4.87.86,15.97-1.35,19.83-.88,1.54-2.39,2.43-4.21,1.99,1.1-2.6-.65-3.39-.88-5.75-.62-6.45.72-13.43.45-19.91h-1.72c.32-1.48-.19-2.64-.42-3.85-.61-3.21-1.18-8.54-5.88-6.52-1.23.53-1.49,1.52-1.82,2.67h-.43c-1.62-1.68,1.17-5.17,2.57-5.77,1.04-.44,2.29.14,2.99-.87-1.16-1.41-.41-2.01-.41-3.39,0-4.71.64-11.9-.02-16.06-.11-.69-.28-2.03-.43-2.57-.52-1.82-2.18-2.8-3.42-3.85-2.56-2.18-1.89-1.53-5.13-2.57.27-1.02-.93-.9-1.28-1.71,4.02-.11,13.37-2.62,17.54-3.85Z"/><path class="cls-6" d="M244.96,108.72c2.24,2.08,5.92,1.5,8.28,2.62,1.51.72,2.53,2.38,3.59,3.38.48.45,1.71.74,2.03,1.28.6,1-.3,2.6.64,3.42-.06,1.56.04,3.14,0,4.71-.06-.53-.85-1.6-.43-2.56h-.85c.13.71-.86,2-.86,2.35v8.77c2.6-.44,2.14-3.49,2.14-5.56l.86.43c-.02.43.02.86,0,1.28-.17,3.1-.44,6.56-3.03,8.74-1.69,1.42-2.79-.2-3.82-1.47.04-.25.01-.59,0-.86-.03-.75-.43-.81-.43-.86-.11-2.86.66-8.93-4.04-8.13-.45.08-2.21,1.44-2.37,1.72-.56-3.52.05-8.45-1.39-11.65-.83-1.83-4.7-2.94-4.17-6.31,1.13-.33,2.63-.88,3.85-1.28Z"/><path class="cls-25" d="M260.36,128.83h.85c.35,1.58-.32,3.17-.41,4.57-.04.62.41.94.41.99-.14,3.99-5.69,7.8-8.56,3.42.24-.39.8-1.36.86-1.71,1.03,1.27,2.13,2.89,3.82,1.47,2.59-2.18,2.86-5.65,3.03-8.74Z"/><path class="cls-25" d="M244.96,160.91h-.43c0-2.27-.43-4.27-.43-6.42,0-.21.42-.85.43-1.47.03-2.69-.39-5.85.43-8.36-.09,5.41.04,10.84,0,16.25Z"/><path class="cls-25" d="M253.51,135.24l-.43-.86s.39.1.43.86Z"/><path class="cls-9" d="M259.5,119.41c.13-3.5.11-7.15,3.21-9.41l.59.06.05.79c0,.43,0,.86,0,1.28-1.02-.12-1.32.12-1.81.97-1.86,3.19-1.04,10.6-1.18,14.43l-.86-.43c0-.95.11-2.09,0-2.99.04-1.56-.06-3.14,0-4.71Z"/><path class="cls-18" d="M186.35,117.7c.87.06,2.54.84,3.85.43.85.86,2.23,1.79,2.57,2.14,1.51,1.58,4.01,3.81,4.28,5.99.15,1.2-.1,2.61,0,3.85-3.23-.29-5.37-.03-7.2,2.85-.7,1.1-1.9,3.35.36,3.56-1.46,3.29-.62,10.34-1.28,14.12,0-.06-.4-.49-.45-1.04-.12-1.33.12-2.76.02-4.1h-1.28c.46,1.28-.43,3.26-.43,4.07v9.84c0,.22-.69.89-.43,1.5,1.08,1.13,2.5-3.8,2.56-4.28.45,2.74-.16,9.33-4.4,8.04s-2.78-13.77-2.87-17.45c.51-.43.52-.86,0-1.28-.01-.43.02-.86,0-1.28,0-1.11,1.68-2.29,1.72-2.44.2-.75.08-4.48-.05-5.44-.44-3.21-3.21-7.26-6.79-7.12-.21-2.09-.27-5.55-1.53-7.24-1.42-1.92-4.75-1.83-5.76-4.29,1.99.06,4,0,5.99,0,3.64,0,7.71-.67,11.12-.43Z"/><path class="cls-29" d="M169.67,136.53c-3.09,4.34-8.05-.32-8.12-4.28,2.42,2.18,4.66,4.16,8.12,4.28Z"/><path class="cls-16" d="M145.29,112.57c.05,1.33.53,2.61,1.7,3.28v.57c-4.39-.52-8.87-1.42-13.25-2.14l-.43-2.99c3.75.58,8.32.42,11.98,1.28Z"/><path class="cls-22" d="M130.75,110.43l.43.43c.72.12,1.43.32,2.14.43l.43,2.99c-1.38-.23-3.3-.15-4.71-.43-.27-1.51-2.4-1.4-1.71-3.85,1.22.14,2.17.21,3.42.43Z"/><path class="cls-3" d="M197.05,126.26c1.8.08.46,3.64.86,4.71-1.91-.13-3.34-.29-3,2.14-1.55-.12-4.17,2.22-4.71,3.42-2.26-.21-1.05-2.47-.36-3.56,1.83-2.88,3.97-3.14,7.2-2.85-.11-1.24.15-2.65,0-3.85Z"/><path class="cls-29" d="M188.92,156.63c-.06.48-1.49,5.41-2.56,4.28-.26-.61.43-1.27.43-1.5v-9.84c0-.81.89-2.79.43-4.07h1.28c.1,1.34-.13,2.77-.02,4.1.05.55.44.98.45,1.04.11,1.64.2,4.43,0,5.99Z"/><path class="cls-4" d="M181.65,147.22c-.01-.43.01-.86,0-1.28.52.43.51.86,0,1.28Z"/><path class="cls-4" d="M131.17,110.86l-.43-.43c.2.03.37.42.43.43Z"/><path class="cls-21" d="M223.57,113.85c.35.81,1.55.69,1.28,1.71-1.22-.39-2.16-1.18-2.57-1.28v-.43c.31.07.9.01,1.28,0Z"/><path class="cls-8" d="M192.77,117.7c-.36.87-.36,1.69,0,2.57-.33-.35-1.71-1.28-2.57-2.14-.07-.07.07-.35,0-.43.85,0,1.71,0,2.57,0Z"/><path class="cls-8" d="M201.75,116.85l-.27.89c-.75.2-1.29-.45-1.44-.46.3-.64,1.15-.41,1.71-.43Z"/><path class="cls-30" d="M222.29,114.28c.4.1,1.34.89,2.57,1.28,3.24,1.03,2.57.39,5.13,2.57.18,1.9-3.04.81-3.67,1.68-.83,4.68,4.89,0,7.09,2.17.15.53.32,1.87.43,2.57-.89.82-.04,2.23-.81,3.25-.62.82-2.61.65-2.97,1.74l-.53,14.01c.22,1.76-2.08,3.43-2.35,4.51-.32,1.26,1.04,4.12-2.53,3.92-4.23-.24-2.84-11.33-8.77-11.17.35-4.31.98-15.28-1.7-18.62-1.4-1.75-5.64-2.45-5.57-5.76,2.84-.36,11.59-2.65,13.69-2.14Z"/><path class="cls-21" d="M228.7,150.64c-1.23,2.52-2.49,4.5-5.68,3.76-.21-.05-2.75-1.51-2.87-1.62-.56-.56-.9-5.12-2.57-7.27-.96-1.24-.86-1.51-2.57-1.71-.02-.92.79-2.24.86-2.99,5.93-.17,4.54,10.93,8.77,11.17,3.56.2,2.21-2.66,2.53-3.92.28-1.08,2.57-2.74,2.35-4.51l.53-14.01c.35-1.09,2.35-.92,2.97-1.74.78-1.02-.08-2.42.81-3.25.66,4.16.01,11.35.02,16.06,0,1.38-.75,1.98.41,3.39-.7,1.01-1.95.43-2.99.87-1.41.6-4.19,4.09-2.57,5.77Z"/><path class="cls-19" d="M236.83,154.49c.23,1.2.74,2.37.42,3.85h1.72c.27,6.48-1.07,13.46-.45,19.91.23,2.36,1.98,3.16.88,5.75-3.61-.88-2.57-15.16-2.57-18.39v-11.12Z"/><path class="cls-7" d="M125.08,77.18c1.88-.26,9.81-.48,5.39,2.39-1.66,1.08-10.89,3.73-12.79,3.51-.62-.07-1.12-.05-1.48-.68-.7-2.35,7.08-4.98,8.88-5.22Z"/><path class="cls-29" d="M139.73,82.2c5.2-.49,6.8,2.59,1.03,3.38-1.84.25-3.93-.18-5.74.04-.3-2.02,3.19-3.28,4.71-3.42Z"/><path class="cls-29" d="M152.56,85.62c-.8,1.04-.65,1.02-1.71,2.14-.77-.55-11.62-.16-6.52-2.45,2.28-1.03,5.95-.65,8.23.31Z"/><path class="cls-4" d="M179.08,68.51c.14,0,.29,0,.43,0l-.21.42-.21-.42Z"/><path class="cls-30" d="M215.44,110.43l1.28,1.28c-2.69.43-4.63.58-7.27.86v-1.28c1.98-.27,4.02-.52,5.99-.86Z"/><path class="cls-29" d="M189.78,117.28c.13.15.29.28.43.43.07.08-.07.36,0,.43-1.31.42-2.98-.37-3.85-.43.74-.86,2.35-.29,3.42-.43Z"/><path class="cls-6" d="M244.1,154.49c0,2.15.44,4.15.43,6.42-.02,4.05.04,8.11-.03,12.17l-1.68,3.23c.38-6.75-.53-14.08,0-20.76.1-1.31-.21-1.1,1.28-1.05Z"/><path class="cls-21" d="M233.41,121.98c-2.2-2.18-7.92,2.51-7.09-2.17.62-.87,3.85.22,3.67-1.68,1.24,1.05,2.9,2.03,3.42,3.85Z"/><path class="cls-7" d="M259.5,127.11c0,2.08.46,5.12-2.14,5.56v-8.77c0-.35.99-1.64.86-2.35h.85c-.42.97.37,2.04.43,2.57.11.9,0,2.04,0,2.99Z"/><rect class="cls-1" width="358.65" height="358.65"/></g></svg>