<?xml version="1.0" encoding="UTF-8"?><svg id="Lager_2" xmlns="http://www.w3.org/2000/svg" viewBox="0 0 617.49 644.18"><defs><style>.cls-1{fill:none;}.cls-2{fill:#443928;}.cls-3{fill:#67646c;}.cls-4{fill:#78757e;}.cls-5{fill:#e5ca7e;}.cls-6{fill:#66542a;}.cls-7{fill:#393a32;}.cls-8{fill:#94929b;}.cls-9{fill:#c39652;}.cls-10{fill:#393534;}.cls-11{fill:#fff;}.cls-12{fill:#85a15c;}.cls-13{fill:#474549;}.cls-14{fill:#9a8254;}.cls-15{fill:#cfaf67;}.cls-16{fill:#f2f2f2;}.cls-17{fill:#76bd79;}.cls-18{fill:#616066;}.cls-19{fill:#cdcd92;}.cls-20{fill:#e3b86a;}.cls-21{fill:#56535a;}</style></defs><g id="ww1"><path class="cls-11" d="M430.61,245.07c0,16.68-18.98,36.26-44.98,36.26s-46.4-18.95-46.4-35.63,20.4-35.63,46.4-35.63,44.98,18.32,44.98,35Z"/><path class="cls-16" d="M388.28,214.36c18.4,2.58,49.78,14.58,33.26,50.44-8.93,11.31-55.72,33.64-82.7-12.04-.9-11.47,5.49-26.42,8.72-28.5,9.15-5.87,22.32-12.49,40.72-9.9Z"/><path class="cls-11" d="M316.5,247.51c0,16.49-20.22,35.86-47.93,35.86s-49.44-18.74-49.44-35.23,21.74-35.23,49.44-35.23,47.93,18.11,47.93,34.61Z"/><path class="cls-16" d="M272.81,217.21c18.66,2.58,48.89,11.49,33.73,51.44-4.86,5.54-57.26,35.8-84.62-9.88-.91-11.47-.38-26.06,9.59-30.65s22.64-13.49,41.3-10.9Z"/><path d="M279.42,205.25c17.01,1.57,36.69,15,40.1,32.49.88,4.51-1.33,3.6-1.94,6.25-1.32,5.77.6,8.48-2.53,15.48-8.18,18.3-31.97,26.2-50.76,25.37s-43.45-12.35-46.15-33.71c-2.21,1.28-10.45,1.45-10.48-2.03-.02-2.28,4.3-1.21,6-1.58,4.05-.89,5.35-8.38,6.89-11.7,16.33-35.19,85.24-33.96,96.61,5.43,2.07-3.5-1.82-10.9-3.88-14.12-10.21-15.95-26.3-19.21-43.67-20.79-.64-.06-3.21-.26-3.27-1.09,4.23.28,8.9-.39,13.07,0ZM264.49,213.55c-54.5,3.24-58.61,61.93-3.58,67.7,19.38,2.03,49.03-6.44,53.02-28.72,4.83-26.99-27.48-40.29-49.44-38.98Z"/><path d="M392.96,204.09c0,1.01-2.54.64-3.22.6-1.81-.1-3.42-.66-5.17-.63-18.5.33-43.35,12.39-46.73,32.3-.32,1.88.67,4.18-.92,5.46-2.63-2.09-1.96-3.58-1.13-6.35,5.1-17,20.91-29.56,38.37-31.9,6.54-.88,12.29-.01,18.8.52Z"/><path d="M307.59,277.27c-10.64,12.73-25.65,16.74-41.81,13.93-.14-1.01,1.32-.55,2.02-.57,10.6-.43,19.13-1.22,28.78-6.07l11.01-7.28Z"/><path d="M391.8,287.72c-.22,1.06-1.14,1.07-2.01,1.18-13.43,1.6-27.27.2-37.43-9.66-.62-.6-1.48-.83-1.21-1.98,11.46,8.9,26.28,12.44,40.65,10.46Z"/><path d="M431.91,237.76c-2.85-11.04-12.63-17.9-12.63-17.9,0,0-7.67-7.86-24.9-10.56-17.23-2.7-32.07,4.21-32.07,4.21,0,0-30.52,14.15-23.47,39.26,7.02,25,32.61,30.61,52.96,28.91,20.35-1.69,32.46-15.71,34.85-18.12s8.11-14.75,5.26-25.79ZM423.86,262.32c-2.23,2.25-13.53,15.32-32.5,16.9s-42.84-3.65-49.39-26.96c-6.58-23.41,21.89-36.61,21.89-36.61,0,0,13.84-6.45,29.91-3.93,16.07,2.52,23.22,9.85,23.22,9.85,0,0,9.12,6.4,11.78,16.7,2.66,10.29-2.67,21.8-4.9,24.05Z"/><ellipse class="cls-17" cx="264.87" cy="246.7" rx="31.75" ry="30.59"/><ellipse cx="264.87" cy="246.7" rx="25.75" ry="24.8"/><circle class="cls-11" cx="278.11" cy="228.74" r="12.15"/><ellipse class="cls-17" cx="385.55" cy="243.64" rx="31.75" ry="29.52"/><ellipse cx="385.55" cy="243.64" rx="25.4" ry="23.61"/><ellipse class="cls-11" cx="398.8" cy="226.3" rx="12.15" ry="11.73"/><rect class="cls-1" width="617.49" height="644.18"/><path d="M201.54,218.67s-5.07,10.7-5.85,13.45-8.88,7.39-10.69,7.56c-2.17-.55-11.82-4.63-4.6-13.92,5.14-5.52,5.43-5.97,6.04-7.09s11.54-7.89,11.54-7.89l3.56,7.89Z"/><path class="cls-1" d="M415.5,212.83c1.27.35,1.98-.27,2.93-.59.32-.11.91.12,1.17,0,.23-.1.39-.43.58-.58,1.05-.82.75-.63,1.17-1.75.67-1.79,1.22-3.21-.58-4.68-.52-.43-.47-.42-1.17-.58l-8.75-8.49c-1.89-2.14-6.75-8.86-7.38-11.39-.37-1.5,1.77-6.09,2.03-8.55.73-6.97-.75-12.39-4.02-18.34-2.77-5.06-6.19-6.22-7.86-8.8-1.36-2.11-3.27-9.46-4.9-12.64-9.89-19.33-29.84-30.85-50.25-36.27-4.61-1.22-11.73-1.39-14.74-4.26-4.31-4.1-6.28-5.36-12.86-4.67l-1.19-13.64c4.37-1.64,6.65-6.88,2.36-10.03-.87-.64-2.17-.69-2.87-1.22-5.64-4.34-11.49-12.1-14.97-18.36-2.08-3.74-6.57-17.33-8.82-18.65-2.46-1.43-4.8.09-5.37,2.68-.86,3.94-.67,9.34-1.47,13.73-1.11,6.04-3.33,12.97-6.14,18.42-1.25,2.42-7.55,10.45-7.71,11.63-.49,3.47,3.85,6.25,6.99,6.12l1.78,13.41c-3.08.07-5.42,1.36-7.88,2.93l-3.81,5.84c-25.85,6.97-48.88,23.34-59.33,48.53-.95,2.28-2.02,7.84-2.97,9.31s-3.86,2.67-6.11,6.46c-4.96,8.35-6.24,23.3-.58,31.57-.65,8.11-4.47,16-8.77,22.8-.52.82-2.01.75-2.34,2.92-2.48-.2-2.66,1.34-3.51,2.92-.19.35-.48.83-.58,1.17-.67,2.26-1,2.21,0,4.68.91,2.23,1.4,1.36,1.75,1.75.27.3.02.85,1.17,1.75,1.05.83,1.05.8,2.34,1.17.72.63,1.71.45.9,1.77"/><path class="cls-7" d="M419.6,212.24l.58-.58c-.19.15-.35.48-.58.58Z"/><path class="cls-12" d="M306.19,218.67c-.18-.2-.4-.39-.58-.58l.58.58Z"/><path d="M323.72,95.91c3.01,2.87,10.13,3.03,14.74,4.26,20.42,5.42,40.37,16.94,50.25,36.27,1.63,3.18,3.54,10.53,4.9,12.64,1.67,2.58,5.09,3.74,7.86,8.8l-2.34.58c-.74-1.4-1.29-3.11-1.85-4.6-.3-.23-1.19-.12-1.65-.08-.35.03-.74-.15-1.08.09-.27.27-.01.82-.09,1.08-.77,2.54,1.62,4.44.01,6.75-.34.28-.89.14-1.18.26.01.78,0,1.56,0,2.34-1.56.3-4.05,1.35-5.85,1.75-40.02,8.93-93.9,12.76-135.04,11.69-.52-.01-2.12-.53-3.51-.58-10.07-.37-24.33-.05-33.91-2.34-.46-.11-.98-.82-1.75-.58,1.33,2.86,1.22,5.1,1.17,8.18h-1.75c.04-2.12-.18-3.79-.58-5.85-.09-.46-.42-1.15-.58-1.75-1.58-5.92-4.21-12.72-11.69-9.94-1.52.57-3.17,2.18-4.09,3.51h-2.34c2.25-3.79,5.14-4.95,6.11-6.46s2.02-7.03,2.97-9.31c10.45-25.19,33.48-41.56,59.33-48.53l1.17,1.75c-4.28,1.15-13.09,4.86-17.35,6.91-2.94,1.42-11.77,6.25-13.84,8.25-.43.41-.51.59-.38,1.21-.37.06-.86-.09-1.17,0-.77.23-10.49,8.92-11.71,10.22-5.16,5.52-14.88,20.29-15.65,27.66-.37,3.51,1.45,1.87,2.8,2.47.32.14,3.76,3.11,4.09,3.51,3.02,3.66.32,5.02,6.29,6.28,14.68,3.1,33.01,2.49,48.08,2.49,19.35,0,38.53-1.35,57.88-2.92.94-.08,1.77.1,2.92,0,.38-.03.78.03,1.17,0,.96-.08,1.82-.54,2.34-.58,15.16-1.38,30.81-2.6,46.18-5.26,2.72-.47,5.48-1.18,8.18-1.75s5.47-.97,8.18-1.75c.74-.21,1.67-.31,2.34-.58-.15-8.94-5.76-21.84-10.52-29.23-11.89-18.44-39.08-31.6-60.8-32.74l1.75-4.09Z"/><path d="M261.76,104.09l3.81-5.84c2.46-1.58,4.8-2.86,7.88-2.93l-1.78-13.41c-3.13.14-7.47-2.64-6.99-6.12.17-1.19,6.46-9.21,7.71-11.63,2.81-5.45,5.03-12.37,6.14-18.42.81-4.39.61-9.78,1.47-13.73.57-2.59,2.91-4.11,5.37-2.68,2.25,1.32,6.75,14.91,8.82,18.65,3.47,6.25,9.33,14.02,14.97,18.36.69.53,2,.59,2.87,1.22,4.3,3.15,2.02,8.39-2.36,10.03l1.19,13.64c6.59-.68,8.55.57,12.86,4.67l-1.75,4.09c-2.22-.12-5.06.52-7.6.58-15.3.38-36.89,1.36-51.45,5.26l-1.17-1.75ZM282.8,32.18c-.91,1.52-.85,9.11-1.25,11.91-1.56,10.96-6.3,24.16-14.51,31.7-.11.96.68,1.38,1.14,1.99.94,1.23.75,1.55,2.6,1.78,5.04.64,10.02-.74,14.93-1.2,3.39-.31,6.09-.75,9.35-1.17,3.46-.44,18.15.36,16.27-6.01-.42-1.44-4.13-3.29-5.47-4.5-7.47-6.72-12.43-14.67-16.56-23.77-1.32-2.91-2.69-8.84-4.26-10.94-1.13-1.51-1.38-1.25-2.26.21ZM291.57,79.54c-5.52.63-11.04,1.27-16.57,1.84l-.92.88,1.71,13.07,12.27-1.17c.39-.02.79.04,1.17,0,.26-.02.51-.32.58-.58l19.29-1.17-1.75-14.62c-5.29.23-10.54,1.16-15.79,1.76ZM272.28,97.66c-2.54.51-6.91,3.12-7.6,5.84,10.89-2.59,22.43-2.62,33.32-4.67l23.97-1.17c.33-1.53-.32-.91-.84-1.22-7.73-4.64-21.33-2.09-30.43-1.11-5.67.61-12.94,1.24-18.42,2.34Z"/><path d="M295.66,74.86c-.19.02-.39-.02-.58,0-.57.06-1.18-.06-1.75,0-2.56.27-5.06.91-7.6,1.17-5.83.6-11.71,1.12-17.54,1.75-.17-1.12.45-1.58,1.46-1.75,5.54-.96,12.13-1.02,17.83-1.76,7.62-.98,15.3-1.86,22.79-3.51.22,1.29-.53,1.4-1.49,1.72-3.91,1.34-9.39.35-13.12,2.37Z"/><path d="M195.69,168.4c-2.17,3.13-3.91,9.89-4.11,13.71-.18,3.4.49,13.97,3.56,15.78,6.38,3.77,8.97-8.01,9.32-12.25.44-5.43.19-17.73-7.58-16.94l2.13-1.34c3.22.94,4.99,3.25,6.04,6.3.13.38.45,2.22.58,2.92.12.62.54,1.38.58,1.75.24,2.18.29,7.24,0,9.35-.23,1.69-2.78,8.48-3.83,9.9-1.28,1.72-3.38,2.83-5.52,2.96l4.43,2.33c6.41.66,9.9-9.65,10.76-14.61.25-1.47.55-4.35.58-5.85h1.75c-.04,2.2-.28,3.74-.58,5.85-.04.28-.73.53-.5,1.9.1.6,1.19,1.99,1.67,2.78.43.15.85.22,1.17.58v1.17c-.66-.84-.67-.92-1.17-1.75-.57-.2-1.2-.22-1.74-.58l-2.28,6.02c4.32,3.13,11.01,18.95,14.69,20.43,1.68.67,3.63.52,5.4.43,8.94-.44,18.24-3.08,27.19-4.08,12.15-1.37,24.64-2.49,36.83-3.51.26,3-4.68,1.23-5.26,1.75v1.75c-.5-.23-1.75-.52-2.34-.58l-.29-.57-.29.57c-5.27-.11-11.63,1.25-16.95,1.75-7.1.67-14.09,1.39-21.05,2.34-3.39.46-12.1.69-14.62,2.34-1.35.07-2.74-.1-4.09,0-2.62.2-2.53.96-5.65-.49-4.63-2.15-3.99-7.17-10.43-7.71-5-.42-9.15,2.55-12.57,5.85l-1.75-1.75c4.94-4.48,8.35-7.41,15.78-6.44.05-.86-2.11-1.03-2.7-1.09-6.25-.6-10.47,1.91-14.86,6.04-1.48,1.39-5.44,7.29-7.28,7.33-.49.01-.76-.56-.88-.58h.87c.44-.15.61-.9.88-1.17,1.75-1.71,6.55-7.36,7.02-9.35,2.44.34,4-2.06,5.71-2.76,3.16-1.3,7.96-.9,11.24-.16l-4.69-8.17c-1.9-.53-1.8.95-2.53,1.53-2.32,1.86-5.45,3.49-8.56,3.14-.31-.04-3.84-1.56-4.09-1.75-.2-.15-1.63-2.98-1.91-3.37-.19-.26-.97-.07-1.01-.14-5.66-8.27-4.37-23.22.58-31.57h2.34ZM217.32,210.5h-1.16v.57h1.16v-.57Z"/><path d="M395.63,153.78c.46-.04,1.35-.15,1.65.08.57,1.49,1.12,3.19,1.85,4.6l-.59.86c.86,3.15,2.59,7.05,2.93,10.24s-.25,6.74,0,9.94l1.59-6.9c.28-.86-.4-1.76-.42-2.45-.05-1.27.2-2.96,0-4.09-.08-.46-.58-.54-.58-.58-.79-3.69-1.29-3.9-2.92-7.02l2.34-.58c3.27,5.96,4.75,11.37,4.02,18.34-.26,2.45-2.4,7.05-2.03,8.55.62,2.52,5.49,9.25,7.38,11.39l8.75,8.49c-1.36-.33-3.71-.31-5.26-.58-.19-.03-.39.03-.58,0,.23-1.11-.93-1.43-1.75-2.34-5.55-6.09-10.6-13.2-13.55-20.95-.41-.27-1.63-.14-2.23-.1.08-.75-.12-1.62,0-2.34.08-.47.6-1.09.58-1.75-.05-2.25-1.11-8.97-1.75-11.11-.09-.3.08-.8,0-1.17-.56.05-1.24-.1-1.75,0,0-.78.01-1.56,0-2.34.29-.12.84.02,1.18-.26,1.6-2.32-.78-4.22-.01-6.75,2.62,6.01,3.27,12.43,4.26,18.83.11.69.14,2.84.99,2.8.65-8.03-1.51-15.35-4.09-22.8Z"/><path d="M192.77,199.97c.04.06.83-.13,1.01.14.28.39,1.71,3.22,1.91,3.37-2,6.38-3.79,13.13-7.6,18.71-.74,1.09-2.11,1.36-2.34,2.92-.27.12-.91-.12-1.17,0l-.58-2.34c4.3-6.8,8.12-14.68,8.77-22.8Z"/><path class="cls-14" d="M189.85,222.18c.12.02.39.59.88.58,1.83-.04,5.8-5.94,7.28-7.33,4.4-4.13,8.62-6.64,14.86-6.04.59.06,2.75.23,2.7,1.09-7.43-.97-10.84,1.95-15.78,6.44-1.42,1.29-2.23,2.03-3.51,3.51-.82.95-1.9,1.18-2.34,2.92-.05.18.04.4,0,.58-1.71,2.64-4.48,2.12-7.15,3.08-7.27,2.63-8.14,7.58-.45,10.36-.15.23-.51.43-.58.58-1.35-.03-3.71-.94-4.68-1.75-.17-.15-.46-.42-.58-.58-1.62-2.21-1.5-4.74,0-7.02.05-.07.92-.92,1.17-1.17.37-.38,2.6-2.18,2.92-2.34.26-.12.89.12,1.17,0,1.12-.5,2.29-.83,3.43-1.27l.08-1.65c.19.02.4-.03.58,0Z"/><path class="cls-13" d="M190.43,228.03c.84-.05,3.35-.5,2.92.87-.08.27-2.1,4.37-2.31,4.7-.69,1.09-2.74,2.94-4.11,2.61-.22-.05-4-1.81-4.15-1.98-3.25-3.89,4.9-6.04,7.66-6.2Z"/><path class="cls-21" d="M240.12,123.97c3.07.6,9.71,7.08,11.68,9.66,8.82,11.54,11.11,27.11,12.29,41.2-15.07,0-33.4.61-48.08-2.49-5.97-1.26-3.26-2.62-6.29-6.28,4.53-15.01,11.76-27.69,23.66-38.01.69-.6,4.68-3.96,4.98-4.08.2-.08,1.44-.06,1.75,0Z"/><path d="M307.94,108.77c2.24-.81.94-1.16,2.03-2.36,1.94-2.13,4.88,2.03,6.45,2.34,2.4.48,4.48-.81,6.74-.32.18.13,1.61,3.35,1.64,3.66.08.88-1.43,1.51-1.69,3.36-.56,3.97.72,8.25,4.17,10.51.77.5,6.66,3.35,7.25,3.3,4.97-.44-2.69-5.51-2.91-5.88-3.32-5.49,5.7-5.76,8.2-7.59,2.15-4.17-7.41-4.76-6.16-8.77,1.36.02,2.74-.04,4.1,0,6.99.21,22.65,3.82,26.9,9.64.98,1.34.97,2.93,1.17,3.22-.37,1.39-2.68,2.09-2.92,2.34,3.97-5.66-4.42-8.59-8.48-10.51,2.51,4.64-3.71,6.54-7.3,7-1.44.19-3.17-.1-4.68,0-2.47.16-7.73-.8-9.09,1.75-1.48,2.78,7.97,6.42,3.79,9.61-2.14,1.64-5.44.31-7.56-.84-.25,3.11.06,5.76.58,8.77.19,1.13.27,1.33.58,2.34,1.38,4.48,2.95,6.78,8.18,6.43.5-.44-2.49-4.14-2.92-4.67l.58-.58c2.4,3.45,6.08,6.85,10.52,5.26.28-1.99-1.6-1.42-2.34-1.75-.4-.56-.71-1.24-1.17-1.75l.58-.58c1.92,1.33,8.71,4.72,9.93,1.45l-7.59-4.96.58-.58c3.17,1.35,9.74,5.61,12.83,3.18.58-.46.78-.6.62-1.42-3.38-1.14-6.53-3.02-9.94-4.1l.58-.58c4.65,1.91,11.78,5.09,15.78.87.42-1.69-6.36-1.87-8.19-2.33-2.18-.55-5.82-2.5-7.59-2.64v-.58c1.98.83,10.34,1.96,12.51,1.71,2.63-.31,4.73-1.26,5.03-4.05.1-.95-.07-1.97,0-2.92-2.37.75-3.91,1.3-6.43,1.75-2.02-.11-4.11.18-6.13,0-2.63-.24-7.38-2.73-7.9,1.18-.19-.03-.39.03-.58,0-1.02-.15-3.62-.7-4.09-1.75,9.86-.15,3.74-4.69-2.34-3.52,1.23-2.28,4.1-.35,6.17-1.72,1.66-1.1-.52-1.53-.32-2.95l3.5,2.63-2.05.86.28,1.49,16.97-3.82c1.85,3.61-4.43,6.7-6.91,6.49l-8.88-.64,15.48-1.05c1.17,0,.08-3.25.66-4.8,1.12,2.47,2.85,4.25,3.61,5.66.52.97.8,2.58.7,3.69,0,.09-.54,1.67-.58,1.75-.46.92-1.81,2.33-2.92,2.35,1.37,1.61,1.69,3.32.59,5.25-.04.07-1.09,1.13-1.17,1.17-.64.3-2.2.11-3.12.68-1.18.72-.94,2.2-2.14,3.13s-4.03,1.26-5.68,1.92c-2.85,1.15-5.77,2.92-9.31,3.46-1.19.18-3.22-.94-4.89.18.63,1.61,4.35,10.45,6.76,7.03.62-.88-1.37-3.91,2.17-5.44,3.01-1.3,5.64,2.18,5.65,5.06l-2.28.98.03,1.66c3.04.69,5.52,2.62,4.51,6.07-.77,2.62-3.15,1.8-4.73,2.17-.68.16-.43,1.57-1.88,1.8-.36.06-2.73-.91-3.14-1.01-2.27-.55-1.87.17-3.23-1.63l-1.54-.32-1.15-1.75.95-1.76.8-1.17c.97.17,1.96.17,2.85.65l-.51,4.6h1.96s.67-1.16.67-1.16l2.05,1.75c.86-2.68-1.56-2.08-1.75-4.09.49-.45,6.03,2.95,7.34.59.51-3.28-6.17-2.66-6.74-4.41-.74-2.26,1.59-1.42,1.67-1.54.56-.82-.35-1.7,2.39-2.53l-1.16-2.63-.87,1.17c-.1-2.68-2.62.16-2.62.34,0,.78.75,1.2.29,2.53-1.37,3.99-5.48,1.77-7.51-.51-1.01-1.13.53-2.38-3.31-1.79l1.75-1.46c.28-1.08-1.36-1.54-1.75-2.04-2.39-3.04-1.41-1.55-4.72-3.18-1.12-.55-4.05-3.88-3.44-.66.21,1.13.9,2.01,1.14,3.25.04.18-.01.39,0,.58,0,.03,0,.47,0,.58,0,.58-.54,1.34-.54,2l.87.92,2-.58-.58,1.75c-.38-.03-.78,0-1.17,0-.97.01-1.95-.02-2.92,0-.69,2.03,1.34,3.53,1.76,4.67.11.31-.12.89,0,1.17-.16-.12-.59.31-1.38-.7-1.87-2.4-1.47-6.7-3.3-8.07-.1-.08-.38.06-.58,0-.97-.26-.84,0-1.17,0-.97-.03-1.95.03-2.92,0l1.17-1.16c.2-.02.42.05.58,0,.23-.07.41-.49.58-.58.73-.4,5.03-3.5,5.16-3.9.31-3.23.26-6.55-1.07-9.55.04-.38-.04-.79,0-1.17s-.01-.78,0-1.17c.02-.58,0-1.17,0-1.75-.04-2.75-1.5-2.87,1.17-4.67-.62.1-3.28.42-3.51.58l-1.15-3.26c-.36-.31-1.18.24-1.78.34l-2.1-8.83c-.49-1.45-2.24-2.32-1.44-3.99-2.86-.78-5.92-.66-7.3-3.59-1.16.77-1.91.91-3.19,1.2-.37.09-.54.58-.58.58-.67.15-1.65-.14-2.34,0-1.39.28-2.82-.24-3.51,1.75l1.75.58-2.33,1.17c1.45.27,2.75-.38,4.09-.58,1.25,2,4.77,2.51,5.25,4.99.62,3.22-1.7,9.56-5.83,8.46-.51,1.55.96,1.08,1.42,1.76,1.06,1.58,1.34,3.78,3.25,4.67-.39.51-1.44,1.05-1.75,1.75l-3.25-6.42c-2.47,1.36-7.85,3.26-9.65.31-1.95-3.2,1.32-4.48,1.69-6.6.76-4.45-8.28-3.78-11.01-3.67-.58.02-1.18-.04-1.75,0-1.08.08-1.92.38-2.92.58-4.37-2.49-15.96-.16-12.86-8.18-.58-.57-12.07,5.65-9.5,11.54,1.79,4.1,12.11,3.74,15.93,3.66l2.92,1.17c-1.35.06-3.08,1.01-4.68.58-2.12.02-4.37.74-7.02.58-.15,0-2.08-.46-2.92-.58-.72-.11-1.67.14-2.34,0-.34-.07-1.64-1.79-2.92-1.17-.35,2.43,1.46,4.71,3.5,5.84,2.55,1.42,6.19,1.39,9.08,1.19,1.77-.12,8.81-1.24,10.21-1.77.22.11.46.56.58.58-5.59,2.24-11.58,3.35-17.54,4.1-.23,1.51,1.36,1.79,2.34,2.34,6.58,3.63,13.68-.6,19.88-3.5-1.63,2.56-5.25,4.12-8.18,4.68,2.12,6.51,6.93-.13,9.94-1.76.45-.24.86-.55,1.41-.53l.35.53c-2.4,1.32-5.1,5.01-8.17,6.14.45.66,1.14,1,1.74,1.46.2.15.23.84.97,1.06,4.76,1.42,9.44-3.69,11.88-7.2-.7-1.45-2.91-.57-3.5-.88-.09-.05.41-1.15-1.17-1.17v-1.17c.87-.2,3.93-1.83,3.51-2.92.24.17.91.15,1.17.58-.13.1-.7,2.05-2.07,2.32-1.43,2.45,4.39,1.91,5.57,1.19v.58c-2.42.35-5.66,7.59-8.17,9.06,4.93,3.83,11.46-2.47,11.1-7.89-.01-.2.04-.41,0-.58.34-.08.97.11,1.17,0,0,.39,0,.78,0,1.17-.02,2.28-.33,4.26-1.74,6.14l1.43.87c1.16.03,1.53-.91,2.06-1.17,1.51-.72,2.99-1.48,4.66-1.79-.12-2.17-1-4.23-1.15-6.4-.07-.96.04-1.96,0-2.92l1.16,1.17c.03,1.65,1.14,6.9,2.05,8.18.55.77,7.65,5.6,8.47,5.85,0,.39,0,.78,0,1.17-.36.07-.88-.1-1.17,0-.19-.2-.38-.4-.58-.58-.8-.73-5.72-4.79-6.43-4.09.29,1.88,1.43,5.62,3.78,5.28.17-.02.59-2.05,2.65-1.2v1.17c-3.07,2.15-1.11,2.94-1.12,6.14,0,2.12-.85,7.94-3.56,7.32.33,1.77,2.27,1.4,2.92,1.75.21.11.38.5.58.58.59.25,2.72,1.4,2.92,1.17.51-4.62.91-9.37.59-14.03h.58c.91,4.57.97,9.68-.05,14.26l2.97,2.11c-1.15.1-1.99-.08-2.92,0-.27-.49-.81-.42-1.17-.58s-.7-.39-1.17-.58c-1.81-.75-3.79-1.38-5.46-2.44-1.1-.7-6.34-4.67-4.72-5.79,5.68.36,9.77-5.04,4.64-8.75l-2.05,3.82c-.96,1.47-4.41,3.71-4.97,4.97-.9,2.04-.59,7.57-3.82,9.05-2.8,1.28-3.73-1.11-5.06-1.35-.81-.14-1.98-.57-4.14-.84-7.04-.88-4.2-6.35-7.15-10.68-1.89-2.77-7.81-5.73-10.26-8.45-.41-.46-3.28-4.34-3.47-4.73-.37-.73-.21-2.17-.33-2.28-.19-.2-3.99-.17-5.5-.64-3.34-1.03-7.42-4.33-3.25-6.98-4.01.03-8.1-4.02-8.04-8.02.01-.86.92-1.42,1-2.24.27-2.72-.33-4.54.9-7.29.97-2.16,4.65-5.33,6.73-6.43,5.07-2.69,17.82-5.49,23.38-4.68,4.91.72-1.17,4.03-2.02,5.29-4.08,6.04,9.07,4.17,11.71,7.53,3.14,3.99-3.09,7.16,0,9.35,3.26,2.31,5.78-1.82,7.88-3.15.67-.42,1.89-.03,2.36-.67.15-.21,1.52-4.33,1.57-4.76.47-4.27-5.14-3.79-7.33-4.68-3.09-1.26-.58-5.81.55-6.45.66-.37,3.29-.04,5.15-.71ZM288.06,108.19c-3.08-.35-19.34,1.74-18.65,6.06.43,2.71,13.83,4.52,16.31,3.28-.14-.98-1.32-.68-1.92-1.88-1.84-3.65,2.55-5.16,4.26-7.46ZM340.68,116.95c4.1.45,11.52,1.33,12.79-3.68-.94-3.62-14.59-4.95-18.06-5.08,3.02,2.97,7.87,3.21,5.26,8.76ZM322.55,109.94c-.38-.06-7.86-.39-5.85,1.16l6.43,1.17-1.75-.58,1.17-1.74ZM288.35,156.65c-2.11-1.94-10.46-14.1-11.99-14.89-1.24-.64-2.59,1.04-2.27,2.25.08.3,3.42,4.16,4.01,4.81,3.73,4.09,10.27,8.43,13.31,12.74.28.4.15,1.07.15,1.56l4.08-.57c-.16.69-3.11,1.73-3.5,1.75-.63.02-1.55-.73-2.33-.58l.54,4.44,3.87.72.54-1.05c.3.1.71.57.9.56.37-.01.75.08,1.12-.03l.92-2.3c1,.69.71,1.98,1.22,2.87,2.06,3.62,6,.95,4.66-1.14-.88-1.38-4.85-.54-3.84-4.07,3.87.65,3.07-1.98,4.67-3.22,1.26-.98,3.2-.87,4.61-1.53l.08-3.43,2.33,1.17.63-2-1.16-.58c.82-1.91,1.29-4.66-1.16-5.07l.52-1.69c-3.09-1.05-2.67,2.49-3.87,2.87l-3.72.06,1.16.57c.53,1.94-1.49.88-1.74,1.18-.48.59.32,2.75,1.14,3.21l-2.32,2.04,1.75.3c-2.8,4.03-6.44,4.09-10.5,1.74-1.59-.92,1.49-.81.56-2.61l-3.46.55-5.05-7.75c2.13,1.86,6.31,5.35,8.47,6.93.79.58,1,1.87,2.14,2.53,6.1,3.56,5.4-4.92,6.07-8.7-2.73.23-5.75,1.01-8.51.61-1.31-.19-1.96-1-2.92-1.17-.72-.13-1.71,5.03-1.14,6.93ZM330.15,147.94c-.38-.43-4.21,1.96-3.5,2.91l2.95.34.55-3.26ZM329.28,153.21l-.87.87.27.27c.32-.37,1.18-.76.6-1.15ZM305.6,163.72h-1.75s0,2.33,0,2.33h.87c.92-.62,1.02-1.26.88-2.33Z"/><path class="cls-3" d="M264.68,111.69c-2.07,1.1-5.76,4.26-6.73,6.43-1.23,2.75-.63,4.57-.9,7.29-.08.82-.98,1.38-1,2.24-.06,4,4.03,8.05,8.04,8.02-4.18,2.65-.09,5.95,3.25,6.98,1.51.47,5.31.44,5.5.64.12.12-.05,1.55.33,2.28.2.38,3.06,4.27,3.47,4.73,2.45,2.72,8.37,5.68,10.26,8.45,2.95,4.33.82,9.26,7.86,10.14,2.16.27,2.62,1.24,3.43,1.38,1.33.23,2.26,2.63,5.06,1.35,3.23-1.48,2.92-7.01,3.82-9.05.55-1.26,4-3.5,4.97-4.97l2.05-3.82c5.13,3.71,1.05,9.1-4.64,8.75-1.61,1.12,3.63,5.09,4.72,5.79,1.66,1.06,3.65,1.69,5.46,2.44v1.17s.87,0,.87,0l.3-.58c.36.17.9.09,1.17.58-19.34,1.57-38.53,2.91-57.88,2.92-1.18-14.09-3.47-29.66-12.29-41.2-1.97-2.58-8.61-9.06-11.68-9.66-.09-1.44.9-1.49,1.74-2.06,4.73-3.21,10.89-6.77,16.17-8.97,1.87-.78,4.72-2.38,6.64-1.25Z"/><path class="cls-18" d="M366.4,139.75c4.58,7.81,6.01,17.51,8.18,26.31-15.37,2.67-31.02,3.88-46.18,5.26,0-.39,0-.78,0-1.17.5-.08,1.21-.02,1.75,0,.09,0,.64.64,1.44.64,2.6,0,4.98-4.78,5.57-7.07.54.09,1.19-.06,1.75,0,1.36,1.8,2.96,3.85,5.24,4.4.41.1,6.97.38,7.33.32,1.44-.23,1.2-1.64,1.88-1.8,1.58-.37,3.96.45,4.73-2.17,1.01-3.45-1.47-5.37-4.51-6.07l-.03-1.66,2.28-.98c0-2.88-2.64-6.36-5.65-5.06-3.54,1.53-1.55,4.56-2.17,5.44-2.41,3.43-6.13-5.41-6.76-7.03,1.68-1.12,3.7,0,4.89-.18,3.54-.54,6.45-2.31,9.31-3.46,1.65-.66,4.53-1.02,5.68-1.92s.95-2.41,2.14-3.13c.93-.56,2.48-.38,3.12-.68Z"/><path class="cls-4" d="M314.37,100.58v1.17c.38.07.81-.06,1.17,0,.2,3.99-3.49,1.42-6.43,1.17-1.72-.15-3.53.1-5.26,0l-1.75.58c-3.24.05-9.45.54-12.55,1.18-1.53.32-1.56.95-1.48,2.32-5.57-.82-18.31,1.98-23.38,4.68-1.92-1.12-4.77.48-6.64,1.25-5.28,2.19-11.45,5.76-16.17,8.97-.84.57-1.83.62-1.74,2.06-.31-.06-1.55-.08-1.75,0-1.41-1.82-4.16-1.16-5.85-1.17-.39,0-.78,0-1.17,0v-.58c-.13-.62-.05-.79.38-1.21,2.07-2,10.9-6.83,13.84-8.25,4.26-2.05,13.07-5.77,17.35-6.91,14.56-3.9,36.15-4.88,51.45-5.26Z"/><path class="cls-3" d="M238.37,123.97c-.3.12-4.3,3.48-4.98,4.08-11.91,10.32-19.13,23.01-23.66,38.01-.33-.4-3.77-3.37-4.09-3.51-.2-2.98,1.05-5.97,2.07-8.74,4.52-12.24,13.78-24.07,24.82-31.01,1.69.01,4.44-.65,5.85,1.17Z"/><path class="cls-8" d="M387.45,166.06v1.17c-10.57,3.05-20.64,4.92-31.57,6.43-9.56,1.32-19.27,2.34-28.98,2.91l-1.42.6c-16.57.91-33.07,2.2-49.69,2.34-1.56.01-3.12,0-4.68,0-4.32-.02-14.02.78-17.54,0-.35-.08-.44-.46-.58-.58-.21-.17-.35-.87-.58-1.17,41.14,1.07,95.03-2.76,135.04-11.69Z"/><path class="cls-14" d="M206.8,173.66c-.58,0-1.17,0-1.75,0-1.05-3.05-2.82-5.37-6.04-6.3l-2.13,1.34c7.77-.79,8.02,11.51,7.58,16.94-.35,4.24-2.93,16.02-9.32,12.25-3.07-1.81-3.74-12.38-3.56-15.78.21-3.82,1.94-10.59,4.11-13.71.92-1.32,2.57-2.94,4.09-3.51,3.53,1.66,5.39,5.37,7.02,8.77ZM196.7,175.5c-5.52.86-6.37,15.54.45,15.17,6.06-.33,5.82-16.15-.45-15.17Z"/><path class="cls-13" d="M214.99,174.83c-.34,1.75.85,1.05,1.93,1.25,3.47.65,8.25,1.87,11.51,2.25-.63,2.21.3,6.03,0,7.85-.14.83-.99,1.43-1.07,1.91-.13.78,1.46,1.92,1.06,3.1-3.98-.4-7.94-1.15-11.96-1.13-.48-2.22-.48-1.94-2.66-1.8.3-2.11.54-3.65.58-5.85.06-3.08.16-5.32-1.17-8.18.77-.24,1.29.47,1.75.58ZM225.41,186.43c1.77-1.02,1.6-5.46-1.82-4.51s-.49,5.84,1.82,4.51Z"/><path class="cls-3" d="M370.49,129.23c9.08,8.19,13.88,20.71,17.55,32.15,1.64.35,1.26-.76,1.1-1.98-.67-5.15-2.65-11.61-4.03-16.73l.73-.44,2.64,5.55,2.48,14.77c-2.71.78-5.44,1.17-8.18,1.75-.12-.76-.62-1.85-1.17-2.34-1.03-4.55-.53-10.7-1.72-14.94-1.4-4.98-6.52-12.14-9.97-16.05.04-.08.58-1.66.58-1.75ZM385.1,160.8l-.89-5.25-2.61-5.27c.6,3.35,1.22,7.96,3.5,10.52Z"/><path class="cls-4" d="M381.6,161.97c.55.49,1.05,1.58,1.17,2.34-2.7.58-5.46,1.28-8.18,1.75-2.17-8.8-3.6-18.5-8.18-26.31.07-.04,1.13-1.1,1.17-1.17.84,1.35,1.96.99,3.06,2.49,5.19,7.06,3.08,13.87,10.97,20.89Z"/><path class="cls-21" d="M231.36,122.8c.39,0,.78,0,1.17,0-11.04,6.94-20.29,18.77-24.82,31.01-1.02,2.77-2.28,5.77-2.07,8.74-1.35-.59-3.17,1.05-2.8-2.47.77-7.37,10.49-22.14,15.65-27.66,1.21-1.3,10.93-9.99,11.71-10.22.17.55.67.57,1.17.58Z"/><path class="cls-4" d="M393.29,161.97c-.67.28-1.59.37-2.34.58l-2.48-14.77-2.64-5.55-.73.44c-.04-.13-.79-.7-1.02-1.58-.69-2.63-.91-5.65-1.32-8.35,4.76,7.39,10.38,20.3,10.52,29.23Z"/><path class="cls-9" d="M212.65,182.43c-.03,1.5-.33,4.38-.58,5.85l-5.85-.58c.29-2.12.24-7.18,0-9.35,2.26-.25,4.8,1.12,5.26-1.75h.58c.4,2.05.63,3.72.58,5.85Z"/><path class="cls-5" d="M326.06,152.03c-.49,5.66,2.51,11.43,5.85,15.78-.07.06-.24.77-.58,1.17-.96-.07-1.97.1-2.92,0,.05.37,0,.79,0,1.17-1.22.19-1.84.61-2.34,1.75-.38.03-.78-.03-1.17,0l-2.97-2.11c1.02-4.58.95-9.69.05-14.26-.19-.97-.7-1.89-.58-2.92l2.4.34c.66,5.44,1.54,10.83,3.55,15.94.3.24.73.05,1.07.08-.71-5.52-4.21-11.06-3.51-16.95.33,0,.2-.26,1.17,0Z"/><path class="cls-18" d="M248.89,177.17l.58,2.34c-5.73.11-15.24-.49-21.05-1.17-3.27-.38-8.05-1.6-11.51-2.25-1.09-.2-2.27.5-1.93-1.25,9.57,2.29,23.84,1.97,33.91,2.34Z"/><path class="cls-19" d="M211.48,174.83c-.76-1.81-2.91-1.18-4.68-1.17-1.63-3.4-3.48-7.11-7.02-8.77,7.48-2.78,10.11,4.02,11.69,9.94Z"/><path class="cls-5" d="M206.8,173.66c1.77,0,3.92-.64,4.68,1.17.16.6.49,1.29.58,1.75h-6.43c-.14-.7-.45-2.55-.58-2.92.58,0,1.17,0,1.75,0Z"/><path class="cls-4" d="M393.29,164.31c.52-.1,1.19.05,1.75,0,.08.37-.09.87,0,1.17-2.36.49-5.33,1.1-7.6,1.75v-1.17c1.79-.4,4.29-1.46,5.85-1.75Z"/><path class="cls-3" d="M252.4,177.75c.23.29.37.99.58,1.17-1.19.03-2.32.56-3.51.58l-.58-2.34c1.39.05,2.99.57,3.51.58Z"/><path d="M331.32,168.98c-.36.41-.81.75-1.17,1.17-.54-.02-1.26-.08-1.75,0,0,.39,0,.78,0,1.17-.52.05-1.38.5-2.34.58.5-1.15,1.12-1.57,2.34-1.75,0-.38.05-.8,0-1.17.95.1,1.96-.07,2.92,0Z"/><path class="cls-3" d="M231.36,122.21v.58c-.5-.01-1-.04-1.17-.58.31-.09.8.06,1.17,0Z"/><path class="cls-14" d="M285.72,76.03v2.34c-4.92.46-9.9,1.84-14.93,1.2-1.85-.24-1.66-.55-2.6-1.78,5.83-.64,11.7-1.15,17.54-1.75Z"/><path class="cls-14" d="M285.72,51.48c.59,4.61,1.5,9.38,1.17,14.03,0,.05-.48-.09-.57.87-.21,2.23.33,4.45-1.16,6.45l2.32.87v.58c-5.7.73-12.28.8-17.83,1.76-1.01.17-1.63.63-1.46,1.75-.46-.61-1.25-1.03-1.14-1.99,8.2-7.55,12.94-20.74,14.51-31.7.4-2.8.33-10.39,1.25-11.91-.05,1.22-.06,2.43.15,3.64.89,5.18,2.11,10.43,2.77,15.65Z"/><path class="cls-20" d="M291.57,79.54c5.25-.6,10.49-1.53,15.79-1.76l1.75,14.62-19.29,1.17-.58.58c-.38.04-.78-.02-1.17,0-.06-.28-.32-.56-.58-.58l2.36-2.14c-.59-2.17-.78-4.38-.6-6.63h.58c.05,1.37.32,6.21.87,7.03.68,1.02,2.23.75,2.57-.4.49-1.64-1.08-8.71-1.69-10.72-.09-.31.06-.8,0-1.17ZM301.47,79.57l-1.71-.03,1.11,11.35,1.8.34c.16-3.96.04-7.88-1.21-11.67Z"/><path class="cls-15" d="M295.08,77.2h-2.34s.58-2.34.58-2.34c.57-.06,1.18.06,1.75,0l.29,1.76c4.65-1.53,11.37.43,14.9-3.23l-14.6,1.47c3.73-2.02,9.22-1.03,13.12-2.37.95-.33,1.71-.43,1.49-1.72-7.49,1.65-15.17,2.53-22.79,3.51v-.58l14.62-2.92c-.01-.19.02-.39,0-.58l3.5-.87c-4.95-4.41-8.7-9.1-12.16-14.74-.55-.9-6.09-11.9-6.54-11.29.23,2.32.55,4.75,1.16,7.02-1.21-.24-1.81.1-2.34,1.17-.67-5.22-1.89-10.46-2.77-15.65-.21-1.21-.2-2.42-.15-3.64.88-1.46,1.12-1.72,2.26-.21,1.57,2.1,2.94,8.03,4.26,10.94,4.14,9.11,9.1,17.05,16.56,23.77,1.34,1.21,5.04,3.06,5.47,4.5,1.88,6.37-12.81,5.57-16.27,6.01Z"/><path class="cls-20" d="M272.28,97.66c5.47-1.09,12.74-1.72,18.42-2.34,9.11-.98,22.7-3.53,30.43,1.11.52.31,1.17-.3.84,1.22l-23.97,1.17c-1.73-.54-5-1.22-6.73-1.23-1.31,0-2.53.64-2.91.64h-8.77c-1.9,0-5.15,1.73-7.31-.58Z"/><path class="cls-14" d="M291.57,79.54c.06.37-.09.86,0,1.17-.74-.28-1.42.51-1.75.58-1.49.33-3.45.15-4.7,1.56l.02,10.72c.77.06,1.57-.08,2.34,0,.27.03.53.31.58.58l-12.27,1.17-1.71-13.07.92-.88c5.53-.57,11.05-1.21,16.57-1.84ZM283.38,93.57c.44-.42-.55-8.1-.85-9.38-.76-3.3-2.59-4.4-2.39-.57.07,1.4.97,8.97,1.43,9.6l1.8.35Z"/><path class="cls-8" d="M321.97,100c21.72,1.14,48.91,14.3,60.8,32.74.4,2.7.63,5.72,1.32,8.35.23.88.98,1.45,1.02,1.58,1.38,5.11,3.36,11.57,4.03,16.73.16,1.22.54,2.33-1.1,1.98-3.67-11.44-8.46-23.96-17.55-32.15.09-1.11-.18-2.71-.7-3.69-.76-1.42-1.68-1.45-2.81-3.91-1-2.2-.8-1.22-1.17-1.75-.2-.29-.19-1.88-1.17-3.22-4.25-5.82-19.9-9.43-26.9-9.64.34-1.62-.8-1.13-1.83-1.35-6.75-1.43-13.58-2.79-20.38-3.91-.36-.06-.79.07-1.17,0v-1.17c2.54-.06,5.38-.7,7.6-.58Z"/><path class="cls-14" d="M272.28,97.66c2.15,2.31,5.4.58,7.31.58h8.77c.39,0,1.6-.64,2.91-.64,1.74,0,5,.69,6.73,1.23-10.89,2.05-22.43,2.09-33.32,4.67.69-2.73,5.06-5.34,7.6-5.84Z"/><path class="cls-9" d="M293.32,74.86l-.58,2.33h2.34c-3.26.42-5.96.86-9.35,1.17v-2.34c2.54-.26,5.04-.9,7.6-1.17Z"/><path class="cls-14" d="M289.23,94.15l.58-.58c-.08.26-.33.56-.58.58Z"/><path d="M396.21,178.34c-.12.72.08,1.59,0,2.34-.31.02-.82.53-1.17.58s-.82-.07-1.17,0c-1.92.39-4.07,1.35-5.85,1.75-2.78.63-6.67,1.93-8.77,2.34-13.17,2.55-29.75,4.38-43.26,5.85-1.4.15-2.94-.14-4.38,0-7.3.75-14.63,1.62-21.93,2.33l-18.39,1.19c-4.78.06-9.58-.15-14.35-.02-1.56.04-2.9.58-4.36.61-17.63.4-35.45.33-52.93-1.78.21-.31-.14-2.24,0-2.92l-3.5,2.92c-.32-.36-.74-.44-1.17-.58-.48-.79-1.57-2.18-1.67-2.78-.23-1.37.46-1.61.5-1.9,2.18-.14,2.18-.42,2.66,1.8,4.02-.02,7.98.72,11.96,1.13,8.6.87,16.54.98,25.14,1.17,5.95.13,10.85.29,16.95,0,2.13-.1,4.03-.57,6.43-.58,21.49-.14,43.56-1.61,65.18-4.1,18.2-2.1,36.25-5.28,54.08-9.35Z"/><path class="cls-20" d="M361.14,205.23v1.76s4.33,0,4.33,0l.34-1.76c1.17-.04,2.34.04,3.51,0v1.17s2.93,0,2.93,0v1.17c-18.76.39-37.48,1.69-56.13,2.92-.77.05-1.57-.05-2.34,0-5.08.35-10.13.76-15.2,1.17-1.16.09-2.35-.1-3.51,0-12.19,1.02-24.68,2.14-36.83,3.51-.86-5.3-5.79-3.42-9.35-4.68,5.26-.88,10.48-1.71,15.78-2.34,1.01,1.17,3.21.4,4.67.58v-.57s-1.17-.59-1.17-.59c.76-.08,1.57.03,2.34,0,3.41,3.12,9.9,3.05,14.35,2.95,12.34-.3,26.05-2.73,38.57-3.53s25.21-1.26,37.7-1.76Z"/><path class="cls-9" d="M214.99,192.95c.5.84.51.92,1.17,1.75.53.67.81,1.44,1.75,1.75-.03.9.47.93.58,1.17.31.65.84,1.76,1.17,2.34,1.07,1.88,8.98,14.39,9.94,14.62.63.15,1.31-.12,1.75-.58.36.03.8.03,1.17,0,4.27-.37,11.46-2.68,16.37-3.51,3.57,1.26,8.49-.62,9.35,4.68-8.95,1.01-18.25,3.64-27.19,4.08-1.77.09-3.72.24-5.4-.43-3.68-1.48-10.37-17.31-14.69-20.43l2.28-6.02c.54.37,1.17.39,1.74.58Z"/><path class="cls-14" d="M212.06,188.27c-.86,4.95-4.35,15.27-10.76,14.61l-4.43-2.33c2.14-.13,4.23-1.24,5.52-2.96,1.06-1.42,3.6-8.21,3.83-9.9l5.85.58Z"/><path class="cls-13" d="M199.79,205.23c3.12.35,6.24-1.28,8.56-3.14.73-.58.63-2.06,2.53-1.53l4.69,8.17c-3.27-.74-8.08-1.14-11.24.16-1.72.71-3.27,3.1-5.71,2.76.46-1.97.65-4.4,1.17-6.43Z"/><path class="cls-18" d="M199.79,205.23c-.52,2.03-.71,4.47-1.17,6.43s-5.27,7.64-7.02,9.35h-1.75s0,1.17,0,1.17c-.19-.03-.39.02-.58,0-.38-.04-.78.02-1.17,0,3.81-5.57,5.6-12.33,7.6-18.71.25.19,3.78,1.72,4.09,1.75Z"/><path class="cls-15" d="M211.48,176.58c-.46,2.87-3,1.5-5.26,1.75-.04-.37-.46-1.13-.58-1.75h5.85Z"/><path class="cls-10" d="M191.6,221.01c-.27.26-.44,1.02-.88,1.16h-.87s0-1.16,0-1.16h1.75Z"/><rect class="cls-14" x="216.16" y="210.5" width="1.16" height=".57"/><path class="cls-7" d="M287.48,214.58c-.19-.02-.39,0-.58,0l.29-.57.29.57Z"/><path class="cls-14" d="M395.63,153.78c2.57,7.45,4.74,14.77,4.09,22.8-.85.04-.88-2.11-.99-2.8-1-6.4-1.65-12.82-4.26-18.83.08-.26-.18-.8.09-1.08.34-.24.73-.06,1.08-.09Z"/><path class="cls-4" d="M355.88,173.66c-.61.59.99,3.43,1.17,3.51-3.43,2.13.68,3.75,1.17,4.68.15.29-.21,1.52.02,1.72,1.49,1.27,34.14-5.98,38.56-6.98.02.67-.51,1.28-.58,1.75-17.83,4.06-35.89,7.25-54.08,9.35-21.61,2.49-43.69,3.96-65.18,4.1.11-.23.56-.46.58-.58l49.11-3.51-1.17-10.52,1.42-.6c9.71-.57,19.42-1.58,28.98-2.91Z"/><path class="cls-3" d="M395.05,165.47c.65,2.14,1.7,8.86,1.75,11.11-4.42,1.01-37.06,8.25-38.56,6.98-.23-.2.13-1.43-.02-1.72,2.79-.51,3.02-3.88.55-4.98-.82-.37-1.64.34-1.72.3-.18-.07-1.78-2.92-1.17-3.51,10.93-1.51,21-3.38,31.57-6.43,2.27-.65,5.24-1.26,7.6-1.75ZM394.38,171.4c-.87-1.37-5.08-.34-3.74,2.25,1.49,2.89,5.33.25,3.74-2.25Z"/><path class="cls-4" d="M396.21,180.67c.6-.04,1.83-.17,2.23.1,2.95,7.74,8,14.85,13.55,20.95-.94-.1-2.02.14-2.92,0-.06,0-.18-.42-1.17-.58-.86-.14-2.59.04-3.11,0-1.16-4.17-4.4-7.78-6.55-11.68-1.37-2.49-2.92-5.35-3.2-8.2.35-.06.86-.56,1.17-.58Z"/><path class="cls-15" d="M402.06,165.47l.58.58c.2,1.13-.05,2.82,0,4.09l-1.17-.58c-.34-3.19-2.07-7.09-2.93-10.24l.59-.86c1.64,3.12,2.13,3.32,2.92,7.02Z"/><path class="cls-15" d="M413.75,204.06c.19.03.4-.03.58,0,.41.71,1.14.82,1.75,1.17l-14.03-1.17,2.34-1.17c3.66.28,5.83.62,9.35,1.17Z"/><path class="cls-14" d="M402.65,170.15c.03.69.7,1.6.42,2.45l-1.59,6.9c-.25-3.2.33-6.8,0-9.94l1.17.58Z"/><path class="cls-14" d="M402.65,166.06l-.58-.58s.5.12.58.58Z"/><path class="cls-9" d="M402.06,204.06l14.03,1.17c1.25.71,2.42,1.39,3.51,2.34-.14.41.1,1.23,0,1.75-1.82.49-3.01,2.17-5.85.58-.12-.22.03-.78-.28-1.19-.46-.61-1.16-.39-1.47-.57-.57-.32-.91-.72-1.68-.92-6.2-1.6-15.5-.16-22.29-.25.41-1.16,3.16-.3,3.51-.58v-1.76c3.52-.09,6.97-.85,10.52-.58Z"/><path class="cls-18" d="M309.11,102.92c.58,2.32-.94,3.74-1.17,5.85-1.86.67-4.49.33-5.15.71-1.13.64-3.64,5.19-.55,6.45,2.19.89,7.79.41,7.33,4.68-.05.43-1.42,4.55-1.57,4.76-.47.63-1.69.24-2.36.67-2.1,1.33-4.62,5.46-7.88,3.15-3.09-2.19,3.13-5.36,0-9.35-2.64-3.36-15.78-1.48-11.71-7.53.85-1.25,6.93-4.57,2.02-5.29-.08-1.37-.05-2.01,1.48-2.32,3.1-.65,9.32-1.13,12.55-1.18.09,0,.62.76,1.38.64l.37-1.22c1.73.1,3.54-.15,5.26,0Z"/><path class="cls-3" d="M315.54,101.75c6.8,1.12,13.63,2.48,20.38,3.91,1.04.22,2.18-.26,1.83,1.35-1.36-.04-2.74.02-4.1,0-1.24,4.02,8.31,4.6,6.16,8.77-2.5,1.83-11.52,2.1-8.2,7.59.22.37,7.88,5.43,2.91,5.88-.6.05-6.48-2.8-7.25-3.3-3.45-2.25-4.73-6.53-4.17-10.51.26-1.84,1.77-2.48,1.69-3.36-.03-.32-1.46-3.54-1.64-3.66-2.25-.49-4.34.8-6.74.32-1.58-.31-4.52-4.48-6.45-2.34-1.09,1.2.21,1.55-2.03,2.36.23-2.11,1.75-3.53,1.17-5.85,2.94.25,6.63,2.82,6.43-1.17Z"/><path class="cls-5" d="M284.33,150.86c.2.19.73.78.94.96l4.01,5.44,3.46-.55c.92,1.8-2.15,1.69-.56,2.61,4.06,2.35,7.7,2.29,10.5-1.74l-1.75-.3,2.32-2.04c-.83-.46-1.62-2.62-1.14-3.21.25-.3,2.27.76,1.74-1.18l-1.16-.57,3.72-.06c1.21-.38.78-3.91,3.87-2.87l-.52,1.69c2.45.41,1.98,3.16,1.16,5.07l1.16.58-.63,2-2.33-1.17-.08,3.43c-1.4.66-3.34.56-4.61,1.53-1.61,1.24-.81,3.88-4.67,3.22-1.02,3.52,2.96,2.69,3.84,4.07,1.34,2.1-2.61,4.77-4.66,1.14-.51-.9-.22-2.19-1.22-2.87l-.92,2.3c-.37.12-.75.02-1.12.03l.57-3.22c-1.78.68-6.88,3.11-4.08-.87.4-.01,3.34-1.06,3.5-1.75l-4.08.57c0-.49.13-1.17-.15-1.56-3.04-4.31-9.59-8.65-13.31-12.74-.59-.65-3.94-4.51-4.01-4.81-.31-1.21,1.03-2.89,2.27-2.25,1.53.78,5.86,7.15,7.97,9.09Z"/><path class="cls-20" d="M284.55,119.29c.08.88,1.67.88,1.75,0,2.73-.11,11.77-.78,11.01,3.67-.36,2.11-3.64,3.4-1.69,6.6,1.8,2.95,7.17,1.05,9.65-.31l3.25,6.42c-.16.38.17,1.58,0,1.76-.06.06-.91-.56-1.71-.3-1.34.43-2.45,2.34-2.97,2.63-.2.11-.83-.08-1.17,0-.13-.62-1.53-1.76-1.18-2.93-.98.47-2.08.5-1.75,1.76-1.19.71-7,1.25-5.57-1.19,1.36-.26,1.94-2.21,2.07-2.32.43-.33,2.41-.06,2.34-1.16-6.68-.14-7.57-4.54-7.09-10.44-.93-1.46-7.43.8-9.42.4-1.61-.32-3.81-2.02-1.6-3.41.61-.18,1.11-.57,1.17-.58,1-.2,1.84-.51,2.92-.58Z"/><path class="cls-5" d="M309.11,110.52c1.28-.3,2.03-.43,3.19-1.2,1.39,2.93,4.45,2.81,7.3,3.59-.79,1.66.95,2.54,1.44,3.99l2.1,8.83c-1.01.17-.78,1.34-1.46-.58-1.62,1.6-.78,3.62-3.8,2.92l1.79-1.48c-.16-2.11.13-4.25-.09-6.35-.06-.56-.25-2.2-1.11-2.09,1.32,4.47.49,7.07-2.34,10.52-.28.34-.84.97-1.17,1.17-2.03-2.31,1.04-3.4,1.63-4.48.92-1.67,1.34-6.25-.18-7.78,1.4,4.47-.91,6.3-2.76,9.52-1.21,2.1.77,2.32-3.37,2.16,1.36-3.49,5.7-6.23,5.26-10.52-1.46.6-1.1,2.46-1.83,3.72-1.01,1.77-3.62,5.79-5.77,5.64-.41,1.77,1.15,1.12,2.34,1.16-.92,2.37,1.31,2.97,0,4.68-1.91-.88-2.19-3.09-3.25-4.67-.46-.68-1.93-.21-1.42-1.76,4.13,1.1,6.46-5.24,5.83-8.46-.48-2.48-4-2.99-5.25-4.99.9-.14,1.98.1,2.92,0v-1.16c-1.93.23-2.46.14-2.92-1.76.69-.14,1.67.15,2.34,0l.58-.58ZM312.03,113.44l-1.47-2.33h-.87s1.47,2.33,1.47,2.33h.87Z"/><path class="cls-8" d="M381.6,161.97c-7.88-7.02-5.78-13.83-10.97-20.89-1.1-1.5-2.22-1.15-3.06-2.49,1.11-1.93.78-3.64-.59-5.25,1.11-.02,2.46-1.43,2.92-2.35,3.45,3.91,8.57,11.06,9.97,16.05,1.19,4.24.69,10.38,1.72,14.94Z"/><path d="M316.12,128.64c2.83-3.45,3.66-6.05,2.34-10.52.85-.1,1.05,1.53,1.11,2.09.23,2.1-.06,4.24.09,6.35l-1.79,1.48c3.02.71,2.18-1.32,3.8-2.92.68,1.92.45.75,1.46.58.6-.1,1.41-.64,1.78-.34l1.15,3.26c-2.56,1.81-2.28.98-5.85,1.17-1.47.08-2.68.15-4.09.58v-1.75Z"/><path d="M310.28,129.23c4.14.16,2.16-.06,3.37-2.16,1.85-3.22,4.17-5.04,2.76-9.52,1.52,1.54,1.1,6.11.18,7.78-.6,1.08-3.67,2.17-1.63,4.48-1.16.7-2.24,0-3.5.6v1.73s4.08.58,4.08.58l-.52-2.08,1.11-.25.29.58c1.27.03,2.54-.01,3.8,0,2.23.03,4.26.13,6.43-.58,0,2.05-.57,4.31,1.76,5.26-.04.38.04.79,0,1.17-.08.88-1.16,2.84-1.16,4.39s.99,3.26.58,4.96c-2.1.55-.84-3.39-1.8-4.05l-5.21-.04c.53-.4,1.34-.57,1.2-1.42-1.38-.79-2.47-10.75-4.7-8.51-.58.58,2.56,9.08,2.92,10.52.02.07-.41.6-.26,1.2.11.45,2.84,6.14.56,5.23-1.93-.77-2.97-6.83-3.22-8.76-.09-.72.5-2.43-.58-2.33-.64,2.29-3.95,3.65-1.76,6.43-.31.52-.18.79-1.17.58.25-2.61.03-4.16-1.17-6.43.69-.03.73-1.34.58-1.75h1.17v2.34c.41-.29,2.31-2.18,2.34-2.34.33-1.84-3.16-3.28-4.39-4.08-.8.31-.65,1.43-.87,1.74-.2.28-.95.42-1.17,1.17-.08.26,0,.81,0,1.17l-1.16-1.17c.03.96-.07,1.96,0,2.92-.21.17-.37.42-.58.58-2.11-.41-3.2.48-4.68,1.75,0-.39,0-.78,0-1.17.51-.29,1.63-2.2,2.97-2.63.8-.26,1.65.37,1.71.3.17-.18-.16-1.38,0-1.76.31-.71,1.36-1.24,1.75-1.75,1.31-1.71-.92-2.31,0-4.68-1.19-.05-2.75.61-2.34-1.16,2.15.15,4.75-3.87,5.77-5.64.72-1.26.37-3.12,1.83-3.72.44,4.3-3.9,7.03-5.26,10.52ZM325.48,132.15c-2.33-.05-3.96.99-3.51,3.51h4.09s-.59-3.51-.59-3.51Z"/><path class="cls-5" d="M331.91,149.69l2.33-1.16.42,1.15,4.27.6c.4.5,2.03.96,1.75,2.04l-1.75,1.46c3.84-.59,2.3.66,3.31,1.79,2.03,2.28,6.14,4.5,7.51.51.46-1.33-.29-1.75-.29-2.53,0-.19,2.52-3.02,2.62-.34l.87-1.17,1.16,2.63c-2.75.83-1.84,1.71-2.39,2.53-.08.12-2.41-.71-1.67,1.54.57,1.75,7.25,1.13,6.74,4.41-1.31,2.35-6.84-1.04-7.34-.59.19,2.01,2.61,1.41,1.75,4.09l-2.05-1.75-.67,1.17h-1.96s.51-4.61.51-4.61c-.89-.49-1.89-.49-2.85-.65-.53-.09-1.19.07-1.75,0l1.16-1.74c-1.09.14-1.89.08-1.77-1.15h-1.14s-.29,1.15-.29,1.15l-1.42-.65.53-2.86c-2.02-.72-.44,2.38-2.04,1.74-1.35-.54-.48-2.03-.3-2.91l-1.17,1.75c-.95.24-.29-.96-.97-1.18-.43-.14-.93.05-1.36.01l.58-1.75-2,.58-.87-.92c0-.66.53-1.43.54-2v-.58c-.01-.19.04-.4,0-.58Z"/><path class="cls-20" d="M342.43,130.4c.39,2.02,5.8,3.46,3.52,4.98-2.42,1.14-3.83-1.44-5.77-2.14l-.08-1.08c.15-.19.53-.4.58-.58.09-.27.55-.56.58-1.17.38.03.79-.05,1.17,0Z"/><path class="cls-20" d="M342.43,118.71l4.67,2.05c.01,1.25-5.32.91-6.42.88-.08,0-.64-.82-1.38-.57-2.88,2.9,2.15,6.06,1.96,9.33-.43.18-.47,1.06-.58,1.17-.2.18-.43.38-.58.58-.31.43-1.57.48-1.17,1.74l4.09,2.93c-4.67,1.8-5.03-3.71-9.35-2.91l2.33,4.08c-2.65,1.2-3.25-2.29-5.85,0-.52-3.01-.83-5.65-.58-8.77,2.12,1.15,5.42,2.48,7.56.84,4.17-3.2-5.27-6.84-3.79-9.61,1.36-2.56,6.62-1.59,9.09-1.75Z"/><path class="cls-20" d="M362.89,122.21c-.1.1.1.82-.02,1.16-3-2.27-2.73-.24-2.99-.13-.19.08-2.59.51-3.41.72l-7.62-.27-.28-1.49,2.05-.86-3.5-2.63c3.59-.47,9.82-2.36,7.3-7,4.06,1.92,12.46,4.85,8.48,10.51Z"/><path class="cls-5" d="M312.62,138.58c1.21,2.26,1.42,3.81,1.17,6.43.99.21.85-.07,1.17-.58.65-1.07.63-3.47,2.34-4.09.25,1.93,1.3,7.99,3.22,8.76,2.27.91-.45-4.78-.56-5.23-.15-.59.28-1.13.26-1.2.22-.16.37-.43.58-.58l5.21.04c.96.66-.31,4.6,1.8,4.05.42-1.7-.58-3.45-.58-4.96s1.08-3.51,1.16-4.39c1.33,2.99,1.39,6.32,1.07,9.55-.14.4-4.43,3.5-5.16,3.9l-.58.58c-.16.05-.38-.02-.58,0-.52.06-1.96.11-2.34,0-.82-.25-7.92-5.09-8.47-5.85-.91-1.27-2.02-6.53-2.05-8.18,0-.36-.08-.91,0-1.17.77.9,1.79,1.89,2.34,2.92Z"/><path class="cls-20" d="M281.63,133.32c.45.09,1.03-.23,1.59.15,1.1.74,1.03,2.89,4.25,1.02l.59,4.68c-3.01,1.63-7.82,8.27-9.94,1.76,2.94-.56,6.55-2.11,8.18-4.68-6.19,2.91-13.3,7.13-19.88,3.5.77.05,1.57-.07,2.34,0,3.93.38,9.43.09,12.28-2.92-3.98.8-8.05,3.24-12.28,2.33-.35-.07-1.65-1.78-2.92-1.17l.58,1.75c-.98-.54-2.57-.83-2.34-2.34,5.95-.74,11.95-1.86,17.54-4.1ZM283.09,135.66v.58c.38-.19.38-.39,0-.58ZM281.92,136.24v.58c.38-.19.38-.39,0-.58Z"/><path class="cls-15" d="M288.06,108.19c-1.71,2.3-6.1,3.81-4.26,7.46.6,1.19,1.78.89,1.92,1.88-2.48,1.24-15.88-.57-16.31-3.28-.69-4.31,15.57-6.41,18.65-6.06ZM280.09,111.88c.28-.35,1.82-.53,1.26-1.34-2.16,1.21-4.62,2.21-4.36,5.21l1.72.63c-.25-1.86.27-3.08,1.38-4.49Z"/><path class="cls-20" d="M340.68,116.95c2.61-5.55-2.24-5.79-5.26-8.76,3.47.13,17.11,1.46,18.06,5.08-1.27,5.01-8.7,4.12-12.79,3.68Z"/><path class="cls-18" d="M285.14,150.86c-.57-1.91,3.64-1.27,4.36-1.14.96.17,1.61.98,2.92,1.17,2.76.4,5.78-.39,8.51-.61-.67,3.78.03,12.26-6.07,8.7-1.14-.67-1.35-1.96-2.14-2.53-2.17-1.58-4.85-3.14-6.98-5-.21-.18-.38-.4-.58-.58Z"/><path class="cls-6" d="M340.09,132.15c.15-.21.39-.41.58-.58-.06.18-.43.39-.58.58Z"/><path d="M340.68,121.63c-2.89,1.43,1.07,4.5,1.61,6.31.28.93.01,1.77.14,2.46,1.61.21,3.04,1.95,4.9,1.71l.36-3.47c.19.03.39-.03.58,0,.37.05.8-.06,1.17,0v.58c.32.55,1.24,1.54,1.75,1.75v.58c-1.66-.12-1.49,2.53-4.09,1.76.92,1.23,2.76,1.78,4.09,2.33l-.58.58c-3.95-1.25-2.32.1-2.92.58-.23.19-1.92-.12-2.34.88-.07.16,1.35.7,1.75.87l-.58.58c-1.36-.49-5.01-2.1-5.84-.28l3.5,3.79-.58.58c-2.08-2.35-4.78-4.93-8.18-4.09-.15.98.65,1.59,1.17,2.34l-.58.58c-1.44-1.8-1.22-2.87-3.92-3.39-1.9-.36-1.31.17-1.34,1.64-.31-1.01-.39-1.21-.58-2.34,2.59-2.29,3.2,1.19,5.85,0l-2.33-4.08c4.32-.79,4.68,4.71,9.35,2.91l-4.09-2.93c-.4-1.27.86-1.32,1.17-1.74l.08,1.08c1.95.7,3.36,3.28,5.77,2.14,2.29-1.52-3.13-2.96-3.52-4.98-.38-.05-.79.03-1.17,0,.18-3.27-4.84-6.43-1.96-9.33.74-.26,1.3.56,1.38.57Z"/><path class="cls-6" d="M340.68,131.57c.12-.11.16-.98.58-1.17-.03.61-.5.9-.58,1.17Z"/><path d="M261.76,118.71c.01,4.85,4.66,4.52,8.18,5.26,1.16.24,2.39.92,3.88,1.1.93.11,6.54.61,6.88.55.41-.07,1.11-.82.93-1.05-1.25-.09-3.54-1.23-3.53-2.64l1.23-1.8c.71-.39,1.07.35,1.13.34-2.21,1.39,0,3.09,1.6,3.41,1.99.39,8.5-1.86,9.42-.4-.47,5.9.42,10.3,7.09,10.44.08,1.11-1.91.83-2.34,1.16-.26-.43-.93-.41-1.17-.58-1.38-1.01-2.75-2.46-4.68-2.34.23-.64.71-1.22.6-2.01l-.59-5.89c-10.65-.59-12.48,5.49-.59,3.82-.66,1.84-4.07.99-5.12,1.89-1.82,1.56-.85,4.5,2.35,3.87,1.17-.23,1.95-1.58,3.35-1.67-.57,1.62-1.19,2.27-1.75,4.09-.04.13-.83.44-.58,1.17.38.04.78-.04,1.17,0,.57.06,1.86.11,2.34,0v1.17c-.57,0-1.25.31-1.75.58l-.35-.53c-.55-.02-.96.29-1.41.53l-.59-4.68c-3.21,1.86-3.14-.28-4.25-1.02-.56-.38-1.14-.06-1.59-.15-.13-.02-.36-.47-.58-.58.72-.27,2.86-2.76,2.33-3.49-1.95-.7-3.09-1.28-5.26-1.18l-2.92-1.17c1.55-.03,3.12.03,4.67,0v-1.17s-9.06,0-9.06,0c-1.14,0-7.29-1.92-8.45-2.66-.57-.37-2.13-1.83-2.25-2.4l1.64-1.96Z"/><path class="cls-20" d="M351.2,131.57c1.77.13,5.41,2.09,7.59,2.64,1.83.46,8.61.64,8.19,2.33-4.01,4.22-11.13,1.04-15.78-.87-1.33-.55-3.17-1.1-4.09-2.33,2.61.77,2.43-1.88,4.09-1.76Z"/><path class="cls-5" d="M347.11,118.71c-.2,1.42,1.98,1.85.32,2.95-2.07,1.37-4.93-.56-6.17,1.72,6.08-1.18,12.2,3.37,2.34,3.52.47,1.04,3.07,1.6,4.09,1.75l-.36,3.47c-1.86.23-3.29-1.5-4.9-1.71-.13-.69.13-1.53-.14-2.46-.54-1.81-4.5-4.87-1.61-6.31,1.1.04,6.43.37,6.42-.88l-4.67-2.05c1.51-.1,3.24.19,4.68,0Z"/><path class="cls-15" d="M302.68,140.34c.36,5.42-6.16,11.72-11.1,7.89,2.51-1.47,5.76-8.71,8.17-9.06.94-.13,1.9,1.16,2.92,1.17Z"/><path class="cls-20" d="M263.51,128.64c.5.95,1.99.55,2.92.58,2.65.15,4.9-.56,7.02-.58.11,0,.58.69,2.03.64,1.75-.06,3.45-.91,5.26-.67.68.19.14,1.55.31,1.79-6.57.94-12.74,3.14-19.29.58-.1-.79-.45-1.56-.58-2.34.67.14,1.61-.11,2.34,0Z"/><path class="cls-5" d="M346.52,139.17l7.59,4.96c-1.22,3.27-8.02-.12-9.93-1.45l-3.5-3.79c.83-1.82,4.48-.21,5.84.28Z"/><path class="cls-15" d="M275.2,126.89c-3.82.08-14.14.44-15.93-3.66-2.57-5.89,8.91-12.12,9.5-11.54-3.09,8.02,8.49,5.69,12.86,8.18-.06.01-.56.4-1.17.58-.06.02-.42-.73-1.13-.34l-1.23,1.8c-.01,1.41,2.27,2.54,3.53,2.64.18.23-.53.98-.93,1.05-.34.06-5.95-.44-6.88-.55-1.49-.18-2.72-.85-3.88-1.1h8.18s-1.2-3.21-1.2-3.21c.9-.53,1.5,0,1.2-1.47-3.77.09-10.86-.96-10.52-5.85-2.77.58-5.85,2.03-5.84,5.27l-1.64,1.96c.12.57,1.68,2.03,2.25,2.4,1.15.74,7.31,2.66,8.45,2.66h9.06v1.17c-1.56.03-3.12-.03-4.68,0Z"/><path d="M333.66,154.95c.44.03.93-.15,1.36-.01.68.22.02,1.42.97,1.18l1.17-1.75c-.18.88-1.05,2.37.3,2.91,1.59.64.02-2.47,2.04-1.74l-.53,2.86,1.42.65.29-1.16h1.14c-.11,1.23.69,1.29,1.77,1.16l-1.16,1.74c.56.07,1.22-.09,1.75,0l-1.47,4.09-.28-1.16-3.23-1.17-.29,1.17c-.57-.06-1.21.09-1.75,0-.48-.08-1.8-.84-2.34-1.17.97-.78,2.11-.37,3.51-.58.8-.12,2.88-.09,2.92-1.16-3.37-2.33-7.56-1.57-8.76-5.85.38,0,.79-.03,1.17,0Z"/><path class="cls-20" d="M362.31,127.47c2.52-.45,4.06-1,6.43-1.75-.06.96.1,1.97,0,2.92-1.09,1.26-1.21,1.94-2.92,2.34.26-1.94-.69-.98-1.76-.89-4.69.39-5.01-.33-8.76-.87l-.58-1.16c2.69.3,5.11-.15,7.6-.59Z"/><path class="cls-5" d="M350.62,136.24c3.41,1.08,6.55,2.96,9.94,4.1.16.81-.04.96-.62,1.42-3.09,2.43-9.66-1.82-12.83-3.18-.4-.17-1.82-.71-1.75-.87.42-1,2.1-.69,2.34-.88,3.27,2.13,7.02,4.43,11.1,4.09l-8.34-3.63-2.76-.45c.6-.48-1.03-1.83,2.92-.58Z"/><path class="cls-15" d="M283.39,146.77c.06-.34.44-.42.58-.58,3.07-.68,7.88-2.65,8.77-5.85v-.58c.59.3,2.8-.58,3.5.88-2.44,3.51-7.12,8.62-11.88,7.2-.74-.22-.77-.9-.97-1.06Z"/><path class="cls-15" d="M336,142.09c.43.53,3.42,4.24,2.92,4.67-5.23.35-6.8-1.95-8.18-6.43.03-1.46-.56-2,1.34-1.64,2.7.52,2.48,1.59,3.92,3.39Z"/><path class="cls-5" d="M343.6,143.26c.45.51.77,1.2,1.17,1.75-2.84-1.28-4.86-3.08-7.59-4.39,1.84.95,3.15,3.03,4.73,4.04.49.31,2.57,1.55,2.86.35.73.33,2.61-.24,2.34,1.75-4.45,1.6-8.12-1.81-10.52-5.26-.52-.74-1.31-1.35-1.17-2.34,3.4-.84,6.1,1.74,8.18,4.09Z"/><path class="cls-18" d="M332.49,154.95c1.2,4.28,5.39,3.52,8.76,5.85-.04,1.08-2.12,1.04-2.92,1.16-2.16-.1-4.02-1.78-5.85-2.34-.3-.09-.8.06-1.17,0-.41-1.14-2.44-2.64-1.76-4.67.97-.02,1.95.01,2.92,0Z"/><path class="cls-5" d="M366.08,121.9c.37.53-.08.46.92,2.66-.59,1.55-5.12,2.18-6.29,2.18l-10.68-1.02v-1.17c2.47.21,4,.95,6.27.36.82-.22,3.21-.11,3.4-.19.26-.11.94-2.67,3.94-.4.13-.33.33-1.08.43-1.19.24-.25,1.64.16,2.02-1.23Z"/><path class="cls-15" d="M278.12,128.06c2.17-.09,3.31.48,5.26,1.18.53.73-1.61,3.22-2.33,3.49-1.4.53-8.44,1.65-10.21,1.77-2.89.2-6.53.23-9.08-1.19-.02-.58.03-1.17,0-1.75,6.64,3.34,13.63.8,20.46-.59.26-1.03-1.05-.41-1.17-.58-.16-.24.37-1.6-.31-1.79-1.81-.24-3.51.62-5.26.67-1.46.05-1.93-.64-2.03-.64,1.6.43,3.33-.53,4.68-.58Z"/><path class="cls-5" d="M320.8,152.03c-.02,1.69.53,2.68.58,3.51.32,4.66-.08,9.41-.59,14.03-.2.23-2.33-.91-2.92-1.17,2.36-4.89,2.53-9.91,1.75-15.2-1.02-.14-.55,1.33-.58,2.04-.17,4.58-.46,8.13-1.75,12.58-.65-.34-2.59.02-2.92-1.75,2.71.62,3.56-5.19,3.56-7.32,0-3.19-1.95-3.99,1.12-6.14.24-.16.48-.55.58-.58.29-.1.81.07,1.17,0Z"/><path class="cls-5" d="M326.65,152.03c1.83,1.37,1.43,5.67,3.3,8.07.79,1.01,1.21.58,1.38.7.1.23-.14.85.01,1.33.22.69,3,2.87,4.08,2.18.87.76-2.44,3.04-2.92,3.5-1.85-5.31-6.4-9.72-5.85-15.78Z"/><path class="cls-5" d="M291.57,138.58c1.58.02,1.08,1.12,1.17,1.17v.58c-2.29,2.43-6.77,3.62-8.77,5.85-.15.16-.52.25-.58.58-.6-.47-1.29-.81-1.74-1.46,3.08-1.12,5.77-4.82,8.17-6.14.51-.28,1.18-.59,1.75-.58Z"/><path class="cls-5" d="M308.52,139.17c-2.14,1.71-1.4,5.19-2.92,7.6-.54.26-.9,1.2-2.06,1.17l-1.43-.87c1.41-1.88,1.72-3.86,1.74-6.14,1.48-1.28,2.56-2.16,4.68-1.75Z"/><path d="M323.14,150.86l-1.17,1.16c.97.03,1.95-.02,2.92,0-.7,5.9,2.79,11.44,3.51,16.95-.33-.04-.76.16-1.07-.08-2.01-5.12-2.89-10.5-3.55-15.94l-2.4-.34c-.11,1.03.39,1.95.58,2.92h-.58c-.06-.83-.61-1.82-.58-3.51,0-.39,0-.78,0-1.17.37.11,1.82.06,2.34,0Z"/><path class="cls-5" d="M351.2,130.98c-.51-.21-1.44-1.2-1.75-1.75,3.06.35,5.63,1.34,8.77,1.75l.29.57.29-.57c2.23.21,2.55.17,4.68,0,.08.88,1.67.88,1.75,0,.19-.04.4.04.58,0,1.71-.4,1.84-1.08,2.92-2.34-.29,2.78-2.4,3.74-5.03,4.05-2.17.25-10.54-.87-12.51-1.71Z"/><path class="cls-20" d="M290.4,132.15c1.93-.12,3.29,1.33,4.68,2.34.43,1.09-2.64,2.72-3.51,2.92-.48.11-1.77.06-2.34,0l-.58-1.17c.56-1.83,1.18-2.47,1.75-4.09-1.4.09-2.19,1.44-3.35,1.67-3.2.63-4.17-2.31-2.35-3.87,1.04-.9,4.45-.04,5.12-1.89-11.89,1.67-10.05-4.41.59-3.82l.59,5.89c.12.8-.37,1.38-.6,2.01Z"/><path class="cls-15" d="M338.92,150.27l-4.27-.6-.42-1.15-2.33,1.16c-.24-1.24-.93-2.12-1.14-3.25-.61-3.23,2.32.1,3.44.66,3.3,1.63,2.32.13,4.72,3.18Z"/><path class="cls-5" d="M326.06,128.64c.23-.16,2.88-.48,3.51-.58-2.67,1.8-1.21,1.92-1.17,4.67-.88.08-.88,1.67,0,1.75-.01.39.04.79,0,1.17-2.32-.95-1.76-3.21-1.76-5.26-2.17.71-4.19.61-6.43.58v-1.17c3.57-.19,3.29.64,5.85-1.17Z"/><path class="cls-9" d="M309.11,138.58c.15,2.17,1.03,4.23,1.15,6.4-1.67.31-3.15,1.07-4.66,1.79,1.52-2.41.78-5.89,2.92-7.6.21-.17.37-.42.58-.58Z"/><path class="cls-5" d="M362.31,127.47c-2.49.44-4.91.89-7.6.59l.58,1.16c-1.89-.27-4.07-.31-5.85-.58-.37-.06-.8.05-1.17,0,.52-3.91,5.27-1.42,7.9-1.18,2.02.19,4.11-.1,6.13,0Z"/><path d="M292.15,164.31c-2.8,3.98,2.3,1.55,4.08.87l-.57,3.22c-.19,0-.59-.47-.9-.56l-.54,1.05-3.87-.72-.54-4.44c.78-.15,1.7.6,2.33.58Z"/><path d="M332.49,167.81c-.1.1-.48-.1-.58,0-3.33-4.35-6.34-10.13-5.85-15.78.2.06.48-.08.58,0-.55,6.07,3.99,10.47,5.85,15.78Z"/><path class="cls-5" d="M319.05,151.44c-2.06-.86-2.49,1.17-2.65,1.2-2.35.34-3.49-3.41-3.78-5.28.71-.71,5.63,3.36,6.43,4.09Z"/><path d="M317.88,168.4c-.2-.09-.38-.48-.58-.58,1.29-4.45,1.58-8,1.75-12.58.03-.71-.44-2.17.58-2.04.78,5.29.61,10.31-1.75,15.2Z"/><path class="cls-15" d="M306.19,111.11c.46,1.9.99,1.98,2.93,1.76v1.16c-.94.1-2.02-.13-2.93,0-1.34.2-2.65.85-4.09.58l2.33-1.17-1.75-.58c.68-1.99,2.12-1.47,3.51-1.75Z"/><path class="cls-9" d="M261.17,128.64c.14.78.49,1.55.58,2.34.02.19,0,.39,0,.58.03.58-.02,1.17,0,1.75-2.04-1.13-3.85-3.41-3.5-5.84,1.28-.62,2.58,1.1,2.92,1.17Z"/><path class="cls-15" d="M322.55,109.94l-1.17,1.74,1.75.58-6.43-1.17c-2.01-1.55,5.47-1.22,5.85-1.16Z"/><path class="cls-5" d="M330.15,147.94l-.55,3.26-2.95-.34c-.71-.96,3.12-3.35,3.5-2.91Z"/><path d="M302.68,139.75c.04.18-.01.39,0,.58-1.03,0-1.99-1.3-2.92-1.17v-.58c-.34-1.26.77-1.29,1.75-1.76-.35,1.17,1.05,2.3,1.18,2.93Z"/><path class="cls-18" d="M332.49,159.63c-.17,1.32,1.05,1.4,1.77,2.15v.77c-1.2-.08-2.02-1.06-2.94-1.75-.12-.28.11-.86,0-1.17.37.06.87-.09,1.17,0Z"/><path class="cls-5" d="M305.6,163.72c.14,1.08.04,1.71-.88,2.33h-.87s0-2.33,0-2.33h1.75Z"/><path class="cls-9" d="M266.43,129.23c-.94-.03-2.42.36-2.92-.58.84.13,2.77.58,2.92.58Z"/><path class="cls-10" d="M320.8,171.32l-.3.58h-.87s0-1.16,0-1.16c.46.19.8.41,1.17.58Z"/><path class="cls-15" d="M286.31,119.29c-.08.88-1.67.88-1.75,0,.58-.04,1.17.02,1.75,0Z"/><path class="cls-6" d="M328.4,134.49c-.88-.08-.88-1.67,0-1.75,0,.58.02,1.17,0,1.75Z"/><path class="cls-6" d="M319.63,152.03c-.1.03-.35.42-.58.58v-1.17c.2.19.4.38.58.58Z"/><path class="cls-6" d="M323.72,150.86l.58-.58c-.18.1-.36.52-.58.58Z"/><path class="cls-15" d="M331.91,150.86c0-.11,0-.56,0-.58v.58Z"/><path class="cls-15" d="M308.52,111.11s.22-.5.58-.58l-.58.58Z"/><path d="M334.25,162.55h.58c.54.33,1.85,1.09,2.34,1.17-.59,2.3-2.97,7.08-5.57,7.07-.8,0-1.35-.64-1.44-.64.35-.42.81-.76,1.17-1.17s.52-1.11.58-1.17c.11-.1.48.1.58,0,.48-.46,3.8-2.75,2.92-3.5-1.08.69-3.86-1.49-4.08-2.18-.15-.48.08-1.1-.01-1.33.92.69,1.74,1.68,2.92,1.75Z"/><path class="cls-3" d="M303.85,102.92l-.37,1.22c-.77.12-1.29-.64-1.38-.64l1.75-.58Z"/><path class="cls-3" d="M325.48,177.17l1.17,10.52-49.11,3.51c.72-3.79-1.74-7.93-1.75-11.69,16.63-.14,33.12-1.43,49.69-2.34ZM320.02,180.81c-3.22.27-2.61,4.84.46,4.57s2.72-4.84-.46-4.57Z"/><path class="cls-21" d="M249.48,179.5c1.19-.02,2.32-.55,3.51-.58.15.12.23.51.58.58v12.86c-8.6-.19-16.54-.3-25.14-1.17.39-1.18-1.19-2.32-1.06-3.1.08-.48.94-1.08,1.07-1.91.3-1.82-.64-5.64,0-7.85,5.81.68,15.31,1.27,21.05,1.17Z"/><path class="cls-3" d="M271.11,179.5l-.58,12.86c-6.11.29-11,.13-16.95,0v-12.86c3.52.78,13.21-.02,17.54,0Z"/><path class="cls-21" d="M275.79,179.5c.01,3.76,2.47,7.91,1.75,11.69-.02.12-.47.36-.58.58-2.4.02-4.3.48-6.43.58l.58-12.86c1.56,0,3.12.01,4.68,0Z"/><path d="M196.7,175.5c6.27-.98,6.51,14.84.45,15.17-6.82.37-5.98-14.31-.45-15.17ZM194.53,180.09c-.52,2.01-1.72,8.76,2.05,8.79,3.33.03,3.82-11.58.61-11.7-2.19.02-1.69,1.14-2.07,1.74-.26.41-.45.66-.58,1.17Z"/><path d="M225.41,186.43c-2.31,1.33-5.37-3.52-1.82-4.51s3.6,3.49,1.82,4.51Z"/><path class="cls-8" d="M385.1,160.8c-2.28-2.56-2.9-7.17-3.5-10.52l2.61,5.27.89,5.25Z"/><path class="cls-20" d="M288.06,50.31c2.62,9.7,6.79,11.69,13.08,18.21.64.67.83.54.95,1.67.02.19-.01.39,0,.58l-14.62.59-.58-5.85c.34-4.65-.58-9.42-1.17-14.03.53-1.06,1.13-1.41,2.34-1.17Z"/><path d="M286.89,65.51l.58,5.85,14.62-.59-14.62,2.92-2.32-.87c1.49-2,.95-4.22,1.16-6.45.09-.96.56-.82.57-.87Z"/><path class="cls-9" d="M289.82,81.29c0,.78,0,1.56,0,2.34-.57.16-.54.67-.58,1.17-.18,2.24,0,4.45.6,6.63l-2.36,2.14c-.77-.08-1.57.06-2.34,0l-.02-10.72c1.25-1.41,3.21-1.24,4.7-1.56Z"/><path d="M291.57,80.71c.6,2.01,2.18,9.08,1.69,10.72-.35,1.15-1.9,1.42-2.57.4-.54-.82-.81-5.66-.87-7.03-.01-.39,0-.78,0-1.17,0-.78,0-1.56,0-2.34.33-.07,1.01-.86,1.75-.58Z"/><path d="M301.47,79.57c1.25,3.79,1.37,7.7,1.21,11.67l-1.8-.34-1.11-11.35,1.71.03Z"/><path class="cls-14" d="M289.82,84.8h-.58c.04-.49.01-1.01.58-1.17,0,.39-.01.78,0,1.17Z"/><path class="cls-5" d="M288.06,50.31c-.61-2.27-.93-4.7-1.16-7.02.45-.61,5.99,10.39,6.54,11.29,3.46,5.64,7.21,10.32,12.16,14.74l-3.5.87c-.11-1.12-.3-1-.95-1.67-6.3-6.52-10.46-8.51-13.08-18.21Z"/><path class="cls-20" d="M295.66,74.86l14.6-1.47c-3.53,3.66-10.24,1.7-14.9,3.23l-.29-1.76c.19-.02.39.02.58,0Z"/><path d="M283.38,93.57l-1.8-.35c-.46-.63-1.36-8.2-1.43-9.6-.2-3.83,1.63-2.73,2.39.57.29,1.28,1.29,8.96.85,9.38Z"/><path class="cls-18" d="M336,191.2c-.81,3.36-.81,6.58,0,9.94-1.95.07-3.75.51-5.85.58-.55.02-1.66-.02-2.34,0-2.33.06-4.69-.01-7.02,0-2.02.01-4.76.33-6.43.58-1.7-.07-3.57-.08-5.26,0-1.21.06-2.06.56-2.34.58-1.97.14-3.89.28-5.85.58l-.83-.27-.93.27c-4.07.3-8.22.91-12.28,1.18-.67.04-1.26-.57-1.75-.01-2.54-.25-9.15.77-12.28.91-.86.04-1.66-.47-2.34.26-1.1-.08-1.81.83-2.92.88-.64.03-1.47-.18-1.75.58-1.11-.08-2.38-.04-3.51,0-1.04.04-1.77.91-1.84.91-.77.07-1.87-.71-2.64-.62,1.78-2.59,3.99-6.17,4.48-9.35,4.89-.19,9.73-.28,14.62-.58,10.41-.64,20.88-1.58,31.31-2.33,1.81-.13,1.5.26,1.43-1.76,7.3-.72,14.63-1.58,21.93-2.33,1.44-.15,2.98.15,4.38,0Z"/><path class="cls-3" d="M379.26,185.35c2.13,4.69,4.25,9.97,5.26,15.06-.97.03-2.96.09-4.68.14-2.6-1.06-6.4-.6-9.35-.58.24-2.08-3.67-2.55-3.51,0-.94.02-2.43-.35-2.92.58-9.43-.08-18.69.26-28.06.58-.81-3.36-.81-6.58,0-9.94,13.51-1.46,30.09-3.29,43.26-5.85Z"/><path class="cls-13" d="M219.66,193.54c17.48,2.11,35.3,2.18,52.93,1.78,1.46-.03,2.8-.57,4.36-.61v2.92c-4.89.3-9.73.4-14.62.58-14.1.54-28.03.83-42.09-1.17l-1.75.58c-.11-.24-.62-.27-.58-1.17,0-.14.66-2.68.74-2.79.22-.3.98-.09,1.01-.13Z"/><path class="cls-4" d="M388.03,183.01c0,2.55,1.21,4.51,1.75,7.02.17.78-.04,1.99.15,3.05.52,2.91,2.31,4.74.43,7.48-.97,0-1.95-.02-2.92,0-.19,0-.39,0-.58,0-.12,0-1.03-.18-2.34-.14-1.01-5.1-3.13-10.37-5.26-15.06,2.1-.41,5.99-1.71,8.77-2.34Z"/><path class="cls-8" d="M395.05,181.26c.29,2.85,1.83,5.7,3.2,8.2,2.14,3.9,6.03,7.51,7.18,11.68-4.58-.35-10.38-.59-15.06-.58,1.88-2.74.09-4.56-.43-7.48-.19-1.06.02-2.27-.15-3.05,1,.12,3.53,5.87,4.67,4.67-.25-2.23-1.72-4.11-2.2-6.27-.13-.58-.58-2.06.44-1.9l5.26,8.18-4.09-13.45c.35-.07.8.06,1.17,0Z"/><path class="cls-21" d="M309.69,193.54c.07,2.02.37,1.63-1.43,1.76-10.43.75-20.89,1.69-31.31,2.33v-2.92c4.77-.13,9.57.08,14.35.02l18.39-1.19Z"/><path class="cls-3" d="M393.88,181.26l4.09,13.45-5.26-8.18c-1.03-.15-.58,1.33-.44,1.9.49,2.16,1.95,4.04,2.2,6.27-1.14,1.2-3.67-4.56-4.67-4.67-.54-2.5-1.76-4.47-1.75-7.02,1.77-.4,3.92-1.37,5.85-1.75Z"/><path d="M219.66,193.54s-.79-.16-1.01.13c-.09.12-.74,2.65-.74,2.79-.94-.31-1.23-1.09-1.75-1.75v-1.17l3.5-2.92c-.13.68.21,2.61,0,2.92Z"/><path class="cls-5" d="M387.45,200.55c-.07,2.04-.36,1.61,1.43,1.76,5.05.4,10.26.18,15.52.58l-2.34,1.17c-3.55-.27-7,.49-10.52.58-7.4.2-14.82.33-22.22.58-1.17.04-2.34-.04-3.51,0-1.55.06-3.12-.06-4.68,0-12.49.5-25.22.97-37.7,1.76s-26.23,3.23-38.57,3.53c-4.45.11-10.94.17-14.35-2.95.39-.02.79.04,1.17,0,.5-.05,1-.01,1.17-.58,1.93-.11,3.63-.14,5.55-.29.43-.04.84-.29.88-.29,7.44-.64,15.06-1.31,22.51-1.75,2.14-.12,2.79-.3,4.78-.58.27-.04,2.46.27,2.52,0,2.63-.38,6.35-.68,9.19-.82,3.49-.16,7.34-.2,10.69-.35.39-.02.78.02,1.17,0,4.84-.22,9.77.16,14.62,0l.58-.58c11.04-.35,23.95-.9,34.81-.61,2.47.07,6.15,2.09,6.69-1.14.19,0,.39,0,.58,0Z"/><path class="cls-15" d="M391.54,204.64v1.76c-.34.29-3.09-.58-3.51.58-.19,0-.39,0-.58,0-.08,0-.64-.59-1.41-.61-4.19-.13-8.43.14-12.62.03l9.35,1.16c-3.5,0-7.03-.07-10.52,0v-1.17s-2.93,0-2.93,0v-1.17c7.4-.25,14.82-.39,22.22-.58Z"/><path class="cls-15" d="M365.82,205.23l-.34,1.76h-4.34s0-1.76,0-1.76c1.55-.06,3.12.06,4.68,0Z"/><path class="cls-5" d="M268.19,207.57l1.16.59v.57c-1.46-.18-3.66.59-4.67-.58,1.19-.14,2.32-.46,3.51-.58Z"/><path class="cls-15" d="M229.02,211.66c0,.19-.04.42,0,.58.07.28.31.5.58.58.04.17-.02.38,0,.58.04.38-.03.78,0,1.17-.96-.23-8.87-12.73-9.94-14.62,3.76,3.24,5.72,8.23,9.35,11.69Z"/><path class="cls-15" d="M231.36,214c-.45.47-1.12.74-1.75.58-.03-.39.04-.79,0-1.17.86-.43,1.66.58,1.75.58Z"/><path class="cls-20" d="M387.45,206.98v.58h-4.68l-9.35-1.16c4.19.11,8.42-.16,12.62-.03.78.02,1.33.61,1.41.61Z"/><path d="M357.05,177.17c.08.03.9-.67,1.72-.3,2.47,1.11,2.24,4.47-.55,4.98-.49-.92-4.6-2.54-1.17-4.68Z"/><path d="M394.38,171.4c1.58,2.51-2.25,5.15-3.74,2.25-1.34-2.6,2.88-3.62,3.74-2.25Z"/><path class="cls-7" d="M409.08,201.72l-1.17.58v-1.17c.98.16,1.1.57,1.17.58Z"/><polygon class="cls-15" points="312.03 113.44 311.16 113.44 309.7 111.11 310.56 111.11 312.03 113.44"/><path class="cls-15" d="M316.12,130.4l-1.11.25.52,2.08-4.09-.58v-1.73c1.27-.6,2.35.09,3.51-.6.33-.2.89-.83,1.17-1.17v1.75Z"/><path class="cls-15" d="M320.22,129.81v1.17c-1.26-.02-2.53.02-3.8,0l-.29-.58c1.42-.44,2.63-.51,4.09-.58Z"/><path class="cls-15" d="M320.22,142.67c-.36-1.44-3.5-9.94-2.92-10.52,2.23-2.24,3.32,7.72,4.7,8.51.15.85-.66,1.02-1.2,1.42-.21.16-.37.42-.58.58Z"/><path class="cls-5" d="M316.71,136.83h-3.51c-.05-.14-1.83-1.38-1.75-2.34.22-.31.07-1.43.87-1.74,1.23.8,4.72,2.24,4.39,4.08Z"/><path class="cls-5" d="M325.48,132.15l.59,3.5h-4.09c-.45-2.51,1.18-3.56,3.51-3.5Z"/><path class="cls-2" d="M317.29,140.34c-1.71.63-1.69,3.02-2.34,4.09-2.18-2.78,1.12-4.14,1.76-6.43,1.07-.1.48,1.61.58,2.33Z"/><path class="cls-2" d="M313.2,136.83c.15.41.11,1.72-.58,1.75-.55-1.04-1.57-2.02-2.34-2.92.22-.75.97-.89,1.17-1.17-.08.95,1.7,2.2,1.75,2.34Z"/><path class="cls-2" d="M316.71,136.83c-.03.16-1.93,2.04-2.33,2.34v-2.34s2.33,0,2.33,0Z"/><path d="M268.77,139.17c4.22.91,8.3-1.54,12.28-2.33-2.84,3.01-8.35,3.3-12.28,2.92v-.58Z"/><path class="cls-9" d="M268.77,139.17v.58c-.77-.07-1.57.05-2.34,0l-.58-1.75c1.27-.61,2.57,1.09,2.92,1.17Z"/><path class="cls-14" d="M281.92,136.24c.38.19.38.39,0,.58v-.58Z"/><path class="cls-14" d="M283.09,135.66c.38.19.38.39,0,.58v-.58Z"/><path d="M280.09,111.88c-1.12,1.41-1.63,2.63-1.38,4.49l-1.72-.63c-.26-3,2.2-4,4.36-5.21.56.81-.98.99-1.26,1.34Z"/><path d="M355.29,129.23c3.76.54,4.07,1.26,8.76.87,1.06-.09,2.02-1.05,1.76.89-.18.04-.4-.04-.58,0-.51.1-1.19-.05-1.75,0-2.12.17-2.45.21-4.68,0-.19-.02-.39.03-.58,0-3.13-.42-5.71-1.4-8.77-1.75v-.58c1.78.27,3.96.31,5.85.58Z"/><path class="cls-2" d="M289.23,137.41c-.38-.04-.78.03-1.17,0-.25-.73.54-1.04.58-1.17l.58,1.17Z"/><path d="M281.05,130.4c.12.17,1.42-.45,1.17.58-6.82,1.39-13.81,3.93-20.46.59,0-.19.02-.39,0-.58,6.55,2.55,12.72.36,19.29-.58Z"/><path class="cls-20" d="M261.76,118.71c0-3.23,3.08-4.69,5.84-5.27-.34,4.89,6.75,5.94,10.52,5.85.3,1.47-.3.94-1.2,1.47l1.2,3.21h-8.18c-3.52-.74-8.17-.4-8.18-5.26Z"/><path class="cls-18" d="M338.34,161.97c-1.39.21-2.54-.19-3.51.58h-.58v-.77c-.71-.75-1.92-.83-1.75-2.15,1.82.56,3.69,2.24,5.85,2.34Z"/><path d="M347.69,136.83l2.76.45,8.34,3.63c-4.09.34-7.83-1.96-11.1-4.09Z"/><path d="M283.97,146.18c2-2.23,6.48-3.42,8.77-5.85-.89,3.19-5.7,5.17-8.77,5.85Z"/><path d="M344.77,145.01c-.3,1.2-2.37-.04-2.86-.35-1.58-1-2.89-3.08-4.73-4.04,2.73,1.31,4.75,3.11,7.59,4.39Z"/><path class="cls-20" d="M365.23,130.98c-.08.88-1.67.88-1.75,0,.57-.05,1.25.1,1.75,0Z"/><path class="cls-20" d="M358.22,130.98c.19.03.39-.02.58,0l-.29.57-.29-.57Z"/><path d="M320.02,180.81c3.18-.27,3.41,4.3.46,4.57s-3.68-4.29-.46-4.57Z"/><path d="M271.5,183.37c3.18-.27,3.41,4.3.46,4.57s-3.68-4.29-.46-4.57Z"/><path class="cls-9" d="M194.53,180.09l.59,5.26c2.17,2.05,4.31-7.2,0-6.43.38-.6-.12-1.72,2.07-1.74,3.21.11,2.72,11.72-.61,11.7-3.77-.03-2.56-6.78-2.05-8.79Z"/><path class="cls-5" d="M195.11,178.92c4.32-.77,2.18,8.48,0,6.43l-.59-5.26c.13-.51.33-.76.58-1.17Z"/><path class="cls-21" d="M262.34,198.21c-.49,3.19-2.31,6.18-4.09,8.77-.19.02-.26,1-.46,1.02-.99.12-1.65.18-1.71.18-2.12.3-3.15.68-5.21,1.04-.97.17-2.63.41-2.7.43-3.32.61-5.42,1.07-8.8,1.3-.63.04-1.74.5-2.01,1.28-.35-.04-1.52-.48-1.87-.44-1.22.13-2.96.77-4.13,1.02-.38-.46-1.65-2.22-1.75-2.34-1.46-1.76-3.36-5.26-5.26-7.6-.63-.77-.41-1.09-1.75-2.34-.2-.19-.37-.42-.58-.58-.04-1.15-.74-1.89-1.75-2.34v-.58c14.06,2,27.99,1.7,42.09,1.17Z"/><path class="cls-7" d="M366.98,199.97c1.17-.03,2.34,0,3.51,0,2.96-.02,6.75-.48,9.35.58-5.32.15-10.57.04-15.78,0,.49-.94,1.98-.56,2.92-.58Z"/><path class="cls-18" d="M366.98,199.97c-.16-2.55,3.75-2.08,3.51,0-1.17,0-2.34-.03-3.51,0Z"/><path class="cls-7" d="M272.86,206.98c-.17.57-.67.54-1.17.58.16-.56.67-.56,1.17-.58Z"/><path class="cls-7" d="M344.77,202.89s.17-.57.58-.58l-.58.58Z"/><path class="cls-2" d="M229.6,212.83c-.28-.09-.52-.3-.58-.58.27.09.51.31.58.58Z"/><path d="M417.57,202.6s6.94,3.47,2.61,9.06c-3.18,1.16-8.52,1.49-9.19-1.47-.67-2.96-7.16-2.91-7.16-2.91,0,0-21.67,1.28-23.4,1.43s-74.28,4.24-82.44,5.35-59.14,3.7-63.71,6.95c-4.09,0-.97-1.92-.97-1.92,0,0,33.74-5.13,59.28-6.93,25.54-1.8,53.93-4.92,70.01-4.87,16.08.05,25.61-1.02,26.7-.95s22.64-1.11,23.55,1.23c.91,2.34,6.79,3.48,6.43,1.19s2.07.79-4.32-4.61c.84-1.11,2.62-1.55,2.62-1.55Z"/><path d="M218.49,194.16l5.27,7.8,5.23,7.75s1.52,3.41,5.13,2.1,10.5-2.32,10.5-2.32c0,0,29.83-4.63,36.65-4.79,7.06-.5,37.37-3.19,38.65-3.09s37.26-1.24,40.92-1.37,47.74-.56,51.59,1.89c1.9,1.93,4.2,2.05-.22,1.69s-22.03-1.74-24.77-1.59-47.71.66-53.19.91c-4.11.18-30.9,1.42-32.45,1.52s-30.11,2.92-30.11,2.92c0,0-27.43,2.95-28.11,4.24-1.07.1-11.27,3.9-14.56,1.2-1.92-2.62-11.42-15.29-11.7-17.13.41-.9,1.17-1.71,1.17-1.71Z"/><rect class="cls-1" width="617.49" height="644.18"/></g></svg>