<?xml version="1.0" encoding="UTF-8"?><svg id="Lager_2" xmlns="http://www.w3.org/2000/svg" viewBox="0 0 617.49 644.18"><defs><style>.cls-1{fill:none;}.cls-2{fill:#a3a3a4;}.cls-3{fill:#8ebb64;}.cls-4{fill:#a7a7a7;}.cls-5{fill:#b6b6b6;}.cls-6{fill:#383e32;}.cls-7{fill:#a5a5a5;}.cls-8{fill:#575758;}.cls-9{fill:#919296;}.cls-10{fill:#3b393a;}.cls-11{fill:#fff;}.cls-12{fill:#39492e;}.cls-13{fill:#a2a1a0;}.cls-14{fill:#413d3e;}.cls-15{fill:#8e8e92;}.cls-16{fill:#f2f2f2;}.cls-17{fill:#919194;}.cls-18{fill:#76bd79;}</style></defs><g id="hoodie"><path class="cls-11" d="M430.61,245.07c0,16.68-18.98,36.26-44.98,36.26s-46.4-18.95-46.4-35.63,20.4-35.63,46.4-35.63,44.98,18.32,44.98,35Z"/><path class="cls-16" d="M388.28,214.36c18.4,2.58,49.78,14.58,33.26,50.44-8.93,11.31-55.72,33.64-82.7-12.04-.9-11.47,5.49-26.42,8.72-28.5,9.15-5.87,22.32-12.49,40.72-9.9Z"/><path class="cls-11" d="M316.5,247.51c0,16.49-20.22,35.86-47.93,35.86s-49.44-18.74-49.44-35.23,21.74-35.23,49.44-35.23,47.93,18.11,47.93,34.61Z"/><path class="cls-16" d="M272.81,217.21c18.66,2.58,48.89,11.49,33.73,51.44-4.86,5.54-57.26,35.8-84.62-9.88-.91-11.47-.38-26.06,9.59-30.65s22.64-13.49,41.3-10.9Z"/><path d="M279.42,205.25c17.01,1.57,36.69,15,40.1,32.49.88,4.51-1.33,3.6-1.94,6.25-1.32,5.77.6,8.48-2.53,15.48-8.18,18.3-31.97,26.2-50.76,25.37s-43.45-12.35-46.15-33.71c-2.21,1.28-10.45,1.45-10.48-2.03-.02-2.28,4.3-1.21,6-1.58,4.05-.89,5.35-8.38,6.89-11.7,16.33-35.19,85.24-33.96,96.61,5.43,2.07-3.5-1.82-10.9-3.88-14.12-10.21-15.95-26.3-19.21-43.67-20.79-.64-.06-3.21-.26-3.27-1.09,4.23.28,8.9-.39,13.07,0ZM264.49,213.55c-54.5,3.24-58.61,61.93-3.58,67.7,19.38,2.03,49.03-6.44,53.02-28.72,4.83-26.99-27.48-40.29-49.44-38.98Z"/><path d="M392.96,204.09c0,1.01-2.54.64-3.22.6-1.81-.1-3.42-.66-5.17-.63-18.5.33-43.35,12.39-46.73,32.3-.32,1.88.67,4.18-.92,5.46-2.63-2.09-1.96-3.58-1.13-6.35,5.1-17,20.91-29.56,38.37-31.9,6.54-.88,12.29-.01,18.8.52Z"/><path d="M307.59,277.27c-10.64,12.73-25.65,16.74-41.81,13.93-.14-1.01,1.32-.55,2.02-.57,10.6-.43,19.13-1.22,28.78-6.07l11.01-7.28Z"/><path d="M391.8,287.72c-.22,1.06-1.14,1.07-2.01,1.18-13.43,1.6-27.27.2-37.43-9.66-.62-.6-1.48-.83-1.21-1.98,11.46,8.9,26.28,12.44,40.65,10.46Z"/><path d="M431.91,237.76c-2.85-11.04-12.63-17.9-12.63-17.9,0,0-7.67-7.86-24.9-10.56-17.23-2.7-32.07,4.21-32.07,4.21,0,0-30.52,14.15-23.47,39.26,7.02,25,32.61,30.61,52.96,28.91,20.35-1.69,32.46-15.71,34.85-18.12s8.11-14.75,5.26-25.79ZM423.86,262.32c-2.23,2.25-13.53,15.32-32.5,16.9s-42.84-3.65-49.39-26.96c-6.58-23.41,21.89-36.61,21.89-36.61,0,0,13.84-6.45,29.91-3.93,16.07,2.52,23.22,9.85,23.22,9.85,0,0,9.12,6.4,11.78,16.7,2.66,10.29-2.67,21.8-4.9,24.05Z"/><ellipse class="cls-18" cx="264.87" cy="246.7" rx="31.75" ry="30.59"/><ellipse cx="264.87" cy="246.7" rx="25.75" ry="24.8"/><circle class="cls-11" cx="278.11" cy="228.74" r="12.15"/><ellipse class="cls-18" cx="385.55" cy="243.64" rx="31.75" ry="29.52"/><ellipse cx="385.55" cy="243.64" rx="25.4" ry="23.61"/><ellipse class="cls-11" cx="398.8" cy="226.3" rx="12.15" ry="11.73"/><ellipse class="cls-18" cx="264.87" cy="246.7" rx="31.75" ry="30.59"/><ellipse cx="264.87" cy="246.7" rx="25.75" ry="24.8"/><circle class="cls-11" cx="278.11" cy="228.74" r="12.15"/><ellipse class="cls-18" cx="385.55" cy="243.64" rx="31.75" ry="29.52"/><ellipse cx="385.55" cy="243.64" rx="25.4" ry="23.61"/><ellipse class="cls-11" cx="398.8" cy="226.3" rx="12.15" ry="11.73"/><path d="M312.08,383.79s-10.78-1.11,17.16-11.68c6.67-3.31,21.64-13.49,26.8-14.6s32.73-8.37,36.92-9.63,20.5-12.06,22.78-13.71l2.28-1.65s10.36-3.22,11.91-10.43c.18-5.65,1.11-3-1.12-11.39,2.16-3.65,10.16-13.99-6.24-23.87,1.22-2.27,16.86-28.98,6.87-53.61-4.93-7.97-21.67-24.42-28.55-25.64-4.27-2.95-48.2-20.39-72.43-17.6-9.44.38-16.05.99-16.05.99l-3.65-6.76,39.05-9.05,42.52,20.22,23.55,10.64,24.87,32.64,7.91,35.57-.87,35.34-13.08,21.07-15.39,16.06-68.19,22.78-4.32,7.29-32.71,7.02Z"/><path d="M324.49,373.42s-41.2-17.72-56.74-21.63c-13.48-7.25-44.27-28.29-48.31-39.23s-10.72-22.52-5.8-46.25c5.26-24.07,28.18-54.97,54.18-63.11,26.34-8.48,29.18-11.74,47.53-12.36-1.79-10.55-29.8-10.34-29.8-10.34l-73.13,35.62-23.22,40.28,6.08,60.28,13.74,31.2,74.44,30.98,37.31,7.73s3.89-5.44,3.72-13.17Z"/><path d="M199.66,554.53s-1.95,5.01,5.65,4.57,16.34-4.57,16.34-4.57c0,0,15.26-3.37,17.68-3.65s23.89.02,25.13,2.36c2.22-3.76,3.81-6.93,3.81-6.93l-5.86-10.73-8.2-1.45-57.04,12.27,2.49,8.13Z"/><path d="M152.35,457.48l-.74-1.86c-.07-32.76,8.1-65.25,22.13-94.76.09-.96-2.01-2.2-2.34-4.18-.38-2.26.74-5.44.48-6.54s-3.58-3.06-4.1-5.75c-.49-2.54,1.13-4.88.8-6.32-.35-1.51-3.73-3.94-4.88-5.45-23.13-30.39-.5-90.45,13.73-121.49,14.67-32,39.74-57.24,74.66-66.98,51.47-14.35,108.66-3.96,144.54,36.67,3.43,3.88,7.39,10.45,10.82,13.68,3.08,2.9,8.49,5.79,12.04,8.82,16.87,14.4,31.03,38.7,34.55,60.57l-.93-1.22c-.24,0-2.08,3.71-2.18,3.94.33-1.44.04-3.93-.47-4.96-1.44-2.89-2.46-9.06-3.83-12.68-9.87-26.14-26.8-45.9-52.47-58.12l.62-.61c.8.36,2.69.89,3.88,1.35.56.22,1.77,1.1,1.67-.13-.98.08-1.18-.48-1.64-1.11-31.07-42.01-82.56-54.59-132.9-45.15-32.6,6.11-45.73,14.49-67.27,38.96-14.37,16.32-20.35,35.28-27.77,55.39-4.04,10.94-7.95,21.25-10.1,32.96-.16.89-.95,2.37.22,2.95-.04.04.04.54-.22,1.01-.1.18-.87.18-1,.66-.22.82.09,1.78-.01,2.6-.08.58.09,1.25,0,1.83-.21,1.35.02,1.68,0,1.83-1.38,12.31-2.21,23.06,1.54,35.31,7.25,23.66,37.11,32.64,59.56,34.08,1,.75-.01,1.1-.91,1.22-9.17,1.15-25.01-2.3-33.64-5.79-4.34-1.76-8.14-4.74-12.01-6.42-3.69-1.6-2.07,3.3-.33,5.2.44.48,9.63,6.19,6.46,6.41-1.25.35-4.05-2.05-4.95-.64-1.55,4.89,4.55,7.34,8.14,9.07,7,3.37,14.29,5.56,21.82,7.39,2.01.49,4.14.84,6.17,1.23v1.81c-.93-.47-2.19.59-2.47.61-.37.03-.87.05-1.23,0-.41-.05-2.23-1.01-3.09-1.22-2.15-.53-4.42-.76-6.17-1.22-7.12-1.86-14.12-4.67-20.98-7.3-9.89,21.31-17.31,44.58-20.29,67.95-.49,3.88-2.54,23.75-.57,25.65,6.67,1.2,11.49,4.28,17.14,7.44v2.43c-4.43-2.55-7.85-1.14-12.85-2.85-4.05-1.39-3.6-.07-7.63,0"/><path d="M447.53,459.85c-.87,8.38.16,16.92-.26,25.31-.42,8.39-2.26,16.71-4.96,24.63-.87-5.29.7-7.88,1.23-13.09,3.8-37.7-1.25-66.68-12.17-102.42-2.19-7.17-5.26-18.28-8.14-24.84-.25-.58-.36-1.09-.97-1.46l-4,3.34c3.26-5.41,7.76-10.88,4.3-17.35-1.25-.29-1.74.8-2.46,1.22-4.05,2.31-7.41,5.51-11.28,8.05-11.91,7.82-24.1,12.98-38.03,16.36-.18,1.39-.03,2.81-.06,4.2-.29,14.6,2.01,32.09,2.45,47.14.09,3.06,2.04,6.94,1.87,10.08,0,.13-.57,2.3-.62,2.43-.92,2.57-2.8,4.92-5.55,5.48-.98-2.11-3.68-2.64-4.32-4.87-.96-3.37.06-8.43-.61-11.14-.15-.62-3.2-1.3-3.71-6.22-1.1-10.8-.49-23.11-1.25-34.07-.24-3.42-1.11-7.18-1.23-10.65l-12.95.6,12.38-2.73-.03-6.39c.34-.3.7-1.7,1.53-2.45,3.31-2.97,7.36-2,10.81.01l.93,6.1c21.02-5.14,37.54-17.1,54.31-29.85l1.54-1.81c1.18.18,1.32-.79,1.85-1.22,8.69-7.05,16.28-13.39,21.32-23.71,7.96-16.3,5.61-37.94,2.09-55.17-.26-.73.53-1.17.66-1.46.1-.23.69-1.22.93-1.22l.93,1.22c.03.2-.03.41,0,.61.08.51,0,1.02.62,1.22.69,2.56.8,4.82,1.23,7.3l.62,2.43c.08.59-.06,1.23,0,1.83l.62,2.43c.01.8.06,1.64,0,2.43-.01.17-1.01.96-.61,1.82h1.23c.19,4.35-.15,8.76.03,13.12l-.64,3.32v1.22c-.15,1.35.21,2.98,0,4.26h-1.23s.61,1.22.61,1.22c-2.49,12.71-7.51,21.97-16.05,31.35-4.39,4.82-9.84,8.42-14.67,12.77,4.52,4.84.38,10.28.74,14.33.59,6.71,7.65,23.31,9.92,31.02,5.71,19.45,11.22,39.28,12.04,59.65M363.92,372.84c-1.46-.07-3.5.49-3.73,2.15.99,8.88,1.94,17.85,2.49,26.77.46,7.4-.39,18.16.66,24.91.65,4.17,3.81,2.88,6.64,1.45.34-.51.07-1.63.11-2.32l-3.08-50.83-.61-1.23c-.74-.47-1.59-.86-2.48-.9ZM368.24,432.49c-.54.11-1.26-.09-1.85,0l2.52,12.74h1.77c.16-.37-.07-.93.04-1.18.83-2.01,1.27-10.52-.59-11.92-.93-.81-1.57.29-1.88.36Z"/><path class="cls-14" d="M457.74,283.97h-1.23c-.39-.87.6-1.66.61-1.83.81.29.59,1.16.62,1.83Z"/><path class="cls-14" d="M457.12,279.71l-.62-2.43c.02.16.59,1.08.62,2.43Z"/><path class="cls-14" d="M457.12,305.88c-.17,1.02-.6,1.15-.62,1.22l-.61-1.21h1.23Z"/><path class="cls-14" d="M456.5,275.45l-.62-2.43c.09.5.46,1.28.62,2.43Z"/><path class="cls-14" d="M454.65,265.71c-.62-.19-.54-.71-.62-1.22.59.23.49.75.62,1.22Z"/><path d="M273.79,558.51c-.17-.16-3.39.07-4.47-.16-.31-.07-4.55-1.56-4.76-1.69-.72-.42-.48-3.21-.94-4.25-.57-1.3-3.42-2.32-3.38-4.27l4.32.61c-.33-2.96-.6-6.03-1.93-8.75-2.19-4.49-3.58-3.87-7.95-4.03-7.52-.28-14.94.86-22.22,2.43-9.4,2.03-20.34,7.86-28.39,9.13-.92.14-4.12-.2-4.32,0-.48,4.02.97,6.97,3.71,9.74-.87.22-1.84.91-3.09,1.22-.52.13-1.34-.13-1.85,0v-.61c1.05-1.37-.88-11.1-1.35-11.47-.35-.27-.93,0-1.12-.09-.45-3.78-1.69-2.63-3.1-4.55-3.62-4.91-3.48-9.51-3.71-15.26-.17-4.03-.6-8.61.03-12.45,1.51.36.79,2.16,1.85,3.04,1.25,7-.71,14.64,2.35,21.12,1.92,4.06,4.51,7.56,9.38,6.88,6.25-.87,18.59-7.83,25.92-9.74,7.98-2.08,18.94-3.05,27.16-2.43.88.07,2.39,1.09,3.7.61,1.37-7.98,1.23-15.91-4.94-21.92l-.62-4.87c-.58-.53-4.74,3.3-5.87,3.64-1.6.48-.85-1.7-.3-2.43.9-1.19,1.44-.71,2.47-3.04,7.79-6.99,1.14-19.22-.44-27.87-3.37-18.55-1.93-37.05-2.65-55.52-.1-2.49-.97-7.33,2.47-6.7.97,5.09.94,10.11,1.24,15.22.48,8.32-.2,17.53,2.46,25.27,4.49,13.07,16.01,25.23,25.93,34.38,2.45,2.26,4.55,5.06,7.4,7-.61.75-2.16.14-2.91-.17-4.45-1.88-12.82-9.84-16.22-13.53l-15.42-20.69c.34,2.78.3,6.05.68,8.75.73,5.12,2.67,10.11,3.63,14.98,1.04,5.26,1.25,9.26,1.23,14.61,0,.75-.64,1.79-.64,2.75-.01,6.1,6.49,12.58,6.83,20.66.13,3.14-1.12,7.01-.51,9.64.61,2.62,3.35,6.06,4.19,10.17.16.78.57,1.71.62,2.43.16,2.64-.53,4.26-1.23,6.69l26.23,2.43c5.04.04,10.08-.02,15.12,0,3.28.02,6.6.06,9.88,0,.62-.01,1.24.02,1.85,0,11.55-.29,23.09-1.12,34.56-2.43,3.55-.41,7.15-.8,10.7-1.32,3.38-.49,14.23-1.88,16.63-3.08,2.7-1.35-.1-2.66-.17-2.91-.14-.46-.02-1.78,0-2.43.23-7.94,8.43-14.25,11.41-21.92,1.6-4.11,1.8-8,2.79-12.16,2.89-12.16,5.15-24.51,8.64-36.52,0,.07.57.43.53.89-.79,9.79-2.86,19.56-4.27,29.28-.08,1.99,1.86,2.84,3.12,3.92,2.09,1.79,3.99,2.56,6.19,3.94.94.58,1.91.69,1.83,2.15-1.86-.36-3.92-.46-5.59-.88-2.36-.58-4.22-2.5-6.73-2.14-.96,7.83-3.99,14.89-7.43,21.89.14.15.91-.52,1.51-.5,3.32.12,6.9.26,10.21.5,8.61.61,16.97,3.09,25.31,3.65,1.38.09,2.92.04,4.32,0,1.6-.04,3.24.21,4.81-.13l5.07-8.39c0,.06.47.3.38,1.19-.34,3.07-2.15,5.96-4,8.36-.2,1.28,3.55,2.36,1.88,6.66-.33.85-1.2.82-1.31,1.27-.25,1,.38,2.9-.6,3.57l-3.13-.35c.68-.35,2.58-3.23,2.82-4.22,1.71-7.04-3.57-5.38-8.38-5.52-7.37-.2-13.14-.97-20.37-1.83-5.78-.68-10.99-1.74-16.99-1.24-6.72.56-8.84,3.89-8.04,10.41.71,1.01,6.72.55,8.37.57v1.83s-5.17-.03-5.17-.03c-.72.14-.29,1.15-.39,1.24-.22.21-.87.41-1.23.61-2.31,1.25-.52.88-1.36,2.3-1.32,2.22-6.44,3.4-8.94,4.89-1.72,1.02-2.52,2.81-4.51,3.16.41-1.2.71-2,1.61-2.98l3.63-3.11c-25.22,4.53-50.87,6.63-76.55,6.12l-27.44-1.85M251.9,461.09v.61c.4-.2.4-.41,0-.61Z"/><path d="M372.56,559.7c1.99-.35,2.79-2.14,4.51-3.16,2.5-1.49,7.62-2.67,8.94-4.89.84-1.41-.95-1.05,1.36-2.3"/><path class="cls-6" d="M429.35,558.48c-.18-.36-1.7-.55-1.23-1.82"/><path class="cls-6" d="M391.7,558.48c.32-.06.87-.03,1.23,0"/><path class="cls-9" d="M247.27,161.62c-3.22,2.07-7.88,5.46-10.78,7.93-9.27,7.89-15.89,19.14-21.92,29.51.2.7,1.36.2,1.89.04,4.29-1.29,9.19-4.1,13.55-5.51,1.87-.61,11.9-3.66,12.95-2.75.28,1.06-.44,1.22-.92,1.83-4.2,5.4-10.31,10.12-14.48,15.54-.44.57-2.59,2.66-1.26,3.32-28.58,23.57-40.27,73.15-26.54,107.13l-1.4,5.62c-1.68,1.6-2.35,4.63-1.59,6.79.31.87,1.71.81,1.81,1.36.08.44-1.87,4.75-2.07,4.94-2.3,2.15-9.99.07-12.52-1.69l-4.42,2.95-3.91-3.25c-.41-2.43,2.21-1.21,1.88-3.33l-3.13-.26c-.59-4.27-1.86-2.46-4.42-3.56-.58-.25-3.96-2.34-4.05-2.63.41-2-.44-4.65.61-6.54.7-1.26,1.98-.7,2.38-1.44,1.18-2.17,2.39-9.61-1.08-10.47-1.67-.41-2.08,1.61-3.59,1.78-2.99.34-1.49-1.91-1.81-3.09-.38-1.39-1.49-3.25-1.49-4.54,0-1.94,1.92-3.23,1.83-5.46-.08-1.9-2.24-5.7-2.39-7.43-.11-1.2,3.32-5.69-.75-5.07.02-.15-.21-.48,0-1.83l2.47-.31c.02-1.34-1.35-1.64-2.47-1.52.11-.82-.21-1.78.01-2.6.13-.48.9-.48,1-.66.26-.46.18-.97.22-1.01,1.36-1.48,2.53-1.58,4.57-1.79,1.53.38-.7,5.09,3.59,4.1,3.48-.8,1.8-2.79,2.31-4.93.16-.69,1.73-.76,1.87-1.35.16-.64-1.91-2.66-1.81-4.26.06-1,1.64-3.66,1.11-5.38-.28-.91-2.04-.7-1.86-1.9-.34-1.48,1.16-2.59,1.32-3.7.24-1.74.06-7.09.08-9.16.01-1.83.27-3.87.26-5.7,0-1.46.21-1.72-1.58-1.83,7.43-20.11,13.4-39.07,27.77-55.39,1.42.25,2.03-.12,3.12-.88,2.43-1.67,5.54-5.57,8.29-7.65,7.45-5.62,21.62-13.61,30.54-16.14,3.21-.91,5.69-1.55,6.8,2.14ZM168.89,304.67h-1.85v1.21h1.85v-1.21ZM189.26,321.71l3.09-.93-2.17-3.33c-1.6-.8-.73,3.68-.92,4.26Z"/><path class="cls-9" d="M194.19,357.62c3.86-.02,8.49.65,12.34,1.22v1.82s.92,0,.92,0l.31-1.83c2.49.39,6.07,1.25,8.64,1.83.19.04.44.57.62.61-1.22,3.74-2.26,4.98,1.9,6.95,2.1,1,6.32.89,6.62,1.05.4.21,2.55,3.45,3.65,4.02,1.82.94,4.9-.06,5.44.74l.29,9.75c1.46.51,2.29-.63,3.11-.9,2.89-.93,1.31,4.61,2.44,6.38,3.41.17,1.8-3.97,5.51-3.01l1.9,4.52c-1.21.98-2.3.77-1.85,2.75l4.31-1.21.93,3.04c2.04.4,1.21-2.05,3.63-1.15l4.08,5.41c-2.87-.09-5.8-.26-8.64-.61-1.24-.15-2.48-.38-3.7-.61-1.67-.31-4.76-.8-6.17-1.22-2.37-.7-6.67-2.63-9.26-3.65-.74-.29-1.75-.3-2.47-.61-1.41-.6-3.25-1.67-4.94-2.43-4.73-2.13-12.48-8.78-17.59-5.48-3.85,2.49-2.18,4.14-2.77,7.3-3.38,18-8.76,42.15-7.41,60.26l-2.15,2.43c-.38-1.82-3.02-2.28-3.27-2.56-.19-.21-.91-3.91-1.37-4.74h3.09s0-3.65,0-3.65l-3.08,1.82.62-3.94-1.55-.33c-1.9,2.57-.57,5.64-.37,8.29.23,2.95-1.93,4.96,3.79,4.14l1.8,5.6,3.73-.36c.37,2.01,1.23,3.67,1.23,5.48h-1.23s0,.91,0,.91c-.06.65,1.1.15,1.24.31,1.35,1.53,6.74,18.49,8.53,22.33,3.21,6.88,7.65,13.1,11.73,19.5.93,3.03-1.58,3.5-2.98,5.04l-.31-3.05-1.26,1.25c-2.55-1.57-3.95.52-6.44.57l.42-1.83c3.65-.72,4.6-6.48,2.68-9.29l-4.64-4.7c-2.34,2.56-.32,5.79.3,8.52l-6.39.59-.4,1.85-3.7-1.82c.78,2.99-1.2,6.12-1.17,8.75.04,3.91,1.82,4.7,1.3,10.42-.17,1.93,1.29,3.03-1.99,4.56-.32-1.89-1.46-10.51-1.84-11.17-.41-.73-1.13-.3-1.25-.4-1.06-.88-.34-2.68-1.85-3.04.68-4.18-.25-2.12-.62-4.26,3,.68,1.17-1.69,2.47-2.74.55-.44,2.1-.37,2.47-1.22l.02-1.22-1.28-.61,1.25-4.56c-1.96-.39-1.29,2.3-2.76,1.81-1.23-1.1-2.05-2.69-4.03-2.42-.08-.37.08-.85,0-1.22l1.24-3.65,6.17,1.22c-.65,5.5,4.59,4.41,2.47-.6,1.24-1.18,5.35,4.56,4.94,1.53-1.49-2.18-.82-8.72-3.08-9.79-1.03-.48-3.03,1.24-3.64-.67s1.48-5.66,1.19-7.79c-.11-.77-4.98-6.33-5.39-6.43-4.39-1.1-4.59,2.58-8.21,4.27-.16.08-.44-.07-.62,0,.39-1.72-.46-3.35-.62-4.87-1.06-10.28-1.25-22.85-.61-33.17.73-11.73,4.18-23.36,5.55-35-1.75-.31-1.01.41-1.39,1.34-5.46,13.44-6.56,29.07-7.89,43.37l.64,18.59c-1.09-.82-2.57-1.2-3.7-1.83-5.65-3.16-11.31-1.54-17.98-2.74-1.97-1.9.91-26.47,1.41-30.35,2.98-23.37,10.4-46.65,20.29-67.95,6.85,2.64,13.85,5.44,20.98,7.3l.62,4.87c2.37-2.06,7.75,1.04,5.55-3.65.86.21,2.67,1.16,3.09,1.22l.4.59.84-.59c.28-.02,1.54-1.08,2.47-.61v-1.81c-2.04-.39-4.17-.74-6.18-1.23-.07-2.62-2.56-2.06-4.03-3.02-1.31-.86-2.68-3.47-4.83-3.12-.72.12-.66,2.41-2.24,1.87l-.7-2.96c-2.34.34-6.1-1.44-4.26-4.05.92-.59,3.66-.28,4.95-.29ZM218.88,370.4c-2.22-1.96-2.58,3.97-.3,1.22.32-.39.46-1.07.3-1.22ZM218.26,374.06c-1.17-.19-2.05.71-1.85,1.82h1.85s0-1.82,0-1.82ZM207.15,374.66h-1.23v1.21h1.23v-1.21ZM220.73,378.32c-3.81-.65-.77,2.64,0,1.82v-1.82ZM231.23,381.97h-3.09s0,1.21,0,1.21l3.08.62v-1.82ZM187.4,465.97h-1.85v1.21h1.85v-1.21ZM196.04,470.83l-1.23-3.38-3.08.35c-.84,1.13,3.04,3.6,4.31,3.03ZM192.96,514.66h-1.85s.62,1.82.62,1.82l1.22-.92v-.9Z"/><path class="cls-5" d="M278.75,185.36l7.41-1.83-.62-3.04c2.59-1.01,4.02,2.04,5.83,1.86,1.3-.13,1.79-1.72,3.14-1.89,1.17-.14,2.31.62,3.53.49,7.82-.8,15.35-2.68,23.58-2.93,13.49-.41,24.88,2.45,37.65,3.09,1.62.08,5.59.66,5.31-1.2l.89-.05c1.56,2.38,3.41,2.64,5.87,1.22.1.37-.11,1,0,1.22.66,1.2,8.72,2.87,10.81,3.64,3.62,1.34,8.61,3.25,12.03,4.88,25.68,12.22,42.61,31.98,52.47,58.12,1.37,3.62,2.39,9.79,3.83,12.68.51,1.03.35.55.69,2.24-.12.29.11.73.37,1.46,3.52,17.24,5.86,38.88-2.09,55.17-5.04,10.32-12.64,16.66-21.32,23.71.28-3.26,4.26-5.2,6.2-7.6.45-.56.44-1.34.59-1.53,18.63-23.65,19.67-47.51,11.82-75.87-10.71-38.7-40.62-66.55-80.81-74.3-8.68-1.67-17.5-1.5-26.32-2.03l-.97,4.3c-59.9-3.01-131.66,25.26-130.85,93.74.02,1.62-.07,3.26,0,4.87.59,12.8,2.34,21.83,9.88,32.26.19.26.27.77.62,1.22,7.75,10.06,22.81,22.21,33.95,28.61.13,2.24,1.96,2.77,3.06,3.98.71.78,1.99,1.68,1.88,2.71-.72.59-14.62-4.03-16.66-4.87s-3.02-1.3-4.94-2.43c-30.29-17.9-38.52-46.66-35.17-80.03l3.08-17.36c8-19.37,14.83-31.64,32.71-43.83,7.88-5.37,16.73-9.46,25.2-13.82,1.1-.57,1.71.23,1.34-2.01,2.33-.88,2.24.58,4.94-1.22l11.11-3.65Z"/><path class="cls-15" d="M159.63,283.36c4.07-.62.64,3.87.75,5.07.16,1.72,2.32,5.52,2.39,7.43.09,2.23-1.83,3.52-1.83,5.46,0,1.29,1.11,3.15,1.49,4.54.32,1.17-1.18,3.43,1.81,3.09,1.51-.17,1.92-2.2,3.59-1.78,3.47.86,2.26,8.3,1.08,10.47-.4.73-1.68.17-2.38,1.44-1.04,1.89-.19,4.53-.61,6.54.09.29,3.47,2.38,4.05,2.63,2.56,1.1,3.83-.72,4.42,3.56l3.13.26c.33,2.12-2.29.9-1.88,3.33l3.91,3.25,4.42-2.95c2.53,1.75,10.22,3.83,12.52,1.69.2-.18,2.15-4.49,2.07-4.94-.1-.55-1.51-.49-1.81-1.36-.76-2.16-.09-5.19,1.59-6.79l1.4-5.62c2.2,5.46,6.75,11.31,10.49,15.83s5.23,6.94,10.49,9.74c.41.7-.02,1.98,1.85,1.83.2.21.42.4.62.61.96,1,4.3,4.41,5.55,4.26.58-.07,1.53-.93,2.46-.61l.93,3.04,3.4-6.08c1.92,1.13,2.88,1.59,4.94,2.43,0,1.53,1.44,2.02,2.52,2.69,14.04,8.63,29.36,13.43,44.38,19.84-2.17.59-3.47,4.58-3.09,6.69l-.85-.06c-18.12-5.92-36.49-13.4-55.16-17.44-3.64-.79-7.37-1.33-11.26-1.98-3.63-.61-6.92-.78-10.49-1.22-3.61-.44-8.35-2.63-12.34-.61-1.3,0-4.04-.3-4.95.29-1.84,2.61,1.92,4.39,4.26,4.05l.7,2.96c1.57.53,1.52-1.76,2.24-1.87,2.15-.36,3.52,2.26,4.83,3.12,1.47.96,3.96.4,4.03,3.02-7.53-1.83-14.83-4.02-21.82-7.39-3.58-1.73-9.69-4.18-8.14-9.07.9-1.41,3.7,1,4.95.64,3.16-.22-6.03-5.93-6.46-6.41-1.74-1.9-3.36-6.8.33-5.2,3.87,1.68,7.67,4.66,12.01,6.42,8.63,3.49,24.47,6.95,33.64,5.79.9-.11,1.91-.46.91-1.22-22.45-1.44-52.32-10.43-59.56-34.08-3.75-12.25-2.92-23-1.54-35.31Z"/><path class="cls-5" d="M265.79,145.19c50.34-9.44,101.83,3.14,132.9,45.15.46.63.66,1.19,1.64,1.11.1,1.22-1.11.34-1.67.13-1.19-.46-3.08-.99-3.88-1.35-3.89-1.76-6.62-3.35-11.11-4.87,1.9-3.41-2.41-6.31-4.97-8.18-27.5-20.09-72.32-32.11-106.12-30.77-2.01.08-5.85.69-6.79-1.22ZM387.69,184.75v.61c.4-.2.4-.41,0-.61Z"/><path class="cls-13" d="M265.79,145.19c.94,1.91,4.78,1.3,6.79,1.22l-1.24,6.7c-2.15-1.19-3.41.47-4.59.54-1.47.09-3.42-1.17-5.49-.45-.99.34-1.23,1.9-2.29,2.61-.94.63-2.29.54-3.06.94.24-1.98-.59-1.03-1.74-.81-2.44.46-7.66.63-5.04,4.46-.6.37-1.24.82-1.85,1.22-1.11-3.69-3.59-3.05-6.8-2.14-8.92,2.53-23.1,10.51-30.54,16.14-2.75,2.08-5.87,5.98-8.29,7.65-1.09.75-1.7,1.13-3.12.88,21.54-24.47,34.68-32.84,67.27-38.96Z"/><path class="cls-15" d="M170.74,239.53c1.79.11,1.57.37,1.58,1.83,0,1.83-.25,3.87-.26,5.7-.02,2.07.17,7.42-.08,9.16-.15,1.11-1.65,2.22-1.32,3.7-.18,1.2,1.58,1,1.86,1.9.53,1.72-1.05,4.38-1.11,5.38-.1,1.6,1.97,3.63,1.81,4.26-.15.59-1.71.66-1.87,1.35-.51,2.15,1.17,4.13-2.31,4.93-4.29.99-2.07-3.72-3.59-4.1-2.04.21-3.21.32-4.57,1.79-1.17-.58-.38-2.06-.22-2.95,2.15-11.72,6.06-22.02,10.1-32.96Z"/><path d="M173.83,464.14c1.12.63,2.61,1,3.7,1.83l-.64-18.59c1.33-14.31,2.43-29.94,7.89-43.37.37-.92-.36-1.65,1.39-1.34-1.36,11.65-4.82,23.27-5.55,35-.64,10.32-.45,22.89.61,33.17-2.56-1.19-4.96-2.86-7.41-4.26v-2.43Z"/><path d="M383.67,185.36c4.49,1.51,7.22,3.11,11.11,4.87l-.62.61c-3.42-1.63-8.4-3.54-12.03-4.88-2.09-.77-10.15-2.44-10.81-3.64,4.44-.51,8.35,1.7,12.34,3.04Z"/><path class="cls-15" d="M204.69,371.62c2.2,4.69-3.18,1.59-5.55,3.65l-.62-4.87c1.75.46,4.03.69,6.17,1.22Z"/><path class="cls-15" d="M159.63,279.71c1.12-.13,2.5.18,2.47,1.52l-2.47.31c.09-.57-.08-1.24,0-1.83Z"/><path class="cls-15" d="M209.01,372.84l-.84.59-.4-.59c.36.05.86.03,1.23,0Z"/><path class="cls-7" d="M420.09,360.05c-.48,2.82-3.51,7.21-4.17,10.2-.75,3.39,1.06,1.7,1.08,3.8l-1.23.6,1.26.32-1.26,3.02c1.12,1.48,3.11.42,4.37,1.79.28.31,2.38,5.48,2.73,6.43,2.73,7.46,4.28,15.51,6.99,23l-1.74,3.78,2.44.03c-.35,2,1.23,3.08,1.72,4.69,2.25,7.38,2.68,15.75,4.79,22.67,3.54,11.65,3.69,41.82,2.8,54.5-.29,4.14-2.14,8.82-1.91,12.78.19,3.32,2.17,6.49,2.5,10.02-2.69.12-1.42-3.44-2.93-4.26-1.84-1.01-8.71-2.37-11.16-2.85-2.97-.58-6.29-.34-8.75-.8-3.85-.72-8.67-3.22-12.96-3.04-1.96-3.41-.95-7.47-.61-11.25,1.05-11.58,4.18-22.88,5.54-34.4-.48-.63-2.86,4.37-3.08,4.87-1.31-.77-4.97-1.59-4.58-2.98,4.15-14.92,2.72-28.05,6.43-43.44.24-1,2.88-2.86,1.85-3.49.48-2.82.68-5.71,1.23-8.52l-1.9.36c-.01,1.14-.74,1.84-1.18,2.68-3.38,6.52-7.72,18.35-9.88,25.56-1.59-.33-1.26.76-1.68,1.66-2.73,6.02-5.84,13.3-8.82,19.03-5.18-1.57-10.44,4.78-3.7,6.09-.64,1.17-1.17,2.47-1.85,3.65l-3.7-.62c1.16-2.33,2.23-4.87-.92-6.11-1.27,0-1.85,1.66-2.81,2.15-.77.4-2.27.21-2.41.34-.37.35.33,4.41-.13,5.66-.29.81-1.27.91-1.71,1.39-.66.71-.74,2.36-1.9,1.14.92-2.41,1.21-3.12-1.22-4.26-.34-1.25,1.72-1.2,1.88-1.9.18-.78-.16-2.49-.97-2.65-1.25-.25-1.35,1.78-2.59,2.3-3.51,1.47-10.73-2.87-11.28,3.17l6.21.88c-.2,1.71,2.45,4.95,2.44,5.51-.01.72-.9,1.34-1.07,2.02-.64,2.54-.86,7.07-4.49,6.82l.61-3.04h-2.46s1.23,3.03,1.23,3.03c-2.73.34-4.31,5.31-3.07,7.45.4.69,1.44.71,1.74,1.46,1.16,2.85-1.53,1.93-2.81,2.85-.63.45-1,2.53-2.33,2.24-1.62-1.42.1-3.37-2.67-3.16-.38-4.51-4.36.71-3.85,3.13-2.52-.95-3.23,1.25-3.43,1.28-1.55.22-4.93-2.57-7.65-.64l-.58-3.3c-.87-1.26-2.91.64-3.41,1.51l-2.18,3.61c10.94-2.14,5.99,4.59,1.53,9.13-1.9.85.23-3.07-.3-3.64-3,.38-5.5,1.78-6.18,4.86l-4.97-2.8c-.24-2.13.12-3.54,1.88-4.82v-.89c-2.46.34-3.24-5.39-3.07-6.99.11-1.03,1.58-1.92,1.22-3.02-.24-.74-2.82-.86-1.84-3.39-3-.35-2.74,2.05-3.66,4-.74.32-3.72.85-3.12-.64.82-2.01,5-5.99,5.42-7.44s-.28-4,.27-4.92c.45-.76,4.99-3.5,6.04-2.56l-1.85,3.94c1.15,1.28,3.37,1.55,4.35,3.03.81,1.22.58,2.77,1.39,3.81,1.14,1.48,4.11,2.43,5.99,1.99.38-1.9-.89-1.05-2.09-1.2-1.83-2.37,2.27-2.19,2.68-3.44.27-1.02-.5-2.05-.46-2.97.19-4.19,4.21-6.6,7.9-7.61-.3,2.39-2.41,2.17-2.52,2.82-.23,1.38,1.45,3.67,2.93,3.77l3.29-1.11-.61,3.02c6.4,1.21-1.62,2.88-1.24,4.57.4,1.8,3.16.15,3.92.26.28.04,1.82,3.22,4.72,1.88-1.46-5.73,4.11-3.01,4.31-7.31l-4.96.33-2.47-5.81-2.77.02c-.48-.98-.29-2.04-.29-3.07,1.27.02,2.42.66,3.7.61v-4.87c-3.54-.26-3.7,1.29-3.7,4.26-1.64-.03-2.77.19-4.32.61.43-3.45-2.05-3.76-4.94-3.65v-2.44c-3.23-.73-5.12,1.28-8.02,1.83l1.19-3.89c-.18-.77-1.89-1.13-2.47-1.86-1.37-1.71.45-2.71-4.24-2.19-.46-.46-.76-4.99-.96-5.41-.38-.86-2.11-1.4-1.54-3.07l4.31.6c.61-.61-1.55-2.69-2.27-2.95-1.89-.68-1.3.97-2.03,1.42-2.31,1.43-6.86-.8-8.84-.21-1.41.42-1.36,2.92-3.95,2.82-1.13-.05-1.46-1.28-2.65-1.07l-2.8,4.87c-1.17.28-1.89-1.73-2.14-1.82,1.95-2.13,2.75-3.14,3.09-6.09,3,.65,3.28-1.9,4.3-3.91l-4.3-1.57c-.12-1.21-.39-2.45-.62-3.65,3.76-.05,2.28-6.1,3.09-6.69,2.2-1.6,1.5,6.49,3.69,4.86,1.01-.75-.1-3.87.12-5,.29-1.44,3.78-6.08,3.58-6.84-.17-.66-1.73-.7-1.88-1.36-.27-1.17.61-2.5.53-3.54-.19-2.62-1.51-5.31-1.19-8.13l-4.24-.7v2.44s-1.82-.03-1.82-.03l-1.54-4.93-3.44.08c-.05-1.01.04-2.03,0-3.04,3.62.71,4.52-2.07,6.45-4.31,1.46-1.7,3.02-.81,2.19-4.82,1.54-.23,1.98,2.13,3.38.6,1.67-1.83.29-3.12.51-4.46.16-.95,1.75-2.37,1.05-4.06,1.21-.32,1.63,1.23,2.67,1.13.86-.08,1.71-1.41,2.87-1.14-.03,1.19.3,2.68,1.86,2.44-.81-3.67,4.24-3.24,3.75-6.94-.08-.37-3.73-1.5-4.36-1.58-1.12-1.24-2.84-1.06-4.32-1.22.39-1.71-1.28-1.38-2.47-1.83-.6-.22-1.23-.37-1.85-.61v-1.21c-.57-.13-1.39.13-1.85,0-2.99-.9-5.8-3.53-9.26-3.04-.14-1.94-1.27-3.41-3.09-4.26.72-4.19,7.67-1.13,8.02-6.09,5.5,2.42,6.93,3.71,11.73,6.7l-.51.4c-.81,3.46,1.53,1.97,2.98,2.03.61.02,1.24-.04,1.85,0l.99,1.77c.56.16,1.28-.57,1.48-.55,1.49.11,2.76.62,4.32.61v1.22s1.54,0,1.54,0l.31-1.22c.4-.02.86.06,1.23,0-.85,1.96,1.02,2.39,1.18,2.9,1.77,5.4-3.19,5.39-1.19,10.47l-2.37.72-.08,3.56c2.07-1.22,5.19.22,6.38.05.28-.04,1.57-2.61,4.46-3.05,8.04-1.22,7.74.63,9.77,7.33l9.01,1.76c.31,2.32.32,6.26.62,9.13l-3.08.92c-.31,1.49,2.68,1,1.8,2.98-2.41,1.23-2.11,3.84-4.89,4.35-3.44.62-4.02-1.9-5.88-2.2-.58-.09-2.44,2.45-3.99,1.86v-2.44c-2.53-.36-3.23,1.91-3.67,3.92.41,1.59,5.09-.18,4.19,3.57-.45,1.88-3.96,2.68-4.13,2.96-.5.8.47,3.12-.67,3.91l-3.13.27.57,3.59c-4.44,1.38-5.5-.23-3.66-4.2l-4.93,1.22c1.15,1.76.67,4.6,2.48,5.17l-.31,1.53c-3.38,1.21-1.77,3.74-2.21,6.34-.23,1.35-1.57,2.79-1.25,4.19.14.6,1.52.54,1.81,1.39.31.92-.13,3.04.11,3.26.17.16,1.4-.11,2.01.14,1.04.42,1,2.35,2.9,1.71l1.32-5.4,3-.08c.85,3.83-1.14,4.26-4.32,5.48v1.83c2.74-1.1,5.01-1.53,8.03-1.21v-2.44s4.31.61,4.31.61c-.91-2.17,7.99-7.25,6.54-3-.57,1.68-2.99,2.67-4.4,3.55-.51.32-1.26-.34-.9,1.27,4.35-.82,3.29.93,4.51,2.24.73.78,2.37.91,2.29,2.63l4.32-2.24.58-4.42c-1.11-.06-2.71-.27-2.44-1.85,2.35,1.01,3.2-1.12,3.53-1.21.82-.22,1.81.09,2.64-.01,1.29-.17,3.17.53,3.7-1.22.19.05.42-.05.62,0,.64.16,1.14,1.21,2.15,1.23.57.01.35-1.53,1.31-1.79.46-.12,1.34.23,2.71-.05,2.76-.56,4.63-2.9,5.55-5.48l2.46-1.53v-.9s-1.85,0-1.85,0c.17-3.14-1.78-7.02-1.87-10.08-.44-15.05-2.74-32.53-2.45-47.14,2.56-.04,5.22-.61,7.68-1.25,10.39-2.71,19.91-6.43,28.68-12.5,4.46-3.09,8.41-7.1,13.02-9.99ZM328.12,397.79c-1.32-1.34-3.8,3.06-4.69,3.58-1.44.84-4.22.71-5.23,2.15-.37.53-2.35,6.53-2.7,7.69-.24.81-.32,1.54.6,1.78,2.61.69,1.73-2.5,2.53-3.1,1.35-1.11,5.53.62,6.42,1.58.92.99.42,2.94,1.84,3.66,3.36,1.71,4.65-2.09,3.4-2.15l-3.38.62c.64-2.36,2.65-2.64,1.72-5.65l-4.19-4.08c2.77.79,4.35.52,6.92-.67,1.03-.48.6-1.96,3.87-.54l.31-1.22c-2.5.21-1.28-3.74-3.38-3.67-.4.89-4.46,4.42-5.25,3.66-1.1-1.07,2.31-2.55,1.23-3.65ZM333.06,403.88h-1.85v1.21h1.85v-1.21ZM342.94,410.58c-.47-1.86,1.49-4.82-.62-5.79-.46-.21-5.17-.2-5.76-.09-1.8.35-3.17,2.2-2.86,4.01,1.67,1.27,3.58-.05,4.55.01.28.02,1.74,3.19,4.68,1.85ZM319.48,414.23c-.98-.97-2.82.85-1.85,1.82s2.82-.85,1.85-1.82ZM364.54,458.66c-1.23.28-4.42.89-3.69,2.73.99,2.52,4.71-.4,3.69-2.73ZM352.19,467.79h-1.23v1.21h1.23v-1.21ZM334.91,483.01h-1.23v1.82h1.23v-1.82ZM336.76,489.71c-2.22-1.96-2.58,3.97-.3,1.22.32-.39.46-1.07.3-1.22ZM328.13,502.48c.39.54,3.41.94,3.08-.9-1.01-2.03-3.9-.23-3.08.9Z"/><path class="cls-2" d="M434.9,335.1c-.15.19-.13.96-.59,1.53-1.94,2.4-5.92,4.35-6.2,7.6-.53.43-.67,1.4-1.85,1.22l-56.78,25.56c-3.45-2.01-7.51-2.98-10.81-.01-.83.75-1.19,2.15-1.53,2.45-1.06.91-15.13,8.37-16.64,8.85-1.94.6-4.74.69-6.81.9l.92,1.22,17.03,1.48c.65.46,2.78,13.59,3.04,15.56l-9.01-1.76c-2.03-6.7-1.73-8.54-9.77-7.33-2.89.44-4.18,3.01-4.46,3.05-1.19.17-4.32-1.27-6.38-.05l.08-3.56,2.37-.72c-2-5.08,2.97-5.07,1.19-10.47-.17-.51-2.03-.94-1.18-2.9,4.85-.77,11.38-6.98,15.86-9.62,27.45-16.19,55.69-10.55,81.04-36.64,1.72,1.55,4,.83,5.73,1.35,1.17.34,2.75,2.57,4.76,2.31Z"/><path class="cls-5" d="M420.09,355.18c.72-.41,1.21-1.5,2.46-1.22,3.46,6.47-1.04,11.94-4.3,17.35l4-3.34c.61.37.72.89.97,1.46,2.88,6.56,5.95,17.67,8.14,24.84,10.92,35.74,15.98,64.72,12.17,102.42-.53,5.21-2.1,7.81-1.23,13.09.1.59.6,1.09.62,1.22.73,4.99.78,9.12.62,14-.02.6.06,1.23,0,1.83l-5.07,8.39c-1.57.34-3.21.09-4.81.13.15-.41.52-.83.62-1.22,2.89-.28,1.8-2.11,1.85-3.04.16-2.96.75-3.35,1.23-5.48l2.46.26c.49-2.39.68-4.51.63-6.95,0-.4.04-.82,0-1.22-.33-3.54-2.31-6.71-2.5-10.02-.23-3.95,1.62-8.64,1.91-12.78.89-12.68.74-42.85-2.8-54.5-2.11-6.92-2.53-15.29-4.79-22.67-.49-1.61-2.08-2.69-1.72-4.69l-2.44-.03,1.74-3.78c-2.71-7.49-4.26-15.54-6.99-23-.35-.96-2.45-6.13-2.73-6.43-1.26-1.37-3.25-.32-4.37-1.79l1.26-3.02-1.26-.32,1.23-.6c-.03-2.1-1.83-.41-1.08-3.8.66-2.98,3.69-7.37,4.17-10.2.25-1.44-.17-3.34,0-4.87Z"/><path d="M443.93,542.1c-1.25,7.27-7.1,9.15-7.51,9.08-2.01-.36-8.07.72-11.11.64-8.32-.22-16.98-2.57-25.29-3.06-3.78-.22-7.63.15-11.41,0,.1-.09-.33-1.11.39-1.24l5.17.03v-1.83c2.86.04,5.79-.16,8.64,0l1.55,2.43h.91s0-1.82,0-1.82c.81.07,1.66-.07,2.47,0,0,.81,0,1.63,0,2.44,1.76.08,3.75.36,3.7-1.83,6.9.58,13.33,1.66,20.37,1.22,1.16-.07,4.08-.17,4.94-.61l3.13.35c.98-.67.35-2.57.6-3.57.11-.45.98-.41,1.31-1.27,1.68-4.3-2.07-5.38-1.88-6.66,1.85-2.4,3.66-5.29,4-8.36.1-.89-.38-1.13-.38-1.19.06-.6-.02-1.22,0-1.83,4.9.72,2.58-11.57,1.72-13.57-.61-1.41-1.27-1.17-2.34-.43-.02-.13-.52-.63-.62-1.22,2.7-7.91,4.54-16.23,4.96-24.63.42-8.39-.61-16.92.26-25.31"/><path class="cls-17" d="M357.13,373.44l.03,6.39-12.38,2.73,12.95-.6c.13,3.47,1,7.23,1.23,10.65.76,10.96.15,23.28,1.25,34.07.5,4.92,3.55,5.61,3.71,6.22.67,2.7-.36,7.76.61,11.14l-1.85,5.48c-.19-.05-.42.05-.62,0-1.57-.38-3.3-.64-4.94-.61-3.29-6.93.06-17.18-.13-24.65-.11-4.41-1.27-9.27-1.73-13.7-.3-2.87-.31-6.81-.62-9.13-.26-1.97-2.39-15.1-3.04-15.56l-17.03-1.48-.92-1.22c2.07-.2,4.88-.29,6.81-.9,1.52-.47,15.58-7.94,16.64-8.85Z"/><path class="cls-15" d="M426.26,345.45l-1.54,1.81c-16.76,12.75-33.29,24.71-54.31,29.85l-.93-6.1,56.78-25.56Z"/><path class="cls-15" d="M420.09,360.05c-4.61,2.89-8.55,6.9-13.02,9.99-8.77,6.07-18.29,9.79-28.68,12.5-2.47.64-5.12,1.21-7.68,1.25.03-1.4-.12-2.81.06-4.2,13.93-3.38,26.13-8.53,38.03-16.36,3.87-2.54,7.23-5.74,11.28-8.05-.17,1.53.25,3.42,0,4.87Z"/><path class="cls-7" d="M363.92,372.84c-.3,1.82.44,4.7,0,6.3-.15.54-1.13.35-1.19.44-.89,1.22.85,1.19.96,1.36,2.38,3.91,1.8,28.07,2.73,34.78.27,1.95,1.67,5.9,2.26,8.15.28,1.06-.38,2.29,1.41,1.93-.03.69.24,1.81-.11,2.32-2.83,1.44-5.99,2.73-6.64-1.45-1.06-6.75-.21-17.51-.66-24.91-.55-8.92-1.5-17.89-2.49-26.77.24-1.66,2.27-2.22,3.73-2.15Z"/><path class="cls-5" d="M370.1,425.79c-1.79.36-1.13-.87-1.41-1.93-.59-2.25-1.99-6.2-2.26-8.15-.93-6.71-.35-30.88-2.73-34.78-.11-.17-1.85-.14-.96-1.36.06-.08,1.04.11,1.19-.44.43-1.6-.31-4.48,0-6.3.88.04,1.74.43,2.48.9l.61,1.23,3.08,50.83Z"/><path class="cls-15" d="M368.24,432.49c1.73,3.76,1.55,7.64,2.47,11.56-.1.25.13.81-.04,1.17h-1.77s-2.52-12.74-2.52-12.74c.59-.09,1.31.1,1.85,0Z"/><path class="cls-5" d="M370.71,444.05c-.92-3.93-.74-7.8-2.47-11.56.31-.06.95-1.16,1.88-.36,1.86,1.4,1.42,9.92.59,11.92Z"/><path class="cls-13" d="M364.54,444.05c.64,2.23,3.34,2.76,4.32,4.87-1.37.28-2.25-.08-2.71.05-.96.26-.74,1.81-1.31,1.79-1.01-.02-1.51-1.07-2.15-1.23l1.85-5.48Z"/><path class="cls-13" d="M375.03,441.01h1.85s0,.9,0,.9l-2.46,1.53c.05-.14.61-2.31.62-2.43Z"/><path class="cls-2" d="M246.66,398.4c-1.25,4.38,1.17,7.74,0,12.17,4.74-.72,4.93,2.49,7.11,5.47,2.05.98-.37-4.87-.3-5.7.11-1.39,1.18-2.6,1.22-4.01-3.69.02-2.8-4.53-6.17-4.29-.56-1.83,1.99-.93,1.85-3.04,2.85.35,5.77.52,8.64.61,6.76.22,13.11-.02,19.75-1.22.82,10.87,1.22,21.68,1.26,32.59.03,7.53-.46,15.02,5.53,21.11,2.91,2.96,3.74,1.53,6.17,2.3.11.04.61,1.17,1.82,1.55,1.1.35,2.6.08,3.11.27.26.1.97,2.11,2.14,1.82l2.8-4.87c1.19-.2,1.52,1.03,2.65,1.07,2.59.11,2.54-2.4,3.95-2.82,1.99-.59,6.53,1.64,8.84.21.73-.45.14-2.1,2.03-1.42.72.26,2.88,2.34,2.27,2.95l-4.31-.6c-.57,1.66,1.16,2.2,1.54,3.07.19.43.5,4.96.96,5.41,4.7-.52,2.87.47,4.24,2.19.58.73,2.29,1.1,2.47,1.86l-1.19,3.89c2.9-.55,4.79-2.56,8.02-1.83v2.44c2.88-.11,5.37.2,4.93,3.65,1.55-.42,2.68-.64,4.32-.61,0-2.97.16-4.52,3.7-4.26v4.87c-1.28.06-2.43-.58-3.7-.61,0,1.03-.19,2.08.29,3.07l2.77-.02,2.47,5.81,4.96-.33c-.21,4.29-5.77,1.58-4.31,7.31-2.9,1.34-4.44-1.84-4.72-1.88-.76-.11-3.52,1.54-3.92-.26-.38-1.69,7.64-3.36,1.24-4.57l.61-3.02-3.29,1.11c-1.48-.1-3.17-2.39-2.93-3.77.11-.65,2.22-.43,2.52-2.82-3.68,1-7.71,3.42-7.9,7.61-.04.92.73,1.95.46,2.97-.41,1.25-4.51,1.07-2.68,3.44,1.21.16,2.47-.7,2.09,1.2-1.88.44-4.85-.52-5.99-1.99-.81-1.05-.58-2.59-1.39-3.81-.97-1.48-3.19-1.75-4.35-3.03l1.85-3.94c-1.04-.95-5.59,1.8-6.04,2.56-.55.92.16,3.41-.27,4.92s-4.6,5.43-5.42,7.44c-.6,1.49,2.38.96,3.12.64.92-1.95.66-4.35,3.66-4-.98,2.54,1.6,2.65,1.84,3.39.36,1.1-1.11,1.99-1.22,3.02-.17,1.6.61,7.33,3.08,6.99v.89c-1.77,1.28-2.13,2.69-1.89,4.82l4.97,2.8c.68-3.08,3.18-4.48,6.18-4.86.53.57-1.59,4.5.3,3.64,4.46-4.54,9.41-11.27-1.53-9.13l2.18-3.61c.5-.87,2.54-2.76,3.41-1.51l.58,3.3c2.72-1.93,6.1.86,7.65.64.2-.03.91-2.23,3.43-1.28-.51-2.42,3.46-7.64,3.85-3.13,2.77-.22,1.04,1.74,2.67,3.16,1.33.28,1.71-1.8,2.33-2.24,1.28-.92,3.98,0,2.81-2.85-.31-.75-1.35-.78-1.74-1.46-1.24-2.14.34-7.11,3.07-7.45l-1.23-3.03h2.46s-.61,3.04-.61,3.04c3.64.25,3.85-4.28,4.49-6.82.17-.68,1.06-1.3,1.07-2.02,0-.56-2.63-3.8-2.44-5.51l-6.21-.88c.56-6.04,7.78-1.7,11.28-3.17,1.24-.52,1.34-2.55,2.59-2.3.81.16,1.15,1.87.97,2.65-.16.71-2.22.66-1.88,1.9,2.44,1.14,2.14,1.85,1.22,4.26,1.16,1.22,1.25-.42,1.9-1.14.44-.48,1.42-.58,1.71-1.39.45-1.25-.24-5.31.13-5.66.14-.13,1.64.05,2.41-.34.97-.5,1.54-2.15,2.81-2.15,3.15,1.24,2.08,3.78.92,6.11l3.7.62c-2.17,3.73-4.57,7.5-6.9,11.15-1.72,2.68-9.05,11.82-9.61,13.65-.28.91-.79,3.43.77,3.2.91-.13,5.79-3.02,6.49-3.66-.58,4.64-6.55,7.88-4.94,12.78.21.62-.55,1.53.86,1.16,1.56-.4,4.21-2.56,5.61-3.61,9.71-7.3,24.36-26.25,28.1-37.72,2.38,1.83,2.11-1.88,4.32-1.83-.39,1.39-1.93,3.49-.62,4.26-1.11,2.53-1.67,3.92-1.85,6.7-3.49,12.01-5.76,24.36-8.64,36.52-8.38,4.69-16.72,7.67-26.3,9.07-31.09,4.55-76.23,3.32-103.63-12.71l-8.33-4.87c.01-5.35-.2-9.35-1.23-14.61l3.67-2.8,7.44-.24c3.4,3.69,11.77,11.65,16.22,13.53.75.31,2.3.93,2.91.17-2.85-1.94-4.95-4.74-7.4-7,.55-2.41-1.53-2.81-2.09-3.69-12.36-19.47-18.77-31.15-24.43-53.84-.31-1.25.02-2.15-1.87-2.12-.3-5.11-.26-10.13-1.24-15.22-3.44-.63-2.56,4.21-2.47,6.7-1.98,1.52-1.55,3.52-1.85,5.48-1.53-.43-2.31.87-3.09,1.22-.44.2-.81.4-1.23.61-.63.31-1.43-.8-1.26,1.5.17,2.42,2.31,3.4,1.89,5.81l-5.55,1.22-.68-2.38-3.96.58-1.51-1,2.44-6.32c-2.38-.12-4.22-1.31-6.65-1.68-.91-.14-1.68.47-2.23.44-.38-.02-.32-.96-.85-1.15-.75-.28-3.16-.29-3.25-1.01-.03-1.92,1.71-2.07,2.49-2.97.87-.99.9-2.99,2.16-2.79s4.51,2.68,4.02,4.28l3.08-.62c-.97,3.96,3.23,2.83,4.18,3.81.42.43,0,1.79,1.15,2.21,3.48,1.29,2.77-3.2,6.41-2.36l-3.12-10.01c3.26-.93,3.34-3.09,4.84-5.65l.16-1.05-1.3-.64c3.06-5.14-.33-3.74-1.66-5.32-.5-.59-.51-2.65-.81-2.86-.6-.43-2.32.53-3.26.4-1.03-.14-2-1.75-4.11-.43v-2.43c.4-.41,6.79,1.96,6.78-1.22,1.41.42,4.5.91,6.17,1.22Z"/><path class="cls-7" d="M203.45,392.31c3.45-1.01.67,3.63,2.77,3.03,2.59-.74,3.17-3.05,2.79-5.47,3.02-1.35,1.85,5.29,3.86,2.26.72-1.08.37-2.52,3.17-1.68.68.21.26,1.69.96,2.19.75.54,2.95.28,3.99.91l2.83-3.06c1.69.76,3.52,1.84,4.94,2.43-.65.82-1.97.07-1.84,1.47.34,3.89,4.49,2.39,4.31-.87,2.59,1.02,6.89,2.95,9.26,3.65,0,3.18-6.39.81-6.79,1.22v2.43c2.11-1.32,3.07.29,4.11.43.94.13,2.66-.82,3.26-.4.3.21.31,2.27.81,2.86,1.34,1.58,4.73.18,1.66,5.32l1.3.64-.16,1.05c-1.5,2.57-1.57,4.72-4.84,5.65l3.12,10.01c-3.64-.83-2.93,3.65-6.41,2.36-1.14-.42-.73-1.78-1.15-2.21-.95-.98-5.15.15-4.18-3.81l-3.08.62c.49-1.6-2.78-4.08-4.02-4.28s-1.29,1.8-2.16,2.79c-.78.9-2.52,1.05-2.49,2.97.09.72,2.5.73,3.25,1.01.53.19.47,1.13.85,1.15.56.03,1.32-.58,2.23-.44,2.44.37,4.28,1.56,6.65,1.68l-2.44,6.32,1.51,1,3.96-.58.68,2.38,5.55-1.22c.42-2.41-1.71-3.39-1.89-5.81s.64-1.18,1.26-1.5v1.21s1.23,0,1.23,0v-1.82c.78-.34,1.56-1.65,3.09-1.22-.06.39.04.82,0,1.22h-1.23c-.07.8.07,1.63,0,2.43-.03.4.02.81,0,1.22h-1.23c-.36.79.61,1.7.61,1.83.03,10.92-1.82,21.58-.61,32.56.89,8.09,3.03,13.16,5.23,20.41,1.82,5.99,4.81,12.24,2.17,18.25-1.02,2.33-1.57,1.86-2.47,3.04-3.31-1.17-6.81,1.78-9.77,2.84-1.5.54-9.05,2.27-9.37,2.64-.2.24-.09,1.85.61,2.14,1.23.84,8.71-.15,10.65-.47,3.98-.67,9.12-2.99,12.81-3.49l-1.81,3.27c6.87,5.09,5.58,10.49,4.9,18.04-8.21-.62-19.18.35-27.16,2.43-.72-3.38-3.73-4.29-4.77-7.77-1.52-5.09,1.39-5.93,1.41-10.48-.46-.66-.98-1.13-1.84-1.18-1.75-.1-10.55,2.53-11.46,1.77.46-1.79,2.43-3.47,3.7-4.87,1.4-1.54,3.9-2.01,2.98-5.04-4.08-6.4-8.53-12.62-11.73-19.5-1.79-3.84-7.18-20.8-8.53-22.33,0-.41,0-.81,0-1.22,0-1.81-.86-3.47-1.23-5.48-.35-1.88-1.11-5.02-1.23-6.7-1.35-18.11,4.02-42.26,7.41-60.26ZM213.32,395.36c-2.43,0-2.46,2.41,0,2.43v-2.43ZM230.53,400.92l-2.39-.09c-.71,2.61,1.46,8.19,3.71,3.99l-1.32-3.9ZM213.94,403.88c-2.22-1.96-2.58,3.97-.3,1.22.32-.39.46-1.07.3-1.22ZM235.78,412.16c-1.14-1.22-2.88-3.56-4.61-1.34s.71,3.87.56,4.8c-.11.69-1.6,1.6-1.12,2.86,2.34-.42,6.89-1.74,6.8-4.6-.04-1.18-1.08-1.14-1.63-1.72ZM240.48,411.19c-.98-.97-2.82.85-1.85,1.82s2.82-.85,1.85-1.82Z"/><path class="cls-17" d="M396.02,509.18c-.99,4.16-1.19,8.05-2.79,12.16-2.98,7.67-11.18,13.99-11.41,21.92-17.29.68-34.5,1.62-51.84,1.22h-2.47c-.41,0-.82,0-1.23,0-2.26,0-4.53,0-6.79,0-1.44,0-2.88,0-4.32,0h-6.17l-41.35-.61c-.84-4.11-3.58-7.54-4.19-10.17-.61-2.63.64-6.5.51-9.64-.34-8.08-6.84-14.56-6.83-20.66,0-.97.64-2,.64-2.75l8.33,4.87c27.4,16.04,72.54,17.26,103.63,12.71,9.58-1.4,17.91-4.38,26.3-9.07ZM278.13,534.14c-2.84.27-5.92-.37-8.65.91,0,.48,6.28.37,7.15.33.8-.04,1.41-.63,1.49-.63,26.22-.98,52.54,1.58,78.7.61,2.01-.07,20.71-.3,20.68-1.53-7.89-.7-15.87-.11-23.79-.28-26.33-.55-49.01-1.92-75.58.58Z"/><path class="cls-3" d="M392.93,558.48c-.37-.03-.91-.06-1.23,0"/><path class="cls-3" d="M428.12,556.66c-.47,1.28,1.05,1.47,1.23,1.82"/><path class="cls-17" d="M194.19,528.66c3.27-1.53,1.81-2.63,1.99-4.56.51-5.72-1.26-6.51-1.3-10.42-.03-2.63,1.96-5.77,1.17-8.75l3.7,1.82.4-1.85,6.39-.59c-.61-2.73-2.63-5.95-.3-8.52l4.64,4.7c1.92,2.81.97,8.57-2.68,9.29l-.42,1.83c2.49-.05,3.9-2.14,6.44-.57l1.26-1.25.31,3.05c-1.27,1.4-3.24,3.07-3.7,4.87.91.76,9.71-1.87,11.46-1.77.86.05,1.38.52,1.84,1.18-.02,4.54-2.92,5.39-1.41,10.48,1.04,3.48,4.05,4.39,4.77,7.77-7.33,1.91-19.67,8.87-25.92,9.74-3.9-4.29-7.14-6.69-8.48-12.64-.3-1.33.03-2.67-.16-3.79Z"/><path class="cls-4" d="M417.62,514.05c3.62.04,12.1,2,13.86,5.51,2.32,4.64-2.28,10.77-2.13,15.8-8.33-.56-16.69-3.04-25.31-3.65.6-3.66,1.49-15.82,5.37-16.92,1.55-.44,3.29.07,4.86-.1.79-.08,1.41-.63,1.49-.64.62-.02,1.24,0,1.85,0Z"/><path class="cls-13" d="M381.82,543.27c-.02.65-.14,1.97,0,2.43-3.9,3.98-13.87.9-17.86,3.41-2.39,1.5-2.38,1.62-5.97,2.01-1.62.17-3.44-1.78-3.33,1.89-11.47,1.32-23.01,2.15-34.56,2.43-.67-2.62,3.73-2.6,2.16-4.89-.24-.35-1.39-.36-1.55-1-.6-2.37.41-2.17,2.48-2.02v2.44s1.81-.04,1.81-.04l1.28-5.44c.41,0,.82,0,1.23,0v1.83s2.16,0,2.16,0l.31-1.83c17.34.4,34.55-.54,51.84-1.22Z"/><path class="cls-7" d="M308.99,544.48l1.92,8.46,1.78.06c-3.2-8.11,9.02-4.35,6.79-1.83l-3.09.92,1.86,3.35c-3.28.06-6.6.02-9.88,0,.34-1.93-.98-1.08-2.15-1.2-12.88-1.26-26.08-2.78-37.97-7.93-.04-.73-.46-1.66-.62-2.43l41.35.61Z"/><path class="cls-5" d="M250.36,504.92c2.64-6.01-.36-12.26-2.17-18.25-2.2-7.25-4.33-12.32-5.23-20.41-1.21-10.97.64-21.64.61-32.56.81-.3.58-1.16.62-1.83.02-.4-.03-.82,0-1.22,1.35-.39,1.11-1.35,1.23-2.43.04-.39-.06-.83,0-1.22.3-1.96-.12-3.96,1.85-5.48.72,18.46-.72,36.96,2.65,55.52,1.57,8.66,8.22,20.88.44,27.87Z"/><path class="cls-17" d="M232.46,538.4c.87,1.98-2.14,1.73-1.2,3.02.05.06.89-.15,1.17.47.8,1.75.98,5.38,2.49,7.47-8.05,1.54-16.12,4.67-24.07,6.7-.82.21-1.65.4-2.47.61l1.22-3.63-4.92-.64-.62-4.86c8.05-1.27,18.99-7.1,28.39-9.13Z"/><path class="cls-2" d="M254.68,535.96c5.1,2.45,5.32,6.41,4.94,11.56-8.14-.14-16.69.29-24.69,1.83-1.51-2.09-1.69-5.72-2.49-7.47-.29-.62-1.13-.41-1.17-.47-.94-1.28,2.07-1.03,1.2-3.02,7.28-1.57,14.7-2.72,22.22-2.43Z"/><path class="cls-15" d="M250.98,430.05c1.88-.04,1.55.87,1.87,2.12,5.67,22.69,12.07,34.38,24.43,53.84.56.88,2.65,1.28,2.09,3.69-9.92-9.15-21.44-21.31-25.93-34.38-2.66-7.74-1.98-16.95-2.46-25.27Z"/><path class="cls-13" d="M431.2,537.79c-.41,1.87,1.64,1,2.19,1.78,1.28,1.79-1.04,6.53-1.57,8.57-7.04.44-13.47-.63-20.37-1.22-1.11-.09-2.35-.48-3.7-.61.05-3.83,1.19-7.11,3.09-10.35,7.23.85,12.99,1.62,20.37,1.83Z"/><path class="cls-9" d="M410.83,535.96c-1.9,3.23-3.04,6.51-3.09,10.35-.81-.07-1.66.07-2.47,0-.33-.03-1.19-.54-2.47-.61-2.85-.16-5.78.04-8.64,0-1.65-.02-7.66.44-8.37-.57-.8-6.52,1.32-9.85,8.04-10.41,6-.5,11.22.56,16.99,1.24Z"/><path class="cls-9" d="M412.07,512.83c1.3.25,2.72.08,3.7,1.22-.08,0-.7.55-1.49.64-1.57.17-3.31-.34-4.86.1-3.89,1.09-4.77,13.26-5.37,16.92-3.31-.24-6.89-.38-10.21-.5-.6-.02-1.37.65-1.51.5,3.44-6.99,6.46-14.06,7.43-21.89,2.51-.35,4.37,1.56,6.73,2.14,1.67.41,3.74.52,5.59.88Z"/><path class="cls-9" d="M417.62,509.79c2.46.46,5.78.23,8.75.8,2.45.48,9.32,1.84,11.16,2.85,1.51.82.24,4.38,2.93,4.26.04.4,0,.82,0,1.22-3.43.37-2.58,4.44-3.09,6.7-.48,2.13-1.07,2.52-1.23,5.48-1.9-.38-1.54,1.78-1.85,3.04-.1.38-.47.81-.62,1.22-1.4.04-2.94.09-4.32,0-.15-5.02,4.45-11.16,2.13-15.8-1.75-3.51-10.23-5.47-13.86-5.51v-4.26Z"/><path class="cls-9" d="M267.64,483.01l-7.44.24-3.67,2.8c-.96-4.88-2.9-9.86-3.63-14.98-.39-2.7-.34-5.97-.68-8.75l15.42,20.69Z"/><path class="cls-17" d="M268.26,546.31c11.88,5.15,25.09,6.67,37.97,7.93,1.17.11,2.5-.73,2.15,1.2-5.03-.03-10.08.03-15.12,0l-26.23-2.43c.7-2.43,1.39-4.05,1.23-6.69Z"/><path class="cls-9" d="M247.89,507.96c-.55.73-1.3,2.91.3,2.43,1.13-.34,5.29-4.17,5.87-3.64l.62,4.87c-.6.05-1.26-.08-1.85,0-3.7.5-8.83,2.82-12.81,3.49-1.94.33-9.42,1.31-10.65.47-.7-.29-.81-1.9-.61-2.14.31-.37,7.87-2.1,9.37-2.64,2.96-1.06,6.46-4.01,9.77-2.84Z"/><path class="cls-17" d="M404.66,506.75h-.62c-1.26-1.08-3.2-1.94-3.12-3.92,1.41-9.71,3.48-19.49,4.27-29.28.04-.46-.54-.82-.53-.89.18-2.78.74-4.17,1.85-6.7.22-.5,2.6-5.5,3.08-4.87-1.36,11.52-4.49,22.81-5.54,34.4-.34,3.78-1.35,7.84.61,11.25Z"/><path class="cls-5" d="M254.68,511.62c6.17,6,6.3,13.94,4.94,21.92-1.31.48-2.83-.55-3.7-.61.68-7.55,1.97-12.94-4.9-18.04l1.81-3.27c.59-.08,1.25.05,1.85,0Z"/><path class="cls-2" d="M315.17,544.48l2.78,3.04,1.54-3.04c2.26,0,4.53,0,6.79,0l-1.28,5.44-1.8.04v-2.44c-2.07-.15-3.09-.34-2.48,2.02.16.64,1.31.65,1.55,1,1.57,2.3-2.83,2.27-2.16,4.89-.62.02-1.23-.01-1.85,0l-1.86-3.35,3.09-.92c2.23-2.52-10-6.28-6.79,1.83l-1.78-.06-1.92-8.46h6.17Z"/><path class="cls-4" d="M191.11,517.09c.13.1.84-.33,1.25.4.37.66,1.52,9.27,1.84,11.17.19,1.13-.14,2.46.16,3.79,1.34,5.95,4.58,8.35,8.48,12.64-4.87.68-7.46-2.82-9.38-6.88-3.06-6.47-1.1-14.12-2.35-21.12Z"/><path class="cls-5" d="M354.67,553.01c-.11-3.66,1.71-1.71,3.33-1.89,3.59-.38,3.58-.5,5.97-2.01,3.99-2.51,13.96.56,17.86-3.41.08.25,2.88,1.56.17,2.91-2.4,1.2-13.25,2.58-16.63,3.08-3.55.52-7.14.91-10.7,1.32Z"/><path class="cls-5" d="M436.75,547.53c-.86.44-3.78.54-4.94.61.54-2.04,2.86-6.77,1.57-8.57-.55-.77-2.6.09-2.19-1.78,4.81.13,10.08-1.52,8.38,5.52-.24.99-2.14,3.87-2.82,4.22Z"/><path class="cls-13" d="M204.07,547.53l.62,4.86,4.92.64-1.22,3.63c-.97.25-2.29.26-3.7.61-.36.09-.87-.09-1.23,0-2.74-2.77-4.18-5.72-3.71-9.74.21-.2,3.41.15,4.32,0Z"/><path class="cls-5" d="M254.68,535.96c4.37.16,5.76-.45,7.95,4.03,1.33,2.71,1.6,5.78,1.93,8.75l-4.32-.61-.62-.61c.38-5.16.16-9.12-4.94-11.56Z"/><path class="cls-15" d="M417.62,509.79v4.26c-.62,0-1.24-.02-1.85,0-.98-1.13-2.41-.97-3.7-1.22.08-1.47-.89-1.57-1.83-2.15-2.2-1.37-4.1-2.14-6.19-3.94h.62c4.29-.18,9.11,2.32,12.96,3.04Z"/><path class="cls-9" d="M251.9,461.09c.4.2.4.41,0,.61v-.61Z"/><path class="cls-10" d="M210.86,556.05c-.24,2.97-3.4,2.31-5.55,3.04.04-.21-.68-1.31-.62-1.83,1.41-.35,2.73-.36,3.7-.61.82-.21,1.65-.4,2.47-.61Z"/><path class="cls-4" d="M383.67,185.36c-4-1.35-7.91-3.55-12.34-3.04-.12-.21.1-.85,0-1.22-2.46,1.42-4.31,1.15-5.87-1.22l-.89.05c.28,1.86-3.69,1.28-5.31,1.2-12.76-.64-24.15-3.51-37.65-3.09-8.23.25-15.76,2.13-23.58,2.93-1.21.12-2.36-.64-3.53-.49-1.36.17-1.85,1.76-3.14,1.89-1.81.18-3.24-2.87-5.83-1.86l.62,3.04-7.41,1.83c.18-2.13-.49-1.02-1.56-.63-3.26,1.19-6.83,2.47-9.54,4.28s-2.6.34-4.94,1.22c-9.7,3.65-18.52,9.35-27.16,15.22-3.08,2.09-6.32,3.67-9.26,6.09-1.33-.66.82-2.75,1.26-3.32,4.17-5.42,10.29-10.15,14.48-15.54.47-.61,1.2-.77.92-1.83-1.05-.91-11.08,2.14-12.95,2.75-4.36,1.41-9.26,4.22-13.55,5.51-.53.16-1.68.66-1.89-.04,6.04-10.36,12.65-21.62,21.92-29.51,2.9-2.47,7.57-5.86,10.78-7.93.61-.39,1.25-.85,1.85-1.22,2.08-1.27,4.6-2.53,6.79-3.65.76-.39,2.12-.31,3.06-.94,1.06-.71,1.3-2.27,2.29-2.61,2.07-.72,4.02.54,5.49.45,1.18-.08,2.44-1.74,4.59-.54l1.24-6.7c33.8-1.34,78.63,10.69,106.12,30.77,2.56,1.87,6.88,4.77,4.97,8.18Z"/><path d="M235.55,205.45l.62.61c-17.88,12.18-24.71,24.45-32.71,43.83-3.55,8.61-7.25,17.55-8.01,27.1-1.33,16.5,5.09,43.64,15.42,56.9l-.62.61c-3.74-4.52-8.29-10.37-10.49-15.83-13.73-33.98-2.04-83.55,26.54-107.13,2.94-2.42,6.18-3.99,9.26-6.09Z"/><path class="cls-15" d="M189.26,321.71c.19-.58-.68-5.06.92-4.26l2.17,3.33-3.09.93Z"/><rect class="cls-15" x="167.04" y="304.67" width="1.85" height="1.21"/><path class="cls-15" d="M217.03,361.27c15.26,3.58,29.99,8.65,45.06,13.08,7.32,2.15,14.81,3.81,22.15,5.85l-.58,22.79c2.33,7.68-1.86,30.68,2.85,36.14.74.85,2.24,1.08,2.62,2.29,1.08,3.44-1,9.27,2.58,12.97-2.43-.77-3.26.66-6.17-2.3-5.99-6.09-5.5-13.58-5.53-21.11-.04-10.91-.44-21.72-1.26-32.59-6.64,1.2-12.99,1.44-19.75,1.22l-4.08-5.41c-2.42-.9-1.59,1.55-3.63,1.15l-.93-3.04-4.31,1.21c-.44-1.97.64-1.76,1.85-2.75l-1.9-4.52c-3.71-.97-2.09,3.18-5.51,3.01-1.13-1.77.44-7.31-2.44-6.38-.83.27-1.65,1.41-3.11.9l-.29-9.75c-.53-.8-3.61.2-5.44-.74-1.11-.57-3.25-3.81-3.65-4.02-.3-.16-4.52-.06-6.62-1.05-4.16-1.97-3.12-3.21-1.9-6.95Z"/><path d="M217.03,359.44c3.89.66,7.63,1.19,11.26,1.98,18.67,4.04,37.03,11.52,55.16,17.44l.85.06c-.38-2.11.92-6.1,3.09-6.69.59-.16,2.3-.04,3.09,0,1.3.06,1.85.03,3.09.61,1.81.85,2.95,2.32,3.09,4.26.13,1.78-.47,3.17-.61,4.87.4.05.84-.06,1.23,0-.18.42-.44.8-.62,1.22-1.09,2.64-.57,5.64-.62,8.52-.09,5.43-.19,11.01,0,16.43.04,1.01-.05,2.03,0,3.04.36,7.46,3.2,17.61,3.11,24.06-.04,3.21-.85,1.46-.02,5.76.23,1.2.5,2.44.62,3.65.14,1.5.17,4,0,5.48-.33,2.94-1.14,3.96-3.09,6.09-.51-.19-2.01.08-3.11-.27-1.21-.39-1.71-1.52-1.82-1.55-3.59-3.71-1.5-9.53-2.58-12.97-.38-1.21-1.88-1.43-2.62-2.29-4.71-5.46-.52-28.46-2.85-36.14l.58-22.79c-7.34-2.04-14.84-3.69-22.15-5.85-15.07-4.43-29.8-9.5-45.06-13.08-.18-.04-.42-.56-.62-.61l.62-1.22ZM287.39,380.75c-.91,13.61-.79,32.91-.03,46.59.09,1.58.79,8.65,1.41,9.26,1.04,1.03,4.4.84,5.59.15.74-.43.33-1.07.43-1.22.23-.32,1.15-.29,1.19-1.46-4.28-18.12-3.53-36.99-1.82-55.4-.2-2.22-2.28-3.75-4.49-3.32-2.37,1.22-2.14,3.22-2.29,5.4ZM296.03,450.75c2.84-1.14.34-10.53-1.01-10.91l-3.31.57c-.25.64.6,1.13.62,1.21.39,2.96-.29,6.61,1.04,9.61.54,1.23,1.17.6,2.05.74.06,0,.11.58.3.6l.31-.6c-.06-.38.11-.94,0-1.22Z"/><path class="cls-17" d="M182.47,475.7c3.62-1.69,3.82-5.37,8.21-4.27.41.1,5.28,5.66,5.39,6.43.3,2.13-1.82,5.8-1.19,7.79s2.61.18,3.64.67c2.26,1.06,1.6,7.6,3.08,9.79.41,3.04-3.7-2.71-4.94-1.53,2.12,5.01-3.12,6.1-2.47.6l-6.17-1.22-1.24,3.65c-.08-.39-1.22-1.43-1.06-2.28l-3.26-19.63Z"/><path class="cls-2" d="M223.82,390.49l-2.83,3.06c-1.03-.62-3.24-.37-3.99-.91-.7-.5-.27-1.98-.96-2.19-2.8-.84-2.45.6-3.17,1.68-2.01,3.03-.84-3.6-3.86-2.26.38,2.43-.2,4.73-2.79,5.47-2.09.6.68-4.05-2.77-3.03.59-3.17-1.08-4.82,2.77-7.3,5.11-3.3,12.87,3.35,17.59,5.48Z"/><path class="cls-7" d="M250.36,399.01c.13,2.1-2.41,1.21-1.85,3.04,3.37-.25,2.48,4.31,6.17,4.29-.03,1.41-1.1,2.62-1.22,4.01-.07.83,2.35,6.69.3,5.7-2.18-2.99-2.37-6.19-7.11-5.47,1.17-4.43-1.24-7.79,0-12.17,1.22.23,2.47.46,3.7.61Z"/><path d="M181.54,474.13c.18-.07.45.08.62,0l3.57,21.2c-.16.85.98,1.89,1.06,2.28s-.08.85,0,1.22c.67,3.24,2.57,12.39,3.18,15.64-1.4-.2-3.3-5.08-3.79-6.82s-.36-4.16-.78-5.93c-1.02-4.36-2.52-8.7-3.36-13.12-.76-3.96-1.61-11.25-2.56-15.18.22-1.01,1.53.92,2.07.7Z"/><path class="cls-17" d="M197.28,459.27l-3.73.36-1.8-5.6c-5.72.82-3.56-1.19-3.79-4.14-.21-2.65-1.53-5.72.37-8.29l1.55.33-.62,3.94,3.08-1.82v3.65s-3.08,0-3.08,0c.45.82,1.18,4.53,1.37,4.74.25.28,2.89.74,3.27,2.56l2.15-2.43c.13,1.68.88,4.81,1.23,6.7Z"/><path class="cls-17" d="M186.79,498.83c1.98-.27,2.8,1.33,4.03,2.42,1.47.49.8-2.21,2.76-1.81l-1.25,4.56,1.28.61-.02,1.22c-.37.85-1.92.78-2.47,1.22-1.3,1.04.53,3.41-2.47,2.74-.07-.38.07-.84,0-1.22-.61-3.25-1.18-6.5-1.85-9.74Z"/><path d="M217.03,359.44l-.62,1.22c-2.57-.58-6.15-1.43-8.64-1.83-.39-.06-.84.06-1.23,0v-.61c3.57.43,6.86.6,10.49,1.22Z"/><path d="M206.54,358.23v.61c-3.85-.56-8.49-1.24-12.34-1.22,3.99-2.03,8.74.17,12.34.61Z"/><path class="cls-2" d="M231.23,393.53c.17,3.25-3.97,4.76-4.31.87-.12-1.41,1.2-.65,1.84-1.47.72.31,1.73.32,2.47.61Z"/><path class="cls-17" d="M196.04,470.83c-1.28.57-5.16-1.9-4.31-3.03l3.08-.35,1.23,3.38Z"/><polygon class="cls-15" points="231.23 381.97 231.22 383.79 228.14 383.17 228.14 381.97 231.23 381.97"/><path class="cls-15" d="M218.88,370.4c.16.14.02.83-.3,1.22-2.27,2.76-1.92-3.17.3-1.22Z"/><path class="cls-15" d="M218.26,374.06v1.82s-1.85,0-1.85,0c-.2-1.11.68-2.01,1.85-1.82Z"/><path class="cls-15" d="M220.73,378.32v1.82c-.77.82-3.81-2.47,0-1.82Z"/><rect class="cls-17" x="185.56" y="465.97" width="1.85" height="1.21"/><path class="cls-15" d="M207.77,358.84l-.31,1.83h-.92s0-1.83,0-1.83c.39.06.84-.06,1.23,0Z"/><polygon class="cls-17" points="192.96 514.66 192.95 515.56 191.73 516.48 191.11 514.66 192.96 514.66"/><path class="cls-17" d="M198.51,464.75c0,.41,0,.81,0,1.22-.14-.16-1.3.34-1.24-.31v-.9s1.24,0,1.24,0Z"/><rect class="cls-15" x="205.92" y="374.66" width="1.23" height="1.21"/><path class="cls-4" d="M338.62,187.19l.97-4.3c8.82.53,17.64.36,26.32,2.03,40.19,7.75,70.09,35.6,80.81,74.3,7.85,28.36,6.81,52.22-11.82,75.87-2.01.26-3.6-1.96-4.76-2.31-1.73-.51-4.01.2-5.73-1.35,14.56-14.98,19.19-34.43,17.9-54.78-.03-.4.03-.82,0-1.22-.47-5.79-.93-12.48-3.13-16.8l.7-2.34-1.3-.68.65-1.74c-4.81-12.59-8.55-24.5-18.2-35.06-18.64-20.4-55.33-30.28-82.4-31.64Z"/><path class="cls-9" d="M235.55,347.27l-3.4,6.08-.93-3.04c-.93-.32-1.88.54-2.46.61-.32-1.74-3.64-3.89-5.55-4.26-.2-.21-.42-.4-.62-.61-.7-.74.42-.62-1.85-1.83-1.99-3.4-7.21-6.93-9.88-10.35-10.33-13.26-16.75-40.4-15.42-56.9.77-9.55,4.46-18.49,8.01-27.1l-3.08,17.36c-3.35,33.37,4.88,62.13,35.17,80.03Z"/><path class="cls-13" d="M289.86,362.49c.29,3.27-2.95,1.9-2.51,5.17.47,3.51,3.57,1.34,3.13,4.57-.79-.04-2.5-.16-3.09,0-15.02-6.4-30.34-11.21-44.38-19.84-1.08-.67-2.53-1.15-2.52-2.69,2.05.84,15.94,5.45,16.66,4.87.12-1.03-1.17-1.93-1.88-2.71-1.1-1.21-2.93-1.74-3.06-3.98,11.35,6.52,25.29,10.38,37.65,14.61Z"/><path d="M262.7,190.23c.38,2.24-.24,1.44-1.34,2.01-8.47,4.36-17.33,8.45-25.2,13.82l-.62-.61c8.64-5.87,17.46-11.57,27.16-15.22Z"/><path class="cls-15" d="M267.64,189.01c2.72-1.82,6.28-3.1,9.54-4.28,1.08-.39,1.74-1.5,1.56.63l-11.11,3.65Z"/><path d="M220.73,344.23c2.27,1.21,1.15,1.09,1.85,1.83-1.87.16-1.44-1.12-1.85-1.83-5.26-2.8-6.85-5.34-10.49-9.74l.62-.61c2.66,3.42,7.88,6.95,9.88,10.35Z"/><path d="M223.2,346.66c1.92.37,5.24,2.52,5.55,4.26-1.25.15-4.59-3.26-5.55-4.26Z"/><path class="cls-4" d="M387.69,184.75c.4.2.4.41,0,.61v-.61Z"/><path class="cls-9" d="M249.12,160.41c-2.61-3.83,2.6-4.01,5.04-4.46,1.15-.22,1.99-1.17,1.74.81-2.19,1.12-4.71,2.39-6.79,3.65Z"/><path class="cls-2" d="M355.28,410.57c.45,4.42,1.62,9.29,1.73,13.7.18,7.47-3.16,17.72.13,24.65.31.65.89,1.19,1.23,1.83-.83.11-1.82-.21-2.64.01-.33.09-1.18,2.21-3.53,1.21-.26,1.59,1.33,1.79,2.44,1.85l-.58,4.42-4.32,2.24c.08-1.72-1.56-1.84-2.29-2.63-1.22-1.32-.16-3.06-4.51-2.24-.37-1.6.39-.95.9-1.27,1.41-.88,3.83-1.87,4.4-3.55,1.44-4.25-7.46.83-6.54,3l-4.32-.61v2.44c-3.02-.32-5.28.11-8.02,1.21v-1.83c3.18-1.22,5.17-1.65,4.32-5.48l-3,.08-1.32,5.4c-1.9.64-1.86-1.29-2.9-1.71-.61-.25-1.85.02-2.01-.14-.24-.22.2-2.34-.11-3.26-.29-.85-1.67-.79-1.81-1.39-.33-1.4,1.02-2.84,1.25-4.19.44-2.61-1.17-5.14,2.21-6.34l.31-1.53c-1.82-.57-1.33-3.41-2.48-5.17l4.93-1.22c-1.84,3.97-.79,5.59,3.66,4.2l-.57-3.59,3.13-.27c1.14-.79.17-3.11.67-3.91.17-.28,3.69-1.08,4.13-2.96.89-3.75-3.78-1.97-4.19-3.57.45-2.01,1.15-4.28,3.67-3.92v2.44c1.56.58,3.41-1.96,3.99-1.86,1.86.3,2.44,2.83,5.88,2.2,2.78-.5,2.48-3.12,4.89-4.35.88-1.98-2.11-1.49-1.8-2.98l3.08-.92Z"/><path class="cls-5" d="M368.24,503.7c-1.62-4.9,4.36-8.14,4.94-12.78,6.37-5.84,16.37-24.62,19.42-32.89,2.68-7.26,3.73-14.68,5.89-21.89,2.16-7.21,6.49-19.04,9.88-25.56-.63,5.75-2.48,11.25-3.51,16.93-1.43,7.9-1.83,16.04-3.57,23.87-4.5,20.33-17.65,38.6-33.04,52.33Z"/><path d="M408.36,410.57c.44-.84,1.17-1.54,1.18-2.68l1.9-.36c-.56,2.81-.75,5.7-1.23,8.52-2.47,14.54-3.09,34.22-7.41,47.48-3.74,11.47-18.39,30.42-28.1,37.72-1.4,1.05-4.05,3.21-5.61,3.61-1.41.36-.65-.54-.86-1.16,15.4-13.73,28.54-31.99,33.04-52.33,1.73-7.83,2.14-15.97,3.57-23.87,1.03-5.68,2.88-11.18,3.51-16.93Z"/><path class="cls-9" d="M398.49,436.14c-2.16,7.21-3.21,14.62-5.89,21.89-3.05,8.28-13.05,27.05-19.42,32.89-.7.64-5.58,3.52-6.49,3.66-1.56.23-1.05-2.29-.77-3.2.56-1.84,7.89-10.97,9.61-13.65,2.34-3.64,4.74-7.42,6.9-11.15.68-1.18,1.21-2.48,1.85-3.65,1.19-2.17,2.63-4.01,3.7-6.09,2.97-5.73,6.09-13.01,8.82-19.03.41-.91.09-1.99,1.68-1.66Z"/><path class="cls-2" d="M316.4,385.01c.63.08,4.28,1.21,4.36,1.58.49,3.7-4.56,3.27-3.75,6.94-1.56.25-1.88-1.25-1.86-2.44-1.16-.28-2.01,1.06-2.87,1.14-1.05.1-1.46-1.45-2.67-1.13.7,1.68-.89,3.11-1.05,4.06-.22,1.34,1.16,2.63-.51,4.46-1.4,1.53-1.83-.83-3.38-.6.83,4.02-.73,3.13-2.19,4.82-1.93,2.24-2.83,5.02-6.45,4.31-.19-5.43-.09-11,0-16.43,4.56-.83,8.58-3.68,13.09-5.53.46-.19.48-1.04.92-1.14,1.15-.26,5.03-.18,6.35-.02Z"/><path class="cls-2" d="M296.03,411.18l3.44-.08,1.54,4.93,1.81.03v-2.44s4.24.7,4.24.7c-.32,2.82,1.01,5.51,1.19,8.13.07,1.03-.8,2.37-.53,3.54.15.66,1.71.71,1.88,1.36.2.76-3.29,5.4-3.58,6.84-.23,1.13.89,4.25-.12,5-2.19,1.62-1.49-6.47-3.69-4.86-.81.59.67,6.64-3.09,6.69-.82-4.31-.02-2.56.02-5.76.09-6.45-2.75-16.6-3.11-24.06Z"/><path class="cls-2" d="M328.12,397.79c1.08,1.1-2.33,2.57-1.23,3.65.79.76,4.85-2.77,5.25-3.66,2.11-.07.88,3.88,3.38,3.67l-.31,1.22c-3.27-1.41-2.84.07-3.87.54-2.56,1.18-4.15,1.46-6.92.67l4.19,4.08c.92,3.01-1.08,3.29-1.72,5.65l3.38-.62c1.25.06-.04,3.87-3.4,2.15-1.41-.72-.92-2.67-1.84-3.66-.89-.96-5.06-2.7-6.42-1.58-.79.6.08,3.79-2.53,3.1-.92-.24-.84-.97-.6-1.78.35-1.17,2.33-7.17,2.7-7.69,1.01-1.44,3.79-1.31,5.23-2.15.9-.52,3.37-4.92,4.69-3.58Z"/><path class="cls-2" d="M301.59,366.75c-.36,4.96-7.3,1.89-8.02,6.09-1.23-.58-1.79-.55-3.09-.61.44-3.23-2.66-1.06-3.13-4.57-.43-3.27,2.8-1.9,2.51-5.17,4.46,1.53,7.29,2.31,11.73,4.26Z"/><path class="cls-15" d="M305.91,380.14c.27,1.12,1.11.93,1.85,1.22.62.24,1.25.38,1.85.61-.05.6.07,1.23,0,1.83.79.1,1.67-.08,2.47,0,1.48.16,3.2-.02,4.32,1.22-1.32-.16-5.2-.24-6.35.02-.44.1-.47.95-.92,1.14-4.51,1.85-8.53,4.7-13.09,5.53.05-2.88-.48-5.88.62-8.52,4.33.39,8.58,1.58,12.97,1.21.04-.2-.03-.41,0-.6-4.08-.52-8.27-1.19-12.34-1.83-.39-.06-.83.04-1.23,0,.14-1.7.74-3.09.61-4.87,3.46-.49,6.27,2.14,9.26,3.04Z"/><path class="cls-2" d="M342.94,410.58c-2.94,1.34-4.4-1.83-4.68-1.85-.98-.06-2.89,1.25-4.55-.01-.32-1.82,1.05-3.66,2.86-4.01.59-.12,5.3-.12,5.76.09,2.12.97.15,3.94.62,5.79Z"/><path class="cls-2" d="M387.99,456.83c-1.08,2.08-2.51,3.92-3.7,6.09-6.73-1.31-1.48-7.66,3.7-6.09Z"/><path class="cls-2" d="M299.74,450.14c.17-1.47.14-3.98,0-5.48l4.3,1.57c-1.02,2.01-1.3,4.56-4.3,3.91Z"/><path class="cls-2" d="M364.54,458.66c1.02,2.33-2.71,5.25-3.69,2.73-.72-1.84,2.47-2.45,3.69-2.73Z"/><path class="cls-2" d="M313.31,373.44c.69.43,2.09-.89,2.47,2.43-1.45-.06-3.79,1.43-2.98-2.03l.51-.4Z"/><path class="cls-13" d="M362.07,449.53c-.53,1.75-2.41,1.05-3.7,1.22-.34-.63-.93-1.18-1.23-1.83,1.64-.03,3.36.22,4.94.61Z"/><path class="cls-2" d="M328.13,502.48c-.82-1.13,2.07-2.93,3.08-.9.33,1.84-2.69,1.44-3.08.9Z"/><path class="cls-2" d="M309.61,381.97c1.19.44,2.86.12,2.47,1.83-.8-.08-1.68.1-2.47,0,.07-.59-.05-1.23,0-1.83Z"/><path class="cls-2" d="M319.48,414.23c.98.97-.87,2.79-1.85,1.82s.87-2.79,1.85-1.82Z"/><path class="cls-2" d="M336.76,489.71c.16.14.02.83-.3,1.22-2.27,2.76-1.92-3.17.3-1.22Z"/><path class="cls-2" d="M320.1,377.1c-.19-.01-.91.71-1.48.55l-.99-1.77c.98.07,1.9.36,2.47,1.22Z"/><rect class="cls-2" x="331.22" y="403.88" width="1.85" height="1.21"/><path class="cls-2" d="M326.27,377.71l-.31,1.22h-1.54s0-1.22,0-1.22c.62,0,1.24.03,1.85,0Z"/><rect class="cls-2" x="333.68" y="483.01" width="1.23" height="1.82"/><path class="cls-2" d="M305.91,380.14c.46.14,1.29-.12,1.85,0v1.21c-.74-.28-1.58-.1-1.85-1.22Z"/><rect class="cls-2" x="350.97" y="467.79" width="1.23" height="1.21"/><path d="M442.93,511.01c1.07-.74,1.73-.98,2.34.43.86,2,3.18,14.29-1.72,13.57.16-4.88.12-9.01-.62-14Z"/><path class="cls-7" d="M440.46,518.92c.06,2.45-.14,4.56-.63,6.95l-2.46-.26c.51-2.25-.34-6.32,3.09-6.7Z"/><path class="cls-7" d="M436.14,531.09c-.05.94,1.04,2.76-1.85,3.04.31-1.26-.05-3.42,1.85-3.04Z"/><path d="M411.45,546.92c.04,2.19-1.94,1.91-3.7,1.83,0-.81,0-1.63,0-2.44,1.35.12,2.59.51,3.7.61Z"/><path d="M405.28,546.31v1.82s-.92,0-.92,0l-1.55-2.43c1.27.07,2.14.58,2.47.61Z"/><path class="cls-4" d="M242.34,428.23v1.82s-1.23,0-1.23,0v-1.21c.42-.21.79-.41,1.23-.61Z"/><path class="cls-2" d="M235.78,412.16c.55.59,1.59.54,1.63,1.72.09,2.86-4.46,4.18-6.8,4.6-.47-1.25,1.02-2.16,1.12-2.86.15-.93-2.36-2.48-.56-4.8s3.47.12,4.61,1.34Z"/><path class="cls-2" d="M230.53,400.92l1.32,3.9c-2.24,4.2-4.42-1.38-3.71-3.99l2.39.09Z"/><path class="cls-2" d="M213.32,395.36v2.43c-2.46-.01-2.43-2.43,0-2.43Z"/><path class="cls-2" d="M240.48,411.19c.98.97-.87,2.79-1.85,1.82s.87-2.79,1.85-1.82Z"/><path class="cls-2" d="M213.94,403.88c.16.14.02.83-.3,1.22-2.27,2.76-1.92-3.17.3-1.22Z"/><path class="cls-4" d="M245.42,428.23c-.12,1.08.12,2.04-1.23,2.43.07-.8-.06-1.63,0-2.44h1.23Z"/><path class="cls-2" d="M244.19,431.88c-.04.67.19,1.53-.62,1.83,0-.12-.98-1.04-.61-1.82h1.23Z"/><path d="M278.13,534.14c26.57-2.5,49.25-1.13,75.58-.58,7.92.16,15.9-.43,23.79.28.03,1.23-18.67,1.45-20.68,1.53-26.16.96-52.48-1.6-78.7-.61v-.61Z"/><path class="cls-13" d="M319.49,544.48l-1.54,3.04-2.78-3.04c1.44,0,2.88,0,4.32,0Z"/><path class="cls-8" d="M278.13,534.14v.61c-.08,0-.7.6-1.49.63-.87.04-7.16.15-7.15-.33,2.73-1.28,5.81-.65,8.65-.91Z"/><polygon class="cls-2" points="329.98 544.48 329.66 546.31 327.51 546.31 327.51 544.48 329.98 544.48"/><path class="cls-5" d="M294.8,435.53c-.1-3.21-2.16-5.96-2.92-8.99-2.16-8.62-3.49-36.44-2.18-45,.25-1.63-1.63-.48-2.31-.79.15-2.17-.08-4.17,2.29-5.4,2.22-.42,4.29,1.11,4.49,3.32-1.71,18.41-2.46,37.27,1.82,55.4-.05,1.17-.96,1.13-1.19,1.46Z"/><path class="cls-13" d="M287.39,380.75c.68.31,2.56-.85,2.31.79-1.31,8.56.02,36.39,2.18,45,.76,3.03,2.81,5.78,2.92,8.99-.1.15.31.79-.43,1.22-1.19.69-4.55.88-5.59-.15-.62-.61-1.32-7.68-1.41-9.26-.76-13.68-.89-32.98.03-46.59Z"/><path class="cls-5" d="M296.03,450.75c-.04-.1-1.01-.28-1.23-1.5-.4-2.21,1-7.04-2.47-7.63-.01-.08-.86-.57-.62-1.21l3.31-.57c1.34.38,3.85,9.77,1.01,10.91Z"/><path class="cls-9" d="M296.03,450.75c.11.27-.06.84,0,1.22h-.62c-.88-.14-1.51.49-2.05-.74-1.33-3-.65-6.66-1.04-9.61,3.47.59,2.07,5.42,2.47,7.63.22,1.22,1.19,1.4,1.23,1.5Z"/><path class="cls-8" d="M309.61,383.79c-.02.2.04.4,0,.6-4.38.37-8.64-.82-12.97-1.21.17-.42.44-.8.62-1.22,4.08.63,8.26,1.31,12.34,1.83Z"/><path class="cls-5" d="M295.41,451.96h.62l-.31.6c-.2-.02-.25-.59-.3-.6Z"/><path class="cls-12" d="M368.86,195.71c.07,0,.53-.86,1.23-.61"/><rect class="cls-1" width="617.49" height="644.18"/></g></svg>