<?xml version="1.0" encoding="UTF-8"?><svg id="Lager_2" xmlns="http://www.w3.org/2000/svg" viewBox="0 0 617.49 644.18"><defs><style>.cls-1{fill:none;}.cls-2{fill:#eaeaea;}.cls-3{fill:#e51c31;}.cls-4{fill:#fff;}.cls-5{fill:#f2f2f2;}.cls-6{fill:#76bd79;}</style></defs><g id="karatekid"><path class="cls-4" d="M430.61,245.07c0,16.68-18.98,36.26-44.98,36.26s-46.4-18.95-46.4-35.63,20.4-35.63,46.4-35.63,44.98,18.32,44.98,35Z"/><path class="cls-5" d="M388.28,214.36c18.4,2.58,49.78,14.58,33.26,50.44-8.93,11.31-55.72,33.64-82.7-12.04-.9-11.47,5.49-26.42,8.72-28.5,9.15-5.87,22.32-12.49,40.72-9.9Z"/><path class="cls-4" d="M316.5,247.51c0,16.49-20.22,35.86-47.93,35.86s-49.44-18.74-49.44-35.23,21.74-35.23,49.44-35.23,47.93,18.11,47.93,34.61Z"/><path class="cls-5" d="M272.81,217.21c18.66,2.58,48.89,11.49,33.73,51.44-4.86,5.54-57.26,35.8-84.62-9.88-.91-11.47-.38-26.06,9.59-30.65s22.64-13.49,41.3-10.9Z"/><path d="M279.42,205.25c17.01,1.57,36.69,15,40.1,32.49.88,4.51-1.33,3.6-1.94,6.25-1.32,5.77.6,8.48-2.53,15.48-8.18,18.3-31.97,26.2-50.76,25.37s-43.45-12.35-46.15-33.71c-2.21,1.28-10.45,1.45-10.48-2.03-.02-2.28,4.3-1.21,6-1.58,4.05-.89,5.35-8.38,6.89-11.7,16.33-35.19,85.24-33.96,96.61,5.43,2.07-3.5-1.82-10.9-3.88-14.12-10.21-15.95-26.3-19.21-43.67-20.79-.64-.06-3.21-.26-3.27-1.09,4.23.28,8.9-.39,13.07,0ZM264.49,213.55c-54.5,3.24-58.61,61.93-3.58,67.7,19.38,2.03,49.03-6.44,53.02-28.72,4.83-26.99-27.48-40.29-49.44-38.98Z"/><path d="M392.96,204.09c0,1.01-2.54.64-3.22.6-1.81-.1-3.42-.66-5.17-.63-18.5.33-43.35,12.39-46.73,32.3-.32,1.88.67,4.18-.92,5.46-2.63-2.09-1.96-3.58-1.13-6.35,5.1-17,20.91-29.56,38.37-31.9,6.54-.88,12.29-.01,18.8.52Z"/><path d="M307.59,277.27c-10.64,12.73-25.65,16.74-41.81,13.93-.14-1.01,1.32-.55,2.02-.57,10.6-.43,19.13-1.22,28.78-6.07l11.01-7.28Z"/><path d="M391.8,287.72c-.22,1.06-1.14,1.07-2.01,1.18-13.43,1.6-27.27.2-37.43-9.66-.62-.6-1.48-.83-1.21-1.98,11.46,8.9,26.28,12.44,40.65,10.46Z"/><path d="M431.91,237.76c-2.85-11.04-12.63-17.9-12.63-17.9,0,0-7.67-7.86-24.9-10.56-17.23-2.7-32.07,4.21-32.07,4.21,0,0-30.52,14.15-23.47,39.26,7.02,25,32.61,30.61,52.96,28.91,20.35-1.69,32.46-15.71,34.85-18.12s8.11-14.75,5.26-25.79ZM423.86,262.32c-2.23,2.25-13.53,15.32-32.5,16.9s-42.84-3.65-49.39-26.96c-6.58-23.41,21.89-36.61,21.89-36.61,0,0,13.84-6.45,29.91-3.93,16.07,2.52,23.22,9.85,23.22,9.85,0,0,9.12,6.4,11.78,16.7,2.66,10.29-2.67,21.8-4.9,24.05Z"/><ellipse class="cls-6" cx="264.87" cy="246.7" rx="31.75" ry="30.59"/><ellipse cx="264.87" cy="246.7" rx="25.75" ry="24.8"/><circle class="cls-4" cx="278.11" cy="228.74" r="12.15"/><ellipse class="cls-6" cx="385.55" cy="243.64" rx="31.75" ry="29.52"/><ellipse cx="385.55" cy="243.64" rx="25.4" ry="23.61"/><ellipse class="cls-4" cx="398.8" cy="226.3" rx="12.15" ry="11.73"/><ellipse class="cls-6" cx="264.87" cy="246.7" rx="31.75" ry="30.59"/><ellipse cx="264.87" cy="246.7" rx="25.75" ry="24.8"/><circle class="cls-4" cx="278.11" cy="228.74" r="12.15"/><ellipse class="cls-6" cx="385.55" cy="243.64" rx="31.75" ry="29.52"/><ellipse cx="385.55" cy="243.64" rx="25.4" ry="23.61"/><ellipse class="cls-4" cx="398.8" cy="226.3" rx="12.15" ry="11.73"/><path d="M162.82,304.33l-2.65,20.75s.91,6.15-3.64,5.69c-4.55-.46-24.13-6.15-24.13-6.15,0,0-5.69.91-2.05-8.65s7.74-20.49,7.74-20.49l-16.16-17.07s-5.01-3.19,2.96-8.88c7.97-5.69,28-27.32,46.44-34.37,2.05-2.28,6.6-8.88,9.56-8.88v-12.29s.23-5.01,8.65-9.11c6.6-4.1,29.59-19.58,69.2-26.18,5.46-1.37,57.37-15.71,119.97-3.41,6.83,1.37,25.72,5.01,33.01,9.56,3.19,1.82,9.33,7.28,9.79,11.15,1.14,3.64,4.55,11.15,3.41,17.76.91,2.05,7.28,11.84,5.69,17.3.46,1.37-.91,2.73-2.73.46s-21.4-10.7-36.2-12.75c-14.8-2.05-33.24-.23-33.24-.23l-10.47,1.82s-17.76,3.87-42.8,4.1c-5.69-.23-37.79-4.55-63.97,5.24-3.19.91-25.72,7.28-28.68,8.2s-17.3,4.78-19.35,4.78-4.33-.46-6.15,2.28c-2.73,1.59-8.2,6.24-9.56,5.62-.91-.84-3.41-2.21-3.41-2.21l-1.82,8.88s-7.34,27.85-9.41,47.09Z"/><path class="cls-4" d="M275.62,177.79s32.06-5.69,52.78-5.01,52.36,4.1,63.97,7.74c4.1,1.59,15.02,3.87,20.49,8.88,5.46,5.01,9.11,14.34,8.42,21.63-1.14-1.14.23.23-2.73-1.59s-6.37-4.55-6.37-4.55l7.06,7.28s8.65,9.79,7.97,15.94c-3.41-1.59-20.26-10.93-34.15-11.84-13.89-.91-30.96-2.73-44.16.91-13.2,3.64-32.1,4.1-32.1,4.1,0,0-28-.23-33.46-.68-2.5.23-23.43,1.26-31.42,3.87-5.69,1.37-48.72,12.07-51.9,12.52,0,0-10.47,4.33-13.66,2.96-.68-1.37-4.78-8.65,0-10.47,4.78-1.82,22.54-9.11,22.54-9.11,0,0-3.41-.68-5.92.46s-18.68,5.92-18.9,7.06c3.2-3.64,11.85-12.29,11.85-12.29,0,0-4.78.91-6.6,2.5s-5.02,6.83-5.24,5.24c-.22-3.87,1.6-12.75,6.38-15.94,4.78-3.19,36.95-22.16,85.17-29.59Z"/><path class="cls-4" d="M179.52,230.84l-4.55,4.78s-.79,9.33,3.64,10.7c1.14-.68,6.37-3.87,6.37-3.87,0,0-2.73-2.5-3.41-12.52l-2.05.91Z"/><ellipse class="cls-3" cx="319.94" cy="197.85" rx="23.85" ry="19.48"/><path class="cls-3" d="M273.98,180.85l13.32-1.92,8.8,8.01-.79,2.6s-19.86-7.22-21.33-8.69Z"/><polygon class="cls-3" points="241.81 188.52 255.35 184.91 292.6 194.62 292.6 197.21 240.12 193.26 241.81 188.52"/><path class="cls-3" d="M338.98,182.43l3.72-6.09,9.25,1.02-10.04,8.46s-1.92-3.27-2.93-3.39Z"/><path class="cls-3" d="M344.96,190.55l22.46-11.62,18.85,3.16s1.47.79-4.4,2.65c-5.87,1.86-33.74,8.41-35.55,8.41-.9-1.35-1.35-2.6-1.35-2.6Z"/><path class="cls-3" d="M346.65,196.53l45.14-.68v10.61s-45.14-6.32-45.14-8.13c-.11-.56,0-1.81,0-1.81Z"/><path class="cls-3" d="M345.47,203.19l40.96,10.83s-19.55-2.29-26.58,0c-2.6-1.69-14.89-8.13-14.89-8.13l.51-2.71Z"/><path class="cls-3" d="M342.59,214.03s3.61.34,4.74,2.6c-1.53.03-4.18.72-4.18.72l-.56-3.31Z"/><path class="cls-3" d="M238.09,205.22s52.93-5.64,54.06-4.06l-.45,1.35-51.58,13.77s-1.58.11-1.58-2.26c-.11-2.37-.45-8.8-.45-8.8Z"/><path class="cls-3" d="M292.6,207.37l-46.17,15.79s7.81-1.01,12.51-2.11,16.48-2.56,22.04-2.12c2.6-1.69,15.12-9.2,15.12-9.2,0,0,2.37-2.48-3.5-2.37Z"/><path class="cls-4" d="M124.48,273.62s26.58-23.03,30.94-25.32,15.01-10.28,16.16-10.18v3.42s-19.48,22.69-20.4,33.69c.8-.69,17.42-29.56,21.54-30.94.92.57,0,3.55,0,3.55,0,0-7.91,27.62-7.45,30.48-.57,3.32-8.59,48.47-8.02,49.73-3.21-.8-21.66-6.53-23.38-5.84-1.26-.46-.69-3.78-.34-4.81s13.29-37.36,13.86-37.81-.34-1.72-2.52,2.18-3.78,7.68-3.78,7.68c0,0-1.83,3.32-3.32.92-1.6-1.49-11.92-12.95-11.92-12.95,0,0-2.65-2.68-1.38-3.78Z"/><path class="cls-2" d="M177.12,233.36s.81,7.83,5.72,6.85c.75-.14,2.14,2.24,2.14,2.24l-1.46.89-4.92,2.98s-4.42-.83-3.64-10.7l2.15-2.26Z"/><path class="cls-2" d="M208.78,197.65s-5.95,14.84-13.49,23.05c1.69-.3,2.78-.2,4.07-.69s16.58-4.15,19.95-4.01c1.19.14,5.66-.06,0,2.92s-13.8,5.71-13.8,5.71c0,0-3.77,2.03-.2,4.11s6.82,5.45,6.82,5.45c0,0-16.74,4.61-19.08,5.16s-6.32,2.03-7.45-.89-4.11-8.91,3.83-10.21c4.53-1.82,19.45-7.89,19.45-7.89,0,0-2.24-.73-7.17.94s-17.65,6.57-17.65,6.57l11.85-12.29s-7.84,1.7-10.93,7.58c-.92.16-1.88.56.53-8.43.87-2.16,2.09-6.52,6.39-8.26s12.01-7.65,16.89-8.82Z"/><path class="cls-2" d="M420.63,214.99s-14.45-11.56-14.57-12.38,4.42.71,4.72.59,9.24,4.17,10.55,7.13c-.05.71-9.16-5.43-9.16-5.43l8.41,8.93.04,1.17Z"/><path class="cls-2" d="M146.09,323.83s14.1-39.69,14.22-46.37c.12-6.43.59-10.12-3.46-7.42-1.11,2.47-8.4,10.63-8.22,12.24-.93,1.85-5.35,8.01-5.35,8.01,0,0,13.07-34.71,16.16-38.92s8.83-12.91,12.13-13.25v3.42s-20.38,24.9-20.4,33.69c2.2-3.43,17.81-29.19,20.4-30.17,1.15-.77,2.17-.86,1.15,2.78s-13.4,54.35-11.92,59.92c-1.72,6.72-3.55,20.29-3.55,20.29l-11.16-4.22Z"/><rect class="cls-1" width="617.49" height="644.18"/></g></svg>