<?xml version="1.0" encoding="UTF-8"?><svg id="Lager_2" xmlns="http://www.w3.org/2000/svg" viewBox="0 0 617.49 644.18"><defs><style>.cls-1{fill:none;}.cls-2{fill:#ea4f6d;}.cls-3{fill:#e33341;}.cls-4{fill:#af2d35;}.cls-5{fill:#d04e2d;}.cls-6{fill:#faca55;}.cls-7{fill:#6c8456;}.cls-8{fill:#fff;}.cls-9{fill:#586a48;}.cls-10{fill:#323b27;}.cls-11{fill:#72151c;}.cls-12{fill:#f2f2f2;}.cls-13{fill:#731a1d;}.cls-14{fill:#c6323c;}.cls-15{fill:#76bd79;}</style></defs><g id="mcd"><path class="cls-8" d="M430.61,245.07c0,16.68-18.98,36.26-44.98,36.26s-46.4-18.95-46.4-35.63,20.4-35.63,46.4-35.63,44.98,18.32,44.98,35Z"/><path class="cls-12" d="M388.28,214.36c18.4,2.58,49.78,14.58,33.26,50.44-8.93,11.31-55.72,33.64-82.7-12.04-.9-11.47,5.49-26.42,8.72-28.5,9.15-5.87,22.32-12.49,40.72-9.9Z"/><path class="cls-8" d="M316.5,247.51c0,16.49-20.22,35.86-47.93,35.86s-49.44-18.74-49.44-35.23,21.74-35.23,49.44-35.23,47.93,18.11,47.93,34.61Z"/><path class="cls-12" d="M272.81,217.21c18.66,2.58,48.89,11.49,33.73,51.44-4.86,5.54-57.26,35.8-84.62-9.88-.91-11.47-.38-26.06,9.59-30.65s22.64-13.49,41.3-10.9Z"/><path d="M279.42,205.25c17.01,1.57,36.69,15,40.1,32.49.88,4.51-1.33,3.6-1.94,6.25-1.32,5.77.6,8.48-2.53,15.48-8.18,18.3-31.97,26.2-50.76,25.37s-43.45-12.35-46.15-33.71c-2.21,1.28-10.45,1.45-10.48-2.03-.02-2.28,4.3-1.21,6-1.58,4.05-.89,5.35-8.38,6.89-11.7,16.33-35.19,85.24-33.96,96.61,5.43,2.07-3.5-1.82-10.9-3.88-14.12-10.21-15.95-26.3-19.21-43.67-20.79-.64-.06-3.21-.26-3.27-1.09,4.23.28,8.9-.39,13.07,0ZM264.49,213.55c-54.5,3.24-58.61,61.93-3.58,67.7,19.38,2.03,49.03-6.44,53.02-28.72,4.83-26.99-27.48-40.29-49.44-38.98Z"/><path d="M392.96,204.09c0,1.01-2.54.64-3.22.6-1.81-.1-3.42-.66-5.17-.63-18.5.33-43.35,12.39-46.73,32.3-.32,1.88.67,4.18-.92,5.46-2.63-2.09-1.96-3.58-1.13-6.35,5.1-17,20.91-29.56,38.37-31.9,6.54-.88,12.29-.01,18.8.52Z"/><path d="M307.59,277.27c-10.64,12.73-25.65,16.74-41.81,13.93-.14-1.01,1.32-.55,2.02-.57,10.6-.43,19.13-1.22,28.78-6.07l11.01-7.28Z"/><path d="M391.8,287.72c-.22,1.06-1.14,1.07-2.01,1.18-13.43,1.6-27.27.2-37.43-9.66-.62-.6-1.48-.83-1.21-1.98,11.46,8.9,26.28,12.44,40.65,10.46Z"/><path d="M431.91,237.76c-2.85-11.04-12.63-17.9-12.63-17.9,0,0-7.67-7.86-24.9-10.56-17.23-2.7-32.07,4.21-32.07,4.21,0,0-30.52,14.15-23.47,39.26,7.02,25,32.61,30.61,52.96,28.91,20.35-1.69,32.46-15.71,34.85-18.12s8.11-14.75,5.26-25.79ZM423.86,262.32c-2.23,2.25-13.53,15.32-32.5,16.9s-42.84-3.65-49.39-26.96c-6.58-23.41,21.89-36.61,21.89-36.61,0,0,13.84-6.45,29.91-3.93,16.07,2.52,23.22,9.85,23.22,9.85,0,0,9.12,6.4,11.78,16.7,2.66,10.29-2.67,21.8-4.9,24.05Z"/><ellipse class="cls-15" cx="264.87" cy="246.7" rx="31.75" ry="30.59"/><ellipse cx="264.87" cy="246.7" rx="25.75" ry="24.8"/><circle class="cls-8" cx="278.11" cy="228.74" r="12.15"/><ellipse class="cls-15" cx="385.55" cy="243.64" rx="31.75" ry="29.52"/><ellipse cx="385.55" cy="243.64" rx="25.4" ry="23.61"/><ellipse class="cls-8" cx="398.8" cy="226.3" rx="12.15" ry="11.73"/><ellipse class="cls-15" cx="264.87" cy="246.7" rx="31.75" ry="30.59"/><ellipse cx="264.87" cy="246.7" rx="25.75" ry="24.8"/><circle class="cls-8" cx="278.11" cy="228.74" r="12.15"/><ellipse class="cls-15" cx="385.55" cy="243.64" rx="31.75" ry="29.52"/><ellipse cx="385.55" cy="243.64" rx="25.4" ry="23.61"/><ellipse class="cls-8" cx="398.8" cy="226.3" rx="12.15" ry="11.73"/><path d="M187.8,237.74s-5.81-43.52,15.62-70.22c21.43-26.7,42.9-30.38,42.9-30.38,0,0,10.68-4.27,21.6-8.39,3.89-1.47,15.22-3.26,15.22-3.26,0,0,2.25-5.27,6.48-5.98s11.35-2.09,13.7,1.19c.81,1.14,1.8,2.61,3.29,3.29,2.81,1.28,7.22.63,7.22.63,0,0,22.56,1.2,31.28,4.07,7.01,2.3,28,7.18,36.77,15.59,7.43,7.13,21.88,16.16,31.41,50.37,1.27,4.08-2.74,6.98,4.17,9.04s28.5,8.4,32.02,20.6c.47,7.28-6.67,14.15-15.92,14.65-4.48.24-8.16-14.32-13.12-18.07-3.32-4.93-5.8-7.93-13.7-10.48s-39.89-7.71-49.44-5.95c-2.82.7-16.36,1.98-23.23,3.27s-40.64,9.39-46.03,11.39-31.4,9.78-43.62,9.51c-10.1-.22-20.52-2.51-25.68-6.9-6.1,4.76-19.69,12.06-21.88,13.43-5.06,3.17-10.23,3.73-9.07,2.59Z"/><path d="M303.7,123.44c-1.98-3.23-6.99-3.3-10.42-2.96-2.58.25-7.26,1.5-8.05,4.16l18.46-1.19Z"/><path class="cls-10" d="M190.53,240.78v-.6c.2,0,.4,0,.6,0-.19.21-.41.39-.6.6Z"/><path class="cls-3" d="M407.33,185.39l.6.6c.07.17-.07.42,0,.6l.6,1.19c.07.17-.07.42,0,.6l.6,1.19c.07.17-.06.42,0,.6l1.19,2.38c.06.18-.05.41,0,.6l.6.6c.04.19-.04.4,0,.6.14.69-.11,1.63,0,2.39h1.19c.08.31-.03.8,0,1.19v1.19c-.13.4-.45.79-.6,1.19h-.6c-.96-.15-1.45-.18-2.38-.6.86-1.07.45-1.7.14-2.78-1.58-5.49-5.86-14.82-8.37-20.25-6.39-13.84-15-25.21-28.4-32.94-.23.67.73,1.94,1.16,2.4,3.26,3.46,7.77,6.53,11.04,10.41,9.16,10.88,13.45,25.55,17.29,38.99l-3.57,1.19c-.99-.15-3.3-1.61-4.17-1.79l-.29-.58-.3.58c-.57-.08-1.23.09-1.79,0v-1.19s-1.19,0-1.19,0c-.53-.1-1.36.14-1.79,0-.72-.24-1.31-.73-2.32-.93-47.44-9.38-98.11-5.52-142.41,14.04-.68.3-1.71.29-2.38.6-6.74-13.97-7.02-31.44-3.58-46.45-.77.04-1.72-.22-2.42.26-.8.55-2.87,11.5-2.95,13.44h-1.78c-.13-2.82.42-5.55.59-8.34.01-.2-.01-.4,0-.6l.58-.3-.58-.3c.02-.2-.02-.4,0-.6,2.15.24,1.93-4.18,2.38-5.96.05-.19-.05-.41,0-.6,1.93-1.17,2.52-3.73,3.68-5.58.38-.6,1.22-.8,1.47-1.18.8-1.26,1.3-3.18,2-4.55l8.93-8.93c.26-.13.92.13,1.19,0l.6-.6c36.88-16.75,93.77-14.78,127.65,8.45,16,10.97,21.25,22.41,28.4,39.8ZM283.44,185.98c2.48,1.01,9.58-.24,10.46-2.94.55-9.88.69-20.28,2.8-29.96,2.3-10.57,6.06-12.48,11.27-2.04,2.53,5.07,3.97,11.38,5.09,16.94.65,3.23.69,8.3,1.47,11.04.71,2.5,10.63,2.21,11.5.42.95-1.95.12-12.56.3-15.78.22-3.87.6-9.2,1.35-12.95,1.02-5.12,3.67-10.66,8.31-4.47,4.39,5.85,8.17,19.76,9.85,27.08.65,2.82-.4,8.2,3.44,9.07,1.21.27,7.29.85,8.24.53l.89-.89c.09-1.49.29-3.19.05-4.65-.58-3.57-4.18-13.12-5.64-16.99-3.11-8.28-8.58-19.23-15.89-24-5.31-3.47-11.47-1.79-15.03,3.17-1.12,1.57-3.4,8.65-4.8,8.3-1-.25-6.08-11.48-13.16-12.45-3.51-.48-7.11.18-9.81,2.6-7.94,7.11-11.4,29.99-11.91,40.51-.11,2.35.14,4.74,0,7.1.15.73.92.25,1.22.37Z"/><path class="cls-3" d="M387.68,195.51c.36.07.83-.07,1.19,0l1.19.6c.37.07.83-.07,1.19,0,.93,1.37,2.71,1.25,4.17,1.19,3.16.95,6.22,2.47,9.53,2.98,1.84,2.24,5.62,2.66,8.34,3.57.18.06.42-.06.6,0l1.19.6c6.96,2.43,13.84,4.96,20.26,8.62,6.35,3.62,15.06,8.82,11.3,17.58h-1.18c.2-1.87-.29-3.2-1.2-4.76-3.43-5.83-13.72-9.47-19.66-11.91-1.98-.81-4.14-1.21-5.96-2.38l-1.19-.6c-.18-.06-.42.06-.6,0l-1.19-.6c-.32-.1-.87.1-1.19,0l-.6-.6c-.32-.1-.86.1-1.19,0l-1.19-.6c-.18-.05-.41.05-.6,0l-.3-.58-.3.58c-.65-.17-1.25-.46-1.79-.6l-1.19-.6c-.5-.13-1.27.12-1.79,0v-1.19c-.78-.08-1.6.09-2.38,0-.57-.07-1.23.08-1.79,0l-.6-.6c-.19-.03-.4.03-.6,0l.6-1.19c.35.21,2.22-.14,2.98,0,.04,0,.12.5.6.6.7.14,1.66-.13,2.38,0v1.19c.77.09,1.62-.1,2.38,0,.57.07,1.26-.1,1.79,0,.04,0,.16.49.6.6.35.09.85-.09,1.19,0,.04.01.15.48.6.6.34.09.86-.09,1.19,0,.04.01.15.47.6.6.33.1.85-.09,1.19,0,.04.01.16.48.6.6.33.09.84-.09,1.19,0,.74.18,1.42.87,2.38.59-.16-1.4-1.82-.89-2.38-1.19-.92-.48-1.82-1.24-2.98-1.79-.04-.02-.18-.41-.6-.6-.17-.07-.43.07-.6,0-.28-.12-.62-.36-1.19-.6-.29-.12-.89.11-1.19,0-.04-.02-.15-.43-.6-.6-.3-.11-.88.11-1.19,0-.04-.01-.18-.47-.6-.6-.18-.06-.41.05-.6,0-.06-.02-.53-.85-1.19-.6h-1.19c-.18-.64-.73-.49-1.19-.6-.35-.08-.84.08-1.19,0-.06-.01-.27-.4-1.19-.6-.36-.08-.83.07-1.19,0-2.7-2.07-6.87-2.05-10.13-2.38-.59-.06-1.2.05-1.79,0-2.09-.99-5.84-1.94-7.74-.6-1.18-.06-2.39.05-3.57,0v-1.19c-2.06.27-4.94-.69-6.55.59-.59.01-1.2-.05-1.79,0l-1.79.6c-.56.08-1.27-.11-1.79,0-1.62.35-2.96,1.36-4.73,1.24l-.03,1.15c-.6,0-1.19,0-1.79,0-.66-1.05-2.45-.51-3.58-.59v1.19c-.39.02-.79-.03-1.19,0-3.31-1.27-8.14.02-11.66.58-1.12.18-2.38-.67-2.04,1.2-.39,0-.81.04-1.19,0-.12-.01-1.29-1.16-2.38-.59v1.19c-.4,0-.8.03-1.19,0-.12,0-1.28-1.16-2.38-.59v1.19c-.4,0-.8,0-1.19,0-.08,0-.07-.67-1.45-.62s-2.95.9-4.5.64v1.18c-.4.03-.81-.04-1.2,0-.1.01-.54-.62-1.88-.5-1.27.12-3.61.86-4.67,1.69-.19.04-.4-.04-.6,0l-.6.6c-1.62.35-3.61.31-5.01.65-6.42,1.55-12.99,3.59-19.41,5.31l-1.19.6c-.19.05-.41-.05-.6,0-5.8,1.55-11.85,2.59-17.27,5.36h-.6l-1.19.6c-.34.09-.86-.09-1.19,0l-1.19.6c-.18.06-.42-.06-.6,0h-1.19s0,1.19,0,1.19c-.3.08-.81-.01-1.19,0-1.99.06-1.01-.39-3.57.6-.31.12-.62.41-1.19.6-.99-1.23-3.2.4-4.76.02v1.17c-.4,0-.81.04-1.2,0-.12-.01-1.29-1.16-2.38-.59v1.19c-.39.05-.81-.05-1.19,0l-4.17-1.19.03-1.74,54.17-18.5c-21.45,2.66-42.6,14.66-64.59,8.96l.26-2.41c1.21-.54,2.35-1.28,3.57-1.79l.6-.6c.17-.07.43.07.6,0,46.92-18.95,94.52-22.98,144.14-13.1Z"/><path class="cls-14" d="M224.48,151.44c1.17-.73,8.44-4.61,9.27-4.73.68-.1,1.37-.04,2.05-.04-.11.92.18,2.14,0,2.98-.36,1.67-3.38,5.26-4.28,7.33s-1.09,3.83-1.67,5.77c-.35,1.16-.95,3.13-1.19,4.17l-.6.6c-.9,4.26-1.57,11.39-1.78,15.79-.48,10.11,1.28,20.15,2.11,30.08-2.8,1.83-5.87,3.22-8.65,5.09-7.97,5.41-16.54,11.19-25.24,15.85-1,.54-3.21,1.89-4.21,1.73-2.38-8.95-1.63-19.03-.27-28.25,3.21-21.86,15.46-44.46,34.46-56.37Z"/><path class="cls-14" d="M238.77,211l-.26,2.41c21.99,5.7,43.14-6.3,64.59-8.96l-54.17,18.5-.03,1.74,4.17,1.19c-7.67,1.06-18.64,1.75-25.93-1.17-.94-.38-4.99-2.91-5.36-3.58-.77-1.38,1.53-2.25,2.52-2.88,4.52-2.87,9.62-5.11,14.47-7.27Z"/><path class="cls-14" d="M231.03,166.33c-.17,2.8-.73,5.53-.59,8.34h1.78c.08-1.94,2.14-12.89,2.95-13.44.7-.48,1.65-.22,2.42-.26-3.45,15.01-3.17,32.48,3.58,46.45-3.23,1.48-6.15,4.05-9.79,4.73-.45-.2-.68-.51-.83-.97-1.04-3.23-1.73-11.7-1.92-15.35-.44-8.29-.4-17.98,1.22-25.93v-.6c.15-.75.67-1.15.6-2.38v-.6h.6Z"/><path class="cls-4" d="M424.61,215.77c2.89.97,11.77,5.29,14.71,7.03,1.69,1,2.77,2.98,4.94,3.1.92,1.56,1.4,2.9,1.2,4.76h1.18c-1.53,3.58-10.31,7.41-14.21,7.06-3.46-8.47-8.15-16.67-14.97-22.84,1.82.05,5.56.36,7.14.9Z"/><path class="cls-2" d="M408.53,199.68c-.54-.24-.28-1.83-2.28-.74l-.45-1.05-1.34.46c-.42-1.53-4.95-1.39-6.64-1.65l3.57-1.19c-3.84-13.44-8.14-28.12-17.29-38.99-3.27-3.88-7.78-6.94-11.04-10.41-.43-.46-1.4-1.73-1.16-2.4,13.4,7.73,22.01,19.1,28.4,32.94,2.51,5.43,6.79,14.76,8.37,20.25.31,1.09.72,1.71-.14,2.78Z"/><path class="cls-14" d="M366.24,199.68c-.33,1.8.91,1.15,2.06,1.19,8.62.29,16.98.54,25.54,1.89,3.84.6,4.21.67,6.95,2.28l-.6,1.19c-3.82-.6-7.61-2.22-11.32-2.38-.39-.02-1.83-.31-2.22-.3-.45-.88-1.59-.44-2.5-.35-.39.04-2.08.08-2.47.11-6.35-1.54-11.97-1.22-18.45-1.31-.77-.01-1.67.07-1.75.07l.03-1.15c1.77.13,3.11-.88,4.73-1.24Z"/><path class="cls-3" d="M303.7,123.44l-18.46,1.19c.78-2.65,5.47-3.91,8.05-4.16,3.43-.33,8.44-.27,10.42,2.96Z"/><path class="cls-4" d="M247.11,138.93l-11.32,10.72c.18-.84-.11-2.06,0-2.98-.67,0-1.37-.07-2.05.04-.83.13-8.1,4-9.27,4.73,6.63-5.22,14.5-10.13,22.63-12.51Z"/><path class="cls-14" d="M291.78,215.17c-.37,1.22-1.52,1.11-2.48,1.39-4.9,1.4-9.83,3.41-14.79,3.97,5.42-2.77,11.48-3.81,17.27-5.36Z"/><path class="cls-14" d="M354.92,202.66c-4.35.35-9.71,1.69-13.7,1.79-.34-1.87.92-1.02,2.04-1.2,3.52-.57,8.35-1.85,11.66-.58Z"/><path class="cls-14" d="M233.41,158.59c-.45,1.78-.23,6.2-2.38,5.96.03-.29.65-.9.78-1.82.33-2.28-.2-.72,1.6-4.14Z"/><path class="cls-14" d="M332.88,205.64c-1.85.28-4.17,1.05-5.96,1.19v-1.18c1.56.26,3.1-.6,4.5-.64s1.37.62,1.45.62Z"/><path class="cls-14" d="M325.73,206.83c-2.08.89-4.52.78-6.55,1.19,1.06-.82,3.41-1.57,4.67-1.69,1.34-.12,1.78.51,1.88.5Z"/><path class="cls-14" d="M262.6,224.1c-1.54.5-3.1,1.18-4.76,1.19v-1.17c1.56.38,3.78-1.25,4.76-.02Z"/><path class="cls-14" d="M359.68,202.07c-1.18.01-2.35.52-3.57.6v-1.19c1.12.09,2.92-.46,3.57.59Z"/><path class="cls-3" d="M395.42,197.3c-1.46.06-3.24.18-4.17-1.19.71.15,1.54,0,2.42.26.79.23,1.39.83,1.75.93Z"/><path class="cls-14" d="M267.36,222.91l-3.57.6c2.57-.99,1.58-.54,3.57-.6Z"/><path class="cls-14" d="M256.64,225.3c-.74.52-1.55.48-2.38.6v-1.19c1.09-.56,2.26.58,2.38.59Z"/><path class="cls-3" d="M412.1,196.71h-1.19c-.11-.75.14-1.69,0-2.38.98.57.95,1.46,1.19,2.38Z"/><path class="cls-14" d="M336.45,205.04c-.75.07-1.7.59-2.38.6v-1.19c1.1-.56,2.26.58,2.38.59Z"/><path class="cls-14" d="M340.03,204.45c-.75.07-1.69.59-2.38.6v-1.19c1.09-.56,2.26.58,2.38.59Z"/><path class="cls-14" d="M413.29,203.85c-2.72-.92-6.5-1.33-8.34-3.57l8.34,3.57Z"/><path class="cls-3" d="M390.06,193.73h1.19s0,1.19,0,1.19c-.37-.06-.81.07-1.19,0v-1.19Z"/><path class="cls-14" d="M269.75,221.72c-.08.03-.33.98-1.19,1.19v-1.19s1.19,0,1.19,0Z"/><path class="cls-13" d="M412.1,199.09v-1.19c.05.58.43-.16,0,1.19Z"/><path class="cls-13" d="M390.06,196.11l-1.19-.6c.95.19,1.13.58,1.19.6Z"/><path class="cls-13" d="M393.63,194.92c-.05-.01.31.13-.6,0l.3-.58.29.58Z"/><path class="cls-14" d="M271.53,221.13c-.06.02-.48.37-1.19.6l1.19-.6Z"/><path class="cls-14" d="M273.91,220.53c-.18.65-.73.48-1.19.6l1.19-.6Z"/><path class="cls-13" d="M410.31,192.54l-1.19-2.38c.16.45.8,1.11,1.19,2.38Z"/><path class="cls-13" d="M409.12,189.56l-.6-1.19c.08.21.37.59.6,1.19Z"/><path class="cls-13" d="M408.53,187.77l-.6-1.19c.08.21.37.63.6,1.19Z"/><path class="cls-14" d="M293.57,214.57c-.06.02-.38.38-1.19.6l1.19-.6Z"/><path class="cls-14" d="M415.08,204.45l-1.19-.6c.64.22,1.09.56,1.19.6Z"/><path class="cls-13" d="M242.35,209.21s.16-.42.6-.6l-.6.6Z"/><path class="cls-14" d="M317.99,208.62l.6-.6s-.24.52-.6.6Z"/><path class="cls-13" d="M410.91,200.28h.6l-.29.54c-.16-.01-.22-.53-.3-.54Z"/><path class="cls-13" d="M410.91,193.73l-.6-.6s.5.17.6.6Z"/><path class="cls-13" d="M407.93,185.98l-.6-.6s.43.18.6.6Z"/><path class="cls-13" d="M229.84,169.9s-.13.04,0-.6v.6Z"/><path class="cls-13" d="M228.05,167.52l.6-.6c-.05.22-.57.46-.6.6Z"/><path class="cls-13" d="M230.43,166.92c0-.09-.57-.16-.59-.3l.59-.3v.6Z"/><path class="cls-14" d="M231.03,165.73c.01-.2-.02-.4,0-.6l.58.3-.58.3Z"/><path class="cls-13" d="M250.69,137.74c.16-.08.34-.48.6-.6l-.6.6Z"/><path class="cls-7" d="M320.97,234.23c.14-.24.39-.42.6-.6-.04.28-.31.53-.6.6Z"/><path class="cls-9" d="M370.41,206.24l.6-.6c-.1.02-.32.51-.6.6Z"/><path class="cls-5" d="M283.44,185.98c-.3-.12-1.07.36-1.22-.37.14-2.35-.11-4.74,0-7.1.5-10.52,3.97-33.4,11.91-40.51,2.7-2.42,6.29-3.08,9.81-2.6,7.08.98,12.16,12.21,13.16,12.45,1.4.35,3.67-6.73,4.8-8.3,3.56-4.97,9.72-6.64,15.03-3.17,7.31,4.77,12.79,15.72,15.89,24,1.45,3.87,5.05,13.42,5.64,16.99.24,1.46.05,3.16-.05,4.65l-.89.89c-.94.31-7.03-.26-8.24-.53-3.84-.87-2.79-6.26-3.44-9.07-1.68-7.31-5.47-21.23-9.85-27.08-4.64-6.19-7.29-.66-8.31,4.47-.74,3.75-1.13,9.08-1.35,12.95-.18,3.22.65,13.83-.3,15.78-.87,1.79-10.79,2.08-11.5-.42-.78-2.74-.82-7.8-1.47-11.04-1.12-5.56-2.56-11.88-5.09-16.94-5.21-10.44-8.97-8.52-11.27,2.04-2.11,9.68-2.25,20.08-2.8,29.96-.88,2.71-7.98,3.95-10.46,2.94l9.45-2.47c.18-10.14.32-20.99,2.76-30.89,5.68-23.06,14.82-.83,17.4,9.41,1.44,5.69,1.9,11.58,3.28,17.27,2.02.41,7.4,1.81,8.51-.47,1.05-2.16.05-15.12.27-18.79.2-3.31,1.82-16.4,4.79-17.85,5.16-2.52,9.21,6.42,10.83,10.02,3.87,8.66,5.81,18.49,7.32,27.82.53.83,6.46,1.71,7.77,1.76.99.04,1.59.45,1.45-.85-.29-2.74-1.85-8.19-2.66-11.05-2.77-9.82-9.94-28.84-19.73-33.28-10.42-4.73-14.79,8.19-16.6,16-5-9.1-14.76-24.55-25.03-11.33-8.25,10.62-9.39,31.67-9.81,44.69Z"/><path class="cls-14" d="M240.56,146.67c-.71,1.38-1.2,3.3-2,4.55-.24.38-1.09.58-1.47,1.18-1.16,1.85-1.75,4.41-3.68,5.58,1.09-4.29,3.57-8.56,7.15-11.32Z"/><path class="cls-14" d="M401.38,202.66c-3.3-.65-7.05-.9-10.13-2.38,3.26.33,7.43.31,10.13,2.38Z"/><path class="cls-14" d="M389.47,200.28c-2.56-.23-5.18-.46-7.74-.6,1.9-1.35,5.65-.39,7.74.6Z"/><path class="cls-14" d="M371.6,199.09c1.61-1.29,4.49-.32,6.56-.59v1.19c-2.1-.09-4.05-.64-6.56-.6Z"/><path class="cls-14" d="M403.16,206.83c.78.09,1.6-.08,2.39,0v1.19c-.94-.22-1.82-.24-2.39-1.19Z"/><path class="cls-14" d="M418.06,208.62c.56.29,2.22-.21,2.38,1.19-.96.28-1.64-.41-2.38-.59v-.6Z"/><path class="cls-14" d="M409.12,206.83c-.77-.1-1.61.09-2.39,0v-1.19c.96.17,1.82.28,2.39,1.19Z"/><path class="cls-14" d="M369.81,199.09c-.09,0-.96.47-1.79.6l1.79-.6Z"/><path class="cls-14" d="M413.89,206.24l-1.19-.6c.58.23.91.47,1.19.6Z"/><path class="cls-14" d="M418.65,211.6l-1.19-.6,1.19.6Z"/><path class="cls-14" d="M416.86,211c-.65-.22-1.13-.57-1.19-.6l1.19.6Z"/><path class="cls-14" d="M403.76,203.26l-1.19-.6c.92.19,1.13.58,1.19.6Z"/><path class="cls-14" d="M406.14,203.85l-1.19-.6c.47.11,1.01-.04,1.19.6Z"/><path class="cls-14" d="M412.69,209.81c-.74-.23-1.13-.58-1.19-.6l1.19.6Z"/><path class="cls-14" d="M408.53,204.45l-1.19-.6c.66-.25,1.13.58,1.19.6Z"/><path class="cls-14" d="M408.53,208.62c-.67-.17-1.12-.58-1.19-.6l1.19.6Z"/><path class="cls-14" d="M414.48,210.4c-.46-.15-.56-.58-.6-.6l.6.6Z"/><path class="cls-14" d="M416.86,209.21c-.44-.12-.56-.58-.6-.6l.6.6Z"/><path class="cls-14" d="M410.91,209.21c-.19-.05-.41.05-.6,0l.3-.58.3.58Z"/><path class="cls-14" d="M415.08,208.62c-.45-.13-.56-.58-.6-.6l.6.6Z"/><path class="cls-14" d="M413.29,208.02c-.44-.12-.55-.59-.6-.6l.6.6Z"/><path class="cls-14" d="M411.5,207.43c-.44-.11-.55-.59-.6-.6l.6.6Z"/><path class="cls-14" d="M415.08,206.83l-.6-.6c.41.18.55.58.6.6Z"/><path class="cls-14" d="M401.38,206.83c-.45-.07-.55-.59-.6-.6l.6.6Z"/><path class="cls-14" d="M411.5,205.64l-.6-.6c.45.16.56.58.6.6Z"/><path class="cls-14" d="M404.36,205.64c-.47-.09-.55-.59-.6-.6l.6.6Z"/><path class="cls-14" d="M409.72,205.04l-.6-.6c.42.13.56.58.6.6Z"/><path class="cls-6" d="M283.44,185.98c.42-13.01,1.56-34.07,9.81-44.69,10.27-13.22,20.03,2.23,25.03,11.33,1.8-7.81,6.18-20.73,16.6-16,9.79,4.44,16.96,23.46,19.73,33.28.81,2.86,2.36,8.31,2.66,11.05.14,1.3-.47.89-1.45.85-1.32-.05-7.24-.93-7.77-1.76-1.52-9.32-3.45-19.16-7.32-27.82-1.61-3.61-5.67-12.55-10.83-10.02-2.96,1.45-4.59,14.54-4.79,17.85-.22,3.67.78,16.63-.27,18.79-1.11,2.28-6.49.88-8.51.47-1.38-5.69-1.85-11.58-3.28-17.27-2.58-10.24-11.72-32.47-17.4-9.41-2.44,9.91-2.58,20.75-2.76,30.89l-9.45,2.47Z"/><path class="cls-11" d="M365.19,199.02s17.26-.73,27.74.97c10.48,1.69,23.79,5.76,26.31,8.63-1.19.6-5.36-.6-10.13-1.79s-19.68-6.03-31.69-5.36c-7.5-.54-13.28-.26-12.24-2.45Z"/><path d="M293.57,214.57s-41.2,11.6-50.93,12.23c.5.56,9.32,1.29,9.32,1.29l23.75-6.37,17.26-4.98.6-2.17Z"/><rect class="cls-1" width="617.49" height="644.18"/></g></svg>