<?xml version="1.0" encoding="UTF-8"?><svg id="Lager_2" xmlns="http://www.w3.org/2000/svg" viewBox="0 0 617.49 644.18"><defs><style>.cls-1{fill:none;}.cls-2{fill:#020202;}.cls-3{fill:#040505;}.cls-4{fill:#323c90;}.cls-5{fill:#283472;}.cls-6{fill:#e0e0e0;}</style></defs><g id="noggles"><path class="cls-2" d="M177.63,262.18s1.59,7.62-1.48,8.57c-3.6,0-11.32-.63-11.32-.63,0,0-3.6.74-3.07-6.67.21-7.3-.05-22.01-.05-22.01,0,0-1.43-4.34,4.39-5.4s30.37-5.61,30.37-5.61c0,0,3.17-.63,3.92-.63h6.56v-13.54s-.74-3.92,4.02-4.23,95.13-.42,95.13-.42h4.55s2.5-.1,3.18.14.78.87.87,3.35.29,16.51.29,16.51l24.72.15v-20.35s.44-2.23,2.87-2.28,21.1-.67,21.1-.67h29.2l35.89.51,13.63.17s3.89-.17,4.15,3.05.51,68.05.51,68.05c0,0,.51,2.03-2.45,2.29s-38.93,1.02-38.93,1.02l-61.96,1.02s-3.3.34-3.22-4.57-.25-25.56-.25-25.56l-24.54.53-.34,23.25s2.39,6.23-3.93,6.7c-6.32.48-46.32,1.84-46.32,1.84l-51.45,1.03s-4.96,1.03-4.96-6.15-1.03-29.57-1.03-29.57l-29.91,2.39-.1,7.75Z"/><path class="cls-5" d="M163.92,240.91s-.55-2.48,2.85-3.09,28.41-4.97,28.41-4.97c0,0,1.51-.36,1.51,1.09s.48,15.63.48,15.63c0,0,.24.42-1.27.48s-20.11,1.64-20.11,1.64c0,0-1.45.24-1.27,2.42s.55,12.23.55,12.23c0,0,.55,1.45-1.09,1.57s-7.57,0-7.57,0c0,0-2.3-.55-2.24-2.66s-.24-24.35-.24-24.35Z"/><path class="cls-4" d="M210.18,251.38l1.31,29.69s-.57,4.12,2.53,4.25,43.83-.78,43.83-.78l54.19-2.22s1.12.25,1-3.74,0-25.56,0-25.56v-.7l29.29-.52.57,28.19s-.13,2.53,3.91,2.53,44.5-.48,44.5-.48l37.79-.82,13.42-.21,1.51-.14s1.3-.27,1.23-1.85-.48-39.44-.48-39.44l-.62-25.2s.68-2.88-3.29-2.88-85.24-.68-85.24-.68h-11.3s-2.6.14-2.46,3.9c.14,3.77.14,18.55.14,18.55,0,0-.48.82-4.31.75s-25.2-.55-25.2-.55v-4.59l-.27-13.01s-.21-1.99-1.71-1.99-97.35.37-97.35.37c0,0-4.14-.46-4.04,3.31s1.05,33.79,1.05,33.79Z"/><polygon class="cls-6" points="224.48 225.46 300.26 225.46 300.26 271.95 225.91 274.2 224.48 225.46"/><polygon class="cls-6" points="357.09 222.69 357.09 272.05 430.82 269.9 430.82 222.69 357.09 222.69"/><polygon class="cls-3" points="262.37 226.47 263.47 273.55 300.26 271.95 300.26 225.46 262.37 225.46 262.37 226.47"/><polygon class="cls-3" points="395.45 222.69 395.45 270.93 430.82 269.9 430.82 222.69 395.45 222.69"/><path class="cls-4" d="M198.32,234.49s-.48-3.09,2.18-3.09h11.51s2-.48,2,2.36v14.36s.36,1.75-3.21,1.69-9.99,0-9.99,0c0,0-1.94-.18-2-2s-.48-13.32-.48-13.32Z"/><rect class="cls-1" width="617.49" height="644.18"/></g></svg>