<?xml version="1.0" encoding="UTF-8"?><svg id="Lager_2" xmlns="http://www.w3.org/2000/svg" viewBox="0 0 617.49 644.18"><defs><style>.cls-1{fill:none;}.cls-2{fill:#fff;}</style></defs><g id="savage"><polygon points="173.97 236.12 175.15 249.97 189.09 248.72 190.21 258.92 206.17 257.49 207.02 266.19 216 265.65 216.96 275.74 226.82 274.65 228.39 285.72 305.71 280.48 304.55 270.01 314.1 269.22 313.14 259.12 323 258.55 321.85 246.01 333.45 245.31 334.69 256.83 344.19 256.29 345.01 265.67 355.08 264.88 356.35 274.68 368.72 273.69 427.63 268.33 426.66 257.29 437.44 256.36 434.7 247.6 442.8 246.73 441.52 237.97 448.73 237.21 446.49 218.43 173.97 236.12"/><rect class="cls-2" x="216.96" y="244.21" width="9.79" height="9.79" transform="translate(-13.63 12.84) rotate(-3.22)"/><rect class="cls-2" x="236.28" y="244.02" width="9.79" height="9.79" transform="translate(-13.59 13.93) rotate(-3.22)"/><rect class="cls-2" x="227.13" y="254.36" width="9.79" height="9.79" transform="translate(-14.18 13.43) rotate(-3.22)"/><rect class="cls-2" x="246.6" y="253.23" width="9.79" height="9.79" transform="translate(-14.09 14.52) rotate(-3.22)"/><rect class="cls-2" x="256.85" y="262.89" width="9.79" height="9.79" transform="translate(-14.61 15.11) rotate(-3.22)"/><rect class="cls-2" x="237.46" y="263.57" width="9.79" height="9.79" transform="translate(-14.68 14.02) rotate(-3.22)"/><rect class="cls-2" x="344.98" y="234.75" width="9.79" height="9.79" transform="translate(-12.9 20.01) rotate(-3.22)"/><rect class="cls-2" x="364.29" y="234.56" width="9.79" height="9.79" transform="translate(-12.86 21.09) rotate(-3.22)"/><rect class="cls-2" x="355.14" y="244.9" width="9.79" height="9.79" transform="translate(-13.45 20.6) rotate(-3.22)"/><rect class="cls-2" x="374.62" y="243.78" width="9.79" height="9.79" transform="translate(-13.36 21.69) rotate(-3.22)"/><rect class="cls-2" x="384.87" y="253.44" width="9.79" height="9.79" transform="translate(-13.88 22.28) rotate(-3.22)"/><rect class="cls-2" x="365.47" y="254.11" width="9.79" height="9.79" transform="translate(-13.95 21.19) rotate(-3.22)"/><rect class="cls-1" width="617.49" height="644.18"/></g></svg>