<?xml version="1.0" encoding="UTF-8"?><svg xmlns="http://www.w3.org/2000/svg" viewBox="0 0 617.49 644.18"><defs><style>.cls-1{fill:none;}.cls-2{fill:#fae334;}.cls-3{fill:#e63426;}.cls-4{fill:#55ab4c;}.cls-5{opacity:.12;}.cls-5,.cls-6,.cls-7,.cls-8,.cls-9,.cls-10,.cls-11{fill:#fff;}.cls-6{opacity:.07;}.cls-7{opacity:.1;}.cls-8{opacity:.15;}.cls-9{opacity:.18;}.cls-10{opacity:.3;}.cls-12{fill:#3c99d5;}.cls-13{isolation:isolate;}.cls-14{fill:#515355;}.cls-15{fill:#ccc;mix-blend-mode:multiply;opacity:.34;}.cls-16{fill:#d72416;}.cls-17{fill:#080c08;}.cls-18{fill:#efeeed;}.cls-19{fill:#333;}.cls-20{fill:#e8e7e6;}</style></defs><g class="cls-13"><g id="Lager_2"><g id="beanie"><path class="cls-15" d="M343.65,262.86c13.38,9.37,28.39,12.96,39.38,12.85,10.99-.11,19.59-7.74,19.59-7.74,0,0-42.66-1.32-43.77-5.11"/><path d="M431.66,239.13l.18.8h2.04s-.98,3.02-3.37,3.28c-.89.35-2.13.89-1.86,2.31s-1.93,6.7-3.77,9.24-4.62,7.04-12.35,10.38c-2.88,1.15-6.23,3.58-27,4.04-8.77-.35-18.12-.81-28.39-4.96-10.27-4.15-18.58-12.69-20.54-20.08-.58-.58-.69-.46-1.55-.41s-3.14.4-1.94-2.34c1.2-2.74,4.4-1.03,4.4-1.03l33.51-.81,24.38-.55,33.7.78"/><path class="cls-11" d="M340.19,243.35l32.65-.35s2.26,9.75,11.41,8.88c9.14-.87,10.28-2.7,12.54-9.84,2.61,0,29.08.96,29.08.96,0,0-.61,6.03-2.96,8.94-2.35,2.91-9.84,12.48-23.42,13.88s-25.43-.09-30.48-1.13-21.07-6.44-27.08-16.46c-1.13-2.44-1.74-4.88-1.74-4.88Z"/><path class="cls-11" d="M392.04,242.3h2.71s.31,1.85-.86,2.15-2.65.06-2.71-1.08.86-1.08.86-1.08Z"/><path class="cls-18" d="M362.86,262.86s-5.69-6.42-6.63-12.42c-.19-3.5,1.25-7,1.25-7l-17.29-.08s1.29,12.47,22.67,19.5Z"/><path class="cls-20" d="M415.84,242.65l10.04.36s1.16,10.44-15.79,19.76c1.62-3.32,5.13-5.07,5.56-8.54s.19-11.57.19-11.57Z"/><path d="M347.09,266.39s-1.4-2.3,0-2,10.41,6.11,15.77,7.41,26.59,4.91,38.2,1.4c1.7-.2,2.9-.1,2.3.4s-3.7,2.2-6.71,2.5-12.32,1.9-23.93,0c-11.52-1.9-18.42-3.91-25.63-9.71Z"/><path d="M217.9,247.26s1.48,1.44,4.6,1.2,23.14-3.89,23.14-3.89c0,0,12.71-1.61,13.31-2.28s4.8-.79,5.88-.79h18.35l23.62-1.56,14.27-1.6s3.48-.32,3.36,1.12-1.68,1.92-3.48,2.58c-.12,1.14-1.08,15.9-11.87,20.81-9.59,5.03-15.23,9.11-36.21,9.23-15.23-.12-25.66-1.67-39.21-9.23-2.76-2.16-10.79-11.4-10.79-11.4,0,0-9.56,1.08-4.96-4.2Z"/><path d="M225.86,263.45s-1.08-2.4,0-2.16,2.52,2.16,2.52,2.16c0,0,7.07,7.79,11.51,8.99,1.08,1.32.24,2.28-.84,1.8s-12.11-8.51-13.19-10.79Z"/><path d="M248.76,277.02s-2.76-.02-1.68-1.45c1.08.12,4.92,1.45,4.92,1.45,0,0,12.71,3.94,25.66,1.66,11.15-1.44,22.54-4.2,25.06-6.6,3.96-2.52,8.87-6.6,8.87-6.6,0,0,2.04-1.66,2.28-1.13s0,1.37-.48,2.03-6,5.22-8.03,6.54-7.79,5.52-19.79,7.55c-11.99,2.04-18.83,1.08-26.38,0s-10.43-3.46-10.43-3.46Z"/><path class="cls-11" d="M227.13,250.91s31.95-4.96,32.67-5.83c1.94-.29,5.9,0,5.9,0,0,0,2.52,10.24,12.59,9.76,10.07-.48,12.16-9.62,12.3-10.41,2.23-.14,13.24-1.08,13.24-1.08l13.96-1.31s-1.15,10.01-5.47,14.19c-4.17,3.81-10.29,7.18-12.74,8.13s-13.24,4.38-24.97,4.82c-11.73.44-23.6-2.08-31.08-5.6-7.48-3.53-13.56-7.05-16.41-12.66Z"/><path class="cls-11" d="M285.09,244.93h3.3s0,1.91-1.4,1.97-1.97-.51-1.91-1.97Z"/><path class="cls-18" d="M255.57,267.07s-6.83-8-7.64-11.44,1.05-8.3,1.05-8.3l-21.84,3.57s11.12,15.76,28.44,16.17Z"/><path class="cls-20" d="M307.26,243.03s4.58,12.63-3.11,19.03c4.01-2.54,13.51-6.38,13.64-20.01-6.78,1.08-10.53.99-10.53.99Z"/><line class="cls-6" x1="428.33" y1="239.77" x2="430.1" y2="239.3"/><path class="cls-15" d="M222.5,248.46c-.06,10.15-4.22,1.1-3.75,2.04s1.87,7.95,7.11,12.95,14.2,16.16,26.2,17.51,39.05-1.67,39.05-1.67l11.62-7.21,10.67-5.7s-.63-4.64,0-6.59-6.87,2.26-6.87,2.26c0,0-19.06,15.14-55.51,7.12-12.15-4.87-23.2-12.83-25.63-18.23,4.92-1.95,17.98-5.03,17.98-5.03l6.6-.99"/><path class="cls-8" d="M384.39,205.17s37.2,7.58,38.22,31.69c1.49,1.12,5.73,0,5.73,0,0,0-4.7-20.37-28.95-30.13-8.84-2.31-14.99-5.66-14.99-1.56Z"/><path class="cls-17" d="M351.74,209.83s10.66-2.34,13.65-2.91,14.7-1.48,16.09-1.48,13.35-.74,17.32.93,16.53,6.52,16.53,6.52c0,0,4-2.29,1.97-5.3-2.03-3.02-3.35-3.47-3.35-4.85s-3.86-39.21-51.24-58.59c-2.79-1.03-29.77-9.36-50.35-8.33-2.26-.48-2.41.17-4.1-1.97-1.14-1.03-.44-.71-3.77-1.54-.7-.96-1.65-1.22-1.7-5.08-.04-4.09,0-5.5,0-5.5,0,0-1.28-1.96,2.1-2.12s16.25.27,24.52,2.29,32.34,4.12,46.57,2.23c9.28-1.53,20.36-3.66,24.91-6.84,2.21-1.51,6.04-4.63,3.66-6.99s-18.36-12.72-49.55-10.38c-3.38.21-28.2,2.86-32.4,4.97-1.53.42-13.68,3.55-13.68,3.55,0,0-1.81,1.21-2.75-.26-.76-1.17-4.63-8.53-14.5-5.42-1.39.65-4.73,2.55-5.07,4.92-.34,1.01-2.14,3.8-2.14,3.8,0,0-15.08-.28-17.42-.79-2.57-.54-8.08-5.43-50.74.79-2.22.49-28.23,7.27-33.77,14.35-1.16,1.39-5.19,7.07,4.35,9.19s13.15,2.87,26.08,3.04c12.93.18,29.65-4.17,36.23-6.03,6.59-1.86,21.95-8.13,25.37-8.53,2.46-.67,14.22-3.83,16.5-2.46.69,2.75.68,10.99.68,10.99,0,0-3.28.88-4.12,4.8-1.38.48-7.84.82-12.01,2.06s-51.55,10.16-70.44,37.07-22.84,39.23-20.51,60.4c0,0,2.91,3.95,10.28,3.36s18.91-8.09,18.91-8.09c0,0,35.48-19.75,48.42-20.76,14.8-1.12,24.35-4.06,36.99-2.04,6.82-.25,18.47-1.28,28.28-1.06s19.86,2.42,24.18,2.05Z"/><path class="cls-3" d="M185.37,129.62s7.68-10.24,36.16-15.38c28.48-5.14,42.09-.78,42.09-.78,0,0,19.17,1.83,20.77,1.49s3.9,2.99,2.57,3.37-13.29,1.85-14.41,2.84c-2.99,1-18.91,6.15-21.97,7.04s-22.06,6.35-38.23,6.2c-2.31.11-15.97-.37-22.87-2.35-2.89-1.09-4.12-2.42-4.12-2.42Z"/><path class="cls-2" d="M294.05,104.14s5.58-1.54,9.31,3.6c3.73,5.14-.44,9.71-.44,9.71,0,0-3.56,3.47-8.22,3.16s-6.59-5.82-6.72-6.65-1.85-7.63,6.06-9.83Z"/><path class="cls-3" d="M307.29,112.24l-1.1,4.69s9.05-.32,16.56.78c7.51,1.1,24.08,3.48,34.58,3.44,10.5-.03,28.4-.77,36.65-4.94,8.26-4.17,6.73-3.87,6.92-4.43-1.44-.8-14.77-8.82-34.14-8.08-19.37.74-36.95,2.53-45.29,4.99-4.41.98-14.18,3.54-14.18,3.54Z"/><path class="cls-2" d="M294.66,122.38l4.31-.65s2.83,7.65.7,10.31c-.34.69-3.07,2.35-5-.9-.29-3.32,0-8.07,0-8.07v-.69Z"/><path class="cls-2" d="M292.11,136.84l12.01-.69s1.12-1.4-1.74-1.75c-1.71-.78-7.02-4.94-10.28,2.44Z"/><path class="cls-16" d="M187.63,223.94s40.31-25.03,67.75-28.42c.91-6.67,1.19-25.55,9.49-36.36s20.73-18.74,21.76-19.09-4.3.89-10.31,1.59c-6.01.69-39.36,9.46-53.22,21.16-13.71,11.11-29.75,27.63-35.47,61.12Z"/><path class="cls-12" d="M257.45,194.5s1.45-26.06,13.04-38.44c6.08-7.01,18.53-15.79,20.59-16.13s9.18-1.58,13.84.39,16.88,15.77,22.05,24.56,6.69,21.82,7.36,22.08c-5.74.11-45.33.23-76.88,7.55Z"/><path class="cls-2" d="M307.9,139.76s22.26-1.91,39.21,5.33c16.95,7.24,27.92,17.39,31.08,21.93s11.49,14.8,13.16,29.57c-10-2.53-32.8-8.04-55.31-8.94-.89-4.47-1.58-29.09-28.14-47.89Z"/><path class="cls-4" d="M346.67,142.88s43.83,15.86,46.34,53.71c5.06,2.32,15.63,6.13,16.84,6.93,1.34-1.23,1.67-22.74-29.05-47.38-12.98-8.79-27.76-13.46-34.13-13.27Z"/><path class="cls-14" d="M335.01,189.01c19.65.86,53.24,5.71,70.7,14.41,1.72.86,7.9,4.38,8.22,5.85-.87,3.32-3.97-1.33-4.96-1.89-14.22-8.1-51.44-14.08-68.14-14.93-9.16-.47-38.23-1.1-45.5,1.88-1.03.42-1.87-.41-1.51,1.54,31.35-3.67,63.79-2.3,94.26,6.17,1.99,3.48-2.11,1.41-3.97,1.35-11.52-.38-18.51,2.93-28.15,3.49-6.49.38-15.25-1.27-21.96-1.43-15.9-.39-31.7,1.28-47.37,1.38-12.04.08-22.46.28-34.01,4.15l-.67-.36-.06-1.32c2.62-1.09,2.23-2.62,2.1-5.19,11.89-3.49,23.61-5.19,35.69-7.55.81-.16,1.88.12,2.75,0v-2.05c-1.44-.32-2.87.6-4.12.68-7.77.54-15.66,1.14-23.34,2.75l-4.12-2.06c5.46-.29,10.77-2.3,16.31-3.25,18.22-3.12,39.33-4.43,57.82-3.62Z"/><path class="cls-19" d="M254.87,196.59c-30.11,7.82-41.68,16.25-45.83,17.31l-19.55,10.8c-.21,1.71-2.53,11.21-2.06,11.67,2.9.22,5.42,1.16,8.43.53,3.54-.75,17.18-8.8,21.99-10.95,10.39-4.64,24.39-11.49,34.79-14.98l-.67-.36-.06-1.32c2.62-1.09,2.23-2.62,2.1-5.19-15.13,4.44-37.17,11.71-50.57,19.1-4.32,2.39-8.84,5.54-12.94,8.34-.84.28-1.38-.17-1.01-1.01.87-2.01,23.04-14.25,26.6-15.96,14.36-6.88,33.32-13.4,48.9-16.66l-4.12-2.06c5.46-.29,10.77-2.3,16.31-3.25"/><path class="cls-7" d="M211.39,210.91s-5.61-44.05,54.8-66.98c2.83-1.32,19.46-4.3,20.44-3.87-5.54,7.45-29.19,9.9-31.25,55.45-8.11,1.51-34.91,9.72-43.99,15.4Z"/><path class="cls-5" d="M273.23,149.2s-21.75,1.42-38.63,22.3c-2,2.85-7.7,16.12,2.93,16.15,6.55-1.74,18.42-4.42,18.53-5.12s6.9-27.06,17.16-33.33Z"/><path class="cls-10" d="M293.57,105.17s-3.82,6.56,3.31,14.35c-2.63.67-5.71-1.61-6.58-2.79s-5.07-9.44,3.27-11.56Z"/><path class="cls-9" d="M188.74,130.57s43.24-16.76,60.03-13.68,29.4,1.25,31.28-.35-21-1.41-22.61-2.91-24.66-1.63-33.21,1.35-9.52-.77-32.4,10.1c-4.8,2.86-5.91,3.82-3.09,5.5Z"/><path class="cls-9" d="M396.55,111.45s-44.28,8.75-60.47,3.34-25.65-.94-27.74.38,17.31-.08,18.7,1.63,24.18,5.09,33.07,3.35c8.89-1.74,8.61,3.12,32.8-4.41,5.15-2.15,6.2-2.22,3.64-4.28Z"/><rect class="cls-1" width="617.49" height="644.18"/></g></g></g></svg>