<?xml version="1.0" encoding="UTF-8"?><svg xmlns="http://www.w3.org/2000/svg" viewBox="0 0 617.49 644.18"><defs><style>.cls-1{fill:none;}.cls-2{fill:#f5b2be;}.cls-3{opacity:.07;}.cls-3,.cls-4{fill:#fff;}.cls-5{isolation:isolate;}.cls-6{fill:#ed8393;}.cls-7,.cls-8{fill:#ccc;mix-blend-mode:multiply;}.cls-8{opacity:.34;}</style></defs><g class="cls-5"><g id="Lager_2"><g id="weedy"><path class="cls-3" d="M256.41,217.03s-.74,3.07,6.67,2.1,33.54-1.68,41.65,5.38c3.77,3.21,8.38,8.45,9.78,9.08s3.85,3.05,6.11,2.64c.36-1.1.39-4.15-3.27-5.73-2.9-2.78-14.57-18.15-38.26-16.12-16.7.98-22.91,1.61-22.67,2.66Z"/><path class="cls-8" d="M252.99,217.52s-13.88,5.94-14.86,12.02-.28,10.48,2.79,10.62c-1.96,2.31-25.99,9.36-25.99,9.36l-3.63-1.82-.35-2.66.84-1.89,1.47-.14s3.96-12.37,16.21-18.31c12.25-5.94,21.17-7.62,23.97-7.97-1.4.63-.44.77-.44.77Z"/><path d="M212.91,242.4s4.34-16.27,25.6-22.68c21.26-6.41,32.66-6.18,37.65-6.29,4.99-.12,19.48.59,25.53,3.21s13.9,8.91,15.68,11.99c1.19,1.19,1.78,3.44-.59,1.43s-7.48-9.03-16.27-11.99c-5.46-1.43-17.93-2.97-22.33-2.97s-27.55,2.14-29.45,3.44c-4.63,1.19-21.02,6.18-28.74,14.01-4.04,5.94-6.06,10.69-6.06,10.69,0,0-1.91,3.33-1.01-.83Z"/><path d="M319.43,231.49s2.16.94,3.09,3.02-.14,3.81-1.01,4.1-3.74,0-4.24-.43c.07,1.29-1.65,14.99-5.99,19.06-.83.9-6.89,9.44-16.06,12.34-1.45.62-11.92,5.38-24.68,5.51-8.2-.14-30.81-1.17-42.19-10.62-4.27-3.17-12.13-10.41-12.68-13.99-1.38,0-7.31,1.17-6-5.24.83-1.1,2.22-3.68,3.23-2.85s-1.51,2.29-.82,3.26,1.59,2.48,3.17,2,9.61-4.87,28.97-8.68c19.36-3.81,24.76-5.08,34.59-5.71s24.65-1.59,29.83.11c1.59.32,6.88.74,8.36,1.69,1.16.95,3.17,2.01,3.6,1.16s.89-1.86-1.18-4.73Z"/><path class="cls-2" d="M219.16,249.24s23.49-8.15,28.56-8.15c1.59,3.28,5.92,12.02,17.24,12.2,11.32.18,17.24-7.97,17.67-10.3,1.06-2.38,1.67-7.23,1.67-7.23,0,0,26-.84,29.44,1.52-.21,2.43-2.01,17.46-8.15,22.11s-14.03,12.3-35.97,12.8c-6.56,0-29.83-2.22-36.92-8.46-6.98-5.71-13.22-9.94-13.54-14.49Z"/><path class="cls-4" d="M271.84,237.6l11.85-1.59s-.11,5.61-5.18,5.5-6.45-1.9-6.66-3.91Z"/><path d="M316.06,253.29s-3.69,14.12-8.52,16.55c-1.85,2.42-13.21,11.51-31.1,11.37-3.69.28-39.76.86-46.01-9.01-2.41-1.35-7.1-5.61-7.24-6.18s-2.56.43,0,2.41,8.8,9.9,22.86,12.9c14.06,3,34.08,2.58,41.6.73s16.9-7.38,18.17-8.38,9.94-8.38,11.08-17.89l-.85-2.5Z"/><path class="cls-6" d="M254.63,250.1s-4.11,2.84-4.11,3.4.04,1.28-2.08,1.42c-1.99-.14-7.56,7.52-6.71,9.65s-.99,2.84-.99,2.84l-.71-1.7s.99-5.25,1.56-5.25-3.97-.99-3.97-.99c0,0-4.97-1.28-4.97,1.28-1.7-1.28,1.99-2.98,2.55-2.98s4.82,1.28,6.1.99,2.27-.57,3.12-1.84,8.51-7.09,10.21-6.81Z"/><path class="cls-6" d="M262.73,253.91s1.41,7.19,3.81,8.03,8.18,2.82,8.18,3.24v6.48h1.41s.56-7.05-1.13-8.03-6.77-2.26-6.77-2.26c0,0-3.81-3.24-4.09-7.47-.14-.85-1.41,0-1.41,0Z"/><path class="cls-6" d="M281.65,246.25s5.39,8.12,7.22,8.42,6.21.96,6.48,1.46l4.18,7.69.76-.41s-4.24-8.52-5.78-9.2-5.09-.7-5.09-.7c0,0-4.13-2.73-7.01-7.67-.62-.96-.76.41-.76.41Z"/><path class="cls-6" d="M284.51,239.14s10.22,3.81,11.82,3.37,5.35-1.57,5.94-1.31,8.99,3.95,8.99,3.95l.25-.57s-9.67-4.52-11.34-4.44-4.32,1.35-4.32,1.35c0,0-5.17-.45-11.08-2.91-1.2-.46-.25.57-.25.57Z"/><path class="cls-6" d="M246.24,242.54s-5.35.74-5.71,3.4c-2.64,1.21-7.69,3.56-8.38,3.8l2.93-.37,1.23-.82s3.18-1.75,3.98-1.95.66,1.08.66,1.08l1.21-.42-.27-.8s.22-1.62,1.14-2.05,3.79-1.38,4.74-1.71-.26-.77-.26-.77l-1.27.6Z"/><path class="cls-6" d="M253.37,269.43s1.77-2.39.34-3.65c.37-1.54,1.06-4.49,1.21-4.86l-.99,1.3-.02.82s-.27,1.97-.49,2.37-.92-.2-.92-.2l-.25.65.59.23s.87.77.75,1.3-.75,2.06-.94,2.56.57.22.57.22l.17-.75Z"/><path class="cls-6" d="M289.07,268.03s-1.04-2.79-2.88-2.27c-1.09-1.15-3.19-3.34-3.42-3.66l.55,1.53.68.47s1.5,1.3,1.72,1.7-.67.66-.67.66l.41.56.51-.37s1.12-.31,1.5.09,1.32,1.74,1.64,2.19.49-.35.49-.35l-.53-.55Z"/><path class="cls-6" d="M307.91,255.74s-1.04-2.79-2.88-2.27c-1.09-1.15-3.19-3.34-3.42-3.66l.55,1.53.68.47s1.5,1.3,1.72,1.7-.67.66-.67.66l.41.56.51-.37s1.12-.31,1.5.09,1.32,1.74,1.64,2.19.49-.35.49-.35l-.53-.55Z"/><path class="cls-8" d="M387.15,209.72s.89,2.89-5.76,2.56-29.9,1.14-36.56,8.58c-3.11,3.4-6.8,8.81-8,9.53s-3.19,3.24-5.22,3.03c-.4-1.02-.66-3.95,2.47-5.78,2.37-2.91,11.56-18.63,32.74-18.63,14.9-.43,20.46-.34,20.32.69Z"/><path class="cls-3" d="M390.22,209.91s12.77,4.57,14.1,10.33c1.33,5.76,1.04,10.05-1.68,10.44,1.91,2.06,23.78,6.87,23.78,6.87l3.09-2.04.11-2.58-.89-1.74h-1.31s-4.45-11.57-15.78-16.28-19.37-5.58-21.88-5.69c1.29.49.45.7.45.7Z"/><path d="M427.69,230.54s-5.08-15.28-24.44-19.7-29.46-3.26-33.89-2.96c-4.44.29-17.24,2.17-22.42,5.17-5.18,3.01-11.66,9.7-13.01,12.81-.96,1.24-1.32,3.46.64,1.32s5.96-9.29,13.53-12.86c4.74-1.82,15.69-4.32,19.59-4.68s24.62-.2,26.41.9c4.2.76,19.13,4.21,26.57,11.11,4.03,5.38,6.19,9.78,6.19,9.78,0,0,1.94,3.04.84-.88Z"/><path d="M332.3,228.79s-1.84,1.08-2.52,3.16c-.67,2.08.42,3.65,1.2,3.86s3.32-.31,3.73-.76c.03,1.25,2.6,14.27,6.76,17.82.8.79,6.83,8.51,15.19,10.54,1.33.48,10.99,4.19,22.32,3.28,7.27-.8,27.26-3.65,36.64-13.66,3.55-3.4,9.98-11,10.2-14.49,1.22-.11,6.57.53,4.93-5.53-.82-.99-2.25-3.35-3.08-2.47s1.51,2.08.97,3.07-1.22,2.51-2.66,2.18-8.9-3.9-26.37-5.97c-17.47-2.07-22.36-2.85-31.14-2.65s-22,.5-26.47,2.55c-1.38.44-6.05,1.28-7.29,2.31-.96,1.01-2.67,2.19-3.1,1.41s-.93-1.72.69-4.64Z"/><path class="cls-2" d="M422.66,237.62s-21.46-5.9-25.97-5.49c-1.16,3.28-4.35,12.04-14.38,13.14-10.03,1.1-15.91-6.24-16.46-8.45-1.12-2.2-2.03-6.81-2.03-6.81,0,0-23.15,1.33-26.02,3.87.37,2.32,3.11,16.61,8.91,20.58,5.8,3.97,13.39,10.68,32.9,9.35,5.82-.54,26.31-4.58,32.13-11.16,5.77-6.06,10.99-10.64,10.92-15.04Z"/><path class="cls-4" d="M385.56,230.95l8.5.65s-1.37,5.23-4.83,4.21-3.99-2.95-3.67-4.86Z"/><path d="M336.74,254.69s5.63,12.78,10.26,14.26c2.03,1.99,13.51,8.7,29.15,5.54,3.28-.35,34.95-5.89,38.74-16.31,1.88-1.69,5.26-6.52,5.29-7.09s2.31-.03.41,2.29-6.03,10.88-17.82,16.1-29.39,8.2-36.29,7.71-16.04-4.16-17.33-4.88-10.12-6.27-12.73-15.11l.32-2.51Z"/><path class="cls-6" d="M391.24,241.36s3.87,2.39,3.91,2.93.06,1.23,1.96,1.19c1.75-.3,7.28,6.61,6.69,8.72s1.1,2.65,1.1,2.65l.5-1.69s-1.28-4.96-1.78-4.92,3.45-1.28,3.45-1.28c0,0,4.31-1.63,4.5.82,1.41-1.37-1.99-2.7-2.49-2.65s-4.18,1.62-5.34,1.45-2.06-.36-2.91-1.52-8.09-6.12-9.58-5.71Z"/><path class="cls-6" d="M384.33,245.69s-.71,7.02-2.77,8.03-7.04,3.38-7.01,3.79l.49,6.23-1.25.12s-1.03-6.73.39-7.81,5.84-2.72,5.84-2.72c0,0,3.13-3.43,3.06-7.51.06-.82,1.25-.12,1.25-.12Z"/><path class="cls-6" d="M366.96,239.87s-4.17,8.24-5.77,8.68-5.44,1.43-5.64,1.93l-3.13,7.73-.7-.33s3.12-8.54,4.44-9.32,4.47-1.09,4.47-1.09c0,0,3.46-2.97,5.64-7.94.48-.98.7.33.7.33Z"/><path class="cls-6" d="M363.88,233.28s-8.78,4.5-10.23,4.2-4.87-1.07-5.37-.77-7.68,4.53-7.68,4.53l-.26-.52s8.25-5.14,9.73-5.2,3.94.94,3.94.94c0,0,4.55-.85,9.62-3.7,1.03-.54.26.52.26.52Z"/><path class="cls-6" d="M398.11,233.41s4.81.28,5.33,2.8c2.44.95,7.1,2.79,7.72,2.96l-2.63-.12-1.15-.68s-2.95-1.42-3.68-1.55-.51,1.1-.51,1.1l-1.11-.3.18-.79s-.32-1.53-1.16-1.87-3.47-1.02-4.34-1.26.18-.76.18-.76l1.17.47Z"/><path class="cls-6" d="M393.81,259.83s-1.75-2.15-.58-3.48c-.44-1.45-1.28-4.23-1.44-4.57l.98,1.16.08.79s.39,1.87.61,2.24.8-.27.8-.27l.27.6-.5.27s-.71.81-.56,1.31.82,1.91,1.03,2.39-.49.26-.49.26l-.21-.7Z"/><path class="cls-6" d="M362.03,261.42s.72-2.76,2.38-2.42c.88-1.19,2.58-3.47,2.76-3.79l-.37,1.52-.57.5s-1.24,1.38-1.4,1.77.64.58.64.58l-.32.58-.48-.31s-1.01-.21-1.33.2-1.04,1.78-1.29,2.24-.46-.3-.46-.3l.43-.57Z"/><path class="cls-6" d="M344.37,251.15s.72-2.76,2.38-2.42c.88-1.19,2.58-3.47,2.76-3.79l-.37,1.52-.57.5s-1.24,1.38-1.4,1.77.64.58.64.58l-.32.58-.48-.31s-1.01-.21-1.33.2-1.04,1.78-1.29,2.24-.46-.3-.46-.3l.43-.57Z"/><path class="cls-7" d="M343.94,275.09s4.41,10.09,28.51,11.62c3.68,1.04-1.29,5.98-8.26,1.66s-18.41-2.53-20.24-13.28Z"/><path class="cls-7" d="M311.51,277.25s-5.08,10.09-32.81,11.62c-4.24,1.04,1.48,5.98,9.51,1.66s21.19-2.53,23.3-13.28Z"/><rect class="cls-1" width="617.49" height="644.18"/></g></g></g></svg>