<?xml version="1.0" encoding="UTF-8"?><svg id="Lager_2" xmlns="http://www.w3.org/2000/svg" viewBox="0 0 617.49 644.18"><defs><style>.cls-1{fill:#755e6b;}.cls-2{fill:none;}.cls-3{fill:#442e39;}.cls-4{fill:#a95f94;}.cls-5{fill:#455032;}.cls-6{fill:#46413f;}.cls-7{fill:#787074;}.cls-8{fill:#2b2323;}.cls-9{fill:#f8f6f6;}.cls-10{fill:#443d41;}.cls-11{fill:#fadee4;}.cls-12{fill:#dadadb;}.cls-13{fill:#da7554;}.cls-14{fill:#ce5a76;}.cls-15{fill:#434837;}.cls-16{fill:#ea8b48;}.cls-17{fill:#dc8669;}.cls-18{fill:#464740;}.cls-19{fill:#e36059;}.cls-20{fill:#88a861;}.cls-21{fill:#eabac1;}.cls-22{fill:#7a78b1;}</style></defs><g id="Lager_53"><path class="cls-4" d="M196.19,227.25l-12.41,9.95-7.73,9.92-1.64,7.09,6.93.38,18.4-2.94,2.62,11.4,5.55,13.09,13.04,11.8,15.25,7.7,21.31,4.63,19.35,2.06,13.27-2.87,14.18-8.02,13.38-17.22,8.63-15.64,4.75.56,2.62,2.87,9.87,16.52s14.05,18.38,18.6,18.48,20.61,1.92,20.61,1.92l19.9-4.31,12.38-6.82,13.18-14.07,6.34-21.33,1.36-17.59-4.54-16.68-11.12-5-20.99-4.51-25.53-.85-31.77,2.24-24.2-.23h-29.65l-27.46-.54-33.76,4.2-21.71,7.69-4.85,4.11-4.19,2.01Z"/><path class="cls-10" d="M209.12,235.42l4.03,25.99,5.86,12.82,14.8,11.23,30.26,7.5h16.21l20.9-9.8,8.42-10.31,4.47-9.8,4.44-7.83,4.2-4.16,6.87-1.29,3.73,1.35,1.58,1.95,4.9,4.67,4.88,8.32,7.97,12.59,8,7.5,5.76,2.84,3.66,2.21,4.84.93,13.4-1.57,12.35-7.19,17.12-10.98,6.73-20.46-1.31-20.78-6.99-9.02-29.44-3.99h-41.08l-22.98.91-29.04,1.08-33.71-1.08-37.67,5.75s-13.1,8.42-13.18,10.62Z"/><path d="M223.59,291.38c.08-.15-1.12-.66-1.04-.8.08-.13-3.9-1.92-3.65-2.72l-.42.12c-2.74-3.44-6.16-4.52-8.9-8.02-5.57-7.11-9.06-16.99-11.13-25.71-1.6-1.18-19.7,3.28-23.09.94l-.95-.98-.39-2.6c2.8-6.03-.68-4.22,3.79-9.75,3.36-4.15,8.33-8.16,12.66-11.27,1.42-1.02,4.05-1.93,5.14-2.82.21-.17.42-.28.59-.52.08-.12,1.23-2.57,1.28-2.72,2.65.33,2.97-.32,3.5-2.59,6.9-5.36,16.02-6.2,23.64-9.3,1.88-.77,2.93.09,4.53-.69.77-.38,2.59-.5,2.59-.5,1.04.58,2.34-.37,2.81-.39.55-.03,1.12.13,1.67.1,11.79-.69,23.87-2.28,35.61-2.39,1.07-.01,2.2.74,1.99-.99.56,0,1.11.09,1.67.1.18.88,2,.95,2.23.13.37,0,.74.05,1.11.06,2.11.1,4.99.77,6.71-.17.37.02.74.06,1.11.06,4.25,1.34,9.68,1.43,13.94.26.37.02.74.04,1.11.06l.28.06.28-.03c.56.04,1.11.05,1.67.1,1.47.11,2.98.1,4.45.26.18.02.37,0,.56.03.64.08,2.47,1.29,3.87.78l.06-1.11c.19.02.41-.02.56.03.19.06.48-.05.56.03.12.12.44,1.79,1.56,2.15l-.05.73c-1.05.02-2.69-.59-3.37.36-2.22-.06-4.46-.33-6.68-.39-.93-.03-1.85-.14-2.78-.16-.72-1.1-2.65-.59-3.87-.78l-.06,1.11c-1.66-.04-3.34-.27-5.01-.29-1.85-.02-3.72-.31-5.56-.32-3.53-.03-7.08-.07-10.6-.06-20.84.09-42.85.93-62.44,8.08-4.37,1.6-5.78,1.93-9.75,4.46-1.84,1.17-3.03.84-4.65,3.37-2.51,3.92-1.57,14-.97,18.77.48,3.8,1.77,6.74,2.62,10.07,2.78,10.85,4.31,17.03,12.48,25.29,4.89,4.95,7.24,6.21,13.42,9.16,4.84,2.31,8.4,3.83,13.65,5.26,14.14,3.86,28.85,5.51,43.37,3.09,2.43-.41,3.75-.51,6.22-1.31,4.71-1.53,6.1-2.64,9.82-5.57,1-.79,1.47-1.26,2.36-2.1,3.48-3.27,4.47-4.62,7.2-8.51,5.07-7.26,7.87-14.89,12.53-21.81.64-.95,1.43-.23,1.7-1.92l7.23.42c.17.97,2.19,2.48,2.83,3.55,11.98,20.22,17.92,36.55,45.38,36.1,19.69-.32,37.24-9.51,47.18-26.45.41-.7.4-1.77.55-2.02.03-.05.92-.43,1.15-.49.36-.09,1.14.3,1.57,0,.86-.58.91-6.17,2.59-4.23-2.2,7.25-4.96,12.81-10.28,18.39-3.24,3.4-7.17,4.89-9.87,8.81l-1.76.67-2.26.89c.62.27-1.81.82-2.14.97-1.11.48-2.42,1.32-2.88,1.51-2.99,1.21-8.13,2.55-11.36,3.25-2.1.45-8.14,1.76-9.87,1.66l-15.58-.91c-9.23-.54-21.75-14.45-26.59-21.71-2.06-3.09-8.46-15.92-10.53-17.02-1.52-.81-2.9-.34-4.22.58-2.86,1.99-8.56,15.6-11.38,19.82-7.14,10.69-17.65,19.75-30.9,20.72-.28,1.26-4.58,1-7.1.73-1.35-.15-2.53.42-3.83.33-17.52-1.17-31.99-3.13-48.09-10.54M195.84,241.67l-.15-10.54c-5.24,3.15-10.64,6.48-14.35,11.44,1.12,1.71,12.22-.15,14.49-.9ZM196.85,244.6c-5.92.68-12.24,2.24-18.12,1.23-1.06.25-3.16,4.49-2.59,5.79.5,1.55,3.47,1.56,4.84,1.55,5.13-.05,11.38-2.01,16.61-2.4l-.75-6.16Z"/><path d="M386.78,206.77c.86,1.45,3.92-1.01,4.7.62,8.64.45,17.85,1.2,26.22,3.45,9.26,2.49,16.42,5.63,18.44,15.78,2.25,11.32.73,26.48-2.57,37.37-1.67-1.94-1.72,3.65-2.59,4.23-.43.29-1.2-.1-1.57,0,.82-2.65.82-6.54,1.67-8.99.96-2.8,1.73-4.31,2.12-8.09.68-6.63,1.35-23.13-1.76-28.77-3.22-5.83-11.79-7.83-17.8-9.22-6.93-1.61-13.41-2.38-20.49-2.87-.92-1.3-3.29-.39-4.61-.81-.61-.19-.24-1.09-.3-1.15l-1.46-1.54Z"/><path class="cls-18" d="M195.6,227.78l.59-.52c-.17.25-.38.35-.59.52Z"/><path class="cls-19" d="M424.56,265.14c1.71.84,1.62,3.4,3.7,3.57-.16.25-.14,1.32-.55,2.02-9.94,16.94-27.49,26.13-47.18,26.45-27.46.45-33.4-15.88-45.38-36.1-.64-1.08-2.66-2.58-2.83-3.55-.21-1.21.37-3.11.26-4.45,6.88,3.04,8.94,11.25,12.72,17.43,11.83,19.29,23.47,25.57,46.49,20.37,12.95-2.92,28.56-12.34,32.76-25.73Z"/><path class="cls-4" d="M277.55,210.78l-1.44,5.5c-16.44.17-43.79,1.36-58.55,8.31l-.51-5.09-1.95-.63c19.6-7.16,41.6-8,62.44-8.08Z"/><path class="cls-19" d="M205.35,223.32c3-.27,1.87,2.73,2.55,4.19.31.66,1.39.78,1.54,1.42.08.31-1.25,4.78-1.44,6.27-.07.55-.05,1.12-.1,1.67-.9.32-1.02,2.36-.16,2.78-.09,6.03.77,12.18,2.3,18-2.56,1.17-4.97-2.04-7.69-2.12-.85-3.32-2.14-6.27-2.62-10.07-.61-4.77-1.54-14.85.97-18.77,1.62-2.53,2.81-2.2,4.65-3.37Z"/><path class="cls-4" d="M283.28,294.31c2.24.49,1.51,2.19,2,4.02-14.52,2.42-29.23.77-43.37-3.09.41-2.09-.85-3.75-1.34-5.66,12.85,4.4,29.39,5.75,42.71,4.73Z"/><path d="M385.65,206.92c.53.26,2.84.05,3.46.1.2,2.79-1.76.44-.87,1.28.06.06-.31.96.3,1.15,1.32.42,3.69-.49,4.61.81-1.48-.1-2.97-.21-4.45-.26-17.06-.62-34.35,1.18-51.45,1.47-3.8.06-8.55-.48-12.27-.16-.26.02-.51.26-.59.52-.55-.06-1.12-.05-1.67-.1.11-2.56-3.05-1.69-4.91-1.96l-.09,1.67c-.56-.02-1.11-.08-1.67-.1l-.56-.03.05-.73c-1.12-.36-1.43-2.02-1.56-2.15h.51c1.22.22,2.57-.04,7.36-.1,1.64.65,1.89.12,2.18.13.93.04,1.85.12,2.78.16.71,1.5,2.22.24,2.78.16,1.66-.23,3.35-.5,5.04-.26.26.4.46.04.56.03,2.06-.11,4.1-.12,6.15-.2,9.47-.36,19.26-1.48,28.57-1.68,2.84-.06,12.23-.12,14.5.29.06.01.24.84,1.08.62l-2.19.42,2.36-1.08Z"/><path class="cls-16" d="M210.05,257.65c.97,3.68,3.83,11.81,5.83,14.86l-1.04,8.31c-8.17-8.26-9.71-14.44-12.48-25.29,2.72.08,5.13,3.29,7.69,2.12Z"/><path class="cls-19" d="M325.1,257.1c-.27,1.69-1.06.97-1.7,1.92-4.66,6.92-7.46,14.56-12.53,21.81-1.83,1.06-3.02.1-3.24-1.86-.02-.15,0-.42.03-.56.21-.13.49-.3.59-.52,2.05-4.52,9.59-20.27,12.51-23,.79-.74,1.52-.81,2.3-1.26,2.42-.15,2.34,1.52,2.03,3.47Z"/><path class="cls-1" d="M196.85,244.6l.75,6.16c-5.23.39-11.48,2.35-16.61,2.4-1.37.01-4.35,0-4.84-1.55-.57-1.3,1.53-5.54,2.59-5.79,5.88,1.01,12.19-.55,18.12-1.23Z"/><path class="cls-11" d="M317.71,211.45c1.66.05,3.36.15,5.01.29.55.05,1.12.03,1.67.1.18.02.37,0,.56.03.85.13,1.84-.2,2.47.7l.57,4.51c-5.93.04-11.43-.36-17.28-.45-.61,0-1.39-.25-1.7.46l-2.78-.16-.79-5.63c2.22.06,4.46.33,6.68.39,1.47.04,3.26-.35,3.93-.33.56.02,1.11.08,1.67.1Z"/><path class="cls-19" d="M228.06,283.83c.03,1.86,1.53,4.7.2,6.15-6.18-2.95-8.53-4.21-13.42-9.16l1.04-8.31c1.97,3,9.04,9.42,12.18,11.32Z"/><path class="cls-20" d="M302.65,211.13c.93.02,1.85.14,2.78.16l.79,5.63c-8.35.65-16.72-.78-25.07-.9,3.78-2.49,9.17-1.9,12.57-4.85,1.66.02,3.34.26,5.01.29,1.11.02,2.43-.37,3.93-.33Z"/><path class="cls-4" d="M433.2,251.13c-.39,3.78-1.16,5.3-2.12,8.09-.84,2.46-.85,6.34-1.67,8.99-.22.06-1.11.44-1.15.49-2.08-.16-1.99-2.73-3.7-3.57,1.29-4.13,2.26-11.64,2.61-16.04l6.02,2.03Z"/><path class="cls-13" d="M195.84,241.67c-2.27.74-13.38,2.6-14.49.9,3.71-4.96,9.11-8.29,14.35-11.44l.15,10.54Z"/><path class="cls-14" d="M215.1,218.86l1.95.63.51,5.09c-5.23,2.46-7.28,5.38-9.55,10.61.18-1.49,1.32-5.9,1.25-6.21-.16-.64-1.14-.76-1.45-1.42-.68-1.46.42-4.45-2.58-4.18,3.97-2.52,5.5-2.94,9.88-4.53Z"/><path class="cls-14" d="M240.57,289.58c.49,1.91,1.75,3.57,1.34,5.66-5.25-1.43-8.81-2.96-13.65-5.26,1.33-1.45-.17-4.29-.2-6.15,3.05,1.85,9.11,4.59,12.51,5.75Z"/><path class="cls-21" d="M298.73,287.95c-.26,1.67.93,3.19,2.59,3.5-3.71,2.93-5.11,4.04-9.82,5.57l-1.07-.1c.27-1.75-.55-2.66-1.49-3.96,2.65-.83,7.55-3.37,9.78-5.01Z"/><path class="cls-16" d="M310.87,280.84c-2.72,3.9-3.72,5.25-7.2,8.51-1.13-1.48-1.91-2.56-1.41-4.55,1.84-1.86,2.79-4.68,5.36-5.83.22,1.96,1.41,2.92,3.24,1.86Z"/><path class="cls-21" d="M332.59,253.07c.11,1.34-.47,3.24-.26,4.45l-7.23-.42c.31-1.95.39-3.62-2.03-3.47,2.5-1.41,4.61-2.45,7.62-1.76.94.21,1.33.95,1.9,1.2Z"/><path class="cls-19" d="M293.72,211.17c-3.4,2.95-8.78,2.36-12.57,4.85-.93-.01-1.86-.14-2.78-.16.68-4.62,6.65-3.53,9.78-5.01,1.85.02,3.72.3,5.56.32Z"/><path d="M273.82,207.77c.21,1.74-.92.98-1.99.99-11.74.11-23.83,1.7-35.61,2.39.61-.94,1.61-.83,2.55-.99,5.34-.92,11.2-1.44,16.6-1.8,2.23-.15,4.93-.04,7.27-.13,1.33-.05,2.55-.3,3.93-.33,2.35-.05,4.95-.15,7.27-.13Z"/><path class="cls-14" d="M288.95,292.96c.93,1.3,1.76,2.21,1.49,3.96l1.07.1c-2.47.8-3.78.91-6.22,1.31-.49-1.83.24-3.53-2-4.02.89-.07,4.61-1.02,5.66-1.34Z"/><path class="cls-14" d="M288.15,210.84c-3.13,1.48-9.1.39-9.78,5.01l-2.26.43,1.44-5.5c3.53-.01,7.08.03,10.6.06Z"/><path class="cls-17" d="M303.67,289.35c-.89.83-1.35,1.3-2.36,2.1-1.66-.31-2.85-1.83-2.59-3.5.62-.45,2.94-2.54,3.53-3.14-.5,1.99.28,3.07,1.41,4.55Z"/><path d="M300.59,208.22c-4.26,1.17-9.69,1.09-13.94-.26,1.92.04,4.23-.27,5.6-.23,2.77.07,5.57.34,8.35.49Z"/><path d="M312.86,208.38l-.06,1.11c-1.39.51-3.22-.7-3.87-.78,1.31-.35,2.56-.48,3.93-.33Z"/><path d="M285.53,207.9c-1.72.94-4.6.27-6.71.17,1.72-.94,4.6-.27,6.71-.17Z"/><path d="M302.65,211.13c-1.49-.04-2.82.35-3.93.33l.06-1.11c1.21.19,3.15-.32,3.87.78Z"/><path class="cls-6" d="M315.48,211.32l.56.03c-.67-.02-2.45.37-3.93.33.68-.95,2.32-.34,3.37-.36Z"/><path d="M277.71,208c-.23.82-2.05.75-2.23-.13.74.01,1.48.11,2.23.13Z"/><line class="cls-15" x1="301.98" y1="208.34" x2="301.7" y2="208.28"/><path class="cls-5" d="M306.51,192.93c.26-.76.83-.73,1.18-1.05l-1.18,1.05Z"/><path class="cls-22" d="M433.2,251.13l-6.02-2.03c.74-9.23,1.15-22.99-8.43-27.85.81-3.98-4.56-4.78-5.11-8.11,6,1.4,14.57,3.39,17.8,9.22,3.11,5.63,2.44,22.13,1.76,28.77Z"/><path class="cls-19" d="M393.15,210.27c7.08.49,13.56,1.26,20.49,2.87.55,3.33,5.92,4.14,5.11,8.11-7.65-3.88-19.17-4.4-27.63-4.96-1.31-2.37.22-5.5-2.43-6.28,1.48.05,2.97.16,4.45.26Z"/><path class="cls-8" d="M391.12,216.29c8.46.56,19.98,1.08,27.63,4.96,9.57,4.86,9.16,18.62,8.43,27.85-.35,4.4-1.32,11.91-2.61,16.04-4.2,13.4-19.81,22.81-32.76,25.73-23.03,5.2-34.67-1.07-46.49-20.37-3.79-6.18-5.85-14.39-12.72-17.43-.57-.25-.96-.99-1.9-1.2-3.01-.69-5.12.35-7.62,1.76-.79.45-1.51.52-2.3,1.26-2.92,2.74-10.46,18.48-12.51,23-.27.07-.51.26-.59.52-.04.14-.05.41-.03.56-2.58,1.15-3.53,3.97-5.36,5.83-.6.6-2.92,2.69-3.53,3.14-2.23,1.64-7.13,4.18-9.78,5.01-1.05.33-4.78,1.28-5.66,1.34-13.32,1.03-29.86-.33-42.71-4.73-3.4-1.16-9.46-3.91-12.51-5.75s-10.22-8.32-12.18-11.32-4.87-11.18-5.83-14.86c-1.53-5.82-2.39-11.97-2.3-18,.01-.92.09-1.86.16-2.78.05-.55.03-1.12.1-1.67,2.27-5.23,4.33-8.15,9.55-10.61,14.76-6.95,42.11-8.14,58.55-8.31l2.26-.43c.93.03,1.86.15,2.78.16,8.35.13,16.72,1.56,25.07.9l2.78.16,1.7-.46c5.85.09,11.36.49,17.28.45,2.8-.02,5.58-.03,8.38-.07,18.46-.25,36.25-1.93,54.76-.71ZM380.85,220.16c-6.32-.14-12.71.46-19.02.57-2.95.05-6.19.59-9.22.6-7.97.02-16.25-1.95-24.31-.05-4.33,1.02-3.86,3.45-7.07,5.69s-6.34,1.26-8.58,4.3c-.87-2.12-8.86-2.21-11.03-2.32s-8.55-.8-10.13.76c-1.34,1.32-4.3,11.04-5.27,13.53-.85,2.16-2.2,4.96-3.18,7.52l-2.42-2.86c-3.56.18-5.89-1.03-9.01-2.27.65-2.98.19-8.17-1.61-10.7,1.51-3.16,3.25-7.49,3.43-10.97.04-.71.22-1.43.05-2.14-.53-.34-1.11-.51-1.74-.55-9.95-.56-20.95.97-30.69,2.48-5.75.89-10.69,1.29-16.37,3.24-9.42,3.24-11.69,5.48-11.54,15.79.02,1.15.33,5.06.73,5.82,1.96,3.67,14.05-2.27,17.44-1.41-.05,5.76.08,11.55.11,17.31-1.12.79-3.83.7-4.54,1.12-.5.3-.8,1.73-1.5,2.46-1.25,1.31-2.82,2.51-4.43,3.35,0,.38,2.28,4.79,2.69,5.26,3.39,3.88,18,10.03,23.15,11.37,1.58.41,4.36.27,6.31.67,6.29,1.3,20.16,4.39,25.89,2.54,2.18-.7,1.94-1.6,3.22-2.63.72-.58,2.46-.15,2.52-1.87.08-2.01-2.39-1.81-2.57-2.01-.21-.23,1.25-4.63.36-6.12,2.86,0,4.79.36,6.33-2.67,1.24-2.45,1.07-7.69,4.82-6.73.56.03,1.11.07,1.67.1s1.12.12,1.67.1c2.92-.12,5.34-.47,8.38-.07.46.06,1.35-.1,1.59.15.44.47-.17,3.15.99,3.34l5.83-13.61c1.59-2.65,4.32-4.43,3.79-7.6,3.98-1.52,9.84-4.21,14.14-2.82,6.15,2,7.84,7,11.29,11.57.52.69,2.39,2.02,2.39,2.36.06,4.85,6.11,11.28,9.14,15.61.46.66.46,2.09,1.76,2.92,1.07.69,2.11.51,3.02,1,1.3.7,5.18,3.12,6.69,4.07,1.34.84,3.15,3.69,4.59,4.36,3.3,1.55,13.63-1.11,16.86-2.94,3.84-2.17,4.71-5.02,7.27-7.83,1.01-1.11,2.72-1.21,2.88-2.98.95-.05,1.65-.37,2.26-.43.97-.09,1.86-.24,2.81-.39,3.43-.54,10.51-1.77,11.52-6.03.2-.83.17-2.72-.36-3.37.58-1.33,2.37-1.15,3.17-2.07.84-.97.66-2.49,1.05-3.26,4.52-8.88,5.08-15.61,3.01-25.63-.73-3.51-1.87-8.31-4.99-10.33-6.12-3.96-21.16-4.53-28.58-4.91l.07-1.11-6.33-.38-.42,1.1Z"/><path class="cls-14" d="M207.75,239.65c-.86-.42-.74-2.47.16-2.78-.08.92-.15,1.86-.16,2.78Z"/><path class="cls-16" d="M388.7,210.01c2.64.78,1.11,3.92,2.43,6.28-18.51-1.22-36.3.46-54.76.71-2.91-.99-1.98-4.89.88-5.53,17.1-.28,34.39-2.08,51.45-1.47Z"/><path class="cls-17" d="M337.25,211.47c-2.86.65-3.79,4.54-.88,5.53-2.8.04-5.58.05-8.38.07l-.57-4.51c-.63-.89-1.62-.56-2.47-.7l.03-.56c3.73-.32,8.48.22,12.27.16Z"/><path d="M322.72,211.74c-1.65-.14-3.35-.24-5.01-.29l.09-1.67c1.87.27,5.02-.59,4.91,1.96Z"/><path d="M329.59,208.79c-.56.08-2.08,1.34-2.78-.16.93.04,1.85.12,2.78.16Z"/><path class="cls-6" d="M324.94,211.87c-.18-.03-.37-.01-.56-.03.08-.26.32-.5.59-.52l-.03.56Z"/><path class="cls-5" d="M334.63,208.53l.56.03c-.1,0-.3.37-.56-.03Z"/><path class="cls-16" d="M307.66,278.42c.08-.27.32-.45.59-.52-.1.22-.38.39-.59.52Z"/><path class="cls-20" d="M310.71,216.62l-1.7.46c.31-.71,1.09-.47,1.7-.46Z"/><path class="cls-12" d="M270,234.91c1.8,2.54,2.26,7.72,1.61,10.7-.45,2.07-3.08,6.81-5.64,6.89l-.41,1.12c7.33,1.34,9,11.65,5.6,17.27-2.47,4.08-7.2,6.08-11.51,7.51-5.11-.31-10.89.75-15.96.74-2.49,0-11.54,0-12.31-2.76-.08-3.97.07-7.95.05-11.91-.03-5.76-.15-11.56-.11-17.31,0-.19.03-.37.03-.56,4.75-.46,9.27-2.94,14.11-2.53.06,1.45-.28,2.99-.26,4.45,3.69-.39,12.65,1.59,13.6-3.44.46-2.44-.43-2.73-2.01-3.7-3.7-2.28-7.48-1.45-11.65-1.24.07-1.12-.1-2.1.7-3.07,1.12-1.35,8.16-5.12,10.2-6.36.72-.44,1.67-.33,1.47-1.58,3.5.34,10.43,2.83,12.51,5.75ZM245.21,267.52c3.91-.61,14.81,1.9,14.77-4.4s-10.41-4.01-14.25-4.5l-.52,8.9Z"/><path class="cls-10" d="M361.83,220.72c1.59,2.65,4.54,4.99,5.11,8.11-.47-.12-1.14-.02-1.67-.1-.12-.55-.61-.56-1.08-.62-4.47-.6-12.9.26-16.42,3.21-.83.7-1.02,1.75-1.19,1.91-.27.25-1.56.25-2.58,1.55-2.11,2.69-2.65,7.41-2.63,10.73,0,.72.27,4.47.41,4.65.18.23,1.29.26,1.81.74,2,1.83,2.3,3.02,5.05,4.5,3.33,1.79,15.69,3.93,16.65,6.28,2.32,5.65-6.11,7.22-9.99,4.15-1.36-1.08-1.58-2.78-2.99-3.71l-6.9.64c0-.34-1.87-1.67-2.39-2.36-3.46-4.58-5.14-9.58-11.29-11.57-4.3-1.4-10.16,1.29-14.14,2.82-.88-5.29-3.33-12.76-4.83-18.15-.21-.75-.01-1.97-.12-2.24,2.24-3.03,5.49-2.15,8.58-4.3s2.74-4.66,7.07-5.69c8.06-1.9,16.35.07,24.31.05,3.04,0,6.27-.55,9.22-.6Z"/><path class="cls-7" d="M380.85,220.16c2.22.05,4.46.28,6.68.39,7.42.38,22.46.95,28.58,4.91,3.12,2.02,4.26,6.83,4.99,10.33,2.07,10.02,1.51,16.75-3.01,25.63-2.67-.89-5.33-1.85-8.04-2.63-1-.29-2.21.41-1.78-1.29,3.67-.92,4.86-5.83,3.01-8.74-2.18-3.45-11.96-1.82-15.78-2.05l.39-6.68,16.8-.39c1.11-2.85,2.04-9.38-1.6-10.75s-13.75-.28-18.17-.2c-2.3.04-8.05-.9-9.79.26-1.5,1-.94,14.21-.98,16.98-1.22-.19-3.45-.95-4.33-1.69-.67-.56-.94-1.92-1.04-1.97,1.89-2.48.89-4.62-.71-7.02-1.93-2.89-5.78-5.51-9.12-6.4-.57-3.12-3.52-5.47-5.11-8.11,6.3-.1,12.69-.7,19.02-.57Z"/><path class="cls-12" d="M346.59,233.23c2.34,1.02,5.76,4.65,6.92,6.82.57,1.07-.18,2.94.27,4.22.3,0,.54-.54.58-.53.59.15,1.98,1.87,3.45,2.47,5.08,2.06,10.99,1.78,15.82,5.45,7.55,5.72,5.72,18.89-1.92,23.7-4.91,3.09-11.47,3.5-17.13,3.01-3.03-4.33-9.08-10.75-9.14-15.61l6.9-.64c1.41.93,1.63,2.63,2.99,3.71,3.87,3.07,12.31,1.5,9.99-4.15-.97-2.35-13.32-4.49-16.65-6.28-2.75-1.48-3.05-2.66-5.05-4.5-.52-.48-1.64-.51-1.81-.74-.14-.19-.4-3.93-.41-4.65-.03-3.32.52-8.04,2.63-10.73,1.02-1.3,2.31-1.29,2.58-1.55Z"/><path class="cls-12" d="M301.61,228.94c.82,6.85,4.82,12.83,7.25,19.19l-.17,1.22-4.52,2.63c-.25-1.37-2.15-10.28-2.46-10.74-.54-.82-1.04-.66-1.9-.68l-5.49,17.26c2.9.78,6,.77,8.93.25,0,1.38.06,2.39-.74,3.61-.34.51-5.7,6.28-6.1,6.48-.72.35-1.86-.09-2.68-.04l-.06,1.11c-3.76-.96-3.58,4.29-4.82,6.73-1.54,3.03-3.47,2.67-6.33,2.67-2.17,0-4.56-.49-6.68-.39-.36.02-.82-.13-1.11-.06l-.88-2.4c3.34-8.23,6.02-16.74,9.18-25.03.97-2.55,2.33-5.35,3.18-7.52.97-2.49,3.93-12.21,5.27-13.53,1.58-1.56,7.9-.87,10.13-.76Z"/><path class="cls-10" d="M358.5,239.51c.64-.05,1.54.07,2.23.13.54.05,1.2-.02,1.67.1.19.05.43-.03.56.03.79.39,1.16,2.36,2.46,2.82,1.09.39,3.35.39,4.61.38s6.36-.94,6.74-.72c.1.06.37,1.41,1.04,1.97.88.74,3.12,1.5,4.33,1.69-.03,2.13.22,4.28.2,6.15,0,.37-.06.74-.06,1.11-.03,3.69-.03,7.46-.09,11.16-.04,2.26-1.26,10.7.24,11.78,1.2.86,4.96.88,6.58.92,2.44.07,6.24.05,8.63-.08-.17,1.77-1.87,1.88-2.88,2.98-2.57,2.81-3.44,5.67-7.27,7.83-3.24,1.83-13.56,4.49-16.86,2.94-1.43-.67-3.25-3.52-4.59-4.36-1.51-.95-5.39-3.37-6.69-4.07-.91-.49-1.95-.31-3.02-1-1.29-.84-1.29-2.26-1.76-2.92,5.66.49,12.22.08,17.13-3.01,7.65-4.81,9.47-17.98,1.92-23.7-4.83-3.66-10.73-3.39-15.82-5.45-1.47-.6-2.86-2.32-3.45-2.47-.36-2.08,1.74-3.91,3.6-4.26.17-.03.37.05.56.03Z"/><path class="cls-10" d="M231.43,264.48c.02,3.96-.12,7.95-.05,11.91.76,2.76,9.82,2.75,12.31,2.76,5.07.02,10.85-1.05,15.96-.74,3.53.21,5.97,3.8,10.44,2.54,1.12-.32,3.65-2.55,4.65-2.77.29-.06.75.08,1.11.06-.36,2.51,3.22.12,3.96,2.02,1.68,4.32-2.41,4.86-2.73,6.22.49,1.82,2.64,2.45,1.91,4.78-5.74,1.85-19.61-1.25-25.89-2.54-1.95-.4-4.73-.26-6.31-.67-5.15-1.33-19.76-7.49-23.15-11.37-.41-.47-2.69-4.88-2.69-5.26,1.6-.84,3.17-2.05,4.43-3.35.7-.73,1-2.17,1.5-2.46.71-.42,3.42-.33,4.54-1.12Z"/><path class="cls-12" d="M382.34,252.07c1.73-2.86,3.28,1.21,4.36,2.19,1.19,1.08,7.66,2.74,8.94,2.54.56-.09.57-1.32,1.37-1.55,1.05-.3,6.72-.07,5.65,2.48-2.4.02-4.84-.4-7.24-.43l.08,7.59c.79.65,12.78-.65,15.71.28.52.17.76.79,1.01.93-2.43-.49-3.73,3.72-4.78,5.3-.27.19-.44.42-.59.52-2.79,1.07-6.98.68-6.97,4.62-.61.05-1.31.37-2.26.43-2.4.13-6.19.15-8.63.08-1.62-.05-5.38-.06-6.58-.92-1.5-1.08-.28-9.52-.24-11.78,1.11-2.56,1.02-6.33,1.09-9.17.03-1.07.7-2.2-1-1.99,0-.37.06-.74.06-1.11Z"/><path class="cls-9" d="M312.65,231.25c.11.27-.08,1.49.12,2.24,1.5,5.39,3.95,12.86,4.83,18.15.53,3.17-2.21,4.94-3.79,7.6-1.43-.29-1.64.17-2.43,1.13-2.09,2.56-2.93,7.11-5.98,8.99-3.04-.4-5.46-.05-8.38.07-.03-.84-1.54-.93-1.67-.1-.56-.03-1.11-.07-1.67-.1l.06-1.11c.82-.06,1.96.39,2.68.04.4-.2,5.76-5.96,6.1-6.48.8-1.23.74-2.24.74-3.61.47-.08,1.14.15,1.67.1.22-.22-.6-5.35-.76-6.18l4.52-2.63.17-1.22c-2.43-6.36-6.44-12.35-7.25-19.19,2.18.1,10.16.2,11.03,2.32Z"/><path class="cls-7" d="M241.06,223.73c1.19,2.33,5.67,1.95,5.27,5.33-4.61.04-9.27.68-13.9.38-1.82,4.9-.91,10.4-.98,15.5-5.03.89-8.79,3.8-13.85.98-1.5-.84-2.55-2.8-4.45-3.16-.15-10.31,2.12-12.55,11.54-15.79,5.68-1.95,10.62-2.35,16.37-3.24Z"/><path class="cls-6" d="M271.61,245.61c3.12,1.24,5.44,2.45,9.01,2.27l2.42,2.86c-3.16,8.29-5.84,16.79-9.18,25.03l.88,2.4c-1,.22-3.53,2.46-4.65,2.77-4.46,1.26-6.91-2.32-10.44-2.54,4.32-1.44,9.05-3.43,11.51-7.51,3.4-5.62,1.73-15.93-5.6-17.27l.41-1.12c2.56-.08,5.19-4.82,5.64-6.89Z"/><path class="cls-10" d="M408.26,257.49c-.43,1.7.79,1,1.78,1.29,2.71.78,5.37,1.75,8.04,2.63-.39.77-.21,2.29-1.05,3.26s-2.59.74-3.17,2.07c-.32-.39-1.23-.42-1.64-.65-.25-.14-.48-.76-1.01-.93-2.93-.93-14.91.37-15.71-.28l-.08-7.59c2.4.03,4.84.44,7.24.43,1.58-.01,4.13.14,5.6-.23Z"/><path class="cls-6" d="M241.06,223.73c9.73-1.51,20.73-3.04,30.69-2.48.63.04,1.21.21,1.74.55.17.71-.02,1.43-.05,2.14-5.8.36-13.03,1.4-18.27,3.95-.54.26-.39,1.07-.45,1.1-.61.27-2.82-.75-3.37.36-1.66-.03-3.35-.31-5.01-.29.4-3.38-4.09-3.01-5.27-5.33Z"/><path class="cls-7" d="M273.43,223.94c-.18,3.48-1.92,7.81-3.43,10.97-2.07-2.92-9.01-5.42-12.51-5.75-.92-.09-1.86-.12-2.78-.16.05-.02-.09-.83.45-1.1,5.24-2.55,12.47-3.59,18.27-3.95Z"/><path class="cls-6" d="M282.52,278.63c.89,1.48-.57,5.88-.36,6.12.18.2,2.65,0,2.57,2.01-.07,1.72-1.8,1.29-2.52,1.87-1.28,1.04-1.04,1.93-3.22,2.63.73-2.33-1.42-2.96-1.91-4.78.32-1.37,4.41-1.9,2.73-6.22-.74-1.9-4.32.49-3.96-2.02,2.11-.1,4.5.38,6.68.39Z"/><path class="cls-10" d="M231.45,244.94c0,.56-.09,1.11-.1,1.67,0,.19-.03.37-.03.56-3.39-.87-15.48,5.07-17.44,1.41-.4-.75-.71-4.67-.73-5.82,1.91.36,2.95,2.32,4.45,3.16,5.06,2.82,8.81-.09,13.85-.98Z"/><path class="cls-12" d="M414.22,270.12c-1.01,4.26-8.09,5.49-11.52,6.03.04-2.35,3.2-2.5,3.99-3.25.27-.26.09-.92.17-.98.15-.11.32-.33.59-.52.66-.47,2.51-.92,3.29-1.96l3.48.68Z"/><path class="cls-12" d="M313.8,259.24l-5.83,13.61c-1.16-.19-.54-2.87-.99-3.34-.24-.26-1.13-.09-1.59-.15,3.05-1.88,3.89-6.43,5.98-8.99.78-.96,1-1.42,2.43-1.13Z"/><path class="cls-12" d="M412.23,266.1c.41.23,1.31.26,1.64.65.54.65.56,2.54.36,3.37l-3.48-.68c-.78,1.04-2.63,1.49-3.29,1.96,1.04-1.59,2.35-5.8,4.78-5.3Z"/><path class="cls-12" d="M406.86,271.92c-.07.05.11.72-.17.98-.79.75-3.95.9-3.99,3.25-.95.15-1.85.31-2.81.39,0-3.93,4.18-3.55,6.97-4.62Z"/><path class="cls-3" d="M380.85,220.16l.42-1.1,6.33.38-.07,1.11c-2.22-.11-4.46-.34-6.68-.39Z"/><path class="cls-12" d="M297.02,269.42c-.54.02-1.12-.07-1.67-.1.13-.83,1.64-.74,1.67.1Z"/><path class="cls-9" d="M257.49,229.15c.2,1.25-.75,1.14-1.47,1.58-2.03,1.24-9.07,5-10.2,6.36-.8.97-.63,1.95-.7,3.07-.08,1.34.33,2.29.36,3.37,0,.19-.04.37-.03.56-4.84-.42-9.35,2.07-14.11,2.53,0-.56.09-1.11.1-1.67.07-5.09-.83-10.6.98-15.5,4.63.3,9.29-.34,13.9-.38,1.66-.01,3.35.26,5.01.29,1.27.03,2.97-.38,3.37-.36.92.04,1.86.07,2.78.16Z"/><path class="cls-6" d="M245.21,267.52l.52-8.9c3.84.49,14.2-1.81,14.25,4.5s-10.86,3.79-14.77,4.4Z"/><path class="cls-18" d="M256.78,241.39c1.58.97,2.47,1.26,2.01,3.7-.95,5.03-9.91,3.05-13.6,3.44-.02-1.46.32-3,.26-4.45,0-.18.04-.37.03-.56,3.77-.3,7.85-.53,11.29-2.13Z"/><path class="cls-7" d="M256.78,241.39c-3.44,1.6-7.52,1.83-11.29,2.13-.03-1.08-.44-2.03-.36-3.37,4.17-.21,7.95-1.04,11.65,1.24Z"/><path class="cls-9" d="M364.19,228.12c.12.56.61.55,1.08.62.53.08,1.2-.03,1.67.1,3.33.88,7.19,3.5,9.12,6.4,1.6,2.4,2.6,4.54.71,7.02-.38-.22-5.48.72-6.74.72.07-1.2-.57-1.56-1.36-2.22-2.9-2.43-6.87-5.71-9.41-8.51-.58-.65-1.27-2.73-1.56-2.84-.55-.21-1.69-.36-1.43.76.58,2.49,4.72,6.21,4.46,9.48-.68-.06-1.59-.18-2.23-.13l-.25-.56-.31.53c-1.86.35-3.96,2.18-3.6,4.26-.04,0-.28.52-.58.53-.45-1.28.3-3.15-.27-4.22-1.15-2.17-4.57-5.79-6.92-6.82.17-.16.36-1.21,1.19-1.91,3.52-2.94,11.95-3.81,16.42-3.21Z"/><path class="cls-1" d="M365.27,228.74c-.47-.07-.96-.07-1.08-.62.47.06.96.07,1.08.62Z"/><path class="cls-9" d="M382.14,245.92c.04-2.77-.52-15.98.98-16.98,1.74-1.16,7.49-.22,9.79-.26,4.42-.08,14.47-1.2,18.17.2s2.71,7.9,1.6,10.75l-16.8.39-.39,6.68c3.82.23,13.6-1.4,15.78,2.05,1.85,2.92.66,7.82-3.01,8.74-1.46.37-4.02.22-5.6.23,1.07-2.55-4.61-2.78-5.65-2.48-.8.23-.81,1.47-1.37,1.55-1.29.2-7.75-1.46-8.94-2.54-1.08-.98-2.62-5.05-4.36-2.19.02-1.88-.23-4.02-.2-6.15Z"/><path class="cls-6" d="M304.18,251.98c.15.83.97,5.96.76,6.18-.53.06-1.2-.18-1.67-.1-2.92.52-6.02.53-8.93-.25l5.49-17.26c.86.02,1.36-.14,1.9.68.3.46,2.21,9.36,2.46,10.74Z"/><path class="cls-12" d="M360.73,239.64c.26-3.27-3.88-6.99-4.46-9.48-.26-1.11.89-.97,1.43-.76.29.11.98,2.2,1.56,2.84,2.54,2.8,6.51,6.08,9.41,8.51.78.66,1.43,1.03,1.36,2.22-1.26,0-3.52,0-4.61-.38-1.3-.46-1.67-2.43-2.46-2.82l-.25-.56-.31.53c-.47-.11-1.13-.05-1.67-.1Z"/><path class="cls-9" d="M382.27,253.18c1.7-.21,1.03.91,1,1.99-.07,2.85.02,6.61-1.09,9.17.07-3.7.06-7.47.09-11.16Z"/><path class="cls-9" d="M362.96,239.77c-.13-.07-.36.01-.56-.03l.31-.53.25.56Z"/><path class="cls-12" d="M358.5,239.51c-.19.02-.39-.06-.56-.03l.31-.53.25.56Z"/><path class="cls-12" d="M254.71,228.99c-.4-.02-2.1.39-3.37.36.55-1.11,2.76-.09,3.37-.36Z"/><rect class="cls-2" width="617.49" height="644.18"/></g></svg>