<?xml version="1.0" encoding="UTF-8"?><svg xmlns="http://www.w3.org/2000/svg" viewBox="0 0 617.49 644.18"><defs><style>.cls-1{fill:none;}.cls-2{opacity:.07;}.cls-2,.cls-3,.cls-4{fill:#fff;}.cls-3{opacity:.15;}.cls-5{isolation:isolate;}.cls-6{fill:#ccc;mix-blend-mode:multiply;opacity:.34;}.cls-7{fill:#efeeed;}.cls-8{fill:#e8e7e6;}</style></defs><g class="cls-5"><g id="Lager_2"><g id="bored"><path class="cls-6" d="M343.65,262.86c13.38,9.37,28.39,12.96,39.38,12.85,10.99-.11,19.59-7.74,19.59-7.74,0,0-42.66-1.32-43.77-5.11"/><path d="M431.66,239.13l.18.8h2.04s-.98,3.02-3.37,3.28c-.89.35-2.13.89-1.86,2.31s-1.93,6.7-3.77,9.24-4.62,7.04-12.35,10.38c-2.88,1.15-6.23,3.58-27,4.04-8.77-.35-18.12-.81-28.39-4.96-10.27-4.15-18.58-12.69-20.54-20.08-.58-.58-.69-.46-1.55-.41s-3.14.4-1.94-2.34c1.2-2.74,4.4-1.03,4.4-1.03l33.51-.81,24.38-.55,33.7.78"/><path class="cls-4" d="M340.19,243.35l32.65-.35s2.26,9.75,11.41,8.88c9.14-.87,10.28-2.7,12.54-9.84,2.61,0,29.08.96,29.08.96,0,0-.61,6.03-2.96,8.94-2.35,2.91-9.84,12.48-23.42,13.88s-25.43-.09-30.48-1.13-21.07-6.44-27.08-16.46c-1.13-2.44-1.74-4.88-1.74-4.88Z"/><path class="cls-4" d="M392.04,242.3h2.71s.31,1.85-.86,2.15-2.65.06-2.71-1.08.86-1.08.86-1.08Z"/><path class="cls-7" d="M362.86,262.86s-5.69-6.42-6.63-12.42c-.19-3.5,1.25-7,1.25-7l-17.29-.08s1.29,12.47,22.67,19.5Z"/><path class="cls-8" d="M415.84,242.65l10.04.36s1.16,10.44-15.79,19.76c1.62-3.32,5.13-5.07,5.56-8.54s.19-11.57.19-11.57Z"/><path d="M347.09,266.39s-1.4-2.3,0-2,10.41,6.11,15.77,7.41,26.59,4.91,38.2,1.4c1.7-.2,2.9-.1,2.3.4s-3.7,2.2-6.71,2.5-12.32,1.9-23.93,0c-11.52-1.9-18.42-3.91-25.63-9.71Z"/><path d="M217.9,247.26s1.48,1.44,4.6,1.2,23.14-3.89,23.14-3.89c0,0,12.71-1.61,13.31-2.28s4.8-.79,5.88-.79h18.35l23.62-1.56,14.27-1.6s3.48-.32,3.36,1.12-1.68,1.92-3.48,2.58c-.12,1.14-1.08,15.9-11.87,20.81-9.59,5.03-15.23,9.11-36.21,9.23-15.23-.12-25.66-1.67-39.21-9.23-2.76-2.16-10.79-11.4-10.79-11.4,0,0-9.56,1.08-4.96-4.2Z"/><path d="M225.86,263.45s-1.08-2.4,0-2.16,2.52,2.16,2.52,2.16c0,0,7.07,7.79,11.51,8.99,1.08,1.32.24,2.28-.84,1.8s-12.11-8.51-13.19-10.79Z"/><path d="M248.76,277.02s-2.76-.02-1.68-1.45c1.08.12,4.92,1.45,4.92,1.45,0,0,12.71,3.94,25.66,1.66,11.15-1.44,22.54-4.2,25.06-6.6,3.96-2.52,8.87-6.6,8.87-6.6,0,0,2.04-1.66,2.28-1.13s0,1.37-.48,2.03-6,5.22-8.03,6.54-7.79,5.52-19.79,7.55c-11.99,2.04-18.83,1.08-26.38,0s-10.43-3.46-10.43-3.46Z"/><path class="cls-4" d="M227.13,250.91s31.95-4.96,32.67-5.83c1.94-.29,5.9,0,5.9,0,0,0,2.52,10.24,12.59,9.76,10.07-.48,12.16-9.62,12.3-10.41,2.23-.14,13.24-1.08,13.24-1.08l13.96-1.31s-1.15,10.01-5.47,14.19c-4.17,3.81-10.29,7.18-12.74,8.13s-13.24,4.38-24.97,4.82c-11.73.44-23.6-2.08-31.08-5.6-7.48-3.53-13.56-7.05-16.41-12.66Z"/><path class="cls-4" d="M285.09,244.93h3.3s0,1.91-1.4,1.97-1.97-.51-1.91-1.97Z"/><path class="cls-7" d="M255.57,267.07s-6.83-8-7.64-11.44,1.05-8.3,1.05-8.3l-21.84,3.57s11.12,15.76,28.44,16.17Z"/><path class="cls-8" d="M307.26,243.03s4.58,12.63-3.11,19.03c4.01-2.54,13.51-6.38,13.64-20.01-6.78,1.08-10.53.99-10.53.99Z"/><line class="cls-2" x1="428.33" y1="239.77" x2="430.1" y2="239.3"/><path class="cls-6" d="M222.5,248.46c-.06,10.15-4.22,1.1-3.75,2.04s1.87,7.95,7.11,12.95,14.2,16.16,26.2,17.51,39.05-1.67,39.05-1.67l11.62-7.21,10.67-5.7s-.63-4.64,0-6.59-6.87,2.26-6.87,2.26c0,0-19.06,15.14-55.51,7.12-12.15-4.87-23.2-12.83-25.63-18.23,4.92-1.95,17.98-5.03,17.98-5.03l6.6-.99"/><path class="cls-3" d="M384.39,205.17s37.2,7.58,38.22,31.69c1.49,1.12,5.73,0,5.73,0,0,0-4.7-20.37-28.95-30.13-8.84-2.31-14.99-5.66-14.99-1.56Z"/><rect class="cls-1" width="617.49" height="644.18"/></g></g></g></svg>