<?xml version="1.0" encoding="UTF-8"?><svg id="Lager_2" xmlns="http://www.w3.org/2000/svg" viewBox="0 0 617.49 644.18"><defs><style>.cls-1{fill:none;}.cls-2{fill:#b86946;}.cls-3{fill:#eabd52;}.cls-4{fill:#f9f6f7;}.cls-5{fill:#36362c;}.cls-6{fill:#fff;}.cls-7{fill:#3c4a2a;}.cls-8{fill:#4e3e28;}.cls-9{fill:#f5da83;}.cls-10{fill:#4d4f54;}.cls-11{fill:#d8d2d3;}.cls-12{fill:#f2f2f2;}.cls-13{fill:#76bd79;}.cls-14{fill:#434245;}.cls-15{fill:#87a35a;}.cls-16{fill:#6e5120;}</style></defs><g id="captain"><path class="cls-6" d="M430.61,245.07c0,16.68-18.98,36.26-44.98,36.26s-46.4-18.95-46.4-35.63,20.4-35.63,46.4-35.63,44.98,18.32,44.98,35Z"/><path class="cls-12" d="M388.28,214.36c18.4,2.58,49.78,14.58,33.26,50.44-8.93,11.31-55.72,33.64-82.7-12.04-.9-11.47,5.49-26.42,8.72-28.5,9.15-5.87,22.32-12.49,40.72-9.9Z"/><path class="cls-6" d="M316.5,247.51c0,16.49-20.22,35.86-47.93,35.86s-49.44-18.74-49.44-35.23,21.74-35.23,49.44-35.23,47.93,18.11,47.93,34.61Z"/><path class="cls-12" d="M272.81,217.21c18.66,2.58,48.89,11.49,33.73,51.44-4.86,5.54-57.26,35.8-84.62-9.88-.91-11.47-.38-26.06,9.59-30.65s22.64-13.49,41.3-10.9Z"/><path d="M279.42,205.25c17.01,1.57,36.69,15,40.1,32.49.88,4.51-1.33,3.6-1.94,6.25-1.32,5.77.6,8.48-2.53,15.48-8.18,18.3-31.97,26.2-50.76,25.37s-43.45-12.35-46.15-33.71c-2.21,1.28-10.45,1.45-10.48-2.03-.02-2.28,4.3-1.21,6-1.58,4.05-.89,5.35-8.38,6.89-11.7,16.33-35.19,85.24-33.96,96.61,5.43,2.07-3.5-1.82-10.9-3.88-14.12-10.21-15.95-26.3-19.21-43.67-20.79-.64-.06-3.21-.26-3.27-1.09,4.23.28,8.9-.39,13.07,0ZM264.49,213.55c-54.5,3.24-58.61,61.93-3.58,67.7,19.38,2.03,49.03-6.44,53.02-28.72,4.83-26.99-27.48-40.29-49.44-38.98Z"/><path d="M392.96,204.09c0,1.01-2.54.64-3.22.6-1.81-.1-3.42-.66-5.17-.63-18.5.33-43.35,12.39-46.73,32.3-.32,1.88.67,4.18-.92,5.46-2.63-2.09-1.96-3.58-1.13-6.35,5.1-17,20.91-29.56,38.37-31.9,6.54-.88,12.29-.01,18.8.52Z"/><path d="M307.59,277.27c-10.64,12.73-25.65,16.74-41.81,13.93-.14-1.01,1.32-.55,2.02-.57,10.6-.43,19.13-1.22,28.78-6.07l11.01-7.28Z"/><path d="M391.8,287.72c-.22,1.06-1.14,1.07-2.01,1.18-13.43,1.6-27.27.2-37.43-9.66-.62-.6-1.48-.83-1.21-1.98,11.46,8.9,26.28,12.44,40.65,10.46Z"/><path d="M431.91,237.76c-2.85-11.04-12.63-17.9-12.63-17.9,0,0-7.67-7.86-24.9-10.56-17.23-2.7-32.07,4.21-32.07,4.21,0,0-30.52,14.15-23.47,39.26,7.02,25,32.61,30.61,52.96,28.91,20.35-1.69,32.46-15.71,34.85-18.12s8.11-14.75,5.26-25.79ZM423.86,262.32c-2.23,2.25-13.53,15.32-32.5,16.9s-42.84-3.65-49.39-26.96c-6.58-23.41,21.89-36.61,21.89-36.61,0,0,13.84-6.45,29.91-3.93,16.07,2.52,23.22,9.85,23.22,9.85,0,0,9.12,6.4,11.78,16.7,2.66,10.29-2.67,21.8-4.9,24.05Z"/><ellipse class="cls-13" cx="264.87" cy="246.7" rx="31.75" ry="30.59"/><ellipse cx="264.87" cy="246.7" rx="25.75" ry="24.8"/><circle class="cls-6" cx="278.11" cy="228.74" r="12.15"/><ellipse class="cls-13" cx="385.55" cy="243.64" rx="31.75" ry="29.52"/><ellipse cx="385.55" cy="243.64" rx="25.4" ry="23.61"/><ellipse class="cls-6" cx="398.8" cy="226.3" rx="12.15" ry="11.73"/><ellipse class="cls-13" cx="264.87" cy="246.7" rx="31.75" ry="30.59"/><ellipse cx="264.87" cy="246.7" rx="25.75" ry="24.8"/><circle class="cls-6" cx="278.11" cy="228.74" r="12.15"/><ellipse class="cls-13" cx="385.55" cy="243.64" rx="31.75" ry="29.52"/><ellipse cx="385.55" cy="243.64" rx="25.4" ry="23.61"/><ellipse class="cls-6" cx="398.8" cy="226.3" rx="12.15" ry="11.73"/><path d="M193.38,233.05l-3.62,3.56c-3.89-5.72-2.22-15.02-4.2-21.18-.55-1.7-8.76-6.29-11.01-8.59-20.15-20.64,10.49-44.38,26.42-55.5,19.84-13.85,43.52-24.81,66.72-31.58l.58-.58h1.15l1.15-.58c.32-.09.83.09,1.15,0l.58-.58c.33-.09.82.09,1.15,0l1.73-.58c.18-.05.4.05.58,0l1.15-.58c.34-.08.81.08,1.15,0l.58-.58c.5-.11,1.23.11,1.73,0l.58-.58c.51-.11,1.22.11,1.73,0l1.15-.58c1.44-.29,3.17-.32,4.61-.58,1.31-.23,1.61-.56,1.73-.58.54-.09,1.19.08,1.73,0v2.88h-1.73l-1.15.58c-.37.04-.8-.06-1.15,0-.58.11-1.44-.24-1.73.58h-.58c-.42.08-.54.57-.58.58-1.21.25-2.58.23-4.04.58-32.39,7.63-89.24,32.22-107.02,61.62-8.26,13.65-.4,24.39,12.21,30.64l.84-.27c1.17-2.67,2.11-2.36,4.04-3.2,1.42-5.22,10.51-9.34,15.39-11.16.33-.12.57-.87.75-.94l.58,1.15c-1.2.86-.85,1.37-1.15,1.73-.05.06-.87-.14-1.19.36-.1.16-1.09,3.43-1.12,3.67-1.17.45-1.14-1.16-1.48-1.19-.52-.05-5.14,2.16-5.98,2.66-2.34,1.38-3.03,2.51-5.8,3.71-.83,3.07-1.07,1.96-1.77,3.68-1.99,4.87,1.92,12.86,1.2,18.23.93.21,1.18-.32,1.74-.84,2.38-2.21,4.46-5.42,7.21-7.78,2.98-2.56,6.43-4.73,9.53-7.2,1.48-1.19,1.5.06,2.28-2.04.09-.25-.14-.77.02-1.12,1.56-.1,4.81-.81,5.96-1.72.6-.48.3-1.14.36-1.19.16-.14.35-.37.58-.58.77-.69,1.43.63,1.73-2.31.28-.06.84-.04,1.15,0,.06,0,.5.82,1.15.57.04-.37-.04-.78,0-1.15,3.65-.4,8.5-.93,11.89-2.22.81-.31.99-.06.79-1.24,2.14-.39,12.53-2.31,13.55-2.31h12.68c2.81,0,8.54-3.55,10.98-4.01,4.24-.8,9.33.42,13.97-1.58.95-.41.7-.4.71-1.32,4.05-.4,10.4,1.05,14.8.94,3.18-.08,7.38-1.51,9.7-1.52,3.38-.02,7.1.94,10.95.58,3.3-.31,8.65-1.43,10.68-4.03.12.09.48-.1.58,0,.13.13-.13,1.01,0,1.15.21.22.85-.56,1.15-.57.38-.02.77,0,1.15,0v.58c2.4.88,6.74.82,9.51.58,1.13-.1,2.37-.27,3.18-1.15.19-.01.38,0,.58,0,1.4-.07,2.7-.05,4.04-.58h.58v1.15c.72.26,1.09-.56,1.15-.57.18-.03.39,0,.58,0-.33,1.82.9.98,1.98,1.16,1.91.32,3.24.6,5.25.57,1.11-.01,2.33.55,2-1.16.57.05,1.16-.04,1.73,0,.32.02.55,0,.58,0,.19.02.39-.03.58,0s.39-.03.58,0c4.26.71,7.09,2.71,12.41,1.72,1.18-.22,1.1-.93,1.43-1.15.37-.25,1.57.6,1.15-1.15l-9.8-3.75c7.8-1.04,11.8,7.26,19.02,8.36h.58c1.35.48,2.62.54,4.04.58.77.02,1.54-.01,2.31,0,1.56,1.3,3.64,2.77,5.74,2.25.17-.34-.07-.91.03-1.1.3-.58.5-.67,1.15-.58.07.18,2.32,2.69,2.58,2.89,1.82,1.46,3.64,1.57,4.92-.59v-.58c.27-.06.54-.31.58-.58.09-.73.11-2.17,0-2.88-.07-.45-.57-.54-.58-.58-.56-2-1.72-5.07-4.04-5.77l-.29-.57-.86.57c-.48-.02-1.38-.1-1.73,0l-.58-.58c1.04-.72,1.41-.74,1.15-2.3-4.05-1.42-7.99-2.4-12.11-3.47-24.69-6.41-52.76-4.83-78.1-3.44-30.54,1.68-65.6,5.05-94.41,15.71-1.86.69-4.8,1.18-4.49,3.87-.26,0-.81.47-1.15.58-.07-.05-1.5-.53-1.73-.58l-.29-.57-.29.57c-.37-.04-.78,0-1.15,0l-.58-2.31c17.87-7.27,36.84-11.9,55.93-14.99.36-.06.79.06,1.15,0,6.9-1.09,13.78-2.3,20.76-2.88h3.46c.44-.05.54-.57.58-.58,1.31-.13,2.72.12,4.04,0,1.16-.11,1.64-.57,1.73-.58,3.56-.32,7.63-.38,11.26-.57.65-.03,1.58.37,1.43-.57-25.06-6.15-29.18-38.79-4.33-49.03,29.77-12.27,60.89,17.79,35.17,43.24l-8.34,5.2c26.12.22,54.7-1.83,78.13,11.53,4.39-2.92,7.59-8.43,9.5-13.25.01-.04.43-.15.58-.58.1-.3-.09-.82,0-1.15.01-.04.5-.13.58-.58.11-.68-.06-1.56,0-2.31.93-.68,1.95-.68,2.88,0-.09.73.13,1.64,0,2.31l-.58.58c-.09.34.1.85,0,1.15l-.58,1.15c-1.41,3.83-3.31,7.4-5.78,10.65-.87,1.15-3.28,2.81-3.72,3.77-1.39,3.03,2.5,14.3,2.1,18.35,3.79,1.7,12.97,5.11,13.71,9.64.53,3.27-.36,5.64-2.98,7.55-.27.2-1.08-.19-1.44.03-1.05.61-.31,2.03-2.38,1.81l-1.77-1.9c-1.87-2.35-1.4-1.38-1.5-1.52-2.52-3.58-2.82-3.38-3.84-4.79-2.34-3.23-1.15-1.58-5.65-4.37-1.24-.77-1.05-.29-2.31-1.73-.86-.99,1.16-1.47-1.73-1.17-.29.03-2.28-.87-2.31-.56-2.57-.57-5.99-.59-8.65-.58-1.44,0-3.66-.45-4.61.58-1.58-.22-4.07-.05-5.77,0l-.29-.57-.29.57c-6.04.3-13.34,1.47-19.03,3.46-.54-.06-1.18-.02-1.73,0l-1.73.58c-.37.05-.78-.05-1.15,0-.41.05-.54.57-.58.58-.19.02-.39-.02-.58,0-.56.07-1.17-.06-1.73,0-2.85.32-5.8.84-8.65,1.15-.38.04-.78-.04-1.15,0-.06,0-.29-.48-.71-.43-.21.02-.33.42-.44.43-14.55,1.52-29.09,3.58-43.82,2.88,0,0-3.18-.13-4-.25s-28.93-4.35-39.6-5.45c-7.11-.73-12.42-1.18-17.37-.27s-8.41.05-9.65.2c-6.84.84-17.34,4-23.57,7-3.39,1.63-14.25,8.48-15.94,11.45-.53.93-.37.86-.58,1.73-.08.33.06.79,0,1.15h-1.15c-.06.95.06,1.93,0,2.88-.03.38.04.78,0,1.15M189.84,242.57l-.58-.58M325.34,154.64c-.55-1.98,0-9.91,0-12.68,0-.14-.67-.44-.33-.87,1.3-2,5.16,1.19,6.07.56,2.39-6.87-3.29-2.13-5.76-3.71-1.76-1.12.73-1.82,1.19-2.46,3.78-5.33-4.8-9.26-7.08-4.04-1.52,3.48,1.87,3.83,1.87,6.77h-6.34s.86,3.45.86,3.45c1.15-.76,3.81-1.7,4.95-.89l.29,14.2c-3.8,2.34-6.82-2.5-7.25-5.8l-4.03,4.03c2.77.14,3.49,3.5,5.81,4.86,1.39.81,3.3.91,4.72,1.62,1.03.51,2.08,2.29,2.94,2.14,2.1-2.82,5.54-2.53,8.14-4.58,2.38-1.87,2.22-5.13,5.48-4.61l-2.31-5.76c-.64.67-2.91,1.82-3.2,2.31-.45.75.52,1.92.25,3.04-.42,1.71-5.72,4.38-6.27,2.44ZM299.53,144.99c2.48,2.15,5.38-1.35,6.25-3.61.67-1.73,1.26-3.13,1.98-4.89.31-.77,1.76-4.77,1.43-5.2l-4.9,4.03-1.43-1.73-.58,5.77,2.87-.58v1.14s-3.45,1.74-3.45,1.74l-.59-4.61c-2.97-.21-2.81,6.87-1.58,7.93ZM343.75,134.76c-2.93,1.24-3.62-1.92-6.31-2.31-.85,6.26,8.79,11.62,6.31,2.31ZM347.82,143.98c-.46-2.34.77-5.21-2.3-6.92l-.59,4.61-4.61-1.15c-.41.3,2.2,4.16,2.31,4.61.07.28.02.81,0,1.15-.05.94-.72,2.13-.58,4.04.03.38-.06.8,0,1.15-2.13.64-2.29,6.48-1.19,7.24,3.56,1.19,6.13-1.35,7.53-4.36.16-.33.98-.45,0-1.15,0-.19,0-.39,0-.58.01-.38-.05-.78,0-1.15.39-3.19.44-3.14,0-6.34-.08-.57-.54-.99-.58-1.15ZM298.24,150.32c.04.26.56.5.58.58.03.19-.03.39,0,.58.07.36-.07.81,0,1.15.11.49-.06,1.18,0,1.73,0,.08-.37-.19,0,.58.77,1.61,3.1,2.69,3.46,3.46.12.27-.13.94,0,1.15,2.3,3.89,3.59,5.19,8.57,3.38.91-1.45-.95-6.89-3.38-6.84-.2-2.13-1.3-3.3-1.73-4.61-.07-.23-.52-.43-.58-.58-.08-.24-.41-2.13-.58-2.88-.15-.65.12-1.59,0-2.31-2.16-.6-2.13,1.72-3.17,2.88-1.15-1.15-1.8-3.47-3.75-3.45-.33,1.87.29,3.46.57,5.19ZM335.71,159.55c-.3.22-.79.37-1.15.58-2.29,1.28-6.24,1.61-6.67,5.2,2.49,2.2,6.21,3.2,9.4,1.86,1.15-.48,1.35-1.46,1.87-1.87.42-.32.74-.81,1.15-1.15,1.63-1.35,4.59-1.52,4.03-4.61l-5.18,1.15c1.18-7.63-1.27-2.76-3.46-1.15ZM316.11,167.04c.47-.88.81-3.27.49-4.23-.11-.31-3.88-3.13-4.25-3.26-1.95-.74-.24,4.31.3,4.6l-5.77.59c1.68,3.37,6.1,2.82,9.22,2.3-.52.99-4.95,1.26-2.17,2.45,4.79,2.06,6.41-2.33,9.36-2.39,2.3-.05,4.13,2.85,6.64,2.24l-4.45-4.03-5.93-.57.05,1.43c-1.1.62-2.31.67-3.51.87ZM265.37,199.9c-4.5.7-9.18,2.1-13.59,2.84-4.84.82-9.76.41-14.89,1.83-2.41.67-4.14,2.44-6.7,2.25-1.59,1.26,2.66,1.09,3.09,1.05,10-.84,16.38-2.14,26.9-1.05,13.14,1.35,26.23,5.04,39.5,5.76,28.48,1.56,51.09-3.03,78.57-7.32,11.25-1.76,22.82-1.7,34.13-.75-.47-.91-2.49-1.6-3.46-2-38.6-16.26-102.49-8.96-143.56-2.6Z"/><path d="M427.39,166.46c-.93-.68-1.95-.68-2.88,0,.63-8.55-1.45-12.85-7.2-19.03-15.53-16.71-34.7-21.18-56.22-25.66-22.6-4.7-46.18-8.63-69.19-4.89v-2.88c27.52-4.25,63.29,1.49,90.07,9.39,17.91,5.28,48,21.34,45.42,43.08Z"/><path class="cls-14" d="M290.17,114c-.12.02-.42.34-1.73.58l1.73-.58Z"/><path class="cls-14" d="M275.18,117.46l-1.73.58c.38-.1.97-.38,1.73-.58Z"/><path class="cls-14" d="M426.23,171.65l.58-1.15c-.17.56-.47.86-.58,1.15Z"/><path class="cls-14" d="M270.56,118.61l-1.15.58c.17-.63.72-.45,1.15-.58Z"/><path class="cls-14" d="M276.9,116.88l-1.15.58c.06-.02.32-.37,1.15-.58Z"/><path class="cls-14" d="M283.82,115.15l-1.15.58c.06-.01.23-.39,1.15-.58Z"/><path class="cls-14" d="M267.68,119.76l.58-.58-.58.58Z"/><path class="cls-14" d="M271.72,118.61s.13-.45.58-.58l-.58.58Z"/><path class="cls-14" d="M278.06,116.88s.12-.47.58-.58l-.58.58Z"/><path class="cls-14" d="M280.36,116.3s.12-.48.58-.58l-.58.58Z"/><path class="cls-14" d="M426.81,169.35l.58-.58c-.09.46-.57.54-.58.58Z"/><path class="cls-4" d="M424.5,166.46c-.06.74.11,1.62,0,2.31l-.58.58c-.09.34.1.86,0,1.15l-.58.58c-1.91,4.82-5.11,10.34-9.5,13.25-23.43-13.36-52.01-11.31-78.13-11.53l8.34-5.2c25.72-25.45-5.4-55.51-35.17-43.24-24.85,10.24-20.73,42.87,4.33,49.03.15.95-.78.54-1.43.57-3.63.19-7.69.25-11.26.57l-1.73.58c-1.31.12-2.72-.13-4.04,0l-.58.58h-3.46c.34-1.66-.94-1.22-2.02-1.18-5.2.18-12.11,1.4-17.31,2.35-1.54.28-1.59-.61-1.43,1.71-.37.06-.79-.06-1.15,0,.33-1.68-.9-1.23-1.99-1.14-15.59,1.27-33.4,7.69-49.03,6.32-5.32-.47-9.25-2.73-8.81-8.75.38-5.16,3.58-9.65,6.56-13.67,12.85-17.32,43.45-33.72,63.79-40.6.94-.32,1.88-.1,1.59-1.55,1.46-.34,2.83-.32,4.04-.58l.58-.58h.58l1.73-.58c.35-.06.78.04,1.15,0l1.15-.58h1.73c23.02-3.73,46.6.2,69.19,4.89,21.52,4.47,40.68,8.95,56.22,25.66,5.75,6.18,7.83,10.49,7.2,19.03Z"/><path class="cls-11" d="M280.94,119.19c.29,1.45-.66,1.23-1.59,1.55-20.34,6.87-50.93,23.28-63.79,40.6-2.98,4.01-6.18,8.51-6.56,13.67-.44,6.02,3.49,8.28,8.81,8.75,15.63,1.37,33.44-5.05,49.03-6.32,1.09-.09,2.32-.54,1.99,1.14-19.09,3.1-38.05,7.72-55.93,14.99-1.75.71-3.88.78-5.19,2.31-.2,0-.45-.05-.58,0-.18.07-.42.82-.75.94-4.88,1.83-13.98,5.95-15.39,11.16-1.93.83-2.87.53-4.04,3.2l-.84.27c-12.6-6.26-20.46-16.99-12.21-30.64,17.79-29.4,74.63-53.99,107.02-61.62Z"/><path class="cls-10" d="M265.37,199.9c41.07-6.36,104.95-13.66,143.56,2.6.97.41,3,1.1,3.46,2-11.31-.95-22.88-1.01-34.13.75-27.48,4.3-50.1,8.88-78.57,7.32-13.27-.72-26.36-4.41-39.5-5.76.38-3.11,5.2-3.84,5.19-6.92Z"/><path class="cls-3" d="M334.56,180.3c4.03-.26,7.45,0,11.24,0h15.57c1.29,0,4.72,1.55,6.3,1.76.54-.06.23-.93.33-1.18,7.97.6,10.79-2.2,19.03,2.88,3.01,1.86,6.2,5.18,8.74,7.7.66.66,1.5.41,1.06,2.1-1.42-.03-2.69-.1-4.04-.58h-.58c-7.23-1.1-11.23-9.4-19.02-8.36l9.8,3.75c.42,1.75-.78.9-1.15,1.15-4.21-.16-8.73.64-12.68-1.15-2.09-.95-5.13-3.7-7.47-4.93-2.03-1.06-4.72-2.55-6.94-2.56l12.68,8.07c-.19-.03-.39.02-.58,0h-.58c-.57-.04-1.16.05-1.73,0-2.66-.21-6.69-.58-9.22-.58-.19,0-.4-.03-.58,0l-1.15-.58h-.58c-.25-.5-.83-.41-1.15-.58-.06-.03-.16-.46-.58-.58-.18-.05-.4.06-.58,0-1.58-2.36-5.07-3.5-7.78-4.04-.93.59.09,1.3.65,1.65.97.62,4.64,1.94,5.97,2.39l-.58,1.73c-.19,0-.39-.01-.58,0-.57.04-1.16-.04-1.73,0-.19.01-.38-.01-.58,0-2.96.16-5.52.58-8.65.58-.28-.73-1.1-.58-1.73-.58-.38,0-.77-.02-1.15,0l-1.15-.58c-.1-.1-.46.09-.58,0-.45-.36-.89-.4-1.15-.58-.7-.47-1.21-1.26-2.3-1.16l1.73-1.16-.92-1.09-10.04,2.26c-.86.82.07,1.05.86,1.15,3.29.44,6.55-1.56,10.1.57-.11.35.37.89-.38,1.16-1.74.63-9.08,2.23-10.88,2.31-2.78.12-7.24-.66-10.06-1.16l-5.76-3.45c3.91-.7,7.43-2.89,11.53-2.32-.25-1.2-2.8-1.21-3.74-1.2-4.68.07-7.82,3.64-12.4,3.51-.14,1.52-.03.94.86,1.14,2.97.68,5.64,1.73,8.36,2.32-1.18,2.04-4.6.83-6.57,1.67l-19.37-1.67c-.42,2.34,2.5.53,3.74.56.52-.01.3.76.3,1.16-1.64.16-4.74,1.73-6.05,1.73h-11.82c-.24,1.03.99.38,1.15.58,1.08,1.28-10.02,3.33-10.96,3.45-.48.06-1,0-1.15.58-2.68.16-4.42-.25-6.92-.58-3.31-.44-6.53-.86-9.8-1.74l6.09-2.84c1.87-1.32,4.63.82,5.44-1.19-6.32-2-10.69,2-16.13,4.32,0,.9,6.35,1.17,7.81,1.43,1.07.19,2.31-.66,1.98,1.16-8.44,1.28-13.7-.12-21.62-.62-2.03-.13-4.9,1.6-4.9-1.1,5.43-2.07,10.22-4.06,16.01-5.04s12.31-3.19,18.87-4.18c4.71-.71,9.19-1.45,13.92-2.22,5.33-.86,10.72.03,15.44-.7,3.64-.56,7.8-2.55,12.15-2.84,4.56-.3,9.48,2.01,12.96-1.16.76-.05,1.54.04,2.31,0,7.27-.34,14.56.47,21.33,0,1.97,1.75,6.16,1.97,8.65,2.3-1.53-2.31-4.8-1.8-6.92-2.88ZM298.23,186.65l-8.64-1.16.58,2.3,1.16-1.14,2.57,1.2,4.33-1.2ZM270.56,187.8l-5.51,1.12-9.48,4.06c3.58.9,7.12-.6,10.95.58.43-1.83-2.46-1.39-3.46-1.73,3.35-3.63,8.93-.27,13.26-1.15,2.22-1.69-5.46-.96-5.73-1.21l-.04-1.67Z"/><path class="cls-14" d="M395.1,179.72c-.03,1.86,1.2,2.55,1.73,4.04-4.88-1.6-5.96-.79-9.96-1.27-1.76-.21-4.58-2.43-6.5-2.74-3.84-.6-8.12-.06-11.99-.04-.61.15-.27.93-.37,1.16-8.69-.65-13.13-1.89-22.75-1.71-10.08.19-21.32-.33-31.17.54-1.02.09-1.98.2-2.58,1.17-.77.04-1.54-.05-2.31,0-7.05.42-13.8.15-20.9,1.3-5.6.91-8.24,1.12-14.01,1.56-5.04.39-11.75,3.28-15,3.46-2.97.17-5.33-.39-9.03.19-7.88,1.23-17.04,3.38-24.84,5.14-2.88.65-1.57,3.52-7.33,3.34-.31-2.69,2.64-3.18,4.49-3.87,28.82-10.66,63.87-14.03,94.41-15.71,25.34-1.4,53.41-2.97,78.1,3.44Z"/><path class="cls-14" d="M191,207.98c2.78-1.2,3.46-2.33,5.8-3.71.85-.5,5.46-2.71,5.98-2.66.34.03.3,1.64,1.48,1.19-.63,5.31,2.05,7.86,6.92,9.22-.77,2.1-.79.85-2.28,2.04-3.1,2.47-6.55,4.64-9.53,7.2-2.74,2.36-4.82,5.57-7.21,7.78-.57.53-.82,1.06-1.74.84.72-5.37-3.19-13.35-1.2-18.23.7-1.72.94-.61,1.77-3.68Z"/><path class="cls-3" d="M325.34,154.64c.54,1.94,5.85-.73,6.27-2.44.27-1.12-.7-2.29-.25-3.04.29-.49,2.56-1.64,3.2-2.31l2.31,5.76c-3.26-.52-3.1,2.74-5.48,4.61-2.61,2.05-6.04,1.76-8.14,4.58-.86.15-1.91-1.62-2.94-2.14-1.42-.71-3.33-.8-4.72-1.62-2.32-1.36-3.04-4.73-5.81-4.86l4.03-4.03c.43,3.3,3.45,8.14,7.25,5.8l-.29-14.2c-1.14-.81-3.79.13-4.95.89l-.86-3.44h6.34c0-2.94-3.39-3.29-1.87-6.77,2.28-5.22,10.86-1.29,7.08,4.04-.45.64-2.94,1.33-1.19,2.46,2.48,1.58,8.15-3.15,5.76,3.71-.91.63-4.78-2.56-6.07-.56-.34.43.33.73.33.87,0,2.77-.55,10.71,0,12.68ZM324.68,134.68c1.07-.68.67-3.45-1.79-3.27-3.58.25-.87,4.96,1.79,3.27Z"/><path class="cls-8" d="M309.19,180.88c-3.48,3.18-8.41.87-12.96,1.16-4.35.28-8.51,2.27-12.15,2.84-4.72.73-10.11-.16-15.44.7-4.74.77-9.21,1.51-13.92,2.22-6.56.99-12.84,3.16-18.87,4.18s-10.59,2.98-16.01,5.04c0,2.7,2.87.98,4.9,1.1,7.91.49,13.18,1.89,21.62.62,1.31-.2,3.45-.58,4.61-1.15,2.5.33,4.24.74,6.92.58.49-.03,1-.02,1.15-.58.94-.12,12.03-2.17,10.96-3.45-.17-.2-1.4.45-1.15-.58h11.82c1.31,0,4.42-1.57,6.05-1.73,0-.4.22-1.18-.3-1.16-1.23-.03-4.16,1.77-3.74-.56l19.37,1.67c1.97-.85,5.39.37,6.57-1.67.34.07.79-.06,1.15,0,2.83.5,7.28,1.28,10.06,1.16,1.81-.08,9.14-1.67,10.88-2.31.75-.27.27-.82.38-1.16.09-.26.33-.47.58-.58.27.18.7.22,1.15.58-2.03,2.59-7.37,3.72-10.68,4.03-3.86.36-7.58-.59-10.95-.58-2.31.01-6.52,1.44-9.7,1.52-4.4.12-10.75-1.34-14.8-.94-.01.92.24.91-.71,1.32-4.64,2-9.73.78-13.97,1.58-2.44.46-8.17,4.01-10.98,4.01h-12.68c-1.02,0-11.41,1.92-13.55,2.31.19,1.18.02.93-.79,1.24-3.39,1.29-8.25,1.83-11.89,2.22.05-.37-.05-.78,0-1.15,4.44.54,8.46-1.55,12.69-2.31-.17-1.04-3.91-.53-4.91-1.15h-8.36s0,4.61,0,4.61c-.26.03-.5.32-.58.58-.32-.04-.87-.06-1.15,0,.32-3.15-.08-6.71-2.88-8.65.34-.11.9-.58,1.15-.58,5.75.19,4.45-2.69,7.33-3.34,7.8-1.76,16.96-3.91,24.84-5.14,3.7-.58,6.06-.02,9.03-.19,3.24-.19,9.96-3.08,15-3.46,5.77-.44,8.41-.65,14.01-1.56,7.1-1.15,13.85-.87,20.9-1.3Z"/><path class="cls-14" d="M265.37,199.9c.02,3.08-4.81,3.81-5.19,6.92-10.51-1.08-16.9.21-26.9,1.05-.43.04-4.68.21-3.09-1.05,2.55.19,4.28-1.58,6.7-2.25,5.13-1.42,10.05-1.02,14.89-1.83,4.41-.74,9.09-2.14,13.59-2.84Z"/><path class="cls-3" d="M206.56,199.9c4.13,2.18,7.22,4.42,12.11,2.89-.02,1.19-.45,2.28-.57,3.46-.04.38.03.77,0,1.15-.23.2-.41.43-.58.58-3.59,1.71-8.31,3.2-10.87-.95-1.92-3.12-1.05-4.17-.09-7.12Z"/><path class="cls-9" d="M213.48,195.87c.38,0,.78-.04,1.15,0,.19.02.4-.04.58,0,.23.05,1.65.52,1.73.58,2.8,1.94,3.2,5.5,2.88,8.65-.48.1-1.19.92-1.73,1.15.13-1.18.55-2.27.57-3.46-4.88,1.54-7.97-.71-12.11-2.89.09-.29-.06-.79,0-1.15.3-.36-.05-.87,1.15-1.73.27-.19.84-.47,1.15-.58,1.63-.54,2.92-.58,4.61-.58Z"/><path class="cls-3" d="M299.53,144.99c-1.22-1.06-1.39-8.14,1.58-7.93l.59,4.61,3.45-1.74v-1.14s-2.88.58-2.88.58l.58-5.77,1.43,1.73,4.9-4.03c.33.42-1.11,4.42-1.43,5.2-.71,1.76-1.31,3.16-1.98,4.89-.87,2.25-3.77,5.76-6.25,3.61Z"/><path class="cls-3" d="M400.29,187.22c1.24,1.7,2.13,6.1,4.61,7.5-.1.19.14.76-.03,1.1-2.1.52-4.18-.95-5.74-2.25-3.24-2.7-5.79-8.51-10.38-9.8,2.41-1.7,10.16,1.57,11.53,3.46Z"/><path class="cls-10" d="M395.1,179.72c4.11,1.07,8.06,2.05,12.11,3.47.25,1.56-.11,1.58-1.15,2.3-3.16,2.18-6.14-.72-9.22-1.73-.53-1.49-1.76-2.18-1.73-4.04Z"/><path class="cls-3" d="M334.56,160.12c-.14,1.9-1.18,3.2-2.31,4.61l6.92.58c-.52.41-.72,1.39-1.87,1.87-3.2,1.34-6.92.34-9.4-1.86.43-3.59,4.38-3.91,6.67-5.2Z"/><path class="cls-3" d="M316.11,167.04c1.2-.2,2.41-.25,3.51-.87l-.05-1.43,5.93.57,4.45,4.03c-2.51.61-4.34-2.29-6.64-2.24-2.96.06-4.57,4.45-9.36,2.39-2.78-1.19,1.65-1.46,2.17-2.45-3.13.52-7.55,1.07-9.22-2.3l5.77-.59c-.54-.29-2.25-5.34-.3-4.6.36.14,4.14,2.95,4.25,3.26.32.95-.03,3.34-.49,4.23Z"/><path class="cls-9" d="M408.36,186.07c.37.02.88-.08,1.15,0,2.32.69,3.47,3.76,4.04,5.77l.58.58c.11.71.09,2.15,0,2.88l-.58.58v.58l-.63-3.99c-1.31-.28-2.73-.42-3.98-.92-1.97-.79-2.62-2.64-4.62-2.59,0-1.1,1.32-2.6,2.31-2.88.35-.1,1.25-.02,1.73,0Z"/><path class="cls-3" d="M404.32,188.95c2-.05,2.65,1.79,4.62,2.59,1.25.5,2.67.64,3.98.92l.63,3.99c-1.28,2.15-3.1,2.04-4.92.59-.26-.21-2.51-2.71-2.58-2.89-.77-2.03,0-1.99-1.73-4.61v-.58Z"/><path class="cls-3" d="M335.71,159.55c2.19-1.61,4.64-6.48,3.46,1.15l5.18-1.15c.56,3.09-2.4,3.26-4.03,4.61l-4.07-.25c-.96-.67-.43-3.21-.54-4.36Z"/><path class="cls-3" d="M307.46,156.09c2.43-.05,4.29,5.39,3.38,6.84-4.97,1.81-6.27.51-8.57-3.38l5.77,1.15c-1.94-1.67-.52-3.98-.58-4.61Z"/><path class="cls-3" d="M342.06,151.47c.16,1,1.66,2.48,1.16,4.04l5.18-2.88c0,.19,0,.38,0,.58v1.15c-1.4,3.01-3.97,5.55-7.53,4.36-1.1-.77-.94-6.6,1.19-7.24Z"/><path class="cls-3" d="M347.82,143.98c-1.64,2.32-2.54,1.99-5.19,1.15-.11-.45-2.72-4.3-2.31-4.61l4.61,1.15.59-4.61c3.07,1.71,1.84,4.57,2.3,6.92Z"/><path class="cls-3" d="M305.73,151.47c.83,3.42,1.41,7.63-3.46,6.92-.36-.77-2.69-1.85-3.46-3.46v-.58c-.06-.55.11-1.24,0-1.73l4.61,2.31c-.04-1.55.16-3.28,1.74-4.04.05.15.5.35.58.58Z"/><path class="cls-3" d="M348.4,151.47c-3.01,1.9-4.29,1.55-6.34-1.15-.15-1.91.52-3.09.58-4.04l2.31,2.48,1.14.4c-.21-1.91,1.48-2.6,2.31-4.04.44,3.2.39,3.15,0,6.34Z"/><path class="cls-3" d="M298.24,150.32c-.29-1.73-.9-3.32-.57-5.19,1.94-.01,2.6,2.3,3.75,3.45,1.03-1.16,1-3.48,3.17-2.88.12.72-.14,1.66,0,2.31l-2.28,4.34-3.48-.88c-.03-.19.03-.39,0-.58l-.58-.58Z"/><path class="cls-5" d="M206.56,198.75c-.06.36.09.86,0,1.15-.97,2.95-1.83,4,.09,7.12,2.56,4.15,7.28,2.66,10.87.95-.06.05.24.72-.36,1.19-1.15.91-4.4,1.62-5.96,1.72-.16.35.07.87-.02,1.12-4.87-1.36-7.55-3.92-6.92-9.22.03-.25,1.01-3.51,1.12-3.67.32-.5,1.14-.3,1.19-.36Z"/><path class="cls-3" d="M343.75,134.76c2.48,9.31-7.16,3.94-6.31-2.31,2.68.39,3.37,3.56,6.31,2.31Z"/><path class="cls-8" d="M368,180.88c.1-.24-.23-1.01.37-1.16,3.87-.01,8.15-.56,11.99.04,1.92.3,4.74,2.52,6.5,2.74,4,.48,5.09-.33,9.96,1.27,3.09,1.01,6.07,3.91,9.22,1.73l.58.58c-.98.28-2.3,1.79-2.31,2.88v.58c-.46-.7-1.15-1.16-1.23-2.24l-.97.34-.38-.92-1.46.52c-1.37-1.89-9.13-5.16-11.53-3.46-.45-.13-1.2.09-1.73,0-8.23-5.08-11.05-2.29-19.03-2.88-.1.25.21,1.12-.33,1.18-1.58-.21-5.01-1.76-6.3-1.76h-15.57c-3.79,0-7.22-.26-11.24,0-.67.04-1.37.55-1.73.58-6.77.47-14.06-.34-21.33,0,.6-.97,1.56-1.08,2.58-1.17,9.85-.87,21.09-.35,31.17-.54,9.62-.18,14.06,1.06,22.75,1.71Z"/><path class="cls-11" d="M269.99,178.57c-.16-2.33-.11-1.43,1.43-1.71,5.2-.95,12.11-2.17,17.31-2.35,1.08-.04,2.36-.48,2.02,1.18-6.98.58-13.86,1.8-20.76,2.88Z"/><path class="cls-16" d="M400.29,187.22l1.46-.52.38.92.97-.34c.07,1.08.77,1.55,1.23,2.24,1.73,2.63.96,2.58,1.73,4.61-.65-.09-.86,0-1.15.58-2.48-1.4-3.38-5.79-4.61-7.5Z"/><path class="cls-16" d="M388.76,183.76c4.59,1.29,7.14,7.1,10.38,9.8-.77-.01-1.54.02-2.31,0,.44-1.7-.4-1.44-1.06-2.1-2.54-2.52-5.73-5.84-8.74-7.7.53.09,1.28-.13,1.73,0Z"/><path class="cls-16" d="M369.15,188.37l-1.15.58c-.19-.03-.39.03-.58,0l-12.68-8.07c2.22.01,4.92,1.5,6.94,2.56,2.34,1.23,5.38,3.98,7.47,4.93Z"/><path class="cls-8" d="M369.15,188.37c3.96,1.79,8.47,1,12.68,1.15-.32.22-.24.93-1.43,1.15-5.32.98-8.15-1.01-12.41-1.72l1.15-.58Z"/><path class="cls-16" d="M340.33,164.16c-.41.34-.74.83-1.15,1.15l-6.92-.58c1.13-1.4,2.16-2.71,2.31-4.61.37-.21.85-.35,1.15-.58.11,1.16-.42,3.7.54,4.36l4.07.25Z"/><path class="cls-8" d="M307.46,156.09c.06.63-1.36,2.94.58,4.61l-5.77-1.15c-.13-.22.12-.89,0-1.15,4.87.71,4.29-3.5,3.46-6.92.43,1.31,1.53,2.48,1.73,4.61Z"/><path class="cls-16" d="M305.16,150.9c-1.58.75-1.78,2.49-1.74,4.04l-4.61-2.31c-.07-.34.07-.8,0-1.15l3.48.88,2.28-4.34c.17.75.49,2.65.58,2.88Z"/><path class="cls-16" d="M348.4,145.13c-.83,1.43-2.52,2.13-2.31,4.04l-1.14-.4-2.31-2.48c.02-.34.07-.87,0-1.15,2.65.83,3.55,1.17,5.19-1.15.03.17.5.59.58,1.15Z"/><path class="cls-16" d="M348.4,151.47c-.05.37.01.77,0,1.15l-5.18,2.88c.51-1.55-1-3.04-1.16-4.04-.06-.36.03-.78,0-1.15,2.05,2.71,3.34,3.05,6.34,1.15Z"/><path class="cls-8" d="M364.54,188.95c.33,1.71-.89,1.15-2,1.16-2.01.03-3.34-.26-5.25-.57-1.08-.18-2.31.65-1.98-1.16,2.54,0,6.56.36,9.22.58Z"/><path class="cls-14" d="M213.48,195.87c-1.69,0-2.98.03-4.61.58-.19-.55-.65-.59-1.15-.58,1.31-1.52,3.44-1.6,5.19-2.31l.58,2.31Z"/><line class="cls-15" x1="189.27" y1="241.99" x2="189.84" y2="242.57"/><path class="cls-8" d="M346.09,188.37l.29.57.29-.57c.57-.04,1.16.04,1.73,0-.8.88-2.05,1.05-3.18,1.15-2.77.24-7.11.3-9.51-.58.58,0,1.15,0,1.73,0,3.13,0,5.69-.41,8.65-.58Z"/><path class="cls-8" d="M350.7,186.64c.17.06.4-.05.58,0l.58.58c.33.17.9.08,1.15.58-1.33.52-2.64.51-4.04.58l.58-1.73c.3.1.84-.1,1.15,0Z"/><path class="cls-5" d="M410.67,209.13c-1.24,0-2.58-1.5-3.46-1.73v-.58c2.89-.3,2.6,1.32,3.46,2.31Z"/><path class="cls-5" d="M195.03,231.62c-.18,1.09.01,2.2-1.15,2.88.06-.96-.06-1.93,0-2.89h1.15Z"/><path class="cls-5" d="M218.1,207.4c.03-.38-.04-.78,0-1.15.54-.24,1.25-1.06,1.73-1.15-.3,2.94-.96,1.61-1.73,2.31Z"/><path class="cls-5" d="M222.13,204.52c-.05.37.04.77,0,1.15-.65.24-1.09-.57-1.15-.57.08-.26.32-.54.58-.58.19-.02.39.02.58,0Z"/><path class="cls-8" d="M354.74,188.37c-.06.01-.44.83-1.15.57v-1.15s1.15.58,1.15.58Z"/><path class="cls-8" d="M334.56,188.37c-.3.02-.94.8-1.15.57-.13-.14.13-1.02,0-1.15l1.15.58Z"/><path class="cls-5" d="M195.03,230.46c.21-.87.05-.8.58-1.73l-.58,1.73Z"/><path class="cls-16" d="M337.44,188.95c-.58,0-1.15,0-1.73,0v-.58c.63,0,1.45-.16,1.73.58Z"/><path class="cls-15" d="M366.27,210.86c-.09,0-.87.47-1.73.58l1.73-.58Z"/><path class="cls-11" d="M300.54,174.54c-.09,0-.57.47-1.73.58l1.73-.58Z"/><path class="cls-11" d="M287.86,117.46l-1.73.58c.29-.81,1.15-.47,1.73-.58Z"/><path class="cls-14" d="M290.17,116.88l-1.15.58,1.15-.58Z"/><path class="cls-8" d="M409.51,186.07c-.27-.08-.78.02-1.15,0l.86-.57.29.57Z"/><path class="cls-16" d="M348.4,154.36v-1.15c.98.7.16.82,0,1.15Z"/><path class="cls-7" d="M350.7,213.17h-1.15c.11-.01.23-.41.44-.43.43-.04.65.44.71.43Z"/><path class="cls-16" d="M298.81,150.9c-.01-.08-.53-.31-.58-.58l.58.58Z"/><path class="cls-11" d="M284.98,118.61s.15-.49.58-.58l-.58.58Z"/><path class="cls-7" d="M387.6,207.4c-.19,0-.39,0-.58,0l.29-.57.29.57Z"/><path class="cls-8" d="M366.27,188.95h.58s-.25.02-.58,0Z"/><path class="cls-3" d="M414.13,192.41l-.58-.58s.51.13.58.58Z"/><path class="cls-16" d="M298.81,154.93c-.37-.77,0-.49,0-.58v.58Z"/><path class="cls-14" d="M215.21,195.87c-.18-.04-.38.02-.58,0l.29-.57.29.57Z"/><path class="cls-3" d="M413.55,195.87l.58-.58c-.03.27-.3.52-.58.58Z"/><path class="cls-14" d="M423.93,169.35l.58-.58c-.07.45-.57.54-.58.58Z"/><path class="cls-15" d="M362.81,212.01s.16-.52.58-.58l-.58.58Z"/><path class="cls-14" d="M423.35,171.08l.58-.58c-.14.43-.56.54-.58.58Z"/><path class="cls-11" d="M294.2,175.69l.58-.58s-.14.53-.58.58Z"/><path class="cls-7" d="M407.21,207.4c-.18-.05-.39.04-.58,0,.02-.31.28-.55.58-.58v.58Z"/><path class="cls-5" d="M208.87,196.45c-.32.11-.89.39-1.15.58l-.58-1.15c.13-.05.38,0,.58,0,.5-.01.96.03,1.15.58Z"/><path class="cls-16" d="M270.56,187.8l.04,1.67c.27.26,7.95-.48,5.73,1.21-4.33.88-9.91-2.48-13.26,1.15,1,.34,3.88-.1,3.46,1.73-3.83-1.19-7.37.32-10.95-.58l9.48-4.06,5.51-1.12Z"/><path class="cls-16" d="M246.35,198.75c.33-1.83-.9-.97-1.98-1.16-1.46-.26-7.82-.53-7.81-1.43,5.45-2.32,9.81-6.32,16.13-4.32-.81,2.01-3.57-.13-5.44,1.19l-6.09,2.84c3.27.88,6.49,1.3,9.8,1.74-1.16.58-3.3.95-4.61,1.15Z"/><path class="cls-16" d="M308.62,190.1c-2.73-.59-5.39-1.63-8.36-2.32-.9-.21-1,.38-.86-1.14,4.58.13,7.72-3.44,12.4-3.51.95-.01,3.5,0,3.74,1.2-4.1-.57-7.62,1.62-11.53,2.32l5.76,3.45c-.36-.06-.81.07-1.15,0Z"/><path class="cls-16" d="M331.1,187.8c-3.54-2.13-6.8-.13-10.1-.57-.79-.1-1.72-.34-.86-1.15l10.04-2.26.92,1.09-1.73,1.16c1.1-.1,1.6.69,2.3,1.16-.25.11-.49.32-.58.58Z"/><polygon class="cls-16" points="298.23 186.65 293.9 187.85 291.34 186.65 290.17 187.79 289.59 185.49 298.23 186.65"/><path class="cls-16" d="M350.7,186.64c-.31-.1-.85.1-1.15,0-1.33-.45-5-1.77-5.97-2.39-.56-.36-1.58-1.07-.65-1.65,2.7.54,6.2,1.68,7.78,4.04Z"/><path class="cls-2" d="M334.56,180.3c2.12,1.08,5.38.56,6.92,2.88-2.48-.33-6.68-.55-8.65-2.3.36-.03,1.06-.53,1.73-.58Z"/><path class="cls-16" d="M259.03,197.6c-.15.56-.66.55-1.15.58.15-.58.67-.51,1.15-.58Z"/><path class="cls-16" d="M351.86,187.22l-.58-.58c.42.12.51.54.58.58Z"/><path class="cls-16" d="M346.09,188.37c.19-.01.39.01.58,0l-.29.57-.29-.57Z"/><path class="cls-8" d="M324.68,134.68c-2.66,1.69-5.38-3.02-1.79-3.27,2.47-.17,2.86,2.6,1.79,3.27Z"/><path class="cls-3" d="M221.56,204.52v-4.62s8.35,0,8.35,0c1,.62,4.74.11,4.91,1.15-4.23.76-8.25,2.85-12.69,2.31-.04.38.05.78,0,1.15-.19.02-.39-.02-.58,0Z"/><rect class="cls-1" width="617.49" height="644.18"/></g></svg>