<?xml version="1.0" encoding="UTF-8"?><svg xmlns="http://www.w3.org/2000/svg" viewBox="0 0 617.49 644.18"><defs><style>.cls-1{fill:none;}.cls-2{fill:#a28066;}.cls-3{fill:#c1423c;}.cls-4{fill:#916d56;}.cls-5{fill:#6c5144;}.cls-6{fill:#f1cf4b;}.cls-7{opacity:.07;}.cls-7,.cls-8,.cls-9{fill:#fff;}.cls-8{opacity:.15;}.cls-10{fill:#d5af8d;}.cls-11{isolation:isolate;}.cls-12{fill:#4d5f34;}.cls-13{fill:#ccc;mix-blend-mode:multiply;opacity:.34;}.cls-14{fill:#7f6250;}.cls-15{fill:#78594a;}.cls-16{fill:#b59479;}.cls-17{fill:#654c42;}.cls-18{fill:#efeeed;}.cls-19{fill:#e8e7e6;}.cls-20{fill:#453b38;}.cls-21{fill:#58453e;}</style></defs><g class="cls-11"><g id="Lager_2"><g id="commie"><path class="cls-13" d="M343.65,262.86c13.38,9.37,28.39,12.96,39.38,12.85,10.99-.11,19.59-7.74,19.59-7.74,0,0-42.66-1.32-43.77-5.11"/><path d="M431.66,239.13l.18.8h2.04s-.98,3.02-3.37,3.28c-.89.35-2.13.89-1.86,2.31s-1.93,6.7-3.77,9.24-4.62,7.04-12.35,10.38c-2.88,1.15-6.23,3.58-27,4.04-8.77-.35-18.12-.81-28.39-4.96-10.27-4.15-18.58-12.69-20.54-20.08-.58-.58-.69-.46-1.55-.41s-3.14.4-1.94-2.34c1.2-2.74,4.4-1.03,4.4-1.03l33.51-.81,24.38-.55,33.7.78"/><path class="cls-9" d="M340.19,243.35l32.65-.35s2.26,9.75,11.41,8.88c9.14-.87,10.28-2.7,12.54-9.84,2.61,0,29.08.96,29.08.96,0,0-.61,6.03-2.96,8.94-2.35,2.91-9.84,12.48-23.42,13.88s-25.43-.09-30.48-1.13-21.07-6.44-27.08-16.46c-1.13-2.44-1.74-4.88-1.74-4.88Z"/><path class="cls-9" d="M392.04,242.3h2.71s.31,1.85-.86,2.15-2.65.06-2.71-1.08.86-1.08.86-1.08Z"/><path class="cls-18" d="M362.86,262.86s-5.69-6.42-6.63-12.42c-.19-3.5,1.25-7,1.25-7l-17.29-.08s1.29,12.47,22.67,19.5Z"/><path class="cls-19" d="M415.84,242.65l10.04.36s1.16,10.44-15.79,19.76c1.62-3.32,5.13-5.07,5.56-8.54s.19-11.57.19-11.57Z"/><path d="M347.09,266.39s-1.4-2.3,0-2,10.41,6.11,15.77,7.41,26.59,4.91,38.2,1.4c1.7-.2,2.9-.1,2.3.4s-3.7,2.2-6.71,2.5-12.32,1.9-23.93,0c-11.52-1.9-18.42-3.91-25.63-9.71Z"/><path d="M217.9,247.26s1.48,1.44,4.6,1.2,23.14-3.89,23.14-3.89c0,0,12.71-1.61,13.31-2.28s4.8-.79,5.88-.79h18.35l23.62-1.56,14.27-1.6s3.48-.32,3.36,1.12-1.68,1.92-3.48,2.58c-.12,1.14-1.08,15.9-11.87,20.81-9.59,5.03-15.23,9.11-36.21,9.23-15.23-.12-25.66-1.67-39.21-9.23-2.76-2.16-10.79-11.4-10.79-11.4,0,0-9.56,1.08-4.96-4.2Z"/><path d="M225.86,263.45s-1.08-2.4,0-2.16,2.52,2.16,2.52,2.16c0,0,7.07,7.79,11.51,8.99,1.08,1.32.24,2.28-.84,1.8s-12.11-8.51-13.19-10.79Z"/><path d="M248.76,277.02s-2.76-.02-1.68-1.45c1.08.12,4.92,1.45,4.92,1.45,0,0,12.71,3.94,25.66,1.66,11.15-1.44,22.54-4.2,25.06-6.6,3.96-2.52,8.87-6.6,8.87-6.6,0,0,2.04-1.66,2.28-1.13s0,1.37-.48,2.03-6,5.22-8.03,6.54-7.79,5.52-19.79,7.55c-11.99,2.04-18.83,1.08-26.38,0s-10.43-3.46-10.43-3.46Z"/><path class="cls-9" d="M227.13,250.91s31.95-4.96,32.67-5.83c1.94-.29,5.9,0,5.9,0,0,0,2.52,10.24,12.59,9.76,10.07-.48,12.16-9.62,12.3-10.41,2.23-.14,13.24-1.08,13.24-1.08l13.96-1.31s-1.15,10.01-5.47,14.19c-4.17,3.81-10.29,7.18-12.74,8.13s-13.24,4.38-24.97,4.82c-11.73.44-23.6-2.08-31.08-5.6-7.48-3.53-13.56-7.05-16.41-12.66Z"/><path class="cls-9" d="M285.09,244.93h3.3s0,1.91-1.4,1.97-1.97-.51-1.91-1.97Z"/><path class="cls-18" d="M255.57,267.07s-6.83-8-7.64-11.44,1.05-8.3,1.05-8.3l-21.84,3.57s11.12,15.76,28.44,16.17Z"/><path class="cls-19" d="M307.26,243.03s4.58,12.63-3.11,19.03c4.01-2.54,13.51-6.38,13.64-20.01-6.78,1.08-10.53.99-10.53.99Z"/><line class="cls-7" x1="428.33" y1="239.77" x2="430.1" y2="239.3"/><path class="cls-13" d="M222.5,248.46c-.06,10.15-4.22,1.1-3.75,2.04s1.87,7.95,7.11,12.95,14.2,16.16,26.2,17.51,39.05-1.67,39.05-1.67l11.62-7.21,10.67-5.7s-.63-4.64,0-6.59-6.87,2.26-6.87,2.26c0,0-19.06,15.14-55.51,7.12-12.15-4.87-23.2-12.83-25.63-18.23,4.92-1.95,17.98-5.03,17.98-5.03l6.6-.99"/><path class="cls-8" d="M384.39,205.17s37.2,7.58,38.22,31.69c1.49,1.12,5.73,0,5.73,0,0,0-4.7-20.37-28.95-30.13-8.84-2.31-14.99-5.66-14.99-1.56Z"/><path d="M419.94,332.81s.46-4.53,2.26-4.79,6.03-5.44,6.03-5.39,1.42-4.61,1.04-4.95-.67-4.07-.67-4.07c0,0-.71-3.43,0-3.26s-2.52-1.07-.87-3.23,3.08-4.45,2.91-6.69-.18-6.64-2.04-6.64-5.9-4.29-5.9-4.29c0,0-2.69.64-.97-4.01,1.72-4.65.34-10,.73-10.47s1.85-3.08,1.85-3.61,2.58-5.47,1.79-9.89.19-7.33.1-7.94c-.21-1.45-.5-4.14,0-5.36s-.04-4.56-.04-4.56c0,0,1.66-2.62.55-4.59s-3.35-10.64-4.02-11.98-1.4-4.65-2.02-4.83-6.5-6.06-6.83-6.96-3.14-3.34-3.14-3.34l1.24-2.16,12.69,10.64,3.77,8.03,4.69,11.91,3.27,13.5,3.41,13.5.84,29.12.67,11.53-.84,14.01-11.16,10.73-6.2,1.71-2.97-1.23"/><path d="M172.68,344.03s4.15-3.06,4.33-5.11,4.27-2.37,3.47-4.41.18-5.86,0-6.54,2.58-5.24,1.17-8.86,3-3.56,2.43-5.22.06-6.94-.88-8.77,0-5.38,0-5.38c0,0,.61-4.09.88-4.63s2.96-5.17,1.92-6.78-3.38-7.95-2.73-8.71,3.87-4.96,3.66-6.57c1.24-2.05,4.87-9.44,4.46-11.18s-.73-5.08-.52-7.34,4.77-7.81,4.66-8.26-1.04-3.39-.93-4.61,6.01-7.79,5.7-10.81,1.33-9.55,2.01-9.4,5.87,1.04,7.32,0,7.15-3.37,7.15-4.79,3.67-6.58,3.8-6.58,2.83-1.18,3.76-.59,7.25.81,7.36,0,4.55-2.96,4.76-2.85,3.22.71,4.67-.51,5.6,1.65,7.46,0,3.42-2.37,5.39-1.9,5.39-2.28,7.98-2.36,7.88,1.65,7.98.68,12.13,3.72,13.68,2.61,5.8.46,5.8.97,11.71,3.02,13.68,1.01c1.76,1.22,12.64,2.62,12.64,2.19s6.63.86,7.05-.11,9.85.22,9.85-1.24,4.15-1.62,4.15-1.62c0,0,8.73-.7,9.03,0,.82.16,3.72-2.05,3.72-2.05,0,0,4.46.88,6.94,1.22s9.04.07,9.08-1.84,3.56-.31,3.56-.31c0,0,5.69-1.41,10.2,0s7.62,2.65,8.14,2.14,5.49,0,5.49,0c0,0,5.8,3.15,6.74,2.45s2.21-2.45,2.21-2.45l3.73,2.45-.62-10.3-21.81-46.31-133.74,10.35-44.79,34.41-19.85,43.04-20.6,79.64-5.68,20.63,14.12,4.59Z"/><path d="M171.64,343.89c-5.21.58-5.05,6-10.87,4.87-3.56-.69-5.6-1.51-9.43-1.84-4.82-.41-4.08-6.84-4.5-7.27-.24-.24-2.76.31-3.76-1.91-.2-.46-2.03-5.51-2.08-5.82-.3-1.81.71-3.52.47-4.72-.22-1.08-1.66-1.71-1.68-3.8-.03-2.66,2.27-4.39,2.37-6.16.17-3.12-1.05-6.67.16-10.23.31-.91,1.36-1.43,1.48-2.06.37-1.88-.43-7.71.25-10.83.37-1.68,2.03-2.48,2.48-4.82.57-2.98-.39-6.34,1.09-9.83.58-1.38,2.49-2.37,2.66-3.29.34-1.89-.96-5.05.3-8.34.43-1.12,1.6-1.76,1.94-2.88.54-1.76-.04-3.54.7-5.39.56-1.4,2.24-2.17,2.94-3.68,1.41-3.06,1.08-7.69,2.65-10.71,1.04-1.99,3.24-2.7,3.73-3.52.53-.9-.29-1.98-.07-3.07.37-1.88,3.48-5.68,4.14-7.35.48-1.2.17-2.52.6-3.66.55-1.45,3.22-6.07,3.25-6.43.09-.98-.6-2.39-.65-3.67-.05-1.03.68-2.4.55-3.01-.21-.93-3.64-1.88-4.02-5-.33-2.76,1.79-4.12.53-7.12-.26-.61-.98-.62-1.12-.92-1.58-3.31.33-12.77-.02-16.38-.11-1.1-1.24-1.71-1.21-3.66.04-2.43,2.3-4.79,2.25-6.89-.02-.91-.92-1.49-1.03-2.37-.53-4.13,2.94-6.36,2.95-6.74.07-4.19-.47-9.02.7-13.29.38-1.38,2.47-1.93,2.82-3.81.62-3.33-1.61-5.56.29-9.49.93-1.91,2.66-2.19,3.39-4.44,1.15-3.54-.37-6.63,3.58-9.16.59-.38,1.96-.33,2.12-.53.46-.56-.78-4.83,1.86-6.34.67-.38,1.75-.23,2.33-.65,1.11-.79.65-4.28,4.32-5.37,1.81-.53,3.2.56,4.7.19.4-.1,1.98-3.47,3.94-4.06,1.8-.55,2.81.55,3.76.41.22-.03,1.31-2.28,3.32-2.82,1.75-.47,3.51.25,4.17,0s1.51-2.02,2.88-2.46c1.47-.47,2.98-.03,4.32-.42,2.07-.6,5.01-2.5,6.77-2.8,3.73-.62,7.55-.68,11.32-2.29,1.73-.74,2.55-3.03,5.57-2.73,7.05.69,8.13-1.21,14.27-1.82,1.92-.19,4.08,1.04,5.7.61.64-.17.78-2.41,3.68-2.51,1.78-.06,2.58.99,3.59,1.09,1.1.12,6.65.76,7.01.74,1.08-.05,2.65-1.7,4.73-1.82,4.49-.27,10.94.78,15.23.45,2.37-.18,4.35-2.69,6.56.79,3.6-5.19,6.42-.11,8.21-.03.8.04,1.85-.64,2.98-.6,1.43.05,3.09,1.28,4.05,1.11,1.02-.17,2.81-2.29,4.83-2.24,1.44.03,2.14,1.46,3.07,1.66,1.75.39,4.22-1.09,7.52.13,1.17.43,1.86,1.56,2.49,1.73,1.41.38,3.75-1.58,5.84.06.54.42.61,1.77,1.23,1.91,1.18.28,2.45-.61,3.46-.58,1.28.05,7.46.91,8.66,1.31,2.79.94,7.11,3.88,9.72,4.59,1.99.55,3.68-.06,6.05,1.06,1.69.8,2.91,2.94,3.95,3.25,2.15.64,4.62-.34,7.1,1.2.98.61,1.34,1.95,1.73,2.02,1.51.3,2.81-.92,5.49.27,1.76.79,2.58,2.6,3.55,3.05,1.32.6,2.71.16,4.33,1.01,2.53,1.32,1.96,3.95,2.17,4.17.35.35,2.94-.8,4.6,2.27.8,1.48.71,3.25,1.39,4.68,1.06,2.25,2.68,3.44,3.6,6.67,1.12,3.97-.48,2.49,2.18,5.67,2.28,2.72.18,4.04.66,6.02.31,1.25,2.85,2.37,3.33,4.55.88,3.97-1.04,5.59-1.03,7.74,0,.65.53,4.93.68,5.48.31,1.13,1.74,1.42,2.21,3.21.93,3.58-1,6.09-.87,7.04.36,2.6,4.74,7.17.9,8.84,2.33,2.05.49,5.38.77,7.25.62,4.24.21,2.33-.07,5.72-.06.75,1.07,1.66,1.15,2.96.09,1.67-1,2.5-1.03,3.07-.02.31.81,5.41.94,5.99s1.5.83,2.08,1.64c1.47,2.07,2.21,3.24,3.85,5.37,1.39,1.8,1.12,4.28,1.93,5.48.34.5,1.82,1.01,2.51,1.98,2.26,3.19,5.95,10.33,7.05,14.1.43,1.45.02,3.12.57,4.31,1.05,2.29,4.53,2,5.04,8.29s.51,3.28,2.64,8.23c1.29,2.99.74,6.84,1.27,8.42.33,1,3.62,2.63,4.1,6.26.21,1.6-.92,2.24-.83,3.29.11,1.46,3.3,3.87,3.46,7.46.06,1.23-.65,2.27-.64,2.99,0,.24,2.07,1.22,2.27,3.88.12,1.6-1.14,2.58-.99,3.43.1.58,2.43,2.56,3,4.23s1.8,7.05,1.51,8.57c-.16.86-.97,1.63-1.1,2.55,1.28.86,2.82,1.7,3.32,3.37.55,1.85-.2,2.92-.06,4.04.21,1.62,1.65,3.61.84,5.75l-1.7.04c-.34.32,2.31,4.88.64,7.55-.5.8-1.98.68-2.68,1.65-.73,1.02-.47,2.69-1.52,3.93-.24.29-6.06,3.62-6.42,3.74-.98.32-7.84,1.84-9.21,2.07-3.24.55-6.65-1.15-7.53-1.08-.61.05-1.31.88-2,.98-4.69.65-6.38-2.26-10.78-2.93l.11-1.1c1.85.03-4.95-.31,2.88-2.21.49-.12,1-.24,1.13-.36,1.22,1.47,2.22,4.19,4.41,4.22,1.69.02,3.17-1.77,4.15-1.78,1.1,0,1.57,1.46,2.47,1.75,2.65.83,5.58-2.19,8.42-2.35,1.28-.07,3.47.67,4.12.34,1.38-.7,1.33-2.8,1.77-3.4.18-.25.47-.43.59-.61,5.66,4.06,3.96-2.34,4.37-3.07.5-.87,2.83-.95,3.23-2.24.52-1.66-1.16-3.45-1.08-4.81.05-.89,1.02-1.58,1.16-2.49.27-1.83-1.22-2.73-1.09-3.5.11-.64,1.21-1.21,1.12-2.54-.11-1.46-2-2.24-2.65-3.44-.34-.62-1.73-5.24-1.52-5.46l1.77-.3-2.94-2.45c-.29-1.89.21-1.59,1.77-1.53l-.04-.87-3.43-5.69.89-3.86c-.55-2.09-4.26-2.35-3.32-5.49l1.76-.32-2.94-2.45,2.35-.31c-1.33-1.66-3.32-4.21-3.54-6.43-.17-1.73,1.27-.39,1.76-1.21-.61-3.85-2.72-4.05-3.59-6.07-1.06-2.46-.05-5.32-.79-7.75-.51-1.67-2.52-2.79-3.27-5.48s-.55-4.87-.69-7.55l-4.31-3.48c-.79-.98-.96-5.87-1.14-6.13-.58-.87-4.86-1.27-2.85-3.67l1.32-.29c-2.11-1.01-1.87-3.33-2.52-4.43-.32-.53-2.65-1.44-3.11-2.64-.37-.96.49-1.85.24-2.31-.13-.23-2.82-3.09-3.45-3.79,1.25-4.59-5.47-4.21-3.53-8.57l-2.95-.62c.06,1.58-.16,3.51-1.77,4.29-.1-.28.08-.84,0-1.22-1.99-.31-5.35.58-7.08-.3-.88-.45-1.34-2.31-2.36-3.06-1.21-.89-2.27-.62-3.38-1.11-.27-.12-.11-1.01-.15-1.04-.08-.74-.64-1.79-.59-2.45.02-.25.8-3.44,1.76-2.45.56,2.41.29,4.9,3.54,4.28,0,.2-.02.41,0,.61.46,3.66,1.06.12,1.18,0,.58-.6,1.83-.96,2.36-1.84.5.28,2.18-.68,1.76.9l-4.11,4.6c1.76.1,4.01,1.52,5.35-.25.57-.75.43-2.03.88-2.75,1.56-2.52,5.24-4.84-.26-6.25l-.68-5.73,1.78-.32-1.19-3.05,2.36-.91-3.53-2.76c.14-.71-.09-1.68,0-2.45.43,0,1.58-.85,2.35-.62-.93-1.6-3.03.73-2.35-2.44l1.66-.07,1.28-4.82h-2.36s1.19-3.36,1.19-3.36l-2.94-2.48,2.93-.91c-1.03-3.76,1.71-6.19-3.53-6.74-.44-1.59,1.61-1.45,1.79-2.25.49-2.21-.55-2.28-1.2-3.25-.71-1.04-1.17-1.34-1.77-2.45,3.44-1.37,3.27-3.43,2.85-6.95-.35-1.16-1.11-.76-1.68-1-.23-.1-.77.19-1.13-.04-.13-.94.19-1.67-.64-2.41l.56-5.13-2.38-1.4.05-3.88c-1.34.81-1.4,2.18-2.94,3.06l-.59-.61c1.12-1.37,2.62-7.37,1.17-9.19l-2.94.61c-.23-2.28,1.02-3.73.15-5.95-1.24-3.13-3.06-.59-4.63-1.94-1.08-.93-.61-2.62-1.13-3.73-1.22-2.59-3.9.16-5.34-1.17-1.06-.97-.53-2.73-1.19-3.2-2.47-1.79-6.54-.19-9.3-.62l-.98-2.96-6.66-.12c-1.31-.45-1-3.57-4.38-4.07-2.97-.44-4.4,2.1-6.36-1.92l-1.15-.05-1.16,1.24-.9-2.44-1.16.03-.31,1.21h-1.18c-.38-1.58-1.25-1.31-2.65-1.24v-2.45c-2.15-.62-1.75,1.64-3.53,2.22-2.94.95-7.14-.92-10.03-.99,2.53-5.66-2.25-2.79-5.08-2.51-2.04.21-3.57-.19-5.53-.56l.59-2.44-4.38,1.19c-.66-.17-.82-2.24-2.48-2.28-.53-.01-4.92,2.46-5.52,2.92-.73-1.05-3.53-1.73-4.55-1.67-.89.05-1.43.91-2.27,1.06-3.2.57-2.29-2.36-2.92-2.48-2.63-.47-3.19,2.5-4.69,2.49-1.18,0-2.72-2.44-4.43-1.84l.59,2.44c-2.69.63-5.38-4.44-5.9-.61l-2.34-1.22v1.84c-1.59.21-1.5.04-2.06-1.22-.98,2.24-4.5-.16-5.61.61l-1.46-1.87c-2.02-.04-1.61.58-2.08,1.87-.88,2.45-1.25,1.36-3.54,1.84-1.02-3.79-4.36-2.64-6.78-2.56-1.43.04-3.71-1.69-3.83,1.34l2.94,2.45c-.18.08-.28,1.46-.69,1.71-.68.41-3,.21-4.02.74l-.03-1.78c-3.53.48-2.24-.57-4.09-2.5-.83,2.19-3.41,6.66-5.49,7.52-1.62.67-3.35-.66-5.3-.05-1.13.35-2.55,2.78-4.54,3.3-1.53.4-2.23-.31-3.56-.1-.55.41-.45,1.01-.56,1.58l-5.03-1.75c-2.03-.04-1.87,1.45-2.68,1.99-2.37,1.59-4.06.84-6.44.37-.34-.07-.64-.79-1.98-.62-1.58.2-2.85,1.75-4.51,1.85-.02-.06-1.03-.59-1.18-.61.03-1.56,2.21-3.41,3.54-3.67,3.17-.63,5.33,1.18,8.23,1.83.22-3.6,5.08-5.59,8.03-5.55,1.35.02-.29.91,2.02.66,2.43-.25,1.45,1.58,2.6,1.18.96-.31,2.15-2.09,2.7-2.41.48-.28,2.47-.47,3.24-1.25l.59,1.26h1.17c-.22-1.65,9.54-5.27,7.96-6.75-2.35-1.28-4.96,2.28-5.68,2.39-.76.12-1.36-1.19-2.16-1.07-1.31.2-3.83,1.58-6.08,1.67-1.48.06-2.84-.99-4.53-.45-1.36.44-1.47,2.47-2.57,2.86-1.48.53-3.69-.28-5.09.08-.65.17-.43,1.63-1.88,1.89-2.73.49-5.85-2.71-7.47,2.31-.33.27-.71.08-1.07.1-.14.01-.53-.48-.89-.41-1.25.27-2.59,2.93-5.83,1.06l-1.88,2.98c-4.87-2.84-5.35-.98-8.92,2.41l-3.88-1.06-3.14,4.86c-2.37-.68-6.2-2.08-7.58,1.19-.6,1.42-.09,6.34-2.67,5.07l-1.17-1.41c.11,1.49-.19,2.88-.59,4.28-1.11,3.94-1.09,2.18-3.71,3.19-2.37.92-1.13,6.06-2.32,8.61-.83,1.77-2.99,2.82-3.91,4.56.57,2.58,1.25,5.46.96,8.31-.22,2.19-1.63,1.42-2.54,2.22-1.97,1.72-.26,4.18-.33,5.9-.03.68-.82,1.79-1.11,2.72-.94,3.03,1.37,2.19,1.09,4.44-.31,2.54-6.97,6.71-1.7,7.21.44,3.95-3.81,7.43-2.92,11.2.12.49,1.05.16,1.21,1.29.46,3.37-1.24,4.96-1.22,6.72.02,2.14,1.89,2.02,1.83,3.11-.09,1.59-1.41,2.29-1.25,4.23.15,1.79,2.39,4.11,2.36,5.6-.03,1.26-1.63,1.66-1.72,2.99-.26,4.2,1.99,3.33,3.5,4.36,1.23.85-.36,2.51,3.54.28.01.11.47.68.59,1.22.15.69-.39,2.34.34,2.46h2.61s0-2.46,0-2.46h2.36c.38.25,2.68-.67,1.76,1.52-.25.58-1.44.75-1.79,1.34-1.36,2.3.37,3.56-3.5,5.09v-2.45c-1.6-.52-1.82.84-2.36,1.22-1.74,1.24-.83.64-2.08,2.42-.77,1.1-2.23,1.7-2.04,3.09.68-.05,1.28.11,1.77.62-3.7,1.01-2.37,3.9-3.07,6.3-.27.94-1.27,1.21-1.65,2.88-.69.3-1.61.25-2.27.7-.17,2.21-.26,4.9-1.34,6.87s-6.85,4.38-3.43,5.6l-1.23,3.05,1.2,1.22c-2.38.95-2.03,3.04-2.67,3.94-1.16,1.64-3.06,2.68-3.76,4.73l1.13,1.22c.5,1.84-2.85,4.1-3.48,6.76-.17.71,1.73.83,1.08,4.14s-3.16,5.5-3.94,7.54c-.15.39-1.27,4.45-1.32,4.77-.04.25,1.66.29,1.17,1.5-.37.4-.57,3.64-1.04,4.74-.65,1.51-2.78,2.28-2.52,4.13l1.24.63-1.23,3.05,1.22,1.21c-.19,2.34-2.41,5.22-2.84,6.88-.9,3.54,1.1,3.07,1.12,4.13.12,5.6-2.8,8.3-3.03,11.65-.13,1.86.85.19,1.78.31.44.06,1.13.72,1.77.62v1.2c-3.68.67-1.93,8.62-.55,10.68.71,1.05,2.17.87,2.87,1.92,1.07,1.6.11,6.09,3.29,5.74,2.14-.24,1.83-2.51,4.79,1.21l2.2-1.12c1.1,1.44,4.23,3.34,5.68,1.77,1.82-1.96-2.8-.46-2.94-.61l1.46-4.9c.84-1.18,2.73-.35,3.84-.6-.77,3.01,2.81,1.92,4.33,3.03.53.39.31,1.17.38,1.25.07.08.78-.16,1.04.14.42.49-2.15-1.75-2.02-1.41l.98,1.27ZM174.58,214.72h-1.76v1.22h1.76v-1.22Z"/><path class="cls-17" d="M263.59,107.58c.32-.1.54-1.36.87-1.22.63.27.85,1.28,2.37,1.29s1.88-1.36,3.24-1.29c-.58,2.17.86,7.45,2.64,3.63.73-1.57-.49-2.33,1.92-2.86.84-.18,1.67-.22,2.52-.17v2.46c2.8-.16,4.71-2.38,7.91-2.48.63.06.23,1.11.34,1.25l-8.02,7.39c-2.28.39-2.8-4.17-4.9-.33-.34.62.09,1.62-1.52.9s-.2-5.42-2.36-4.89c-.85.21-1.31,2.93-2.07,3.41-.94.6-2.04-.51-2.94-.07-2.52,1.23-4.42,4.52-2.07,7.06,2.93-1.04,3.47-5.76,5.31-.61l3.82-1.84-1.77,5.5c2.55.34,4.25-.1,6.47-1.22l2,2.4,2.69-2.79-1.14-2.67c2.05.06,3.37,2.11,5.3,2.45-.21,1.99,1.77,1.44,2.4,2.25.39.5.32,1.49,1.16,2.32.88.87,3.79,1.74,4.39,2.78,1.08,1.87-1.19,5.6,2.07,4.89-1.47,1.28-5.14,6.47-6.5,7.06-1.27.54-3.54,1.79-4.11.9-.58.26-1.19.85-1.77,1.22-.97-.07-1.98.11-2.95,0,1.41-3.4,3.84-8.35,1.46-11.64-2.12,2.42-3.96-.28-4.99.26-1.91,1-.67,2.99-.6,4.63-.53.59-7.67-6.09-6.23.67l2.15.9-.64,4.55h2.37c.26.26-1.95,5.78,1.75,3.87l1.3-3.79c.51-.3,2.5.43,3.44.53-.12.28.24,1.01-.15,1.67-.21.36-2.05,1.11-2.22,2.32l1.22.61-1.18,3.33c.33.14,1.07-.07,1.15.03,1.78,2.08,1.68,5.81,2.36,7.96-2.21,1.92-6.65-1.59-7.54,1.65-.7,2.52,1.3,4.68-2.2,5.06-1.46.16-.62-2.22-1.77-3.64-2.52-3.12-4.21.74-5.21.55-.69-.13-1.44-1.79-2.16-2.13-2.06-.97-6.08,2.27-5.28,3.38l2.94,1.55c.57,1.37-3.16,1.21-1.19,3.07l6.5,1.52-1.75,2.73c.49,3.99,3.9,2.57,6.74,2.82l.33-1.41c.77-1.9,1.69,1.39,2.6,2.03,2.51,1.74,2.95-.79,2.69-3.1h2.37c.97-3.29-2.05-2.96-1.77-5.5,2.3-.69,2.81,1.62,4.71,1.83v-2.04s1.77-.4,1.77-.4l.59,3.06c-.02.94-.76,2.48-.35,3.08,5.14,3.55,9.83,2.26,15.41,1.9.46-.03.79.53.86.53-.26,3.42,3.85,3.55,1.77,0,.07-.03.3-.9.99-1.11,3.3-1.04,10.46,2.43,13.16,2.34.23.9,4.89-3.31,6.48-3.5s2.5-.67,3.55-.68c2.04.99.42,11.29-1.19,12.76-.27-.3-2.28-.12-1.78-2.45l-1.17.45v1.38c-1.46,1.39-5.38-4.32-5.89-.6-.41-.17-1.4.17-1.77,0-.16-.07-1.19-1.9-1.76-2.15l1.17-2.13c-3.57-.91-4.35,1.23-7.07,2.44l.52-3.87c-3.88-5.19-4.31,5.49-8.82,3.61l-.54-3.09c-1.3-1.33-1.18.84-2.02,1.54-.67.56-2,.54-2.42,1.2-.85,1.3.34,3.99-3.81,2.77l-2.18-2.67-4.27-.08-.63,3.04,2.59-.51.94,1.73-2.59.67-.4-1.21-1.12-.06c-.04,2.65-2.34,1.35-3.42,1.97-.16.09-1.9,2.85-1.9,3.22l2.36.92c-.73,1.39-1.47,2.83-2.07,4.29-2.04.07.29-3.31-.29-4.29-.17-.21-4.21,1.09-5.17,1.08-1.11,0-1.15-1.01-1.31-1.08-.45-2.92,1.73-1.99,2.92-2.79.6-.4,1.09-1.72,1.77-2.45.88-.95,4.58-3.48,1.84-5.52-2.16-1.61-2.8,1.31-3.61,1.85-2.51,1.66-3.76-.42-2.33,5.23l-3.48.09c-.26.48.08,1.53-.05,1.75-.03.05-1.2-.19-1.2.35l.61,2.09c-1.5-.22-3.54.34-4.92.01-.62-.14-.02-1.87-1.56-1.24l-.04,1.76c-1.09-.31-2.35.62-2.9.69-1.83.24-4.01-.17-5.9,0-.43-.46,1.01-3.72-1.17-3.06-.27,1.98-.79,3.49-2.67,4.27l-.87-3.36c-3-1.05-.77,4.58-2.73,5.15-.95.28-4.38-1.1-5.84-1.06-2.32.06-3.75,2.39-4.69,2.36-.8-.03-1.37-1.04-1.89-1.15-.8-.16-2.18,2.1-3.72.51,1.1-2.51,3.43-2.21,1.77-6.12.36-.36,5.33,3.23,6.38-.44,1.14-3.98-3.23-3.25-2.84-6.3,1.47.75,4.95.25,5.27-1.6.3-1.74-3.28-2.37-3.8-3.3-.62-1.09.14-2.82-1.19-3.67-3.54.23-3.36,3.69-4.72,6.12-2.5.69-4.32-6.02-7.28-3.57l-.11,2.31-3.45.71.52,2.71c2.85,1.12,7.08.02,6.49,4.58-4.09-.12-7.99-.67-7.08,4.9-1.99.28-3.24-.17-4.43-1.83h-.86c-.59,3.64-4.25-.62-5.86,3.45.41,2.14,1.82,2.13,3.48,1.44-1.16,1.6,3.01,6.32,3.94,6.62,1.12.36,2.54.03,3.72.11.37-2-1.34-.66-2.26-2.23-3.14-5.35,3.84-4.53,5.79-5.43.92-.42,3.01-4.19,2.7-.88-.14,1.53-.73,3.14-.25,4.77,1,1.21,3.3,0,3.45.09.05.03-.27.99.42,1.21,1.37.43,3.4.69,4.88,1.24-.46-.78,1.32-3.68,2.32-3.01,1.84,2.11.74,2.82.63,5.46-.69.06-3.95.12-4.13,0-.05-.03.15-1.16-.3-1.25-1.92-.41-2.29,1.48-2.06,3.09-2.61-.1-4.55,1.3-7.66-.62-.36-.4,3.5-5.78-.58-4.89-.14,2.41-.86,5.46-3.51,5.55l-.03,1.8h2.37s0,1.84,0,1.84l-2.71.58-.17,3.43c-1.66,2.06-5.17,0-5.38.27.87,2.17-1.36,4.59-3.28,4.91-1.8.3-6.92-1.96-6.75,2.43-.67-.4-2.19-.49-2.95-1.22.19-.6-.22-1.82,0-2.64.14-.52,1.21-.39,1.2-.73-.01-.74-1.67-3.62-2.38-3.97l1.76-3.06c-.2,1.21,2.88,6.44,4.12,5.5.76-4.27,2.71-2.39,5.66-3.64l-.34-4.93,1.77,1.84c4.89-4.82-6.28-3.87-7.41-6.11l1.5-4.29c-2.68.39-3.79,2.78-7.07,1.83.06-1.99,2.33-2.11,1.69-4.46-.5-1.84-2.71-1.38-3.79-2.23-1.76-1.38.7-4.94,1.81-5.55s.88,1.76,1.7,2.5c.53.48,1.07.66,1.77.58.66-1.73,3.38-1.67,3.82-3.52.39-1.62-1.31-2.16-1.96-3.27s-1.35-3.29-2.06-3.98c-1.33-1.29-4.24-.68-4.16-3.32,3.44.28,2.88-4.03,1.18-6.11,1.45-.04,1.88-1.07,1.78-2.46,2.08-.28,1.37,3.55,3.53.9l-1.77-5.18c5.45-1.52.72-2.21-1.66-2.89-3.05-.87-.25-2.3,1.66-2.02l-1.18-3.05c1.71-.06,2.77,1.01,2.92,2.71,1,1.56,2.93-3.42,3.56-4.23l-2.36-2.45c.28-1.21,3.56-1.14,2.94-2.45-.39-.81-2.98-1.65-3.84-1.57-1.64.15-.91,2.46-2.93,1.86-1.81-.79-.11-7.2,1.35-7.92.54-.27,3.3-.76,3.85-.58,1.38,2.18,2.66,4.05,5.53,4.11.36,0,4.77-3.01,4.86-3.3.69-2.25-3.32-2.23-4.08-4.25l2.67-1.5v-1.88c-2.03-1.68-4.26-2.08-6.8-1.82v-5.5c1.81.73,3.47-1.21,4.71-1.23.19,1.02-.32,2.29.89,3.06l.29-2.45c3.03.93,2.92,2.01,5.49,3.6,2.23-1.48,4.76-3.25,7.48-2.98-.41-5.06-.05-3.72,2.9-5.26,1.56-.82,2.15-2.2,4.77-1.48l-.37-1.9c-1.68.27-2.06-1.76-2.58-2.05-1.75-.97-4.34-.17-4.71-4,.58-.05,1.19.07,1.77,0,.38-.05.79,0,1.18,0h1.18c.56.85,1.71,1.72,1.77,1.84.15.32-.12,1.32,0,1.84,1.14.14,1.99-.01,2.36-1.23.55.09,1.31-.13,1.77,0,1.87.54,3.06,1.77,4.41,1.9,2.11.2,3.18-1.29,4.44-1.03l1.05.5.4,2.31,1.69.54c1.75-.48,1.16-5.15,4.96-7.1s2.78.17,3.66.78c.63.44,1.45-.29,2-.17,1.06.24,2.31,3.12,4.22,1.07l.91-2.43,4.08.58-2.36-5.51ZM256.52,116.76c-2.47-.19-4.99-.19-6.79,1.83-3.01,3.38,1.83,2.29,2.66,4,.68,1.41-2.74.64-2.35,2.43.2.91,2.24.85,2.91,1.27.92.58,1.58,2.12,2.69,2.13,2.61.02,1.18-4.11.29-5.21l3.54-.94c.49-3.54-3.99-1.72-2.95-5.51ZM245.72,130.65c.71-1.11,1.66-2.99,1.3-4.28l-4.34-4.14c-2.35-.04-2.47,4.96-2.67,6.77-1.05,1.04-5.49-3.06-7.04-1.19-1.45,1.76,2.56,3.11,1.74,4.86-1.76-.79-3.82,1.45-4.96,1.28-.38-.06-.61-1.3-1.3-1.8-5.78-4.25-4.82,2.64-6.46,2.97-1.75-1-3.88-2.28-5.56-.28.41,2.55,1.78,3.07,4.12,2.74-1.62,3.08,2.13,3.01,2.37,6.11l1.66-1.02.1-3.87c1.29-.12,2.52.81,3.8.63,1.86-.26,3.78-4.74,5.12,1.1l2.47.12c2.03-5.66,2.28.3,4.74-.08,1.22-.19,1.75-2.44,1.55-3.61,2.38,1.24,3.26,1.36,5.89.61,1.1,1.08-3.88,3.47-4.08,4.67.08,1.53,1.65,2.07,2.89,2.08l-1.17,4.26c-3.08-.41-5.11-4.91-7.97-1.86-2.59,2.77.99,3.1,1.45,3.77.5.74-3.08,5.68,4.76,2.37l-1.18,4.89c3.7-.55,9.89-.68,7.66-6.12l3.24,1.86c7.81-4.3,1.15-4.58-1.42-9.58l.22-.87c6.11-1.95.22-6.25-.3-10.35l-3.72,1.77c-1.34-1.54-2.42-2.13-4.49-1.8-.4-1.5,1.19-1.42,1.57-2.02ZM261.84,142.47c-.51-2.32-4.01-5.88-4.13-1.45-.06,2.24,1.97,2.46,2.2,3.67.11.58-.49,1.41-.31,2.21.26,1.12,1.63,2.31,1.05,4.13l5.29,1.23c-.19-2.64,1.03-5.31-1.8-6.48l1.22-3.61-1.39-.86-2.14,1.15ZM233.48,147.46l-4.35-4.4-6.2,3.71v.89c3.25,2.11,1.65,6.25,5.09,8.23l2.51-2.22-1.12-3.85,3.44-.1.63-2.27ZM219.97,154.71c.57-2.21-2.03-2.93-2.63-4.3-.66-1.51-.13-4.89-3.23-3.95-3.59,1.09-1.54,3.94-1.75,5.42-.07.51-2.8.6-1.7,4.25.34,1.12,2.18,1.74,1.65,3.49-2.35-.59-4.15.41-6.17-1.23-1.63.93-.09,2.21-.36,3.28s-2.57,1.2-2.28,2.5c.9,1.87,2.84,2.22,4.08,3.15.58.44.55,1.4.63,1.46,1.16.93,1.24-1.05,1.73-1.54s1.56-.8,1.68-1.01c.56-1.01-.54-3.3,1.02-4.17,2.15,1.37,4.6,2.25,6.12-.38l-2.9-6.96h4.12ZM231.65,160.14l.11-.82-1.48-.95c-1.41,0-1.86,1.97-2.08,3.07-1.22.89-4.01-3.37-6.31-1.05-2.13,2.15,1.45,4.38,3.38,4.13l-1.77,3.67c2.57-1,3.91,3.48,5.91,2.18l1.17-5.23c1.22.21,2.04,1.13,2.94-.32.54-2.1-2.52-2.43-2.94-3.67l1.06-1ZM241.94,173.53c2.28,1.9,2.66-.71,3.99-1.35,1.13-.55,2.68.04,3.52-1.25.44-1.68-1.82-2.38-1.81-3.67.01-1.45,4.28-2.42,1.85-5.54-2.79-1.14-5.09,1.05-4.76,4.02-.61.74-4.14-3.47-5.08-3.62-2.17-.33-.84,2.55-.95,3.25-.19,1.17-2.88,1.86-2.19,4.3.55,1.94,4.64-.37,5.86-.25.59.62-2.17,2.32-.43,4.12ZM214.85,175.72c.47-.66,4.18-2.11,2.17-3.54-2.6-1.09-4.62-1.38-4.71,2.13l-4.71-1.84c.83,3.98-1.81,3.57-4.43,4.89-4.84,2.44-2.15,1.73-.27,3.97.54.64.47,1.72,1.2,2.43.3.3,3.29,1.72,3.49,1.57.63-1.93.99-3.1-.49-4.72l.16-.77c3.12-4.81,4.27,2.48,6.75-1.64.46-.76.42-1.87.84-2.48ZM264.74,180.47c-1.55-.91-3.9-.27-5.28-.95s-.88-3.05-3.8-3.41c-4.35-.54-6.54,1.1-3.27,4.92l-8.84-1.83.67,4.2,3.39.76.06,3c2.97-.89,2.7.99,3.94,1.7,1.78,1.03,8.42,5.1,6.09.13.61-.62,9.02,4.14,6.96-2.64-.51-1.68-2.8-1.09-2.26-3.18l2.01-.85.32-1.86Z"/><path class="cls-21" d="M277.15,192.67c.65-1.25.19-2.81,1.77-2.45v3.67c3.38-.68,5.64,4.49,7.68-.6l1.18.33v2.11c3.49.94,3.41-1.4,5.89-2.45-.1,1-.77,1.98-.59,3.06,1.53-.55,3.17-.52,4.71,0,.25.08,1.63,2.25,3.48,1.16.16-2.02,1.37-4.6,3.59-4.83.45,1.99-1.51,4.17.31,5.51l2.33-1.24.9,2.46c1.19.29,1.67-.83,2.35-1.22.84-.49,4.91-2.91,5.3-2.45,1,3.49-2.55,3.08-1.71,6.06,3.05.67,7.36.89,9.07,3.73l3.24-4.28-7.32-.55c-1.44-6.66,4.36-.05,4.96-.68-1.15-2.83-.02-5.09,0-7.96,3.12-.49,1.23,1.33,1.14,3.4-.11,2.66,1.12,3.52,3.57,3.34.73,3.09-1.65.73-1.77,2.74,1.62,1.99,3.17.53,3.53-1.52l5.89,1.84v-1.85s3.18,1.27,3.18,1.27l1.31-2.54c1.48.01,3.31,1.25,4.67,1.2,1.58-.06,6.22-2,7.76-2.27.89-.15,3.33,3.02,3.71-.72-.73-.62-2.17,1.5-3.53-1.84,3.63.07,7.25,1.46,8.84-3.06.32.2,1.77-.15,2.36,0v2.45s2.64-1.23,2.64-1.23c2.32,5.41,3.74-2.48,5.02-1.22-.09,1.78.7,2.74,2.32,3.14l-.55,2.98c.9.35,1.83-.56,2.35-.61,1.53-.15,2.83-.46,3.25,1.24l1.17-.03c1.46-.65.23-2.32.3-2.44s1.59.06,1.48-1.85c1.74-.31,6.66,2.79,8.4,2.98,1.56.17,1.71-1.26,3.09-1.14l.07,3.02,1.71.04-.59,3.05,4.13.62c-.05.66.51,1.71.59,2.45-.46-.3-9.88-2.92-10.42-2.96-.85-.06-1.43,1.19-2.18,1.07-.58-.09-1.15-1.47-1.97-1.71-1.18-.35-2.02.55-2.78.55-.23,0-1.18-2.11-3.74-2.37-1.5-.15-2.11,1.53-3.83,1.05-1.14-.32-1.82-2.46-3.07-2.38-.52,5.09-6.91.89-8.17,1.28-1.08.34-1.19,2.86-3.05,3.02-.94.08-1.99-.66-2.97-.64-3.62.06-6.36,1.1-9.93-.64l-1.3,2.53c-1.71-.16-2.82-1.45-4.67-1.33s-2.34,1.85-3.56,1.94-1.77-.98-2.43-1.09c-.31-.05-5.95.34-6.27.41-.69.17-.72,2.01-2.01,2.39-1.21.36-2.68-.68-4.02-.6-2.23.13-2.56,2.9-4.17-.6l-4.07,1.35-2.35-1.91c-.89,1.05-1.95,2.25-3.46,1.87-.55-.14-.54-1.29-.96-1.56-1.31-.83-3.89.3-5.03-2.15h-.86c-1.34,4.46-6.1-.3-9.34-.48-2.1-.12-4.14.92-6.29.46-1.32-.28-1.73-1.55-2.48-1.74-.97-.25-2.12.79-3.3.45-2.59-.76-.56-1-4.88-1.2-.21-.01-3.41-.57-3.97-.67-2.11-.4-4.76-4.49-6.03.75-3.31-.8-4.52-2.54-8.09-1.08-1.14.47-1.44,1.78-3.05,1.69-1.45-.08-2.69-1.96-3.51-1.79-.5.1-.99,1.12-1.6,1.43-.71.36-1.68.28-2.28.69-.68.46-.9,1.92-1.56,2.08s-1.55-.9-2.39-1.01c-1.27-.16-6.16-.23-6.94.37-1.01.78.76,2.12-3.89,2.5.12-2.65,1.21-3.35-.63-5.46-1-.67-2.78,2.23-2.32,3.01-1.49-.55-3.51-.81-4.88-1.24-.69-.22-.37-1.17-.42-1.21.27-.92.17-1.5.59-2.45,1.54,1.59,2.91-.67,3.72-.51.53.1,1.1,1.12,1.89,1.15.94.03,2.37-2.3,4.69-2.36,1.45-.04,4.88,1.35,5.84,1.06,1.96-.58-.27-6.21,2.73-5.15l.87,3.36c1.89-.78,2.41-2.29,2.67-4.27,2.18-.66.74,2.61,1.17,3.06,1.89-.18,4.07.24,5.9,0,.93,3.47,1.46.97,2.75.81,3.33-.43,9.12,2.2,8.45-2.64.5.11,1.41-.16,1.77,0,.17.07.2,1.08,1.31,1.08.95,0,4.99-1.29,5.17-1.08.58.97-1.74,4.35.29,4.29.6-1.46,1.34-2.9,2.07-4.29Z"/><path class="cls-5" d="M440.43,280.83c.29.04,2.26.53,2.36.61s.56,2.06.59,2.45c0,.08-.47.46-.45.93.07,1.34.01,2.68.45,3.97.64,1.9.62,1.97,2.95,1.84l-.32,4.3h3.26c-.31,1.33-1.89.95-2.64,1.84-.46.55-.57,2.21-.9,2.43-.35.23-3.33.24-2.94,2.13.6,2.97,3.34-.79,3.53-.91.9-.56,2.87-.99,3.53.31l-1.76.93c3.22,2.36,1.84,3.61,1.23,6.93l3.47,2.87-1.75,1.82c.1-.77-3.08-3.68-3.33-3.7-.78-.05-1.6.62-2.31.59-1.1-.04-1.42-1.45-2.61-1.18-.22.23,1.95,3.25.27,6.12-.34.58-2.87.64-.54,3.03.87.89,2.91.65,2.63,2.47-4.98-.95-.77,7.22-7.07,6.74.09-1.2.1-3.27-1.77-3.06l.27,6.14,1.42.49c.7-3.03,1.94,0,2.25.1.46.15.94-.03,1.36,0v1.84c-2.84.16-5.77,3.18-8.42,2.35-.9-.28-1.37-1.75-2.47-1.75-.99,0-2.46,1.8-4.15,1.78-2.19-.03-3.19-2.75-4.41-4.22.72-.63,1.63-2.32,2.36-3.06,1.1-1.12,4.82-4.16,5.31-6.12,2.19,1.57,3.73-.99,5.55-.65.54.1.04,1.99,1.52,1.26.74-2.02.78-5.32,1.26-6.98.33-1.13,2.04-.48,1.69-1.89l-3.18-1.49c-1.67-1.19,1.13-2.5,1.66-3.16s.3-1.94,1.29-2.27c1.49-.51,4.15.5,5.54,1.1.87-2.72-3.1-5.05-3.89-2.4l-3.18-.66c.14,1.01-.06,3.37-1.47,3.06-2.13-1.27-1.97-4.37-4.43-4.89.09-.5.01-1.27,0-1.84,4.8-.24,5.53-3.27,3.2-7.3-.64-1.11-2.1-1.76-2.5-2.94-.82-2.4,4.14-5.42,5.12-3.75,0,2.35.03,6.55,2.98,5.99l.68-2.03-1.84-1.89,1.21-3.38-2.94.61c-1.19-2.38.73-3.24,1.25-5.45.2-.18.79-.11,1.11-.06Z"/><path class="cls-17" d="M156.31,314.5c-.06,4.11-2.28,4.87-2.29,5.17-.03,1.9,1.39,6.44,4.06,5.85-.15.23.08,1.82,0,2.45-.02.11-.5.39-.5.89.02,4.08,1.78,9.44,6.39,9.51.62-1.51-.53-3.52-.59-4.28-.04-.6,0-1.23,0-1.84.87.4,2.97,1.01,3.53,1.56.66.66.46,1.79.69,2.01.22.21,4.89.89,5.78,1.31.1-.8.59-1.65.61-2.43.34.11.95.64,1.18.61-1.18,6.91-3.29,2.99-5.6,3.08-.7.03-1.59.96-2.65,1.21s-3-.57-3.84.6l-1.46,4.9c.14.15,4.76-1.36,2.94.61-1.45,1.57-4.58-.33-5.68-1.77l-2.2,1.12c-2.96-3.72-2.65-1.45-4.79-1.21-3.18.35-2.22-4.14-3.29-5.74-.7-1.05-2.16-.87-2.87-1.92-1.39-2.07-3.14-10.02.54-10.68v-1.2c-.63.1-1.32-.56-1.76-.62-.37-1.9,2.17-1.78,3.54-1.84.06.67.59,2.32,1.77,1.83.51-1.55-.76-3.88-.5-5.08.23-1.05,1.99-1.45,1.68-2.87h-1.77c-.07-.59.1-1.29,0-1.84,2.64.65,4.24,2.03,7.07.61ZM151.01,337.15c.07.37-.05.83,0,1.22l2.01-.64c1.65,4.32,4.85-1.01.93-.59-.48-2.25,1.98-2.65,2.35-4.61.18-.94.18-3.73-.88-3.96-1.72-.38-1.53,4.68-2.97,5.48l-.26,2.69c.08.68-.74.4-1.19.4-.1-.55.07-1.24,0-1.83h-1.17s0,1.83,0,1.83c.39.02.78,0,1.18,0Z"/><path class="cls-20" d="M429.15,244.63c.15.93-.04,2.02.08,2.53.21.91-.34,3.09.09,3.59.25.29,2.7.28,2.86,1.92-.04.05-.58,1.16-.59,1.22l-2.35-1.22c.01.51-.06,1.04-.03,1.55.17,2.52.77,1.75,2.38,2.12.67.16,2.18-.55,1.77.91-.06.22-2.58,1.38-1.77,3.37,1.21.18,3.26.19,4.3.62.76.31.31,1.06.42,1.22-1.66-.02-1.91-.5-1.77,1.51.16,2.18,1.35,4.18,1.15,6.42-2.75,1.29-3.43-.66-5.86-1.19l-1.09,2.87,1.1,1.76c3.14-.62,5.49,1.12,5.29,4.56-3.84,1.69-4.71-3-5.03-3.09-3.46-.95-3.61,4.69-3.19,7.04.19,1.07,1.12,1.74,1.2,3.08.11,1.86-1.17,4.31-.65,6.44-1.05-.33-2.43-1.9-3.1-2.39-1.42-1.04-1.3-3.75-1.18-5.43.52-7.1.53-5.43,2.79-11.79,2.8-7.86,2.2-11.53,2.06-19.32l-.43-1.87c.32-1.19-.04-2.55.12-4.02,1.67.25-.76-3.04,1.43-2.42Z"/><path class="cls-21" d="M436.31,262.46c.15.22.89.38,1.18.61-.02.61.03,1.23,0,1.84-.07,1.3-.66,7.22-.55,7.58.22.71,1.09.9,1.72,1.01.61.86-3.31,3.54.6,3.04-.3,1.82.78,2.73,1.18,4.29-.32-.05-.9-.11-1.11.06-.52,2.21-2.43,3.07-1.25,5.45l2.94-.61-1.21,3.38,1.84,1.89-.68,2.03c-2.95.57-2.98-3.64-2.98-5.99-.98-1.67-5.93,1.35-5.12,3.75.4,1.18,1.86,1.83,2.5,2.94,2.33,4.04,1.6,7.06-3.2,7.3-.05-2.38-1-3.87-1.18-6.12l1.69-.06.08-2.39c-1.94.47-2.83.52-4.71,0-.19-.05-.41-.56-.59-.61-.52-2.13.76-4.57.65-6.44-.08-1.34-1.01-2.01-1.2-3.08-.42-2.35-.27-8,3.19-7.04.32.09,1.19,4.78,5.03,3.09.2-3.43-2.14-5.17-5.29-4.56l-1.1-1.76,1.09-2.87c2.43.52,3.11,2.48,5.86,1.19.21-2.24-.99-4.24-1.15-6.42-.14-2.01.1-1.53,1.77-1.51Z"/><path class="cls-2" d="M179.89,278.99c.54.08,1.19-.11,1.76,0l-.58,5.5c.35.1.98-.11,1.18,0,2.6,1.48,1.59,5.1,1.81,7.59-4.46,1.03-1.31,4-1.77,6.8-.25,1.51-1.66,1.28-1.82,1.96-.73,2.94,1.42,4.12,1.76,6.03s-.19,4.39.03,6.41h-2.37c1.12,2.13-.37,3.5-.48,4.69-.07.76.94,1.48,1.05,2.37s.8,5.73-1.16,5.18c.43-1.12-.41-1.81-.59-2.45-.37-1.28-.7-2.58-1.49-3.67-.9-1.23-2.62-.95-2.04-3.07,1.87-1.12,1.95-2.08,1.77-4.28-1.18-.03-2.36.03-3.54,0-.59-.02-1.18.02-1.77,0l-.51-6.36-2.44-.98c.06-.06-.25-1,.7-1.43,1.21-.54,2.71-.44,4.01-.41.67,5.69,5.48,4.74,5.28-.98,0-.23-2.27-3.12-2.44-3.22-.51-.3-2.03.71-2.84.53.2-2.37,1.09-2.09,1.18-2.45h4.13c-.17-2.5.86-5.98-1.79-7.04l.03-1.21,3.52-2.47-1.67-.38-.62-3.25,1.89-.96-.19-2.45Z"/><path class="cls-16" d="M193.45,239.2c.98,2.22-1.79,4.7-1.79,5.81,0,.28,1.97.14,1.11,2.36-.43,1.12-2.59,1.58-3.15,2.86-.75,1.73.06,3.6-.29,5.08-.08.36-4.48,2.92-.01,2.88.57,1.7-1.37,1.2-1.77,2.14-.59,2.86,2.78.12,1.66,3.56-.35,1.06-1.62,1.5-1.95,2.26-.91,2.12.64,4.58-3.24,4.91-.11,2,1.87,2.82.49,4.8l-2.27.08v8.57c-.2-.12-.82.1-1.18,0l.58-5.5c-.57-.11-1.21.08-1.76,0-.28-.04-.53-.32-.59-.61,1.54-2.2-.97-4.2-1.18-5.51-.14-.89.35-3.7.87-4.3.8-.92,2.26-.36,2.59-.67.14-.13.68-3.42.65-3.89-.03-.56-.56-.82-.58-.93-.16-.82-.64-1.57-.59-2.44,1.85.7,3.27-3.12,3.55-4.59.31-1.61-1.6-.74-2.37-.92.06-.14.6-2.91.59-3.06,4.93-.75,4.35-2.21,5.31-6.12.06-.24,1.07-.84,1.1-1.6.05-.94-1.34-1.6-1.05-2.88.21-.94,1.31-1.18,1.72-1.64l1.78,1.83h1.17c-.25-1.07.23-1.61.59-2.44Z"/><path class="cls-2" d="M421.57,217.16c.63.7,3.33,3.56,3.45,3.79.25.46-.6,1.35-.24,2.31.45,1.2,2.79,2.1,3.11,2.64.65,1.1.41,3.41,2.52,4.43l-1.32.29c-2.01,2.4,2.27,2.8,2.85,3.67.17.26.35,5.15,1.14,6.13l4.31,3.48c.14,2.69-.06,4.9.69,7.55-.28.07-.56.33-.59.61-1.44-1.61-2.46-.99-4.13,0l-1.75-2.75c.66-.88,1.47-1.51,2.34-2.14.18-.13.62.14.83.01l.35-1.23c-2.11.62-2.53-2.93-3.83-4.29l.88,4.28-1.77-.37c-.05-.47.09-1.02,0-1.46-.06-.32.16-.72-.11-1.11-.22-.32-1.25-.43-1.66-.73,0-.76.11-1.77,0-2.45,3.06-.09.22-2.01.07-2.34-1.95-4.39-1.54-9.71-5.38-12.97-1.08-2.98-1.22-2.57-2.95-4.9-.41-.55-.75-1.38-1.18-1.84l1.76-1.83c.02.47.3.89.6,1.22Z"/><path class="cls-14" d="M168.69,320.01c.44,1.21,1.27,2.73,1.74,4.02,1.22.88,2.26-.29,2.98-.35,1.45-.12,1.83.54,2.94,1.23l.04-1.79,2.32-.05c.18.63,1.02,1.33.59,2.45l-1.23,9.13c-1.09-.37-2.37.6-2.9.66-.22.03-.84-.5-1.18-.61.01-.4-.94-1.58-.59-2.45l2.2.49,1.24-.89c.59-7.88-2.84-3.55-4.93.39l-.88-1.83c-.63-.66-3.05,3.12-4.71,1.22-1.11-1.26,2.46-1.54,1.76-3.05l-3.53-.62c.71-3.36-.38-7.44,4.13-7.96Z"/><path class="cls-2" d="M199.34,222.67c.38.23.66.35.61.89.58,3.21-2.18,3.81-2.41,6.19l1.2,1.78c-2.12,1.15-2.23,3.64-3.12,5.03-.52.82-1.18.32-2.18,2.63-.36.82-.84,1.37-.59,2.45h-1.17s-1.78-1.84-1.78-1.84c.99-1.14,1.44-2.08,2.97-2.81-1.45-2.69-.69-4.46-.61-6.99,3.42-1.28,2.39-1.08,3.11-3.79.95-3.6-.24-2.56-.11-3.79.06-.57,1.09-.89,1.12-.99.76.73,2.28.82,2.95,1.22Z"/><path class="cls-14" d="M413.32,212.26c1.61-.78,1.83-2.7,1.77-4.29l2.95.62c-1.94,4.36,4.78,3.98,3.53,8.57-.3-.33-.58-.74-.6-1.22l-1.76,1.83c-1.12-1.2-2.11-1.72-2.95-2.45-1.63-1.42-2.26-1.16-2.95-3.06Z"/><path class="cls-20" d="M423.34,224.51c3.83,3.26,3.43,8.57,5.38,12.97.14.32,2.99,2.25-.07,2.34-.26-1.57-1.96-3.18-2.23-4.11-1.05-3.55-1.68-7.35-3.07-11.19Z"/><path class="cls-14" d="M430.41,244.1c.08.44-.06.99,0,1.46l1.77.37-.88-4.28c1.31,1.36,1.73,4.9,3.83,4.29l-.35,1.23c-.22.12-.65-.14-.83-.01-.99-1.3-3.16.49-4.72,0-.12-.5-1.03-1.52-1.18-2.45-.03-.19,0-.42,0-.61h2.36Z"/><path class="cls-21" d="M227.05,207.37c-.23-1.61.14-3.5,2.06-3.09.45.1.25,1.22.3,1.25l-1.19,2.45c-.58.23-1.11-.61-1.17-.62Z"/><path class="cls-20" d="M428.64,242.26c.41.3,1.44.41,1.66.73.27.39.05.79.11,1.11h-2.36c.01-1.04.59-1.74.59-1.84Z"/><path class="cls-20" d="M419.21,217.77c.43.46.77,1.28,1.18,1.84-1.94.48-3.09-2.71-4.13-4.29.84.73,1.82,1.25,2.95,2.45Z"/><path class="cls-12" d="M365.57,203.69c-.06.01-.84.46-1.18.61l1.18-.61Z"/><path class="cls-15" d="M217.03,110.64c.15.02,1.15.55,1.18.61.2.54-.2,1.91,0,2.45-.9,1.36-2.69,1.65-2.36,3.67-1.27-.24-2.43.41-2.36,1.84-2.74-.58-6.88,1.8-5.83,5.13.34,1.09,1.38.75,1.7.99.93.7.44,1.06.59,1.84.62-.01.94.54,1.18.61l-.29,2.45c-1.21-.77-.69-2.04-.89-3.06-1.24.02-2.9,1.96-4.72,1.23v5.5c2.55-.26,4.78.14,6.8,1.82v1.88s-2.67,1.5-2.67,1.5c.76,2.02,4.77,2,4.08,4.25-.09.29-4.49,3.3-4.86,3.3-2.86-.06-4.15-1.93-5.53-4.11-.55-.17-3.31.32-3.85.58-1.46.72-3.16,7.13-1.35,7.92,2.02.6,1.29-1.71,2.93-1.86.86-.08,3.45.76,3.84,1.57.62,1.31-2.66,1.24-2.94,2.45l2.36,2.45c-.63.81-2.56,5.79-3.56,4.23-.15-1.7-1.22-2.78-2.92-2.71l1.18,3.05c-1.91-.28-4.7,1.15-1.66,2.02,2.38.68,7.11,1.38,1.66,2.89l1.77,5.18c-2.16,2.65-1.45-1.18-3.53-.9.11,1.39-.33,2.43-1.78,2.46,1.7,2.08,2.26,6.4-1.18,6.11-.08,2.65,2.83,2.03,4.16,3.32.71.69,1.41,2.88,2.06,3.98s2.36,1.65,1.96,3.27c-.45,1.85-3.16,1.79-3.82,3.52-.7.09-1.24-.1-1.77-.58-.83-.74-.57-3.13-1.7-2.5s-3.57,4.16-1.81,5.55c1.08.85,3.29.39,3.79,2.23.64,2.35-1.62,2.47-1.69,4.46,3.28.95,4.39-1.44,7.07-1.83l-1.5,4.29c1.12,2.24,12.29,1.29,7.41,6.11l-1.77-1.84.34,4.93c-2.95,1.25-4.9-.63-5.66,3.64-1.24.94-4.32-4.29-4.12-5.5l-1.76,3.06c-.39-.19-1.61.25-2.1-.57-.53-.89.02-2.52-.36-3.01-.13-.16-3.39-1.71-4.03-.71-.14-.28-.91-.42-.56-1.44.54-1.54,6.09-2.66.55-6.22,1.51-1.83,2.33-2.76,2.33-5.44l-1.3-.87-2.2.49v-1.83s2.36,0,2.36,0c.08-1.31.23-1.82-1.09-1.9l-.08-1.15,1.78-1.54-.94-1.48-2.01.55v-2.44c2.22.98,3.59-2.06,3.51-4.01-.07-1.53-3.62-3.48-4.09-6.1,1.75-.63,3.25-.99,2.94-3.36h-2.37c-.29-1.86.44-2.88,1.76-3.98-5.83-2.49-1.95-5.85,2.37-7.05l-2.94-1.22c-.35-1.71,1.93-1.79,2.34-2.77.99-2.41-2.51-.84-1.75-2.42.37-.76,6.35-2.1,2.2-2.76-1.61-1.11.89-1.44,1.67-2.4s2.3-4.07,2.06-5.19l-1.14-.42-.07-1.16,1.74-.99c-2.14-2.97,4.55-4.59,4.77-5.57.15-.69-.3-3.5-.71-3.77l-2.27-.08c.2-1.74-.36-4.1.11-5.7.43-1.44,2.02-1.43,2.21-1.72.32-.49-2.28-5.27,3.6-3.84l1.72-5,4.78.09.55-3.42,5.31.33-.59-2.77c.19-.02.7-.74,1.77-.61Z"/><path class="cls-17" d="M183.43,156.55l4.12.93c.26,1.31-1.65,1.17-1.8,1.95-.21,1.06.53,2.36.33,3.33-.25,1.21-1.93,1.94-2.08,3.3-.21,2.02,1.81,3.06,1.81,4.26,0,.35-1.08.22-1.2.71-.22.87-.17,5.62.01,6.62.44,2.44,6.09,4.95-1.19,6.45l2.9,7.58-2.93,1.93,2.4,5.47-2.37,2.15c2.71-.85,2.31,2.08,4.71,1.86.59,1.96-1.54,2.54-2.05,3.66-1.26,2.78.8,4.09.89,5.86.11,2.09-3.14,3.4.57,4.54-.07.09.05.39,0,.61-4.42.79-6.31,5.6-6.48,9.8-.02.51-.09,2.32,0,2.45-1.21.15-2.53.83-3.29,1.8-.85,1.08-.71,2.31-.83,2.49-.05.07-1,.06-1.42.64-.55.77-2.51,3.1-2.11,3.64.39.03.78-.02,1.17,0,.14,1.8-2.63,2.89-2.81,4.05-.15.92.81,1.79.18,3.28-.72,1.69-4.46,3.13-4.15,6.13l-2.64-1.22c1.81-2.96-.38-2.99-.46-3.17-.66-1.35,3.31-4.43,3.77-6.01.38-1.32-.16-4.97.23-6.74,2.51-1.1,2.97-.81,3.63-4.21l2.2-.13c.69-1.7.12-3.56-1.11-4.84-.49-.51-1.09-.67-1.77-.62-.19-1.39,1.27-1.99,2.04-3.09,1.25-1.78.35-1.18,2.08-2.42v1.84c1.13.4,1.66-.33,2.36-.61,3.87-1.53,2.14-2.79,3.5-5.09.35-.6,1.55-.76,1.79-1.34.93-2.19-1.38-1.28-1.76-1.52-.15-.1-.25-2.23-1.47-1.84l-.3,1.84h-3.54c-.12-.54-.58-1.12-.59-1.22-.09-.79.06-1.65,0-2.45h2.37s-.6-6.73-.6-6.73l-3.23.62c-1.43-2.04,1.25-1.93,1.79-3.07.19-.41-.03-3.35.8-4.47l-6.46-6.23c3.4-6.38,3.51,3.23,7.4,3.97,1.56.32.73-1.7.93-2.7-5.71-1.36,1.3-5.57-2.68-7.11-.16-3.88-1.19-1.74-3.25-2.75s-.51-6.87.3-7.04l3.45,2.41c1.73-2.2,6.43-3.23,5.59-6.88-.47-2.03-4.32-2.33-3.46-6.86.36-1.88,3.74-2.1,4.72-5.82ZM182.84,193.28c.77-.75-1.54-2.61-2.35-1.83s1.54,2.61,2.35,1.83Z"/><path class="cls-10" d="M402.71,137.57c1.54-.88,1.6-2.25,2.94-3.06l-.05,3.88,2.38,1.4-.56,5.13c-.15-.14-.95-.01-1.47-.6-.85-.96-.3-2.26-2.01-2.81-2.19-.71-1.53-.08-2.41,1.58h-2.36c.57-1.1.83-3.94,1.18-4.9,1.31.01,1.27.01,2.36-.61Z"/><path class="cls-10" d="M316.06,96.56c.6-.46,4.99-2.93,5.52-2.92,1.66.04,1.82,2.11,2.48,2.28l4.38-1.19-.59,2.44c1.96.36,3.49.77,5.53.56,2.83-.29,7.62-3.16,5.08,2.51,2.89.07,7.09,1.94,10.03.99,1.77-.57,1.37-2.84,3.52-2.22v2.45c1.41-.07,2.28-.34,2.66,1.24h1.18s.31-1.21.31-1.21l1.16-.03.9,2.44,1.16-1.24,1.15.05c1.96,4.02,3.39,1.48,6.36,1.92,3.38.5,3.07,3.63,4.38,4.07l6.66.12.98,2.96c2.75.43,6.83-1.17,9.3.62.66.48.13,2.23,1.19,3.2,1.44,1.32,4.13-1.42,5.34,1.17.52,1.1.06,2.8,1.13,3.73,1.57,1.35,3.39-1.19,4.63,1.94.88,2.21-.38,3.67-.15,5.95l2.94-.61c1.44,1.82-.05,7.82-1.17,9.19-.15.18-1.29-.1-1.77,1.22-4.52-.05-1.67-3.51-5.9-3.06-.11-1.64,1.76-3.05,1.74-4.59-.02-1.03-1.35-4.15-1.21-5.75-3.17.69-2.71-1.14-2.88-1.29l-1.48-.62-.29-1.83c-.24-.31-1.48,1.54-2.15,1.72-.39.1-.74-.5-.79-.49,2.17-2.56-2.57-1.9-3.53-3.07l1.76-1.82c-1.35.17-1.58-.02-2.05-1.23-1.49,1.64-3,2.11-2.7-.55-.97.25-4.93-1.34-5.48-1.85-1.11-1.03.95-1.63-2.13-1.89-1.36-.11-2.76.08-4.13,0-.05-1.1-.81-2.42-.59-3.67-2.36-.3.1,2.65-2.91,1.82l-.63-2.43c-2.43.22-2.87,2-5.49.48-2.77-1.61-1.96-1.48-5.7-2.62-3.21-.98-4.32-2.78-8.25-.3-2.12-.29-3.47-1.82-5.31-2.45-2.26-.78-1.88.54-4.12.61l-.61-2.45c-2.7,1.79-4.17-1.35-6.13-1.23-1.29.08-2.28,1.51-4.17,1.26-1.16-.15-1.39-1.22-1.48-1.25-.36-2.26-1.92-2.16-3.85-1.88-.79.11-2.74,3.3-5.41,3.63-1.01.12-1.22-1.08-1.35-1.14.03-.99,2.13-3.05,2.95-3.67Z"/><path class="cls-15" d="M179.89,143.08c2.58,2.64,2.88,1.58,1.18,5.8l3.54.94c.95,2.36-1.06,3.14-1.17,3.51-.19.67.12,1.56-.01,2-.1.33.09.88,0,1.22-.99,3.71-4.37,3.94-4.72,5.82-.86,4.53,2.99,4.83,3.46,6.86.84,3.65-3.86,4.68-5.59,6.88l-3.45-2.41c-.81.18-2.44,5.99-.3,7.04s3.09-1.13,3.25,2.75c3.98,1.53-3.03,5.75,2.68,7.11-.2,1,.63,3.01-.93,2.7-3.89-.73-4-10.35-7.4-3.97l6.46,6.23c-.84,1.12-.61,4.06-.8,4.47-.54,1.14-3.22,1.03-1.79,3.07l3.23-.62.6,6.73h-2.37c.06.8-.09,1.65,0,2.45-3.9,2.23-2.3.57-3.54-.28-1.51-1.03-3.76-.16-3.5-4.36.08-1.34,1.69-1.73,1.72-2.99.04-1.49-2.2-3.81-2.36-5.6-.17-1.94,1.16-2.64,1.25-4.23.06-1.08-1.81-.97-1.83-3.11-.02-1.76,1.68-3.35,1.22-6.72-.15-1.13-1.09-.8-1.21-1.29-.89-3.77,3.36-7.25,2.92-11.2-5.27-.5,1.38-4.67,1.7-7.21.28-2.24-2.03-1.4-1.09-4.44h2.95l.06,1.13.81.09c3.05-3.23,6.06-2.59,4.99-8.24-.24-1.27-1.32-2.25-1.74-4-.6-2.53-.85-4.98,1.77-6.12Z"/><path class="cls-4" d="M399.76,149.21c.39-.23,2.23.16,2.94,0,.45,1.29-1.18,2.35-1.06,3.24.25,1.79,2.26,2.99,2.26,3.19-.05,1.35-2.98,3.03-2.37,5.2-3.66.66-1.62,3.02-4.13,5.81,2.31,1.54,4.11,3.7,5.01,6.44l2.06-3.67-2.34-.65c.62-3.27,2.04-4.68-.02-7.93,3.93-.95,3.1-3.72,4.13-7.34,1.39-.36,1.21.82,1.76,1.83.6,1.1,1.06,1.41,1.77,2.45-3.45.01-2.5,3.19-3.14,5.11-.4,1.18-2.02,1.71-1.57,3.46,1.68.7,3.92-3.54,4.69-.86s-2.92,5.18-2.99,6.06c-.28,3.6,2.87,2.34,2.43,5.21l-2.36.91,1.18,2.15,1.17-1.22-.5,4.45,1.11,1.37c.36.22.76.29,1.17.29-.09.77.14,1.74,0,2.45-.5,2.53-1.84,3.04-3.53,4.6l2.36.91c.04,1.02-.06,2.05,0,3.06-1.77.57-1.24-1.86-1.87-2.36-.43-.34-1.25.03-1.66-.09-1.57-3.35,1.45-.5,1.18-3.05-2.85,0-2.98-4.81-5.83-6.56-.53-2.11,3.5-2.84,1.7-5.69l-4.71,1.23c.81-2.67-1.52-2.77-1.74-3.1-1.03-1.54,2.85-1.89,2.33-3.63-1.89.62-3.4.88-5.25-.06l.54-3.62-2.58,1.19c-2.93-2.01-1.22-5.1,2-4.87-1.35-3.08.47-3.02.58-3.47.23-.99-.3-2.18.3-3.26.31-.55,2.96-2.26,3.83-2.46l-.59-1.53-1.96-.31c-1.52-2.6,1.93-2.87,3.34-3.64.53-.29.33-1.21.39-1.25Z"/><path class="cls-16" d="M281.87,95.94c1.11-.78,4.62,1.62,5.61-.61.56,1.26.47,1.44,2.06,1.22v-1.84s2.35,1.22,2.35,1.22c.52-3.83,3.21,1.24,5.9.61l-.59-2.44c1.71-.6,3.24,1.83,4.43,1.84,1.5,0,2.06-2.96,4.69-2.49.64.11-.28,3.05,2.92,2.48.84-.15,1.38-1.01,2.27-1.06,1.02-.05,3.82.62,4.55,1.67-.82.63-2.92,2.68-2.95,3.67-2.31-.9-5.66-2.37-7.33-1.81l-.69-1.29c-3.33.56-4.39,1-5.31,4.36-2.75-.31-3.77-.69-5.25-3.09l-.88,2.44-5.28-.02c-.05-1.18-.28-2.69-1.79-2.43,1.1,1.99-2.29,4.32-3.47,3.6-.3-.19-.32-2.21-2.16-2.4-1.27-.13-5.64,1.78-6.48,3.07h-.86c-1.57-4.96-6.37-2.05-7.38,1.86l-1.49-.43-.87-2.02c-1.85,2.53-4.23-.02-6.47-.63l-1.49,4.29c-.17-.04-.39.02-.59,0-1.56-.17-3.19.02-4.63.7l-.08,3.59c-.13.12-.04.72-.85.64-2.7-2.41-3.21-.12-5.33.03-1.67.12-3.74-1.14-5.61-.67.04-.19-.04-.42,0-.61.11-.57.01-1.17.56-1.58,1.34-.2,2.04.5,3.56.1,1.99-.52,3.41-2.95,4.54-3.3,1.95-.61,3.68.72,5.3.05,2.08-.85,4.66-5.32,5.49-7.52,1.85,1.94.56,2.99,4.09,2.5l.03,1.78c1.02-.52,3.34-.33,4.02-.74.42-.25.52-1.63.69-1.71.36-.16,6.17-.91,7.66-1.22,2.28-.48,2.65.61,3.54-1.84.54,1.09.87,1.29,2.07,1.29,2.19,0,1.32-1.18,1.47-1.29Z"/><path class="cls-16" d="M438.07,251.44c.76,2.69,2.77,3.81,3.27,5.48.74,2.43-.27,5.29.79,7.75.87,2.02,2.98,2.22,3.59,6.07-.49.82-1.93-.52-1.76,1.21.22,2.22,2.21,4.77,3.54,6.43l-2.35.31,2.94,2.45-1.76.32c-.94,3.13,2.76,3.4,3.32,5.49l-.89,3.86,3.43,5.69.04.87c-1.56-.06-2.06-.36-1.77,1.53l2.94,2.45-1.77.3c-.21.22,1.18,4.84,1.52,5.46.65,1.2,2.54,1.99,2.65,3.44.1,1.32-1.01,1.89-1.12,2.54-.13.76,1.36,1.67,1.09,3.5-.13.91-1.11,1.6-1.16,2.49-.08,1.36,1.6,3.15,1.08,4.81-.39,1.29-2.73,1.37-3.23,2.24-.42.73,1.29,7.13-4.37,3.07.53-.81,1.92-1.14,2.25-2.26.39-1.33-.02-3.07.1-4.48h2.95c.05-1.83-.02-3.3-1.77-3.98l1.77-2.44c-.63-.22-2.21-2.09-2.36-2.15v-.61l1.75-1.82-3.47-2.87c.61-3.32,1.99-4.57-1.23-6.93l1.76-.93c-.66-1.3-2.62-.86-3.53-.31l-.59-1.22c.33-.22.44-1.88.9-2.43.75-.89,2.33-.51,2.64-1.85h-3.26s.32-4.29.32-4.29c-2.33.13-2.31.06-2.95-1.84,3.35-.14,2.34-4.68,0-4.9-.03-.39-.49-2.37-.59-2.45,5.13-2.85-.37-2.95-.92-3.65-.63-.71.29-1.43.33-1.86,1.5-.38,1.32-2.42.64-3.31s-2.46.75-1.87-3.4l-1.71-.03c-.33-2.79,3.02-1.83,1.17-5.51l-2.94,1.22c.03-.61-.02-1.23,0-1.84l1.09-.07-1.68-4.21,2.36-.32c-1.63-2.37-2.09-3.39-1.77-6.42.03-.28.31-.55.59-.61Z"/><path class="cls-15" d="M378.54,191.45c.45-1.17.77-2.51,2.19-2.95,3.08-.95,2.94,1.67,3.45,1.76,1.58.29,5.13-4.94,6.16,1.19,1.31-.29,2.4-.73,3.8-.65,2.68.15,9.31,1.68,12.1,2.48.41.12,1.24-.25,1.66.09.63.5.1,2.94,1.87,2.36.12,2.4.5,4.25-1.77,5.51-2.49,1.38-3.15-1.05-2.95,3.67-3.25.61-2.98-1.88-3.54-4.28-.96-.99-1.74,2.2-1.76,2.45l-4.13-.62.59-3.05-1.71-.04-.07-3.02c-1.37-.12-1.52,1.31-3.09,1.14-1.74-.19-6.66-3.3-8.4-2.98.11,1.91-1.41,1.73-1.48,1.85-2.8-.66-2.09-2.67-2.95-4.9Z"/><path class="cls-14" d="M224.69,110.03l-.58.31.03.88c1.42-.01,1.54,1.26,1.73,2.49-.58.07-1.19-.05-1.77,0,.38,3.84,2.96,3.03,4.71,4,.52.29.9,2.32,2.58,2.05l.37,1.9c-2.62-.72-3.21.66-4.77,1.48-2.94,1.54-3.31.2-2.9,5.26-2.72-.26-5.25,1.51-7.48,2.98-2.57-1.58-2.46-2.67-5.49-3.6-.24-.07-.56-.62-1.18-.61-.15-.78.34-1.14-.59-1.84-.42-2.29,4.93-1.47,5.31-1.84.39-1.43-1.13-3.28-1.18-4.28-.07-1.43,1.09-2.08,2.36-1.84,2.22.43,4.86,4.75,6.2,1.84,1.1-2.39-2.98-3.23-3.85-5.51-.2-.54.2-1.91,0-2.45,1.65-.1,2.92-1.65,4.51-1.85,1.34-.16,1.63.56,1.98.62Z"/><path class="cls-14" d="M189.32,125.33l-2.72,4.22-2,1.9c-1.27-.7-2.01-2.26-2.95,0l1.18,1.23-1.77,1.22,5.9,1.85c-1.29,2.84-1.48,3.12-.59,6.11.09.32-.06.84,0,1.22-.74.01-1.77.19-2.37-.28l-.96-2.1-2.27-2.52-.35,1.76-4.11,1.08.03,2.06,3.24-1.24c.62.06.15,1.09.3,1.24-2.61,1.15-2.37,3.59-1.77,6.12-2.26-.39-.41,2.19-1.76,3.38-.59.52-2.14.67-2.95.92-.63,2.35,2.96.7,3.53,1.22l-2.94,5.51h-2.95c.29-.93,1.08-2.04,1.11-2.72.08-1.72-1.64-4.18.33-5.9.91-.8,2.32-.03,2.54-2.22.29-2.85-.39-5.73-.96-8.31.92-1.75,3.09-2.79,3.91-4.56,1.19-2.55-.05-7.69,2.32-8.61,2.61-1.01,2.59.75,3.71-3.19,2.31-1.01,3.3-.57,5.31.61Z"/><path class="cls-14" d="M173.41,225.73c1.23,1.28,1.8,3.15,1.11,4.84l-2.2.13c-.65,3.4-1.11,3.11-3.63,4.21-.4,1.77.15,5.42-.23,6.74-.45,1.58-4.42,4.66-3.77,6.01.09.18,2.27.21.46,3.17-.45.73-1.13.32-1.77,2.45-.17.56.16,1.41-.3,2.42s-2.33,1.85-2.55,2.91c-.18.84.74,2.08.26,2.67s-1.8.23-2.13,1.01c-.57,1.33-.32,4.13-.85,5.71s-2.23,2.33-2.56,3.47c-1.04,3.57-.51,10.29-4.87,11.55l.04,2.1,1.76-.61c.28,2.02-2.03,2.09-2.36,2.45.5-1.22-1.2-1.25-1.17-1.5.05-.32,1.17-4.38,1.32-4.77.78-2.04,3.28-4.17,3.94-7.54s-1.25-3.43-1.08-4.14c.63-2.66,3.98-4.92,3.48-6.76l-1.13-1.22c.7-2.05,2.59-3.09,3.76-4.73.64-.9.29-2.99,2.67-3.94l-1.2-1.22,1.23-3.05c-3.42-1.22,2.31-3.57,3.43-5.6s1.17-4.66,1.34-6.87c.67-.45,1.59-.4,2.27-.7.37-1.67,1.37-1.95,1.65-2.88.7-2.4-.63-5.29,3.07-6.3Z"/><path class="cls-4" d="M220.56,105.74v1.22c-1.32.26-3.5,2.11-3.54,3.67-1.07-.13-1.58.59-1.77.61-2.39.22-5.77-.22-7.66,1.84-.9-.48-6.09.58-6.36.74s-.44,1.29-.98,1.7c-1.51,1.13-3.32,1.64-4.44,3.07-1.97-.57-2.86-2.6-5.25-1.78-.16,1.31-.72,2.59-.69,3.94.02.83.63,1.38.64,1.5.05.69.1,1.8,0,2.45-.04.29-.31.54-.59.61-.13-.09-.44.09-.59,0-2-1.18-2.99-1.62-5.31-.61.4-1.41.7-2.79.59-4.28l1.17,1.41c2.58,1.27,2.07-3.65,2.67-5.07,1.39-3.27,5.21-1.87,7.58-1.19l3.14-4.86,3.88,1.06c3.57-3.39,4.06-5.25,8.92-2.41l1.88-2.98c3.24,1.87,4.57-.79,5.83-1.06.36-.08.75.42.89.41Z"/><path class="cls-15" d="M152.78,288.79c-.41,2.63-3.81,3.68-4.14,5.84-.49,3.27,2.16,2.18,3.53,4.31-.93,1.88-2.3,2.66-1.76,5.15l-2.35-.62-.6,3.67h3.54c.88,2.4-1.94,4.09-2.24,5.31-.16.66.41,1.08.47,1.43.1.55-.07,1.25,0,1.84l-.29,1.24-2.06-1.24c-1.65,3.64,1.28,3.36,1.68,4.67.17.57-.52,1.28-.5,1.45-1.36.06-3.9-.07-3.54,1.84-.94-.12-1.91,1.54-1.78-.31.23-3.35,3.15-6.05,3.03-11.65-.02-1.06-2.02-.59-1.12-4.13.42-1.67,2.65-4.54,2.84-6.88l-1.22-1.21,1.23-3.05-1.24-.63c-.25-1.85,1.88-2.62,2.52-4.13.47-1.1.67-4.33,1.04-4.74.33-.36,2.64-.43,2.36-2.45l.58.31c-.11,1.26.19,2.78,0,3.98Z"/><path class="cls-14" d="M220.56,105.74c.36-.03.74.16,1.07-.1,1.62-5.02,4.75-1.82,7.47-2.31,1.46-.26,1.24-1.72,1.88-1.89,1.41-.37,3.61.44,5.09-.08,1.1-.39,1.21-2.42,2.57-2.86,1.69-.54,3.05.51,4.53.45,2.25-.1,4.77-1.47,6.08-1.67.8-.12,1.4,1.18,2.16,1.07s3.33-3.67,5.68-2.39c1.58,1.48-8.19,5.1-7.96,6.75h-1.17s-.59-1.27-.59-1.27c-.77.78-2.76.97-3.24,1.25.33-1.86-.9-1.17-2.04-1.22s-2.38.04-3.56,0l.29,2.45c-2.31.24-.67-.65-2.02-.66-2.95-.04-7.81,1.96-8.03,5.55-2.9-.65-5.05-2.46-8.23-1.83v-1.22Z"/><path class="cls-16" d="M409.78,157.78c.66.97,1.7,1.04,1.2,3.25-.18.81-2.23.66-1.79,2.25,5.24.55,2.5,2.97,3.53,6.74l-2.93.91,2.94,2.48-1.19,3.35h2.36s-1.28,4.83-1.28,4.83l-1.66.07c-.67,3.17,1.42.84,2.35,2.44-.77-.24-1.92.62-2.35.62-.41,0-.81-.07-1.17-.29l-1.11-1.37.5-4.45-1.17,1.22-1.18-2.15,2.36-.91c.44-2.87-2.72-1.61-2.43-5.21.07-.88,3.72-3.51,2.99-6.06-.76-2.68-3,1.56-4.69.86-.45-1.75,1.17-2.28,1.57-3.46.64-1.91-.31-5.1,3.14-5.11Z"/><path class="cls-16" d="M410.96,187.16l3.53,2.76-2.36.91,1.19,3.05-1.78.32.68,5.73c5.49,1.41,1.81,3.73.26,6.25-.45.73-.31,2-.88,2.75-1.34,1.77-3.6.35-5.35.25l4.11-4.6c.42-1.58-1.26-.62-1.76-.9l-.59-2.45c2.27-1.26,1.89-3.11,1.77-5.51-.05-1.02.04-2.05,0-3.06l-2.36-.91c1.69-1.56,3.03-2.07,3.53-4.6Z"/><path class="cls-16" d="M399.76,146.76c1.83.73,3.52.93,5.02-.6-1.06,4.08.59,5.36,4.42,4.89v-3.68c.57.25,1.32-.16,1.67,1,.41,3.53.59,5.58-2.85,6.95-.55-1.01-.37-2.2-1.76-1.83-1.03,3.62-.21,6.4-4.13,7.34-.18.04-.4-.03-.59,0-.6-2.17,2.32-3.85,2.37-5.2,0-.2-2.01-1.4-2.26-3.19-.12-.89,1.5-1.94,1.06-3.24-.72.16-2.55-.24-2.94,0-3-2.37-.12-2.29,0-2.45Z"/><path class="cls-15" d="M451.04,313.89c.15.06,1.72,1.93,2.36,2.15l-1.77,2.44c1.76.68,1.83,2.15,1.77,3.98h-2.95c-.12,1.41.29,3.15-.1,4.48-.33,1.12-1.72,1.44-2.25,2.26-.12.18-.41.36-.59.61-1.56.78-2.38,1.03-4.13,1.22.77-2.2,2.16-4.77,4.69-4.31-.36-2.23.6-4.34.66-6.41.06-1.87-2.07-8.09,2.31-6.43ZM449.57,324.3v.61c.38-.2.38-.41,0-.61Z"/><path class="cls-4" d="M238.84,109.41c-.04.2.04.42,0,.61-.08.34.05.83,0,1.22-.36.36-5.53-2.04-6.8.6-.99,2.06,3.06,1.99,2.09,4.3-.46-.13-1.22.09-1.77,0-.42-.07-1.4-1.09-2.36-.61-.06-.12-1.2-.98-1.77-1.84-.15-.23.33-1.27-.3-1.23h-.88s0,1.23,0,1.23c-.38,0-.8-.05-1.18,0-.19-1.23-.32-2.5-1.73-2.49l-.03-.88.58-.31c2.39.47,4.08,1.22,6.44-.37.8-.54.65-2.04,2.68-1.99l5.03,1.75Z"/><path class="cls-14" d="M401.53,143.08c.88-1.66.23-2.29,2.41-1.58,1.72.56,1.16,1.85,2.01,2.81.52.59,1.31.47,1.47.6.84.73.51,1.47.64,2.41.35.23.9-.06,1.13.04v3.68c-3.82.47-5.47-.81-4.41-4.89-1.5,1.53-3.19,1.33-5.02.6.49-.66,1.31-2.81,1.77-3.67Z"/><path class="cls-4" d="M274.79,97.78c-1.5.31-7.3,1.06-7.66,1.22l-2.94-2.45c.11-3.03,2.39-1.29,3.83-1.34,2.42-.07,5.76-1.22,6.78,2.56Z"/><path class="cls-5" d="M238.84,103.9l-.29-2.45c1.18.05,2.38-.06,3.56,0s2.36-.64,2.04,1.22c-.55.32-1.74,2.1-2.7,2.41-1.15.39-.17-1.44-2.6-1.18Z"/><path class="cls-2" d="M447.5,329.81c-.44.6-.39,2.7-1.77,3.4-.66.33-2.85-.41-4.12-.34v-1.84c.53.05,1.25.06,1.77,0,1.74-.19,2.56-.44,4.13-1.22Z"/><path class="cls-2" d="M408.01,201.24l.59,2.45c-.53.87-1.78,1.24-2.36,1.84h-1.18c-.02-.2,0-.41,0-.61-.2-4.73.45-2.29,2.95-3.67Z"/><path class="cls-2" d="M278.33,95.94c.47-1.29.05-1.91,2.08-1.87l1.46,1.87c-.15.11.72,1.28-1.47,1.29-1.2,0-1.53-.2-2.07-1.29Z"/><path class="cls-21" d="M179.3,212.88v2.45s-2.6,0-2.6,0c-.73-.12-.2-1.77-.34-2.46h2.95Z"/><path class="cls-21" d="M175.77,219.61c.54-.39.76-1.75,2.35-1.22v2.45c-.7.28-1.22,1.02-2.35.61v-1.84Z"/><path class="cls-21" d="M181.66,212.88h-1.77l.3-1.84c1.22-.39,1.31,1.74,1.47,1.84Z"/><path class="cls-4" d="M402.12,136.96l.59.61c-1.09.63-1.04.63-2.36.61.48-1.32,1.62-1.04,1.77-1.22Z"/><path class="cls-4" d="M392.1,123.49c.18.14-.28,1.97,2.88,1.29-.15,1.6,1.19,4.72,1.21,5.75.02,1.54-1.85,2.95-1.74,4.59,4.22-.45,1.38,3.02,5.9,3.06-.35.96-.61,3.8-1.18,4.9-1.65,3.19-4.32,2.79-4.65,3.13s.21,2.5-.97,2.99l-3.82-1.22c-.76,1.96,2.54,3.26,2.33,4.53l-2.86,1.65c-.85,3.02,2.26,3.08,3.4,5.23-1.19,2.94-1.36,5.6-5.23,5.11l.58-3.05-3.22,1.22-.9-3.07-5.29,3.67c.58-2.07-2.05-3.68-2.3-4.72-.42-1.76,2.2-3.98,2.27-4.29.64-2.74-.81-4,3.56-4.45l-.58,4.89h2.95c.91-2.04-1.34-2.46-1.21-3.35.24-1.7,2.29-2.36,2.7-3.4.33-.84-.46-1.76-.04-2.44.25-.41,1.37-.48,1.51-.91.87-2.58-2.77-.52-1.76-3.04.37-.92,2.02-1.35,2.9-1.59l-.31-3.63c4.63-3.68,1.78,2.6,5.05,3.05l-1.77-8.57c-4.13,2.04-8.1-2.25-4.45-5.54.53-.48,4.83-1.97,5.04-1.8Z"/><rect class="cls-15" x="172.82" y="214.72" width="1.76" height="1.22"/><path class="cls-15" d="M406.24,205.53c-.12.12-.72,3.66-1.18,0h1.18Z"/><path class="cls-5" d="M286.58,108.8c.1-.11.98.01,1.44-.62.79-1.07.73-3.42,2.4-4.27,1.22-.49.91,1.84,2.46,2.33,1.66.52,3.7-.21,5.4.2l1,2.39c3.69-.91,5.06-1.95,4.39-6.14,1.59,1.75,2.63.32,4.44,1.15,2.1.96,2.63,3.14,3.24,5.23l-3.51,2.61,1.13,2.93-1.18.93c0-2.68-1.48-2.31-2.94-3.4-.43-.32-.52-1.44-.92-1.52-1.86-.36-1.68,1.29-2.37,1.85-.85.69-2.44.33-2.03,1.53.66,1.94,3.56,1.02,4.7,2.47.57,1.22-1.97,1.06-2.25,2.53-.53,2.78,4.26,2.32,5.07,3.42.37.5-.07,1.75.7,2.63,1.17,1.33,3.25.6,4.67.23l.07-2.99,2.94.61-1.21-2.78,1.22-2.1,3.92,3.69h1.06c2.87-.54.86-3.21.91-4.56.01-.32.88-.28,1.12-.85.7-1.68,2.13-4.91-.35-5.57h-.94s-3.35,3-3.35,3c.2-1.73.35-7.15-2.39-5.21-.15.1-1.71,3.55-2.32.61-.3-1.44,4.33-4.23,5.3-5.19,2.37-.21,2.59,3.83,3.92,4.23,2.02-.06,3.61-1.54,5.77-1.18,1.87.32,5.84,6.95,6.82.62l3.52,1.22c.14-1.37.93-2.39,2.37-2.45.03.09.99.48,1.18,1.22.07.27.03.88,0,1.22-.03.41-.57,1.12-.59,1.84-.01.39-.06.88,0,1.22-4.31-2.53-4.79,2.76-8.25,1.22v2.12c-1.66,1.52-3.58-5.49-5.01-5.17l-2.68,5.18c1.64.94,2.03.95,1.32,3.01l.44.7c4.61-.27,6.34,1.61,7.99,5.79,1.8-.98,1.14-3,1.77-4.29.42-.86,1.64-.92,1.91-1.38.63-1.05-.28-2.73,2.23-3.5,2.04-.63-.93,2.92,1.22,3.62,2.62.85,2.11-2.81,4.93-1.77-.1.9.1,3.42,1.49,3.04l.98-2.34,2.27-.1-1.76,3.06c2.57-1.26,3.49.36,3.51,3.03-5.77,1.43.05,2.65.49,3.22.67.87-.67,3.58,2.65,2.84,1.2-.27,2.06-1.74,3.06-1.75.53,0,.45,2.48,2.37,1.85l.9-1.83,3.52,1.84c.55,1.72-1.32,1.05-1.7,2.19l.49,3.04c3.1.25,4.73-2.7,8.28-.95-.39,1.25-2.51.91-1.75,2.72,2.3,2.47,5.46,1.06,8.25.66,1.88-1.84-2.44-1.97-1.19-3.98.7-1.12,4.71,1.4,5.22-2.31.55-4.05-5.81-1.36-6.4-2v-1.84c2.78,1.08,5.61-2.48,4.72-5.51,1.81.46,3.01.19,4.71,0,.05,0,.4.6.79.49.67-.17,1.91-2.03,2.15-1.72l.29,1.83,1.48.62c-.21-.17-4.51,1.32-5.04,1.8-3.64,3.29.32,7.58,4.45,5.54l1.77,8.57c-3.27-.46-.42-6.73-5.05-3.05l.31,3.63c-.88.24-2.53.67-2.9,1.59-1.01,2.52,2.63.46,1.76,3.04-.14.42-1.26.49-1.51.91-.41.68.37,1.6.04,2.44-.4,1.04-2.46,1.7-2.7,3.4-.12.89,2.12,1.3,1.21,3.35h-2.95s.58-4.89.58-4.89c-4.37.46-2.92,1.72-3.56,4.45-.07.32-2.69,2.54-2.27,4.29.25,1.04,2.89,2.65,2.3,4.72l5.29-3.67.9,3.07,3.22-1.22-.58,3.05c3.87.49,4.04-2.17,5.23-5.11-1.14-2.15-4.26-2.21-3.4-5.23l2.86-1.65c.21-1.27-3.09-2.57-2.33-4.53l3.82,1.22c1.18-.49.65-2.66.97-2.99s3,.05,4.65-3.13h2.36c-.46.86-1.28,3.01-1.77,3.67-.12.16-3,.08,0,2.45-.05.03.14.96-.39,1.25-1.42.77-4.86,1.03-3.34,3.64l1.96.31.59,1.53c-.87.2-3.52,1.91-3.83,2.46-.6,1.08-.07,2.27-.3,3.26-.11.45-1.93.39-.58,3.47-3.22-.22-4.92,2.86-2,4.87l2.58-1.19-.54,3.62c1.86.93,3.37.68,5.25.06.52,1.74-3.36,2.1-2.33,3.63.22.33,2.56.43,1.74,3.1l4.71-1.23c1.8,2.85-2.23,3.59-1.7,5.69,2.85,1.75,2.99,6.57,5.83,6.56.27,2.56-2.75-.29-1.18,3.05-2.79-.8-9.42-2.33-12.1-2.48-1.4-.08-2.49.36-3.8.65-1.04-6.12-4.58-.9-6.16-1.19-.5-.09-.37-2.71-3.45-1.76-1.41.44-1.74,1.77-2.19,2.95-.75,1.95-1.2,4.1-1.77,6.12-.53.05-1.45.96-2.35.61l.55-2.98c-1.62-.4-2.42-1.36-2.32-3.14-1.28-1.26-2.7,6.63-5.02,1.22l-2.64,1.23v-2.45c-.6-.15-2.04.21-2.36,0-.09-.06,0-1.53-1.18-1.84l2.32-2.64,1.22-.43c-.62,1.83,1.37,4.32,2.96,3.42,1.15-.65.78-3.09,3.53-2.19.94-1.9-4.55-1.36-2.95-3.05.52-.55,5.18-.65,5.88-2.76-1-1.42-2.67-.86-4.11-.92l.53-2.09c-.26-1.2-2.78-1.19-3.68-.87-1.19.44-1.11,2.71-2.74,2.35.07-1.28-1.3-4.3-2.65-4.29-.64.53-.55,1.7-1.47,2.16-1.14.57-4.37-.27-2.9,2.07.24.38,2.6.14,2.92,2.23.36,2.36-2.87,3.94-1.8,7.02-4.73.49-3.27,1.78-5.31,4.29s-1.95,1.22-4.15,2.11c-1.18.47-1.71,1.74-2.92,1.57l-.9-3.06-2.64,1.83v-2.45c-2.19-.66-.74,2.64-1.18,3.06-1.48-.89-3.93,1.36-4.11,1.22-.2-.14-.23-2.37-1.78-1.83v2.45c-1.6.1-2.71-.44-3.54-1.84-.11-.19.09-.86,0-1.22h-1.17c-.05.6.06,1.24,0,1.84s.1,1.29,0,1.84c-.36,2.05-1.91,3.51-3.53,1.52.12-2.02,2.49.35,1.77-2.74-2.46.19-3.69-.68-3.57-3.34.09-2.07,1.98-3.89-1.14-3.4-.03,2.87-1.15,5.13,0,7.96-.6.63-6.4-5.98-4.96.68l7.32.55-3.24,4.28c-1.72-2.84-6.03-3.05-9.07-3.73-.85-2.98,2.7-2.57,1.71-6.06-.39-.47-4.46,1.95-5.3,2.45.74-1.61-1.19-1.95-1.21-2.22-.15-2.42,1.23-3.17-.68-6.56-.67-1.19-2.03-.56-1.65-2.24.33-.26,6.17,1.91,5.3-1.84.37.17,1.36-.17,1.77,0s1.71.74,1.79,1.02c-.42,1.57.69,3.51.57,4.79-.1,1.16-1.41,1.53-1.18,2.77,1.36-.36,2.78.55,3.92.59,2,.08,3.53-4.04,6.09-4.28.41-.59-1.83-3.08-2.35-3.66,1.61-1.46,2.04-6.36,0-7.35.1-.08.05-1.1.59-1.51,3.71-2.86-5.6-4.4,10.02-5.84.65.15,2.52-.96,3.54-.61-1.95,2.85,1.32,3.18,1.65,3.79.41.78-.19,2.06.24,2.82.19.34,1.42.37,1.57,1.07s-.95,3.1.07,4.56c-1.98.15-4.03-3.51-5.49-3.55-2.27-.06-1.25,2.6-2.13,3.3-.65.52-5.34-1.07-4.76,1.77.39,1.89,4.24-.21,4.71.31v2.46s2.94-.62,2.94-.62c-.08,1.09.48,2.71,1.56,3,2.1.57,1.42-2.56,3.75-1.77l-.59,3.05c7.8,1.81,5.49-2.2,5.31-7.95,3.32,1.02,6.42,3.79,9.97,1.15-1.1-3.46-2.17-5.8-5.84-4.22-.65-2.23,1.51-2.15,2.07-3.06.86-1.38-.5-3.32-.9-4.9.95.11,1.99-.07,2.95,0v-2.45c1.56.65,2.85,2.59,4.71,1.55l1.24-2.49-1.23-2.12h2.35c.35,8.43,3.39.99,7.67,1.22.47-2.19-2.89-.52-2.38-3.35,1.52-1,3.28-1.75,2.97-3.98l-3.18-.58-1.52,2.78-2.61-.33-.96,2.42h-.87c-1.18-1.69-2.44-2.11-4.43-1.84-.58-1.75,2.05-1.41,2.33-2.82.17-.85-1.79-2.71-2.62-2.7-1.37.03-4.14,3.66-4.45-1.2l-3.52.61c.15-.95-.07-3.4-1.47-3.06-.23.06-3.75,2.5-3.9,2.7-.65.86-.59,1.8-.54,2.81h2.37c.2,1.55,0,1.63-1.21,2.15l.1,1.13,3.47,2.55c.17.77-2.08,2.24-.91,3.99,1.43,2.13,3.28-1.96,5.03-1.25-.14,1.5.23,2.87.59,4.29-1.63-.2-2.1-.86-3.52-1.22,0,1.63-1.86,2.26-2.25,3.49-.44,1.41.53,3.98-1.89,3.85,1.29-2.84-1.76-4.41-1.82-4.7-.23-1.1.81-2.64.64-3.87-.95.16-2.83-.87-3.54-.62.82-4.39-2.39-7.62-2.4-11.94,0-3.24,1.56-5.08,2.4-7.65l5.3-1.84c.34.32-.17,3.77,1.77,3.06-.53-3.32,2.56-4.3.33-7.39-1-1.39-2.97-1.38-2.69-3.01,4.19-.16,2.16-2.48,2.46-3.93.22-1.06,3.39-1.51,2.84-3.72s-3.07.84-3.53.3l-.29-2.46-1.73-.55c-1.37.92-1.57,2.69-1.53,4.23-1.41.08-1.99-1.4-3.37-1.72s-3.79-.13-3.11,2.02c.26.83,1.9.53,1.76,1.53-3.03-.96-2.76,1.47-4.71,1.84-.18.03-.4,0-.59,0,.07-.95.05-2.02-.96-2.36l-4.34-.08v1.22c-2.4-.41-3.7-.57-5.89-.61-1.62-.03-2.71-2.24-4.3-3.18-2.46-1.46-12.17-5.63-14.54-4.48-2.52,1.21-.55,2.13.36,3,.29.27.16.97.21,1-1.68-.51-2.15,2.41-2.73,2.5-1.97.3-2.5-2.68-5.52-.05-3.26.71-.99-3.03-2.07-4.89-.6-1.04-3.51-1.91-4.39-2.78-.84-.83-.77-1.82-1.16-2.32-.63-.8-2.62-.26-2.4-2.25,1.23.21,2.83-.14,4.13,0,.77-1.79-1.15-3.59-1.19-4.6-.09-2.71,5.11-1.23,4.23-5.13l1.67-.07c-1.46-7.36-4.15-.66-6.18-1.22-1.13-.32-.74-2.59-.3-3.06ZM360.76,142.36c-1.97,1.18-3.02-2.77-3.76-2.95l-3.77,2.8-.04,1.17c4.34,1.73-1.56,3.16.26,5.85,1.56,2.32,4.75-.96,6.81,1.2-2.9,2.05-2,6.66,1.41,6.16.29-.04,1.19-3.07,4.15-2.55.92,3.84,3.56,3.25,3.28-.57,1.3-.13,3.54,1.41,4.45.04,1.92-3.48-3.61-3.43-3.87-4.64.73-2.31,3.09-3.14,1.77-5.8l-5.89,1.84c.19-1.89-.78-3.64-2.13-4.85-1.64-.4-2.44,2.14-2.68,2.29ZM383.84,140.03c-1.51-1.47-14.62,8.03-2.62,6.81l2.62-6.81ZM377.95,168.2l1.76-1.53-4.13-1.9c-2.43,1.33-.98,5.04-1.17,5.24s-3.47.25-2.95,2.46l3.74-.66,1.27,1.88h.87c.01-2.6,1.36-2.18,2.94-3.36l-1.94-.91-.4-1.22ZM394.33,175.34c-2.11,1.1-5-3.27-7.53-2.87l.58,3.05-3.75-.57-.95,1.48c.91.74,1.74,2.18,2.62,2.8s1.95.37,2.52.74c.82.53,1.23,3.89,3.1,3.51-.81-4.42,4.24-4.76,5.3-8.88-1.41-1.33-1.78.68-1.89.74Z"/><path class="cls-4" d="M255.93,105.74l1.49-4.29c2.24.6,4.62,3.15,6.47.63l.87,2.02,1.49.43c1.01-3.91,5.81-6.82,7.38-1.85h.86c.83-1.31,5.21-3.21,6.48-3.08,1.84.19,1.85,2.21,2.16,2.4,1.18.72,4.57-1.61,3.47-3.6,1.51-.26,1.74,1.24,1.79,2.43l5.28.02.88-2.44c1.48,2.4,2.49,2.78,5.25,3.09.92-3.36,1.98-3.81,5.31-4.36l.69,1.29c1.68-.56,5.02.91,7.33,1.81.14.05.34,1.26,1.35,1.14,2.67-.33,4.62-3.52,5.41-3.63,1.92-.28,3.49-.38,3.85,1.88-2.71-.99-3.62,2.6-5.31,4.29-.97.97-5.6,3.76-5.3,5.19.62,2.94,2.18-.51,2.32-.61,2.74-1.94,2.6,3.48,2.39,5.21l3.35-2.99h.94c2.48.65,1.05,3.88.35,5.56-.24.58-1.11.53-1.12.85-.05,1.35,1.97,4.03-.91,4.56h-1.06s-3.92-3.69-3.92-3.69l-1.22,2.1,1.21,2.78-2.94-.61-.07,2.99c-1.42.37-3.5,1.11-4.67-.23-.77-.88-.33-2.13-.7-2.63-.81-1.1-5.6-.64-5.07-3.42.28-1.47,2.82-1.31,2.25-2.53-1.14-1.45-4.05-.52-4.7-2.47-.41-1.21,1.18-.85,2.03-1.53.7-.57.51-2.21,2.37-1.85.4.08.48,1.2.92,1.52,1.46,1.09,2.94.73,2.94,3.4l1.18-.93-1.13-2.93,3.51-2.61c-.61-2.1-1.14-4.27-3.24-5.23-1.81-.83-2.85.6-4.44-1.15.67,4.2-.71,5.23-4.39,6.14l-1-2.39c-1.7-.41-3.74.32-5.4-.2-1.56-.49-1.24-2.81-2.46-2.33-1.66.85-1.61,3.2-2.4,4.27-.46.63-1.34.51-1.44.62-.22-.43-1.08-.49-1.18-.61-.11-.14.29-1.18-.34-1.25-3.21.09-5.12,2.31-7.91,2.48v-2.46c-.85-.05-1.69-.02-2.52.17-2.41.53-1.18,1.29-1.92,2.86-1.78,3.82-3.22-1.46-2.64-3.63-1.35-.07-1.72,1.3-3.24,1.29s-1.74-1.02-2.37-1.29c-.33-.14-.55,1.12-.87,1.22-3.76,1.16-5.42-1.26-7.66-1.84Z"/><path d="M326.65,172.78c-.01-.38-5.92-3.77-6.27-3.83-1.06-.18-3.39,1.29-4.77,1.53-6.99,1.2-12.13.78-18.62-2.24-3.43,6.69-8.05,3.87-11.51-.85.16-1.07,7.61-9.2,8.6-9.5,2.79-.85,4.23,1.85,6.42,2.89,2.38,1.14,4.84,1.5,7.43,1.11.61-.09,2.75-.24,2.22-1.34l-13.93-10.67c-1.7-.31-2.68,4.84-6.67,3.29-.53-.2-6.02-4.23-6.22-4.57-1.33-2.21,1.52-3.8,2.66-5.21.57-1.38-2.68,2.15-2.79,2.2-.32-2.65,3.28-2.86,4.55-3.4,1.36-.58,5.03-5.78,6.5-7.06,3.02-2.63,3.55.35,5.52.05.58-.09,1.05-3.01,2.73-2.5.21,1.37-1.49,1.77-1.12,3.24.29,1.16,2.23,1.63,2.21,3.08-.22,2.59-3.93,2.32-2.58,4.71,2.15.97,14.42,11.2,15.33,11,2.86-.61-1.14-10.23-2.15-11.83-1.12-1.79-7.44-8.47-9.1-9.52-.97-.61-2.32-.51-2.59-.69-.04-.03.08-.72-.21-1-.92-.87-2.88-1.78-.36-3,2.37-1.15,12.08,3.02,14.54,4.48,1.6.95,2.68,3.15,4.3,3.18.35,2.74,2.84,4.38,4.22,6.94,2.85,5.26,4.19,12.36,1.15,17.87.05.7,7.66,3.59,6.11,8.21M321.48,174.42c-2.15.79,6.8-1.89,4.65-1.35-.64.16-2.01.67-2.43.8-.68.21-1.49.81-3.12,1.01s-6.07,4-6.3,3.11M324.39,162.58c.34-3.29,1.85-5.9,1.73-9.4-.34-9.78-10.09-22.12-20.08-21.43,4.16,3.88,9,7.86,11.31,13.35,1.14,2.71,3.02,10.08-.11,11.8-1.62.89-15.71-12.07-18.85-12.63-.89-2,3.23-3.82,2.93-5.17-1.42-.99-3.8-3.15-5.47-2.68-1.06.3-10.85,9.9-11.02,10.66-.28,1.31,4.79,3.3,5.69,4.48l3.83-4.09,2.22.22,17.12,13.45c.43,1.14-1.79,1.44-2.49,1.68-3.95,1.35-6.36,1.46-10.29-.05-2.06-.79-4.64-3.6-6.68-2.93-2.53.83-4.67,5.8-7.05,7.41l5,3.92,4.18-5.4c5.5,2.48,10.12,4.34,16.29,3.47,2.11-.3,6.83-2.69,7.82-2.68,2.23.02,6.16,7.13,10.2,2.73,1.5-2.72-4.42-5.87-6.29-6.72Z"/><path class="cls-3" d="M283.64,143.08c.11-.05,2.93-1.08,2.35.3-1.13,1.41-3.98,3-2.66,5.21.2.34,5.69,4.37,6.22,4.57,3.99,1.54,4.96-3.61,6.67-3.29l13.93,10.67c.53,1.1-1.61,1.25-2.22,1.34-2.59.39-5.05.03-7.43-1.11-2.18-1.04-3.63-3.74-6.42-2.89-.98.3-8.44,8.43-8.6,9.5,3.45,4.72,8.07,7.54,11.51.85,6.49,3.02,11.63,3.45,18.62,2.24,1.38-.24,3.71-1.71,4.77-1.53.36.06,6.26,3.45,6.27,3.83-2.12,1.28-4.69,1.49-7.05,2.46-1.73.7-3.67,2.69-5.31,2.75-2.69.09-9.86-3.38-13.16-2.34-.69.22-.92,1.09-.99,1.11-.32.12-1.26-.02-1.77,0-.07,0-.4-.56-.86-.53-5.58.36-10.27,1.65-15.41-1.9-.41-.6.33-2.14.35-3.08.16-6.77-.79-6.05-2.36-11.02-.68-2.15-.58-5.88-2.36-7.96.98-1.9,3.38-2.64,2.98-5.14-3.25-1.59-.37-1.26.5-1.93.41-.31.56-.83.64-.89.58-.37,1.19-.96,1.77-1.22Z"/><path class="cls-15" d="M245.72,130.65c-.38.6-1.98.52-1.57,2.02,2.07-.33,3.15.27,4.49,1.8l3.72-1.77c.52,4.1,6.41,8.41.3,10.35l-.22.87c2.57,5,9.23,5.28,1.42,9.58l-3.24-1.86c2.22,5.44-3.96,5.57-7.66,6.12l1.18-4.89c-7.84,3.31-4.25-1.63-4.76-2.37-.46-.67-4.04-1.01-1.45-3.77,2.86-3.06,4.89,1.45,7.97,1.86l1.17-4.26c-1.24,0-2.81-.55-2.89-2.08.2-1.2,5.18-3.59,4.08-4.67-2.63.75-3.51.63-5.89-.61.2,1.17-.33,3.42-1.55,3.61-2.46.39-2.71-5.58-4.74.08l-2.47-.12c-1.34-5.84-3.26-1.37-5.12-1.1-1.28.18-2.51-.75-3.8-.63l-.1,3.87-1.66,1.02c-.24-3.1-3.99-3.03-2.37-6.11-2.34.33-3.71-.19-4.12-2.74,1.68-2,3.81-.72,5.56.28,1.64-.33.69-7.22,6.46-2.97.68.5.91,1.74,1.3,1.8,1.13.17,3.2-2.07,4.96-1.28.82-1.75-3.19-3.09-1.74-4.86,1.55-1.88,5.99,2.22,7.04,1.19.19-1.82.32-6.81,2.67-6.77l4.34,4.14c.36,1.3-.59,3.17-1.3,4.28Z"/><path class="cls-5" d="M188.73,209.81c.63-1,3.9.55,4.03.71.38.48-.17,2.12.36,3.01.49.81,1.71.37,2.1.57.72.35,2.37,3.23,2.38,3.97,0,.34-1.06.22-1.2.73-.22.82.19,2.04,0,2.64-.03.1-1.06.42-1.12.99-.13,1.23,1.06.19.11,3.79-.72,2.71.31,2.51-3.11,3.79,0-.07-.63-.38-.64-.86-.02-.55,1.87.04,1.23-1.59-3.08-.76-2.38,1.44-3.13,2.24-1.51,1.6-3.48,1.6-2.75,5.1l2.56-.55.98,1.78c-3.61-.58-1.9,2.89-5.65,3.03-.72.94.51,2.44.4,3.32-.07.56-3.74,1.25-.63,3.78l3.53-.33c-.96,3.92-.38,5.37-5.31,6.12-.28-3.78-5.3.61-5.32.97-.04.6.73,1.83.67,3.02-.04.69-2.81,6.6.55,3.56.27-.24,3.41-4.21,3.51-4.48.77.18,2.67-.69,2.37.92-.28,1.48-1.7,5.29-3.55,4.59-.05.87.43,1.62.59,2.44l-2.94,1.84-2.02-2.42c-1.51.33-2.99,6.16-5.66,5.48-.86-2.67-4.29-6.38.02-8.27.83-.36,1.58.5,2.65-.23,1.3-.89,3.33-5.06,3.07-6.56-.16-.9-2.08-.2-1.5-2.25.74-2.61,4.52-3.92,3.5-7.71l2.27-.72c-.62-1.27.07-3.06-.02-3.88-.02-.21-1.82-.43-1.15-3.44.28-1.23,2.22-2.81,2.38-3.98.38-1.22-1.15-.84-1.2-.92-.09-.13-.02-1.94,0-2.45,1.6.43,5.99-.7,4.43-3.09l-1.48-.88c2.53-2.28,2.88-2.63,3.53-5.82.05-.22-.07-.52,0-.61.38-.47,1.94.05,2.33-2.8.35-2.53-.25-2.72-1.15-4.54Z"/><path class="cls-15" d="M277.15,192.67l-2.36-.92c0-.37,1.74-3.13,1.9-3.22,1.08-.62,3.38.69,3.42-1.97l1.12.06.4,1.21,2.59-.67-.94-1.73-2.59.51.63-3.04,4.27.08,2.18,2.67c4.15,1.22,2.97-1.47,3.81-2.77.43-.65,1.75-.63,2.42-1.2.83-.7.71-2.87,2.02-1.54l.54,3.09c4.5,1.88,4.93-8.8,8.82-3.61l-.52,3.87c2.71-1.21,3.49-3.35,7.07-2.44l-1.17,2.13c.58.26,1.61,2.08,1.76,2.15.87,3.75-4.97,1.57-5.3,1.84-.39,1.68.98,1.05,1.65,2.24,1.9,3.38.52,4.14.68,6.56.02.28,1.95.62,1.21,2.22-.68.4-1.16,1.52-2.35,1.22l-.9-2.46-2.33,1.24c-1.82-1.34.14-3.52-.31-5.51-2.22.23-3.43,2.81-3.59,4.83-1.85,1.08-3.24-1.08-3.48-1.16.38-1.22-.62-2.98-.45-3.91.24-1.33,4.23-3.27,3.13-4.68-1.24-.53-3.71-2.47-4.93-1.7-.23.14-.4,1.3-.95,1.74-1.78,1.45-5.93,2.41-1.01,3.76.24.25.14,1.27.09,1.74-2.48,1.05-2.4,3.39-5.9,2.45v-2.11s-1.17-.33-1.17-.33c-2.04,5.09-4.29-.08-7.67.6v-3.67c-1.57-.36-1.12,1.19-1.77,2.45Z"/><path class="cls-15" d="M225.28,200.63c-.15-.1-2.45,1.12-3.45-.09-.48-1.63.11-3.24.25-4.77.31-3.32-1.78.45-2.7.88-1.96.9-8.93.08-5.79,5.43.92,1.57,2.63.24,2.26,2.23-1.18-.08-2.6.25-3.72-.11-.93-.3-5.11-5.02-3.94-6.62-1.66.68-3.07.69-3.48-1.44,1.6-4.07,5.27.19,5.86-3.45h.86c1.19,1.66,2.44,2.12,4.43,1.83-.92-5.58,2.98-5.02,7.08-4.9.59-4.55-3.64-3.46-6.49-4.58l-.52-2.71,3.45-.71.11-2.31c2.96-2.45,4.78,4.26,7.28,3.57,1.36-2.43,1.18-5.89,4.72-6.12,1.33.86.57,2.59,1.19,3.67.53.93,4.1,1.56,3.8,3.3-.32,1.85-3.8,2.35-5.27,1.6-.38,3.04,3.99,2.32,2.84,6.3-1.05,3.67-6.02.08-6.38.44,1.66,3.91-.67,3.61-1.77,6.12-.42.95-.32,1.52-.59,2.45Z"/><path class="cls-15" d="M280.1,160.23c1.57,4.97,2.52,4.25,2.36,11.02l-.59-3.06-1.78.4v2.04c-1.89-.21-2.41-2.52-4.7-1.83-.28,2.54,2.74,2.22,1.77,5.51h-2.37c.26,2.31-.18,4.84-2.69,3.1-.92-.64-1.83-3.92-2.6-2.03l-.33,1.41c-2.84-.25-6.25,1.17-6.74-2.82l1.75-2.73-6.5-1.52c-1.97-1.86,1.76-1.7,1.19-3.07l-2.94-1.55c-.8-1.11,3.22-4.35,5.28-3.38.73.34,1.47,2,2.16,2.13,1,.18,2.69-3.67,5.21-.55,1.15,1.42.3,3.8,1.77,3.64,3.5-.39,1.5-2.54,2.2-5.06.9-3.24,5.34.26,7.54-1.65Z"/><path class="cls-14" d="M285.4,108.19c.1.12.96.18,1.18.61-.44.47-.82,2.74.3,3.06,2.03.57,4.71-6.14,6.18,1.22l-1.67.07c.89,3.9-4.32,2.42-4.23,5.13.03,1.01,1.95,2.81,1.19,4.6-1.3-.14-2.9.21-4.13,0-1.93-.33-3.25-2.39-5.3-2.45l1.14,2.67-2.69,2.79-2-2.4c-2.23,1.11-3.93,1.56-6.47,1.22l1.77-5.5-3.82,1.84c-1.84-5.15-2.38-.43-5.31.61-2.35-2.54-.45-5.83,2.07-7.06.9-.44,2,.67,2.94.07.76-.48,1.22-3.2,2.07-3.41,2.15-.53.81,4.19,2.36,4.89s1.18-.27,1.52-.9c2.1-3.83,2.62.72,4.9.33l8.02-7.39Z"/><path class="cls-14" d="M263.59,107.58l2.36,5.51-4.08-.58-.91,2.43c-1.91,2.05-3.17-.82-4.22-1.07-.55-.13-1.36.61-2,.17-.88-.61-.04-2.64-3.66-.78s-3.21,6.62-4.96,7.1l-1.69-.54-.4-2.31-1.05-.5c-1.26-.26-2.33,1.23-4.44,1.03-1.35-.13-2.55-1.35-4.41-1.9.97-2.3-3.08-2.24-2.09-4.3,1.27-2.64,6.44-.24,6.8-.6.05-.4-.07-.88,0-1.22,1.87-.47,3.94.79,5.61.67,2.12-.15,2.63-2.45,5.33-.03.81.08.72-.52.85-.64.48-.43.4-1.39,1.17-1.22.29,1.22.31,3.15,2.06,2.44,1.39-.56-.24-4.24,1.48-5.5.2.02.42-.04.59,0,2.24.58,3.91,3,7.66,1.84Z"/><path class="cls-15" d="M264.74,180.47l-.32,1.86-2.01.85c-.54,2.09,1.75,1.5,2.26,3.18,2.06,6.78-6.36,2.02-6.96,2.64,2.33,4.97-4.31.9-6.09-.13-1.23-.71-.97-2.6-3.94-1.7l-.06-3-3.39-.76-.67-4.2,8.84,1.83c-3.27-3.82-1.08-5.46,3.27-4.92,2.91.36,2.4,2.72,3.8,3.41s3.73.04,5.28.95Z"/><path class="cls-15" d="M219.97,154.71h-4.12s2.9,6.96,2.9,6.96c-1.52,2.63-3.97,1.75-6.12.38-1.55.87-.46,3.16-1.02,4.17-.12.21-1.17.5-1.68,1.01s-.57,2.48-1.73,1.54c-.08-.06-.05-1.02-.63-1.46-1.24-.94-3.17-1.29-4.08-3.15-.28-1.3,2.01-1.47,2.28-2.5s-1.27-2.35.36-3.28c2.02,1.64,3.82.63,6.17,1.23.53-1.74-1.31-2.37-1.65-3.49-1.1-3.65,1.63-3.74,1.7-4.25.21-1.48-1.84-4.32,1.75-5.42,3.1-.94,2.57,2.44,3.23,3.95.6,1.37,3.2,2.09,2.63,4.3Z"/><path class="cls-15" d="M278.92,144.31c-.94-.1-2.92-.83-3.44-.53l-1.3,3.79c-3.69,1.91-1.48-3.62-1.75-3.87h-2.37s.64-4.55.64-4.55l-2.15-.9c-1.44-6.76,5.69-.08,6.23-.67-.08-1.64-1.32-3.63.6-4.63,1.03-.54,2.87,2.16,4.99-.26,2.38,3.28-.04,8.24-1.46,11.64Z"/><path class="cls-15" d="M241.94,173.53c-1.74-1.8,1.02-3.5.43-4.12-1.22-.12-5.31,2.19-5.86.25-.69-2.44,2-3.13,2.19-4.3.11-.69-1.22-3.58.95-3.25.93.14,4.46,4.36,5.08,3.62-.33-2.97,1.97-5.16,4.76-4.02,2.43,3.12-1.83,4.1-1.85,5.54-.01,1.29,2.24,1.99,1.81,3.67-.84,1.29-2.39.7-3.52,1.25-1.33.65-1.71,3.25-3.99,1.35Z"/><path class="cls-15" d="M214.85,175.72c-.43.61-.38,1.71-.84,2.48-2.48,4.11-3.62-3.17-6.75,1.64l-.16.77c1.48,1.62,1.12,2.79.49,4.72-.21.15-3.19-1.27-3.49-1.57-.73-.71-.66-1.79-1.2-2.43-1.88-2.24-4.58-1.53.27-3.97,2.62-1.32,5.27-.91,4.43-4.89l4.71,1.84c.09-3.51,2.11-3.22,4.71-2.13,2.01,1.43-1.7,2.88-2.17,3.54Z"/><path class="cls-15" d="M231.65,160.14l-1.06,1c.42,1.25,3.48,1.58,2.94,3.67-.9,1.44-1.72.53-2.94.32l-1.17,5.23c-2,1.3-3.34-3.18-5.91-2.18l1.77-3.67c-1.93.25-5.51-1.98-3.38-4.13,2.3-2.32,5.09,1.94,6.31,1.05.22-1.1.67-3.06,2.08-3.07l1.48.95-.11.82Z"/><path class="cls-15" d="M256.52,116.76c-1.04,3.79,3.44,1.97,2.95,5.51l-3.54.94c.89,1.11,2.32,5.24-.29,5.21-1.11-.01-1.77-1.55-2.69-2.13-.67-.42-2.71-.36-2.91-1.27-.39-1.79,3.03-1.02,2.35-2.43-.82-1.71-5.67-.62-2.66-4,1.8-2.02,4.32-2.01,6.79-1.83Z"/><path class="cls-15" d="M233.48,147.46l-.63,2.27-3.44.1,1.12,3.85-2.51,2.22c-3.44-1.98-1.84-6.12-5.09-8.23v-.89s6.2-3.71,6.2-3.71l4.35,4.4Z"/><path class="cls-14" d="M314.29,185.33c.52-3.73,4.43,1.99,5.88.6v-1.38s1.18-.45,1.18-.45c-.5,2.33,1.51,2.15,1.78,2.45.52.58,2.76,3.08,2.35,3.66-2.56.24-4.09,4.35-6.09,4.28-1.14-.04-2.57-.96-3.92-.59-.23-1.24,1.08-1.6,1.18-2.77.11-1.28-1-3.22-.57-4.79-.08-.28-1.39-.86-1.79-1.02Z"/><path class="cls-15" d="M261.84,142.47l2.14-1.15,1.39.86-1.22,3.61c2.83,1.16,1.61,3.83,1.8,6.48l-5.29-1.23c.58-1.82-.79-3.01-1.05-4.13-.18-.8.42-1.63.31-2.21-.23-1.21-2.26-1.44-2.2-3.67.12-4.43,3.62-.86,4.13,1.45Z"/><path class="cls-15" d="M268.31,192.67c-.36-.16-1.27.11-1.77,0-.13-.92-.22-1.54-1.18-1.84.14-.21-.21-1.27.05-1.75l3.48-.09c-1.43-5.65-.17-3.57,2.33-5.23.81-.54,1.45-3.46,3.61-1.85,2.74,2.04-.96,4.57-1.84,5.52-.68.73-1.17,2.05-1.77,2.45-1.19.79-3.37-.13-2.92,2.79Z"/><path class="cls-20" d="M265.36,190.84c.96.3,1.05.92,1.18,1.84.67,4.84-5.12,2.21-8.45,2.64-1.29.17-1.82,2.66-2.75-.81.56-.07,1.81-1.01,2.9-.69l.04-1.76c1.54-.64.94,1.09,1.56,1.24,1.38.32,3.42-.23,4.92-.01l-.61-2.09c0-.54,1.17-.3,1.2-.35Z"/><path class="cls-21" d="M281.87,144.31c-.08.05-.23.57-.64.89-.88.67-3.75.34-.5,1.93.4,2.5-2,3.25-2.98,5.14-.08-.09-.82.12-1.15-.03l1.18-3.33-1.22-.61c.17-1.21,2.01-1.95,2.22-2.32.39-.66.03-1.4.15-1.67.96.11,1.98-.07,2.95,0Z"/><path class="cls-15" d="M300.14,176.76c2.08,3.55-2.03,3.42-1.77,0,.51-.02,1.45.12,1.77,0Z"/><path class="cls-14" d="M232.35,116.15c-.36,1.21-1.22,1.36-2.36,1.23-.13-.52.15-1.52,0-1.84.96-.48,1.94.54,2.36.61Z"/><path class="cls-14" d="M227.05,113.7v-1.22s.88,0,.88,0c.63-.05.15,1,.3,1.23h-1.18Z"/><path class="cls-20" d="M331.97,197.57c.83,1.4,1.94,1.94,3.53,1.84v-2.45c1.55-.54,1.59,1.69,1.78,1.83.18.13,2.63-2.12,4.11-1.22.44-.42-1.01-3.72,1.18-3.06v2.45s2.65-1.83,2.65-1.83l.9,3.06c1.21.18,1.74-1.09,2.92-1.57,2.2-.88,2.04.49,4.15-2.11.13.23.51.43.59.61,1.36,3.34,2.81,1.22,3.53,1.84-.38,3.73-2.83.56-3.71.72-1.54.27-6.17,2.21-7.76,2.27-1.36.05-3.19-1.18-4.67-1.2l-1.31,2.54-3.17-1.27v1.85s-5.9-1.84-5.9-1.84c.1-.55-.06-1.25,0-1.84l1.18-.61Z"/><path class="cls-5" d="M297.78,196.35c-1.55-.52-3.18-.55-4.71,0-.18-1.08.48-2.06.59-3.06.05-.47.15-1.49-.09-1.74-4.93-1.35-.78-2.31,1.01-3.76.55-.44.72-1.6.95-1.74,1.22-.77,3.69,1.18,4.93,1.7,1.11,1.41-2.88,3.36-3.13,4.68-.17.93.83,2.69.45,3.91Z"/><path class="cls-14" d="M358.5,190.22c.68-.07,2.39-.14,2.95,0,1.17.3,1.09,1.78,1.18,1.84-1.59,4.53-5.22,3.13-8.84,3.06-.07-.18-.46-.38-.59-.61,2.04-2.51.58-3.79,5.31-4.29Z"/><path d="M381.49,196.35c-.07.12,1.16,1.79-.3,2.44l-1.17.03c-.41-1.7-1.71-1.39-3.25-1.24.57-2.02,1.02-4.17,1.77-6.12.86,2.22.15,4.24,2.95,4.9Z"/><path class="cls-21" d="M432.18,302.87c2.46.52,2.3,3.62,4.43,4.89,1.41.31,1.61-2.06,1.47-3.06l3.18.66c.79-2.65,4.76-.32,3.89,2.4-1.4-.6-4.06-1.61-5.54-1.1-.98.34-.78,1.64-1.29,2.27s-3.33,1.97-1.66,3.16l3.18,1.49c.36,1.42-1.36.76-1.69,1.89-.48,1.65-.52,4.96-1.26,6.98-1.49.73-.98-1.16-1.52-1.26-1.81-.34-3.35,2.22-5.55.65.21-.85-.26-2.25.08-3.29s1.69-.75,1.7-1.31c.02-1.23-2.63-2.49-1.78-4.58,1.01.14,3.87.16,3.54-1.52-.28-1.91-5.32-1.82-4.71-3.06.52-1.05,2.96-2,3.53-5.21Z"/><path class="cls-21" d="M441.61,331.03c-.42-.04-.9.14-1.36,0-.31-.1-1.56-3.13-2.25-.1l-1.42-.49-.27-6.14c1.87-.21,1.86,1.86,1.77,3.06,6.29.48,2.09-7.69,7.07-6.74.28-1.82-1.76-1.58-2.63-2.47-2.33-2.4.2-2.46.54-3.03,1.68-2.87-.48-5.9-.27-6.12,1.19-.26,1.51,1.14,2.61,1.18.71.03,1.53-.65,2.31-.59.25.02,3.43,2.93,3.33,3.7v.61c-4.38-1.66-2.25,4.56-2.31,6.43-.06,2.07-1.02,4.18-.66,6.41-2.53-.46-3.93,2.1-4.69,4.31-.52.06-1.24.05-1.77,0Z"/><path class="cls-14" d="M439.25,276.54c.34-2.09,3.34-4.29,2.95-.61-.05.43-.96,1.15-.33,1.86.55.7,6.06.8.92,3.65-.1-.08-2.07-.57-2.36-.61-.39-1.55-1.48-2.47-1.18-4.29Z"/><path class="cls-14" d="M443.38,283.89c2.34.22,3.35,4.76,0,4.9-.44-1.29-.38-2.63-.45-3.97-.02-.47.46-.85.45-.93Z"/><path class="cls-4" d="M445.74,299.2l.59,1.22c-.19.12-2.93,3.88-3.53.91-.39-1.89,2.6-1.9,2.94-2.13Z"/><path class="cls-5" d="M171.05,270.42c.06.25.79,1.85.94,1.89l4.95-1.89c.36.91-.58,1.96-.58,2.45,0,.2,0,.41,0,.61-2.1-.48-6.85,4-6.42,5.7.22.88,3.12,2.41.81,3.48-1.36.63-.66-1.52-.93-1.75-.95-.84-3.1-.61-1.73,2.08.46.89,3.41,4.7,4.35,4.53,3.03-1.56,1.31-3.02,1.67-4.98.17-.9,1.39-2.13,1.65-2.93.61.13,3.43-1.07,3.54-1.22.06.3.31.57.59.61l.19,2.45-1.89.96.62,3.25,1.67.38-3.52,2.47-.03,1.21c2.64,1.06,1.62,4.54,1.79,7.04h-4.13c.31-1.22-.6-4.55-1.45-5.53-.99-1.14-3.18-1.49-3.85-2.15-1-.98-.17-3.98-3.55-1.19l1.18,2.74-1.71.04c-.44,2.74.07,3.98,2.89,3.64-1.28,1.86.82,3.2.53,4.46-.6,2.61-8.89,4.46-7.02,6.55l3.53-.61v2.11s1.17.34,1.17.34c-.08-2.09,1.8-1.95,2.37-2.44l2.44.98.51,6.36c.59.02,1.18-.01,1.77,0l-2.07,4.28c-3.2-.34.16-5.56-1.77-6.11-2.15-.57-1.62,1.67-2.22,2.27-.41.41-1.41.14-2.14,1.13-.65.88-1.6,4.19-.96,5.18,1.14,1.75,2.93-1.07,4.44-.63.12.54-.14,1.43,0,1.84-4.51.52-3.42,4.6-4.13,7.96-.24,1.13-1.22,1.38-1.18,4.29,0,.61-.04,1.23,0,1.84l-1.76,1.83c-.9-2.77-1.56-5.75-3.55-7.96.08-.63-.15-2.22,0-2.45.22-.33,2.79-.4,1.76-3.67l-2.94.61c0-2.7,2.08-4.32,2.37-7.02.51-4.73-1.74-4.45-1.83-5-.14-.92,1.03-5.11,1.01-6.76-.03-2.19-1.51-3.96-.37-6.31l-3.53,1.83c.03-.64-.18-1.47,0-2.03.22-.71,1.51.03,1.2-1.34l-1.18-1.22c.13-.6,1.15-1.4,1.17-1.54l2.92,1.2c.88-3.09,2.88-4.05-1.74-3.65,1.26-2.17,3.02-4.28,3.88-6.68.68-1.89-.35-1.21-1.53-1.28.11-.29.05-1.93,0-2.45,2.04.15,3.78-1.67,3.54-3.67l-1.76-.91,2.35-2.15c2.7,3.96,4.7-2.59,7.66-3.06Z"/><path class="cls-21" d="M155.13,288.79c-.19,1.62.64,3.92.59,4.29-.02.14-1.05.94-1.17,1.54l1.18,1.22c.32,1.37-.98.63-1.2,1.34-.17.56.04,1.39,0,2.03-.07,1.39-.24,3.88.12,5.08.27.93,1.56,1.35,1.66,2.57.11,1.28.01,5.91-.01,7.65-2.84,1.41-4.44.03-7.07-.61-.06-.35-.63-.77-.47-1.43.3-1.22,3.12-2.91,2.24-5.31h-3.54s.6-3.68.6-3.68l2.35.62c-.55-2.49.83-3.27,1.76-5.15-1.38-2.14-4.03-1.04-3.53-4.31.33-2.17,3.73-3.21,4.14-5.84h2.36Z"/><path d="M154.55,299.2l3.53-1.83c-1.13,2.35.35,4.12.37,6.31.02,1.65-1.15,5.84-1.01,6.76.09.55,2.33.27,1.83,5-.29,2.7-2.37,4.32-2.37,7.02l2.94-.61c1.02,3.27-1.54,3.34-1.76,3.67-2.66.58-4.09-3.95-4.06-5.85,0-.3,2.22-1.06,2.29-5.17.03-1.74.12-6.36.01-7.65s-1.39-1.65-1.66-2.57c-.35-1.2-.19-3.69-.12-5.08Z"/><path class="cls-21" d="M164.57,327.97l3.53.62c.69,1.51-2.87,1.79-1.76,3.05,1.66,1.9,4.09-1.88,4.71-1.22l.88,1.83c2.08-3.94,5.52-8.27,4.93-.39l-1.24.89-2.2-.49c-.35.87.6,2.05.59,2.45-.02.78-.51,1.63-.61,2.43-.89-.42-5.56-1.1-5.78-1.31-.23-.22-.03-1.35-.69-2.01-.55-.55-2.66-1.16-3.53-1.56-.04-2.91.94-3.16,1.18-4.29Z"/><path d="M151.01,337.15c.44,0,1.27.28,1.19-.4l.26-2.69c1.44-.8,1.25-5.86,2.97-5.48,1.06.23,1.06,3.02.88,3.96-.37,1.96-2.83,2.35-2.35,4.61,3.92-.42.71,4.91-.93.59l-2.01.64c-.05-.4.06-.85,0-1.22-.39,0-.79.02-1.18,0v-1.83s1.17,0,1.17,0c.07.59-.09,1.29,0,1.83Z"/><path class="cls-21" d="M158.08,327.97c1.98,2.2,2.64,5.18,3.55,7.96l1.76-1.83c.06.77,1.21,2.77.59,4.28-4.62-.07-6.37-5.43-6.39-9.51,0-.5.49-.78.5-.89Z"/><path class="cls-21" d="M148.06,321.85c-.02-.17.68-.89.5-1.45-.4-1.3-3.33-1.03-1.68-4.67l2.06,1.24.29-1.24h1.77c.31,1.42-1.44,1.82-1.68,2.87-.26,1.2,1,3.53.5,5.08-1.18.49-1.7-1.16-1.77-1.83Z"/><path class="cls-5" d="M437.48,252.06c-.32,3.04.14,4.06,1.77,6.42l-2.36.32,1.68,4.21-1.09.07c-.29-.23-1.03-.4-1.18-.61-.11-.16.34-.91-.42-1.22-1.05-.43-3.09-.44-4.3-.62-.8-1.99,1.71-3.15,1.77-3.37.41-1.46-1.1-.76-1.77-.91.1-.76-.15-1.76,0-2.45.01-.07.55-1.17.59-1.22.17-.2.84-.41,1.18-.61,1.67-.99,2.68-1.61,4.13,0Z"/><path class="cls-21" d="M433.95,247.16c-.88.63-1.68,1.26-2.34,2.14l1.75,2.75c-.34.2-1.01.42-1.18.61-.16-1.64-2.61-1.63-2.86-1.92-.42-.5.12-2.68-.09-3.59,1.55.49,3.73-1.3,4.72,0Z"/><path class="cls-21" d="M431.59,253.89c-.15.69.1,1.69,0,2.45-1.61-.38-2.21.4-2.38-2.12-.04-.51.04-1.04.03-1.55l2.35,1.22Z"/><path class="cls-5" d="M437.48,264.91l2.94-1.22c1.84,3.67-1.5,2.71-1.17,5.51l1.71.03c-.59,4.15,1.15,2.47,1.87,3.4s.87,2.93-.64,3.31c.39-3.68-2.61-1.48-2.95.61-3.91.5,0-2.18-.6-3.04-.63-.12-1.49-.31-1.72-1.01-.11-.36.48-6.29.55-7.58Z"/><path class="cls-4" d="M168.69,304.71c-.57.49-2.45.35-2.37,2.44l-1.18-.34v-2.11s-3.53.61-3.53.61c-1.88-2.09,6.42-3.94,7.02-6.55.29-1.26-1.81-2.6-.53-4.46-2.82.35-3.33-.9-2.89-3.64l1.71-.04-1.18-2.74c3.37-2.79,2.55.21,3.55,1.19.67.65,2.85,1.01,3.85,2.15.86.98,1.76,4.32,1.45,5.53-.09.36-.98.08-1.18,2.45-.09,1.03-.12,2.67,0,3.67-1.3-.03-2.8-.13-4.01.41-.95.42-.64,1.37-.7,1.43Z"/><path class="cls-4" d="M173.41,312.05c1.18.03,2.36-.03,3.54,0,.17,2.2.1,3.17-1.77,4.28-.23.14-1.13-.38-1.21.36l-.56,6.99c-.71.06-1.75,1.23-2.98.35-.47-1.29-1.3-2.81-1.74-4.02-.15-.41.12-1.29,0-1.84-1.52-.44-3.3,2.38-4.44.63-.65-.99.31-4.3.96-5.18.73-1,1.73-.72,2.14-1.13.6-.6.07-2.84,2.22-2.27,1.92.55-1.43,5.78,1.77,6.11l2.07-4.28Z"/><path class="cls-15" d="M173.41,299.2c.81.18,2.33-.82,2.84-.53.17.1,2.43,2.99,2.44,3.22.2,5.73-4.61,6.68-5.28.98-.12-1-.09-2.64,0-3.67Z"/><path class="cls-21" d="M175.18,316.34c-.57,2.12,1.14,1.83,2.04,3.07.8,1.09,1.12,2.38,1.49,3.67l-2.32.05-.04,1.79c-1.11-.69-1.5-1.34-2.94-1.23l.56-6.99c.08-.74.98-.22,1.21-.36Z"/><path class="cls-4" d="M188.14,245.93l-3.53.33c-3.11-2.53.56-3.22.63-3.78.12-.88-1.12-2.38-.4-3.32,3.75-.14,2.04-3.61,5.65-3.03l-.98-1.78-2.56.55c-.73-3.5,1.24-3.49,2.75-5.1.76-.8.05-3,3.13-2.24.65,1.62-1.24,1.03-1.23,1.59.01.48.64.79.64.86-.08,2.52-.84,4.3.61,6.99-1.53.73-1.98,1.67-2.97,2.81-.41.47-1.51.7-1.72,1.64-.29,1.28,1.1,1.94,1.05,2.88-.04.76-1.04,1.36-1.1,1.6Z"/><path class="cls-4" d="M171.05,267.97c2.66.67,4.14-5.15,5.66-5.48l2.02,2.42,2.94-1.84c.02.11.55.38.58.93.03.47-.51,3.76-.65,3.89-.33.31-1.79-.25-2.59.67-.52.6-1.01,3.41-.87,4.3h-1.77c0-.49.94-1.54.58-2.45l-4.95,1.89c-.16-.04-.88-1.64-.94-1.89-.17-.66.19-1.86,0-2.45Z"/><path class="cls-4" d="M182.84,252.06c.01.16-.53,2.92-.59,3.06-.1.27-3.25,4.24-3.51,4.48-3.36,3.05-.59-2.87-.55-3.56.06-1.19-.71-2.42-.67-3.02.02-.36,5.04-4.75,5.32-.97Z"/><path class="cls-2" d="M178.12,272.87c.2,1.31,2.72,3.31,1.18,5.51-.11.16-2.93,1.36-3.54,1.22.53-1.59.52-4.49.59-6.12,0-.2,0-.41,0-.61h1.77Z"/><path d="M215.26,111.25l.59,2.77-5.31-.33-.55,3.42-4.78-.09-1.72,5c-5.88-1.43-3.28,3.35-3.6,3.84-.19.29-1.78.28-2.21,1.72-.48,1.61.09,3.97-.11,5.7l2.27.08c.41.27.86,3.08.71,3.77-.21.98-6.91,2.61-4.77,5.57l-1.74.99.07,1.16,1.14.42c.24,1.12-1.3,4.25-2.06,5.19s-3.28,1.3-1.67,2.4c4.16.66-1.83,2-2.2,2.76-.77,1.58,2.74.02,1.75,2.42-.4.98-2.69,1.06-2.34,2.77l2.94,1.22c-4.32,1.2-8.2,4.56-2.37,7.05-1.32,1.1-2.05,2.12-1.76,3.98h2.37c.3,2.37-1.2,2.73-2.94,3.36.47,2.62,4.02,4.57,4.09,6.1.09,1.95-1.28,4.99-3.51,4.01v2.44s2.02-.55,2.02-.55l.94,1.48-1.78,1.54.08,1.15c1.33.08,1.18.59,1.09,1.9h-2.37s0,1.84,0,1.84l2.2-.49,1.3.87c0,2.68-.82,3.61-2.33,5.44,5.54,3.56,0,4.68-.55,6.22-.36,1.02.42,1.16.56,1.44.91,1.82,1.5,2.01,1.15,4.54-.39,2.86-1.95,2.33-2.33,2.8-3.71-1.14-.47-2.45-.57-4.54-.09-1.77-2.15-3.09-.89-5.86.51-1.12,2.64-1.7,2.05-3.66-2.4.22-2-2.7-4.71-1.86l2.37-2.15-2.4-5.47,2.93-1.93-2.9-7.58c7.28-1.5,1.63-4.01,1.19-6.45-.18-1-.23-5.75-.01-6.62.12-.49,1.2-.36,1.2-.71,0-1.2-2.02-2.25-1.81-4.26.14-1.36,1.83-2.09,2.08-3.3.2-.97-.54-2.27-.33-3.33.16-.78,2.06-.64,1.8-1.95l-4.12-.93c.09-.35-.1-.89,0-1.22l4.71-.62c-1.53-3.49.81-3.86,2.85-5.87l-.56-5.68c-1.39-.95-2.69-.1-4.06-.08-.06-.38.09-.91,0-1.22,2.51-.57,4.57-.95,7.07,0-.21-1.08.43-6.64,1.48-6.72,1.57-.12.17,3.53.3,3.66,3.59-.39,0-6.17,0-8.87,0-1.06,1.88-8.34,2.36-8.88.24-.27,2.82-.98,3.49-1.59,1.19-1.07,1.52-3.71,2.4-4.24,1.04-.62,2.58.03,3.59-.58.65-.4.45-1.45.55-1.55,1.89-2.06,5.27-1.62,7.66-1.84Z"/><path class="cls-17" d="M213.49,119.21c.05,1,1.57,2.85,1.18,4.28-.37.36-5.72-.45-5.31,1.84-.32-.24-1.36.1-1.7-.99-1.05-3.33,3.08-5.71,5.83-5.13Z"/><path class="cls-5" d="M215.85,117.37c-.33-2.03,1.46-2.31,2.36-3.67.86,2.28,4.95,3.11,3.85,5.51-1.34,2.92-3.98-1.41-6.2-1.84Z"/><path class="cls-14" d="M176.94,234.3l2.95.61c-.67,3.01,1.13,3.23,1.15,3.44.09.82-.61,2.61.02,3.88l-2.27.72c1.02,3.79-2.77,5.1-3.5,7.71-.58,2.06,1.34,1.35,1.5,2.25.26,1.49-1.76,5.67-3.07,6.56-1.07.73-1.83-.14-2.65.23-4.31,1.89-.88,5.6-.02,8.27.19.59-.17,1.79,0,2.45-2.96.47-4.96,7.02-7.66,3.06l.59-3.06h-1.18c.2-.53-.31-1.7.59-2.45.15-.13.84,0,1.16-.31,2.81-2.81.75-3.23,1.28-5.37.37-1.5,3.52-2.48,2.86-4.73-.17-.18-2.54.35-2.94.61-.47-.89.58-2.2.59-2.45,4.35.6,5.3-4.78,6.84-7.9,1.82-3.68.83-2.32,1.52-5.14.24-.99,1.6-1.16,1.69-3.17.07-1.49-.7-.87-1.79-.94-.39-.02-.79.02-1.17,0-.4-.54,1.56-2.87,2.11-3.64.42-.58,1.37-.58,1.42-.64Z"/><path d="M174.59,238.59c1.09.07,1.87-.55,1.79.94-.1,2.01-1.45,2.18-1.69,3.17-.69,2.82.3,1.46-1.52,5.14-1.53,3.11-2.48,8.5-6.84,7.9.02-.42-.46-2.19-.69-2.36l-2.26-.09c.64-2.12,1.32-1.71,1.77-2.45l2.64,1.22c-.3-3,3.43-4.44,4.15-6.13.63-1.49-.32-2.36-.18-3.28.18-1.16,2.95-2.24,2.81-4.05Z"/><path d="M187.55,217.77c-.66,3.19-1.01,3.54-3.53,5.82l1.48.88c1.56,2.39-2.83,3.52-4.43,3.09.18-4.19,2.07-9.01,6.48-9.8Z"/><path d="M181.07,230.02c.05.08,1.58-.31,1.2.92-.16,1.17-2.11,2.75-2.38,3.98l-2.95-.61c.12-.18-.02-1.41.83-2.49.77-.97,2.08-1.65,3.29-1.8Z"/><path class="cls-20" d="M182.84,193.28c-.81.78-3.13-1.08-2.35-1.83.81-.78,3.13,1.08,2.35,1.83Z"/><path class="cls-4" d="M345.53,105.13c3.94-2.47,5.04-.68,8.25.3,3.74,1.15,2.93,1.01,5.7,2.62,2.63,1.52,3.06-.25,5.49-.48l.63,2.43c3.01.83.55-2.12,2.91-1.82-.22,1.25.55,2.57.59,3.67,0,.08-.65.65-.62,1.48.05,1.35.81,2.63.62,4.03-.48.09-1.32,1.09-2.36.62.53-2.47-.93-3.5-1.86-5.45-.15-.08-3.18.55-3.32.68-.81.75.36,3.52-3.67,1.7l.6-3.05c-2.46.62-3.12-2.13-5.31-1.84.65,2.23-1.84,1.73-1.77,3.67l4.12-.61-.58,3.05c7.62.21,1.31,3.5,1.17,4.11-.22.93.13,2.22.02,3.24,3.09-1.38,3.38.18,5.03,2.45.91.23,3.75-3.39,5.28-3.69,2.04-.39.18,2.94.3,3.07,1.84.54.95-1.88,2.65-1.87,1.21,0,1.81,1.38,2.14,2.4,1.69,1.27,4.93-5.17,4.64-5.43h-2.36c-1.05-1.06,2.49-6.49-1.17-5.51.61-.58.63-2.2.59-3.06,3.09.25,1.03.86,2.13,1.89.55.51,4.51,2.1,5.48,1.85-.3,2.66,1.22,2.19,2.7.55.47,1.21.71,1.4,2.05,1.23l-1.76,1.82c.96,1.17,5.7.51,3.53,3.07-1.71.19-2.9.46-4.71,0,.89,3.03-1.94,6.59-4.72,5.51v1.84c.59.64,6.95-2.05,6.4,2-.5,3.71-4.52,1.18-5.22,2.31-1.25,2.01,3.07,2.14,1.19,3.98-2.79.4-5.95,1.81-8.25-.66-.76-1.81,1.36-1.47,1.75-2.72-3.56-1.75-5.18,1.21-8.28.95l-.49-3.04c.37-1.15,2.25-.48,1.7-2.19l-3.52-1.84-.9,1.83c-1.91.63-1.84-1.85-2.37-1.85-1,0-1.86,1.48-3.06,1.75-3.32.74-1.98-1.97-2.65-2.84-.44-.57-6.26-1.79-.49-3.22-.02-2.67-.94-4.29-3.51-3.03l1.76-3.06-2.27.1-.98,2.34c-1.39.38-1.59-2.14-1.49-3.04-2.83-1.03-2.31,2.63-4.93,1.77-2.15-.7.82-4.24-1.22-3.62-2.51.77-1.6,2.45-2.23,3.5-.27.45-1.49.51-1.91,1.38-.63,1.29.03,3.31-1.77,4.29-1.65-4.17-3.37-6.06-7.99-5.79l-.44-.7c.71-2.07.33-2.07-1.32-3.01l2.68-5.18c1.42-.31,3.34,6.7,5.01,5.17v-2.12c3.45,1.54,3.94-3.75,8.24-1.22.15.84,1.25,1.96,1.19,3.06h.87s.65-1.27.65-1.27l2.62.41c.78-.59.42-1.53.57-2.19.08-.35-.05-.83,0-1.22,2.82,1.54,4.74-.71,4.12-3.67-1.25-.25-2.41.49-3.53.61-.14.02-.72-.57-1.37-.46-1.42.26-2.76,1.98-4.53,1.68.03-.34.07-.96,0-1.22,1-.26,2.29-.63,3.14-1.21.55-.38.35-1.21.4-1.24Z"/><path class="cls-2" d="M323.72,99.62c.09.03.32,1.1,1.48,1.25,1.89.25,2.88-1.18,4.17-1.26,1.96-.12,3.43,3.02,6.13,1.23l.61,2.45c2.24-.07,1.86-1.39,4.12-.61.57,1.04.31,2.8.59,3.67-1.43.05-2.22,1.07-2.37,2.45l-3.52-1.22c-.98,6.33-4.95-.3-6.82-.62-2.17-.37-3.75,1.12-5.77,1.18-1.33-.4-1.55-4.44-3.92-4.23,1.69-1.68,2.59-5.28,5.31-4.29Z"/><path class="cls-2" d="M373.23,111.86c.04.86.02,2.48-.59,3.06-.27.25-1.8-.63-1.18,2.45-.75.12-1.66-.14-2.36,0,.19-1.4-.57-2.68-.62-4.03-.03-.84.62-1.4.62-1.48,1.36.08,2.77-.11,4.13,0Z"/><path class="cls-14" d="M345.53,105.13c-.05.03.15.86-.4,1.24-.84.58-2.14.95-3.14,1.21-.19-.75-1.15-1.14-1.18-1.22-.28-.87-.02-2.63-.59-3.67,1.83.63,3.19,2.16,5.31,2.45Z"/><path class="cls-17" d="M179.89,143.08c-.15-.15.33-1.19-.3-1.24l-3.24,1.24-.03-2.06,4.11-1.08.35-1.76,2.27,2.52.96,2.1c.59.47,1.63.29,2.37.28,1.36-.02,2.67-.87,4.06.08l.56,5.68c-2.04,2-4.38,2.37-2.85,5.87l-4.71.62c.13-.45-.18-1.33.01-2,.11-.37,2.11-1.15,1.17-3.51l-3.54-.94c1.7-4.22,1.4-3.16-1.18-5.8Z"/><path class="cls-17" d="M178.12,149.21c.42,1.76,1.5,2.73,1.74,4,1.07,5.65-1.94,5-4.99,8.24l-.81-.09-.06-1.13,2.94-5.51c-.57-.52-4.17,1.13-3.53-1.22.82-.25,2.37-.4,2.95-.92,1.35-1.18-.5-3.77,1.76-3.38Z"/><path class="cls-15" d="M401.53,160.84c.19-.03.4.04.59,0,2.06,3.25.64,4.66.02,7.93l2.34.65-2.06,3.67c-.91-2.75-2.7-4.9-5.01-6.44,2.51-2.78.47-5.14,4.13-5.81Z"/><path class="cls-4" d="M255.34,105.74c-1.72,1.26-.09,4.94-1.48,5.5-1.75.71-1.77-1.22-2.06-2.44-.77-.17-.69.79-1.17,1.22l.08-3.59c1.44-.67,3.07-.87,4.63-.7Z"/><path class="cls-17" d="M195.81,119.82h1.77s0,1.22,0,1.22c-.48.54-2.36,7.82-2.36,8.88,0,2.7,3.59,8.48,0,8.87-.13-.12,1.28-3.78-.3-3.66-1.05.08-1.69,5.64-1.48,6.72-2.5-.95-4.56-.57-7.07,0-.89-2.99-.7-3.27.59-6.11l-5.9-1.85,1.77-1.22-1.18-1.23c.94-2.26,1.68-.7,2.95,0,2.75,1.52,1.91,1.56,3.29,3.62,1.84,2.75,5.37-.09,4.87-1.94l-1.08-2.28,1.76-1.53c-1.21-.78-2.64-3.34-3.53-3.99.28-.07.55-.32.59-.61.6-.76,1.61.04,1.77,0,2.26-.51,3.7-2.4,3.54-4.9Z"/><path class="cls-15" d="M189.91,125.33c.89.66,2.32,3.22,3.53,3.99l-1.76,1.53,1.08,2.28c.5,1.85-3.04,4.68-4.87,1.94-1.38-2.06-.54-2.1-3.29-3.62l2-1.9,2.72-4.22c.15.09.46-.09.59,0Z"/><path class="cls-17" d="M163.39,253.28l2.26.09c.23.16.71,1.94.69,2.36,0,.24-1.06,1.56-.59,2.45-.3.19-3.96,5.59-4.05,5.94-.37,1.45,1.1,2.66,1.69,3.85-.9.75-.39,1.92-.59,2.45-.55,1.43-3.49,2.3-4,4.1-.67,2.38.3,3.89.46,5.69.05.51.11,2.16,0,2.45-.38.99-3.69,2.39-4.13,6.12h-2.36c.19-1.19-.11-2.72,0-3.98l-.58-.31-1.76.61-.04-2.1c4.37-1.26,3.84-7.98,4.87-11.55.33-1.14,2.04-1.91,2.56-3.47s.28-4.39.85-5.71c.33-.78,1.64-.41,2.13-1.01s-.44-1.83-.26-2.67c.23-1.06,2.09-1.89,2.55-2.91s.14-1.85.3-2.42Z"/><path class="cls-15" d="M207.6,113.09c-.09.1.1,1.16-.55,1.55-1.01.61-2.55-.04-3.59.58-.88.53-1.21,3.17-2.4,4.24-.67.6-3.24,1.31-3.49,1.59v-1.22s-1.77,0-1.77,0c-.03-.4.02-.82,0-1.22,1.12-1.42,2.93-1.93,4.44-3.07.54-.41.71-1.54.98-1.7s5.46-1.22,6.36-.74Z"/><path class="cls-14" d="M195.81,118.6c.02.41-.03.82,0,1.22.16,2.5-1.28,4.38-3.54,4.9.16-1.43-.25-2.51-1.77-2.45,0-.13-.62-.68-.64-1.5-.03-1.35.53-2.63.69-3.94,2.39-.83,3.29,1.21,5.25,1.78Z"/><path class="cls-15" d="M192.27,124.72c-.16.04-1.17-.76-1.77,0,.1-.65.05-1.76,0-2.45,1.52-.07,1.93,1.02,1.77,2.45Z"/><path class="cls-21" d="M449.57,324.3c.38.2.38.41,0,.61v-.61Z"/><path class="cls-3" d="M326.67,136.96c1.77.3,3.48,1.18,5.31,1.22.19,0,.41.03.59,0,1.07,3.9,5.6,3.36,8.01,6.12.13.25-1.28,4.77-1.52,5.51-.85,2.58-2.41,4.42-2.4,7.65,0,4.32,3.22,7.55,2.4,11.94-.12.04-1.7,1.73-1.77,1.84-1.02-.35-2.88.77-3.54.61-.29-.07-2.8.66-3.07.71l-4.02.21c4.02-.95,5.07-1.81,5.6-3.41,1.55-4.62-6.06-7.51-6.11-8.21,3.04-5.5,1.7-12.6-1.15-17.87-1.39-2.56-3.88-4.19-4.22-6.94,2.19.05,3.49.2,5.89.61ZM334.92,169.42h-1.17v.6h1.17v-.6Z"/><path class="cls-4" d="M351.42,172.47c-.36-1.42-.73-2.79-.59-4.29-1.75-.71-3.6,3.38-5.03,1.25-1.17-1.75,1.08-3.21.91-3.99l-3.47-2.55-.1-1.13c1.2-.53,1.41-.6,1.21-2.15h-2.37c-.05-1.01-.11-1.95.54-2.81.14-.19,3.67-2.64,3.9-2.7,1.4-.34,1.62,2.12,1.47,3.06l3.52-.61c.3,4.86,3.07,1.23,4.45,1.2.83-.02,2.79,1.85,2.62,2.7-.28,1.41-2.91,1.07-2.33,2.82,1.99-.27,3.24.16,4.43,1.83h.87s.96-2.41.96-2.41l2.61.33,1.52-2.78,3.18.58c.31,2.23-1.45,2.98-2.97,3.98-.51,2.84,2.85,1.17,2.38,3.35-4.29-.23-7.32,7.21-7.67-1.22h-2.35s1.23,2.12,1.23,2.12l-1.24,2.49c-1.86,1.04-3.15-.9-4.71-1.55v2.45c-.96-.08-2,.11-2.95,0,.4,1.58,1.76,3.51.9,4.9-.57.91-2.72.83-2.07,3.06,3.67-1.58,4.74.76,5.84,4.22-3.55,2.64-6.65-.13-9.97-1.15.18,5.75,2.48,9.77-5.31,7.95l.59-3.05c-2.33-.79-1.64,2.34-3.75,1.77-1.08-.29-1.64-1.91-1.56-3l-2.94.62v-2.46c-.48-.52-4.33,1.58-4.72-.31-.58-2.85,4.11-1.25,4.76-1.77.87-.7-.14-3.36,2.13-3.3,1.46.04,3.5,3.69,5.49,3.55-1.02-1.46.08-3.85-.07-4.56s-1.38-.73-1.57-1.07c-.43-.76.17-2.05-.24-2.82-.33-.61-3.6-.94-1.65-3.79.07-.11,1.65-1.79,1.77-1.84.7-.26,2.58.78,3.54.62.18,1.22-.86,2.77-.64,3.87.06.29,3.11,1.86,1.82,4.7,2.42.14,1.45-2.43,1.89-3.85.39-1.24,2.24-1.86,2.25-3.49,1.42.36,1.89,1.02,3.52,1.22Z"/><path class="cls-4" d="M360.76,142.36c.24-.14,1.05-2.69,2.68-2.29,1.35,1.21,2.32,2.95,2.13,4.85l5.89-1.84c1.32,2.66-1.04,3.5-1.77,5.8.26,1.21,5.79,1.16,3.87,4.64-.91,1.37-3.16-.17-4.45-.04.28,3.82-2.36,4.41-3.28.57-2.96-.52-3.86,2.5-4.15,2.55-3.41.5-4.31-4.12-1.41-6.16-2.06-2.17-5.25,1.12-6.81-1.2-1.81-2.69,4.08-4.12-.26-5.85l.04-1.17,3.77-2.8c.74.19,1.79,4.14,3.76,2.95Z"/><path class="cls-4" d="M332.56,138.19c1.96-.37,1.68-2.8,4.71-1.84.15-1.01-1.5-.7-1.76-1.53-.68-2.15,1.79-2.33,3.11-2.02s1.96,1.8,3.37,1.72c-.04-1.54.16-3.31,1.53-4.23l1.73.55.29,2.46c.47.55,2.98-2.53,3.53-.3s-2.62,2.66-2.84,3.72c-.3,1.45,1.72,3.78-2.46,3.93-.28,1.63,1.69,1.63,2.69,3.01,2.22,3.09-.86,4.07-.33,7.39-1.94.7-1.43-2.74-1.77-3.06l-5.3,1.84c.24-.74,1.65-5.26,1.52-5.51-2.41-2.76-6.94-2.22-8.01-6.12ZM341.4,136.35l-3.52.3c.77,2.15,1.55,1.57,3.53,1.53v-1.83Z"/><path class="cls-4" d="M358.5,190.22c-1.07-3.08,2.16-4.66,1.8-7.02-.32-2.08-2.69-1.84-2.92-2.23-1.46-2.34,1.77-1.5,2.9-2.07.92-.46.83-1.63,1.47-2.16,1.35,0,2.72,3.02,2.65,4.29,1.64.36,1.56-1.92,2.74-2.35.9-.33,3.42-.34,3.68.87l-.53,2.09c1.45.06,3.11-.49,4.11.92-.7,2.11-5.36,2.21-5.88,2.76-1.6,1.69,3.89,1.15,2.95,3.05-2.75-.9-2.38,1.54-3.53,2.19-1.59.9-3.58-1.59-2.96-3.42l-1.22.43-2.32,2.64c-.55-.14-2.26-.07-2.95,0Z"/><path class="cls-4" d="M394.33,175.34c.11-.06.48-2.07,1.89-.74-1.07,4.12-6.11,4.46-5.3,8.88-1.87.38-2.29-2.97-3.1-3.51-.57-.37-1.63-.11-2.52-.74s-1.71-2.07-2.62-2.8l.95-1.48,3.75.57-.58-3.05c2.53-.39,5.42,3.97,7.53,2.87Z"/><path class="cls-4" d="M377.95,168.2l.4,1.22,1.94.91c-1.58,1.18-2.93.77-2.94,3.37h-.87s-1.27-1.88-1.27-1.88l-3.74.66c-.52-2.22,2.76-2.27,2.95-2.46s-1.26-3.9,1.17-5.24l4.13,1.9-1.76,1.53Z"/><path class="cls-4" d="M383.84,140.03l-2.62,6.81c-12.01,1.23,1.11-8.27,2.62-6.81Z"/><path class="cls-2" d="M341.4,110.64c1.49,1.36,2.4-.93,4.12-.61l.05,1.77,1.72.07c-.15.66.21,1.6-.57,2.19l-2.62-.41-.65,1.29h-.87c.06-1.12-1.04-2.23-1.19-3.07-.06-.34-.01-.84,0-1.22Z"/><path class="cls-14" d="M347.89,107.58c.05,1.06-.46,2.07-.59,3.06-.05.39.08.88,0,1.22l-1.72-.07-.05-1.77c-1.72-.32-2.63,1.97-4.12.61.02-.71.56-1.43.59-1.84,1.76.3,3.11-1.42,4.53-1.68.64-.12,1.22.47,1.37.46Z"/><path class="cls-4" d="M331.97,138.19c-1.82-.05-3.53-.92-5.31-1.22v-1.22s4.34.08,4.34.08c1.02.34,1.04,1.41.96,2.36Z"/><path class="cls-21" d="M330.79,198.18c.07-.6-.05-1.23,0-1.83h1.17c.1.36-.11,1.03,0,1.22l-1.18.61Z"/><path class="cls-6" d="M324.39,162.58c1.87.86,7.79,4,6.29,6.72-4.04,4.4-7.97-2.71-10.2-2.73-.99,0-5.71,2.38-7.82,2.68-6.18.88-10.79-.99-16.29-3.47l-4.18,5.4-5-3.92c2.38-1.61,4.52-6.58,7.05-7.41,2.04-.66,4.62,2.14,6.68,2.93,3.93,1.51,6.34,1.4,10.29.05.7-.24,2.92-.55,2.49-1.68l-17.12-13.45-2.22-.22-3.83,4.09c-.9-1.17-5.97-3.16-5.69-4.48.16-.76,9.96-10.37,11.02-10.66,1.66-.47,4.05,1.69,5.47,2.68.31,1.35-3.82,3.16-2.93,5.17,3.13.56,17.23,13.51,18.85,12.63,3.13-1.72,1.25-9.09.11-11.8-2.31-5.49-7.15-9.47-11.31-13.35,9.99-.7,19.73,11.64,20.08,21.43.12,3.5-1.39,6.1-1.73,9.4Z"/><path class="cls-3" d="M302.5,132.68c.27.17,1.63.07,2.59.69,1.66,1.05,7.97,7.73,9.1,9.52,1.01,1.61,5.01,11.22,2.15,11.83-.91.2-13.18-10.04-15.33-11-1.35-2.39,2.36-2.13,2.58-4.71.01-1.45-1.92-1.92-2.21-3.08-.37-1.47,1.33-1.88,1.12-3.24Z"/><path class="cls-4" d="M176.36,273.48c-.07,1.63-.06,4.53-.59,6.12-.27.8-1.49,2.03-1.65,2.93-.37,1.96,1.35,3.41-1.67,4.98-.94.17-3.89-3.63-4.35-4.53-1.37-2.69.77-2.91,1.73-2.08.27.23-.43,2.38.93,1.75,2.31-1.08-.59-2.6-.81-3.48-.43-1.7,4.32-6.17,6.42-5.7Z"/><path d="M159.26,282.67c1.18.07,2.21-.62,1.53,1.28-.86,2.4-2.63,4.51-3.88,6.68,4.62-.39,2.62.57,1.74,3.65l-2.92-1.2c.05-.36-.78-2.67-.59-4.29.43-3.73,3.74-5.13,4.13-6.12Z"/><path d="M162.8,270.42h1.18s-.59,3.06-.59,3.06l-2.35,2.15,1.76.91c.24,2-1.5,3.83-3.54,3.67-.17-1.8-1.13-3.32-.46-5.69.51-1.81,3.45-2.68,4-4.1Z"/><path d="M165.74,258.18c.41-.26,2.78-.79,2.94-.61.65,2.24-2.49,3.23-2.86,4.73-.53,2.14,1.53,2.56-1.28,5.37-.32.32-1.01.19-1.16.31-.59-1.19-2.06-2.4-1.69-3.85.09-.35,3.75-5.76,4.05-5.94Z"/><path class="cls-5" d="M372.64,114.92c3.66-.98.12,4.45,1.17,5.51h2.36c.29.26-2.95,6.7-4.64,5.43-.33-1.02-.93-2.4-2.14-2.4-1.7,0-.81,2.4-2.65,1.87-.12-.13,1.73-3.46-.3-3.07-1.53.3-4.37,3.91-5.28,3.69-1.64-2.27-1.94-3.83-5.03-2.45.12-1.02-.23-2.31-.02-3.24.14-.6,6.46-3.9-1.17-4.11l.58-3.05-4.12.61c-.07-1.93,2.42-1.44,1.77-3.67,2.19-.29,2.84,2.46,5.31,1.84l-.6,3.05c4.03,1.83,2.85-.95,3.67-1.7.14-.13,3.17-.76,3.32-.68.93,1.95,2.39,2.98,1.86,5.45,1.04.47,1.88-.52,2.36-.62.7-.14,1.61.12,2.36,0-.62-3.09.91-2.2,1.18-2.45Z"/><path class="cls-2" d="M347.89,107.58c1.13-.12,2.29-.86,3.53-.61.62,2.96-1.3,5.21-4.12,3.67.12-.99.64-2,.59-3.06Z"/><rect class="cls-21" x="333.74" y="169.42" width="1.17" height=".6"/><path class="cls-5" d="M341.4,136.35v1.83c-1.97.04-2.75.62-3.52-1.53l3.52-.3Z"/><rect class="cls-1" width="617.49" height="644.18"/></g></g></g></svg>