<?xml version="1.0" encoding="UTF-8"?><svg id="Lager_2" xmlns="http://www.w3.org/2000/svg" viewBox="0 0 617.49 644.18"><defs><style>.cls-1{fill:none;}.cls-2{fill:#a16d4a;}.cls-3{fill:#7e5443;}.cls-4{fill:#3d3535;}.cls-5{fill:#fff;}.cls-6{fill:#9b6846;}.cls-7{fill:#3d3a33;}.cls-8{fill:#715041;}.cls-9{fill:#f2f2f2;}.cls-10{fill:#875b44;}.cls-11{fill:#76bd79;}</style></defs><g id="cowboy"><path d="M148.42,257.33s12.63,15.79,18.02,14.42,3.56-6.47,4.02-7.77,14-20.81,19.51-23.91c5.51-3.1,6.21-8.95,5.63-10.1s2.75-18.71,7.91-24.22,26.63-14.81,34.89-15.49,33.74-.59,46.48,3.09,28.54,10.62,44.72,12.12,46-1.42,49.69-2.56,11.52,3.31,11.52,3.31c0,0,11.64-1.79,22.91,6.76,11.28,8.54,13.1,13.25,13.1,13.25l2.65,7.33s-.46,3.5,2.67.85,8.29-7.29,8.29-7.29l19.08-33.98-36.84-15.52-79.78,2.77-50.9-5.17-45.97.36-50.06,6.14-47.55,39.11-3.5,18.41,3.5,18.1Z"/><path d="M149.59,258.72c-20.27-23.6-23.42-55.88-7.47-83.06,18.11-30.87,50.73-38.18,82.76-23.76.61-18.11,15.83-26.42,27.44-37.05,8.58-7.85,20.52-24.25,32.39-25.39s20.84,5.57,32.88,3.11c7.07-1.44,13.76-5.52,21.26-4.15s14.48,17.68,18.88,23.73c6.3,8.67,14.21,15.7,19.96,24.98,6,9.68,10.57,20.93,15.61,31.08.68,1.37,3.39,9.21,4.15,9.4l10.7-.32c7.77-9.58,15.65-19.53,25.73-26.8,8.36-6.02,24.09-14.18,30.4-1.32,7.22,14.69-2.47,44.16-9.93,57.99-2.08,3.85-12.31,20.43-15.86,21.2-.66.14-1.61-.1-2.33,0,12.42-13.88,24.13-36.25,26.27-54.87.73-6.41,1.2-10.46-.58-16.34-.31-1.03.17-3.33,0-4.67-.43-3.31-3.42-6.93-6.88-7.48-1.7-.27-1.9.41-2.46.48-4.48.55-7.62,1.71-11.49,3.97-11.43,6.66-20.81,18.39-28.78,28.71,1.99,1.45,17.9-3.26,20.83-4.55,6.03-2.66,17.8-14.58,19.18-21.09.39-1.82-.22-3.87.84-5.29,1.98,6.3-.1,10.37-3.61,15.36-20.68,29.41-89.45,37.98-122.75,36-39.4-2.34-78.62-38.28-115.74-48.27-57.57-15.5-92.29,46.92-66.66,94.97.5.94.93,1.33,1.17,1.75.08.15-.09.44,0,.58.23.39.55.53.58.58.9,1.48,1.41,2.17,2.33,3.5,1.28,1.86,2.58,4.57,4.09,6.42l-2.92-1.16v1.75ZM329.36,92.96c-6.77,1.65-13.24,4.35-20.43,3.51-.14.83,1.03.85,1.62.99,1.56.39,3.45.45,5.07.78l11.98-1.2c-1.47,1.71-7.36,3.29-9.64,3.49-18.11,1.64-25.59-16.04-44.06-1.74-.22.17-.38.41-.58.58-.12.1-.47-.1-.58,0-1.28,1.07-1.88,1.92-2.92,2.92-3.83,3.69-7.22,7.75-11.08,11.39-7.22,6.81-15.13,11.95-21.6,19.54-.3.35-.73.59-1.17,1.17-2.94,3.85-3,4.41-4.67,8.76-.06.17.06.41,0,.58l-1.12.04-.63,4.05c-.72,2.1-1.7,3.94-1.09,6.34l33.52,17c13.58-2.78,26.9-6.27,40.52-8.75,25.22-4.6,51.46-6.9,76.46.58,2.6.78,5.33,3.14,8.17,2.63-4.96-10.76-9.41-22.38-16.44-32.01-5.03-6.89-11.77-12.97-16.72-20.05-3.6-5.14-9.33-19.08-14.47-21.14-4.05-1.62-6.49-.37-10.16.53ZM389.91,170.16c-1.33-1.64-16.06-5.78-18.97-6.42-17.93-3.93-36.55-3.66-54.7-1.32-1.76.23-11.84,1.65-12.3,2.29-.84,4.16.92,8.33,1.83,12.33,22.44-2.9,45.11-2.97,67.66-1.19,6.31.5,12.62,1.98,18.97,1.74.35-.33-2.09-6.93-2.49-7.43ZM306.6,179.34c-6.85.82-13.64,2.04-20.43,3.21,8.71,4.96,18.39,8.28,28.01,10.8,27.02,7.07,71.78.3,98.2-9.49,2.56-.95,6.18-2.04,8.03-3.93-5.88,1.11-11.83,1.34-17.83,1.19-13.98-.37-28.03-2.9-42.01-3.52-17.62-.79-36.48-.36-53.98,1.75Z"/><path class="cls-3" d="M251.15,175.26c-2.07,1.89-6.05,1.91-3.53,6.01.54.88,1.62,2.41,2.33,3.5.45.68,1.99.72,1.78,2.16-2.53.11-5.69.29-8.17.58l-4.53-2.18c-49.87-12.26-93.02,16.87-79.38,71.21.2.81,1.26,1.21,1.48,2.02.54,1.92.67,5.34,1.3,7.16-.36-.07-.9.1-1.17,0-1.15-.45-1.29-1.42-1.75-1.75-1.92-4.54-6.85-8.26-9.34-12.26-27.96-44.94,1.23-111.77,58.49-97.31,16.38,4.14,28.09,13.3,42.48,20.85Z"/><path class="cls-8" d="M162.43,265.72c-.63-1.83-.76-5.25-1.3-7.16-.23-.81-1.28-1.21-1.48-2.02-13.65-54.34,29.51-83.47,79.38-71.21l4.53,2.18c-13.97,1.64-36.65,7.94-44.61,20.47-4.94,7.77-4.56,18.04-6.47,26.8-11.1,8.89-18.9,18.83-24.91,31.71-.4.87-.35,2.05-.75,2.75-.66,1.18-3.4-1.65-3.8-2.34-.2-.35-.45-.79-.58-1.17Z"/><path class="cls-2" d="M461.85,152.49c-1.63.79-1.36,3.56-1.75,5.25-.08.34-.41,1.1-.58,1.75-2.57,3.09-4.42,6.85-7,9.92-12.29,14.64-29.61,18.92-46.69,25.1-.57.21-1.23.22-1.75.58l-1.17.58c-12.79,1.9-25.35,5.07-38.23,6.42-13.24,1.39-26.93,1.94-40.11-.16-16.87-2.69-31.65-11.27-48.9-13.85-.03-1.43-.91-1.8-1.93-2.45-5.94-3.8-15.91-6.89-22.58-10.39-14.39-7.55-26.1-16.71-42.48-20.85-57.26-14.46-86.45,52.36-58.49,97.31h-1.75c-.92-1.33-1.44-2.02-2.33-3.5l-.58-.58c-.09-.14.08-.44,0-.58v-1.75s-1.17,0-1.17,0c-25.62-48.05,9.1-110.47,66.66-94.97,37.12,9.99,76.34,45.93,115.74,48.27,33.29,1.98,102.07-6.59,122.75-36,3.51-4.99,5.59-9.06,3.61-15.36-.18-.57-.59-1.1-.58-1.75.55-.07.76-.75,2.46-.48,3.46.55,6.45,4.18,6.88,7.48Z"/><path class="cls-8" d="M453.68,169.42c-.04,9.84-10.03,31.17-16.09,39.65-1.94,2.71-5.29,5.8-7.26,8.49-1.09,1.49-.92,4.24-3.49,4.39-5.38-9.06-15.95-14.24-25.82-17.08-2.03-.58-11.97-2.3-12.42-2.76-1.1-1.11-.22-.89.53-1.23,4.43-2,9.57-3.08,13.78-5.2l1.17-.58.3.58h1.45s0-1.16,0-1.16c17.09-6.18,34.4-10.46,46.69-25.1h1.17Z"/><path class="cls-3" d="M456.6,166.5c.03,1.77,2.09,2.18,2.35,3.83.28,1.77-.92,3.66-.59,5.51,1.76.38.9-.71,1.29-1.32.83-1.32,1.44-1.09,2.79-1.01-2.13,18.61-13.84,40.99-26.27,54.87-.63.7-5,5.4-5.56,4.79-.3-1.34-1.08-1.08-.87-2.2.44-2.38-1.64-6.88-2.9-9.01,2.57-.15,2.4-2.89,3.49-4.39,1.98-2.7,5.32-5.78,7.26-8.49,6.06-8.48,16.05-29.81,16.09-39.65,0-1.81,1.87-1.66,2.92-2.92Z"/><path class="cls-10" d="M275.66,188.1c-7.9-1.18-15.93-1.52-23.93-1.17.21-1.44-1.33-1.47-1.78-2.16-.71-1.09-1.79-2.62-2.33-3.5-2.52-4.1,1.45-4.13,3.53-6.01,6.67,3.5,16.65,6.59,22.58,10.39,1.02.65,1.9,1.02,1.93,2.45Z"/><path class="cls-6" d="M150.17,251.72c2.49,4,7.42,7.72,9.34,12.26-.29-.21-1.33-.19-1.75-.58-1.63-1.99-3.94-3.63-5.25-5.25-1.5-1.85-2.8-4.56-4.09-6.42h1.75Z"/><path class="cls-4" d="M159.51,263.97c.46.33.6,1.3,1.75,1.75v.58c-3.33-.73-1.94-1.02-3.5-2.92.42.4,1.47.38,1.75.58Z"/><path class="cls-6" d="M162.43,265.72c.13.38.38.82.58,1.17-.54-.36-1.14-.45-1.75-.58v-.58c.27.1.81-.07,1.17,0Z"/><path class="cls-6" d="M378.97,163c-25-7.49-51.24-5.18-76.46-.58-.56-10.02-1.35-20.57-3.09-30.47-2.22-12.61-5.86-27.65-17.34-34.9,13.05-1.72,14.42,3.92,25.11,7.28,9.82,3.08,16.21,1.02,24.7-3.87,2.42-1.39,2.44-3.48,6.37-2.7,6.53,1.29,9.91,16.44,13.6,22.02s9.81,9.75,13.98,14.62c6.01,7.02,9.39,15.81,12.38,24.39.46,1.33.75,2.8.75,4.22Z"/><path class="cls-10" d="M282.08,97.04c11.48,7.25,15.12,22.29,17.34,34.9,1.74,9.9,2.54,20.45,3.09,30.47-13.62,2.48-26.94,5.97-40.52,8.75l-33.52-17c-.62-2.4.37-4.24,1.09-6.34.4-1.18,1.23-2.65,1.75-4.09.06-.17-.06-.41,0-.58,1.46-2.9,4.14-5.49,4.67-8.76.44-.57.87-.82,1.17-1.17,1.19.12,1.92-.34,2.88-.91,3.17-1.89,7.31-6.05,10.51-7.58,1.43-.69,3.66-.71,4.02-.94.27-.17.42-1.53,1.01-2.19,2.56-2.88,6.68-5.29,8.92-8.6,2.12-3.14,1.79-5.24,4.65-8.77.22-.27,1.74-1.81.7-1.93,1.04-1,1.64-1.85,2.92-2.92l.3.57.29-.57c.21-.17.36-.41.58-.58,2.86-1.2,5.25-1.37,8.17-1.75ZM282.67,110.47c.03-.62.64-1.49.6-1.99-.02-.19-2.19-.92-1.19-3.26-.76-.15-1.37.25-1.78.84-.25.35-1.45,4.91-1.69,5.9-1.11,4.63-1.29,7.68-4.21,12.13-3.61,5.51-9.85,8.93-15.41,12.05-.79.44-1.69.57-1.42,1.76-1.6.35-3.71.3-5.25.58l-1.98-.62c-.61.14-.28,1.14-.35,1.2-.05.04-1.1.57-1.17.58-.65.15-1.61-.12-2.34,0-.21,4.68,8.59,3.8,11.96,3.49,10.38-.94,20.4-6.39,24.92-15.94.92-1.93,4.92-9.69.48-9.15.38-2.21-.27-5.25,0-7.59h-1.17Z"/><path class="cls-6" d="M306.6,179.34c17.5-2.1,36.36-2.53,53.98-1.75,13.98.62,28.02,3.15,42.01,3.52,6,.16,11.94-.07,17.83-1.19-1.85,1.89-5.46,2.98-8.03,3.93-26.42,9.79-71.18,16.56-98.2,9.49l-5.67-7.46c-1.09-2.01-1.98-4.2-1.92-6.54Z"/><path class="cls-8" d="M389.91,170.16c.4.49,2.84,7.1,2.49,7.43-6.36.24-12.66-1.25-18.97-1.74-22.54-1.77-45.22-1.71-67.66,1.19-.91-4-2.67-8.17-1.83-12.33.46-.64,10.54-2.06,12.3-2.29,18.15-2.34,36.77-2.61,54.7,1.32,2.91.64,17.64,4.78,18.97,6.42Z"/><path class="cls-2" d="M329.36,92.96c3.67-.89,6.11-2.15,10.16-.53,5.13,2.06,10.87,16,14.47,21.14,4.95,7.08,11.69,13.16,16.72,20.05,7.02,9.62,11.48,21.25,16.44,32.01-2.84.5-5.57-1.85-8.17-2.63,0-1.42-.28-2.88-.75-4.22-2.99-8.58-6.37-17.37-12.38-24.39-4.17-4.87-10.44-9.28-13.98-14.62s-7.08-20.73-13.6-22.02c-3.94-.77-3.95,1.31-6.37,2.7-8.49,4.89-14.88,6.95-24.7,3.87-10.7-3.36-12.06-9-25.11-7.28-2.92.38-5.31.55-8.17,1.75,18.47-14.3,25.95,3.38,44.06,1.74,2.28-.21,8.17-1.78,9.64-3.49.26-.31,1.12-3.34,1.75-4.09Z"/><path class="cls-8" d="M452.52,145.49c0,.65.41,1.18.58,1.75-1.06,1.42-.45,3.46-.84,5.29-1.38,6.51-13.15,18.44-19.18,21.09-2.94,1.29-18.85,6-20.83,4.55,7.96-10.31,17.35-22.05,28.78-28.71,3.88-2.26,7.01-3.42,11.49-3.97Z"/><path class="cls-3" d="M306.6,179.34c-.06,2.35.83,4.53,1.92,6.54l5.67,7.46c-9.63-2.52-19.31-5.84-28.01-10.8,6.78-1.16,13.58-2.38,20.43-3.21Z"/><path class="cls-6" d="M269.83,102.3c1.04.12-.47,1.66-.7,1.93-2.86,3.53-2.53,5.63-4.65,8.77-2.23,3.32-6.35,5.72-8.92,8.6-.59.66-.74,2.02-1.01,2.19-.36.23-2.59.26-4.02.94-3.2,1.53-7.34,5.69-10.51,7.58-.96.57-1.68,1.03-2.88.91,6.47-7.6,14.39-12.73,21.6-19.54,3.86-3.64,7.25-7.7,11.08-11.39Z"/><path class="cls-8" d="M462.44,173.5c-1.35-.08-1.97-.31-2.79,1.01-.38.61.47,1.7-1.29,1.32-.33-1.85.87-3.74.59-5.51-.26-1.64-2.32-2.05-2.35-3.83,1.86-2.23,2.23-4.48,2.92-7,.18-.65.51-1.41.58-1.75l1.75-.58c1.78,5.88,1.32,9.93.58,16.34Z"/><path class="cls-10" d="M329.36,92.96c-.63.74-1.49,3.78-1.75,4.09l-11.98,1.2c-1.62-.34-3.51-.39-5.07-.78-.59-.15-1.76-.17-1.62-.99,7.19.84,13.65-1.86,20.43-3.51Z"/><path class="cls-8" d="M461.85,157.16l-1.75.58c.39-1.69.12-4.46,1.75-5.25.17,1.34-.31,3.63,0,4.67Z"/><path class="cls-6" d="M231.3,143.15c1.66-4.35,1.73-4.91,4.67-8.76-.53,3.26-3.21,5.85-4.67,8.76Z"/><path class="cls-6" d="M231.3,143.74c-.52,1.44-1.35,2.9-1.75,4.09l.63-4.05,1.12-.04Z"/><path class="cls-6" d="M144.34,245.3h1.17s0,1.75,0,1.75c-.24-.42-.67-.81-1.17-1.75Z"/><path class="cls-6" d="M146.09,248.21c-.03-.06-.36-.2-.58-.58l.58.58Z"/><path class="cls-2" d="M272.75,99.38c.11-.1.47.1.58,0l-.29.57-.3-.57Z"/><path class="cls-8" d="M456.6,166.5c-1.05,1.26-2.91,1.11-2.92,2.92h-1.17c2.58-3.08,4.44-6.83,7-9.92-.68,2.52-1.06,4.77-2.92,7Z"/><path class="cls-7" d="M405.82,194.52v1.16s-1.46,0-1.46,0l-.3-.58c.53-.36,1.18-.38,1.75-.58Z"/><path class="cls-6" d="M283.83,118.06c4.44-.54.44,7.22-.48,9.15-4.52,9.54-14.54,14.99-24.92,15.94-3.37.3-12.17,1.19-11.96-3.49.73-.12,1.68.15,2.34,0,8.5,2.13,18.73-1.68,25.38-7.02,3.83-3.07,8.81-9.73,9.64-14.58Z"/><path class="cls-8" d="M257.57,137.9c-.26-1.19.64-1.31,1.42-1.76,5.56-3.13,11.79-6.54,15.41-12.05,2.92-4.45,3.1-7.51,4.21-12.13.24-.99,1.44-5.55,1.69-5.9.41-.58,1.02-.99,1.78-.84-1,2.34,1.17,3.06,1.19,3.26.04.5-.57,1.37-.6,1.99-.77,15.07-10.78,24.31-25.1,27.43Z"/><path d="M282.67,110.47h1.17c-.27,2.33.38,5.38,0,7.59-.83,4.85-5.82,11.51-9.64,14.58-6.65,5.33-16.88,9.15-25.38,7.02.06-.01,1.12-.54,1.17-.58.97.44,1.87-.5,2.33-.58,1.54-.29,3.66-.24,5.25-.58,14.32-3.12,24.32-12.36,25.1-27.43Z"/><path class="cls-8" d="M252.32,138.48c-.47.09-1.36,1.02-2.33.58.07-.06-.26-1.06.35-1.2l1.98.62Z"/><rect class="cls-1" width="617.49" height="644.18"/><path class="cls-5" d="M430.61,245.07c0,16.68-18.98,36.26-44.98,36.26s-46.4-18.95-46.4-35.63,20.4-35.63,46.4-35.63,44.98,18.32,44.98,35Z"/><path class="cls-9" d="M388.28,214.36c18.4,2.58,49.78,14.58,33.26,50.44-8.93,11.31-55.72,33.64-82.7-12.04-.9-11.47,5.49-26.42,8.72-28.5,9.15-5.87,22.32-12.49,40.72-9.9Z"/><path class="cls-5" d="M316.5,247.51c0,16.49-20.22,35.86-47.93,35.86s-49.44-18.74-49.44-35.23,21.74-35.23,49.44-35.23,47.93,18.11,47.93,34.61Z"/><path class="cls-9" d="M272.81,217.21c18.66,2.58,48.89,11.49,33.73,51.44-4.86,5.54-57.26,35.8-84.62-9.88-.91-11.47-.38-26.06,9.59-30.65s22.64-13.49,41.3-10.9Z"/><path d="M279.42,205.25c17.01,1.57,36.69,15,40.1,32.49.88,4.51-1.33,3.6-1.94,6.25-1.32,5.77.6,8.48-2.53,15.48-8.18,18.3-31.97,26.2-50.76,25.37s-43.45-12.35-46.15-33.71c-2.21,1.28-10.45,1.45-10.48-2.03-.02-2.28,4.3-1.21,6-1.58,4.05-.89,5.35-8.38,6.89-11.7,16.33-35.19,85.24-33.96,96.61,5.43,2.07-3.5-1.82-10.9-3.88-14.12-10.21-15.95-26.3-19.21-43.67-20.79-.64-.06-3.21-.26-3.27-1.09,4.23.28,8.9-.39,13.07,0ZM264.49,213.55c-54.5,3.24-58.61,61.93-3.58,67.7,19.38,2.03,49.03-6.44,53.02-28.72,4.83-26.99-27.48-40.29-49.44-38.98Z"/><path d="M392.96,204.09c0,1.01-2.54.64-3.22.6-1.81-.1-3.42-.66-5.17-.63-18.5.33-43.35,12.39-46.73,32.3-.32,1.88.67,4.18-.92,5.46-2.63-2.09-1.96-3.58-1.13-6.35,5.1-17,20.91-29.56,38.37-31.9,6.54-.88,12.29-.01,18.8.52Z"/><path d="M307.59,277.27c-10.64,12.73-25.65,16.74-41.81,13.93-.14-1.01,1.32-.55,2.02-.57,10.6-.43,19.13-1.22,28.78-6.07l11.01-7.28Z"/><path d="M391.8,287.72c-.22,1.06-1.14,1.07-2.01,1.18-13.43,1.6-27.27.2-37.43-9.66-.62-.6-1.48-.83-1.21-1.98,11.46,8.9,26.28,12.44,40.65,10.46Z"/><path d="M431.91,237.76c-2.85-11.04-12.63-17.9-12.63-17.9,0,0-7.67-7.86-24.9-10.56-17.23-2.7-32.07,4.21-32.07,4.21,0,0-30.52,14.15-23.47,39.26,7.02,25,32.61,30.61,52.96,28.91,20.35-1.69,32.46-15.71,34.85-18.12s8.11-14.75,5.26-25.79ZM423.86,262.32c-2.23,2.25-13.53,15.32-32.5,16.9s-42.84-3.65-49.39-26.96c-6.58-23.41,21.89-36.61,21.89-36.61,0,0,13.84-6.45,29.91-3.93,16.07,2.52,23.22,9.85,23.22,9.85,0,0,9.12,6.4,11.78,16.7,2.66,10.29-2.67,21.8-4.9,24.05Z"/><ellipse class="cls-11" cx="264.87" cy="246.7" rx="31.75" ry="30.59"/><ellipse cx="264.87" cy="246.7" rx="25.75" ry="24.8"/><circle class="cls-5" cx="278.11" cy="228.74" r="12.15"/><ellipse class="cls-11" cx="385.55" cy="243.64" rx="31.75" ry="29.52"/><ellipse cx="385.55" cy="243.64" rx="25.4" ry="23.61"/><ellipse class="cls-5" cx="398.8" cy="226.3" rx="12.15" ry="11.73"/><ellipse class="cls-11" cx="264.87" cy="246.7" rx="31.75" ry="30.59"/><ellipse cx="264.87" cy="246.7" rx="25.75" ry="24.8"/><circle class="cls-5" cx="278.11" cy="228.74" r="12.15"/><ellipse class="cls-11" cx="385.55" cy="243.64" rx="31.75" ry="29.52"/><ellipse cx="385.55" cy="243.64" rx="25.4" ry="23.61"/><ellipse class="cls-5" cx="398.8" cy="226.3" rx="12.15" ry="11.73"/></g></svg>