<?xml version="1.0" encoding="UTF-8"?><svg id="Lager_2" xmlns="http://www.w3.org/2000/svg" viewBox="0 0 617.49 644.18"><defs><style>.cls-1{fill:none;}.cls-2{fill:#fff;}.cls-3{fill:#f2f2f2;}.cls-4{fill:#f7e26c;}.cls-5{fill:#76bd79;}</style></defs><g id="halo"><path d="M282.92,111.12l35.7-.2c16.81.52,65.09,3.59,77.05,14.97,9.16,8.71-1.64,16.01-9.54,19.13-26.89,10.64-78.89,10.6-108.19,9.57-15.34-.54-61.94-4.38-72.6-14.64-4.85-4.67-4.17-10.53.92-14.66,13.2-10.71,59.15-13.53,76.66-14.17ZM285.31,114.71c-20.13.66-44.68,2.08-63.94,7.76-6.4,1.89-22.33,7.34-12.7,15.35,12.7,10.57,64.47,13.38,81.82,13.78,22.02.51,82.58-1.28,100.3-12.68,13.94-8.97-7.6-15.88-14.87-17.78-26.91-7.01-62.73-7.35-90.61-6.44Z"/><path class="cls-4" d="M285.31,114.71c27.87-.91,63.7-.57,90.61,6.44,7.27,1.89,28.82,8.81,14.87,17.78-17.73,11.4-78.29,13.19-100.3,12.68-17.35-.4-69.12-3.21-81.82-13.78-9.63-8.01,6.3-13.46,12.7-15.35,19.26-5.69,43.81-7.1,63.94-7.76ZM223.47,129.64c-3.76,4.54,5.3,6.67,8.06,7.42,31.15,8.53,100.4,7.65,132.3,1.19,3.14-.64,18.51-3.3,13.35-8.82-3.37-3.61-24.29-6.52-29.91-7.13-26.6-2.91-58.76-2.92-85.44-.6-6.57.57-34.79,3.62-38.36,7.93Z"/><path d="M223.47,129.64c3.57-4.31,31.79-7.36,38.36-7.93,26.68-2.32,58.84-2.31,85.44.6,5.62.61,26.54,3.52,29.91,7.13,5.16,5.52-10.21,8.18-13.35,8.82-31.91,6.46-101.15,7.34-132.3-1.19-2.76-.76-11.82-2.88-8.06-7.42ZM374.46,131.27c-10.07-3.48-20.77-4.97-31.37-5.98-30.12-2.88-64.29-2.7-94.32,1.28-6.23.82-15.05,1.89-20.7,4.42-.64.29-1.54.01-1.2,1.16.65,2.19,31.98,5.96,36.16,6.27,34.94,2.6,71.92,1.71,106.32-4.81l5.11-2.35Z"/><rect class="cls-1" width="617.49" height="644.18"/><path class="cls-2" d="M430.61,245.07c0,16.68-18.98,36.26-44.98,36.26s-46.4-18.95-46.4-35.63,20.4-35.63,46.4-35.63,44.98,18.32,44.98,35Z"/><path class="cls-3" d="M388.28,214.36c18.4,2.58,49.78,14.58,33.26,50.44-8.93,11.31-55.72,33.64-82.7-12.04-.9-11.47,5.49-26.42,8.72-28.5,9.15-5.87,22.32-12.49,40.72-9.9Z"/><path class="cls-2" d="M316.5,247.51c0,16.49-20.22,35.86-47.93,35.86s-49.44-18.74-49.44-35.23,21.74-35.23,49.44-35.23,47.93,18.11,47.93,34.61Z"/><path class="cls-3" d="M272.81,217.21c18.66,2.58,48.89,11.49,33.73,51.44-4.86,5.54-57.26,35.8-84.62-9.88-.91-11.47-.38-26.06,9.59-30.65s22.64-13.49,41.3-10.9Z"/><path d="M279.42,205.25c17.01,1.57,36.69,15,40.1,32.49.88,4.51-1.33,3.6-1.94,6.25-1.32,5.77.6,8.48-2.53,15.48-8.18,18.3-31.97,26.2-50.76,25.37s-43.45-12.35-46.15-33.71c-2.21,1.28-10.45,1.45-10.48-2.03-.02-2.28,4.3-1.21,6-1.58,4.05-.89,5.35-8.38,6.89-11.7,16.33-35.19,85.24-33.96,96.61,5.43,2.07-3.5-1.82-10.9-3.88-14.12-10.21-15.95-26.3-19.21-43.67-20.79-.64-.06-3.21-.26-3.27-1.09,4.23.28,8.9-.39,13.07,0ZM264.49,213.55c-54.5,3.24-58.61,61.93-3.58,67.7,19.38,2.03,49.03-6.44,53.02-28.72,4.83-26.99-27.48-40.29-49.44-38.98Z"/><path d="M392.96,204.09c0,1.01-2.54.64-3.22.6-1.81-.1-3.42-.66-5.17-.63-18.5.33-43.35,12.39-46.73,32.3-.32,1.88.67,4.18-.92,5.46-2.63-2.09-1.96-3.58-1.13-6.35,5.1-17,20.91-29.56,38.37-31.9,6.54-.88,12.29-.01,18.8.52Z"/><path d="M307.59,277.27c-10.64,12.73-25.65,16.74-41.81,13.93-.14-1.01,1.32-.55,2.02-.57,10.6-.43,19.13-1.22,28.78-6.07l11.01-7.28Z"/><path d="M391.8,287.72c-.22,1.06-1.14,1.07-2.01,1.18-13.43,1.6-27.27.2-37.43-9.66-.62-.6-1.48-.83-1.21-1.98,11.46,8.9,26.28,12.44,40.65,10.46Z"/><path d="M431.91,237.76c-2.85-11.04-12.63-17.9-12.63-17.9,0,0-7.67-7.86-24.9-10.56-17.23-2.7-32.07,4.21-32.07,4.21,0,0-30.52,14.15-23.47,39.26,7.02,25,32.61,30.61,52.96,28.91,20.35-1.69,32.46-15.71,34.85-18.12s8.11-14.75,5.26-25.79ZM423.86,262.32c-2.23,2.25-13.53,15.32-32.5,16.9s-42.84-3.65-49.39-26.96c-6.58-23.41,21.89-36.61,21.89-36.61,0,0,13.84-6.45,29.91-3.93,16.07,2.52,23.22,9.85,23.22,9.85,0,0,9.12,6.4,11.78,16.7,2.66,10.29-2.67,21.8-4.9,24.05Z"/><ellipse class="cls-5" cx="264.87" cy="246.7" rx="31.75" ry="30.59"/><ellipse cx="264.87" cy="246.7" rx="25.75" ry="24.8"/><circle class="cls-2" cx="278.11" cy="228.74" r="12.15"/><ellipse class="cls-5" cx="385.55" cy="243.64" rx="31.75" ry="29.52"/><ellipse cx="385.55" cy="243.64" rx="25.4" ry="23.61"/><ellipse class="cls-2" cx="398.8" cy="226.3" rx="12.15" ry="11.73"/><ellipse class="cls-5" cx="264.87" cy="246.7" rx="31.75" ry="30.59"/><ellipse cx="264.87" cy="246.7" rx="25.75" ry="24.8"/><circle class="cls-2" cx="278.11" cy="228.74" r="12.15"/><ellipse class="cls-5" cx="385.55" cy="243.64" rx="31.75" ry="29.52"/><ellipse cx="385.55" cy="243.64" rx="25.4" ry="23.61"/><ellipse class="cls-2" cx="398.8" cy="226.3" rx="12.15" ry="11.73"/></g></svg>