<?xml version="1.0" encoding="UTF-8"?><svg id="Lager_2" xmlns="http://www.w3.org/2000/svg" viewBox="0 0 617.49 644.18"><defs><style>.cls-1{fill:none;}.cls-2{fill:#37383b;}.cls-3{fill:#fff;}.cls-4{fill:#f2f2f2;}.cls-5{fill:#675f67;}.cls-6{fill:#434247;}.cls-7{fill:#76bd79;}</style></defs><g id="eyepatch"><path d="M217.73,247.34s.46-12.2,2.36-15.05,8.55-16.43,35.17-17.38c2.72-.14,40.6-.54,53.43,14.26,2.38-2.17,69.97-50.5,76.71-46.14,6.73,3.96-4.75,9.51-4.75,9.51l-67.6,41.5s5.44,7.97,3.08,17.75c-1.27,3.99-6.88,15.4-15.58,21.56-8.7,6.16-19.39,11.41-33.52,11.41-11.41-1.63-31.7-5.44-46.2-30.44-9.42.18-48.19,2.54-48.19,2.54,0,0,5.8-9.42,6.52-9.42s38.57-.09,38.57-.09Z"/><path class="cls-2" d="M180.59,249.73l-3.88,5.25,10.33-1.44,33.56-1.19h2.03s15.03,28.21,41.75,29.51c9.6,0,25.84,1.3,44.31-20.24,3.94-6.23,8.41-13.2,4.2-22.83-1.04-2.59-2.4-4.63-2.4-4.63,0,0,2.36-2.62,4.09-3.3s71.06-43.46,71.06-43.46c0,0,.49-4.16-2.2-3.67-2.45.61-13.71,6.73-13.71,6.73,0,0-43.83,26.69-59.99,39.79-1.35.12-2.57,1.1-4.53-1.22-2.69-2.08-19.59-11.02-30.73-11.02-2.45-.12-22.33-3.34-35.75,2.08-5.02,2.57-21.18,8.69-18.49,26.94.12,1.22.12,2.57.12,2.57,0,0-31.18-.73-39.77.12Z"/><path class="cls-6" d="M241.89,221.73s-18.52,15.75,3.64,45.19c11.77,10.73,19.86,15.87,26.49,14.96,3.68-.44,21.47-5.79,27.35-13.4,4.85-6.75,18.2-23.72,2.08-37.22-9.18-5.71-21.15-12.89-38.08-14.19-17.8,1.05-21.48,4.67-21.48,4.67Z"/><path class="cls-5" d="M263.37,217.07s29.63,6.69,38.08,14.19c9.39,8.34,13.7,35.65-21.36,48.43,8.49-1.94,23.68-8.62,28.61-18.05,6.27-8.8,8.47-18.26,1.81-27.46-6.66-9.21-31.4-17.59-47.14-17.1Z"/><path class="cls-3" d="M430.61,245.07c0,16.68-18.98,36.26-44.98,36.26s-46.4-18.95-46.4-35.63,20.4-35.63,46.4-35.63,44.98,18.32,44.98,35Z"/><path class="cls-4" d="M388.28,214.36c18.4,2.58,49.78,14.58,33.26,50.44-8.93,11.31-55.72,33.64-82.7-12.04-.9-11.47,5.49-26.42,8.72-28.5,9.15-5.87,22.32-12.49,40.72-9.9Z"/><path d="M392.96,204.09c0,1.01-2.54.64-3.22.6-1.81-.1-3.42-.66-5.17-.63-18.5.33-43.35,12.39-46.73,32.3-.32,1.88.67,4.18-.92,5.46-2.63-2.09-1.96-3.58-1.13-6.35,5.1-17,20.91-29.56,38.37-31.9,6.54-.88,12.29-.01,18.8.52Z"/><path d="M307.59,277.27c-10.64,12.73-25.65,16.74-41.81,13.93-.14-1.01,1.32-.55,2.02-.57,10.6-.43,19.13-1.22,28.78-6.07l11.01-7.28Z"/><path d="M391.8,287.72c-.22,1.06-1.14,1.07-2.01,1.18-13.43,1.6-27.27.2-37.43-9.66-.62-.6-1.48-.83-1.21-1.98,11.46,8.9,26.28,12.44,40.65,10.46Z"/><path d="M431.91,237.76c-2.85-11.04-12.63-17.9-12.63-17.9,0,0-7.67-7.86-24.9-10.56-17.23-2.7-32.07,4.21-32.07,4.21,0,0-30.52,14.15-23.47,39.26,7.02,25,32.61,30.61,52.96,28.91,20.35-1.69,32.46-15.71,34.85-18.12s8.11-14.75,5.26-25.79ZM423.86,262.32c-2.23,2.25-13.53,15.32-32.5,16.9s-42.84-3.65-49.39-26.96c-6.58-23.41,21.89-36.61,21.89-36.61,0,0,13.84-6.45,29.91-3.93,16.07,2.52,23.22,9.85,23.22,9.85,0,0,9.12,6.4,11.78,16.7,2.66,10.29-2.67,21.8-4.9,24.05Z"/><ellipse class="cls-7" cx="385.55" cy="243.64" rx="31.75" ry="29.52"/><ellipse cx="385.55" cy="243.64" rx="25.4" ry="23.61"/><ellipse class="cls-3" cx="398.8" cy="226.3" rx="12.15" ry="11.73"/><rect class="cls-1" width="617.49" height="644.18"/><rect class="cls-1" width="617.49" height="644.18"/></g></svg>