<?xml version="1.0" encoding="UTF-8"?><svg id="Lager_2" xmlns="http://www.w3.org/2000/svg" viewBox="0 0 617.49 644.18"><defs><style>.cls-1{fill:none;}.cls-2{fill:#222323;}.cls-3{opacity:.04;}.cls-3,.cls-4,.cls-5,.cls-6,.cls-7{fill:#fff;}.cls-4{opacity:.07;}.cls-5{opacity:.11;}.cls-6{opacity:.13;}.cls-8{fill:#1e1e1e;}.cls-9{fill:#020202;}.cls-10{fill:#f2f2f2;}.cls-11{fill:#c02f18;}.cls-12{fill:#191919;}.cls-13{fill:#76bd79;}</style></defs><g id="tophar"><path d="M193.63,78.27s-1.16-6.92,13.05-12.51c2.69-1.25,18.19-8.02,45.91-13.07,27.72-5.05,58.54-4.75,65.08-4.27s23.06,1.04,32.12,6.23c3.35,3.78,4.65,6.12,4.95,10.29.58,7.27,3.92,47.61,5.61,55.84,1.05,5.45,5.55,20.03,5.55,20.03,0,0-.55,4.13,3.44,4.15s22.63-2.23,29.18,0,19.8,4.82,11.99,21.81c-3.94,5.03-11.97,15.86-39.72,23.38-26.54,5.81-52.62,11.16-71.62,11.42-19.01.26-46.89,2.26-85.18-11.43-3.33,1.97-10.9,8.26-12.68,12.52-2.08,1.14-9.2.43-12.51-.96s-24.79-7.17-19.65-25.46c1.87-6.24,8.38-7.73,8.38-7.73,0,0,8.85-2.92,20.89,3.58,1.66.62,6.95.77,8.36.3-.42-3.05-2.09-21.86-1.47-26.48-.52-6.21-5.04-36.98-7.72-42.92-1.17-5.28-4.27-23.64-3.93-24.7Z"/><path class="cls-12" d="M197.71,201.35s-17.6-2.76-22.64-9.22c-1.45-1.54-10.01-11.3-1.45-19.18,2.02-1.47,5.44-4.53,17.36-1.72,2.81,1.16,8.87,3.79,14.49,5.38s10.83,5.34,28.21,6.15c14.34,1.29,39.95,6.35,97.84-8.42,6.78-1.5,31.04-7.29,36.42-17.81,5.38-10.52-.11-8.99,1.34-9.58,4.69.16,20.85-2.29,34.5,1.12,3.49,2.1,9.83,8.21,4.69,16.29s-12.31,15.68-34.13,22.31c-10.26,2.82-55.23,10.26-69.47,11.23-14.72.97-41.86,3.07-58.99-1.29-11.47-2.91-26.17-7.08-31.99-9.6-2.42,2.01-12.04,9.73-13.6,13.55-1.17.84-1.81.93-2.58.8Z"/><path class="cls-8" d="M207.44,147.75s-4.29-36.61-5.24-39.57c-.71-3.78-6.87-28.04-6.57-29.91,1.72.27,148.02-20.93,155.21-19.4,1.18,5.78,6.49,67.52,8.12,68.07-2.02,2-4.22,2.26-4.22,2.26l-10.17,3.97s-47.6,11.74-57.85,12.7c-9.01.97-69.81,2.99-71.93,1.89-4.07.14-7.34,0-7.34,0Z"/><path class="cls-11" d="M208.14,149.83v17.71s-.12,8.94,7.64,10.52c7.76,1.58,34.89,5.92,70.17,2.22s65.94-14.43,73.01-18.64c2.43-1.43,8.12-4.79,6.2-16.24-2.84-7.75-4.86-14.94-4.86-14.94,0,0-1.55-.63-4.97.88s-47.02,18.02-90.5,18.6c-10.83.58-51.31.2-56.68-.11Z"/><path class="cls-9" d="M211.61,187.61s-22.84-16.01-35.13-8.69c-1.37,1.86-2.86,12.07,7.57,16.15s14.35,4.74,14.35,4.74c0,0,7.88-9.72,13.22-12.2Z"/><path class="cls-5" d="M386.7,146.95s-1.57-.31-2.18,1.18,9.64-.62,11.86,2.97c1.36,3.21-.24,8.37-4.81,10.55-4.7,2.18-29.53,6.18-34.04,5.11-4.84,1.09-45.91,15.11-62.47,15.73-1.11,1.24-4.51,4.72-2.62,6.13-4.3-.08-49.54-.7-57.13-3.97-1.09-.08-3.21,2.39,1.27,2.71s32.92,4.63,38.97,4.52,6.78,1.11,6.23,1.92-3.27,2.66-.18,3.77,5.56,2.04,7.85,1.6,80.44-8.63,90.17-14.32c9.03-3.54,21.64-7.22,29.84-22.27,1-3.24,3.55-18.52-22.74-15.62Z"/><path class="cls-6" d="M298.63,188.74s-11.24-.08-9.2,2.08c2.53,1.05,9.73.69,9.73.69,0,0,56.28-5.95,73.35-13.73,1.01-.25,2.48-.2,1.68,2.62s-2.69,7.44.15,6.26,26.21-6.32,34.13-22.31c.96-1.79,8.3-19.32-19.88-17.77-1.89.37-7.44,1.27-1.25,2.01s13.43.35,6.91,11.13c-2.44,3.73-5.66,7.24-17.64,12.34-11.99,5.1-50.25,15.71-68.07,15.29-5.46.32-9.91,1.39-9.91,1.39Z"/><path class="cls-2" d="M350.84,58.86s-11.44-15.45-86.02-5.6c-74.58,9.85-69.19,25-69.19,25,0,0,3.4,1.35,9.65.71s55.84,5.14,130.92-16.77c5.95-.92,12.58-1.74,14.64-3.34Z"/><path class="cls-3" d="M275.53,74.1c-10.71,2.71-65.95,6.91-79.9,4.17.36-1.46-.87-3.64,7.3-8.34,8.17-4.7,35.8-13.42,52.45-15.29.98,1.43,4.76,3.92,8.38,3.6.24,1.93.48,6.19,5.14,5.71,2.81,1.05,16.61,7.63,6.63,10.15Z"/><path class="cls-4" d="M237.23,180.9s-15.55-58.67-6.77-99.86c8.1-.48,5.67.63,24.38-1.82-1.58,11.89,1.19,101.92,15.9,102.43-9.91.08-16.04.77-33.51-.74Z"/><path class="cls-4" d="M330.94,64.15s22.61,59.6,16.9,101.33c-8.66,3.85-1.96.89-18.87,5.77,6.48-9.83-9.65-87.9-17.04-102.09,4.19-.22,8.42-1.44,10.76-2.32s6.62-2.07,8.24-2.68Z"/><rect class="cls-1" width="617.49" height="644.18"/><path class="cls-7" d="M430.61,245.07c0,16.68-18.98,36.26-44.98,36.26s-46.4-18.95-46.4-35.63,20.4-35.63,46.4-35.63,44.98,18.32,44.98,35Z"/><path class="cls-10" d="M388.28,214.36c18.4,2.58,49.78,14.58,33.26,50.44-8.93,11.31-55.72,33.64-82.7-12.04-.9-11.47,5.49-26.42,8.72-28.5,9.15-5.87,22.32-12.49,40.72-9.9Z"/><path class="cls-7" d="M316.5,247.51c0,16.49-20.22,35.86-47.93,35.86s-49.44-18.74-49.44-35.23,21.74-35.23,49.44-35.23,47.93,18.11,47.93,34.61Z"/><path class="cls-10" d="M272.81,217.21c18.66,2.58,48.89,11.49,33.73,51.44-4.86,5.54-57.26,35.8-84.62-9.88-.91-11.47-.38-26.06,9.59-30.65s22.64-13.49,41.3-10.9Z"/><path d="M279.42,205.25c17.01,1.57,36.69,15,40.1,32.49.88,4.51-1.33,3.6-1.94,6.25-1.32,5.77.6,8.48-2.53,15.48-8.18,18.3-31.97,26.2-50.76,25.37s-43.45-12.35-46.15-33.71c-2.21,1.28-10.45,1.45-10.48-2.03-.02-2.28,4.3-1.21,6-1.58,4.05-.89,5.35-8.38,6.89-11.7,16.33-35.19,85.24-33.96,96.61,5.43,2.07-3.5-1.82-10.9-3.88-14.12-10.21-15.95-26.3-19.21-43.67-20.79-.64-.06-3.21-.26-3.27-1.09,4.23.28,8.9-.39,13.07,0ZM264.49,213.55c-54.5,3.24-58.61,61.93-3.58,67.7,19.38,2.03,49.03-6.44,53.02-28.72,4.83-26.99-27.48-40.29-49.44-38.98Z"/><path d="M392.96,204.09c0,1.01-2.54.64-3.22.6-1.81-.1-3.42-.66-5.17-.63-18.5.33-43.35,12.39-46.73,32.3-.32,1.88.67,4.18-.92,5.46-2.63-2.09-1.96-3.58-1.13-6.35,5.1-17,20.91-29.56,38.37-31.9,6.54-.88,12.29-.01,18.8.52Z"/><path d="M307.59,277.27c-10.64,12.73-25.65,16.74-41.81,13.93-.14-1.01,1.32-.55,2.02-.57,10.6-.43,19.13-1.22,28.78-6.07l11.01-7.28Z"/><path d="M391.8,287.72c-.22,1.06-1.14,1.07-2.01,1.18-13.43,1.6-27.27.2-37.43-9.66-.62-.6-1.48-.83-1.21-1.98,11.46,8.9,26.28,12.44,40.65,10.46Z"/><path d="M431.91,237.76c-2.85-11.04-12.63-17.9-12.63-17.9,0,0-7.67-7.86-24.9-10.56-17.23-2.7-32.07,4.21-32.07,4.21,0,0-30.52,14.15-23.47,39.26,7.02,25,32.61,30.61,52.96,28.91,20.35-1.69,32.46-15.71,34.85-18.12s8.11-14.75,5.26-25.79ZM423.86,262.32c-2.23,2.25-13.53,15.32-32.5,16.9s-42.84-3.65-49.39-26.96c-6.58-23.41,21.89-36.61,21.89-36.61,0,0,13.84-6.45,29.91-3.93,16.07,2.52,23.22,9.85,23.22,9.85,0,0,9.12,6.4,11.78,16.7,2.66,10.29-2.67,21.8-4.9,24.05Z"/><ellipse class="cls-13" cx="264.87" cy="246.7" rx="31.75" ry="30.59"/><ellipse cx="264.87" cy="246.7" rx="25.75" ry="24.8"/><circle class="cls-7" cx="278.11" cy="228.74" r="12.15"/><ellipse class="cls-13" cx="385.55" cy="243.64" rx="31.75" ry="29.52"/><ellipse cx="385.55" cy="243.64" rx="25.4" ry="23.61"/><ellipse class="cls-7" cx="398.8" cy="226.3" rx="12.15" ry="11.73"/><ellipse class="cls-13" cx="264.87" cy="246.7" rx="31.75" ry="30.59"/><ellipse cx="264.87" cy="246.7" rx="25.75" ry="24.8"/><circle class="cls-7" cx="278.11" cy="228.74" r="12.15"/><ellipse class="cls-13" cx="385.55" cy="243.64" rx="31.75" ry="29.52"/><ellipse cx="385.55" cy="243.64" rx="25.4" ry="23.61"/><ellipse class="cls-7" cx="398.8" cy="226.3" rx="12.15" ry="11.73"/></g></svg>