<?xml version="1.0" encoding="UTF-8"?><svg xmlns="http://www.w3.org/2000/svg" viewBox="0 0 617.49 644.18"><defs><style>.cls-1{fill:none;}.cls-2{fill:#e8ac53;}.cls-3{fill:#f2be57;}.cls-4{fill:#f0e9e9;}.cls-5{fill:#cf6583;}.cls-6{fill:#366e35;}.cls-7{fill:#564120;}.cls-8{opacity:.07;}.cls-8,.cls-9,.cls-10{fill:#fff;}.cls-9{opacity:.15;}.cls-11{fill:#d4cd94;}.cls-12{fill:#efbec4;}.cls-13{isolation:isolate;}.cls-14{fill:#cd7663;}.cls-15{fill:#fadfe5;}.cls-16{fill:#dd9b3f;}.cls-17{fill:#ccc;mix-blend-mode:multiply;opacity:.34;}.cls-18{fill:#f6cd6d;}.cls-19{fill:#f8dc87;}.cls-20{fill:#6fb9de;}.cls-21{fill:#8aaa56;}.cls-22{fill:#f3e8b3;}.cls-23{fill:#efeeed;}.cls-24{fill:#cd8a38;}.cls-25{fill:#e8e7e6;}.cls-26{fill:#e44d69;}</style></defs><g class="cls-13"><g id="Lager_2"><g id="crown"><path d="M409.4,209.57c-2.7-.96-5.62-4.25-13.66-7.7-5.74-2.46-26.98-6.43-37.17-6.71-10.19-.28-53.71,3.09-62.38,2.71-8.67-.38-28.97,4.44-45.88,5.97-16.91,1.52-20.7,4.09-28.96,6.76s-17.52,9.5-19.45,10.74-9.11,11.09-9.75,13.1-3.48,2.71-3.48,2.71c.03-1.96-3.93-5.82-4.82-8.31-2.67-7.45,2.25-13.35.02-20.13-.27-.83-3.29-2.02-4.37-3.47-1.69-2.26-3.62-10.09-3.5-12.91.11-2.59,2.18-5.99,2.26-7.61.17-3.46-6.79-21.1-9.34-23.59-.93-.91-3.11-.98-4.81-2.22-8.82-6.43-3.38-22.76,7.01-24.1,8.95-1.16,13.89,5.46,13.11,13.89-.2,2.12-1.8,4.16-.81,6.13,2.32,4.59,8.4,9.36,12.8,11.97.75-4.28,3.08-8.76,7.23-10.61,1.86-.83,5.43-.91,6.38-1.84,1.28-1.25,3.17-18.46,2.7-20.69-11.52-5.22-11.64-21.59,1.25-25.27,8.71-2.49,18.29,3.56,17.79,13.12-.13,2.51-2.83,6.13-2.79,6.82.08,1.32,5.08,9.66,6.22,11.03,4.51,5.43,13.94,3.93,20.35,4.13l-.63-6.84c-3.9-.88-6.36-2.81-7.65-6.64-4.99-14.82,17-21.97,21.96-8.55,1.77,4.8-1.02,8.47-.48,9.87.42,1.08,5.29,5.03,6.5,4.72,1.5-.38,8.56-7.18,9.97-8.77,5.94-6.69,9.24-13.35,9.62-22.51-8.53-6.27-12.92-14.44-5.46-23.95,15.31-19.53,42.26,6.65,22.47,22.2,4.81,11.45,9.61,24.33,21.47,30.11l3.22-3.77c-12.45-20.59,22.04-24.58,20.47-5.56-.57,6.92-8.5,7.39-5.31,15.48.85.87,11.81-.85,13.45-1.79,1.8-1.03,8.73-15.13,8.5-16.56-.05-.3-2.46-3.56-3.05-5.22-1.15-3.2.53-5.45.8-8.91,2.82-3.09,3.15-5.04,6.98-6.16,10.89-3.18,20.64,7.01,15.98,17.66-1.39,3.18-3.85,3.82-5.42,6.49l3.59,20.26c5.72,1.55,10.81,4.76,11.52,11.1l10.52-12.89.04-1.42c-9.18-13.07,4.78-26.11,17.37-15.76,5.87,4.82,6.69,12.89,1.3,18.44-1.73,1.78-4.51,2.29-5.98,4.4-2.27,3.26-5.81,14.62-6.13,18.62s.52,8.47.03,14.16c-.58,6.74-5.02,9.43-6.38,12.27-2.24,4.68,2.55,10.06,3.81,13.71,1.14,3.28-.18,6.3,0,7.45.16,1.04-4.04-1.1-3.12-.54,0,0-3.18-4.04-5.88-5ZM296.24,100.13c.38.17.76,1.06,1.81,1.3,3.79.87,6.79.06,10.03-1.65,5.6-2.96,7.6-7.81,5.27-13.76-1.02-2.6-1.62-4.01-4.01-5.68s-2.32-.88-4.13-1.51c-.56-.19-1.01-1.41-2.74-1.47-11.61-.44-17.84,15.23-8.65,22.05,1.05.78,1.85.47,2.42.73ZM373.07,113.49c.46,4.11,6.05,8.82,10.24,6.56.23-.01.47.04.7.02,7.65-.56,10.44-9.6,4.59-14.47-6.68-5.57-16.58-1.41-15.53,7.9ZM298.19,105.05c-1.02,4.86-2.04,9.77-3.55,14.5-1.44,4.51-3.49,8.86-5.6,13.05-.92-.08-1.87.03-2.78-.08-.08-.01-.77-1.12-1.29-.71-.4.32-1.86,2.81-3.35,4.03-2.81,2.28-10.6,7.44-13.79,8.66-1.61.62-7.75,2.04-9.64,2.33-6.15.94-12.11-.04-18.24-.35-.72.58,1.46,2.74,1.97,3.2.4.37,3.82,3.07,4.1,3.23l-.74,1.37c-9.13-5.63-15.97-14.81-19.46-24.91-.49-.38-4.43,2.23-5.63,2.62-.35.11-.99-.14-1.39-.04-.56.14-1.28-.21-2.08.28-2.44,1.5-1.4,9.53-1.78,12.47-.61,4.64-1.7,9.73-3.19,14.18l-2.78-.08c-.67-.02-1.46-.13-2.09-.06l-.33-.69-.37.67c-3.48.79-8.46,7.02-5.17,10.28l-.15,1.96-1.3.08c-.92.01-1.86-.04-2.78-.08-3.52-1.02-6.77-3.54-9.57-5.84-1.44-1.19-3.51-2.98-4.74-4.31-.85-.92-2.9-4.77-3.68-4.86-1.56,1.21-3.46,1.59-5.1,2.35-.7.32-1.07-.24-.92,1.14,1.87,6.28,6.04,11.66,11.38,15.32l-1.41.65-.7-.02c.04-.69-.08-1.02-.65-1.41s-1.4-.71-2.06-.42c1.95,3.15,1.48,8.32,2.97,11.39.96,1.99,3.13,1.89,4.88,5.19,1.24,2.34,2.56,6.9,2.53,9.5-.04,3.17-1.57,4.87-1.68,9.31,0,.16-1.08,1.13-.82,2.3.1.45,3.41,1.75,2.01,4.69-3.11,5.16-2.61,11.45,1.27,16.02,3.66-5.64,6.8-10.13,11.89-14.6,1.99-1.74,5.39-3.24,7.11-5,9.54-4.77,19.65-8.37,30.07-10.75,9.87-2.26,28.65-3.07,36.5-6.09,4.44.05,8.84-.63,13.25-1.01,2.57-.22,5.1-.31,7.67-.47,1.31-.08,3.44-.24,3.59-.24,1.96-.11,3.18-.07,5.15-.17.89-.05,1.85-.67,2.08-.66l15.29.44c2.3.07,7.96-.98,11.51-1.06.46-.01.93.05,1.39.04.69-.01,1.39.08,2.09.06,13.78-.31,26.09-.45,39.82,1.97,13.81,2.43,27.64,3.26,34.9,16.26,1.52.36,1.31-.1,1.67-.97,2.04-4.97,1.59-3.54-.84-8.1-.82-1.54-2.75-4.65-4.01-5.68.14-.26.68-.53.72-.67l2.73,1.47c.56-4.02.08-6.95-1.77-10.49.47-3.39,1.4-7.32,1.69-10.38.24-2.85,3.06-3.77,3.9-6.26s.57-5.58,1.39-8.19l-7.09,4.66.02-.7c.52-.31,8.11-8.03,8.42-8.63,1.51-2.99,2.59-7.94,3.98-11.18-1.63.28-2.74-.34-4.15-.82-.09-.03-.27-.84-.92-.69-3.43,3.64-5.51,7.8-9.14,11.53-1.34,1.37-4.09,3.54-5.7,4.7-9.18,3.27-12.23-6.4-14.39-13.15-.17-.54-.7-.96-1.19-1.21l-2.13-22.33-8.97-.93c-.67,1.73-1.3,2.89-1.58,4.81l-.7-.02-1.39-.04-.08,2.78c-.1.18.08.51-.02.7-.06.11-.51.29-.72.67-.1.18.08.51-.02.7-2.26-.53-1.69,2.16-2.19,3.41-2.76,6.93-5.16,8.8-10.81,12.9l.06-2.09c1.19-1.17,1.81-3.16,2.91-4.44-.14-.68-1.44-.35-2.07-.4-4.01-.32-8.11-.13-12.14-.31l-.31-2.14.02-.7c1.38-1.29.43-4.14-.53-5.58,0-.23,0-.47.02-.7.06-.55.53-2.34.78-2.76.11-.19.51-.42.72-.67,3.12-3.85,7.86-6.45,1.73-11.77,0-.23.05-.48.02-.7-.65-4.11-10.69-4.32-11.82-.34-.08.05-1.23,1.14-1.43,1.35-1.64,1.73-2.45,3.31-.86,5.54.02.46-.12,1.01-.04,1.39.11.53.66.67.67.72.06.21.46.78.65,1.41.92,2.94.58,4.23-.9,6.93-.78,1.08-.98,1.53-1.47,2.74-.12.3.12.94-.06,1.37l-2.07-.04c-.46-.25-.91-.49-1.37-.74s-.95-.49-1.37-.74c-1.88-1.09-4.37-3.05-6.17-2.96-.69.03-1.39-.08-2.09-.06-6.07-9.15-11.36-18.71-14.42-29.35l-9.81,1.52ZM212.65,128.3c.22.05.47-.02.7.02.75,1.07,3.55.99,4.84.84.76-.09,1.14-.58,1.41-.65,4.49-1.15,7.58-3.59,7.88-8.59.06-1.05-.6-1.45-.62-1.63-.25-2.02.11-3.9-1.97-5.26-.7-.46-1.65-.23-2.04-.42-.16-.08-.27-1.12-1.68-1.43-1.5-.33-4.54-.27-6.11-.03-8.4,1.29-10.86,15.39-2.4,17.16ZM261.24,131.8c5.81-2.46,7.74-11.42,1.1-13.88-11.53-4.27-18.04,10.91-8.58,14.51,3.39,1.29,4.48.64,7.48-.63ZM414.91,133.49c-.05,7.45,7.08,11.76,13.68,8.05,2.47-1.39,2.69-1.66,3.62-4.76.75-2.5.98-2.9-.19-5.57-1.18-2.71-1.63-1.81-3.05-2.87-.37-.28-.54-1.13-1.51-1.58-5.64-2.63-12.5-.04-12.55,6.74ZM270.74,139.72c.76-.98-5.31-6.2-5.82-6.31-1.23-.28-4.51,2.61-6.53,1.82.15,1.79-1.11,6.85.89,7.58l11.46-3.08ZM164.6,154.03c2.75,2.92,4.45,2.2,7.6,1.61,1.05-.2,1.67-.1,2.8-.61,4.13-1.86,5.98-5.02,5.84-9.57-.11-3.56-1.38-5.35-4.68-6.4-.8-.26-1.32-.68-2.39-.78-8.11-.76-14.71,9.88-9.17,15.75ZM400.26,158.8c.62-4.35-2.08-8.97-6.68-9.23-.73.69,3.22,10.78,6.68,9.23ZM415.77,175.95c-1.76,3.82-1.81,5.3-1.67,9.69.03.92-.1,1.86-.08,2.78,4.4.1,4.78-4.17,5.08-7.5.25-2.78.91-6.63-1.5-8.38-1.8.79-1.39,2.44-1.84,3.41ZM184.34,188.82c-6.24-3.82-5.34,16.57,2.43,15.22,2.02-5.01-.3-10.64-2.43-15.22Z"/><path class="cls-16" d="M184.78,177.57c20.98,15.57,38.97-9.56,38.42-29.48,1.64-.4,1.16.45,1.56.93,1.62,1.94,3.46,4.45,5.18,6.22-.12,3.09-1.8,6.95-.98,9.71-.46.67-1.35,1.97-1.47,2.74-11.34,1.8-11.21,23.65,4.22,22.38l-.08,2.78c-9.68,2.23-24.64,6.82-32.98,11.97-2.07,1.28-7.29,6.09-8.95,6.31-1.55.21-1.08-1.31-1.67-2.16.12-4.43,1.64-6.13,1.68-9.31.03-2.6-1.29-7.16-2.53-9.5,1-1.41-1.2-2.33-1.22-3.82-.02-1.19,1.09-2.36.66-4.05-.49-1.92-5.73-2.86-1.85-4.72ZM201.06,184.51c-7.85-.17-11.16,11.35-2.8,14.49,10.08,3.79,12.32-14.28,2.8-14.49Z"/><path d="M306.12,119.2c1.3,4.75,4.32,10.51,6.91,14.8.47.78,1.49,1.18,1.66,1.45,7,11.1,12.05,18.57,25.05,23.68,4.79,1.88,5.09,2.31,10.38,1.69,18.21-2.12,20.91-13.2,29.96-25.56,1.63,1.63,1.87,5.66,2.54,8.42,2.12,8.82,3.24,15.9,11.21,21.19,5.61,3.72,6.62,3.68,13.16,1.77.86-.25,3.84-1.05,4.21-1.27l-.02.7c-.28.32-.51,1.24-.74,1.37-.2.11-2.58,1.22-2.82,1.31-16.72,6.16-27.46-13.18-27.73-27.24-1.59-.45-1.15.28-1.61.83-12.82,15.43-16.89,22.59-39.32,19.54-1.89-1.63-4.42-2.24-6.62-3.55-2.8-1.67-7.25-4.67-9.77-6.66-.14-.11-.53.09-.7-.02-.22-.15-.43-.5-.67-.72-.67-.6-1.33-2.17-2-2.84.38-1.64-.58-2.14-1.29-3.18-4.53-6.7-10.16-13.54-11.91-21.55-.99.05-1.12.99-1.46,1.67-3.82,7.72-6.09,14.85-11.06,22.31-10.09,15.17-21.33,21.35-39.59,21.8-10.2-2.29-16.8-6.58-23.94-13.91-1.72-1.77-3.57-4.27-5.18-6.22-.4-.48.08-1.33-1.56-.93.55,19.93-17.45,45.06-38.42,29.48-.84-.63-1.66-1.05-2.02-2.15l1.41-.65c.42.29.93.46,1.37.74,2.41,1.51,5.46,2.99,8.24,3.72,9.77,2.56,18.65-2.7,21.91-11.88,4.68-6.64,4.99-15.65,6.25-23.47,2.82-.1,4.76,4.65,6.74,6.82,8.03,8.82,13.84,13.5,25.99,15.69,9.68,1.74,14.51.25,22.62-5.03,6.47-4.22,16.74-15.46,18.53-22.98,4.24-4.58,5.41-13.29,8.3-18.09.73-1.21,1.06-.81,1.99-1.09Z"/><path class="cls-19" d="M322.42,132.89c6.57,9.91,14.44,21.24,27.93,20.29.78,2.78-4.53.15-3.54,2.32.72,1.57,4.02,1.19,5.52,1.21l-.1,3.48-4.17-.12-.02.68,2.08.07c-5.3.62-5.59.19-10.38-1.69,1.29-1.47.19-1.48-.85-2.24-5.84-4.29-12.14-7.47-16.77-13.25-2.14-2.67-5.04-6.42-6.72-8.87-.19-.27-1.96-4.43-2.75-5.86-1.53-2.78-3.44-10.66-6.54-9.72-.93.28-1.26-.12-1.99,1.09-2.89,4.8-4.06,13.51-8.3,18.09.02-.1-.66-.88-.33-2.09.4-1.49,9.16-15.64,2.59-14.58-.54.09-.84,2.52-2.52,2.05,1.44-4.26,3.62-11.91,3.98-16.23.11-1.29.65-2.83-1.35-2.47l9.81-1.52c3.06,10.65,8.35,20.21,14.42,29.35Z"/><path d="M403.53,190.2c.12.31.36.61.67.72.21.07.49-.05.7.02l5.46,3.64c-.02.23.03.48-.02.7-.03.15-.57.41-.72.67-8.94-7.32-26.87-9.13-37.96-10.15-.05,0-.17-.67-.67-.72-7.9-.65-17.03-.69-25.02-.73-3.2-.01-7.01.34-10.45.39-26.13.39-52.27,2.27-78.08,6.08-16.02,2.37-31.93,5.24-46.93,11.16-6.58,2.59-17.47,7.67-21.27,13.99,1.4-2.94-1.91-4.24-2.01-4.69-.26-1.17.82-2.14.82-2.3.6.84.12,2.36,1.67,2.16,1.66-.22,6.88-5.03,8.95-6.31,8.34-5.15,23.29-9.75,32.98-11.97,25.85-5.94,54.13-8.12,80.62-9.47,31.66-1.62,60.63-2.19,91.27,6.82Z"/><path class="cls-18" d="M345.96,184.35c-.5,2.43,1.78.94,3.25,1.7,8.27,4.33,30.59,2.56,43.77,7.68,3.36,1.3,17.02,10.02,18.05,9.93.16-.02,1.59-2.07,2.6-2.04,2.43,4.56,2.63,2.39,3.37,8.1.12.93.24,2.99-1.28,2.62-15.49-11-24.01-15.48-37.82-17.91-13.73-2.42-26.05-2.28-39.82-1.97l-5.2-3.54c-1.06-.19-2.94-1.45-3.69-1.59,1.77-1.76,6.14,1.11,6.34-2.6,3.44-.05,7.25-.41,10.45-.39Z"/><path class="cls-16" d="M218.8,131.96l1.37.74c.03.23-.06.47-.02.7.44,2.71,2.71,5.85,2.56,7.73-.12,1.39-1.3,2.1-1.47,2.74-1.96,7.5-2.99,16.25-5.55,23.49-3.25,9.19-12.14,14.45-21.91,11.88-.63-2.96-2.63-5.45-1.14-8.39,1.7,1.33,3.73.11,4.16.13.92.04,1.86.09,2.78.08.11,0,.66.84,2.2.66,5.67-.65,8.41-8.12,9.98-12.83,1.48-4.45,2.58-9.53,3.19-14.18.39-2.94-.66-10.97,1.78-12.47.79-.49,1.52-.14,2.08-.28Z"/><path class="cls-18" d="M292.2,191.13c-2.65.35-9.75.84-11.41,1.28-1.16.3-3.38,2.61-4.72,3.12-7.85,3.02-26.63,3.83-36.5,6.09-10.42,2.39-20.53,5.98-30.07,10.75.54-.55,2.84-4.04,2.92-4.78,9.23-5.6,19.68-9.48,30.25-12,4.83-1.15,11.98-2.66,16.8-3.33,6.85-.95,15.58-.27,22.7-2.15l10.02,1.01Z"/><path class="cls-22" d="M375.44,127.47c.28-1.92.91-3.07,1.58-4.81l8.97.93,2.13,22.33-2.09-.06c-.31-1.07-1.03-2.46-1.29-3.52-.68-2.74-.61-6.26-1.83-9.09-1.53-.28-2.1,1.01-2.83,2-9.05,12.36-11.75,23.45-29.96,25.56l-2.08-.07.02-.68,4.17.12.1-3.48c.46,0,.94.07,1.39.04,5.6-.4,4.2-.87,7.07-3.97,8.47-9.12,12.73-12.38,14.65-25.31Z"/><path class="cls-16" d="M210.51,201.97c1.06,1.54,2.14,3.71,1.92,5.62-.09.75-2.39,4.23-2.92,4.78-1.72,1.76-5.12,3.26-7.11,5-5.09,4.47-8.24,8.97-11.89,14.6-3.88-4.57-4.38-10.87-1.27-16.02,3.81-6.31,14.69-11.39,21.27-13.99Z"/><path class="cls-22" d="M370.98,185.08l.67.72c11.1,1.02,29.03,2.83,37.96,10.15,1.25,1.03,3.19,4.14,4.01,5.68-1.01-.03-2.44,2.02-2.6,2.04-1.03.1-14.69-8.62-18.05-9.93-13.18-5.12-35.49-3.34-43.77-7.68-1.47-.77-3.74.72-3.25-1.7,7.99.04,17.12.08,25.02.73Z"/><path class="cls-24" d="M330.68,135.91l1.37.74c.46.25.91.49,1.37.74,4.51,2.44,5.37,3.39,11,4.49.43.08.94-.03,1.39.04.17.03.73.69,1.66.77,4.05.38,9.18.55,12.96-1.04.63.05,1.93-.27,2.07.4-1.09,1.28-1.72,3.27-2.91,4.44-2.87,2.82-10.59,5.6-14.58,4.69-7.64-1.75-15.97-12.27-20.5-18.23,1.81-.08,4.29,1.88,6.17,2.96Z"/><path class="cls-24" d="M286.26,132.53c-4.21,9.95-14.02,24.51-26.1,24.34-2.59-.04-4.83-1-7.25-1.66,2.82.76,2.24-1.64,2.91-3.38l8.95,1.63c.71-.68.95-8.3,3.06-8.94,3.19-1.22,10.98-6.38,13.79-8.66,1.49-1.21,2.94-3.71,3.35-4.03.52-.41,1.21.7,1.29.71Z"/><path class="cls-3" d="M222.84,112.6c-1,1.57-1.92,2.97-.66,4.68l4.67,1c.02.19.69.59.62,1.63-.3,5-3.39,7.44-7.88,8.59-.89-3.94-3.61-3.48-2.38-8.61.24-1,3.8-5.65,1.05-5.36-5.2.56-7.96,9.59-5.61,13.76-8.46-1.77-6-15.87,2.4-17.16,1.58-.24,4.62-.31,6.11.03,1.41.31,1.52,1.35,1.68,1.43Z"/><path class="cls-16" d="M262.34,117.92c-.07,4.67-.12,9.31-1.1,13.88-3,1.27-4.09,1.93-7.48.63-9.46-3.6-2.95-18.78,8.58-14.51Z"/><path class="cls-22" d="M329.18,187.34c.75.14,2.63,1.4,3.69,1.59l5.2,3.54c-.69.02-1.39-.07-2.09-.06l-1.02-.72-.37.68c-3.55.08-9.21,1.12-11.51,1.06l-14.49.15c-.23,0-1.98.02-2.88.07-1.97.1-3.71.1-5.66.21l-3.07.21c-2.57.16-5.1.25-7.67.47-.32-2.22,1.15-1.2,2.46-1.3,4.41-.34,8.12-.77,12.4-1.97,1.16-.33,2.27-.05,1.98-1.81,6.67-1.08,16.43-3.34,23.02-2.11Z"/><path class="cls-16" d="M267.82,144.51c-2.1.65-2.35,8.27-3.06,8.94l-8.95-1.63c-.67,1.74-.09,4.14-2.91,3.38-2.2-.6-4.89-1.19-6.89-2.29-.29-.16-3.7-2.86-4.1-3.23-.51-.47-2.68-2.62-1.97-3.2,6.14.31,12.1,1.29,18.24.35,1.88-.29,8.02-1.71,9.64-2.33Z"/><path class="cls-2" d="M298.19,105.05c2-.36,1.45,1.18,1.35,2.47-.36,4.32-2.54,11.98-3.98,16.23-2.76,8.13-12.69,28.09-19.5,32.7-2.05,1.39-6.11,2.39-6.57,2.71l-.65-1.41c7.79-3.43,16.46-17.68,20.21-25.15,2.1-4.19,4.15-8.55,5.6-13.05,1.51-4.74,2.53-9.64,3.55-14.5Z"/><path class="cls-3" d="M176.16,139.07c.08,1.12-.23,2.4-.1,3.48-2.75,1.28-2.83,8.24-2.38,10.58.11.59,1.85.53,1.32,1.91-1.13.51-1.75.42-2.8.61.04-3.06-1.19-3.26-3.03-5.62-2.38.87-4.51,1.33-4.57,4-5.54-5.87,1.06-16.51,9.17-15.75,1.07.1,1.59.53,2.39.78Z"/><path class="cls-3" d="M388.6,105.6c-1.29,4.87-4.18,9.44-4.59,14.47-.23.02-.46-.03-.7-.02-1.04.05-2.89-.41-4.17-.13l2.81-1.63c-2.81-4.72-2.67-11.28-8.89-4.8-1.05-9.31,8.85-13.47,15.53-7.9Z"/><path class="cls-3" d="M302.47,77.35c1.61,2.28-1.04.8-2.88,2.33-3.64,3.03-1.96,11.44-2.49,15.99-.21,1.8-2.16,2.71-.87,4.46-.58-.26-1.38.05-2.42-.73-9.19-6.82-2.96-22.48,8.65-22.05Z"/><path class="cls-2" d="M305.21,78.83c.1,2.78-2.9,3.22-3.8,4.93-1.58,2.97-1.97,8.15.26,10.92,2,2.47,5.56,2.05,6.41,5.11-3.24,1.71-6.24,2.53-10.03,1.65-1.05-.24-1.43-1.13-1.81-1.3-1.3-1.75.66-2.66.87-4.46.52-4.55-1.16-12.96,2.49-15.99,1.83-1.53,4.48-.05,2.88-2.33,1.73.07,2.18,1.28,2.74,1.47Z"/><path d="M289.04,132.61c-3.75,7.47-12.42,21.72-20.21,25.15-2.66,1.17-7.54,1.21-10.47,1.09-.46-.02-.93,0-1.39-.04-.23-.02-.47.01-.7-.02-1.86-.26-4.39-1-6.21-1.57-.15-.05-1.59-1.04-2.74-1.47-.17-.06-.51-.46-1.37-.74-.21-.24-.41-.55-.67-.72l.74-1.37c2,1.1,4.69,1.69,6.89,2.29,2.42.66,4.66,1.62,7.25,1.66,12.08.17,21.89-14.39,26.1-24.34.91.11,1.86,0,2.78.08Z"/><path class="cls-22" d="M182.49,160.81c-1.44,2.5,1.33,7.27,3.95,7.77-.11,1.56.11,3.42-.14,4.87-.33.09-.63.34-.72.67-.1.39.03.95-.04,1.39-.44-.27-.95-.45-1.37-.74-5.34-3.67-9.51-9.04-11.38-15.32-.15-1.38.22-.82.92-1.14,1.64-.76,3.54-1.14,5.1-2.35.77.08,2.82,3.94,3.68,4.86Z"/><path class="cls-22" d="M419.46,144.75c1.41.48,2.52,1.1,4.15.82-1.4,3.24-2.48,8.19-3.98,11.18-.3.6-7.9,8.32-8.42,8.63-.37.22-3.35,1.02-4.21,1.27-.13-1.43.12-2.64.65-3.97.29-.72,2.89-6.1,3.13-6.36,2.41-2.5,5.28-4.8,7.58-8.09.85-1.21,1.36-1.86,1.1-3.49Z"/><path class="cls-22" d="M220.19,132c1.2-.39,5.14-3,5.63-2.62,3.49,10.1,10.33,19.28,19.46,24.91.27.17.47.48.67.72-.84-.27-2.11.23-3.44-.46s-1.7-2.56-2.78-3.47c-2.94-2.48-6.6-1.38-8.2-2.4-1.48-.95-2.59-6.04-5.41-5.37-.3-.54-.45-1.04-.65-1.41-.44-.81-.75-2.48-1.4-3.75-.53-1.03-2.53-4.72-3.92-4.75-.04-.22.05-.47.02-.7l.02-.7Z"/><path class="cls-3" d="M375.44,127.47c-1.92,12.93-6.18,16.19-14.65,25.31-2.27,1.34-5.51,1.81-7.07,3.97-.45.03-.93-.03-1.39-.04-1.51-.03-4.8.35-5.52-1.21-.99-2.17,4.31.46,3.54-2.32,5.13-.36,5.69-2.07,9.18-4.6,5.65-4.1,8.05-5.97,10.81-12.9,1.06-.92,1.56-2.21,2.19-3.41.1-.19-.08-.51.02-.7l.72-.67c.1-.18-.08-.51.02-.7.39-.73,1.61-1.41,1.47-2.74l.7.02Z"/><path class="cls-19" d="M313.35,86.02c-.92,1.71.19,3.47-.32,5.74-.46,2.01-2.93,5.34-5.23,5.21-5.55-.31-4.38-16.24,1.54-16.63,2.39,1.68,2.99,3.08,4.01,5.68Z"/><path d="M324.5,132.95c4.53,5.96,12.86,16.48,20.5,18.23,3.99.91,11.71-1.87,14.58-4.69l-.06,2.09c-3.49,2.53-4.05,4.24-9.18,4.6-13.49.95-21.35-10.38-27.93-20.29.69-.01,1.4.09,2.09.06Z"/><path class="cls-3" d="M428.98,128.34c-.86,1.96-2.43,3.77-2.91,5.88-.23,1.04-.87,3.57,1.25,3.11-.54.08-1.67,1.18-2.8.61-.17-.16-1.12-.08-1.67-.76-1.71-2.08-1.55-5.61-5.08-5.69.02.67-.74,1.62-.77,2.06l-2.09-.06c.05-6.78,6.92-9.37,12.55-6.74.97.45,1.14,1.3,1.51,1.58Z"/><path class="cls-3" d="M309.34,80.34c-5.92.39-7.09,16.33-1.54,16.63,2.3.13,4.78-3.21,5.23-5.21.52-2.27-.6-4.03.32-5.74,2.33,5.95.33,10.8-5.27,13.76-.85-3.06-4.41-2.64-6.41-5.11-2.24-2.76-1.85-7.95-.26-10.92.91-1.7,3.9-2.15,3.8-4.93,1.8.63,1.83-.11,4.13,1.51Z"/><path class="cls-18" d="M410.77,156.33c-.25.26-2.84,5.64-3.13,6.36-.53,1.33-.77,2.54-.65,3.97-6.54,1.9-7.56,1.95-13.16-1.77l.71-.34-.65-1.74c2.33-.43,5.59-.18,7.73-.78,1.38-.39,1.48-1.28,2.08-1.72,1.62-1.17,4.36-3.33,5.7-4.7l1.37.74Z"/><path class="cls-24" d="M346.59,114.81c.04,1.89-1.94,1.89-2.75,3.18-2.5,4-.07,7.56.93,11.37-2.76-.43-4.46-1.7-6.87-2.98-.2-.63-.6-1.2-.65-1.41l-.67-.72c-.08-.38.06-.93.04-1.39-.08-1.83-.11-3.92.86-5.54.2-.21,1.35-1.3,1.43-1.35,2.97-1.8,4.48-2,7.69-1.17Z"/><path class="cls-3" d="M350.72,116.32c.03.22-.02.47-.02.7.07,4.01-2.63,7.7-1.73,11.77-.21.26-.6.48-.72.67-1.13-.13-2.35.07-3.48-.1-1-3.81-3.43-7.37-.93-11.37.8-1.29,2.78-1.3,2.75-3.18,1.58.41,2.67.82,4.13,1.51Z"/><path class="cls-16" d="M270.74,139.72l-11.46,3.08c-2-.72-.74-5.78-.89-7.58,2.02.79,5.31-2.1,6.53-1.82.51.12,6.58,5.33,5.82,6.31Z"/><path class="cls-3" d="M196.8,170.97c-.44-.02-2.47,1.21-4.16-.13-1.49,2.94.51,5.42,1.14,8.39-2.77-.73-5.83-2.21-8.24-3.72.08-.44-.06-1,.04-1.39.34-.06.66-.35.72-.67.25-1.45.03-3.31.14-4.87.09-1.23.01-2.4.8-3.45,2.8,2.31,6.05,4.82,9.57,5.84Z"/><path class="cls-24" d="M212.65,128.3c-2.34-4.17.41-13.2,5.61-13.76,2.75-.3-.81,4.36-1.05,5.36-1.23,5.12,1.49,4.66,2.38,8.61-.27.07-.65.57-1.41.65-.94-1.39-3.36-.57-4.84-.84-.23-.04-.47.03-.7-.02Z"/><path class="cls-2" d="M347.48,132.22c-.02.23-.02.47-.02.7-.04,1.97.62,3.65.53,5.58l-.02.7-12.43-3.14c.49-1.21.7-1.66,1.47-2.74.39-.54,2.17-1.4,2.57-2.75l7.89,1.66Z"/><path class="cls-19" d="M388.12,145.93c.5.26,1.02.67,1.19,1.21,2.16,6.75,5.2,16.42,14.39,13.15-.6.43-.71,1.33-2.08,1.72-2.14.6-5.39.35-7.73.78-3.43-.78-6.92-13.68-7.85-16.92l2.09.06Z"/><path class="cls-19" d="M410.45,167.45c2.8-.16,1.69,0,2.05,1.74.39,1.87.66,4.85.48,6.68-.29,3.07-1.23,7-1.69,10.38-.2,1.42-.64,2.92-.84,4.84-2.39-.04-2.2-2.6-2.71-4.2l-6.2-.23c2.57.52,5.11-.53,6.65-2.62,1.06-1.43,3.23-6.12-.14-6.24-.02-.81-.81-2.43.08-2.78,4.45.55,4.14-7.44-.51-6.28.24-.09,2.62-1.2,2.82-1.31Z"/><path class="cls-22" d="M388.6,105.6c5.85,4.88,3.06,13.91-4.59,14.47.41-5.03,3.31-9.61,4.59-14.47Z"/><path class="cls-19" d="M306.17,189.45c.29,1.76-.82,1.48-1.98,1.81-4.28,1.2-7.99,1.64-12.4,1.97-1.31.1-2.79-.92-2.46,1.3-4.4.37-12.57,2.18-17.01,2.13,1.34-.51,7.32-3.94,8.48-4.24,1.66-.44,8.76-.93,11.41-1.28,3.18-.42,5.44-.24,8.36-.45,2.24-.16,1.16-1.19,1.43-1.35.44-.26,3.16.28,4.17.12Z"/><path class="cls-24" d="M206.89,158.74c.63-.07,1.42.04,2.09.06-1.03,4.15-2.91,10.12-7.95,10.2-3.29-3.26,1.68-9.5,5.17-10.28.2-.05.46.05.7.02Z"/><path class="cls-12" d="M184.34,188.82c2.13,4.58,4.45,10.21,2.43,15.22-7.77,1.35-8.67-19.04-2.43-15.22ZM185.46,201.94c.27-3.89-.34-8.92-3.12-11.91-1.77,4.66-.82,8.89,3.12,11.91Z"/><path class="cls-18" d="M176.06,142.54c.12.99,1.25,2.59.58,4.2,1.81.19,2.5.38,3.28-1.28h.93c.14,4.55-1.71,7.71-5.84,9.58.53-1.38-1.21-1.32-1.32-1.91-.44-2.34-.36-9.3,2.38-10.58Z"/><path d="M347.97,139.2l.31,2.14c4.03.18,8.12,0,12.14.31-3.78,1.59-8.91,1.43-12.96,1.04-.93-.09-1.49-.75-1.66-.77l.75-2.06-2.43-.08c-.91.08-.09,1.68.28,2.1-5.63-1.11-6.49-2.05-11-4.49l2.07.04c.18-.42-.07-1.06.06-1.37l12.43,3.14Z"/><path class="cls-2" d="M417,133.55c-.17,3.47,4.1,8.01,7.74,7.14,1.63-.39.59-1.99-.21-2.75,1.13.57,2.26-.54,2.8-.61.85-.12,1.92.2,2.78.08l.64,2.1h-2.01s-.14,2.03-.14,2.03c-6.6,3.71-13.73-.6-13.68-8.05l2.09.06Z"/><path class="cls-24" d="M373.07,113.49c6.22-6.48,6.08.08,8.89,4.8l-2.81,1.63c1.27-.28,3.12.18,4.17.13-4.19,2.26-9.78-2.45-10.24-6.56Z"/><path class="cls-22" d="M432.21,136.78c-.84-.37-1.77.59-2.11.63-.86.12-1.93-.2-2.78-.08-2.13.46-1.49-2.07-1.25-3.11.48-2.12,2.05-3.92,2.91-5.88,1.42,1.06,1.86.16,3.05,2.87,1.17,2.67.93,3.07.19,5.57Z"/><path class="cls-22" d="M262.34,117.92c6.64,2.46,4.71,11.42-1.1,13.88.98-4.57,1.03-9.21,1.1-13.88Z"/><path class="cls-22" d="M411.18,166.08l7.09-4.66c-.82,2.61-.55,5.7-1.39,8.19s-3.66,3.41-3.9,6.26c.18-1.83-.1-4.81-.48-6.68-.36-1.75.75-1.9-2.05-1.74.22-.13.46-1.05.74-1.37Z"/><path class="cls-2" d="M181.41,174l-.69.32,1.35,1.09.7.02c.36,1.1,1.18,1.52,2.02,2.15-3.88,1.86,1.36,2.8,1.85,4.72.43,1.69-.67,2.87-.66,4.05.02,1.49,2.22,2.41,1.22,3.82-1.75-3.3-3.93-3.21-4.88-5.19-1.48-3.07-1.01-8.24-2.97-11.39.66-.29,1.49.03,2.06.42Z"/><path d="M211.76,158.88c-1.57,4.71-4.31,12.17-9.98,12.83-1.54.18-2.08-.66-2.2-.66l1.3-.08.15-1.96c5.03-.09,6.92-6.05,7.95-10.2l2.78.08Z"/><path class="cls-3" d="M400.26,158.8c-3.46,1.55-7.41-8.54-6.68-9.23,4.6.26,7.3,4.88,6.68,9.23Z"/><path class="cls-19" d="M419.46,144.75c.26,1.63-.25,2.27-1.1,3.49-2.3,3.29-5.18,5.59-7.58,8.09l-1.37-.74c3.63-3.72,5.71-7.89,9.14-11.53.64-.15.82.66.92.69Z"/><path class="cls-16" d="M164.6,154.03c.06-2.67,2.19-3.14,4.57-4,1.84,2.36,3.07,2.55,3.03,5.62-3.16.59-4.85,1.3-7.6-1.61Z"/><path class="cls-5" d="M418.4,180.89c.04,2.13-1.62,6.08-4.31,4.74-.13-4.39-.09-5.87,1.67-9.69,1.22.47,2.62,3.88,2.64,4.95Z"/><path class="cls-22" d="M348.97,128.79c-.9-4.08,1.8-7.77,1.73-11.77,6.12,5.33,1.38,7.92-1.73,11.77Z"/><path d="M344.78,129.36c1.12.17,2.34-.03,3.48.1-.24.42-.72,2.21-.78,2.76l-7.89-1.66c-.4,1.35-2.18,2.21-2.57,2.75,1.47-2.7,1.81-3.99.9-6.93,2.41,1.28,4.11,2.55,6.87,2.98Z"/><path class="cls-22" d="M176.16,139.07c3.3,1.05,4.58,2.84,4.68,6.4h-.93c-.78,1.65-1.48,1.46-3.28,1.27.68-1.61-.46-3.21-.58-4.2-.13-1.08.18-2.36.1-3.48Z"/><path class="cls-22" d="M226.85,118.28l-4.67-1c-1.26-1.71-.34-3.11.66-4.68.39.19,1.33-.04,2.04.42,2.09,1.37,1.72,3.25,1.97,5.26Z"/><path class="cls-22" d="M411.29,186.25c1.85,3.54,2.33,6.46,1.77,10.49l-2.73-1.47c.05-.22,0-.47.02-.7.07-.69.02-1.39.06-2.09.03-.46,0-.93.04-1.39.2-1.93.64-3.43.84-4.84Z"/><path class="cls-19" d="M187.23,165.12c-.79,1.06-.71,2.23-.8,3.45-2.62-.49-5.39-5.27-3.95-7.77,1.24,1.33,3.3,3.12,4.74,4.31Z"/><path class="cls-15" d="M419.1,180.91l-.7-.02c-.02-1.06-1.42-4.48-2.64-4.95.45-.97.04-2.62,1.84-3.41,2.41,1.75,1.75,5.6,1.5,8.38Z"/><path class="cls-12" d="M419.1,180.91c-.3,3.33-.68,7.61-5.08,7.5-.02-.92.11-1.86.08-2.78,2.69,1.34,4.35-2.61,4.31-4.74l.7.02Z"/><path d="M350.72,116.32c-1.46-.69-2.55-1.1-4.13-1.51-3.2-.83-4.72-.63-7.69,1.17,1.13-3.97,11.16-3.77,11.82.34Z"/><path class="cls-3" d="M432.21,136.78c-.93,3.11-1.14,3.37-3.62,4.76l.14-2.03h2.01s-.64-2.1-.64-2.1c.33-.05,1.26-1.01,2.11-.63Z"/><path class="cls-3" d="M218.19,129.16c-1.3.15-4.09.24-4.84-.84,1.49.27,3.9-.55,4.84.84Z"/><path d="M372.52,132.26c-.62,1.21-1.13,2.49-2.19,3.41.5-1.25-.08-3.94,2.19-3.41Z"/><path d="M336.62,122.87c-1.6-2.23-.79-3.81.86-5.54-.97,1.62-.93,3.71-.86,5.54Z"/><path d="M374.75,127.45c.14,1.33-1.08,2.01-1.47,2.74l.08-2.78,1.39.04Z"/><path class="cls-19" d="M300.06,193.85c-.14,0-1.76.13-3.07.21l3.07-.21Z"/><path d="M347.99,138.5c.08-1.93-.57-3.61-.53-5.58.96,1.44,1.91,4.29.53,5.58Z"/><path class="cls-7" d="M182.06,175.41l-1.35-1.09.69-.32c.58.39.69.72.65,1.41Z"/><path class="cls-7" d="M332.05,136.65l-1.37-.74c.42.24.93.5,1.37.74Z"/><path class="cls-19" d="M220.19,132l-.02.7-1.37-.74c.4-.1,1.04.15,1.39.04Z"/><path class="cls-18" d="M335.99,192.41c-.46,0-.93-.05-1.39-.04l.37-.68,1.02.72Z"/><path class="cls-7" d="M206.89,158.74c-.24.03-.49-.07-.7-.02l.37-.67.33.69Z"/><path class="cls-7" d="M372.54,131.56c.2-.38.66-.56.72-.67l-.72.67Z"/><path class="cls-7" d="M337.26,124.97s-.57-.19-.67-.72l.67.72Z"/><path class="cls-18" d="M338.96,161.89c22.43,3.05,26.5-4.11,39.32-19.54.46-.55.02-1.28,1.61-.83.27,14.05,11.01,33.4,27.73,27.24,4.65-1.16,4.97,6.82.51,6.28-.19-.02-.87-.68-2.06-.76.48-1.97-1.11-1.54-2.39-1.49-9.14.32-8.26,12.64-2.14,13.88l6.2.23c.52,1.6.32,4.17,2.71,4.2-.05.46-.02.93-.04,1.39-2.03.15-3.69-.93-5.52-1.55-.21-.07-.48.05-.7-.02-.12-.29-.37-.63-.67-.72-30.64-9.02-59.61-8.45-91.27-6.82-26.49,1.36-54.78,3.53-80.62,9.47l.08-2.78c14.01-1.16,13.59-25.21-4.22-22.38.12-.77,1.01-2.07,1.47-2.74.58-.85,1.42-1.42,1.53-2.68,6.85,2.01,13.4,7.36,20.99,7.59,1.32.04,2.23-.7,2.4-.7,18.26-.45,29.5-6.64,39.59-21.8.79,1.01-.23,2.91,1.77,3.46s2.59-2.4,3.73-1.21c-16.25,9.36-5.6,34.82,13.06,28.53,5.89-1.98,9.33-9.68,10.04-9.78.05,0-.13.81.67.71,2.6-3.6-2.57-12.53,3.15-12.43.8,1.43.44,4.3,2.43,4.84,1.47.4,2.91-.96,4.19-1,1.43-.04,3.3,1.75,4.91,1.95,1.04.13,1.46-.55,1.54-.54ZM375.01,159.62c-11.46,2.02-12.27,24.3,3.91,22.04,13.11-1.83,11.12-24.69-3.91-22.04ZM346.34,165.03c-7.74.49-10.1,11.96-3.03,14.04,13.72,4.04,13.21-14.69,3.03-14.04ZM265.49,170.34c-8.51.51-9.96,13.13-1.2,14.37,11.31,1.6,11.44-14.98,1.2-14.37Z"/><path d="M231.72,190.07c-15.42,1.27-15.56-20.58-4.22-22.38,17.81-2.83,18.23,21.23,4.22,22.38ZM239.71,178.48c.04-.64.15-1.52.06-2.09-.08-.53-.66-.67-.67-.72-1.39-4.32-1.3-4-5.42-5.03-.3-.08-.75-.71-1.68-.79-16.36-1.3-13.06,22.02,1.69,17.64,3.8-1.13,5.8-5.26,6.02-9.03Z"/><path d="M201.06,184.51c9.52.21,7.28,18.27-2.8,14.49-8.36-3.14-5.05-14.66,2.8-14.49ZM196.27,189.04c-2.21,4.11.71,9.32,5.32,8.5,2.55-.45,4.9-6.63,3.61-8.15-.2-.24-1.63-.21-2.36-.81s-.72-2.1-1.38-2.23c-1.62-.32-4.37,1.15-5.2,2.69Z"/><path class="cls-24" d="M253.89,169.15c-.17,0-1.09.74-2.4.7-7.58-.23-14.14-5.58-20.99-7.59-.11,1.27-.95,1.84-1.53,2.68-.82-2.76.86-6.62.98-9.71,7.14,7.33,13.74,11.62,23.94,13.91Z"/><path class="cls-22" d="M295.83,138.37c-1.8,7.52-12.06,18.77-18.53,22.98-8.11,5.29-12.94,6.78-22.62,5.03.56-1.93,2.43-1.02,3.52-1.29,4.89-1.22,7.75-3.43,11.3-5.93.46-.32,4.51-1.32,6.57-2.71,6.82-4.61,16.75-24.57,19.5-32.7,1.68.47,1.98-1.96,2.52-2.05,6.57-1.06-2.19,13.09-2.59,14.58-.32,1.2.36,1.98.33,2.09Z"/><path class="cls-3" d="M319.19,148.1c-.82-.82-3.57-3.58-4.41-3.61-1.02,2.84-1.33,2.44-3.93,3.37-3.83-.65-8.48-.22-11.88,1.74-1.14-1.18-1.67,1.79-3.73,1.21s-.99-2.45-1.77-3.46c4.97-7.46,7.24-14.59,11.06-22.31.34-.68.47-1.62,1.46-1.67,1.75,8.01,7.38,14.86,11.91,21.55.7,1.04,1.67,1.54,1.29,3.18ZM314.12,143.08l-.02.7c.46-.22.46-.45.02-.7Z"/><path class="cls-3" d="M225.47,141.89c.2.37.36.87.65,1.41,3.76,6.76,11.69,14.2,19,16.55-.34,2.6,4.89,2.3,6.87,2.98l.04-1.39c.45.02.97.09,1.39.04.76,2.45,5.01.38,4.76,3.62-1.08.27-2.95-.64-3.52,1.29-12.15-2.19-17.97-6.87-25.99-15.69-1.98-2.17-3.92-6.92-6.74-6.82l-.7-.02c.17-.64,1.36-1.35,1.47-2.74l2.76.78Z"/><path class="cls-16" d="M339.74,159.13c-13-5.11-18.05-12.58-25.05-23.68l.72-.67c1.67,2.45,4.58,6.2,6.72,8.87,4.63,5.77,10.93,8.95,16.77,13.25,1.04.76,2.14.77.85,2.24Z"/><path class="cls-24" d="M386.04,145.87c.94,3.24,4.42,16.14,7.85,16.92l.65,1.74-.71.34c-7.97-5.29-9.09-12.38-11.21-21.19l2.13-1.33c.26,1.06.98,2.44,1.29,3.52Z"/><path class="cls-19" d="M319.19,148.1c.68.67,1.34,2.24,2,2.84l.67.72c.16.11.55-.09.7.02.19,2.15,2.27,3.06,3.33,4.97-5.72-.1-.55,8.83-3.15,12.43-.79.1-.62-.72-.67-.71,2.94-7.76-3.02-19.1-11.23-20.5,2.6-.93,2.91-.53,3.93-3.37.84.04,3.59,2.79,4.41,3.61Z"/><path class="cls-3" d="M338.96,161.89c-.08-.01-.5.67-1.54.54-1.61-.2-3.48-1.99-4.91-1.95-1.28.04-2.72,1.41-4.19,1-1.99-.54-1.63-3.42-2.43-4.84-1.07-1.9-3.14-2.82-3.33-4.97,2.53,1.99,6.97,4.99,9.77,6.66,2.21,1.32,4.73,1.92,6.62,3.55Z"/><path class="cls-2" d="M315.41,134.77l-.72.67c-.17-.27-1.19-.67-1.66-1.45-2.59-4.29-5.61-10.05-6.91-14.8,3.09-.94,5,6.93,6.54,9.72.79,1.43,2.56,5.58,2.75,5.86Z"/><path class="cls-2" d="M215.69,167.34c2.57-7.24,3.6-15.99,5.55-23.49l.7.02c-1.26,7.82-1.57,16.83-6.25,23.47Z"/><path class="cls-16" d="M380.08,135.26c.73-.99,1.3-2.28,2.83-2,1.22,2.83,1.15,6.35,1.83,9.09l-2.13,1.33c-.66-2.77-.91-6.79-2.54-8.42Z"/><path class="cls-3" d="M321.87,151.65l-.67-.72c.24.22.45.56.67.72Z"/><path class="cls-3" d="M335.52,184.74c-.2,3.7-4.57.83-6.34,2.6-6.59-1.23-16.34,1.03-23.02,2.11-1.01.16-3.73-.38-4.17-.12l-1.39-.04-.04,1.39c-2.92.21-5.18.04-8.36.45l-10.02-1.01c-7.13,1.88-15.85,1.2-22.7,2.15l-2.04-1.45c25.81-3.81,51.96-5.68,78.08-6.08Z"/><path class="cls-24" d="M257.43,190.82l2.04,1.45c-4.82.67-11.97,2.18-16.8,3.33-10.57,2.52-21.02,6.39-30.25,12,.22-1.91-.87-4.08-1.92-5.62,15-5.91,30.91-8.79,46.93-11.16Z"/><path class="cls-19" d="M410.42,192.49c-.04.69.01,1.4-.06,2.09l-5.46-3.64c1.83.62,3.49,1.71,5.52,1.55Z"/><path class="cls-19" d="M404.2,190.91c-.32-.1-.56-.4-.67-.72.3.09.55.42.67.72Z"/><path class="cls-18" d="M371.66,185.79l-.67-.72c.5.04.63.71.67.72Z"/><path class="cls-19" d="M220.15,133.39c1.38.03,3.38,3.73,3.92,4.75.66,1.27.96,2.94,1.4,3.75l-2.76-.78c.16-1.87-2.12-5.01-2.56-7.73Z"/><path class="cls-19" d="M353.72,156.75c1.56-2.15,4.8-2.62,7.07-3.97-2.87,3.1-1.48,3.57-7.07,3.97Z"/><path d="M344.42,141.87c-.37-.42-1.19-2.02-.28-2.1l2.43.08-.75,2.06c-.45-.07-.96.04-1.39-.04Z"/><path class="cls-18" d="M268.83,157.76l.65,1.41c-3.55,2.5-6.41,4.71-11.3,5.93.24-3.24-4.01-1.17-4.76-3.62,1-.11,3.28-1.57,4.83-1.35l.12-1.29c2.92.12,7.8.09,10.47-1.09Z"/><path class="cls-19" d="M226.12,143.3c2.82-.66,3.92,4.42,5.41,5.37,1.6,1.03,5.26-.08,8.2,2.4,1.08.91,1.5,2.81,2.78,3.47s2.6.19,3.44.46,1.2.67,1.37.74c.42,1.31,1.47,1.56,2.74,1.47,1.82.57,4.36,1.31,6.21,1.57l.33.69.37-.67c.46.05.93.02,1.39.04l-.12,1.29c-1.55-.22-3.83,1.23-4.83,1.35-.42.05-.94-.02-1.39-.04-1.85-.08-5.06-1-6.91-1.59-7.31-2.35-15.24-9.79-19-16.55Z"/><path class="cls-22" d="M250.06,157.21c-1.27.09-2.32-.17-2.74-1.47,1.15.43,2.59,1.42,2.74,1.47Z"/><path class="cls-18" d="M256.28,158.79c.23.03.47,0,.7.02l-.37.67-.33-.69Z"/><path class="cls-19" d="M185.58,174.12c.09-.33.38-.59.72-.67-.06.32-.38.61-.72.67Z"/><path class="cls-24" d="M424.52,137.94c.81.75,1.84,2.36.21,2.75-3.64.87-7.91-3.67-7.74-7.14.02-.44.79-1.39.77-2.06,3.54.08,3.38,3.61,5.08,5.69.56.68,1.5.6,1.67.76Z"/><path d="M401.54,186.66c-6.12-1.24-7-13.56,2.14-13.88,1.29-.05,2.87-.48,2.39,1.49-.79-.05-2.12-.21-2.78-.08-4.3.84-5.82,5.77-2.35,8.97,3.31,3.05,6.45.65,7.05-3.27.09-.62.08-1.44.06-2.09,3.37.12,1.2,4.8.14,6.24-1.55,2.09-4.09,3.14-6.65,2.62Z"/><path class="cls-12" d="M406.08,174.27c1.19.08,1.87.73,2.06.76-.89.35-.1,1.97-.08,2.78.01.65.03,1.47-.06,2.09-3.71.49-4.59-2.53-4.7-5.7.66-.13,1.99.03,2.78.08Z"/><path class="cls-18" d="M302,189.33c-.27.16.81,1.19-1.43,1.35l.04-1.39,1.39.04Z"/><path class="cls-14" d="M185.46,201.94c-3.93-3.02-4.89-7.25-3.12-11.91,2.77,2.99,3.39,8.02,3.12,11.91Z"/><path d="M310.85,147.85c8.21,1.4,14.17,12.74,11.23,20.5-.71.09-4.15,7.79-10.04,9.78-18.66,6.28-29.32-19.17-13.06-28.53,3.4-1.96,8.04-2.4,11.88-1.74ZM305.85,176.23c.68.02,1.41.11,2.09.06.5-.03.67-.67.72-.67,5.23-.76,7.36-.72,10.04-6.2,2.14-4.37,1.69-7.17.22-11.59-.63-1.88-.77-3.64-2.95-4.99-1.65-1.02-3.41-.52-3.84-.77-.19-.11.75-1.14-1.35-1.43-18.45-6.12-24.31,24.92-4.92,25.59Z"/><path d="M375.01,159.62c15.02-2.65,17.02,20.21,3.91,22.04-16.18,2.26-15.36-20.02-3.91-22.04ZM375.82,162.26c-8.44,2.01-10.28,11.65-2.55,15.92,2.38,1.31,2.3,1.89,5.71,1.39,3.64-.53,2.83-2.31,3.55-3,.83-.79,2.47.21,3.23-2.7.98-3.74-.27-4.04-1.05-6.49-.25-.79.31-1.72-.56-3.18-.76-1.27-2.7-2.28-4.15-2.52-2.13-.36-2.66.21-4.19.57Z"/><path d="M265.49,170.34c10.25-.61,10.11,15.97-1.2,14.37-8.76-1.24-7.32-13.86,1.2-14.37ZM266.32,172.29c-7.32-.2-6.9,7.57-1.94,11.09,3.31.11,6.18-2.09,6.64-5.39.06-.41.08-.99.04-1.39-.03-.32-.36-.61-.67-.72-.51-2.71-.77-3.51-4.07-3.6Z"/><path d="M346.34,165.03c10.18-.65,10.69,18.09-3.03,14.04-7.07-2.08-4.71-13.55,3.03-14.04ZM351.83,174.09c.78-3.66-.6-7.1-4.66-7.09-8.37.02-6.81,11.32-.84,10.97,2.09-.12,5.04-1.69,5.51-3.88Z"/><path class="cls-20" d="M233.68,170.65l.59,3.83,5.44,3.99c-.22,3.76-2.21,7.9-6.02,9.03-14.75,4.38-18.06-18.94-1.69-17.64.93.07,1.37.71,1.68.79Z"/><path class="cls-4" d="M239.09,175.68l.67.72c.09.56-.02,1.45-.06,2.09l-5.44-3.99-.59-3.83c4.12,1.03,4.03.71,5.42,5.03Z"/><path class="cls-20" d="M239.77,176.39l-.67-.72s.59.18.67.72Z"/><path class="cls-5" d="M196.27,189.04c.82-1.53,3.57-3,5.2-2.69.65.13.66,1.64,1.38,2.23s2.15.57,2.36.81c1.29,1.51-1.06,7.7-3.61,8.15-3.33-2.4-4.44-4.56-5.32-8.5Z"/><path class="cls-12" d="M201.59,197.54c-4.61.81-7.53-4.39-5.32-8.5.87,3.94,1.99,6.1,5.32,8.5Z"/><path class="cls-19" d="M314.12,143.08c.44.24.44.48-.02.7l.02-.7Z"/><path class="cls-18" d="M252.03,161.45l-.04,1.39c-1.97-.68-7.21-.38-6.87-2.98,1.85.59,5.06,1.52,6.91,1.59Z"/><path class="cls-14" d="M408,179.89c-.6,3.92-3.75,6.32-7.05,3.27,7.64.47,1.77-2.66,2.28-6.89-3.5.14-3.48,4.49-2.28,6.89-3.48-3.21-1.96-8.13,2.35-8.97.11,3.17,1,6.19,4.7,5.7Z"/><path class="cls-26" d="M310.77,150.63c2.1.29,1.16,1.32,1.35,1.43-2.2,4.25,1.99,4.92,3.29,6.36,3.15,3.45.72,7.49.94,11.75-4.62,1.52-3.94,4.93-9.77,4.69-16.62-.68-12.98-26.59,4.18-24.22Z"/><path class="cls-5" d="M310.77,150.63c-17.16-2.37-20.8,23.54-4.18,24.22l-.74,1.37c-19.39-.68-13.53-31.72,4.92-25.59Z"/><path class="cls-12" d="M308.65,175.61l-.72.67c-.68.05-1.4-.04-2.09-.06l.74-1.37c5.83.24,5.15-3.16,9.77-4.69-.23-4.25,2.21-8.3-.94-11.75,1.31,1.18,2.32.3,3.5-.59,1.47,4.42,1.92,7.22-.22,11.59-2.68,5.47-4.81,5.44-10.04,6.2Z"/><path class="cls-15" d="M318.91,157.83c-1.17.89-2.19,1.78-3.5.59-1.31-1.43-5.5-2.11-3.29-6.36.44.25,2.19-.25,3.84.77,2.17,1.35,2.32,3.11,2.95,4.99Z"/><path class="cls-5" d="M307.94,176.29l.72-.67s-.21.64-.72.67Z"/><path class="cls-6" d="M380.01,161.69c-1.76,3.77.46,7.36,4.7,5.7.77,2.45,2.03,2.75,1.05,6.49-.76,2.91-2.4,1.91-3.23,2.7-.72.69.09,2.47-3.55,3-3.4.5-3.33-.08-5.71-1.39-3.89-6.01-4.21-12.08,2.55-15.92,1.53-.36,2.06-.93,4.19-.57Z"/><path class="cls-21" d="M375.82,162.26c-6.76,3.84-6.44,9.92-2.55,15.92-7.73-4.27-5.89-13.92,2.55-15.92Z"/><path class="cls-11" d="M384.71,167.39c-4.24,1.66-6.47-1.93-4.7-5.7,1.44.24,3.39,1.25,4.15,2.52.87,1.46.3,2.38.56,3.18Z"/><path class="cls-5" d="M266.32,172.29c-.42,3.62,1.27,5.24,4.7,5.7-.46,3.3-3.33,5.5-6.64,5.39-4.97-3.52-5.38-11.29,1.94-11.09Z"/><path class="cls-15" d="M270.39,175.89c.06.31.38.59.67.72.04.4.02.98-.04,1.39-3.43-.46-5.13-2.08-4.7-5.7,3.3.09,3.56.89,4.07,3.6Z"/><path class="cls-5" d="M271.06,176.61c-.3-.12-.62-.41-.67-.72.31.1.64.4.67.72Z"/><path class="cls-5" d="M347.16,167c-.57,5.27,1.89,4.67,4.66,7.09-.47,2.19-3.42,3.76-5.51,3.88-5.97.35-7.53-10.96.84-10.97Z"/><path class="cls-12" d="M351.83,174.09c-2.77-2.43-5.24-1.82-4.66-7.09,4.07,0,5.44,3.43,4.66,7.09Z"/><path class="cls-26" d="M400.95,183.17c-1.19-2.39-1.22-6.74,2.28-6.89-.51,4.23,5.35,7.36-2.28,6.89Z"/><rect class="cls-1" width="617.49" height="644.18"/><path class="cls-17" d="M343.65,262.86c13.38,9.37,28.39,12.96,39.38,12.85,10.99-.11,19.59-7.74,19.59-7.74,0,0-42.66-1.32-43.77-5.11"/><path d="M431.66,239.13l.18.8h2.04s-.98,3.02-3.37,3.28c-.89.35-2.13.89-1.86,2.31s-1.93,6.7-3.77,9.24-4.62,7.04-12.35,10.38c-2.88,1.15-6.23,3.58-27,4.04-8.77-.35-18.12-.81-28.39-4.96-10.27-4.15-18.58-12.69-20.54-20.08-.58-.58-.69-.46-1.55-.41s-3.14.4-1.94-2.34c1.2-2.74,4.4-1.03,4.4-1.03l33.51-.81,24.38-.55,33.7.78"/><path class="cls-10" d="M340.19,243.35l32.65-.35s2.26,9.75,11.41,8.88c9.14-.87,10.28-2.7,12.54-9.84,2.61,0,29.08.96,29.08.96,0,0-.61,6.03-2.96,8.94-2.35,2.91-9.84,12.48-23.42,13.88s-25.43-.09-30.48-1.13-21.07-6.44-27.08-16.46c-1.13-2.44-1.74-4.88-1.74-4.88Z"/><path class="cls-10" d="M392.04,242.3h2.71s.31,1.85-.86,2.15-2.65.06-2.71-1.08.86-1.08.86-1.08Z"/><path class="cls-23" d="M362.86,262.86s-5.69-6.42-6.63-12.42c-.19-3.5,1.25-7,1.25-7l-17.29-.08s1.29,12.47,22.67,19.5Z"/><path class="cls-25" d="M415.84,242.65l10.04.36s1.16,10.44-15.79,19.76c1.62-3.32,5.13-5.07,5.56-8.54s.19-11.57.19-11.57Z"/><path d="M347.09,266.39s-1.4-2.3,0-2,10.41,6.11,15.77,7.41,26.59,4.91,38.2,1.4c1.7-.2,2.9-.1,2.3.4s-3.7,2.2-6.71,2.5-12.32,1.9-23.93,0c-11.52-1.9-18.42-3.91-25.63-9.71Z"/><path d="M217.9,247.26s1.48,1.44,4.6,1.2,23.14-3.89,23.14-3.89c0,0,12.71-1.61,13.31-2.28s4.8-.79,5.88-.79h18.35l23.62-1.56,14.27-1.6s3.48-.32,3.36,1.12-1.68,1.92-3.48,2.58c-.12,1.14-1.08,15.9-11.87,20.81-9.59,5.03-15.23,9.11-36.21,9.23-15.23-.12-25.66-1.67-39.21-9.23-2.76-2.16-10.79-11.4-10.79-11.4,0,0-9.56,1.08-4.96-4.2Z"/><path d="M225.86,263.45s-1.08-2.4,0-2.16,2.52,2.16,2.52,2.16c0,0,7.07,7.79,11.51,8.99,1.08,1.32.24,2.28-.84,1.8s-12.11-8.51-13.19-10.79Z"/><path d="M248.76,277.02s-2.76-.02-1.68-1.45c1.08.12,4.92,1.45,4.92,1.45,0,0,12.71,3.94,25.66,1.66,11.15-1.44,22.54-4.2,25.06-6.6,3.96-2.52,8.87-6.6,8.87-6.6,0,0,2.04-1.66,2.28-1.13s0,1.37-.48,2.03-6,5.22-8.03,6.54-7.79,5.52-19.79,7.55c-11.99,2.04-18.83,1.08-26.38,0s-10.43-3.46-10.43-3.46Z"/><path class="cls-10" d="M227.13,250.91s31.95-4.96,32.67-5.83c1.94-.29,5.9,0,5.9,0,0,0,2.52,10.24,12.59,9.76,10.07-.48,12.16-9.62,12.3-10.41,2.23-.14,13.24-1.08,13.24-1.08l13.96-1.31s-1.15,10.01-5.47,14.19c-4.17,3.81-10.29,7.18-12.74,8.13s-13.24,4.38-24.97,4.82c-11.73.44-23.6-2.08-31.08-5.6-7.48-3.53-13.56-7.05-16.41-12.66Z"/><path class="cls-10" d="M285.09,244.93h3.3s0,1.91-1.4,1.97-1.97-.51-1.91-1.97Z"/><path class="cls-23" d="M255.57,267.07s-6.83-8-7.64-11.44,1.05-8.3,1.05-8.3l-21.84,3.57s11.12,15.76,28.44,16.17Z"/><path class="cls-25" d="M307.26,243.03s4.58,12.63-3.11,19.03c4.01-2.54,13.51-6.38,13.64-20.01-6.78,1.08-10.53.99-10.53.99Z"/><line class="cls-8" x1="428.33" y1="239.77" x2="430.1" y2="239.3"/><path class="cls-17" d="M222.5,248.46c-.06,10.15-4.22,1.1-3.75,2.04s1.87,7.95,7.11,12.95,14.2,16.16,26.2,17.51,39.05-1.67,39.05-1.67l11.62-7.21,10.67-5.7s-.63-4.64,0-6.59-6.87,2.26-6.87,2.26c0,0-19.06,15.14-55.51,7.12-12.15-4.87-23.2-12.83-25.63-18.23,4.92-1.95,17.98-5.03,17.98-5.03l6.6-.99"/><path class="cls-9" d="M384.39,205.17s37.2,7.58,38.22,31.69c1.49,1.12,5.73,0,5.73,0,0,0-4.7-20.37-28.95-30.13-8.84-2.31-14.99-5.66-14.99-1.56Z"/></g></g></g></svg>