<?xml version="1.0" encoding="UTF-8"?><svg id="Lager_2" xmlns="http://www.w3.org/2000/svg" viewBox="0 0 617.49 644.18"><defs><style>.cls-1{fill:none;}.cls-2{fill:#bb956e;}.cls-3{fill:#c29c74;}.cls-4{fill:#6d4f35;}.cls-5{fill:#343d2c;}.cls-6{fill:#373232;}.cls-7{fill:#fff;}.cls-8{fill:#e5ca73;}.cls-9{fill:#c93b3d;}.cls-10{fill:#86633e;}.cls-11{fill:#f2f2f2;}.cls-12{fill:#a48264;}.cls-13{fill:#b38e6a;}.cls-14{fill:#76bd79;}.cls-15{fill:#cfaa81;}.cls-16{fill:#98795f;}</style></defs><g id="gucci"><path class="cls-7" d="M430.61,245.07c0,16.68-18.98,36.26-44.98,36.26s-46.4-18.95-46.4-35.63,20.4-35.63,46.4-35.63,44.98,18.32,44.98,35Z"/><path class="cls-11" d="M388.28,214.36c18.4,2.58,49.78,14.58,33.26,50.44-8.93,11.31-55.72,33.64-82.7-12.04-.9-11.47,5.49-26.42,8.72-28.5,9.15-5.87,22.32-12.49,40.72-9.9Z"/><path class="cls-7" d="M316.5,247.51c0,16.49-20.22,35.86-47.93,35.86s-49.44-18.74-49.44-35.23,21.74-35.23,49.44-35.23,47.93,18.11,47.93,34.61Z"/><path class="cls-11" d="M272.81,217.21c18.66,2.58,48.89,11.49,33.73,51.44-4.86,5.54-57.26,35.8-84.62-9.88-.91-11.47-.38-26.06,9.59-30.65s22.64-13.49,41.3-10.9Z"/><path d="M279.42,205.25c17.01,1.57,36.69,15,40.1,32.49.88,4.51-1.33,3.6-1.94,6.25-1.32,5.77.6,8.48-2.53,15.48-8.18,18.3-31.97,26.2-50.76,25.37s-43.45-12.35-46.15-33.71c-2.21,1.28-10.45,1.45-10.48-2.03-.02-2.28,4.3-1.21,6-1.58,4.05-.89,5.35-8.38,6.89-11.7,16.33-35.19,85.24-33.96,96.61,5.43,2.07-3.5-1.82-10.9-3.88-14.12-10.21-15.95-26.3-19.21-43.67-20.79-.64-.06-3.21-.26-3.27-1.09,4.23.28,8.9-.39,13.07,0ZM264.49,213.55c-54.5,3.24-58.61,61.93-3.58,67.7,19.38,2.03,49.03-6.44,53.02-28.72,4.83-26.99-27.48-40.29-49.44-38.98Z"/><path d="M392.96,204.09c0,1.01-2.54.64-3.22.6-1.81-.1-3.42-.66-5.17-.63-18.5.33-43.35,12.39-46.73,32.3-.32,1.88.67,4.18-.92,5.46-2.63-2.09-1.96-3.58-1.13-6.35,5.1-17,20.91-29.56,38.37-31.9,6.54-.88,12.29-.01,18.8.52Z"/><path d="M307.59,277.27c-10.64,12.73-25.65,16.74-41.81,13.93-.14-1.01,1.32-.55,2.02-.57,10.6-.43,19.13-1.22,28.78-6.07l11.01-7.28Z"/><path d="M391.8,287.72c-.22,1.06-1.14,1.07-2.01,1.18-13.43,1.6-27.27.2-37.43-9.66-.62-.6-1.48-.83-1.21-1.98,11.46,8.9,26.28,12.44,40.65,10.46Z"/><path d="M431.91,237.76c-2.85-11.04-12.63-17.9-12.63-17.9,0,0-7.67-7.86-24.9-10.56-17.23-2.7-32.07,4.21-32.07,4.21,0,0-30.52,14.15-23.47,39.26,7.02,25,32.61,30.61,52.96,28.91,20.35-1.69,32.46-15.71,34.85-18.12s8.11-14.75,5.26-25.79ZM423.86,262.32c-2.23,2.25-13.53,15.32-32.5,16.9s-42.84-3.65-49.39-26.96c-6.58-23.41,21.89-36.61,21.89-36.61,0,0,13.84-6.45,29.91-3.93,16.07,2.52,23.22,9.85,23.22,9.85,0,0,9.12,6.4,11.78,16.7,2.66,10.29-2.67,21.8-4.9,24.05Z"/><ellipse class="cls-14" cx="264.87" cy="246.7" rx="31.75" ry="30.59"/><ellipse cx="264.87" cy="246.7" rx="25.75" ry="24.8"/><circle class="cls-7" cx="278.11" cy="228.74" r="12.15"/><ellipse class="cls-14" cx="385.55" cy="243.64" rx="31.75" ry="29.52"/><ellipse cx="385.55" cy="243.64" rx="25.4" ry="23.61"/><ellipse class="cls-7" cx="398.8" cy="226.3" rx="12.15" ry="11.73"/><ellipse class="cls-14" cx="264.87" cy="246.7" rx="31.75" ry="30.59"/><ellipse cx="264.87" cy="246.7" rx="25.75" ry="24.8"/><circle class="cls-7" cx="278.11" cy="228.74" r="12.15"/><ellipse class="cls-14" cx="385.55" cy="243.64" rx="31.75" ry="29.52"/><ellipse cx="385.55" cy="243.64" rx="25.4" ry="23.61"/><ellipse class="cls-7" cx="398.8" cy="226.3" rx="12.15" ry="11.73"/><path d="M402.23,204.84c-1.73-.22-3.49-3.01-3.91-2.65s-5.57-.34-8.34-1.06-12.57-.01-15.14-.21-13.54,1.27-13.54,1.27c0,0-12.67,2.18-14.22,2.13s-16.38,4.26-16.38,4.26l-7.62,1.63s-.73.46-7.13,1.76c-7.27,1.47-10.51.15-10.9.23s-2.79-1.11-8.61-3.03-8.48-.88-12.16-1.82-13.05.43-14.26.72-7.93,1.62-11.72,2.14-13.19,4.7-13.19,4.7c0,0,1.74.28-8.65,5.37-10.39,5.09-21.7,2.74-23.52,2.64s-2.51,1.08-5.68,1.22-12.09,7.45-12.09,7.45c-1.32.39-4.87,3.55-4.73,2.55.08-.61-1.73-4.67-1.99-6.29-2.57-15.99,3.76-46.1,10.46-61.01,14.63-32.57,48.93-48.73,83.51-49.57,4.44-6.87,15.12-8.53,22.52-6.45,2.85.8,6.15,4.12,7.82,4.4s3.11-.52,4.71-.54c22.21-.33,39.31,1.07,58.96,12.12,27.35,15.38,34.52,40.11,41.65,68.89,9.62,4.27,35.86,17.31,36.49,29.03.2,3.62-2,6.52-5.12,8.14-1.49.77-7.49,2.72-8.95,2.72h-9.01c.01,1.1-9.66-24.45-23.06-27.01-2.02-.39-4.43-3.52-6.16-3.74ZM297.05,113.12c-3.55.18-6.57.98-9.55,2.92-.2,1.21.53.72,1.32.79,3.64.31,5.57-.86,8.23-1.06,3.46-.25,7.12.19,10.6,0-2.52-2.98-7-2.83-10.6-2.65ZM292.28,119.48c-.53.03-1.06-.04-1.59,0-1.05.07-2.13-.08-3.18,0-.62.04-1.26.5-1.59.53-1.91.15-3.93-.16-5.83,0-.87.07-1.78-.08-2.65,0-7.44.69-13.63,2.22-20.68,4.24-.7.2-1.43.31-2.12.53-5.32,1.66-8.04,3.25-12.72,5.3-.34.15-1.26-.15-1.59,0-7.49,3.38-11.28,6.06-17.5,11.13-.25.2-1.16.21-2.12,1.06-6.8,6.01-12.26,13.2-16.44,21.21-.24.45-.72.89-1.06,1.59-2.88,6.01-5.01,12.55-6.36,19.09l9.53-5.07c.34-.27.59-.87.54-1.29.51-.05,1.1.08,1.59,0,2.42-.41,1.98-1.48,3.07-2.1,2.44-1.41,5.8-1.31,9.13-3.2.28-.16,1.99.07,2.65,0,2.7-.28,5.09-1.23,7.72-2.09l1.29-10.64c.65-.86.96.01,1.06.79.17,1.35.16,4.2,0,5.58-.08.68-.95,2.02-1.05,3.46-.42,5.61.38,11.33-.57,16.93l1.63,1.35c-1.79,1.22-1.8,3.68-1.61,5.61.07.71.54,1.18.55,1.28.29,2.49.55,4.3.53,6.89-.02,2.19-.66,4.65-.53,6.89.4.44,10.37-3.77,11.13-4.24.64-.39,1.11-.76,1.06-1.59,1.06.09,2.07-.05,3.08-.36,5.49-1.68,12.52-4.9,18.12-7.06.14-.05.41-.62,1.59-1.06.84-.31,2.06-.88,2.65-1.06.99-.31,3.22.73,3.18-1.59,2.18.68,3.76-.71,5.3-1.06.46-.1,1.15.11,1.59,0,7.51-1.89,15.57-4.72,22.8-6.36.46-.11,1.13.11,1.59,0,1.83-.42,4.5-.06,5.83-1.59.12.09,1.17-.03,1.59,0,2.25.14,3.83-.4,5.83-.53,1.07-.07,1.84-.51,2.12-.53,1.6-.13,6.37-.53,7.69-.53h7.95c2.23,0,5.51-.5,8.22-.53.71,0,1.41,0,2.12,0,1.94,0,3.9-.05,5.83,0,.88.02,1.77-.04,2.65,0,.07,0,.6.51,1.28.55,1.68.11,3.4-.11,5.08-.02l-.5-3.48c-4.77-.72-9.54-.67-14.35-.76-.88-.02-1.77,0-2.65,0-7.7-.03-15.66-.06-23.33.53-.9.07-1.66.49-2.12.53-4.5.38-8.8,1.04-13.25,1.59-.68.08-1.44-.09-2.12,0-6.46.83-12.87,2-19.3,3.01-2.46-.13-1.64-3.11-1.9-4.6-.19-1.06-.37-2.12-.53-3.18-.19-1.25-.37-2.44-.53-3.71-.67-5.28-2-12.71-2.14-17.79-.09-3.26,1.61-3.59,4.24-4.23,5.76-1.4,13.67-2.57,19.64-3.43,1.9-.27,4.32-.89,5.83-1.06.86-.1,1.78.08,2.65,0,1.74-.15,3.66-.42,5.3-.53,7.5-.5,15.53-.34,23.08-.51,5.7-.89,11.64.37,17.43.53.63,0,.2-.77.31-1.08,1.44.23,1.62,1.2,2.5,1.48,3.05.95,11.36.35,13.39,2.51.12.13,1.56,2.74,1.61,2.9.15.57-.12,1.49,0,2.12.6,3.26,1.18,6.79,1.59,10.07.13,1.03.46,2.06.53,2.65.29,2.49.42,5.9.53,8.48.02.53,0,1.06,0,1.59,0,.71,0,1.41,0,2.12-.61.09-1.1,1.1-1.6,1.31-2.57,1.03-8.52-1.04-11.83-.27l-.86,3.18c7.23,1.06,14.5,2.05,21.72,3.2.66.1,1.46-.1,2.12,0,.38.06,1.76.41,2.12.53.44.15,1.32.39,1.59.53,1.37.69.65.89,3.71,1.59,1.8.41,3.37.93,5.3,1.06l14.04,5.84c.86.01-.13-3.59-.26-4.25-1.61-8.42-4.7-16.6-7.95-24.39-.85-2.04-.94-1.38-1.06-1.59-.75-1.28-2.42-6.91-3.71-9.54-2.18-4.43-3.64-6.27-6.89-9.54-.44-.44-.08-2.09-2.12-2.12-.35-1.85-2.36-3.44-4.24-3.71l-.53-1.06c-.98-1.68-2.89-2.66-4.49-3.75-.71-.48-1.7-.38-1.87-.49-.3-.2-.69-1.04-1.59-1.59-3.25-2-9.18-5.81-12.73-6.67-1.55-.38-2.47-.75-4.42-1.12-.06-.01-1.09-.29-1.87-.69-.91-.47-2.99-1.76-3.62-2.15-4.45-2.73-17.59-3.01-22.96-3.15-4.56-.12-9.23-.1-13.78,0-.71.02-1.41-.02-2.12,0-1.67.05-3.99.53-5.04.53h-8.48c-.19,0-.88.52-1.57.55-3.13.15-6.18.3-9.3.51ZM339.99,156.06c.35-2.3-.95-3.21-3.04-3.58-15.12-2.71-13.22,16.66-.53,14.59,1.79-.29,4.78-1.36,4.37-3.57-3.09,2.87-7.74,3.41-9.75-.86-3.42-7.25,3.25-11.84,8.95-6.57ZM356.95,156.59c.32-5.33-9.2-5.11-11.88-2.08-5.71,6.44,2.36,14.7,9.77,12.68,1.61-1.3-3.87-1.7-4.26-1.83-5.76-1.96-4.07-15.63,4.66-10.49,1.09.64.84,1.55,1.72,1.72ZM322.49,153.41h-2.12c.64,3.8,4.04,12.2-1.85,12.74-6.8.63-4.74-7.71-6.1-12.21l-3.18.54c1.7,5.74-1.05,14.17,7.67,13.8,9.19-.39,5.66-8.57,5.59-14.86ZM363.32,153.41l-3.19.28c.99,2.3.52,12.84,1.74,13.91.27.24,2.42.76,2.51.66l-1.05-14.85ZM305.53,158.18c-1.79-6.28-12.85-2.82-13.75,2.95-1.06,6.83,4.57,9.85,10.71,8.6,4.76-.98,4.32-3.69,4.09-7.84l-3.71.54c.36,1.75,1.88,4.5-.12,5.43-8.36,3.87-11.04-13.36-.15-11.25,1.4.27,1.55,1.67,2.92,1.58ZM212.22,187.87c5.61-2.76,12.38-4.64,18.56-5.3-.28-2.11.9-8.66-1.42-9.46-1.84-.12-4.22.61-6.14,1.12-9.44,2.49-19.04,7.69-27.29,12.73l-1.21,8.34c2,.65,1.99-.77,2.51-1.04,3.18-1.68,7.62-4.24,10.89-5.44,1.03-.38,1.93-.55,3.03-.41-3.81,2.54-16.69,6.53-17.91,10.99-1.09,3.99-.6,9.34-1.71,13.4l16.07-9.11c1.15-.44,2.36-.7,3.55-.96-6.53,3.93-13.8,6.89-19.34,12.2l.26,13.78c1.6,1.56,9.64-5.2,11.49-6.27,6.06-3.51,13.15-6.71,19.39-9.24,2.82-1.14,6.15-1.61,8.77-3.69l-.96-11.54c-5.87.2-11.26,2.57-16.95,3.7,4.71-2.93,10.92-4.13,16.44-4.77v-12.46c0-.64-1.12-.7-1.7-.69-5.16.12-11.33,4.17-16.33,4.13ZM291.75,189.46l-7.95,1.59c-1.51.01-3.06,1.24-4.24,1.59-7.64,2.26-14.37,4.24-21.74,7.42-.74.32-2.23-.35-2.12,1.59-.48-.08-1.63-.08-2.12,0-1.86.29-3.76,1.64-5.3,2.65-5.43,1.69-10.75,3.97-15.91,6.36-2.62,1.21-8.32,2.73-8.48,5.83-2.2.27-2.14-.6-3.31-.46-1.1.13-5.95,2.75-7.14,3.51-.52.33-.95-.05-.68,1.18,2.62.7,6.06,1.61,8.77,1.08,1.27-.25,1.02-1.17,1.44-1.48.5-.36,1.17-.02,1.45-.13-.32,1.51.88,1.16,1.85,1.08,4.11-.33,7.9-2.03,11.4-3.73.98-.48,1.1-.76,1.59-1.06,2.03-1.23,3.94-1.85,5.83-3.71.68-.15,2.65-1.28,3.27-1.59,4.3-2.15,7.45-2.42,12.11-3.18.43-.07,1.18.06,1.59-.53,4.82-.76,10.54-2.65,14.68-2.63,6.59.04,17.73,1.88,24.03,3.69.85.24,3.81,1.59,5.3,2.12.15.05,2.69.23,4.14.09l5.63-.57c.56-.22.2-.89.31-1.11,6.73-.04,17.28-3.68,24.39-5.3.87-.2,2.03-.93,2.65-1.06.87-.18,1.77-.36,2.65-.53.72-.14,1.35-.49,1.59-.53,1.61-.28,3.92-.26,5.83-.53.98-.14,2.04-.45,2.65-.53,6.59-.82,13.51-1.36,20.15-1.59.53-.02,1.06.01,1.59,0,4.36-.1,9.48-.28,13.78,0,.08,0,.76.46,1.59.53,6,.51,12.16,1.24,18.03,2.65,3.97.95,10,2.76,13.78,4.24.57.22,1.23.38,1.59.53,2.62,1.12,7.48,3.81,10.07,5.3,1.83,1.05,6.64,3.74,7.95,4.77.06.05.06.87.55,1.28,2.03,1.7,4.78,3.29,5.28,6.14-1.32-1.57-3.07-3.09-5.3-2.65,1,2.58-.49,4.73-2.81,5.94-.48.25-4.11,1.48-4.35,1.48h-10.34l.86,3.21c4.8-.07,9.37.24,14.1-.72,3.87-.79,8.37-2.24,8.38-6.73s-2.55-5.69-5.3-8.48c-3.77-3.83-4.82-4.15-9.01-6.89-2.41-1.58-5.91-3.22-8.48-4.77-.08-.05.06-.95-1.06-1.59-3.29-1.88-5.72-2.78-9.01-4.24-.65-.29-1.21-.37-1.59-.53-2.68-1.17-5.19-2.61-7.95-3.71-.89-.35-2.15-.66-3.18-1.06-2-.78-3.86-1.44-5.83-2.12-2.28-.79-3.24-2.03-6.36-2.12-.53-.02-1.06.01-1.59,0-1.36-2.03-4.98-2.33-7.42-2.92-4.94-1.2-10.3-2.13-15.38-2.38l-5.83-1.06c-.7-.04-1.42.06-2.12,0-1.82-.14-3.85-.42-5.83-.53-21.09-1.19-42.88.87-63.09,6.89Z"/><path class="cls-15" d="M354.84,182.57c-6.26,3.92,4.12,10.31,7.74,7.47,2.25-1.76-.29-5-1.72-.55-3.35.19-6.18-2.42-5.49-5.87,1.28-.24,2.52.18,3.71.28.96.07,1.83.96,1.59-.8.7.06,1.42-.04,2.12,0l-.55,3.16-4.21.55h6.36c1.1-.95-2.3-1.21-.54-1.86,5.9-2.16,8.4,7.57.01,3.46.3,3.36,4.09,1.61,5.99,2.11.38.1,4.75,3.34,6.73,3.72-.33,1.7-1.4,3.05-.53,4.77-6.64.23-13.56.77-20.15,1.59,2.65-6.18-9.13-9.7-9.54-3.18h2.12s0-2.12,0-2.12c4.41-.64,6.39,1.62,4.77,5.84-1.91.27-4.22.25-5.83.53l1.06-3.18-5.3.53,2.34.51.31,2.66c-.88.17-1.78.35-2.65.53-4.62-2.91-4.06-8.23,2.12-6.36-.24-3.33-5.17-2.23-6.6-.51-1.03,1.24-1.09,4-.29,5.28-6.2,3.36-13.92.55-20.68,2.12-.27-2.1-1.8-3.42-3.18-4.77.5-.02,1.18-.02,1.58-.29,1.1-.72,3.45-4.09,3.69-4.25.75-.52,2.34-.05,3.37-.34,1.09-.31,1.54-2,2.75-2.02,1.09,2.99,4.09.74,5.75,1.05.2.04,1.28,2.08,3.53,1.08.59-1.76-2.37-1.29-2.65-1.59-.16-1.05.92-1.44,1.07-2.41.69-4.52-8.33-8.4-9.03-3.15-.17,1.25.67.75,1.59.78.43-5.2,7.69.54,4.65,3.59-1.65,1.25-3.35.11-5.17.13l1.06-2.39-6.36.8c-.47,2.41,3.09.04,3.71.53-1.49,4.64-7.55,1.96-6.26-2.28.95-3.13,4.84.02,5.2-.38,1.43-1.6-3.54-3.88-6.33-1.29-3.2,2.96-.39,5.76,2.08,7.92-1.66.65-2.17,1.64-3.25,2.6-.32.29-1.13.17-1.4.47s0,1.2-.16,1.36c-.19.19-4.35.95-5.25,1.14-1.29.27-.93.32-1.59.53-.26.08-5.14.4-5.47.36-2.39-.28-4.77-2.96-7.25-2.49,2.08-2.92,1.17-6.89-2.65-7.42v-1.06c20.22-6.02,42-8.08,63.09-6.89ZM336.28,194.24h-1.05v.52h1.05v-.52Z"/><path class="cls-3" d="M390.89,142.28c-1.81-.03-1.14.71-3.71-.53-.38-1-1.26-2.53-.53-3.18,1.88.28,3.89,1.86,4.24,3.71Z"/><path class="cls-3" d="M332.57,117.89v.53c-.95,1.36,1.58,2.22-.04,4.46-1.69,2.33-4.73-.71-5.26-.22,1.91,4.93,9.3,2.96,7.95-2.65,2.32.74,6.1.65,8.6,1.21,4.28.96,9.96,2.78,11.29,7.27l1.04-2.65.83.5,1.57-1.55s1.52-1.19,1.58-1.18l-2.64,5.41c6.73,2.09,12.55,5.81,19.61,6.9.14,4.24,6.44,13.35,9.02,5.3.15-.13.73.38,1.05.53.38.99-.09,1.87,1.59,2.65-.56,4.28,2.87,8.69,4.26,12.97,1.12,3.44,1.69,7.07,2.57,10.58l2.14.27.04-2.61c.82.64,1.89-.02,2.12,0,.58.03,1,.53,1.06.53-.5,2.6-1.18,1.69-1.91,2.3-.79.66-1.5,1.29-2.33,1.95-.58.46-1.12.55-1.06,1.59-.79-.58-3.44-.37-3.71-.53-.06-.04-.03-.95-.54-1.29-3.85-2.62-5.81-5.56-10.6-5.07-.69.07-1.42-.05-2.12,0-.1-.46-.53-1-.53-1.06-.02-1.04.89-2.31,1.02-3.49.39-3.59-.46-7.71-3.14-10.29l2.58-.6.6-4.17-.55,1.55-2.61.05-.55,2.63c-.32-.14-1.14.09-1.59,0-.04-.16-1.48-2.77-1.61-2.9-2.03-2.16-10.34-1.56-13.39-2.51-.88-.27-1.06-1.25-2.5-1.48,1.51-4.24,2.61-7-.3-11.1-2.11-2.97-7.01-3.33-7.65.49-.39-.32-.71-.71-1.06-1.06-2.01-2.02-3.03-1.68-5.83-1.59l-1.59-1.06,1.05-1.06-2.65.53v1.58s2.65.54,2.65.54c-.19.22-.94,2.18-1.06,2.65-2.23-.72-4.19-1.63-6.63-1.64-4.09-.01-8.91,3.15-12.61,2.05-1.34-.4-3.63-3.11-5.14-3.6-.08-1.05,1.45-.25,2.16-.75.48-.34.47-1.32.5-1.9l1.58,1.06c.04-.53-.03-1.06,0-1.59.02-.35-.03-.71,0-1.06l5.31-.26,2.65-4.5h-5.83c-.68,1.98,2.65.52,2.65,1.33-1.66,5.36-7.37.36-5.84-3.98,4.56-.1,9.23-.12,13.78,0Z"/><path class="cls-16" d="M243.5,134.32c-.04,1.68.62,2.76-1.59,1.59.39,2.11-1.52,2.5-1.59,2.65l-2.58.88-.1,2.28c-3.94-.06-6.38,2.42-5.8,6.39h1.58c1.5-9,6.84-1.98,4.24,4.24-.15.37-1.56,1.97-1.95,2.08l-2.82-1.01c.06,1.04-.1,2.14,0,3.18.08.84.61,1.74.54,2.66l1.27-.47.82.75.03,7.66-2.12-1.06c.16-1.38-.88,4.81-1.05,3.46-.1-.77-.65-.04-1.3.82h0c-2.63.86-5.02,1.81-7.72,2.09.14-2.07-2.95-4.72-1.87-6.37.65-.98,1.96-.16,1.88-2.91-.02-.77.13-.97-.82-.81-2.13.35-1.96,2.55-1.85,4.25-4.17-1.32-6.49,2.48-5.83,6.36,2.21.12,1.32-2.64,2.07-3.89,1.44-2.38,4.69,1.05,3.76,3.36-3.33,1.89-6.68,1.79-9.13,3.2-1.08.63-.65,1.7-3.07,2.1-.28-1.75.52-7.5,2.46-7.88l2.84.99c.39-3.39-2.21-3.34-4.77-2.65l-.54-2.66-2.11.53c.33-2.14-.15-2.36-2.12-2.65,4.18-8.01,9.64-15.19,16.44-21.21l4.76,2.91c-4.56,5.12-.2,18.82,6.37,10.34.18-.24.52-.2,0-.53.36-1.09.42-2.59.93-3.59.66-1.29,2.01-.74,1.72-2.24-.77-.14-7.21,1.51-6.36,2.11h2.65c.22,1.59-1,5.46-3.16,4.53-3.39-2.74-2.2-7.03-.02-10.12l3.44.3c.96-3.06-3.13-2.96-5.02-1.6l-.25-2.16-2.94-1.02c6.22-5.08,10.01-7.75,17.5-11.13-.36,2.01,1.34,3.91,3.18,4.24ZM226.53,158.72l-2.68.23-.49,2.95c2.41.47,2.91-1.1,3.18-3.18Z"/><path class="cls-13" d="M268.95,136.98l-.53,4.24c2.21.15,1.12-4.09,3.42-4.24,3.69-.09,4.93,8.74,1.34,10.36-1.94.87-1.95-1.36-3.7-1.34-.25,4.24,4.89,4.51,6.89,1.59,2.94,3.31,6.67-2.56,8.86-3.07,2.83-.65,5.41.97,6.16.84s3.45-2.08,4.99-2.42c1.27-.28,2.57-.09,3.85-.12.42.93,1.61,1.45,1.59,2.65-5.96.86-13.88,2.03-19.64,3.43-2.64.64-4.33.98-4.24,4.23.14,5.07,1.47,12.51,2.14,17.79-3.28,1.87-6.19.46-9.2.57-3.51.12-8.07,2.91-11.48,1.56,1.04-3.63,1.63-6.25.1-9.91-.63-1.5-1.97-2.43-2.23-3.87.89-.12,1.77-.16,2.58-.61l.07-3.1-2.57.61c-.2.33-.18,2.55-.08,3.1-2.29.3-4.07-.23-5.3,2.65-.47-.09-1.22.13-1.59,0-1.92-.68-2.92-2.25-5.3,0h-.53l-1.04-3.5c-.64-.45-1.53.3-2.14.31-.23-2.39-.22-3.3-3.18-3.19,1.22-1.05.77-2.25,1.06-3.18,1.62.14.77.95,1.33,1.07l1.32-1.07c.68,3.19,8.17,4.22,10.87,3.71,1.52-.29,1.73-2.51,3.17-3.72,1.51-1.27,3.92-1.43,5.04-3.17,2.08,2.96,5.37,2.43,7-.69,1.19-2.29.23-4.24,2.55-5.66-2.09-.05-4.63-.07-6.36,1.32l3.18.27c-2.3,10.28-8.65-.73-4.25-5.58,1.9-1.17,3.82,1.29,4.25.8l-.53-2.65c.55.03,1.71.11,2.12,0ZM262.58,151.82l-2.41.5-.23,2.68,2.41-.5.23-2.68Z"/><path class="cls-5" d="M213.81,201.66c5.69-1.13,11.09-3.5,16.95-3.7l.96,11.54c-2.62,2.08-5.95,2.54-8.77,3.69-6.24,2.53-13.33,5.72-19.39,9.24-1.85,1.07-9.89,7.83-11.49,6.27l-.26-13.78c5.55-5.31,12.82-8.28,19.34-12.2.17-.04.36.03.53,0,.48-.08,1.08.07,1.59,0v-1.06c.17-.03.36.03.53,0Z"/><path class="cls-12" d="M232.9,156.59c1.84.88,3.5-.28,5.3-.53l.5,2.43c.86.37,1.78.25,2.68.23.08.85-.16,1.74.06,2.59l3.12.59h.53c-5.18,4.89-.68,20.11,5.32,13.54,2.36-2.59.13-6.56,3.69-6.65.14-.88-1.28-.57-1.87-.55-1.56.05-2.95.5-4.49.56-.56,1.96,2.22.66,2.65,1.06.27,5.08-4.37,7.04-5.27,1.29-.59-3.74.39-10.69,5-6.59l.27-2.66c.37.13,1.12-.09,1.59,0-.54,1.26-.58,2.87-.53,4.24,1.4.27.92-.29,1.3-1.06.45-.94,1.13-3.93,2.6-3.67,3.94,1.47,4,12.63-.35,11.55-.93-.23-1.25-1.78-2.49-1.51-.14,5.02,2.7,3.4,5.83,3.18.17-1.34,1.03-1.5,1.06-1.59,3.41,1.35,7.97-1.44,11.48-1.56,3.01-.1,5.92,1.31,9.2-.57.16,1.27.34,2.46.53,3.71-2.63-.33-3.52,1.22-3.18,3.71v.53c-3.54-1.29-4.63,1.01-5.3,3.71h-1.59l-.87-2.58c-1.39-.15-3.23-.34-4.43.46.27-3.48-1.97-2.57-3.07-3.29-.99-.66.45-2.84-3.82-2.54-.1.74-.16,2.53.49,2.95l2.67.25.52,2.39,2.68.76c-.07.1-1.03,2.01-1.06,2.12-3.65,1.33-16.92,1.97-18.03-2.65-.15-.61.18-2.48,0-2.65-2.48-.74-2.35,1.36-2.65,1.59-.11.08-1-.07-1.53.3-2.28,1.6-4.16,2.38-2.71,5.53-1.32.42-3.27,1.22-3.71,2.65-.58-.45-1.01-.4-1.59,0l-1.63-1.35c.96-5.6.16-11.32.57-16.93.11-1.43.98-2.77,1.05-3.46l2.12,1.06-.03-7.66-.82-.75-1.27.47c.07-.91-.46-1.82-.54-2.66Z"/><path class="cls-9" d="M212.22,187.87c5,.04,11.17-4.02,16.33-4.13.58-.01,1.7.05,1.7.69v12.46c-5.51.64-11.72,1.84-16.44,4.77-.17.03-.36-.03-.53,0-.48.08-1.08-.07-1.59,0v1.06c-.17.03-.36-.04-.53,0-1.19.26-2.4.52-3.55.96l-16.07,9.11c1.11-4.06.62-9.4,1.71-13.4,1.22-4.46,14.1-8.45,17.91-10.99l1.06-.53Z"/><path class="cls-2" d="M279.55,192.64c-6.03,5.69,5,11.84,7.69,4.77,1.82,3.11,4.63.61,6.79,1.06.36.07.33.85.79,1.01,1.86.64,4.04,1.11,5.94,1.65-1.17,2.7-1.54,4.71,0,7.42-6.29-1.81-16.16-3.4-22.75-3.45-4.13-.03-11.26,1.95-15.96,2.39-.17.02-1.93-1.7-3.18-1.06.8-2.58,1.02-4.39-1.06-6.36,7.37-3.18,14.1-5.16,21.74-7.42Z"/><path class="cls-3" d="M316.67,117.89c-1.63,4.02,1.22,4.89,2.65,7.42-2.39-.77-1.5,2.14-2.2,2.58-.92.58-3.58-.7-3.63,2.72-1.87-.5-4.05.79-5.3,2.12-.02-.06-.8-.39-1.06-.53-1.45-.81-4.33-1.27-5.83-.53l-1.59-.53.53,1.59c-.05.07-.44,1.29-.53,1.59-2.13.21-3.91-.13-5.94-.68-1.77-.48-6.32-3.56-7.25-2.96l-3.07,4.63c-.36.09-4.69-.87-5.11-1.08-1.1-.56-1.92-2.84-.37-3.08l1.63.82.5-2.94c2.38.57,5.6-.11,6.36-2.65.33-.05.78.08,1.06,0,.21,2.9,4.42,1.08,6.04,1.55.76,3.04,1.61,1.73,3.5,2.16.14.03.69.39,1.06.53,0,.21-.76.92-.53,1.06,1.28.05,1.84.34,1.59-1.05-.33-.08-.82.09-1.06,0-.03-.77-.44-.85-.53-1.06-.71-1.79-1.09-2.04-3.18-2.13.97-3.4,1.22-6-2.12-7.95,3.12-.21,6.17-.36,9.3-.51.69-.03,1.38-.55,1.57-.55h8.48c1.04,0,3.37-.48,5.04-.53Z"/><path class="cls-16" d="M242.97,179.39v1.59s2.65-.53,2.65-.53c1.1,4.62,14.38,3.98,18.03,2.65-1.19,4.04-.95,9.11,2.12,12.19-5.61,2.16-12.64,5.38-18.12,7.06-1.01.31-2.02.45-3.08.36-.09-1.54-1.75-2.48-3.18-2.13,3.69-5.23,2.02-10.18-.53-15.36,1.81-.12,2.7-.99,2.61-2.85l-2.65-.64-.5,3.48c-.48.13-1.19-.12-1.58,0-1.45-3.15.44-3.93,2.71-5.53.52-.37,1.42-.22,1.53-.3Z"/><path class="cls-5" d="M211.16,188.4c-1.1-.14-2,.04-3.03.41-3.27,1.19-7.71,3.76-10.89,5.44-.52.27-.51,1.69-2.51,1.04l1.21-8.34c8.25-5.04,17.84-10.24,27.29-12.73,1.92-.51,4.3-1.23,6.14-1.12,2.32.8,1.14,7.35,1.42,9.46-6.18.66-12.94,2.54-18.56,5.3l-1.06.53Z"/><path class="cls-15" d="M391.42,189.46c1.27,1.9,1.15,3.15,4.11,4.11l9.68.13c1.03.4,2.3.71,3.18,1.06,1.1,1.2,2.03,1.15,1.59,3.18l6.36.53c.38.16.94.24,1.59.53l-1.93,3.15c-1.19.35-4.44-3.45-4.97.03-5.86-1.41-12.03-2.14-18.03-2.65.45-3.54-4.29-5.32-7.17-4.77-1.07.2-1.23,1.03-1.31,1.05-.24.09-1.21.04-1.59,0-.11-2.63-3.9-1.35-5.83-1.59-.49-2.12-4.5-3.22-6.37-3.72,1.12-2.89.4-4.67-2.12-6.36,5.08.25,10.44,1.18,15.38,2.38,2.43.59,6.05.89,7.42,2.92Z"/><path class="cls-2" d="M319.32,125.31c.17.29.16.8.53,1.06-.03.53.03,1.06,0,1.59l-1.58-1.06c-.02.58-.02,1.56-.5,1.9-.71.5-2.24-.3-2.16.75,1.51.49,3.8,3.21,5.14,3.6,3.71,1.1,8.52-2.06,12.61-2.05,2.44,0,4.4.92,6.63,1.64-.29,1.16-.62,2.66-.43,3.84,1.18,7.18,10.36,9.7,10.04.45,1.02-.17,1.82.41,1.52-1.1l-6.36.53,2.65.52c.08,1.55.03,3.85-1.83,4.24-3.4.09-5-7.65-2.42-9.83,2.28-1.42,4.46,3.74,4.26-.24.35.35.67.74,1.06,1.06-.11.64.06,1.44,0,2.12h2.11c-.26-2.11.19-4.05,2.65-2.92,3.55,1.64,3.37,11.63-1.05,9.55-.25-.12-2.52-2.67-2.14-.53.59,3.3,4.3,2.05,6.37,2.38-.11.31.32,1.08-.31,1.08-5.79-.15-11.73-1.41-17.43-.53-7.55.17-15.58,0-23.08.51,1.65-3.15,2.73-6.33.98-9.73-.31-.61-2.61-3.39-3.1-3.52.05-3.42,2.71-2.14,3.63-2.72.7-.44-.2-3.35,2.2-2.58Z"/><path class="cls-15" d="M412.63,189.46c-2.2.26-4.21-.35-5.85-1.84-2.49-4.69-4.62-12.44-8.11-16.28-.64-.7-.43-1.33-1.94-.97.83-.65,1.53-1.28,2.33-1.95.73-.61,1.41.3,1.91-2.3,1.34-.02,2.85.22,3.71-1.06,3.26,7.79,6.34,15.96,7.95,24.39Z"/><path class="cls-16" d="M281.14,177.8c.26,1.48-.56,4.47,1.9,4.6,6.43-1,12.84-2.18,19.3-3.01.2,1.5-.57,3.69.53,4.77-7.23,1.65-15.29,4.47-22.8,6.36.87-2.98.92-6.42-.61-9.2-.16-.3-1.89-2.41-2.04-2.46v-.53l3.71-.53Z"/><path class="cls-16" d="M235.02,187.87c-.43,1.4-1.15,5.38,1.06,4.24,1.44-10.8,7.76-.26,4.47,5.79-1.86,3.42-4.24-.2-4.99.58-.16,4.74,3.47,2.37,5,2.7.29.06,1.45,2.92,2.95,3.13-.77.47-10.73,4.68-11.13,4.24-.13-2.24.51-4.7.53-6.89,2.67-.28,1.83-4.42,2.63-6.03.41-.82,2.06.36,1.61-1.39l-4.77.53c-.01-.1-.48-.57-.55-1.28-.19-1.93-.18-4.39,1.61-5.61.58-.4,1.01-.45,1.59,0Z"/><path class="cls-10" d="M291.75,190.52c3.82.52,4.73,4.5,2.65,7.42,2.48-.47,4.86,2.2,7.25,2.49.34.04,5.21-.28,5.47-.36,1.46,3.15-1.5,1.5-2.92,1.54-4.35.11-1.76,9.33,2.69,6.45l.23-2.15h-2.65c-.95-.67,5.56-2.07,6.36-1.59.16.8-.58.27-1.05.92-.21.29.09,1.01-.01,1.19-.02.04-.72-.12-.89.14-.75,1.13-.07,3.67-2.82,4.1-1.49-.53-4.46-1.88-5.3-2.12-1.54-2.7-1.18-4.72,0-7.42-1.91-.54-4.09-1-5.94-1.65-.46-.16-.43-.94-.79-1.01-2.16-.45-4.97,2.05-6.79-1.06-2.68,7.07-13.72.92-7.69-4.77,1.18-.35,2.73-1.58,4.24-1.59l1.06,2.12c-8.27-1.42-4.43,9.26-.03,5.54,1.18-.99,1.19-2.92,3.74-2.35v1.06s3.75-.23,3.75-.23c1.07-2.41,1.09-5.08-1.93-5.56-2.35-.37-1.84.19-1.81,2.08-.53.08-1.29.81-2.12.53-.28-3.42,2.36-4.11,5.3-3.71Z"/><path class="cls-13" d="M396.72,170.38c1.51-.36,1.3.26,1.94.97,3.49,3.85,5.62,11.6,8.11,16.28,1.64,1.48,3.65,2.1,5.85,1.84.12.65,1.12,4.26.26,4.25l-14.04-5.84-1.47-1.85c1.71-2.13,1.78-5.23,1.34-7.84-.18-1.05-2.41-5.75-3.05-6.22-.06-1.04.48-1.13,1.06-1.59Z"/><path class="cls-15" d="M378.17,131.67c-.42,1.56-1.12,2.48-1.06,4.24-7.06-1.1-12.88-4.81-19.61-6.9l2.64-5.41c1.96.38,3.76,1.02,5.31,1.4,3.54.86,9.48,4.67,12.73,6.67Z"/><path class="cls-12" d="M390.89,173.03c-.41,1.11-.49,3.02-.53,4.24,2.19.11,1.18-2.35,2.08-3.49,4.71-3.46,7.16,16.24-.48,9.32l1.59,3.71c-3.06-.7-2.34-.9-3.71-1.59l2.65-6.36h-5.83s2.62,1.92,2.62,1.92l-1.03,3.91c-.36-.12-1.74-.47-2.12-.53-1.71-1.91-3.17-10.23-.2-11.1,2.04-.6,1.96,2.54,3.11,2.08s.56-1.86.27-2.65c.43.2,1.14.18,1.59.53Z"/><path class="cls-2" d="M308.18,132.73c.22.62-.23,2.96,0,3.18h1.59c-.89-4.65,4.33-4.52,5.19-.69.33,1.46.41,5.98-.94,6.79-1.85,1.08-2.99-.88-4.78-.8l1.06,3.18c-.87.08-1.79-.1-2.65,0,.77-.99.95-5.53,1.14-5.76.25-.31,1.95.02,2.04-1.13-.7-.19-7.95.81-6.89,1.58h3.18c-.6,7.1-5.76,4.21-5.87-1.32-.07-3.49,2.08-7.11,5.09-3.45l.79-2.12c.26.14,1.04.47,1.06.53Z"/><path class="cls-16" d="M278.49,190.52c-1.54.35-3.12,1.74-5.3,1.06,0-.52-.53-1.24-.48-1.86.09-.99,1.32-1.7,1.01-2.91l-5.83,1.06c-.45,1.96,2.1.37,2.62,1.92l-.49,3.37c-.59.18-1.81.75-2.65,1.06-2.39-3.64-3.4-8.6-.19-12.13,2.12-.98,2.93,3.62,3.37.47h1.59c-.18.72-.77,1.46-.54,2.38,3.01,1.43,1.56-2.97,2.62-3.75,5.24-.84,4.3,5.78,4.28,9.32Z"/><path class="cls-16" d="M203.21,165.07l5.29,4.26c-1.21,2.61-1.96,4.75-2.12,7.66-.04.81.53.76.54.81.05.42-.2,1.02-.54,1.29l-9.53,5.07c1.35-6.54,3.47-13.08,6.36-19.09Z"/><path class="cls-4" d="M450.8,224.98c0,4.5-4.51,5.95-8.38,6.73-4.73.96-8.14,1.1-12.94,1.17l-1.03-4.12,9.35.46c.24,0,3.87-1.23,4.35-1.48,2.32-1.2,3.81-3.35,2.81-5.94,2.23-.44,3.98,1.07,5.3,2.65.16.19.29.41.53.53Z"/><path class="cls-16" d="M343.17,176.74l.53,3.71c-2.71.03-5.98.53-8.22.53h-7.95c-1.32,0-6.09.4-7.69.53v-4.24c7.67-.59,15.62-.57,23.33-.53Z"/><path class="cls-16" d="M382.41,178.86c.11,2.05.15,3.64,1.59,5.3-7.22-1.15-14.48-2.14-21.72-3.2l.86-3.18c3.31-.77,9.26,1.3,11.83.27.5-.2.99-1.22,1.6-1.31,1.67-.24,3.85,2.75,5.83,2.12Z"/><path class="cls-8" d="M305.53,158.18c-1.37.09-1.53-1.3-2.92-1.58-10.89-2.11-8.21,15.13.15,11.25,2-.93.48-3.68.12-5.43l3.71-.54c.22,4.14.66,6.86-4.09,7.84-6.14,1.26-13.91-2.47-10.71-8.6,2.7-5.18,11.96-9.23,13.75-2.95Z"/><path class="cls-2" d="M340.52,203.78c-7.11,1.62-18.36,6.13-25.09,6.17.99-2.13,2.62-4.16,2.29-6.7,6.75-1.58,14.48,1.24,20.68-2.12.35.56,2.33,1.19,2.12,2.65Z"/><path class="cls-12" d="M248.27,204.31c-.88.57-1.91.25-1.59,1.59l4.23-.8c-.66,2.58-1.88,4.52-4.9,3.89-1.61-.34-2.22-2.34-4.1-2.03-.58,1.98,2.83,3.59,4.24,3.71-.12.73-.55,1.62-1.06,2.12-1.89,1.86-3.8,2.48-5.83,3.71-.19-1.68-1.25-2.88-2.65-3.71v-1.59s-1.06,0-1.06,0v1.06c-.16-.01-.38-.03-.53,0l-2.65-1.59c5.15-2.39,10.47-4.67,15.91-6.36Z"/><path class="cls-15" d="M332.57,117.89c5.37.14,18.51.42,22.96,3.15.63.39,3.76,1.97,4.6,2.56l-3.15,2.73-.83-.5-1.04,2.65c-1.33-4.5-7-6.31-11.29-7.27-2.5-.56-6.28-.47-8.6-1.21-.48-.15-1.75-1.51-2.65-1.59v-.53Z"/><path class="cls-8" d="M339.99,156.06c-5.7-5.28-12.37-.68-8.95,6.57,2.02,4.27,6.66,3.73,9.75.86.41,2.22-2.58,3.28-4.37,3.57-12.69,2.07-14.59-17.31.53-14.59,2.08.37,3.38,1.28,3.04,3.58Z"/><path class="cls-4" d="M238.73,185.22c.38-.12,1.1.13,1.58,0l.5-3.48,2.65.64c.08,1.87-.81,2.74-2.61,2.85,2.55,5.19,4.22,10.13.53,15.36,1.43-.36,3.09.59,3.18,2.13.05.83-.42,1.2-1.06,1.59-1.49-.21-2.66-3.07-2.95-3.13-1.54-.33-5.16,2.04-5-2.7.76-.78,3.13,2.85,4.99-.58,3.29-6.05-3.02-16.58-4.47-5.79-2.2,1.14-1.49-2.84-1.06-4.24s2.39-2.23,3.71-2.65Z"/><path class="cls-8" d="M322.49,153.41c.07,6.29,3.6,14.47-5.59,14.86s-5.97-8.06-7.67-13.8l3.18-.54c1.36,4.51-.7,12.84,6.1,12.21,5.89-.54,2.49-8.95,1.85-12.74h2.12Z"/><path class="cls-2" d="M290.69,119.48c-.01,1.57,1.62,1.2,2.02,3.04s.02,4.48-2.28,4.34c-1.42-.09-1.1-1-2.92-.48-.28.08-.73-.05-1.06,0,.41-1.38-.56-1.83,1.59-3.18l-6.89.53c-.51,2.38,3.41.21,3.71.53-.31,3.32-2.55,4.91-5.06,2.14s-.79-3.7.29-6.38c1.9-.16,3.92.15,5.83,0l-.53,2.65h.78s1.25-.62,1.25-.62l.08-2.56c1.05-.08,2.13.07,3.18,0Z"/><path class="cls-4" d="M222.82,141.22l2.94,1.02.25,2.16c1.89-1.36,5.98-1.47,5.02,1.6l-3.44-.3c-2.17,3.09-3.37,7.38.02,10.12,2.16.93,3.39-2.94,3.16-4.52h-2.65c-.86-.61,5.59-2.26,6.36-2.12.29,1.51-1.06.95-1.72,2.24-.51.99-.57,2.49-.93,3.59v.53c-6.57,8.48-10.93-5.22-6.37-10.34l-4.76-2.91c.96-.85,1.87-.86,2.12-1.06Z"/><path class="cls-8" d="M356.95,156.59c-.88-.17-.63-1.08-1.72-1.72-8.73-5.14-10.42,8.53-4.66,10.49.39.13,5.87.53,4.26,1.83-7.4,2.02-15.47-6.24-9.77-12.68,2.68-3.03,12.21-3.26,11.88,2.08Z"/><path class="cls-12" d="M378.17,164.01c0,.06.43.6.53,1.06.19.86.43,1.72.6,2.59.49.21,1.02.01,1.52.06.4,2.54.86,2.7,3.18,3.18.17.03.36-.04.53,0-2.16,2.52-2.29,4.76-2.12,7.95-1.98.63-4.17-2.36-5.83-2.12,0-.71,0-1.41,0-2.12.83-.18.56-1.19,0-1.59-.12-2.58-.24-5.99-.53-8.48l2.12-.53Z"/><path class="cls-10" d="M307.12,132.2l-.79,2.12c-3-3.66-5.16-.04-5.09,3.45.11,5.54,5.27,8.42,5.87,1.33h-3.18c-1.06-.78,6.19-1.78,6.89-1.59-.09,1.15-1.79.82-2.04,1.13-.19.23-.37,4.77-1.14,5.76-1.52.17-3.93.79-5.83,1.06.02-1.2-1.17-1.72-1.59-2.65-1.31-2.91-1.44-5.39-.53-8.48.09-.3.48-1.52.53-1.59.04-.06.99-1.03,1.06-1.06,1.51-.74,4.38-.28,5.83.53Z"/><path class="cls-10" d="M379.76,133.26c-1.41,3.34.36,8.68,4.24,9.01l.56-3.42-2.67-1.34h4.24s.53,1.06.53,1.06c-.73.65.15,2.19.53,3.18-.32-.15-.91-.66-1.05-.53-2.58,8.04-8.88-1.06-9.02-5.3-.06-1.76.64-2.68,1.06-4.24.9.55,1.29,1.39,1.59,1.59Z"/><path class="cls-10" d="M390.89,142.28c2.04.03,1.68,1.68,2.12,2.12-.12-.12-.54.08-.53.27.04.58.78-.02.53-.27,3.25,3.28,4.71,5.11,6.89,9.54-2.56,2.27-.86,12.17,3.71,9.54.13.21.21-.45,1.06,1.59-.86,1.28-2.37,1.04-3.71,1.06-.06,0-.48-.5-1.06-.53-1.14-2.34-2.84-4.5-3.14-7.21-.22-1.92,1.08-6.02.79-6.58-.61-1.18-3.38-1.24-2.41-4.24l-2.59-.06c-.38-3.67-1.61-2.11-3.78-3.12-1.68-.78-1.21-1.67-1.59-2.65,2.57,1.24,1.9.5,3.71.53Z"/><path class="cls-10" d="M257.82,200.07c2.08,1.97,1.86,3.77,1.06,6.36,1.26-.64,3.01,1.03,3.18,1.06-.41.59-1.19.37-1.59.53-.88.07-3.04-.99-3.36-.97-.58.04-1.36.86-2.26.97-1.18.15-2.38-.54-3.07-.41-1.12.2-2.32,3.33-5.63,3.06-1.41-.12-4.82-1.73-4.24-3.71,1.88-.31,2.48,1.69,4.1,2.03,3.02.63,4.25-1.32,4.9-3.89l-4.23.8c-.32-1.34.71-1.01,1.59-1.59,1.55-1.01,3.44-2.36,5.3-2.65l.21,2.12-2.33,1.06,1.59.53-1.06,1.06c3.1.52,6.21-.69,5.05-4.28-.31-.49-.87-.41-1.35-.49-.11-1.94,1.38-1.27,2.12-1.59Z"/><path class="cls-10" d="M231.84,213.85c-.9,1.82-.09,1.29,1.06,1.06l-1.32,2.12-.27-2.13-1.56.02c.27,2.66-2.56,2.05-3.95,3.21-.74.62-.89,1.89-1.38,2.07-.28.11-.95-.23-1.45.13-.43.31-.17,1.23-1.44,1.48-2.71.53-6.15-.38-8.77-1.08-.26-1.24.16-.85.68-1.18,1.19-.76,6.04-3.38,7.14-3.51,1.17-.14,1.11.72,3.31.46s5.66-1.82,7.95-2.65Z"/><path class="cls-3" d="M417.93,199.01c3.29,1.47,5.72,2.36,9.01,4.24.3,1.81-2.71.56-2.12,3.18-3.78-1.48-9.82-3.29-13.78-4.24.52-3.48,3.78.32,4.97-.03l1.93-3.15Z"/><path class="cls-4" d="M395.66,171.97c.64.47,2.88,5.18,3.05,6.22.44,2.61.37,5.71-1.34,7.84l1.47,1.85c-1.93-.13-3.5-.65-5.3-1.06l-1.59-3.71c7.64,6.92,5.19-12.78.48-9.32-.89,1.13.11,3.6-2.08,3.49.04-1.22.12-3.13.53-4.24.12-.32,1.03-.95,1.06-1.59.27.16,2.92-.05,3.71.53Z"/><path class="cls-16" d="M237.67,217.56c-3.5,1.7-7.29,3.4-11.4,3.73-.98.08-2.17.43-1.85-1.08.49-.18.63-1.45,1.38-2.07,1.4-1.16,4.22-.55,3.95-3.21l1.56-.02.27,2.13,1.32-2.12c2.65-.54,4.97-1.08,4.77,2.65Z"/><path class="cls-2" d="M291.75,189.46v1.06c-2.93-.4-5.58.29-5.3,3.71.83.29,1.59-.45,2.12-.53s1.07.04,1.59,0v.79s-1.49.37-1.49.37l-.1,1.49c-2.54-.57-2.56,1.36-3.74,2.35-4.4,3.73-8.24-6.95.03-5.54l-1.06-2.12,7.95-1.59Z"/><path class="cls-10" d="M313.48,130.61c.5.13,2.79,2.91,3.1,3.52,1.75,3.4.67,6.58-.98,9.73-1.64.11-3.56.38-5.3.53l-1.06-3.18c1.79-.08,2.93,1.89,4.78.8,1.35-.81,1.27-5.33.94-6.79-.86-3.83-6.08-3.97-5.19.69h-1.59c-.23-.23.22-2.57,0-3.19,1.25-1.33,3.44-2.62,5.3-2.12Z"/><path class="cls-2" d="M254.63,124.78c1.29,4.04.2,8.28-4.77,6.36-1.23-2.23-.43-2.34,1.06-3.71l-5.83,1.06,2.12,1.06c-.52,4.51-3.56,4.17-5.3.53,4.68-2.05,7.41-3.64,12.72-5.3Z"/><path class="cls-16" d="M317.73,177.8v4.24c-2,.13-3.58.67-5.83.53l2.65-2.65-6.89.54c-.48,1.97,1.78.51,2.55,1.18.24.21.04.89.1.93-1.33,1.53-4,1.17-5.83,1.59v-4.77c4.45-.55,8.76-1.21,13.25-1.59Z"/><path class="cls-16" d="M345.82,176.74c4.81.09,9.58.04,14.35.76l.5,3.48c-1.68-.09-3.4.13-5.08.02-.68-.05-1.21-.55-1.28-.55l.02-2.41c-1.01-.43-2.14-.23-3.2-.24l.53,2.65c-1.93-.05-3.9,0-5.83,0v-3.71Z"/><path class="cls-8" d="M363.32,153.41l1.05,14.85c-.09.1-2.24-.43-2.51-.66-1.22-1.06-.75-11.61-1.74-13.91l3.19-.28Z"/><path class="cls-4" d="M270.54,182.57c-.44,3.15-1.25-1.45-3.37-.47-3.21,3.53-2.2,8.5.19,12.13-1.18.44-1.45,1.01-1.59,1.06-3.07-3.08-3.31-8.16-2.12-12.19.03-.11.99-2.02,1.06-2.12.07-.1.43-.46.53-.53,1.2-.8,3.04-.6,4.43-.46l.87,2.58Z"/><path class="cls-4" d="M204.27,163.48c1.98.29,2.45.52,2.12,2.65l2.11-.53.54,2.66c2.56-.7,5.16-.74,4.77,2.65l-2.84-.99c-1.94.38-2.74,6.13-2.46,7.88-.49.08-1.08-.05-1.59,0,0-.05-.58,0-.54-.81.16-2.91.9-5.05,2.12-7.66l-5.29-4.26c.34-.7.82-1.14,1.06-1.59Z"/><path class="cls-16" d="M368.62,184.16c2.52,1.69,3.24,3.46,2.12,6.36,1.87.5,5.88,1.6,6.37,3.72-.17-.02-.36.03-.53,0-1.99-.38-6.35-3.62-6.73-3.72-1.9-.5-5.69,1.26-5.99-2.11,8.39,4.11,5.89-5.62-.01-3.46-1.76.65,1.64.91.54,1.86h-6.36s4.21-.55,4.21-.55l.55-3.16,5.83,1.06Z"/><path class="cls-10" d="M280.08,120.01c-1.08,2.69-2.74,3.67-.29,6.38s4.75,1.18,5.06-2.14c-.3-.32-4.22,1.85-3.71-.53l6.89-.53c-2.15,1.35-1.18,1.8-1.59,3.18-.76,2.54-3.99,3.22-6.36,2.65-2.16-.52-4.12-4.68-3.71-6.89.08-.44,1.17-1.31,1.06-2.12.87-.08,1.78.07,2.65,0Z"/><path class="cls-3" d="M382.94,195.82c.38.04,1.35.09,1.59,0-.91,1.83-.24,2.23,1.59,1.19l.29-1.23c2.36-.38,4.44.81,5.02,3.22-4.3-.28-9.42-.1-13.78,0l.86-3.77c1.57-.88,2.9.44,4.44.58Z"/><path class="cls-4" d="M277.43,178.86c.15.05,1.88,2.17,2.04,2.46,1.52,2.78,1.48,6.22.61,9.2-.44.11-1.13-.1-1.59,0,.02-3.54.96-10.15-4.28-9.32-1.06.78.39,5.18-2.62,3.75-.24-.92.36-1.66.54-2.38.67-2.7,1.76-5,5.3-3.71Z"/><path class="cls-15" d="M277.43,120.01c.11.81-.98,1.68-1.06,2.12l-19.09,3.18c-.02-.16-.57-.66-.53-1.06,7.04-2.02,13.24-3.55,20.68-4.24Z"/><path class="cls-4" d="M389.3,172.5c.29.79.88,2.18-.27,2.65s-1.07-2.68-3.11-2.08c-2.97.87-1.51,9.19.2,11.1-.66-.1-1.46.1-2.12,0-1.44-1.66-1.48-3.25-1.59-5.3-.17-3.2-.04-5.44,2.12-7.95,2.41.54,2.52.53,4.77,1.59Z"/><path class="cls-10" d="M318.79,117.89c-1.53,4.34,4.17,9.34,5.84,3.98,0-.81-3.34.65-2.65-1.33h5.83s-2.65,4.51-2.65,4.51l-5.31.26c-.03.35.03.71,0,1.06-.37-.26-.36-.77-.53-1.06-1.43-2.53-4.28-3.4-2.65-7.42.71-.02,1.41.02,2.12,0Z"/><path class="cls-4" d="M220.7,172.5c.93-2.31-2.32-5.74-3.76-3.36-.75,1.24.13,4.01-2.07,3.89-.67-3.88,1.66-7.69,5.83-6.36-.1-1.7-.27-3.9,1.85-4.25.95-.16.8.04.82.81.07,2.75-1.24,1.92-1.88,2.91-1.09,1.64,2.01,4.29,1.87,6.37-.66.07-2.37-.16-2.65,0Z"/><path class="cls-3" d="M386.12,137.51h-4.24s2.67,1.35,2.67,1.35l-.56,3.42c-3.87-.33-5.65-5.67-4.24-9.01.17.11,1.16.01,1.87.49,1.6,1.09,3.51,2.07,4.49,3.75Z"/><path class="cls-10" d="M256.76,124.25c-.04.4.51.9.53,1.06.3,2.49-.36,4.75-1.59,6.88,2.62.15,2.81,2.09,3.18,4.25-1.47.44-.95-.92-1.58-1.3-2.36-1.41-3.36-1.54-5.99-2.01-.89-.16-1.69-.3-1.44-1.46v-.53c4.97,1.92,6.06-2.32,4.77-6.36.69-.22,1.42-.33,2.12-.53Z"/><path class="cls-4" d="M375.51,149.7c.05.02.38.38.53.53,2.68,2.58,3.53,6.7,3.14,10.29-.13,1.18-1.04,2.45-1.02,3.49l-2.12.53c-.07-.59-.4-1.62-.53-2.65,1.16.26,1.29-.55,1.45-1.44.52-2.87.42-7.73-3.04-8.63-.12-.64.15-1.55,0-2.12.45.09,1.27-.14,1.59,0Z"/><path class="cls-10" d="M292.28,119.48c3.34,1.95,3.08,4.54,2.12,7.95,2.09.08,2.48.34,3.18,2.13l-.53.53c-1.89-.43-2.75.89-3.5-2.16-1.62-.47-5.83,1.35-6.04-1.55,1.81-.51,1.5.4,2.92.48,2.3.14,2.67-2.56,2.28-4.34s-2.04-1.47-2.02-3.04c.53-.04,1.06.03,1.59,0Z"/><path class="cls-13" d="M428,204.84c2.57,1.55,6.07,3.19,8.48,4.77v2.65c-2.59-1.5-7.45-4.18-10.07-5.3l1.59-2.12Z"/><path class="cls-16" d="M360.67,183.1c.23,1.76-.63.88-1.59.8-1.19-.09-2.43-.51-3.71-.28-.69,3.45,2.13,6.06,5.49,5.87,1.43-4.46,3.97-1.22,1.72.55-3.62,2.84-13.99-3.55-7.74-7.47,1.98.11,4.02.39,5.83.53Z"/><path class="cls-4" d="M241.91,130.08c1.74,3.64,4.78,3.98,5.3-.53l-2.12-1.06,5.83-1.06c-1.49,1.36-2.29,1.48-1.06,3.71v.53c-2.31.45-1.47,2.3-4.24,2.65-.53.07-1.63.09-2.12,0-1.84-.34-3.54-2.23-3.18-4.24.33-.15,1.25.15,1.59,0Z"/><path class="cls-15" d="M399.9,153.94c1.29,2.64,2.96,8.26,3.71,9.54-4.57,2.63-6.27-7.28-3.71-9.54Z"/><path class="cls-13" d="M260.47,208.02c-4.5,1.07-5.26.24-9.55,2.39-.62.31-4.23,2.17-5.82,2.39.51-.5.94-1.4,1.06-2.12,3.31.27,4.51-2.86,5.63-3.06.69-.13,1.89.56,3.07.41.9-.11,1.67-.93,2.26-.97.31-.02,2.48,1.04,3.36.97Z"/><path class="cls-10" d="M338.4,201.13c-.8-1.28-.75-4.05.29-5.28,1.44-1.72,6.36-2.82,6.6.51-6.17-1.87-6.74,3.46-2.12,6.36-.63.13-1.78.86-2.65,1.06.21-1.46-1.77-2.09-2.12-2.65Z"/><path class="cls-10" d="M355.9,200.6c-.61.08-1.67.39-2.65.53,1.62-4.22-.37-6.48-4.77-5.84v2.13s-2.12,0-2.12,0c.41-6.51,12.19-3,9.54,3.18Z"/><path class="cls-16" d="M297.05,113.12v2.65c-2.66.19-4.59,1.37-8.23,1.06-.79-.07-1.52.42-1.32-.79,2.98-1.94,6-2.74,9.55-2.92Z"/><path class="cls-15" d="M445.5,216.5l-1.06.53c-1.31-1.04-6.13-3.72-7.95-4.77v-2.65c4.19,2.75,5.24,3.07,9.01,6.89Z"/><path class="cls-16" d="M235.02,212.26c-.57.11-2.44,1.32-3.18,1.59-2.29.83-5.85,2.4-7.95,2.65.16-3.1,5.86-4.62,8.48-5.83l2.65,1.59Z"/><path class="cls-13" d="M297.05,113.12c3.6-.18,8.08-.34,10.6,2.65-3.48.19-7.14-.25-10.6,0v-2.65Z"/><path class="cls-13" d="M309.77,206.43h.53c-.15,3.45,3.35,2.67,5.83,2.65-.1.22.25.89-.31,1.11l-6.45.65c-2.11.19-3.17-.12-3.32-.17,2.75-.43,2.06-2.97,2.82-4.1.17-.26.87-.1.89-.14Z"/><path class="cls-16" d="M393.01,189.46c.41,1.84,3.22,3.5,4.95,3.2.41-.07.33-1.47,1.41-1.08,1.97.68,3.83,1.34,5.83,2.12l-9.68-.13c-2.95-.96-2.83-2.21-4.11-4.11.53.01,1.06-.02,1.59,0Z"/><path class="cls-13" d="M373.92,151.82c3.46.9,3.56,5.76,3.04,8.63-.16.89-.29,1.7-1.45,1.44-.41-3.28-.99-6.81-1.59-10.07Z"/><path class="cls-4" d="M270.01,193.17l.49-3.37c-.51-1.56-3.07.03-2.62-1.92l5.83-1.06c.31,1.2-.92,1.92-1.01,2.91-.06.63.47,1.34.48,1.86.04,2.33-2.19,1.28-3.18,1.59Z"/><path class="cls-13" d="M255.69,201.66c.47.08,1.04,0,1.35.49,1.15,3.59-1.96,4.79-5.05,4.28l1.06-1.06-1.59-.53,2.33-1.06-.21-2.12c.49-.08,1.64-.08,2.12,0Z"/><path class="cls-4" d="M232.37,194.76l4.77-.53c.45,1.75-1.21.58-1.61,1.39-.8,1.61.04,5.75-2.63,6.03.02-2.59-.24-4.4-.53-6.89Z"/><path class="cls-4" d="M388.24,184.69l1.03-3.91-2.62-1.92h5.83s-2.65,6.36-2.65,6.36c-.27-.14-1.15-.38-1.59-.53Z"/><path class="cls-4" d="M236.61,212.79c1.41.83,2.46,2.03,2.65,3.71-.49.3-.61.59-1.59,1.06.2-3.73-2.12-3.19-4.77-2.65-1.15.23-1.96.76-1.06-1.06.74-.27,2.61-1.48,3.18-1.59.16-.03.37-.01.53,0,.21.01.8.37,1.06.53Z"/><path class="cls-10" d="M393.01,199.54c-.83-.07-1.51-.52-1.59-.53-.57-2.4-2.66-3.6-5.02-3.22l-.29,1.23c-1.83,1.03-2.5.64-1.59-1.19.08-.03.24-.85,1.31-1.05,2.88-.55,7.62,1.22,7.17,4.77Z"/><path class="cls-10" d="M382.94,195.82c-1.54-.15-2.87-1.46-4.44-.58l-.86,3.77c-.53.01-1.06-.02-1.59,0-.87-1.73.2-3.07.53-4.77.17.03.36-.02.53,0,1.94.24,5.72-1.04,5.83,1.59Z"/><path class="cls-2" d="M450.8,224.98c-.24-.12-.37-.34-.53-.53-.5-2.85-3.25-4.44-5.28-6.14-.49-.42-.49-1.23-.55-1.28l1.06-.53c2.75,2.79,5.31,3.89,5.3,8.48Z"/><path class="cls-4" d="M280.61,174.62c.16,1.06.34,2.13.53,3.18l-3.71.53c-.34-2.49.55-4.05,3.18-3.71Z"/><path class="cls-4" d="M310.3,182.57c-.06-.04.14-.72-.1-.93-.77-.67-3.03.79-2.55-1.18l6.89-.54-2.65,2.65c-.42-.03-1.47.09-1.59,0Z"/><path class="cls-15" d="M399.37,191.58c-1.08-.39-1,1.01-1.41,1.08-1.73.3-4.55-1.36-4.95-3.2,3.12.09,4.08,1.33,6.36,2.12Z"/><path class="cls-3" d="M416.34,198.48l-6.36-.53c.44-2.03-.49-1.98-1.59-3.18,2.76,1.1,5.27,2.54,7.95,3.71Z"/><path class="cls-4" d="M304.47,179.39v4.77c-.46.11-1.13-.11-1.59,0-1.1-1.08-.33-3.28-.53-4.77.68-.09,1.44.08,2.12,0Z"/><path class="cls-10" d="M345.82,202.19l-.31-2.66-2.34-.51,5.3-.53-1.06,3.18c-.24.04-.88.39-1.59.53Z"/><path class="cls-4" d="M319.85,177.27v4.24c-.28.02-1.05.46-2.12.53v-4.24c.46-.04,1.22-.46,2.12-.53Z"/><path class="cls-4" d="M345.82,176.74v3.71c-.71,0-1.41,0-2.12,0l-.53-3.71c.88,0,1.77-.02,2.65,0Z"/><path class="cls-4" d="M354.31,180.45c-.88-.04-1.77.02-2.65,0l-.53-2.65c1.06.01,2.19-.2,3.2.24l-.02,2.41Z"/><path class="cls-16" d="M428,204.84l-1.59,2.12c-.36-.15-1.02-.31-1.59-.53-.58-2.62,2.42-1.37,2.12-3.18,1.12.64.98,1.54,1.06,1.59Z"/><path class="cls-10" d="M287.51,119.48l-.08,2.56-1.25.61h-.78s.53-2.64.53-2.64c.33-.03.97-.49,1.59-.53Z"/><path class="cls-16" d="M376.57,174.62c0-.53.02-1.06,0-1.59.56.4.83,1.41,0,1.59Z"/><path class="cls-5" d="M191.01,240.36c.2-.56.49-.96.53-1.06l-.53,1.06Z"/><path class="cls-5" d="M191.54,238.77c.14-.38.52-.5.53-.53l-.53.53Z"/><path class="cls-10" d="M308.71,199.54c.91-.19,5.06-.95,5.25-1.14.16-.16-.11-1.05.16-1.36s1.08-.18,1.4-.47c1.08-.95,1.59-1.95,3.25-2.6-2.47-2.16-5.28-4.96-2.08-7.92,2.79-2.58,7.76-.3,6.33,1.29-.36.4-4.24-2.75-5.2.38-1.29,4.24,4.77,6.92,6.26,2.28-.62-.49-4.18,1.87-3.71-.53l6.36-.8-1.06,2.39c1.82-.02,3.52,1.12,5.17-.13,3.04-3.05-4.22-8.79-4.65-3.59-.91-.03-1.75.47-1.59-.78.7-5.26,9.72-1.37,9.03,3.15-.15.98-1.23,1.37-1.07,2.41.28.3,3.23-.17,2.65,1.59-2.25,1-3.33-1.04-3.53-1.08-1.66-.31-4.66,1.94-5.75-1.05-1.21.02-1.66,1.72-2.75,2.02-1.03.29-2.62-.18-3.37.34-.24.17-2.59,3.54-3.69,4.25-.4.26-1.08.26-1.58.29,1.38,1.35,2.91,2.67,3.18,4.77.33,2.54-.6,3.7-1.59,5.83-2.48.01-5.98.8-5.83-2.65,7.09,3.86,6.81-8.31.25-5.84-.37,1.59-.25,3.03-2.37,2.66l.53-3.71Z"/><path class="cls-3" d="M308.71,199.54l-.53,3.71c2.13.38,2-1.06,2.37-2.66,6.56-2.47,6.83,9.7-.25,5.84h-.53c.1-.18-.2-.9.01-1.19.47-.65,1.21-.12,1.05-.92-.8-.48-7.31.91-6.36,1.58h2.65s-.23,2.16-.23,2.16c-4.45,2.88-7.04-6.34-2.69-6.45,1.42-.04,4.38,1.62,2.92-1.54.66-.21.3-.26,1.59-.53Z"/><rect class="cls-10" x="335.22" y="194.24" width="1.05" height=".52"/><path class="cls-15" d="M388.77,144.4c2.17,1,3.4-.55,3.78,3.12l2.59.06c-.97,3.01,1.8,3.07,2.41,4.24.29.56-1,4.65-.79,6.58.3,2.71,2,4.86,3.14,7.21-.23-.01-1.3.64-2.12,0l-.04,2.61-2.14-.27c-.88-3.5-1.45-7.14-2.57-10.58-1.39-4.28-4.82-8.69-4.26-12.97Z"/><path class="cls-10" d="M347.42,131.14c.2,3.98-1.97-1.18-4.26.24-2.58,2.17-.97,9.92,2.42,9.83,1.87-.39,1.91-2.7,1.83-4.24l-2.65-.52,6.36-.53c.3,1.51-.5.93-1.52,1.1.32,9.25-8.86,6.73-10.04-.45-.19-1.18.14-2.67.43-3.84.12-.47.87-2.43,1.06-2.65.13-.16.45-.26.53-.53,2.8-.09,3.82-.43,5.83,1.59Z"/><path class="cls-10" d="M356.43,142.81c-2.07-.33-5.78.92-6.37-2.38-.39-2.14,1.89.41,2.14.53,4.42,2.09,4.59-7.91,1.05-9.55-2.46-1.14-2.91.8-2.65,2.92h-2.11c.06-.68-.11-1.48,0-2.12.64-3.82,5.54-3.47,7.65-.49,2.91,4.1,1.81,6.86.3,11.1Z"/><path class="cls-13" d="M391.95,171.44c-.03.64-.94,1.27-1.06,1.59-.45-.35-1.16-.33-1.59-.53-2.25-1.06-2.36-1.05-4.77-1.59-.17-.04-.36.03-.53,0l-.59-3.12c-.85-.21-1.74.02-2.59-.06-.13-.81.09-1.8,0-2.65,4.79-.49,6.75,2.44,10.6,5.07.51.34.48,1.26.54,1.29Z"/><path class="cls-10" d="M335.22,120.01c1.35,5.61-6.04,7.59-7.95,2.65.53-.49,3.57,2.55,5.26.22,1.63-2.25-.9-3.11.04-4.46.9.08,2.17,1.44,2.65,1.59Z"/><path class="cls-10" d="M375.51,149.7l.55-2.63,2.61-.05.55-1.55-.6,4.17-2.58.6c-.15-.15-.48-.51-.53-.53Z"/><path class="cls-2" d="M341.05,130.08l-2.65-.54v-1.58s2.65-.53,2.65-.53l-1.05,1.06,1.59,1.06c-.08.27-.4.37-.53.53Z"/><path class="cls-10" d="M380.82,165.07c.09.85-.13,1.84,0,2.65.86.07,1.74-.16,2.59.06l.59,3.12c-2.33-.48-2.78-.64-3.18-3.18-.5-.04-1.03.15-1.52-.06-.17-.87-.41-1.73-.6-2.59.7-.05,1.43.07,2.12,0Z"/><path class="cls-12" d="M245.62,134.32c.28,5.37-4.86,12.61-3.71,18.03l-1.32,1.07c-.56-.12.3-.93-1.33-1.07.15-.5.88-.96,1.03-1.87.56-3.27-.46-5.32-2.12-7.96-.09-1.14,1.45-1.18,1.88-1.86.48-.76.13-1.81.27-2.1.08-.15,1.99-.55,1.59-2.65,2.21,1.17,1.55.1,1.59-1.59.49.09,1.59.07,2.12,0Z"/><path class="cls-4" d="M240.32,138.57c-.14.29.21,1.34-.27,2.1-.43.68-1.96.72-1.88,1.86,1.66,2.64,2.68,4.68,2.12,7.96-.16.9-.88,1.37-1.03,1.87-.52-.05-1.06.03-1.59,0,2.59-6.22-2.74-13.23-4.24-4.24h-1.58c-.58-3.97,1.86-6.45,5.8-6.39l.1-2.28,2.58-.88Z"/><path class="cls-10" d="M239.26,152.35c-.29.93.16,2.12-1.06,3.18,2.96-.12,2.95.79,3.18,3.19.61-.01,1.5-.77,2.14-.31l1.04,3.5-3.12-.59c-.22-.85.03-1.74-.06-2.59-.9.02-1.82.14-2.68-.23l-.5-2.43c-1.8.26-3.46,1.41-5.3.53-.1-1.04.07-2.13,0-3.18l2.82,1.01c.39-.11,1.8-1.71,1.95-2.08.53.03,1.07-.05,1.59,0Z"/><path class="cls-4" d="M226.53,158.72c-.27,2.08-.76,3.64-3.18,3.18l.49-2.95,2.68-.23Z"/><path class="cls-12" d="M231.84,155.53v-.53c.52.33.18.3,0,.53Z"/><path class="cls-2" d="M276.37,122.13c-.41,2.22,1.55,6.38,3.71,6.89l-.5,2.94-1.63-.82c-1.55.24-.73,2.52.37,3.08.42.21,4.75,1.17,5.11,1.08l3.07-4.63c.93-.6,5.49,2.48,7.25,2.96,2.03.55,3.82.89,5.94.68-.91,3.09-.78,5.57.53,8.48-1.28.03-2.58-.16-3.85.12-1.54.34-4.24,2.29-4.99,2.42s-3.33-1.5-6.16-.84c-2.19.5-5.91,6.38-8.86,3.07,2.07-3.02,1.27-10.56-2.67-11.9-3.37-1.15-3.2.86-4.75,1.3-.41.11-1.57.03-2.12,0-.74-.04-1.23-.73-2.78-.43-5.11.98-5.61,8.99-3.05,12.62-1.13,1.75-3.53,1.9-5.04,3.17s-1.65,3.43-3.17,3.72c-2.71.51-10.2-.52-10.87-3.71-1.15-5.42,3.99-12.66,3.71-18.03,2.77-.35,1.94-2.21,4.24-2.65-.25,1.16.54,1.29,1.44,1.46,2.63.48,3.63.6,5.99,2.01.64.38.12,1.74,1.58,1.3-.37-2.16-.56-4.1-3.18-4.25,1.23-2.13,1.89-4.39,1.59-6.88l19.09-3.18Z"/><path class="cls-4" d="M250.39,161.89l-.27,2.66c-4.61-4.1-5.58,2.85-5,6.59.9,5.75,5.54,3.79,5.27-1.29-.43-.4-3.21.9-2.65-1.06,1.54-.06,2.93-.5,4.49-.56.59-.02,2.01-.33,1.87.55-3.56.09-1.33,4.06-3.69,6.65-5.99,6.58-10.49-8.65-5.32-13.54,2.38-2.25,3.39-.68,5.3,0Z"/><path class="cls-10" d="M266.83,136.98l.53,2.65c-.43.49-2.35-1.97-4.25-.8-4.4,4.85,1.95,15.86,4.25,5.58l-3.18-.27c1.73-1.39,4.27-1.37,6.36-1.32-2.32,1.42-1.36,3.37-2.55,5.66-1.62,3.12-4.91,3.66-7,.69-2.55-3.63-2.06-11.64,3.05-12.62,1.55-.3,2.04.39,2.78.43Z"/><path class="cls-4" d="M257.29,159.24c-.1-.55-.12-2.77.08-3.1l2.57-.61-.07,3.1c-.8.45-1.69.49-2.58.61.26,1.45,1.6,2.37,2.23,3.87,1.53,3.66.94,6.28-.1,9.91-.03.09-.89.25-1.06,1.59-3.13.22-5.97,1.85-5.83-3.18,1.24-.27,1.56,1.28,2.49,1.51,4.34,1.08,4.29-10.08.35-11.55-1.48-.26-2.15,2.73-2.6,3.67-.37.77.11,1.32-1.3,1.06-.05-1.36-.01-2.97.53-4.24,1.23-2.89,3.01-2.35,5.3-2.65Z"/><path class="cls-10" d="M276.37,147.58c-2,2.92-7.14,2.65-6.89-1.59,1.75-.02,1.76,2.21,3.7,1.34,3.59-1.62,2.36-10.44-1.34-10.36-2.3.15-1.21,4.39-3.42,4.24l.53-4.24c1.55-.43,1.38-2.45,4.75-1.3,3.95,1.35,4.74,8.88,2.67,11.9Z"/><polygon class="cls-10" points="262.58 151.82 262.35 154.5 259.94 155 260.17 152.32 262.58 151.82"/><path class="cls-6" d="M213.28,201.66v1.06c-.51.07-1.11-.08-1.59,0v-1.06c.51-.08,1.11.08,1.59,0Z"/><path class="cls-10" d="M258.35,174.62c4.27-.3,2.83,1.89,3.82,2.54,1.09.72,3.33-.19,3.07,3.29-.1.07-.46.43-.53.53l-2.68-.76-.52-2.39-2.67-.25c-.66-.43-.59-2.21-.49-2.95Z"/><path class="cls-4" d="M242.97,179.39c.3-.23.17-2.34,2.65-1.59.18.18-.14,2.05,0,2.65l-2.65.53v-1.59Z"/><path class="cls-2" d="M301.29,131.67c-.07.03-1.02,1-1.06,1.06l-.53-1.59,1.59.53Z"/><path class="cls-2" d="M298.11,130.61c.24.09.73-.08,1.06,0,.25,1.39-.31,1.11-1.59,1.05-.23-.14.54-.84.53-1.06-.37-.14-.92-.5-1.06-.53l.53-.53c.09.22.5.29.53,1.06Z"/><path class="cls-3" d="M288.57,193.7c-.03-1.9-.54-2.46,1.81-2.08,3.02.48,3,3.15,1.93,5.56l-3.75.23v-1.06s.1-1.49.1-1.49l1.5-.37v-.79c-.52.04-1.09-.07-1.59,0Z"/><path class="cls-16" d="M235.55,212.26v-1.06s1.06,0,1.06,0v1.59c-.26-.16-.85-.52-1.06-.53Z"/><path class="cls-3" d="M393.01,144.4c.25.25-.49.84-.53.27-.01-.18.41-.38.53-.27Z"/><rect class="cls-1" width="617.49" height="644.18"/><rect class="cls-1" width="617.49" height="644.18"/></g></svg>