<?xml version="1.0" encoding="UTF-8"?><svg id="Lager_2" xmlns="http://www.w3.org/2000/svg" viewBox="0 0 617.49 644.18"><defs><style>.cls-1{fill:none;}.cls-2{fill:#a5abd7;}.cls-3{fill:#aaa9d5;}.cls-4{fill:#f6f6f9;}.cls-5{fill:#ebedf6;}.cls-6{fill:#d1d3ec;}.cls-7{fill:#d7d8ec;}.cls-8{fill:#808ac3;}.cls-9{fill:#b9c1e3;}.cls-10{fill:#828bc4;}.cls-11{fill:#a1a2d0;}</style></defs><g id="eth"><path class="cls-10" d="M295.56,478.23l1.62,1.48c9.72,4.92,18.89,10.91,28.5,16.03.53.28,1.49.9,2.01.91,0,6.57-.09,13.17,0,19.73-.04.51-.04,1.08-.04,1.43.02,1.41.15,2,.23,3.45-.04.06.12,1.01.09,1.13-.31.07-1.04-.48-1.22-.66-2.98-3.06-6.13-7.76-8.83-11.22-1.46-1.87-2.94-3.89-4.51-5.78l-.19-.19s.03-.15,0-.19l-.19-.19c-.14-.16-.27-.26-.38-.38-.11-.53-.56-.95-.94-1.32-.06-.06-.12-.13-.19-.19-1.32-2.29-3.13-4.27-4.7-6.39-.05-.07-.14-.12-.19-.19-3.26-4.4-6.46-9.11-9.69-13.51-.71-.97-2.51-3.75-3.27-4.15-.12-.35.21-.6-.56-.75.06-.35.49-.14.72-.06.61.21,1.18.73,1.72,1Z"/><path class="cls-9" d="M359.63,478.23l2.07-1.03c-10.7,15.46-21.92,30.57-33.72,45.19-.21-.28-.05-.78-.09-1.13-.21-1.71-.17-3.17-.19-4.88-.09-6.56,0-13.16,0-19.73.24,0,.48-.02.69-.15,8.52-4.63,16.87-9.56,25.3-14.35,1.67-.95,4.37-2.04,5.75-3.27.1-.09.57-.57.21-.64Z"/><path class="cls-7" d="M359.63,478.23c.36.08-.11.55-.21.64-1.37,1.23-4.08,2.33-5.75,3.27-8.43,4.79-16.77,9.73-25.3,14.35-.22.12-.45.15-.69.15v-1.69l31.94-16.72Z"/><path class="cls-11" d="M295.56,478.23c1.73.85,3.4,1.65,5.08,2.53,9.03,4.7,17.93,9.66,27.05,14.19v1.69c-.51,0-1.48-.63-2.01-.91-9.6-5.11-18.77-11.11-28.5-16.03l-1.62-1.48Z"/><path class="cls-3" d="M327.69,425.44c0,12.21.01,24.43,0,36.64-5.88,1.84-11.56,4.53-17.29,6.85-3.03,1.23-6.22,2.24-9.2,3.58-.44.2-.91.36-1.13.84-2.23-1.21-4.81-2.76-7.07-3.74-.18-.08-.33.11-.26-.3l33.87-53.01,1.07-.45c.25,2.72-.16,4.93.05,7.6.03.36-.05,1.36-.05,1.98Z"/><path class="cls-6" d="M335.77,432.39c.17.26.21.6.56.75.1.46.33.47.38.56.76,1.63,2.05,3.41,3.04,4.94,5.43,8.42,11.29,17.01,17.1,25.18,1.43,2.01,3.27,3.92,4.29,6.14-1.94,1.14-4.03,2.11-6.01,3.19-.31-.41-1.03-.65-1.51-.84-4.61-1.88-9.28-3.6-13.9-5.45-3.99-1.6-7.93-3.58-12.03-4.79.01-12.21,0-24.43,0-36.64v-.38h0v-.38c.05-1.23,0-2.32,0-3.19v-.75c.58.07.95.81,1.28,1.26,2.3,3.16,4.67,7.06,6.8,10.39Z"/><path class="cls-8" d="M327.69,462.07c0,7.34-.2,14.78,0,22.07.04,1.28-.04,2.58,0,3.86l-3.85-1.75c-7.33-4.18-15.94-8.64-23.77-12.9.22-.48.69-.64,1.13-.84,2.98-1.34,6.16-2.35,9.2-3.58,5.73-2.32,11.41-5.01,17.29-6.85Z"/><path class="cls-2" d="M355.12,473.16c-9.11,5.01-18.21,10.04-27.43,14.84-.04-1.28.04-2.58,0-3.86-.21-7.29-.01-14.73,0-22.07,4.1,1.21,8.04,3.19,12.03,4.79,4.61,1.86,9.29,3.58,13.9,5.45.47.19,1.2.44,1.51.84Z"/><path class="cls-5" d="M336.71,433.7c.67.17,1.33.42,2.03.51.36.05.7.25.6-.32,4.68,6.97,9.2,14.13,13.72,21.23,3.01,4.73,5.97,9.48,9.01,14.19,0,.1-.74.55-.93.65-1.01-2.22-2.86-4.13-4.29-6.14-5.81-8.17-11.66-16.76-17.1-25.18-.99-1.54-2.28-3.32-3.04-4.94Z"/><path class="cls-4" d="M327.69,415.85c3.88,4.83,6.81,10.82,10.51,15.92l1.13,2.11c.09.58-.24.38-.6.32-.69-.1-1.36-.34-2.03-.51-.04-.09-.8-.09-.9-.54-.05-.21,0-.54-.04-.77h0c-2.13-3.34-4.5-7.23-6.8-10.39-.33-.45-.7-1.18-1.28-1.26v-4.88Z"/><rect class="cls-1" width="617.49" height="644.18"/></g></svg>