<?xml version="1.0" encoding="UTF-8"?><svg id="Lager_2" xmlns="http://www.w3.org/2000/svg" viewBox="0 0 617.49 644.18"><defs><style>.cls-1{fill:none;}.cls-2{fill:#aaa8a4;}.cls-3{fill:#757164;}.cls-4{fill:#eeeaea;}.cls-5{fill:#cecbc3;}.cls-6{fill:#8e8b7c;}.cls-7{fill:#dcdbdb;}</style></defs><g id="Lager_52"><path d="M326.71,453.13l.11,1.46c.21.24.87.04.93.1.07.08-.04.35,0,.52v3.64c.51-.02,1.05.04,1.56,0v2.08c-.3-.07-1.38-.09-1.49.04l.04,4.04,1.46.6c-.27.13-.39,1.18-.52,1.56-.97,2.87.1,2.37.52,4.16.06.24.03.75,0,1.04-.11,1.11-1.62,3.17.52,4.16v1.04c-1.6.59-.53,2.16-.52,3.64,0,.52-.03,1.04,0,1.56.07,1.32.5,3,.52,3.64.02.52-.02,1.04,0,1.56.03,1.05-.02,2.59,0,3.64,0,.52,0,1.04,0,1.56.01,1.21,0,2.43,0,3.64,0,.52,0,1.04,0,1.56,0,1.14.02,2.68,0,3.64-.01.52.01,1.04,0,1.56-.02,1.06.03,2.59,0,3.64-.02.52,0,1.04,0,1.56,0,.46-1.08,2.45-.52,3.64.68-.05,1.4.08,2.08,0v1.56c-.47-.16-1.47.11-2.08,0v3.64c.51-.04,1.06.06,1.56,0,.07.31-.1.82,0,1.04-3.35,1.3-1.7,2.28-1.56,4.16.03.4.09,1.27,0,1.56s-.93.73-1.06,1.88.52,1.55.54,1.76c.04.36.08,1.33,0,1.56-.12.34-1.82,1.37-1.04,3.12.86-.04,1.75.08,2.6,0-.34.35-.68.71-1.04,1.04-1.13,1.02-2.13,1.56-2.07,3.33.01.42.5.72.51.83.03.38.09,1.31,0,1.56-.48,1.41-1.33.68-1.04,3.64.02.25.04,1,0,1.04-1.66,1.76-1.73,4.5-2.6,7.27-.46,1.47-.41,2.69-.52,3.12-.05.21-2.43,2.33-2.08,3.64-.69.01-1.39,0-2.08,0,.3-1.04.66-2.11,1.04-3.12,1.79-4.73,2.63-8.07,3.64-12.99,2.01-9.86,3.27-20.28,3.66-30.37.75-19.44-.8-38.85-2.59-58.16-.15-.59-1.7-.42-2.32-.79-.55-.33-.22-.97-.31-1.09,1.41.15,2.86,1.32,4.16,1.56Z"/><path d="M342.3,450.01c2.3,20.39,3.36,41.04,2.62,61.6-.34,9.48-1.33,20.25-3.14,29.33-.91,4.57-2,9.15-3.64,13.51-.38,1.01-1.21,1.86-1.04,3.12h-1.56c-.05-1.07.2-2.11.52-3.12,1.04-3.26,1.77-5.42,2.6-8.83,6.11-25.03,5.32-57.61,3.11-83.39-.28-3.26-1.32-7.05-1.55-10.14-.15-1.93.29-1.66,2.08-2.08Z"/><path d="M335.55,547.69c-.4,1.86-.34,4.18-1.04,6.23-.29.84-1.71,2.22-1.56,3.64-.32.09-.79.51-1.04.52.22-1.56-2.3-1.86-3.64-2.08l4.15-.52c.49-2.37-3.6.3-3.11-2.07,1.11-.15,4.64.71,4.68-1.3l-4.16-.27,2.6-2.07c-.7.16-4.54-.64-4.15-1.81l7.27-.27Z"/><path class="cls-5" d="M325.15,554.97c.06.05-.25.89.35,1.05.77.21,1.93-.15,2.77-.01,1.34.22,3.86.51,3.64,2.08-3.44.17-6.95-.06-10.39,0-.36-1.3,2.02-3.43,2.08-3.64.34.37,1.38.37,1.56.52Z"/><path class="cls-6" d="M336.07,554.45c-.32,1.01-.57,2.04-.52,3.12h-2.6c-.16-1.41,1.27-2.8,1.56-3.64l1.56.52Z"/><path d="M341.26,408.96c.73,5.61-1.81,7.71-2.06,11.2-.57,8.32,7.58,21.6,3.09,29.85-1.79.41-2.22.14-2.08,2.08-.6.11-1.6-.16-2.08,0-.65.22-.97,1.02-1.04,1.04-1.72.42-4.41.43-6.24.52v1.55c.68.07,1.4-.08,2.08,0v1.04c-.39-.17-1.92-.37-2.6-.52-.02-.52.03-1.04,0-1.56-.02-.34.03-.69,0-1.04-1.14-.15-2.57.19-3.64,0-1.3-.24-2.74-1.41-4.16-1.56q-.44-.59-1.04-1.04l-1.04-2.08c-1.48-9.08-.42-17.87-1.69-26.62-.57-3.95-2.39-3.79-3.61-6.26-.25-.5-1.97-5.77-1.97-6.09,0-.27.81-.9.9-1.41.82-4.7.57-5.47,5.34-7.67,5.3-2.45,10.8-2.93,15.75.33,2.59,1.71,5.65,5.06,6.06,8.23ZM325.15,400.65c-3.04.51-6.93,1.12-8.44,4.3-.4.84-.31,2.32-.39,2.45-.11.18-1.57-.62-1,2.83.07.45.44.67.49.81,1.05,3.51,3.74,5.39,3.64,8.83,1.68.37,1.46-2.05,1.56-3.12.15-1.58.93-5.72.91-6.4-.1-4.34-4.42-4.76,2.21-8.67.47,1.61.13,3.65.65,5.33.98,3.23,1.68,2.82,1.95,7.14.13,2.06-.09,4.17,0,6.24,1.75-.04,6.25-.08,6.76-2.08.16-.63-.04-1.81,0-2.6.07-1.19.03-2.44,0-3.64h.52c1.36,5.91,4.52,13.83-4.96,13.03-5.2-.44-4.56-10.19-3.87-14.06l-2.62.86,1.17,34.61c.21.93,1.17,2.22,2.01,2.67,3.31,1.78,15.84,2.27,16.6-2.59l-5.21-34h.52c.83,1.75-.21,4.42,1.55,4.16,1.6-6.12.51-12.34-5.71-15.07-.33-.14-1.17.13-1.56,0-1.59-.54-1.45-.72-3.64-1.04-.3-.04-.73-.63-1.81-.58-.72.03-1.13.55-1.31.58ZM321.52,425.59v21.56c0,3.86,8.29,5.21,8.32,4.16-6.76-1.45-7.31-2.68-7.79-9.36-.34-4.71.19-9.78,0-14.55-.03-.64.4-1.93-.52-1.81Z"/><path d="M339.18,474.95l-6.24,1.04v1.54s6.24.53,6.24.53c.09-1.01-.12-2.13,0-3.12,1.99.41.52,3.16.56,4.37.04,1.09.9,2.39.88,3.27-.02.78-.91,1.26-.92,1.98-.01.67,1.03,1.43,1.1,2.6.09,1.51-1.07,2.37-1.01,3.03.17,1.81.39,2.56.48,4.82.06,1.44.76,2.86.47,4.36-.34.03-.69-.02-1.04,0-.06-.93.34-2.73-.84-3.08l-5.39.48v1.55c3.04-.65,3.5,1.21,6.24,1.04.04.67.04,1.41,0,2.08-2.01-.03-4.1.91-6.24.52v1.55s6.24.52,6.24.52c.04-.86-.05-1.74,0-2.6.35,0,.69-.03,1.04,0-.01,1.09.16,2.22-.1,3.3-.15.59-.91.8-.93.86-2.14.18-4.26-.47-6.23-1.04-1.23-.35-2.32-1.03-3.64-1.04.01-.52-.01-1.04,0-1.56,1.28-.63,6.21-.72,6.24-2.33l-6.24-1.3c0-.52,0-1.04,0-1.56l6.23-1.83v-.77c.18.12,2.5.16,3.12.52l.52-3.64-6.24.52v1.55c2.74-.76,2.46.95,2.6,1.04-2.48.63-4.01-1.06-6.23-1.04,0-.52,0-1.04,0-1.56l7.8-1.82-7.8-1.81c-.02-.52.02-1.04,0-1.56l7.79-2.07-8.31-1.56c-.03-.52,0-1.04,0-1.56l6.23-1.83-5.71-1.81v-1.04c.3-.67,7.17-1.89,5.71-3.11-2.37.48-4.04-.73-6.23-1.04.03-.29.06-.8,0-1.04,1.08-.5,3.47-1.05,4.31-1.56.61-.37.32-1.01.37-1.04.77-.45,1.66-.47,2.6-1.04,1.88-1.13,1.67-2.06,1.56-4.16-1.5-.59-2.47.82-3.11,1.04-.48.16-1.48-.12-2.08,0l.52,3.64c-1.66-.27-3.06-.69-4.68-1.04.13-.38.25-1.42.52-1.56.2-.1.89.19,1.15,0,.54-.4.62-1.04.95-1.25,1-.62,2.97-.29,3.09-2.12-2.05.2-3.75-.95-5.2-1.3v-2.08c1.5-.13,3.09-1.07,4.67-1.04.17-.85-.3-1.22-1.04-1.56v-1.04c1.55.18,3.12.32,4.67.52l-.52-2.59c.07-.02.39-.82,1.04-1.04.11,1.78-.18,3.66.03,5.43.11.97,1.03,1.85,1,2.63s-1.12,1.38-1.04,2.55c.07,1,1.65,2.35,1.54,3.7-.06.8-1,1.35-1.01,2.06,0,.63.98,1.42,1.09,2.59s-.41,2.64-.57,3.91ZM337.62,458.32l-5.7,1.06v1.52s5.7.01,5.7.01v-2.6ZM338.67,472.35l-.8-2.6-4.91,1.83c-.25,1.26,1.01.74,1.81.77,1.3.06,2.61-.03,3.9,0ZM339.11,480.73c-.7-.45-7.67.69-6.16,2.01,1.67-.65,6.75,1.41,6.67-.68,0-.16-.45-1.29-.51-1.33ZM339.7,488.46c.04-.87.21-2.23-.85-2.56l-5.38.48c-1.63,1.35,5.49,2.3,6.23,2.07Z"/><path d="M336.59,521.71c-.23,3.29-4.08-.67-4.15,2.59l6.23,1.56c-.08.41-.42.92-.52,1.56l-5.72.52v1.55c2.8-.76,3.16,1.58,5.72,1.04.11-1-.15-2.16,0-3.12,2.61,1.24.12,3.72,0,4.96-.14,1.47,1.19,2.56,0,4.56-.19.32-1.02.3-1.06.68-.18,1.78,2.03,4.4-1.01,5.9-1.02.56-6.73-1.49-6.23.77,1.14,1.01,4,1.6,5.35,1.31.43-.09.35-1.41,1.4-1.04.04.29.04.75,0,1.04-.2,1.41-.94,1.27-1.04,1.56-3.26.38-5.95-1.94-8.83-3.12.04-.04.02-.79,0-1.04,1.98-.73,4.67.09,6.23-1.31l-5.19-2.33c.09-.25.03-1.17,0-1.56,1.82-.1,4.26-.11,5.71-1.31.18-1.4-1.9-.62-2.81-1.24-.63-.44.25-2.01-1.34-1.61.36-.33.7-.69,1.04-1.04.61-.05,5.32-.81,4.15-2.07l-5.71-1.04c.08-.23.04-1.2,0-1.56l5.71-1.04c1.24-1.02-4.49-2.7-5.19-2.6.09-.29.03-1.16,0-1.56,2.08,0,4.23-.76,6.23-1.04.33-.05.7.05,1.04,0ZM337.62,532.62l-6.22,1.3,5.43,2.34c1.19-.86.76-2.39.79-3.64ZM336.59,538.34h-5.72s0,1.56,0,1.56c2.19-.48,3.68.89,5.72,1.04v-2.6Z"/><path class="cls-6" d="M326.71,544.05c2.88,1.18,5.57,3.5,8.83,3.12-.05.15.04.35,0,.52l-7.27.27c-.39,1.18,3.46,1.97,4.15,1.81l-2.6,2.07,4.16.27c-.04,2-3.57,1.15-4.68,1.3-.49,2.37,3.6-.3,3.11,2.07l-4.15.52c-.84-.14-2,.22-2.77.01-.6-.16-.28-1-.35-1.05,4.69-1.21,2.48-3.64-1.04-3.64.87-2.78.94-5.51,2.6-7.27Z"/><path d="M333.99,511.84c-.22.79-2.17,1.77-1.05,2.35l6.76.77c-.04.3-.47.73-.52,1.04-3.02-.09-2.32,1.67-2.64,2-.57.58-3.68-.86-3.6.85l5.39,1.26c1.15-.59.59-1.7.85-3.07,1.07.31,1.15,1.37,1.09,2.35-.08,1.53-1.06,1.7-1.09,1.8-.81.63-1.74.4-2.6.52-.33.05-.7-.05-1.04,0-.88-2.32-3.62-.77-4.68-3.12-.1-.22.07-.73,0-1.04,1.6-.21,3.31-.92,5.19-.52.1-1.8-2.42-1.72-3.8-2.19-.53-.18-.81-.9-.87-.92v-1.56c.66-.08,1.65-.84,2.6-.52Z"/><path class="cls-6" d="M329.31,460.92c1.45.36,3.15,1.51,5.2,1.3-.12,1.84-2.09,1.5-3.09,2.12-.33.21-.41.84-.95,1.25-.26.19-.96-.1-1.15,0l-1.46-.6-.04-4.04c.11-.12,1.19-.11,1.49-.04Z"/><path d="M333.47,506.64c1.34-.15,3.23-.95,3.64.51-8.91.23-1.39-.38,2.67-.87l.99.55c.55,2.88-.79,2.4-1.06,3.96-1.91.81-3.73-.4-5.72-1.04-1.33-.43-2.73-1.04-4.16-1.04,0-.52-.02-1.04,0-1.56,1.25.05,2.41-.39,3.64-.52Z"/><path class="cls-6" d="M329.83,487.94l7.8,1.81-7.8,1.82c-.02-1.05.03-2.59,0-3.64Z"/><path class="cls-6" d="M335.55,521.71c-2,.28-4.15,1.03-6.23,1.04-.14-1.88-1.8-2.86,1.56-4.16,1.05,2.35,3.79.8,4.68,3.12Z"/><path class="cls-6" d="M329.31,472.35c2.19.31,3.87,1.52,6.23,1.04,1.46,1.22-5.41,2.44-5.71,3.11-2.14-.99-.63-3.04-.52-4.16Z"/><path class="cls-6" d="M329.31,482.74l8.31,1.56-7.79,2.07c-.02-.63-.45-2.32-.52-3.64Z"/><path class="cls-6" d="M330.35,455.73c.68.15,2.21.35,2.6.52.74.33,1.21.71,1.04,1.56-1.58-.02-3.18.91-4.67,1.04-.51.05-1.05-.02-1.56,0v-3.64c.9,0,1.74.32,2.6.52Z"/><path class="cls-6" d="M331.39,513.92c.07.02.35.74.87.92,1.38.48,3.9.39,3.8,2.19-1.88-.4-3.59.31-5.19.52-.5.07-1.05-.04-1.56,0v-3.64c.61.12,1.6-.16,2.08,0Z"/><path class="cls-6" d="M328.79,529.51l5.71,1.04c1.17,1.27-3.55,2.02-4.15,2.07-.85.08-1.74-.04-2.6,0-.78-1.75.92-2.78,1.04-3.12Z"/><path class="cls-6" d="M329.31,533.66c1.59-.4.71,1.17,1.34,1.61.9.62,2.98-.16,2.81,1.24-1.45,1.2-3.89,1.2-5.71,1.31,0-.1-.49-.41-.51-.83-.06-1.77.94-2.31,2.07-3.33Z"/><path class="cls-6" d="M327.75,539.38l5.19,2.33c-1.56,1.4-4.25.58-6.23,1.31-.29-2.96.56-2.23,1.04-3.64Z"/><path class="cls-6" d="M333.47,468.2c.24.04.46.27.52.52-.05.03.24.67-.37,1.04-.83.51-3.23,1.06-4.31,1.56-.42-1.79-1.49-1.29-.52-4.16,1.62.35,3.01.77,4.68,1.04Z"/><path class="cls-6" d="M329.83,498.33l6.24,1.3c-.03,1.61-4.96,1.71-6.24,2.33.02-.96,0-2.49,0-3.64Z"/><path class="cls-6" d="M329.31,524.31c.71-.1,6.43,1.58,5.19,2.6l-5.71,1.04c-.02-.21-.66-.65-.54-1.76s.97-1.58,1.06-1.88Z"/><path class="cls-6" d="M329.83,477.55l5.71,1.81-6.23,1.83c0-1.48-1.08-3.05.52-3.64Z"/><path class="cls-6" d="M336.07,494.17v.77s-6.23,1.83-6.23,1.83c0-1.21.01-2.43,0-3.64,2.22-.02,3.76,1.67,6.23,1.04Z"/><path class="cls-6" d="M333.99,509.76c-.1.62.15,1.54,0,2.08-.95-.32-1.94.44-2.6.52s-1.4-.05-2.08,0c-.56-1.19.51-3.18.52-3.64,1.43,0,2.83.61,4.16,1.04Z"/><path class="cls-6" d="M333.47,504.57v2.08c-1.22.13-2.39.57-3.64.52.03-1.04-.02-2.58,0-3.64,1.31,0,2.41.69,3.64,1.04Z"/><path class="cls-6" d="M325.15,554.97c-.18-.15-1.22-.15-1.56-.52.11-.43.06-1.65.52-3.12,3.52,0,5.73,2.43,1.04,3.64Z"/><path class="cls-6" d="M326.71,453.13c1.07.2,2.5-.15,3.64,0,.03.34-.03.69,0,1.04-.83.03-2.15-.32-2.6.52-.06-.06-.72.14-.93-.1l-.11-1.46Z"/><path d="M330.35,454.17c.03.52-.02,1.04,0,1.56-.86-.2-1.7-.51-2.6-.52-.04-.17.07-.44,0-.52.44-.84,1.77-.49,2.6-.52Z"/><path class="cls-6" d="M340.22,452.09c.23,3.08,1.28,6.87,1.55,10.14,2.2,25.78,3,58.36-3.11,83.39h-2.08c.04-.29.04-.75,0-1.04-.06-.45.15-.98-.52-1.04,3.04-1.51.83-4.13,1.01-5.9.04-.38.87-.36,1.06-.68,1.2-2-.13-3.09,0-4.56.11-1.24,2.61-3.71,0-4.96.1-.64.44-1.15.52-1.56.26-1.41.33-4.09.52-4.68.03-.11,1.01-.28,1.09-1.8.05-.98-.02-2.05-1.09-2.35.06-.32-.05-.71,0-1.04.05-.31.47-.74.52-1.04.24-1.62-.23-2.86,0-4.16.27-1.56,1.61-.88,1.06-3.76-.07-.36-1.25-.94-1.06-1.43.02-.06.79-.27.93-.86.26-1.07.09-2.21.1-3.3-.34-.02-.69,0-1.04,0,.04-.67.04-1.41,0-2.08.34-.02.69.03,1.04,0,.29-1.51-.41-2.92-.47-4.36-.09-2.26-.31-3.01-.48-4.82-.06-.66,1.1-1.52,1.01-3.03-.07-1.17-1.11-1.93-1.1-2.6.01-.71.9-1.19.92-1.98.02-.88-.84-2.18-.88-3.27-.04-1.2,1.43-3.96-.56-4.37.16-1.27.69-2.69.57-3.91s-1.1-1.96-1.09-2.59c0-.71.95-1.27,1.01-2.06.1-1.35-1.47-2.69-1.54-3.7-.08-1.17,1.01-1.74,1.04-2.55s-.89-1.66-1-2.63c-.21-1.77.08-3.65-.03-5.43.48-.16,1.48.11,2.08,0Z"/><path class="cls-6" d="M338.66,545.61c-.83,3.41-1.56,5.57-2.6,8.83l-1.56-.52c.7-2.06.64-4.37,1.04-6.23.04-.17-.05-.37,0-.52.1-.29.84-.15,1.04-1.56h2.08Z"/><path class="cls-7" d="M337.11,412.6l5.21,34c-.76,4.86-13.29,4.37-16.6,2.59-.84-.45-1.8-1.74-2.01-2.67l-1.17-34.61,2.62-.86c-.69,3.88-1.33,13.62,3.87,14.06,9.48.81,6.33-7.11,4.96-13.03l2.6-.52.52,1.04ZM326.19,442.22c0,1.94-.05,3.78.59,5.64,3.18.64,5.58.75,8.76.07,1.85-.39,1.4-.7,2.08-1.04.26-.13,1.08.18,1.51-.03-.05-7.43.81-11.2-8-10.35-5.07.49-4.92,1.2-4.94,5.71Z"/><path class="cls-7" d="M333.47,401.69c6.22,2.73,7.31,8.95,5.71,15.07-1.77.26-.73-2.41-1.55-4.16-.32-.68-.8-.74-1.04-1.04-.6-.74-1.82-1.38-2-1.9-.57-1.67-.1-5.83-1.12-7.97Z"/><path class="cls-7" d="M325.15,400.65c-.33.31-.66.82-1.04,1.04-6.63,3.91-2.31,4.33-2.21,8.67.02.68-.77,4.82-.91,6.4h-.52c-2.04-2.77-3.91-5.8-4.16-9.35.08-.14,0-1.61.39-2.45,1.51-3.18,5.4-3.79,8.44-4.3Z"/><path class="cls-5" d="M332.95,405.33c.4,2.31.47,4.42.52,6.75.03,1.2.07,2.45,0,3.64-.79-2.54-4.72-1.82-5.46-3.11-.64-1.13-.56-4.76-.78-6.24,1.8-.96,3.68-1.21,5.72-1.04Z"/><path class="cls-5" d="M328.27,400.65c-3.38,2.32-1.39,3.27-1.04,5.72.21,1.48.13,5.11.78,6.24.74,1.3,4.67.57,5.46,3.11-.04.78.16,1.97,0,2.6-.93-3.72-3.46-3.53-6.75-4.16-.27-4.32-.97-3.91-1.95-7.14-.51-1.68-.17-3.72-.65-5.33.38-.22.71-.73,1.04-1.04.18-.03.59-.54,1.31-.58,1.07-.05,1.51.53,1.81.58Z"/><path class="cls-2" d="M326.71,414.16c3.29.63,5.82.44,6.75,4.16-.5,2-5,2.04-6.76,2.08-.09-2.06.13-4.18,0-6.24Z"/><path class="cls-4" d="M331.91,401.69c.68,1.15.82,2.35,1.04,3.64-2.03-.17-3.91.08-5.72,1.04-.35-2.44-2.34-3.4,1.04-5.72,2.19.32,2.05.5,3.64,1.04Z"/><path class="cls-7" d="M321.52,425.59c.91-.12.49,1.17.52,1.81.2,4.77-.34,9.84,0,14.55.48,6.67,1.03,7.91,7.79,9.36-.03,1.05-8.32-.29-8.32-4.16v-21.56Z"/><path class="cls-7" d="M333.47,401.69c1.02,2.14.55,6.3,1.12,7.97.18.52,1.4,1.16,2,1.9l-2.6.52h-.52c-.05-2.34-.12-4.44-.52-6.75-.22-1.29-.36-2.48-1.04-3.64.39.13,1.23-.14,1.56,0Z"/><path class="cls-3" d="M337.62,412.6h-.52l-.52-1.04c.24.3.72.36,1.04,1.04Z"/><path class="cls-5" d="M337.11,453.13l.52,2.59c-1.55-.2-3.12-.33-4.67-.52-.68-.08-1.4.07-2.08,0v-1.55c1.82-.09,4.52-.1,6.24-.52Z"/><path d="M316.32,407.4c.25,3.55,2.12,6.58,4.16,9.35l-.26.43c-1.94-1.65-2.93-4.13-4.41-6.14-.04-.14-.41-.36-.49-.81-.57-3.45.89-2.64,1-2.83Z"/><path class="cls-7" d="M320.48,416.76h.52c-.1,1.07.12,3.49-1.56,3.12.1-3.45-2.59-5.33-3.64-8.83,1.49,2.02,2.47,4.49,4.41,6.14l.26-.43Z"/><path class="cls-5" d="M339.7,505.61c-.19.49.45,1.19.52,1.56l-.52,2.6c-4.05.49-11.5-2.38-2.6-2.61-.4-1.47-2.3-.66-3.64-.51v-2.08c1.98.57,4.09,1.22,6.23,1.04Z"/><path class="cls-5" d="M336.07,494.17c-.14-.09.14-1.81-2.6-1.04v-1.55s6.24-.52,6.24-.52l-.52,3.64c-.62-.36-2.93-.41-3.11-.52Z"/><path class="cls-5" d="M339.18,474.95c-.12.98.09,2.11,0,3.12l-6.23-.53v-1.54s6.23-1.04,6.23-1.04Z"/><path class="cls-5" d="M339.7,499.37c-2.74.17-3.2-1.69-6.24-1.04v-1.55s5.39-.48,5.39-.48c1.18.35.79,2.15.84,3.08Z"/><path class="cls-5" d="M339.7,501.45c-.05.86.04,1.74,0,2.6l-6.24-.52v-1.55c2.14.39,4.23-.55,6.24-.52Z"/><path class="cls-5" d="M339.11,480.73c.06.04.5,1.16.51,1.33.08,2.09-5,.04-6.67.68-1.51-1.32,5.46-2.46,6.16-2.01Z"/><path class="cls-5" d="M339.7,488.46c-.74.22-7.86-.72-6.23-2.07l5.38-.48c1.06.33.89,1.68.85,2.56Z"/><path class="cls-5" d="M335.03,464.56l1.56,3.12c-.94.56-1.83.59-2.6,1.04-.06-.24-.28-.48-.52-.52l-.52-3.64c.61-.12,1.61.16,2.08,0Z"/><path class="cls-5" d="M338.67,472.35c-1.29-.03-2.61.06-3.9,0-.8-.03-2.05.49-1.81-.77l4.91-1.83.8,2.6Z"/><path class="cls-5" d="M335.03,464.56c.65-.22,1.62-1.63,3.11-1.04.11,2.09.33,3.03-1.56,4.16l-1.56-3.12Z"/><path class="cls-5" d="M338.66,525.87l-6.23-1.56c.07-3.27,3.92.69,4.15-2.59.86-.12,1.79.11,2.6-.52-.19.59-.26,3.27-.52,4.68Z"/><path class="cls-5" d="M337.62,532.62c-.03,1.25.4,2.78-.79,3.64l-5.43-2.34,6.22-1.3Z"/><path class="cls-5" d="M338.14,527.43c-.14.96.11,2.12,0,3.12-2.56.54-2.92-1.8-5.72-1.04v-1.55s5.72-.52,5.72-.52Z"/><path class="cls-5" d="M336.07,543.53c.67.06.46.59.52,1.04-1.05-.37-.96.95-1.4,1.04-1.35.29-4.22-.29-5.35-1.31-.5-2.27,5.21-.21,6.23-.77Z"/><path class="cls-5" d="M332.71,553.01c.67.06.46.59.52,1.04-1.05-.37-.96.95-1.4,1.04-1.35.29-4.22-.29-5.35-1.31-.5-2.27,5.21-.21,6.23-.77Z"/><path class="cls-5" d="M332.71,553.01c.67.06.46.59.52,1.04-1.05-.37-.96.95-1.4,1.04-1.35.29-4.22-.29-5.35-1.31-.5-2.27,5.21-.21,6.23-.77Z"/><path class="cls-5" d="M336.59,538.34v2.6c-2.04-.15-3.53-1.52-5.72-1.04v-1.55s5.72,0,5.72,0Z"/><polygon class="cls-5" points="337.62 458.32 337.63 460.92 331.91 460.91 331.92 459.39 337.62 458.32"/><path class="cls-5" d="M340.12,512.59c-.23,1.3-.18.75-.42,2.37l-6.76-.77c-1.12-.58.83-1.56,1.05-2.35.15-.53-.1.62,0,0,1.99.64,4.22,1.56,6.14.75Z"/><path class="cls-5" d="M339.18,516c-.05.33.06.72,0,1.04-.26,1.37.3,2.48-.85,3.07l-5.39-1.26c-.08-1.71,3.03-.27,3.6-.85.32-.33-.37-2.09,2.64-2Z"/><path d="M326.19,442.22c.02-4.51-.13-5.22,4.94-5.71,8.81-.85,7.95,2.92,8,10.35-.43.21-1.25-.1-1.51.03v-2.08s-.51,0-.51,0l-.52,2.07h1.04c-.68.34-.23.65-2.08,1.04.07-.85-.11-1.76,0-2.6s.65-1.68.52-2.6h-1.56s1.06-.78,1.06-.78c.52-2.96-5.56-.74-7.51-1.73l-.75.77c-.14.39-.04.82-.08,1.21h-1.04Z"/><path d="M327.23,442.22c-.09.96-.07,4.06.63,4.57,2.34.8,4.28.5,6.64.1l-4.18-.75c-4.3-2.2-.64-3.98,2.62-3.4.54,2.16-2.11,0-2.59.52v2.07s5.19,0,5.19,0c-.11.84.07,1.75,0,2.6-3.18.68-5.58.57-8.76-.07-.64-1.87-.6-3.7-.59-5.64h1.04Z"/><path class="cls-6" d="M327.23,442.22c.04-.4-.07-.82.08-1.21l.75-.77c1.94.99,8.03-1.24,7.51,1.73l-1.06.77h1.56c.13.93-.42,1.77-.52,2.6h-5.19s0-2.08,0-2.08c.48-.52,3.13,1.64,2.59-.52-3.26-.58-6.92,1.2-2.62,3.4l4.18.75c-2.36.4-4.3.7-6.64-.1-.71-.5-.73-3.6-.63-4.57Z"/><polygon class="cls-3" points="337.62 446.89 336.59 446.89 337.11 444.82 337.62 444.82 337.62 446.89"/><path class="cls-5" d="M334.46,549.15c.67.06.46.59.52,1.04-1.05-.37-.96.95-1.4,1.04-1.35.29-4.22-.29-5.35-1.31-.5-2.27,5.21-.21,6.23-.77Z"/><path d="M333.91,552.72s-5.43-1.42-6.72-.59-1.36,1.91-.9,2.21,5.06,1.68,6.12,1.31,1.15-1.12,1.15-1.12l.34-1.82Z"/><polygon class="cls-6" points="333.47 509.82 333.79 509.63 340.81 511.07 340.54 512.83 332.61 512.36 333.02 510.29 333.47 509.82"/><path d="M336.07,506.15s3.33-.01,3.71.14.45.87.45.87l.07.37-1.11-.34-2.6-.03-.52-1.02Z"/><path d="M333.61,511.77l4.15-.18,2.01.77s.15.73-.29.66-6.02-.66-6.02-.66l.15-.59Z"/><path d="M340.12,517.88s.09-2.56-.55-2.61-.82,1.06-.82,1.06l.58,1.25.79.3Z"/><path d="M338.38,520.92s1.2-.3.97,2.27-.07,2.37-.69,2.68-.72,0-.72,0c0,0,.18-4.76.44-4.95Z"/><path d="M339.48,500.41s1.25.54,1.26,1.03-.63.52-.63.52l-.63-1.56Z"/><path d="M339.48,499.79s1.19.24,1.26-.41-.52-.55-.52-.55l-.74.96Z"/><path d="M339.7,512.67s.39,2.3-.13,2.6c-.22.5,1.37-.67,1.18-.93s-.28-1.98-.97-1.98"/><polygon points="335.7 543.02 336.07 544.72 336.59 544.57 336.84 543.51 336.07 542.74 335.7 543.02"/><path class="cls-6" d="M332.69,504.3s6.29,1.97,8.12.92c-.74.97-.4,1.19-.4,1.19,0,0-4.82-.33-6.94.23-1.21-1.23-.78-2.34-.78-2.34Z"/><polygon class="cls-5" points="330.35 443.26 336.07 442.74 335.55 445.33 330.35 445.33 329.84 443.76 330.35 443.26"/><path d="M328.28,547.96s-1.03,1.39-.82,1.69,1.42,2.18,2.8,2.22c.76.02.57-.74.57-.74l-2.16-2.51-.4-.66Z"/><path d="M323.64,554.19s7.44,1.97,7.65,1.9c-1.41.22-8.07,1.14-8.15-1.64-.08-2.77.49-.26.49-.26Z"/><path class="cls-5" d="M332.85,552.98c.67.06.46.59.52,1.04-1.05-.37-.96.95-1.4,1.04-1.35.29-4.22-.29-5.35-1.31-.5-2.27,5.21-.21,6.23-.77Z"/><rect class="cls-1" width="617.49" height="644.18"/></g></svg>