<?xml version="1.0" encoding="UTF-8"?><svg id="Lager_2" xmlns="http://www.w3.org/2000/svg" viewBox="0 0 459.43 307.24"><defs><style>.cls-1{fill:#b4ce4b;}.cls-2{fill:#f7bb34;}.cls-3{fill:#bdd256;}.cls-4{fill:#91bf3c;}.cls-5{fill:#f28e44;}.cls-6{fill:#abca42;}.cls-7{fill:#e45053;}.cls-8{fill:#324a28;}.cls-9{fill:#fcfafa;}.cls-10{fill:#f6f1cb;}.cls-11{fill:#c6d561;}.cls-12{fill:#e04a4e;}.cls-13{fill:#dde384;}.cls-14{fill:#afcc46;}.cls-15{fill:#94c13e;}.cls-16{fill:#e3e790;}.cls-17{fill:#f9f5e1;}.cls-18{fill:#e64627;}.cls-19{fill:#ed6e5e;}</style></defs><g id="Lager_1-2"><path class="cls-5" d="M18.67,193.74s-11.1-38.29,2.21-51.14,32.13-33.56,71.31-32.26,66.42,18.19,66.42,18.19l27.45,23.47,199.66-1.41,52.63,25.18v58.65l-19.26,45.91-57.73,9.94-36.09-6.96-30.03,11.71-39.66,4.3-36.28-17.86-96.88-5.84s-46.4,26.55-72.32,17.04c-17.23-13.17-33.34-27.48-33.34-27.48l-2.41-45.27,13.02-15.67-8.69-10.5Z"/><path d="M84.05,107.73c3.46-.16,15.01-.66,17.63-.03.74.18.71,4.26,4.68,2.85,1.34-.48-.39-1.5,3.85-1.66.76-.03,1.56-.04,2.32,0l1.74.58c.56.07,1.19-.08,1.74,0l1.74.58c.19.04.4-.04.58,0l1.74.58c.49.11,1.19-.07,1.74,0,.11.24.33.52.58.58,19.33,4.7,41.29,20.94,33.41,43.58-.53,1.53-4.25,6.99-3.76,7.56,4.45.14,7.35,2.86,10.74,5.25,8.37-6.13,23.88-9.21,32.27-1.75l.58.58c.7.73,1.14,2.86,2.61,3.35,1.33-.62,2.44-1.57,3.78-2.18,20.22-9.3,45.85-6.54,59.27,12.52l.85.25c12.43-13.14,30.36-18.54,48.21-16.19,2.44.32,7.12,2.14,8.9,2.11,1.07-.02,4.88-1.89,6.92-2.12,5.42-.61,11.25.27,15.89,3.17,1.31.82,1.9,2.78,3.68,2.51,1.12-.17,5.53-3.43,6.76-4.35,6.16-4.6,10.44-9.99,13.43-17.09,2.58.37,2.83-1.7,5.51-1.78,1.89-.05,1.5.06,1.46,1.78-.48,1.65-.61,3.59-1.46,5.22l-4.93,9.89,9.88-1.74c18.96-1.24,46.02,4.57,49.4,26.74v7.56c-.19,1.25-.21,2.87-.58,4.07-.62,1.98-1.99,4.66-3.25,6.34l-5.47,4.98c19.11,15.56,18.77,44.05-.31,59.57-4.77,3.88-14.1,8.47-20.04,9.89-16.36,3.91-36.74.85-51.1-7.89-2.03-1.23-5.71-4.82-7.38-5.42-1.22-.44-1.57,2.71-1.97,3.43-1.16,2.12-3.11,5.15-4.65,6.97-17.27,20.42-51.95,27.82-75.57,14.83-2.12-1.17-7.14-5.34-8.71-5.53-5.96-5.87-9.59-13.8-11.11-22.02-1.39-.43-2.73.36-4,.52-12.79,1.61-23.26,1.91-35.45-3.21-18.55-7.79-26.44-26.28-25.59-45.61-2.25.5-4.18,1.08-4.09,3.74.5,14.17,16.51,30.55,1.38,40.92-15.96,10.93-41.79,8.21-48.44-12.11-2.93-8.96-1.68-20.35-1.17-29.64l-7.56,1.16c1.62,9.22,3.38,18.47,2.91,27.9-.78,15.46-7.58,30.06-21.51,37.78-12.26,6.8-32,7.53-44.75,1.74-7.13-3.24-14.07-13.37-15.69-20.92-1.42-6.61,1.74-16.56,6.39-21.51s11.43-7.06,14.53-13.37-.67-4.8-4.6-7.9-7.61-10.89-8.77-15.93c-.48-2.07-.62-4.58-.56-6.72l-.6-.83c-6.88-.74-14.1-3.03-19.46-7.57-2.15-1.82-3.32-4.18-5.53-5.8-4.87-11.08-6.77-16.72-3.9-29.18,6.93-30.03,40.5-47.53,68.99-50.45,1.18-.12,2.86-.54,3.49-.58.77-.05,1.55.03,2.32,0ZM103.23,114.13c-29.05-.58-64.74,5.47-80.68,32.95-15.83,27.3,2.78,49.95,30.69,33.3.22-.32-1.48-1.82-1.74-2.31-2.78-5.26-2.18-10.96,4.06-12.78l4.08,13.95c.17,4.36,2.05,9.12,2.22,13.61-5.96,4.55-17.53,6.41-13.55,16.61,2.66,6.8,10.37,7.02,16.56,5.82.33,9.33-2.53,19.36-8.7,26.46-3.98,4.57-10.71,7.38-12.84,13.32-3.19,8.91.72,16.66,8.75,20.67,8.46,4.23,19.15,3.69,27.89.28,25.83-10.07,22.97-46.04,16.29-67.7,3.62.02,7.02-1.04,10.46-1.75,8.52-1.75,20.59-4.08,21.5-14.83,1.78-21.03-24.12-11.15-36.02-9.58-1.91-8.69-4.34-17.54-8.14-25.57,15.07,1.05,31,1.37,45.81-2.15,34-8.08,12.75-32.01-9.77-37.38-.92-1.09-2.27-.92-3.49-1.16-.35-.07-.8.06-1.16,0-.44-.07-1.22-.44-2.32-.58-.75-.09-1.57.08-2.32,0-.16-.02-1.18-.49-2.32-.58-.76-.06-1.56.02-2.32,0-.49-.93-1.97-.56-2.91-.58ZM345.02,207.7c6.54,13.81,23.49,15.55,34.83,23.01,2.22,1.46,4.29,2.68,4.16,5.75-.4,9.41-22.78,5.75-27.02-1.49-2.08-3.55-.91-7.1-7.05-8.06-17.47-2.74-18.17,16.4-8.42,26.43,20.51,21.11,76.87,20.95,79.02-14.64,1.54-25.47-25.23-28-41.03-36.72-13.42-7.41.48-14.67,10.27-14.05,8.2.52,7.22,6.24,3.49,11.62,11.79,3.69,25.73.67,23.11-14.68-1.27-7.43-13.73-14.59-20.79-14.96-.19-.01-.39,0-.58,0-.85-.85-1.88-.55-2.91-.58-.19,0-.39,0-.58,0-.81-1.06-2.78-.5-4.07-.58-21.2-1.34-54.85,12.7-42.43,38.94ZM136.94,253.04c5.06,1.69,9.34,1.62,14.53.29,3.08-.78,13.07-5.87,12.69-9.73-7.25-16.16-17-51.88,13.48-45.49,5.08-6.17,21.78-19.58,10.4-27.28-6.35-4.3-15.7-.95-21.65,2.68-1.01.61-7.53,6.18-7.95,5.71-.02-12.33-15.93-11.39-24.41-9-1.06.3-9.5,3.1-8.14,4.93,1.53.33,3.52,1.29,4.65,2.33,2.14,1.97,3.16,6.25,3.42,9.08.84,9.31-3.98,17.02-6.15,25.68-3.12,12.41-6.19,35.69,9.13,40.81ZM193.9,183.87c-9.75,10.64-15.76,24.55-14.52,39.22,1.34,15.86,15.82,28.43,31.38,29.36.6.96,2.21.58,3.19.59,3.6.04,7.96.44,11.34-.59.38-.02.78.03,1.16,0,10.02-.8,33.02-11.14,26.27-24.24-5.44-10.55-15.13.26-22.63,1.43-7.2,1.12-18.71.5-19.91-8.58,16.44.78,46.49-9.73,45.35-29.96-.69-12.27-14.07-20.34-25.28-21.21-15.04-1.18-26.23,2.93-36.35,13.97ZM332.82,225.14c.85-.56,3.16-.95,4.06-2.04,1.52-1.83-.46-7.79-.6-10.43-.18-3.65-.24-8.61.03-12.22.47-6.25,5.87-20.12,3.41-24.93-2.66-5.19-16.92-8.03-16.79.22-4.86-1.58-8.94-3.68-14.22-4.09-21.86-1.71-39.92,9.42-47.97,29.66-5.3,13.32-5.28,28.56,5.23,39.52-3.09,1.85,1.45,3.64,2.26,5,1.5,2.51,2.34,6.67.06,8.94-.33-.16-2.54-.17-4.1-.85-4.75-2.07-3.9-5.99-9.85-4.09-13.36,4.27-11.65,18.42-2.6,26.42,22.76,20.11,64.83,8.63,74.67-20.33,1.11-3.27,2.91-8.46,2.91-11.92v-9.3c0-3.83,3.1-7.06,3.49-9.59Z"/><path d="M375.25,121.68c1.11,10.25.55,16.9-2.32,26.74.04-1.72.43-1.83-1.46-1.78-2.69.07-2.94,2.15-5.51,1.78,8.15-19.33,3.72-40.1-7.85-56.95-15.52,15.74-43.21,17.48-62.48,8.13-6.56-3.18-14.06-9.76-17.44-16.27-1.2-2.32-2.54-10.07-2.94-10.43-.19-.17-1.91.09-2.86-.33-5.11-2.24-.52-15.26,1.24-19.09,6.9-15.06,23.09-26.38,40.02-25.08-3.19,1.43-7.06,1.43-10.47,2.32-15.75,4.14-31.17,19.74-29.34,36.92,1.47,0,1.21-1.12,1.45-2.03,7.15-26.26,27.34-35.86,53.68-33.35l13.73,3.13c-20.17-15.13-51.58-16.06-72.25-1.35-3.32,2.36-5.34,5.01-8.24,7.45-.65.55-.94,1.41-2.04,1.16,3.12-7.64,11.43-13.11,18.79-16.37,14.8-6.55,32.04-6.75,47.47-2.22.81-.98-6.47-8.14-7.54-9.02-19.03-15.58-50.82-12.51-68.87,3.22-1.31,1.14-4.35,3.36-3.25,4.94,4.25,6.1,11.83,11.62,11.95,20.03-8.32-14.34-20.22-24.02-35.17-30.8-17.75-8.06-33.53-9.93-51.73-1.74s-30.47,25.3-34.29,44.75c-1.06,5.41-2.35,11.32-1.16,16.85-1.52.38-1.37-1.01-1.74-2.01-.71-1.93-1.23-4.04-1.17-6.12-.88-.24-.97.23-1.46.57-9.25,6.37-19.89,26.48-22.95,37.21-1.07.14-5.14,1.43-5.67,1.88-.72.6-.34,2.97-1.88,3.35,3.14-14.75,11.29-30.42,21.79-41.28,1.77-1.83,7.32-5.79,8.11-7s2.68-11.69,3.8-14.8c6.13-17.03,20.02-33.04,37.06-39.67,23.59-9.18,51.15-1.88,70.18,13.71,22.42-21.9,63.72-25.94,85.45-1.07,1.93,2.21,4.73,7.71,6.12,8.99,1.64,1.51,6.46,3.29,8.64,4.72,19.41,12.74,33.23,36.98,19.96,59.25,7.24,9.42,11.36,19.84,12.64,31.66ZM317.59,34.67c-22.12,1.36-45.21,19.87-37.35,43.97,11.55,35.39,89.52,30.52,81.49-14.65-3.58-20.12-25.16-30.49-44.14-29.32Z"/><path class="cls-14" d="M379.9,122.85c15.49,3.39,29.27,10.87,38.35,24.13,35.37,3.73,51.45,34.14,33.72,65.38-1.29-.32-4.46-1.65-5.4-2.3-1.01-.69-1.26-2.63-3.29-3.26-2.8-.86-6.59.18-9.52-.36-2.51-2.5-3.92-7.95-8.52-6.3.37-1.2.39-2.81.58-4.07.54-3.63.56-3.88,0-7.56-3.38-22.16-30.45-27.98-49.4-26.74-1.16-.06-2.18.58-1.51-1.21,1.2-3.19,3.14-6.36,4.13-9.82,2.69-9.43,2.23-18.29.87-27.91ZM398.29,141.04c-5.8.32-4.74,8.87.45,8.54,5.1-.33,5.03-8.85-.45-8.54ZM442.51,175.83c-4.4.67-2.55,7.23,2.1,5.63,2.76-.95,1.57-6.19-2.1-5.63ZM438.43,187.48c-5.39,1.59-3.68,11.57,3.3,10.89,8.28-.8,5.82-13.59-3.3-10.89Z"/><path class="cls-6" d="M425.23,200.15c4.61-1.65,6.02,3.8,8.52,6.3,2.94.54,6.72-.5,9.52.36,2.02.62,2.28,2.57,3.29,3.26.94.64,4.11,1.98,5.4,2.3-.67,1.18-3.58,5.95-3.43,6.56,19.79,17.57,11.34,50.44-15.15,54.49.78,18.37-22.82,22.4-36.96,21.51-2.52-.16-14.61-2.12-15.96-3.51-.19-.2-.83-2.96-1.74-3.49,5.43-.59,13.11-3.55,17.44-6.97,5.94-1.42,15.27-6.01,20.04-9.89,19.07-15.52,19.42-44.01.31-59.57l5.47-4.98c1.26-1.68,2.63-4.37,3.25-6.34Z"/><path class="cls-1" d="M133.45,288.5c3.42-3.35,4.98-8.08,6.36-12.55,15.16,1.8,33.05-4.34,38.11-20,1.24.01,6.09,5.77,7.56,6.97,11.17,9.1,28.04,12.3,42.11,10.5.08,5.73,4.38,9.63,6.99,13.93,2,3.28,2.98,9.47,4.07,13.37-2-.73-4.19-1.09-6.37-2.05-6.15-2.72-11.26-6.11-16.67-10.03-24.96,11.92-57.91,14.62-82.16-.12ZM177.48,275.22c-4.22.77-3.3,7.5,1.48,6.78,4.14-.63,3.32-7.65-1.48-6.78ZM188.5,277.55c-3.35,1.02-2.04,6.82,2.08,5.61,3.88-1.13,1.89-6.83-2.08-5.61ZM141.59,283.84c3.4,1.48,6.17-2.08,1.57-2.84l-1.57,2.84Z"/><path class="cls-14" d="M38.13,201.31l.6.83c-.05,2.14.09,4.65.56,6.72-4.66-1.14-2.38,6.48-1.58,8.85,1.69,5,6.93,10.41,11.52,12.89,1.21.66,3.73.19,3.44,2.09-3.1,6.31-10.1,8.66-14.53,13.37l-4.63-1.49c-7.42,6.57-10.29,15.54-8.74,25.32.58,3.65,3.14,10.6,4.65,13.95-24.78-1.28-38.75-28.79-22.29-48.54-5.61-11.05-2.28-22.65,7.22-30.17,1.03-.82,5.35-3.71,6.34-3.83,1.84-.22,4.56,2.16,6.66,2.93,4.06,1.48,10.96,3.56,10.77-2.93ZM25.21,221.76c-7.86,1.03-3.83,13.09,2.67,9.7,5.28-2.75,2.35-10.36-2.67-9.7Z"/><path class="cls-15" d="M119.5,249.55c6.65,20.32,32.48,23.04,48.44,12.11,15.13-10.36-.88-26.75-1.38-40.92-.09-2.66,1.84-3.24,4.09-3.74-.85,19.33,7.03,37.83,25.59,45.61,12.18,5.11,22.65,4.82,35.45,3.21-.68,7.7,1.67,14.58,4.65,21.51-.51-.1-1.19.07-1.74,0-2.62-4.3-6.92-8.2-6.99-13.93-14.07,1.8-30.93-1.4-42.11-10.5-1.47-1.2-6.32-6.96-7.56-6.97-5.06,15.66-22.95,21.8-38.11,20-1.39,4.47-2.94,9.2-6.36,12.55-8.66,8.48-24.32,10.1-35.43,6.66-1.27-.39-5.35-2.58-5.84-2.59-.75-1.99-.75-3.82,0-5.81,13.93-7.72,20.73-22.32,21.51-37.78,2.27.3,3.38,1.91,5.81.58ZM118.77,275.82c-5.2,1.13-5.85,9.7.15,11.25,9.13,2.37,9.57-13.36-.15-11.25Z"/><path class="cls-6" d="M329.33,293.73c-4.27-1.45-6.88,1.82-10.65,3.59-25.5,12-53.62,13.09-80.02,3.39-1.09-3.9-2.07-10.09-4.07-13.37.55.07,1.24-.1,1.74,0,4.07.82,4.18-.71,6.71-.63.74.02,2.68.49,3.76.63,1.57.19,6.59,4.37,8.71,5.53,23.62,12.98,58.3,5.58,75.57-14.83,3.28,5.33,2.1,11.1-1.74,15.69Z"/><path class="cls-1" d="M378.73,287.91c.91.53,1.55,3.29,1.74,3.49-13.88,8.13-34.13,8.12-49.31,3.67-1.22-.36-1.73-1.3-1.84-1.34,3.84-4.6,5.02-10.36,1.74-15.69,1.54-1.82,3.49-4.86,4.65-6.97,3.52,1.53,5.75,5.48,8.76,7.81,7.84,6.06,24.49,10.1,34.25,9.05ZM338.45,283.96c-2.94.9-2.92,6.45,1.11,6.85,6.19.62,5.36-8.84-1.11-6.85ZM361.35,290.29c-1.59,1.13.58,4.75,2.88,3.17,2.01-1.38-1.4-4.21-2.88-3.17Z"/><path class="cls-2" d="M387.9,35.22c2.73,6.77.85,13.92,8.87,17,2.39.92,9.35,1.21,9.27,4.68-.06,2.7-10.42,3.81-13.09,6.64-3.32,3.53-2.53,10.03-4.78,13.82-1.21,2.03-2.99,1.85-4.07-.26-2.46-4.8-.69-11.96-6.7-15.39-2.36-1.35-9.33-1.81-9.47-4.82.49-3.97,5.89-3.45,9.09-5.21,2.54-1.4,3.76-3.05,4.78-5.68.83-2.12,2.2-14.89,6.09-10.78ZM386.86,47.87l-1.15.37c-.9,4.5-5.63,6.67-9.3,8.64,5.86,1.45,8.53,5.21,10.17,10.76.75-5.32,4.44-10.34,10.17-10.47.18-1.57-.07-.91-.87-1.16-4.55-1.44-8.04-3.04-9.02-8.13Z"/><path class="cls-2" d="M353.54,27.72c-3.04-2.94-10.58-1.29-9.45-6.04.47-1.96,7.17-2.13,9.66-4.9,2.63-2.94,3.21-11.49,4.64-12.23,4.42-2.29,4.05,8.89,6.13,11.91,2.89,4.19,9.1,1.71,10.09,6.6-2.17,3.31-7.23,2.12-9.86,4.72s-2.03,9.31-5.14,9.95c-3.33.69-3.68-7.71-6.06-10ZM365.95,22.87c-3.08-2.41-5.85-3.9-6.68-8.14-.6,3.92-3.71,6.49-7.27,7.85,3.58.62,6.07,3.34,7.27,6.69,1.03-3.02,3.16-6.27,6.68-6.41Z"/><path class="cls-6" d="M92.19,286.75c-.75,1.99-.75,3.83,0,5.81-.91-.02-6.67,2.9-8.46,3.45-13.02,4-26.35,3.23-38.62-1.71-.26-2.79-.19-4.31,2.32-5.81,12.75,5.79,32.5,5.05,44.75-1.74Z"/><path class="cls-11" d="M379.9,122.85c1.37,9.61,1.82,18.47-.87,27.91-.99,3.47-2.93,6.64-4.13,9.82-.68,1.8.35,1.15,1.51,1.21l-9.88,1.74,4.93-9.89c.85-1.63.98-3.57,1.46-5.22,2.88-9.84,3.43-16.48,2.32-26.74,1.49.51,3.12.83,4.65,1.16Z"/><path class="cls-1" d="M31.74,267.57c1.63,7.55,8.56,17.69,15.69,20.92-2.51,1.5-2.58,3.02-2.32,5.81-.62-.25-1.85-.01-3.13-.64-3.1-1.5-11.2-6.81-12.56-9.82-1.51-3.35-4.07-10.3-4.65-13.95h6.98s0-2.32,0-2.32Z"/><path class="cls-2" d="M106.92,58.13c1.67,1.67,4.19,1.79,6.21,2.79l.5,2.85c-.5,1.46-5.17,1.44-6.95,2.95-2.25,1.91-2.09,7.27-3.83,7.82-4.54.42-2.57-5.71-5.7-8.09-1.72-1.31-6.52-1.18-7.21-3.88s3.92-2.68,5.57-3.54c4.07-2.13,3.59-9.63,5.21-10.03,4.45-1.09,3.48,6.4,6.21,9.13ZM105.55,62.97c.7-1.03-3.95-3.87-3.49-5.8l-2.35,3.74-2.29.91.37,1.15c2.17.12,3.48,1.34,3.7,3.48l4.06-3.49Z"/><path class="cls-2" d="M96.18,89.79l-.49,3.13c-1.79.89-4.52.68-5.84,2.29s-.84,6.74-3.17,6.73c-2.74,0-2.7-5.47-4.64-7.03-1.57-1.26-6.72-1.33-6.73-3.75,0-2.12,4.88-2.3,6.73-4.33s1.76-7.03,4.04-7.02,2.34,4.16,3.07,5.67c1.4,2.89,4.25,3.42,7.02,4.31ZM89.28,90.31l-3.48-2.92-2.91,4.06,4.03,2.31,2.36-3.45Z"/><path class="cls-2" d="M384.38,110.23c-1.28-1.05-4.6-.96-5.39-2.5-1.07-4.1,3.24-2.8,5.29-4.63,2.46-2.19.9-7.49,5.15-6.96,2.14,4.66,2.48,8.01,8.23,9.23l.2,2.57c-.38,1.08-4.27,1.28-5.77,2.96-1.39,1.56-1.51,5.69-2.66,6.08-4.19.63-2.57-4.74-5.04-6.77ZM389.15,104.28l-3.44,1.72.37,1.2,2.33,1.65,2.52-2.01-1.77-2.56Z"/><path class="cls-3" d="M38.13,201.31c.19,6.48-6.71,4.41-10.77,2.93-2.1-.77-4.83-3.14-6.66-2.93-1.85-3.34-4.87-5.99-6.5-9.49-.65-1.39-.67-2.99-1.06-3.88,2.22,1.62,3.38,3.98,5.53,5.8,5.36,4.54,12.58,6.83,19.46,7.57Z"/><path d="M109.04,101.92c-.53,1.85-.63,4.18-1.17,6.09l2.34.88c-4.24.16-2.51,1.18-3.85,1.66-3.97,1.41-3.94-2.67-4.68-2.85-2.62-.63-14.17-.13-17.63.03l17.44-.58c1.54-.38,1.17-2.75,1.88-3.35.53-.45,4.61-1.73,5.67-1.88Z"/><path class="cls-8" d="M81.72,107.73c-.63.04-2.31.46-3.49.58.65-1.03,2.39-.5,3.49-.58Z"/><path class="cls-15" d="M260.74,60.07h-1.16s0,1.16,0,1.16l1.74-.58c-.05-1.35.08-2.72,0-4.07-.03-.49-.02-1.01-.58-1.16-.03-.19.04-.4,0-.58,1.58-.91,5.23,5.69,5.23,6.1v12.21c0,1.45-4.03,1.67-5.21,1.48l-.61,4.04c5.26-.88,6.03,4.67,9.72,5.69.61.17,5.24.81,5.68.75,1.55-.21,1.03-2.09,2.62-1.79,3.38,6.51,10.88,13.09,17.44,16.27-1.45,4.24.86,6.12,4.07,8.14s8.38,4.32,12.21,4.65c-.83,2.36-1.84,3.94-.25,6.35,1.47,2.23,2.2.36,4.07.07,6.21-.96,12.04-2.08,18.02-3.49.82-.19,3.03-.62,2.58,1.13-6.19,2.89-13.12,4.82-19.76,6.39l-1.16.58c-.55.08-1.26-.11-1.74,0-.46.11-.54.57-.58.58-.5.11-1.23-.11-1.74,0-.47.1-1-.03-1.16.58h-1.74l-1.74.58c-33.82,6.02-73.43,2.67-106.23-7.4-8.46-2.6-20.04-8.81-28.76-7.56-11.12,1.6-12.69,13.1-8.1,21.74,6.64,12.48,22.86,17.44,36.13,15.3,2.76,4.53,4.56,11.18-2.53,12.21l-.37,1.15c2.2,1.49,5.69,3.89,5.23,6.99-1.34.62-2.45,1.56-3.78,2.18-1.47-.48-1.91-2.62-2.61-3.35-.19-.2-.37-.39-.58-.58-8.39-7.46-23.89-4.38-32.27,1.75-3.39-2.38-6.29-5.1-10.74-5.25-.49-.58,3.23-6.03,3.76-7.56,7.88-22.64-14.08-38.88-33.41-43.58-.07-.27-.31-.55-.58-.58-.55-.07-1.25.11-1.74,0-.23-.05-.88-.4-1.74-.58-.19-.04-.4.04-.58,0-.16-.03-.72-.43-1.74-.58-.55-.08-1.18.07-1.74,0-.09-.01-.51-.51-1.74-.58-.76-.04-1.56-.03-2.32,0l-2.34-.88c.54-1.92.65-4.25,1.17-6.09,3.07-10.72,13.71-30.84,22.95-37.21.49-.34.57-.81,1.46-.57-.06,2.08.46,4.18,1.17,6.12.37,1,.22,2.39,1.74,2.01-1.19-5.53.1-11.44,1.16-16.85.57,2.42,5.13,3.53,5.53,4.06s.36,1.92.74,2.75c1.74,3.85,3,6.18,6.31,8.91.75-.16,1.89-.28,2.53-.61v.58c-3.61,1.88-3.12,6.42-3.23,9.89.98,1.56,10.18,3.11,11.95,1.15,14.71,37.25,92.61,33.55,96.48-5.81.76-.28.55-1.11.58-1.74.1-2.27.22-5.35,0-7.56l-.58-1.74c-.96-6.01-3.29-11.41-6.97-16.27,1.4-4.08-.13-8.2-4.65-5.23-2.77-2.51-8.74-6.02-12.21-7.56l2.32-3.49c14.64,7.15,18.64,12.51,24.41,27.32ZM276.49,95.59c-1.2,1.74,2.22,5.25,3.74,2.26,1.32-2.6-2.84-3.57-3.74-2.26ZM215.99,114.71h9.59c3.22,0,10.23-3.9,12.07-5.94.4-.44,2.03-.96.13-1.04-6.86,3.9-13.48,4.45-20.91,5.84-.95.18-1-.38-.88,1.14ZM307.82,121.69c-1.44-.16-3.06-.04-2.9,1.74h2.91s0-1.74,0-1.74Z"/><path class="cls-4" d="M365.95,148.42c-2.99,7.09-7.27,12.49-13.43,17.09-1.23.92-5.63,4.18-6.76,4.35-1.78.27-2.37-1.69-3.68-2.51-4.64-2.91-10.47-3.78-15.89-3.17-2.04.23-5.86,2.1-6.92,2.12-1.78.03-6.46-1.79-8.9-2.11-17.85-2.35-35.78,3.04-48.21,16.19l-.85-.25c-13.42-19.06-39.05-21.82-59.27-12.52.47-3.1-3.02-5.5-5.23-6.99l.37-1.15c7.09-1.03,5.29-7.68,2.53-12.21,1.23-.2,3.69-1.49,4.94-1.49,2.76,0,11.1,2.93,14.71,3.64,33.55,6.6,64.15,7.42,97.42-1.03,2.67-.68,6.96-2.74,9.4-2.81s5.99,1.89,8.73,2.21c9.42,1.1,22.87-1.73,25.09-12.57.3-1.46-.13-3.09.25-4.4.24-.82,2.4-2.57,3.16-3.81,3.79-6.13,2.92-16.87-5.37-18.05-9.4-1.34-14.16,3.97-21.75,7.51.45-1.75-1.75-1.33-2.58-1.13-5.98,1.41-11.81,2.53-18.02,3.49-1.87.29-2.6,2.15-4.07-.07-1.59-2.41-.58-3.99.25-6.35,4.51.39,9.2.08,13.36-1.75.09-1.33-1.13,0-1.45,0h-8.72c-1.8,0-8.07-1.47-10.19-2.02-1.61-.42-3.79-2.33-5.22-.89-3.21-2.02-5.52-3.9-4.07-8.14,19.27,9.35,46.97,7.61,62.48-8.13,11.57,16.85,16,37.62,7.85,56.95Z"/><path d="M267.72,242c5.3,4.34,13.15,5.31,19.89,3.91,7.45-1.54,13.67-6.36,19.04-11.46-1.29,19.45-20.31,27.25-37.57,21.61-1.13-.37-.72-1.23-.79-1.26,2.28-2.28,1.44-6.43-.06-8.94-.82-1.36-5.35-3.16-2.26-5,.16.16,1.21.72,1.74,1.16Z"/><path class="cls-4" d="M396.17,280.94c-4.33,3.42-12.01,6.39-17.44,6.97-9.76,1.05-26.41-2.99-34.25-9.05-3.01-2.32-5.24-6.28-8.76-7.81.4-.72.74-3.87,1.97-3.43,1.67.6,5.35,4.18,7.38,5.42,14.36,8.74,34.74,11.81,51.1,7.89Z"/><path class="cls-3" d="M38.13,246.07c-4.65,4.94-7.82,14.89-6.39,21.51v2.33s-6.97,0-6.97,0c-1.55-9.77,1.32-18.74,8.74-25.32l4.63,1.49Z"/><path class="cls-4" d="M113.69,248.97c.47-9.42-1.29-18.68-2.91-27.9l7.56-1.16c-.51,9.29-1.77,20.68,1.17,29.64-2.43,1.33-3.54-.28-5.81-.58Z"/><path class="cls-1" d="M231.68,265.83c1.27-.16,2.61-.95,4-.52,1.52,8.23,5.15,16.15,11.11,22.02-1.08-.13-3.02-.6-3.76-.63-2.52-.08-2.64,1.45-6.71.63-2.98-6.92-5.33-13.8-4.65-21.51Z"/><path class="cls-15" d="M39.3,208.87c1.16,5.04,4.65,12.69,8.77,15.93s7.61,1.78,4.6,7.9c.3-1.9-2.22-1.43-3.44-2.09-4.59-2.48-9.83-7.89-11.52-12.89-.8-2.37-3.07-9.99,1.58-8.85Z"/><path class="cls-15" d="M425.81,196.08v-7.56c.56,3.68.54,3.93,0,7.56Z"/><path class="cls-8" d="M106.14,114.71c-.93-.02-2.42.35-2.91-.58.93.02,2.42-.35,2.91.58Z"/><path class="cls-8" d="M110.79,115.29l-2.32-.58c1.14.09,2.17.56,2.32.58Z"/><path class="cls-8" d="M115.44,115.87l-2.32-.58c1.1.14,1.88.51,2.32.58Z"/><path class="cls-8" d="M120.09,117.03c-1.17-.28-2.58-.05-3.49-1.16,1.21.24,2.56.07,3.49,1.16Z"/><path class="cls-8" d="M120.09,110.64l-1.74-.58c.86.18,1.52.53,1.74.58Z"/><path class="cls-8" d="M114.27,109.48l-1.74-.58c1.24.07,1.65.57,1.74.58Z"/><path class="cls-8" d="M117.76,110.06l-1.74-.58c1.02.15,1.59.55,1.74.58Z"/><path class="cls-8" d="M122.41,111.22c-.25-.06-.47-.34-.58-.58.27.03.51.31.58.58Z"/><path class="cls-4" d="M195.65,166.44l-.58-.58c.21.19.39.38.58.58Z"/><path class="cls-4" d="M223.54,12.41c14.94,6.79,26.84,16.46,35.17,30.8-.13-8.41-7.7-13.93-11.95-20.03-1.1-1.58,1.94-3.8,3.25-4.94,18.05-15.73,49.84-18.8,68.87-3.22,1.07.88,8.36,8.04,7.54,9.02-15.42-4.52-32.66-4.33-47.47,2.22-7.36,3.26-15.66,8.73-18.79,16.37,1.09.26,1.38-.61,2.04-1.16,2.91-2.44,4.93-5.09,8.24-7.45,20.67-14.71,52.08-13.78,72.25,1.35l-13.73-3.13c-26.35-2.5-46.53,7.1-53.68,33.35-.25.91.02,2.03-1.45,2.03-1.83-17.18,13.59-32.78,29.34-36.92,3.41-.9,7.28-.9,10.47-2.32-16.92-1.31-33.12,10.01-40.02,25.08-1.75,3.83-6.35,16.85-1.24,19.09.95.42,2.67.16,2.86.33.41.36,1.74,8.11,2.94,10.43-1.59-.31-1.06,1.57-2.62,1.79-.44.06-5.07-.58-5.68-.75-3.69-1.02-4.46-6.56-9.72-5.69l.61-4.04c1.17.19,5.21-.03,5.21-1.48v-12.21c0-.42-3.65-7.01-5.23-6.1-4.69-19.4-34.53-31.3-52.58-31.99-20.47-.79-48.19,10.01-56.11,30.24,1.06,1,6.22-6.96,6.99-7.83,18.71-21.03,52.8-24.46,77.29-12.51l-2.32,3.49c-27.18-12.07-68.99-1.33-74.5,31.28-1.84.5-3.77.95-5.54,1.69-.72.3-1.02,1.17-1.33,1.32-.64.32-1.78.45-2.53.61-3.31-2.74-4.57-5.07-6.31-8.91-.38-.83-.35-2.24-.74-2.75s-4.96-1.64-5.53-4.06c3.82-19.45,16.04-36.55,34.29-44.75,4.99,1.83,10.49-1,15.47-1.68,6.46-.88,14.23-.41,20.69.69,5.03.85,10.65,3.71,15.57,2.73Z"/><path class="cls-9" d="M317.59,34.67c18.99-1.17,40.57,9.21,44.14,29.32,8.03,45.17-69.94,50.04-81.49,14.65-7.86-24.1,15.23-42.62,37.35-43.97ZM338.63,92.62c14.38-7.33,20.45-22.48,12.21-37.2-9.15-16.34-35.04-20.8-49.93-10.12-29.89,21.44,2.22,65.43,37.73,47.32Z"/><path class="cls-15" d="M223.54,12.41c-4.93.97-10.55-1.88-15.57-2.73-6.46-1.1-14.22-1.57-20.69-.69-4.98.68-10.48,3.5-15.47,1.68,18.2-8.18,33.97-6.32,51.73,1.74Z"/><path class="cls-16" d="M438.43,187.48c9.12-2.7,11.58,10.09,3.3,10.89-6.98.68-8.69-9.3-3.3-10.89Z"/><path class="cls-13" d="M398.29,141.04c5.48-.31,5.55,8.21.45,8.54-5.19.33-6.25-8.22-.45-8.54Z"/><path class="cls-13" d="M442.51,175.83c3.67-.56,4.85,4.67,2.1,5.63-4.64,1.6-6.5-4.95-2.1-5.63Z"/><path class="cls-16" d="M177.48,275.22c4.8-.87,5.62,6.15,1.48,6.78-4.78.73-5.7-6.01-1.48-6.78Z"/><path class="cls-16" d="M188.5,277.55c3.97-1.21,5.96,4.48,2.08,5.61-4.12,1.2-5.43-4.59-2.08-5.61Z"/><path class="cls-13" d="M141.59,283.84l1.57-2.84c4.6.76,1.83,4.32-1.57,2.84Z"/><path class="cls-16" d="M25.21,221.76c5.03-.66,7.95,6.95,2.67,9.7-6.5,3.39-10.54-8.67-2.67-9.7Z"/><path class="cls-13" d="M118.77,275.82c9.72-2.11,9.27,13.62.15,11.25-5.99-1.56-5.35-10.12-.15-11.25Z"/><path class="cls-16" d="M338.45,283.96c6.47-1.99,7.3,7.47,1.11,6.85-4.03-.4-4.05-5.95-1.11-6.85Z"/><path class="cls-13" d="M361.35,290.29c1.48-1.05,4.88,1.79,2.88,3.17-2.3,1.58-4.47-2.04-2.88-3.17Z"/><path class="cls-9" d="M386.86,47.87c.99,5.1,4.47,6.7,9.02,8.13.8.25,1.05-.4.87,1.16-5.73.13-9.43,5.15-10.17,10.47-1.64-5.54-4.31-9.3-10.17-10.76,3.67-1.96,8.39-4.14,9.3-8.64l1.15-.37Z"/><path class="cls-9" d="M365.95,22.87c-3.53.13-5.66,3.39-6.68,6.41-1.2-3.35-3.69-6.07-7.27-6.69,3.56-1.36,6.67-3.93,7.27-7.85.83,4.24,3.6,5.73,6.68,8.14Z"/><path class="cls-17" d="M105.55,62.97l-4.06,3.49c-.22-2.14-1.53-3.36-3.7-3.48l-.37-1.15,2.29-.91,2.35-3.74c-.45,1.93,4.19,4.77,3.49,5.8Z"/><polygon class="cls-17" points="89.28 90.31 86.92 93.76 82.89 91.45 85.8 87.39 89.28 90.31"/><polygon class="cls-17" points="389.15 104.28 390.92 106.84 388.41 108.85 386.08 107.2 385.71 106 389.15 104.28"/><path d="M199.71,147.26c-13.27,2.14-29.5-2.83-36.13-15.3-4.6-8.64-3.03-20.14,8.1-21.74,8.72-1.26,20.3,4.96,28.76,7.56,32.8,10.08,72.41,13.42,106.23,7.4l1.74-.58h1.74l1.16-.58c.51-.11,1.24.11,1.74,0l.58-.58c.49-.11,1.2.08,1.74,0l1.16-.58c6.64-1.57,13.57-3.5,19.76-6.39,7.58-3.54,12.35-8.85,21.75-7.51,8.29,1.18,9.16,11.92,5.37,18.05-.76,1.24-2.93,2.99-3.16,3.81-.38,1.31.05,2.94-.25,4.4-2.22,10.84-15.66,13.67-25.09,12.57-2.74-.32-6.18-2.28-8.73-2.21s-6.73,2.13-9.4,2.81c-33.27,8.45-63.87,7.63-97.42,1.03-3.61-.71-11.95-3.64-14.71-3.64-1.25,0-3.71,1.3-4.94,1.49ZM308.99,128.08c-41.85,7.83-79.2,2.04-119.15-10.46-3.38-1.06-6.69-2.88-10.32-3.34-17.74-2.23-16.9,13.17-6.54,22.23,6.2,5.42,15.38,7.96,23.54,7.25,2.76-.24,6.09-1.79,8.64-1.69,5.66.22,16.42,3.92,22.92,5.02,27.73,4.7,55.3,5.06,82.78-1.16,3.58-.81,13.33-4.43,15.87-4.39,4.38.07,9.15,3.46,15.62,2.75,5.83-.64,13.74-4.89,13.72-11.56,1.51.32,2.13.76,3.48,1.16.73-2.65-1.38-1.36-1.73-1.75-1.6-1.76,3.99-5.31,4.52-6.8.28-.79.74-2.94-1.04-2.49,2.02-5.25-.54-11.08-6.62-10.98-5.08.08-14.23,6.35-19.33,8.57-8.62,3.76-17.13,5.91-26.36,7.64Z"/><path d="M234.01,36.24c3.47,1.54,9.44,5.05,12.21,7.56,1.08.98,3.73,4.02,4.65,5.23,3.69,4.86,6.02,10.26,6.97,16.27.16.99.57,1.65.58,1.74.22,2.2.1,5.28,0,7.56-.79.27-.52,1.12-.58,1.74-3.88,39.36-81.77,43.06-96.48,5.81-.42-1.07-1.5-7.25-1.8-7.5-2.91.03-6.95.27-6.92-3.54v-.58c.31-.16.61-1.02,1.33-1.32,1.77-.74,3.7-1.18,5.54-1.69,5.52-32.61,47.32-43.35,74.5-31.28ZM204.83,34.67c-21.34,1.75-47.43,18.77-40.74,43.3,9.82,36.06,83.1,36.42,90.11-1.5,5.31-28.75-24.57-43.84-49.36-41.81Z"/><path d="M260.74,54.84c.04.18-.03.39,0,.58.09.47-.01.98.58,1.16.08,1.35-.05,2.72,0,4.07-.21-.15-.49-.34-.58-.58-5.77-14.81-9.77-20.17-24.41-27.32-24.49-11.95-58.58-8.52-77.29,12.51-.77.87-5.93,8.82-6.99,7.83,7.92-20.24,35.65-31.03,56.11-30.24,18.04.69,47.89,12.59,52.58,31.99Z"/><path class="cls-4" d="M152.63,71.12c-.03,3.81,4.01,3.58,6.92,3.54.29.25,1.37,6.43,1.8,7.5-1.76,1.95-10.97.41-11.95-1.15.11-3.47-.39-8.01,3.23-9.89Z"/><path d="M299.69,107.73c1.43-1.45,3.61.47,5.22.89,2.12.55,8.38,2.02,10.19,2.02h8.72c.32,0,1.53-1.34,1.45,0-4.17,1.83-8.85,2.14-13.36,1.75-3.83-.33-8.96-2.61-12.21-4.65Z"/><path d="M215.99,114.71c-.12-1.53-.08-.96.88-1.14,7.44-1.39,14.06-1.95,20.91-5.84,1.9.08.26.6-.13,1.04-1.83,2.05-8.84,5.94-12.07,5.94h-9.59Z"/><path class="cls-4" d="M246.21,43.8c4.52-2.97,6.05,1.15,4.65,5.23-.92-1.21-3.57-4.25-4.65-5.23Z"/><path class="cls-3" d="M276.49,95.59c.9-1.31,5.07-.33,3.74,2.26-1.52,2.98-4.95-.52-3.74-2.26Z"/><path class="cls-4" d="M307.82,121.69v1.74s-2.9,0-2.9,0c-.16-1.78,1.46-1.89,2.9-1.74Z"/><path class="cls-4" d="M260.74,60.07c.09.24.37.43.58.58l-1.74.58v-1.16s1.16,0,1.16,0Z"/><path class="cls-4" d="M257.84,76.35c.06-.62-.2-1.47.58-1.74-.03.64.18,1.46-.58,1.74Z"/><path class="cls-4" d="M258.42,67.05c0-.09-.42-.75-.58-1.74l.58,1.74Z"/><path class="cls-4" d="M308.4,124.59l-1.74.58,1.74-.58Z"/><path class="cls-4" d="M261.32,56.59c-.59-.19-.5-.69-.58-1.16.56.15.55.67.58,1.16Z"/><path class="cls-4" d="M316.54,122.85l-1.16.58,1.16-.58Z"/><path class="cls-4" d="M311.31,124.01l-1.16.58c.16-.61.7-.48,1.16-.58Z"/><path class="cls-4" d="M313.05,124.01s.12-.47.58-.58l-.58.58Z"/><path class="cls-7" d="M338.63,92.62c-35.51,18.11-67.62-25.88-37.73-47.32,14.89-10.68,40.79-6.22,49.93,10.12-3.34-1.5-6.16-2.14-9.88-1.74.79-8.98-12.27-13.7-16.86-5.81-16.41-2.43-31.41,10.3-24.69,27.31,5.87,14.88,28.94,18.47,40.39,8.15,1.24.52,2.04,2.52,1.79,3.7-.09.44-5.96,2.14-2.95,5.6Z"/><path class="cls-12" d="M350.83,55.42c8.24,14.72,2.17,29.87-12.21,37.2-3.01-3.46,2.86-5.16,2.95-5.6.25-1.18-.55-3.19-1.79-3.7,3.05-2.75,6.11-8.94,6.41-13.06.34-4.73-1.16-12.12-5.83-14.26.05-.11.57-2.21.58-2.32,3.72-.4,6.55.25,9.88,1.74Z"/><path class="cls-18" d="M361.3,122.85c-.32.85-3.02,4.4-3.86,4.56-8.68-5.12-15.63.44-23.59,3.16-41.68,14.21-86.77,13.04-128.9,1.29-6.89-1.92-15.41-5.76-22.06-7-2.61-.49-6.4-.86-5.86,2.9.57,3.96,8.41,1.75,11.78,2.22,7.58,1.04,18.76,5.89,27.07,7.81,36.18,8.32,76.65,8.91,112.29-2.14.96.71,4.02.45,5.11.22,4.35-.93,9.54-3.9,13.78-4.28,2.65-.24,6.35.59,9.01,1.15.02,6.66-7.89,10.92-13.72,11.56-6.47.71-11.24-2.69-15.62-2.75-2.55-.04-12.29,3.58-15.87,4.39-27.48,6.23-55.05,5.87-82.78,1.16-6.51-1.1-17.26-4.79-22.92-5.02-2.55-.1-5.88,1.45-8.64,1.69-8.16.71-17.34-1.83-23.54-7.25-10.36-9.06-11.2-24.47,6.54-22.23,3.63.46,6.94,2.28,10.32,3.34l4.33,2.93c33.6,10.56,78.55,18.83,113.22,9.1.98-.27,1.87-.17,1.6-1.57,9.23-1.73,17.74-3.88,26.36-7.64,5.1-2.23,14.25-8.49,19.33-8.57,6.08-.1,8.64,5.73,6.62,10.98Z"/><path d="M361.3,122.85c1.78-.44,1.32,1.7,1.04,2.49-.52,1.49-6.12,5.03-4.52,6.8.35.39,2.46-.9,1.73,1.75-1.36-.4-1.98-.84-3.48-1.16,0-1.47-.45-2.98-1.88-3.64-5.54-2.56-19.89,4.64-26.02,6.55-35.64,11.05-76.11,10.47-112.29,2.14-8.31-1.91-19.48-6.76-27.07-7.81-3.37-.46-11.21,1.75-11.78-2.22-.54-3.76,3.25-3.39,5.86-2.9,6.65,1.24,15.17,5.08,22.06,7,42.13,11.75,87.22,12.92,128.9-1.29,7.96-2.71,14.91-8.28,23.59-3.16.84-.16,3.54-3.71,3.86-4.56Z"/><path class="cls-19" d="M308.99,128.08c.28,1.41-.62,1.3-1.6,1.57-34.67,9.73-79.63,1.45-113.22-9.1l-4.33-2.93c39.96,12.5,77.3,18.29,119.15,10.46Z"/><path class="cls-9" d="M204.83,34.67c24.8-2.03,54.68,13.06,49.36,41.81-7.01,37.92-80.29,37.55-90.11,1.5-6.69-24.54,19.41-41.56,40.74-43.3ZM228.19,93.2c13.81-8.96,17.83-23.29,9.3-37.78-14.03-23.83-58.17-19.81-62.51,8.11-4.6,29.57,30.46,44.44,53.21,29.67Z"/><path d="M308.49,208.81c-.65,1.97-2.63,8.79-4.14,10.24-3.99,3.86-13.11,5.46-16.56.24-7.41-11.23,9.67-34.08,21.66-21.56.41,3.5.16,7.67-.97,11.07Z"/><path class="cls-10" d="M210.17,207.13c7.35.27,24.71-2.47,22.54-12.95-.73-3.52-4.3-5.62-7.71-5.7-9.65-.24-14.7,10.26-14.82,18.65Z"/><path d="M324.1,47.87c-6.38,10.97,11.79,18.09,16.27,8.14,4.67,2.14,6.17,9.53,5.83,14.26-.3,4.11-3.36,10.31-6.41,13.06-11.45,10.32-34.52,6.73-40.39-8.15-6.71-17.01,8.28-29.74,24.69-27.31Z"/><path class="cls-9" d="M340.95,53.68c-.01.12-.53,2.22-.58,2.32-4.48,9.96-22.66,2.83-16.27-8.14,4.59-7.89,17.65-3.17,16.86,5.81Z"/><path class="cls-19" d="M356.07,132.73c-2.65-.56-6.35-1.39-9.01-1.15-4.24.38-9.43,3.35-13.78,4.28-1.09.23-4.15.49-5.11-.22,6.13-1.9,20.47-9.1,26.02-6.55,1.43.66,1.88,2.17,1.88,3.64Z"/><path class="cls-7" d="M228.19,93.2c-22.75,14.77-57.81-.11-53.21-29.67,4.34-27.92,48.48-31.94,62.51-8.11l-9.3-1.16c.9-9.34-13.22-13.74-17.44-5.81-17.8-4.12-34.55,13.33-24.88,30.4,7.19,12.68,26.23,16.45,38.25,8.54-.31,3.05,3.48,3.27,4.07,5.81Z"/><path class="cls-12" d="M237.49,55.42c8.53,14.48,4.51,28.82-9.3,37.78-.59-2.54-4.38-2.76-4.07-5.81,6.2-4.08,10.06-12.64,9.24-19.99-.34-3.06-2.6-10.04-6.33-10.23.19-.37,1.15-2.75,1.16-2.91l9.3,1.16Z"/><path d="M210.17,207.13c.12-8.38,5.17-18.89,14.82-18.65,3.41.08,6.98,2.18,7.71,5.7,2.17,10.48-15.18,13.22-22.54,12.95Z"/><path d="M210.76,48.45c-5.47,10.29,11.16,18.63,16.27,8.72,3.73.19,5.99,7.18,6.33,10.23.82,7.36-3.04,15.92-9.24,19.99-12.02,7.9-31.06,4.14-38.25-8.54-9.68-17.07,7.08-34.52,24.88-30.4Z"/><path class="cls-9" d="M228.19,54.26c-.01.16-.97,2.53-1.16,2.91-5.11,9.92-21.75,1.57-16.27-8.72,4.21-7.92,18.33-3.53,17.44,5.81Z"/></g></svg>