<?xml version="1.0" encoding="UTF-8"?><svg id="Lager_2" xmlns="http://www.w3.org/2000/svg" viewBox="0 0 617.49 644.18"><defs><style>.cls-1{fill:none;}.cls-2{fill:#b4d7a9;}.cls-3{fill:#b7d79d;}.cls-4{fill:#f9ed75;}.cls-5{fill:#5b453e;}.cls-6{fill:#cdd7cd;}.cls-7{fill:#f19dbf;}.cls-8{fill:#b6afd7;}.cls-9{fill:#cca2cb;}.cls-10{fill:#90d2ee;}.cls-11{fill:#403d37;}.cls-12{fill:#f8cd97;}.cls-13{fill:#fadae4;}.cls-14{fill:#f8c4a4;}</style></defs><g id="puke"><path d="M279.37,317.72c-6.07-6.78,17.76,13.33,38.51,13.33s38.29-15.33,50.87-11.78c4.52,1.28,5.47,2.43,5.47,2.43,0,0,4.56,21.79,2.84,30.74-1.51,7.86,4.09,27.9,8.09,36.32s12.44,35.87,4.74,47.32c-2.16,10.34-5.33,30.75,1.1,37.72s10.16,25.46,6.26,38.4-6.85,24.18-4.82,31.13,13.72,32.62,13.55,35.88c1.68-.79,18.81-2.19,26.72.32s30,9.38,25.27,20.01c-4.73,10.64-22.51,16.53-38.43,15.16-3.2,10.6-20.57,22.2-76.62,18.82-56.05-3.37-42.82-16.62-42.82-16.62,0,0-10.14-2.67-13.54-2.66-3.4,0-22.06-6.31-14.58-20.53,7.48-14.22,25.23-7.34,32.1-10.82,2.25-7.6-2.36-13.56-3.21-18.36-.59-3.32-3.72-14.2,1.58-28.22,1.93-5.11,6.87-21.46,2.84-28.15s-12.3-34.93-9.18-50.29,9.91-37.51,4.51-45.95c-10.47-16.38-6.75-31.36-5.64-38.64s-4.34-32.52-6.11-34.64c-2.7-3.24-3.11-13.77-9.52-20.93Z"/><path d="M279.37,317.72s12.64-3.11,26.34-2.83c19.87.4,41.69,3.54,68.5.43,2.77,4.17-9.67,13.46-9.67,13.46,0,0-55.2,8.25-82.19-6.69-1.86-.9-2.98-4.37-2.98-4.37Z"/><path class="cls-4" d="M345.41,320.55l2.25,7.8c2.02,7.11-.09,14.42-.26,21.23,0,.36-.04.77,0,1.12-.63.26-.5,1.06-.5,1.67,0,.55-.04,1.12,0,1.67-.68.28-.44,1.08-.5,1.67-.06.54.04,1.12,0,1.67,0,.06-.48.14-.5,1.12,0,.37-.03.75,0,1.12-.59.65-.53,1.39-.5,2.23.02.55-.04,1.12,0,1.67-.8,1.28-.58,3.44-.5,5.02.03.55-.03,1.12,0,1.67-.83,1.58-.61,4.08-.49,5.86.51,7.98,3.01,16.18,6.04,23.39.35.82.26,1.74,1.41,1.46.05.17-.05.39,0,.56.53,1.92,1,3.88,1.99,5.58.02.37-.01.75,0,1.12.06,2,.74.79.99,1.12.12.15-.09,1.22,0,1.67,2.05,10.52,1.34,13.74,0,24-.05.36.03.75,0,1.12-.88,2.18-1.62,4.91-1.99,7.26-.05.35.06.77,0,1.12-.16.98,0,1.05,0,1.12-.05.35.05.76,0,1.12l-.92.07c-.3,1.93-1.11,3.48-1.07,5.51,0,.37,0,.74,0,1.12-2.23,8.63-.82,17.67,2.12,25.84.31.87.13,1.8,1.36,1.51.08.3-.08.81,0,1.12.39,1.48.81,5.13,2.49,5.02.22.84.21,2.2.5,3.35.13.51.45.92.5,1.12.47,1.95.64,3.23.99,5.02.17.87.49,1.06.5,1.12.06.34-.05.77,0,1.12.13.93.49,1.05.5,1.12.05.35-.04.76,0,1.12.12,1.09-.36,2.37.5,3.35-.08,1.37-.09,3.1,0,4.47-.68.66-.4,1.47-.5,2.23-.07.54.07,1.14,0,1.67,0,.06-.35.18-.5,1.12-.21,1.36-.28,3.01-.5,4.47,0,.06-.71.48-.5,1.12v1.12c-.5.17-.45.64-.5,1.12-.04.36.03.75,0,1.12-.57.74-.96,2.43-.99,3.35-.01.37.02.75,0,1.12-.76,1.17-.81,3.05-.99,4.47-.07.53.06,1.14,0,1.67-.28,2.31-.87,5.02-1.01,7.51-.08,1.35-.26,3.08.52,4.21-.06,1.08-.04,2.27,0,3.35.15,3.87,1.47,8.56,2.49,12.28.2.73.32,1.5.5,2.23.53,2.14.68.67.99,1.12.27.38,1.67,8.07,1.99,9.49.16.72.49,1.06.5,1.12.29,1.41.29,2.67.5,3.91.15.92.49,1.05.5,1.12.07.53-.05,1.13,0,1.67.37,3.75.84,7.62.49,11.44-.23,2.55-1.46,4.48-1.49,6.98.66.02,1.33-.01,1.99,0,1.32.03,2.67-.1,3.98,0,1.78.14,5.99.42,7.38.93,1.83.67,2.35,3.33,1.09,4.39-1.68,1.41-10.52,1.61-9.41,5.48.59,2.04,6.94,1.63,8.67,1.5,6.77-.47,13.88-3.15,20.62-.57l-1.01,3.08,1.14,1.52c4.17,1.56,13.78-.67,14.8,5.44-4.13,2.81-6.65,2.8-10.94,3.91-6.16-1.44-12.39-4.26-18.49-5.77-8.68-2.14-19.85-2.76-28.78-2.6-.33,0-.66-.01-.99,0-2.51-1.04-4.94-.21-6.96-2.79.09-1.33-.36-2.03.99-2.79,1.69-.95,5.66-.84,5.97-3.34-1.04-1.55-18.86-1.33-22.08-1.74s-8.96-3.47-3.57-6.11c2.88-1.41,8.1-1.75,11.22-2.2.63-.09,1.36.1,1.99,0,2.11-.33,1.96-.53,2.49-2.79.11-.45-.07-1.16,0-1.67h.99c0-.55.02-1.12,0-1.67-.01-.37.04-.75,0-1.12,1.03-3.15.68-7.57-.5-10.6-.03-.55.04-1.12,0-1.67-.33-5.22-4.23-17.16-5.74-22.89-.24-.92.1-1.98-1.23-1.66,0-.37,0-.74,0-1.12-.26-15.11,1.92-20,4.35-33.91,1.97-11.28.21-22.07-4.44-32.16-.37-.8-.22-1.76-1.4-1.47-.06-.32.04-.76,0-1.12-.34-2.95-.65-1.15-.99-1.67-.12-.18-.8-3.63-.99-4.47-6-25.36,4.27-32.4,5.01-53.86.04-1.06.16-2.23-.53-3.08.01-.37,0-.74,0-1.12.08-3.05-1.05-5.95-1.85-8.8-2.35-8.31-5.92-16.27-8.1-24.68,0-.37-.01-.75,0-1.12.06-1.61.33-3.72-.5-5.02.06-1.43.06-3.03,0-4.47.83-1.31.55-3.4.5-5.02-.01-.37,0-.75,0-1.12,1.34-6.33,2.77-12.83,3.42-19.33.82-8.24.58-17.95-3.14-25.36-.45-.89-.65-1.69-1.77-1.64-.04-.17.03-.37,0-.56-.05-.34.06-.75,0-1.12h-.99c-.14-.72,0-1.55-.5-2.23,8.49-.34,13.35-.22,21.89,1.12ZM350.25,579.64c-3.91.98-2.51,5.84,1.87,5.5,4.91-.39,3.69-6.89-1.87-5.5Z"/><path class="cls-14" d="M323.52,319.43c.5.68.35,1.51.5,2.23.06.31-.07.75,0,1.11h.99c.03.19-.04.39,0,.56.98,4.58,3.59,8.48,4,13.65.89,11.38-2.41,21.83-2.51,32.67,0,.37-.01.75,0,1.12h-.99c0,1.39-.06,2.8.01,4.2.05.89.48.78.48.83.06,1.43.06,3.03,0,4.47,0,.05-.43-.06-.48.83-.08,1.4,0,2.81-.01,4.2h.99c-.01.37,0,.74,0,1.11-.06,9.92,6.75,21.17,8.89,31.63.21,1.01-.48,2.19,1.06,1.86,0,.37.01.75,0,1.12-.8,20.35-11.69,33.19-5.82,55.39.25.93.13,1.82,1.34,1.54.2.83.87,4.28.99,4.47v1.68s.99,0,.99,0c.04.36-.06.79,0,1.12.99,5.12,5.34,13.41,5.7,18.33.42,5.76-.37,14.13-1.96,19.62-2.43,8.39-4.38,17.14-3.1,26.92.12.89.26,2.02.86,2.66,0,.37,0,.74,0,1.12-.03,3.14.37,2.96.87,4.75,1.68,6.05,3.15,12.18,4.76,18.27.24.93.13,1.82,1.34,1.54.04.55-.03,1.12,0,1.67.16,3.37.16,7.15.5,10.6.04.36-.01.75,0,1.12h-.99s0,1.67,0,1.67c-.07.52.11,1.23,0,1.67-1.29.15-2.36,1.36-2.49,2.79-.63.1-1.36-.09-1.99,0-4.78-1.41-19.11.52-12.83,8.81l20.44,1.91.84,2.68c-1.36.77-.91,1.46-.99,2.79,0,.07-.49.31-.42.74,1.05,1.96,3.68,2.68,5.65,2.66,1.17-.01,1.64-.61,1.73-.61.33-.01.66,0,.99,0-.28,1.69.76,1.07,1.72,1.12,8.96.46,10.19,1.46,18.07,4.87.7.3,1.68.07,2.58.45,1.76.75,2.99,3.17,3.01,5.27-3.96.35-8.34.97-12.44,1.12-.38-.95-.94-2.24-1.72-2.82-2.63-1.94-21.91-5.7-26.45-6.6-4.29-.86-9.77-.18-13.75-3-4.48-3.17,2.13-5.39,2.13-7.4.01-3.19-9.81-3.93-11.96-3.63-.67-.16-1.32-.42-1.99-.56-2.6-.54-5.32-.89-7.96-1.12-.16-.01-.33.01-.5,0-4.89-4.45.74-6.37,4.71-6.72,8.42-.74,14.77,4.88,15.71-9.16,1.12-16.8-7.27-28.83-5.93-45.16.75-9.08,5.26-18.62,5.9-27.99,1.12-16.55-9.85-29.82-10.95-45.74-1.42-20.44,10.77-35.36,5.14-56-1.63-5.98-5.19-12.25-6.59-18.28-4.25-18.26,1.49-36.27-.08-54.05-.68-7.78-3.41-16.8-7.22-23.11,7.49-1.53,11.6,1.31,19.21,1.01Z"/><path class="cls-3" d="M367.8,599.62c-.29-1.64.71-1.04,1.65-1.19.69-.12,1.4-.5,2.08-.48,1.83.05,4.71,1.67,6.38,1.03,1.08-.41,1.46-4.13,3.48-3.71.79.16,2.31,1.67,4.2,1.97,2.15.34,6.59-.54,7.83,1.82.7,1.34-.44,3.71,1.09,4.36.74.31,3.6.8,4.39.72,1.11-.11,1.76-1.01,2.95-1.2,1.75-.27,4.09.16,5.93.11l.75.84c-.46,3.24.63,2.5,1.06,2.99.06.07-.14.75.09.98.66.64,9.5-1.15,10.97-1.58.32-.09.33-.92.75-1.05,1.58-.48,4.05-.24,5.61-1.7,1.29.01,2.73-.13,3.98,0,.25.03,1.52,1.31,2.28,1.07l12.65,1.16c-.3.94-.69,1.69-.5,2.79-9.36,3.95-19.71,3.29-29.53,3.43l-.75.83c.32,4.71-.71,6.3-4.05,8.58-1.02-6.11-10.63-3.88-14.8-5.44l-1.14-1.52,1.01-3.08c-6.74-2.58-13.85.1-20.62.57-1.73.12-8.08.54-8.67-1.5-1.11-3.87,7.73-4.07,9.41-5.48,1.26-1.06.74-3.72-1.09-4.39-1.4-.51-5.6-.79-7.38-.93Z"/><path class="cls-7" d="M365.81,629.76c-13.87.49-30.28.11-43.96-2.31-3.3-.58-15.93-3.73-17.23-7.18l.49-.28-.49-.28c-.09-.5.09-1.19,0-1.67,2.2.64,16.04,1.1,16.7.04.56-1.48-.08-3.19.31-4.67.34-1.26,2.44-1.95.94-4.49-.42-.71-7.14-2.28-8.5-2.6,2.14-.31,11.97.43,11.96,3.63,0,2.01-6.61,4.23-2.13,7.4,3.97,2.81,9.45,2.14,13.75,3,4.54.91,23.82,4.66,26.45,6.6.78.58,1.34,1.87,1.72,2.82Z"/><path class="cls-8" d="M405.11,582.88c3.16.04,7.11-.96,10.45-1.12,1.57,2.35,7.06,6.77,9.44,7.55,4.04,1.34,9.36,1.15,13.57,2.08,1.53.34,3.54.81,4.64,2.06.3.34,2.11,3.55,2.14,3.77.43,2.99-11.05,3.93-12.87,5.2-.5.02-1,0-1.49,0-1.69-.01-3.35-.13-4.97.56.97-1.99,4.7-2.48,3.93-5.21-.91-3.19-12.74-.48-15.37-.93l.53-3.61c-2.19-3.64-7.98-1.73-11.21-1.95-5.82-.4-3.16-7.05-3.25-11.74,1.6,2.03,1.82,3.32,4.48,3.35Z"/><path class="cls-9" d="M303.62,604.64c.17.01.33-.01.5,0,1.67,1.43,6,1.99,7.96,1.12.67.14,1.32.4,1.99.56,1.36.32,8.08,1.9,8.5,2.6,1.5,2.54-.6,3.23-.94,4.49-.4,1.48.25,3.19-.31,4.67-.66,1.06-14.5.6-16.7-.04-.46-2.35-.51-3.47-2.86-4.35-.7-.26-1.68.04-2.11-.12.54-3.52,1.31-6.52-2.49-7.81.98-.27,3.05-1.58,3.76-1.66.75-.09,1.79.48,2.71.55Z"/><path class="cls-12" d="M400.14,625.29c-7.88,2.02-13.79,2.64-21.89,3.35-.02-2.1-1.25-4.52-3.01-5.27-.9-.39-1.88-.15-2.58-.45-7.88-3.41-9.11-4.41-18.07-4.87-.96-.05-1.99.57-1.72-1.12,8.92-.16,20.1.46,28.78,2.6,6.1,1.51,12.33,4.33,18.49,5.77Z"/><path class="cls-6" d="M423.52,581.76v1.11c1.07-.02,2.17.1,3.24-.01.81-.09.69-.54.74-.54.33-.02.66,0,.99,0-.3,1.65.74.98,1.58,1.27,6.24,2.12,10.37,3.67,15.36,8.47.37.35,2.94,3.24,2.98,3.48.47,2.4-3.75,4.98-5.4,5.59-3.29,1.22-7.38,1.16-10.55,1.28,1.82-1.27,13.3-2.21,12.87-5.2-.03-.22-1.85-3.43-2.14-3.77-1.1-1.25-3.11-1.72-4.64-2.06-4.22-.93-9.53-.74-13.57-2.08-2.38-.79-7.87-5.2-9.44-7.55,2.62-.13,5.33-.04,7.96,0Z"/><path class="cls-8" d="M282.73,597.95c-.96,2.13-.13,3.55,1.53,4.72.53.37,1.2.16,1.46.3,4.41,2.38,7.45,1.43,11.44,2.79,3.8,1.29,3.02,4.29,2.49,7.81-6-2.22-13.16-3.03-19.24-6.04-2.95-1.46-5.32-2.6-6.13-6.24,2.58-1.97,5.8-2.17,8.46-3.35Z"/><path class="cls-2" d="M453.37,594.6c-4.59-.2-3.8,2.69-5.23,6.13-.7,1.7-1.63,3.12-2.23,5.03l-12.65-1.16c-.76.24-2.02-1.04-2.28-1.07v-1.12c.5,0,1,.02,1.49,0,3.16-.13,7.26-.06,10.55-1.28,1.65-.61,5.88-3.19,5.4-5.59-.05-.24-2.62-3.13-2.98-3.48-4.99-4.8-9.12-6.35-15.36-8.47-.84-.29-1.88.39-1.58-1.27,7.06-.14,21.93,4.17,24.87,12.28Z"/><path class="cls-10" d="M292.68,587.9c-1.07,2.58-3.53,4.57-5.49,6.43-.4.38-.42,1.34-.48,1.39-.19.15-3.49,2.01-3.98,2.23-2.65,1.18-5.87,1.38-8.46,3.35-.4-1.78-.45-2.59.5-4.47.09-.17.36-.34.5-.56l.5-.56c.18-.27,1.08-1.17,1.49-1.67l.5-.56c.16-.19.34-.36.5-.56,4.96-2.76,9-4.05,14.43-5.02Z"/><path class="cls-12" d="M453.37,594.6c.07.19.76,3.76.75,3.96-.1,5.07-5,8.42-8.71,9.99-.19-1.1.2-1.85.5-2.79.6-1.91,1.53-3.34,2.23-5.03,1.43-3.44.64-6.33,5.23-6.13Z"/><path class="cls-2" d="M427.5,582.32s.07.45-.74.54c-1.08.12-2.17,0-3.25.01v-1.11c1.33.02,2.92-.4,3.98.56Z"/><path class="cls-9" d="M304.62,620.27c-.05-.14.03-.36,0-.56l.49.28-.49.28Z"/><path class="cls-7" d="M304.31,318.42c3.81,6.31,6.54,15.34,7.22,23.11,1.57,17.78-4.17,35.79.08,54.05,1.4,6.03,4.96,12.3,6.59,18.28,5.63,20.64-6.56,35.56-5.14,56,1.11,15.92,12.08,29.19,10.95,45.74-.63,9.37-5.15,18.91-5.9,27.99-1.34,16.34,7.05,28.37,5.93,45.16-.94,14.04-7.29,8.43-15.71,9.16-3.97.35-9.59,2.26-4.71,6.72-.92-.07-1.96-.64-2.71-.55-.71.08-2.77,1.39-3.76,1.66-4-1.36-7.03-.41-11.44-2.79l-.9-3.55.91-1.21c2.23.05,3.85.04,6.06-.43,5.46-1.16,12.74-3.68,14.33-10.44v-.56c2.96-.59,2.78-7.04,2.44-9.72-.59-4.77-4.46-9.83-5.79-14.72-4.43-16.32,7.22-29.7,7.13-46.07-.07-13.52-6.56-24.3-9.76-36.65-2.17-8.37-1.71-16.57,0-25.12,0-.04.4-.13.5-.56.07-.31-.05-.76,0-1.12v-.56c.26-.6.31-1.18.5-1.67,1.64-4.31,3.02-8.83,3.98-13.4.23-1.08.32-2.25.5-3.35.03-.18-.03-.38,0-.56,2.06-13.76-.13-17.64-4.97-29.58-.24-.59-.32-1.24-.5-1.67l-.5-.56c-.31-.71-.74-1.58-.99-2.23l-.5-2.23c-.06-.33.04-.75,0-1.12l-.5-.56c-.38-6.42,1.26-12.38,1.02-18.72-.55-14.58-6.06-36.92-11.19-49.33-4.4-10.64-5.96-4.51,3.71-8.01,3.54-1.28,9.72-.15,13.12-.85Z"/><path class="cls-8" d="M304.62,586.78c.48-.03,1.06.09,1.49,0v.56c-2.02.31-2.44,2.99-3.74,4.46-1.46,1.66-8.95,4.91-10.95,5.07s-2.83-1.34-4.72-1.15c.06-.05.09-1.01.48-1.39,1.96-1.86,4.42-3.84,5.49-6.43,4.48-.81,7.49-.87,11.94-1.12Z"/><path class="cls-5" d="M277.25,594.04c.16-.19.34-.37.5-.56l-.5.56Z"/><path class="cls-5" d="M275.26,596.27c.13-.21.36-.36.5-.56l-.5.56Z"/><path class="cls-10" d="M374.27,341.76c.1,1.28-.04,2.62,0,3.91.02.74-.02,1.49,0,2.23.18,7.96-.62,16.22.73,24.02,2.66,15.44,12.51,29.95,13.69,46.04,1.09,14.78-6.56,28.12-5.4,42.9,1.12,14.27,10.82,23.21,11.87,37.48,1.33,18.06-9.26,33.19-4.48,51.92,2.57,10.07,9.75,18.29,9.96,29.29.09,4.69-2.57,11.34,3.25,11.74,3.23.22,9.02-1.69,11.21,1.95l-.53,3.61c2.63.45,14.46-2.26,15.37.93.78,2.73-2.96,3.22-3.93,5.21v.56c-5.98.32-10.37,3.78-16.42,3.35-.02-1.35.28-3.99-1.11-4.65-2.7-1.28-13.25.85-13.82.19,1.13-8.67-7.56-4.77-11.95-7.52l-.48-9.78c4.05.86,11.05-2.72,10.44-8.04-.68-5.97-9.04-4.5-11.93-.89-.94-.37-1-1.34-1.25-2.22-2.35-8.17-5.65-18.6-6.2-27.09-1.08-16.48,5.82-31.49,4.46-47.98-.87-10.59-7.64-20.27-9.32-30.85-2.66-16.78,6.59-31.84,5.86-47.88-.69-15.21-10.96-28.5-12.4-43.01-1.55-15.56,4.52-32.39,2.32-46.13-.3-1.9-3.04-8.77-3.02-10.84,1.4.59,4.6-.11,6.12.93,4.93,3.39,6.48,14.41,6.96,20.66Z"/><path class="cls-2" d="M347.4,349.57c1.47,0,1.3-.72,1.5-1.94,1.27-7.8-.04-15.8.06-23.65,1.06-1.85,7.61,3.06,9.88,1.58l-13.43-5.02h8.78c1.93.6,4.89.38,6.98-.38-.03,2.07,2.72,8.94,3.02,10.84,2.2,13.74-3.86,30.57-2.32,46.13,1.44,14.51,11.71,27.8,12.4,43.01.73,16.04-8.52,31.1-5.86,47.88,1.68,10.58,8.44,20.26,9.32,30.85,1.36,16.49-5.54,31.5-4.46,47.98.56,8.49,3.85,18.92,6.2,27.09.25.88.31,1.86,1.25,2.22-2.27,2.83-2.61,8.06,1.49,8.93l.48,9.78c4.39,2.75,13.08-1.15,11.95,7.52.57.66,11.12-1.47,13.82-.19,1.39.66,1.08,3.3,1.11,4.65,6.05.43,10.44-3.02,16.42-3.35.33-.02.67,0,.99,0-1.56,1.46-4.02,1.22-5.61,1.7-.41.13-.43.95-.75,1.05-1.47.43-10.31,2.22-10.97,1.58-.23-.23-.03-.91-.09-.98-.44-.49-1.52.25-1.06-2.99l-.75-.84c-1.83.06-4.18-.38-5.93-.11-1.19.19-1.84,1.09-2.95,1.2-.79.08-3.65-.41-4.39-.72-1.54-.64-.39-3.02-1.09-4.36-1.23-2.36-5.68-1.48-7.83-1.82-1.89-.3-3.41-1.81-4.2-1.97-2.02-.42-2.4,3.31-3.48,3.71-1.67.63-4.55-.98-6.38-1.03-.69-.02-1.39.36-2.08.48-.94.16-1.94-.45-1.65,1.19-1.31-.1-2.66.03-3.98,0-1.08-2.53.34-5.02.49-7.54.16-2.8.2-6.73,0-9.51-.12-1.71.25-1.44-1.49-1.37-.05-.54.07-1.15,0-1.67l.49-1.11h-.99c-.21-1.24-.21-2.5-.5-3.91l.49-1.11h-.99c-.32-1.42-1.72-9.11-1.99-9.49v-1.12s-.99,0-.99,0c-.18-.74-.3-1.5-.5-2.23.89-.46.22-1.84.09-2.6-.47-2.64-.95-5.29-1.42-7.93-.18-.99.22-2.08-1.15-1.75-.04-1.08-.06-2.27,0-3.35,0-.05.43.07.49-.83.2-3.5,1-7.67.01-10.9.06-.53-.07-1.15,0-1.67,1.1.64,1.45-2.09,1.47-3.18.02-.85-.48-1.22-.48-1.29.02-.37-.01-.75,0-1.12,2.09.36.97-3,.99-3.35s-.04-.75,0-1.12h.99s-.49-1.12-.49-1.12v-1.12h.99s-.49-1.12-.49-1.12c.22-1.46.29-3.11.5-4.47h.99s-.49-1.12-.49-1.12c.07-.53-.07-1.14,0-1.67h.99c.47-1.04-.49-2.12-.5-2.23-.09-1.36-.08-3.1,0-4.47.02-.27,1-2.22.5-3.35h-.99c-.04-.35.05-.76,0-1.11l.49-1.11h-.99c-.05-.35.06-.78,0-1.12l.49-1.11h-.99c-.36-1.8-.53-3.08-.99-5.03l.49-.28v-.83s-.99,0-.99,0c-.29-1.15-.28-2.51-.5-3.35-.39-1.5-1.04-5.17-2.49-5.02-.08-.31.08-.81,0-1.12-.89-3.25-3.48-10.15-3.48-13.12v-8.93c0-1.81.05-3.37,0-5.3,0-.37,0-.74,0-1.12l.96-.03c.08-1.96.77-3.61,1.03-5.55.05-.35-.05-.76,0-1.12l.49-.83-.49-.28c.06-.35-.05-.77,0-1.12,1.35.32.97-.77,1.23-1.67.79-2.76.57-3.45.76-5.59.03-.36-.05-.76,0-1.12,1.27.32.98-.73,1.27-1.62,1.64-5.19,1.51-13.61.5-19.06-.14-.76-.55-3.73-1.76-3.32-.09-.45.12-1.52,0-1.67v-1.12s-.99,0-.99,0c-.01-.37.02-.75,0-1.12,0-.06.42-.24.31-1.09-.13-.98-1.14-5.01-2.3-4.49-.05-.17.05-.39,0-.56-3.38-12.03-6.29-17.34-6.96-30.7-.03-.55.03-1.12,0-1.67h.99c-.03-1.39.09-2.8-.01-4.2-.07-.9-.48-.78-.48-.83-.04-.55.02-1.12,0-1.67h.99c.47-1.03-.49-2.12-.5-2.23-.03-.36,0-.75,0-1.12h.99s-.49-1.12-.49-1.12c.04-.55-.06-1.13,0-1.67,2.03.28.53-1.2.5-1.67-.04-.55,0-1.12,0-1.67,2.01.26.56-1.12.5-1.67-.04-.35,0-.76,0-1.12Z"/><path class="cls-12" d="M333.97,485.2c1.19-.29,1.04.67,1.4,1.47,4.65,10.09,6.41,20.88,4.44,32.16-2.43,13.91-4.61,18.8-4.35,33.91-.6-.64-.75-1.78-.86-2.66-1.27-9.78.68-18.53,3.1-26.92,1.59-5.49,2.38-13.86,1.96-19.62-.36-4.92-4.71-13.21-5.7-18.33Z"/><path class="cls-12" d="M337.45,597.95c-3.13.45-8.34.79-11.22,2.2-5.39,2.64.21,5.68,3.57,6.11s21.04.19,22.08,1.74c-.31,2.5-4.28,2.39-5.97,3.34l-.84-2.68-20.44-1.91c-6.28-8.29,8.05-10.22,12.83-8.81Z"/><path class="cls-3" d="M348.4,321.11h-.99s0,.55,0,.55c.54.02,1.43.23,1.49-.55,1.84.36,3.16.65,4.97,1.12h-.99s0,.55,0,.55c1.1-.06,2.71,1.27,3.48,0,.63.18,1.07.43,1.49.56l-.31.62,1.3,1.61c-2.27,1.48-8.82-3.44-9.88-1.58-.1,7.84,1.21,15.84-.06,23.65-.2,1.23-.03,1.95-1.5,1.94.17-6.81,2.28-14.11.26-21.23l-2.25-7.8c1.04.16,2.04.38,2.98.56Z"/><path class="cls-12" d="M331.98,477.94c-1.21.28-1.09-.61-1.34-1.54-5.87-22.2,5.02-35.04,5.82-55.39.69.84.57,2.02.53,3.08-.74,21.46-11.01,28.5-5.01,53.86Z"/><path class="cls-12" d="M326.51,369.66c.1-10.84,3.39-21.29,2.51-32.67-.4-5.18-3.01-9.08-4-13.65,1.13-.05,1.32.75,1.77,1.64,3.72,7.41,3.96,17.11,3.14,25.36-.65,6.49-2.08,12.99-3.42,19.33Z"/><path class="cls-12" d="M336.46,419.9c-1.54.33-.85-.85-1.06-1.86-2.14-10.46-8.95-21.71-8.89-31.63,2.17,8.41,5.75,16.37,8.1,24.68.81,2.85,1.93,5.75,1.85,8.8Z"/><path class="cls-3" d="M351.88,400.92c-1.15.28-1.07-.64-1.41-1.46-3.04-7.2-5.53-15.4-6.04-23.39-.11-1.78-.34-4.28.49-5.86.67,13.36,3.59,18.66,6.96,30.7Z"/><path class="cls-3" d="M354.37,480.74c-1.23.29-1.05-.65-1.36-1.51-2.94-8.17-4.36-17.2-2.12-25.84.05,1.93,0,3.49,0,5.3v8.93c0,2.97,2.59,9.87,3.48,13.12Z"/><path class="cls-12" d="M335.46,553.85c1.33-.32.98.74,1.23,1.66,1.51,5.73,5.41,17.68,5.74,22.89-1.21.28-1.1-.61-1.34-1.54-1.6-6.09-3.08-12.23-4.76-18.27-.5-1.79-.89-1.61-.87-4.75Z"/><path class="cls-3" d="M354.86,410.97c1.21-.41,1.62,2.56,1.76,3.32,1.01,5.45,1.15,13.87-.5,19.06-.28.89,0,1.94-1.27,1.62,1.34-10.26,2.05-13.48,0-24Z"/><path d="M350.25,579.64c5.57-1.4,6.79,5.11,1.87,5.5-4.38.34-5.79-4.51-1.87-5.5ZM350.74,580.76c-2.22.74-1.63,3.07,1.4,2.72s1.89-3.8-1.4-2.72Z"/><path class="cls-3" d="M362.82,581.2c1.74-.07,1.37-.35,1.49,1.37.19,2.77.15,6.71,0,9.51-.14,2.53-1.57,5.02-.49,7.54-.66-.01-1.33.02-1.99,0,.03-2.5,1.26-4.43,1.49-6.98.35-3.82-.12-7.69-.49-11.44Z"/><path class="cls-3" d="M355.36,544.92c-.78-1.13-.59-2.87-.52-4.21.14-2.49.74-5.2,1.01-7.51.99,3.22.19,7.39-.01,10.9-.05.89-.48.78-.49.83Z"/><path class="cls-3" d="M355.36,548.27c1.37-.33.97.76,1.15,1.75.48,2.64.95,5.29,1.42,7.93.13.76.8,2.14-.09,2.6-1.02-3.72-2.33-8.41-2.49-12.28Z"/><path class="cls-12" d="M342.92,590.69c-.34-3.45-.33-7.24-.5-10.6,1.18,3.03,1.52,7.45.5,10.6Z"/><path class="cls-12" d="M351.88,616.92c-.09,0-.56.6-1.73.61-1.97.02-4.6-.7-5.65-2.66-.07-.43.41-.67.42-.74,2.02,2.58,4.45,1.75,6.96,2.79Z"/><path class="cls-3" d="M354.86,436.08c-.2,2.14.03,2.83-.76,5.59-.26.9.13,1.99-1.23,1.67.37-2.35,1.11-5.08,1.99-7.26Z"/><path class="cls-3" d="M354.37,481.85c1.45-.14,2.09,3.53,2.49,5.02-1.68.11-2.1-3.54-2.49-5.02Z"/><path class="cls-3" d="M352.87,446.69c-.26,1.95-.95,3.59-1.03,5.55l-.96.03c-.04-2.03.76-3.59,1.07-5.51l.92-.07Z"/><path class="cls-3" d="M351.88,401.48c1.16-.52,2.17,3.51,2.3,4.49.11.85-.31,1.03-.31,1.09-.99-1.7-1.46-3.66-1.99-5.58Z"/><path class="cls-12" d="M326.51,385.29h-.99c0-1.39-.06-2.8.01-4.2.05-.89.48-.78.48-.83.82,1.3.56,3.41.5,5.02Z"/><path class="cls-3" d="M345.41,363.53s.41-.07.48.83c.11,1.39-.02,2.81.01,4.2h-.99c-.09-1.59-.31-3.75.5-5.03Z"/><path class="cls-12" d="M326.51,370.78c.05,1.62.33,3.71-.5,5.02,0-.05-.43.06-.48-.83-.08-1.4,0-2.81-.01-4.2h.99Z"/><path class="cls-3" d="M356.85,527.06c0,.07.5.44.48,1.29-.02,1.08-.37,3.81-1.47,3.18.19-1.42.24-3.3.99-4.47Z"/><path class="cls-12" d="M341.93,595.15c-.53,2.26-.38,2.46-2.49,2.79.13-1.43,1.2-2.64,2.49-2.79Z"/><path class="cls-3" d="M359.84,500.83h.99c.51,1.13-.48,3.07-.5,3.35-.86-.97-.37-2.26-.5-3.35Z"/><path class="cls-3" d="M357.85,522.6c-.03.35,1.1,3.71-.99,3.35.03-.92.43-2.61.99-3.35Z"/><path class="cls-3" d="M360.34,508.64c0,.11.97,1.2.5,2.23h-.99c.09-.76-.18-1.57.5-2.23Z"/><path class="cls-3" d="M345.91,359.62c0,.11.97,1.2.5,2.23h-.99c-.03-.84-.09-1.58.5-2.23Z"/><path class="cls-12" d="M332.97,482.41c.35.52.66-1.28.99,1.67h-.99s0-1.67,0-1.67Z"/><path class="cls-3" d="M346.9,354.04c.03.47,1.53,1.95-.5,1.67.06-.59-.18-1.4.5-1.67Z"/><path class="cls-12" d="M342.92,591.81c.02.56,0,1.12,0,1.68h-.99s0-1.68,0-1.68h.99Z"/><path class="cls-3" d="M347.4,350.69c.06.55,1.51,1.94-.5,1.67,0-.61-.13-1.41.5-1.67Z"/><path class="cls-3" d="M358.84,496.36h.99s-.49,1.12-.49,1.12c-.01-.06-.32-.25-.5-1.12Z"/><path class="cls-12" d="M324.02,321.66h.99c.06.36-.05.78,0,1.12h-.99c-.07-.36.06-.8,0-1.12Z"/><path class="cls-3" d="M359.34,498.6h.99s-.49,1.12-.49,1.12c0-.06-.36-.19-.5-1.12Z"/><path class="cls-3" d="M346.41,357.39l.49,1.11h-.99c.02-.98.49-1.05.5-1.11Z"/><path class="cls-3" d="M358.35,562.78h.99s0,1.12,0,1.12c-.31-.45-.46,1.03-.99-1.12Z"/><path class="cls-3" d="M362.33,578.41h.99s-.49,1.12-.49,1.12c0-.06-.34-.19-.5-1.12Z"/><path class="cls-3" d="M358.35,520.36l.49,1.11h-.99c.05-.47,0-.94.5-1.11Z"/><path class="cls-3" d="M358.84,518.13l.49,1.11h-.99c-.22-.63.49-1.05.5-1.11Z"/><path class="cls-3" d="M361.33,573.39h.99s-.49,1.12-.49,1.12c-.01-.06-.34-.4-.5-1.12Z"/><path class="cls-3" d="M359.84,512.55l.49,1.11h-.99c.15-.93.49-1.05.5-1.11Z"/><path class="cls-3" d="M353.87,408.18h.99s0,1.12,0,1.12c-.26-.33-.94.89-.99-1.12Z"/><path class="cls-3" d="M352.87,445.57c0-.07-.16-.14,0-1.12l.49.28-.49.83Z"/><path class="cls-3" d="M357.35,490.22h.99s0,.83,0,.83l-.49.28c-.05-.2-.37-.6-.5-1.12Z"/><path class="cls-7" d="M312.08,605.76c-1.96.87-6.29.32-7.96-1.12,2.64.23,5.36.58,7.96,1.12Z"/><path class="cls-6" d="M430.98,602.41v1.12c-1.25-.13-2.69.01-3.98,0-.33,0-.67-.02-.99,0v-.56c1.63-.69,3.28-.57,4.97-.56Z"/><path class="cls-9" d="M306.11,587.34c-1.59,6.75-8.87,9.28-14.33,10.44-2.22.47-3.84.48-6.06.43l-.91,1.21.9,3.55c-.25-.14-.93.08-1.46-.3-1.65-1.18-2.48-2.59-1.53-4.72.49-.22,3.79-2.08,3.98-2.23,1.89-.18,2.67,1.31,4.72,1.15s9.49-3.4,10.95-5.07c1.29-1.47,1.72-4.14,3.74-4.46Z"/><path class="cls-11" d="M298.65,399.25c-.57-1.47-.33-1.32-.5-2.23l.5,2.23Z"/><path class="cls-11" d="M298.15,395.9s-.47-.15-.5-.56l.5.56Z"/><path class="cls-11" d="M300.14,402.04c-.06-.14-.38-.3-.5-.56l.5.56Z"/><path class="cls-5" d="M305.61,433.85l-.49-.28.49-.28c-.03.18.03.38,0,.56Z"/><path class="cls-5" d="M300.64,452.83l-.49-.28c.13-.16.44-.17.49-.28v.56Z"/><path class="cls-5" d="M300.14,454.5l.5-.56c-.09.43-.49.52-.5.56Z"/><path class="cls-5" d="M302.13,435.53c.03-.26.27-.49.5-.56-.02.25-.26.5-.5.56Z"/><path d="M382.23,585.11c-4.1-.87-3.76-6.1-1.49-8.93,2.89-3.61,11.25-5.08,11.93.89.61,5.33-6.39,8.9-10.44,8.04ZM381.3,582.24c2.52,2.31,10.67-1.96,9.16-5.5-1.85-4.32-10.88.76-9.16,5.5Z"/><path class="cls-2" d="M353.87,322.22c.81.21,1.56.3,2.49.56-.77,1.26-2.38-.07-3.48,0v-.55s.99,0,.99,0Z"/><path class="cls-2" d="M348.4,321.11c.16.03.34-.03.5,0-.06.78-.95.57-1.49.55v-.55s.99,0,.99,0Z"/><path class="cls-13" d="M350.74,580.76c3.29-1.09,4.56,2.35,1.4,2.72s-3.62-1.98-1.4-2.72Z"/><path class="cls-13" d="M381.3,582.24c-1.73-4.74,7.3-9.82,9.16-5.5,1.52,3.54-6.63,7.8-9.16,5.5Z"/><path d="M283.07,323.34s-10.43-4.19-14.27-7.8c2.79,0-10.63-3.25,31.05-.57-5.85,2.07-15.83,4.31-15.83,4.31v4.07h-.95Z"/><path d="M374.31,322.11s24.13-1.78,21.5-8.31c-2.84-.26-20.67,1.03-23.15,1.77"/><rect class="cls-1" width="617.49" height="644.18"/></g></svg>