<svg xmlns="http://www.w3.org/2000/svg" width="617" height="644" xmlns:v="https://vecta.io/nano"><path d="M376.305 174.898c7.117 5.549 12.954 11.233 17.008 19.352 3.055 5.693 6.361 7.573 12.204 10.105 10.589 4.703 18.45 13.278 23.483 23.645l.984 2.004c6.366 13.904 3.88 31.977-.984 45.996-1.484 3.455-3.098 6.757-5 10l1.461 1.172 1.914 1.578 1.898 1.547c2.573 2.538 3.605 4.575 3.992 8.176l-.016 2.59.016 2.598C433 306 433 306 431 309c-.091 2.478-.091 2.478.125 5.188.072 5.43-.561 9.569-4.125 13.813-1.977 1.215-1.977 1.215-4.125 2.313-2.783 1.515-3.693 2.133-4.695 5.191-.288 1.923-.544 3.85-.77 5.781-.963 6.373-5.276 11.007-9.41 15.715l1.285 1.773C425.2 382.069 431.033 414.654 436 442l.394 2.159c1.065 5.982 1.889 11.761 1.606 17.841l1.746-.488c9.979-2.266 21.114.227 29.957 5 5.446 3.529 9.126 7.338 11.297 13.488l3 1c.996 4.759.987 9.183.625 14l-.133 2.078c-.788 11.472-.788 11.472-5.492 15.922-1.442 2.096-2.801 4.231-4.145 6.391-2.682 3.772-5.768 7.166-8.855 10.609l2.057.288c39.524 5.637 39.524 5.637 47.881 16.15 1.181 2.849 1.598 5.523 2.063 8.563l3.359.988 4.391 1.324 2.211.646c3.828 1.166 7.105 2.182 10.039 5.041.625 2.438.625 2.438 0 5-28.669 22.497-94.74 17.493-129.312 19.188l-2.271.112-14.46.593-6.167.237c-30.369 1.204-60.762 1.024-91.15.999-5.966-.004-11.932-.001-17.898.004l-17.447.003c-3.448-.002-6.895-.002-10.343.002-3.806.003-7.612-.001-11.417-.007l-3.428.006-3.123-.009-2.714-.001C226 589 226 589 223 588a124.47 124.47 0 0 0-5.261-.417l-3.282-.204-3.574-.211-7.604-.475-4.036-.249C94.907 579.971 94.907 579.971 82 568c-.625-2.437-.625-2.437 0-5 4.619-4.133 10.093-5.459 16-7v-3.562c.641-4.777 2.723-6.937 6.453-9.84C115.96 535.38 130.581 532.717 144 533c-2.217-2.287-4.384-4.504-6.867-6.504-8.974-7.246-15.682-17.89-17.133-29.496-.579-8.691 1.472-16.127 7-23 8.663-9.376 18.84-12.456 31.359-12.957L161 461l-.211-3.355c-1.109-25.961 7.306-50.252 15.624-74.475l.935-2.754 1.784-5.147.791-2.327.706-2.023c.588-3.04-.272-5.204-1.629-7.918-.123-1.747-.176-3.499-.187-5.25l-.043-2.828c.255-3.233 1.097-5.894 2.23-8.922l-1.687-1.625c-4.91-5.043-8.526-9.987-11.687-16.25l-.973-1.887c-4.711-9.759-6.197-19.801-6.09-30.551l.027-3.312c.401-18.782 7.829-37.259 20.41-51.375l5.188-3.937c5.716-4.855 6.522-10.226 7.986-17.259 2.626-12.348 8.355-23.391 16.827-32.804l1.5-1.812c8.672-9.713 22.922-16.235 35.817-17.396 19.159-.802 32.59 2.984 48.608 13.353 3.333 2.164 3.333 2.164 7.074 2.855 1.915-1.385 1.915-1.385 3.75-3.437 4.111-3.88 8.293-6.444 13.313-8.937l2.001-1.01c17.161-8.281 37.566-6.457 53.241 4.283z" fill="#070b05"/><path d="M238 326c13.396-.972 24.925.851 37.876 4.356 7.792 2.104 15.286 3.611 23.316 4.355C302 335 302 335 305 336c25.263 2.682 51.088 1.746 75.848-4.117 10.88-2.503 22.298-.756 33.152 1.117.167 7.392-1.299 12.95-6.383 18.59-7.181 6.261-16.516 7.797-25.617 9.41l1 3c7.1-1.19 7.1-1.19 13.813-3.687 3.54-1.458 4.633-1.484 8.188-.312 7.934 8.029 14.754 25.191 15.105 36.352L420 399l-3.109.598c-4.664 1.335-7.078 4.229-10.141 7.84l-3.078 3.496-1.341 1.564c-1.396 1.576-2.763 3.095-4.331 4.502h-2l-1.562-3.75-.879-2.109c-.695-2.662-.728-3.631.441-6.141 2.482-2.388 5.03-4.583 7.695-6.758 2.85-2.451 4.218-3.909 5.18-7.594L407 388c-4.36.205-6.468.525-9.773 3.477l-2.602 3.148c-3.964 4.674-7.88 8.387-13.043 11.777-1.866 1.544-1.866 1.544-1.82 4.289L380 413c2.664.392 4.392.406 6.668-1.113 1.483-1.251 2.912-2.565 4.332-3.887 2.75 2.75 3.17 5.235 4 9-.095 3.878-.986 4.984-3.562 8-2.672 2.734-2.672 2.734-2.75 5.875L389 433c3.789-.205 4.937-.936 7.648-3.695l2.727-3.43 2.891-3.559 1.408-1.734c2.192-2.615 4.607-4.972 7.084-7.313 1.37-1.271 1.37-1.271 2.242-3.27l3-1c2.132-2.473 3.628-5.046 5-8 2.917 2.917 3.387 6.481 4.375 10.375l.66 2.567c2.341 9.287 4.284 18.63 5.965 28.058l.462 2.538c2.52 14.2 2.905 28.061 2.538 42.462l-1.59.743c-9.337 4.492-15.819 11.392-22.41 19.257l-1.73 1.953-1.645 1.859-1.461 1.645c-1.38 1.658-1.38 1.658-2.164 4.543 3.633-1.142 5.829-2.6 8.41-5.379 2.914-2.972 6.136-5.622 9.285-8.34C424 501 425.414 498.809 427 496c3.015-2.82 3.667-3 8-3-.933 16.148-2.606 32.793-8.125 48.125-.992 3.258-1.393 5.496-.875 8.875 2.182 2.434 2.182 2.434 5.125 4.438 11.297 8.673 11.297 8.673 12.438 14.375C443 571 443 571 440 573c-3.187.125-3.187.125-6 0l-.437-3.562c-1.224-5.047-4.324-7.201-8.371-10.187-2.205-1.498-2.205-1.498-5.191-1.25l1.898 1.645 2.477 2.168 2.461 2.145C429 566 429 566 431 569c-.187 3.563-.187 3.563-1 7-3.271 2.181-4.274 2.249-8.062 2.188l-2.66-.02C417 578 417 578 415 577c-.676-1.855-.676-1.855-1.312-4.187-1.447-4.622-3.269-7.394-6.687-10.812h-2l1.313 1.539c4.544 5.617 4.544 5.617 5.25 9.773-.638 3.046-1.136 3.823-3.562 5.688-2.305.434-2.305.434-4.875.438l-2.555.059c-3.561-.687-5.096-1.844-7.57-4.496-.842-2.701-1.403-4.993-1.812-7.75l-.365-2.113L390 560l-4-1 1 7c-4.091 2.975-6.974 3.548-12 3-2.437-1.5-2.437-1.5-4-3 .302-3.878 2.444-5.593 5.256-8.066l1.682-1.434c5.822-4.998 8.028-8.222 9.246-15.855l.618-3.804.315-1.996.984-6.116 1.303-8.047 2.346-13.993.672-3.926C394 500 394 500 395 499a198.22 198.22 0 0 0 .719-7.637l.19-2.375.592-7.676.203-2.611c1.027-13.225 1.865-26.442 2.297-39.701l-3 1-.12 3.196c-.87 22.478-2.302 44.568-5.88 66.804l-.623 3.93-1.939 11.82-.599 3.589L385 539l-.561 2.957c-.596 2.566-1.187 4.726-2.439 7.043-2.885 1.541-4.293 2.056-7.375 2.5l-2.168.419c-2.147.404-4.298.745-6.457 1.081l-3.418.637c-15.484 2.712-31.222 2.55-46.887 2.549l-10.273.039c-33.956.086-33.956.086-42.422-3.225-2.641-4.962-3.979-10.174-5.25-15.625l-.562-2.234c-.956-4.04-1.445-7.063-.187-11.141h2l-1-3-3-1c-2.321-11.166-3.743-22.198-4.625-33.562l-.551-6.737-.483-6.039a151.93 151.93 0 0 0-.876-7.4c-.515-3.607-.563-7.057-.528-10.699l.027-3.746L248 449c-12.422.631-22.591 1.337-31.711 10.77-.967 1.133-1.91 2.288-2.824 3.465-3.289 3.965-7.429 7.391-11.691 10.27L200 475c-.334 3.126-.334 3.126 0 6l3.188-.062c3.813.063 3.813.063 6.563.688 2.526.685 2.526.685 5.25-1.625 1.993-.411 1.993-.411 4.23-.633l2.432-.254 2.525-.238 2.561-.262L233 478c-.348-1.975-.348-1.975-1-4-3.042-1.521-6.28-1.374-9.625-1.562l-2.141-.131L215 472c1.324-6.678 7.862-10.91 13-15 3.215-1.607 6.436-1.057 10-1v-2h8l.028 1.847c.296 15.716 1.59 31.101 3.6 46.676 1.914 14.881 1.914 14.881 1.372 19.477-1.793 2.207-1.793 2.207-4.187 3.813l-2.508 1.734L237 532l-6.035 4.695C229 538 229 538 226.816 538.492L225 539l-1 3-2.687.813c-4.142 1.485-6.621 3.743-9.312 7.188l-1 3h5v-2c2.054-1.564 4.102-3.014 6.25-4.437 4.588-3.069 4.588-3.069 9.047-6.32C233 539 233 539 235 538.563c2.173-.419 2.173-.419 3.688-2.437 2.865-2.633 5.5-3.356 9.191-4.414 2.381-.695 2.381-.695 5.121-2.711l.734 3.148c1.022 4.302 2.124 8.58 3.266 12.852l.805 3.043c2.367 7.271 6.842 10.088 13.195 13.957l5 4c-.312 2.375-.312 2.375-1 5-3.291 2.194-3.848 2.215-7.562 1.75l-2.379-.266C263 572 263 572 261 570c-.27-2.688-.087-5.291 0-8l-3 2a77.53 77.53 0 0 0-.5 7.938c-.093 7.474-.093 7.474-1.844 10.004-3.767 2.408-7.309 2.516-11.656 2.059-2.5-1.937-2.5-1.937-4-5-.188-4.813.685-8.782 3-13-3.697 3.361-4.977 6.13-5.375 11.063C237 581 237 581 235.438 583c-3.527 1.447-6.735 1.768-10.437 1-3.062-2.062-3.062-2.062-5-5-.229-6.072 2.632-10.215 6-15l-3.375 2.75-1.898 1.547c-3.463 3.416-4.083 6.982-4.727 11.703-3.375.188-3.375.188-7 0-1.889-2.833-2.645-4.434-2.602-7.816 1.393-5.056 5.351-9.171 8.602-13.184l-1.777-.527c-3.351-2.22-4.341-5.428-5.785-9.035l-1.007-2.468c-7.964-20.031-15.223-40.549-18.151-61.972-.241-1.719-.543-3.428-.858-5.135-1.443-9.793-.444-20.063.578-29.863-2.358.893-2.358.893-3.125 4.063L184 457c-2.608-4.869-3.123-8.724-3.062-14.25l.027-3.266L181 437l4.813-.187 2.707-.105c2.48.293 2.48.293 4.305 1.68C194 440 194 440 194 442c11.532-.167 19.458-1.263 27.813-9.687l1.582-1.762c3.742-3.615 8-4.054 12.996-4.621l2.135-.26 6.724-.794 4.57-.551L261 423v-5l-2.966.367-10.914 1.342-4.72.582-6.792.834-2.125.265c-3.203.388-6.25.61-9.485.61v-2l2.375-1.5c7.155-4.562 12.811-11.368 18.063-17.937C250.77 392.658 257.493 385.573 266 380l2.438-2.625c3.189-2.956 5.369-3.47 9.563-4.375v-4c-5.98-.065-5.98-.065-11.098 2.637a98.26 98.26 0 0 0-3.687 4.063c-1.89 1.963-3.603 3.353-5.801 4.922-5.515 4.042-10.185 8.897-14.977 13.754l-2.748 2.75c-4.571 4.601-9.014 9.251-13.202 14.206-2.287 2.566-4.731 4.618-7.488 6.669h-2v6h3v3h-2l-.75 1.75c-2.076 3.736-4.182 5.894-8.25 7.25-2.163.145-4.332.221-6.5.25l-3.469.078C196 436 196 436 194.094 434.609 193 433 193 433 193 431h-12c.617-9.567 2.82-18.692 5-28h-2l-.312 2.75c-.633 4.473-1.798 8.79-2.922 13.16-1.074 4.335-1.94 8.702-2.766 13.09h-2v4h2l.078 3.691.172 4.871.043 2.424c.168 4.119.471 7.053 2.754 10.541 2.458 4.37 2.352 7.585 1.953 12.473l-8.437-3.312-2.432-.936-2.314-.928-2.142-.841C166 463 166 463 165 460c-.752-12.319.631-23.548 3.5-35.5l1.076-4.675c3.147-13.48 7.031-26.697 11.424-39.825 2.993.998 3.948 1.752 6 4l-1-2.562c-1.086-3.735-1.358-6.568-1-10.437 1.5-2.312 1.5-2.312 3-4v-2l-2.5-1.062C183 362 183 362 182.598 359.91c-.062-4.224-.002-6.303 2.402-9.91 3.959.591 6.778 1.853 10.25 3.813 13.917 7.069 29.41 8.076 44.75 9.188v-2l-1.625.07c-5.61.129-11.064-.269-16.625-.945l-2.039-.238c-4.107-.529-7.829-1.453-11.711-2.887 1.236-7.723 5.77-12.017 11.781-16.422L222 339l2.078-1.66c2.547-1.775 4.875-1.994 7.922-2.34v-2c3.462-3 3.462-3 6-3v-4z" fill="#60ab45"/><path d="M374.813 178.75c6.79 5.254 12.889 11.211 16.188 19.25-5.87-.765-11.639-1.881-17.437-3.062l-2.795-.564L364 193c3.75-3.875 3.75-3.875 6-5v-4c-3.29-.418-3.29-.418-7 0-2.708 2.208-2.708 2.208-5 5-4.242 4.132-8.006 4.9-13.625 5.875-9.589 1.891-17.53 4.873-24.375 12.125l2.676-1.68c7.321-4.464 13.598-7.608 22.324-8.32v3l-1.758.148c-4.681.448-8.817 1.15-13.242 2.852v4c7.292-.353 15.23-1.897 20.414-7.539 4.823-4.443 11.763-3.816 17.879-3.707 19.714 1.309 40.527 10.509 53.613 25.418 7.554 9.795 10.33 21.614 9.094 33.828-3.182 23.166-3.182 23.166-10.75 29.438l-1.859 1.309L417 287v3c-22.61 11.42-46.255 16.046-71.535 16.238l-3.239.03c-43.542.316-43.542.316-63.225-4.268l-2.772-.6c-11.699-2.538-22.517-5.971-33.228-11.4v-2l-1.77-.734c-4.495-2.55-7.222-7.164-10.23-11.266l-1.196-1.629c-6.334-8.774-11.385-17.581-10.546-28.828.793-3.785 2.073-6.81 3.742-10.293 2.821-6.303 3.814-11.374 4-18.25l10-2 1-3c1.531-1.027 1.531-1.027 3.5-1.937l2.176-1.023 9.289-4.094c2.204-.976 2.204-.976 4.785-2.633 8.649-5.045 24.279-3.041 33.656-1.016 6.686 1.812 13.181 4.091 19.594 6.703-13.499-7.515-26.88-9.461-42-11 2.822-2.9 5.376-5.142 9-7h3v-2l1.938-.75c2.256-1.053 2.256-1.053 2.691-3.328L286 182c-9.408 1.99-15.575 4.657-23.148 10.762-6.604 5.184-14.125 8.473-21.852 11.613l-1.962.798C236.197 206.287 234.081 207 231 207c.48-4.32 1.615-6.273 5-9 2.75-1.25 2.75-1.25 5-2v-2l2.52-1.207 3.293-1.605 3.27-1.582c2.867-1.401 2.867-1.401 4.574-3.262 2.295-2.295 5.24-2.051 8.344-2.344l-2-4c-4.62-.503-4.62-.503-8.625 1.313L251 183c-4.937 3.34-10.497 5.567-15.996 7.816-2.653 1.09-4.951 2.144-7.254 3.871C226 196 226 196 223 196c-.756-6.052 1.629-9.292 5-14l2.063-3.25c4.331-4.848 10.897-6.397 17.171-6.945 21.336-1.047 38.413 4.16 54.895 17.98C310.2 197.423 315.331 207.045 320 217c-2.529-8.283-6.701-16.205-12-23.062-2-2.937-2-2.937-1.926-4.848 3.69-8.33 15.87-13.911 23.926-17.09 15.964-4.734 30.993-2.715 44.813 6.75z" fill="#64b348"/><path d="M325.438 391.75l2.793.021c6.436.098 12.543.495 18.77 2.229l2.969.813c7.005 2.123 13.012 5.031 19.031 9.188l1.859 1.262c7.217 5.512 15.405 16.311 16.641 25.426L388 434l2 1c3.448 10.411 3.485 21.045 3.375 31.875l-.013 2.461c-.085 13.748-1.086 27.094-3.362 40.664l-.584 3.659L385 539l-.565 2.983c-.595 2.559-1.182 4.709-2.435 7.017-2.885 1.541-4.293 2.056-7.375 2.5l-2.168.419c-2.147.404-4.298.745-6.457 1.081l-3.418.637c-15.484 2.712-31.222 2.55-46.887 2.549l-10.273.039c-33.956.086-33.956.086-42.422-3.225-2.641-4.962-3.979-10.174-5.25-15.625l-.562-2.234c-.956-4.04-1.445-7.063-.187-11.141h2l-1-3-3-1c-1.526-3.574-1.119-7.592-1.078-11.414l.013-2.246.04-4.819.058-7.634.174-13.498.063-5.519c.178-22.284 3.107-43.186 17.729-60.871l1.988-2.406c12.829-14.11 32.856-20.042 51.449-19.844z" fill="#c5e2bb"/><path d="M181.137 473.695C183 475 183 475 184 476l1.313 8.375c3.561 23.036 9.067 45.471 19.691 66.402C206 553 206 553 206 556c-3.537 1.602-6.259 2.233-10.133 2.203l-2.929.023-3.063.023c-9.195.207-15.43 1.041-22.875 6.75-3.7 1.85-7.961 1.463-12 1-2.625-1.625-2.625-1.625-4-4-.562-3-.562-3 0-6 2.225-2.166 4.234-3.617 7-5-3.422.293-4.753.746-7.187 3.25-6.251 6.113-12.819 8.304-21.465 8.316C127 562 127 562 125.184 560.121 124 558 124 558 124 555.5c1.357-3.392 2.978-4.44 6-6.5 2.716-1.123 5.488-1.947 8.313-2.75l2.244-.668L146 544c-7.915-.377-14.8.469-21.437 5.125-3.32 3.725-3.949 7.018-4.562 11.875-6.4.369-6.4.369-9.437-1.5L109 558c0-2.687 0-2.687 1-6 3.35-2.907 6.515-5 11-5v-2c-5.053.474-9.116 2.849-13 6-1.558 2.625-1.558 2.625-2 5l-3-2c0-2.851.525-4.516 2.531-6.562 4.845-3.845 9.509-5.941 15.469-7.437l2.957-.844c12.823-3.165 25.928-2.435 39.043-2.156v5h6v-4c4.389.51 7.337 1.522 11 4v-4c-3.623-1.492-7.28-2.774-11-4l-.11-16.858-.041-5.72c-.181-20.311-.181-20.311 2.151-30.422-3.733 1.197-3.733 1.197-6.25 4-2.511 10.044-2.058 20.83-2.312 31.125l-.131 4.922L162 533c-5.047.143-7.852.017-12-3l1-2a187.3 187.3 0 0 0 .316-7.414l.063-2.211.183-7 .131-4.742L152 495l-5 1-1 31c-8.729-4.365-16.045-12.741-20.031-21.617-2.103-7.345-2.533-15.726-.078-23.035 1.196-2.076 2.43-3.643 4.109-5.348l1.574-1.66c14.008-13.289 34.194-11.498 49.563-1.645z" fill="#4e8b38"/><path d="M516 555l7.625 1.75 2.16.477c4.835 1.153 8.313 2.657 12.215 5.773.75 2.5.75 2.5 0 5-28.779 22.472-94.655 17.489-129.312 19.188l-2.271.112L389 588l-3.544.129c-23.643.842-47.269 1.029-70.925 1.001a6219.44 6219.44 0 0 0-14.773.004 7216.31 7216.31 0 0 1-11.6 0 3278.81 3278.81 0 0 0-5.45.002c-10.289.01-20.452-.214-30.708-1.136l1.898-1.418c4.203-3.164 5.613-5.429 7.102-10.582l2.23.105c7.402.329 7.402.329 13.77-3.105 1.351-1.144 1.351-1.144 1.375-4.187-.378-3.84-.517-4.395-2.898-7.051L273 559l2.496.02 23.641.135 12.145.071c18.046.15 35.66.024 53.526-2.954 2.416-.3 4.759-.317 7.192-.272l-2.062 2.563c-2.228 3.315-2.228 3.315-2 7.125.784 3.365.784 3.365 3.125 5.25 6.011 2.174 11.123 1.388 16.938-.937l1.25 3.25c1.698 3.977 3.81 6.78 7.75 8.75 6.1.429 11.24.16 17-2l3 1c7.191.794 7.191.794 13.563-1.875L433 577c1.695-.376 3.407-.683 5.125-.937 3.944-.669 3.944-.669 7.063-3.125 1.147-4.145.57-7.75-.187-11.937 9.232-.989 16.615 2.599 25 6 3.16 1.053 5.555 1.2 8.875 1.25l3.117.078c3.432-.374 5.086-1.564 8.008-3.328 3.156-.477 3.156-.477 6.5-.625 3.942-.193 7.648-.498 11.5-1.375v-2l5.371-2.93c1.795-.984 1.795-.984 2.629-3.07z" fill="#cac8c8"/><path d="M239.332 290.914c4.841 1.715 9.583 3.645 14.34 5.578 25.201 10.035 52.073 12.783 79.016 12.758l2.118-.002c14.398-.047 28.624-.516 42.757-3.498l3.255-.674c12.039-2.574 23.246-6.206 34.175-11.929 2.788-1.405 4.649-2.173 7.796-1.944 3 1.081 4.315 2.223 6.211 4.797 1.581 5.903 1.581 5.903-.148 9.168-2.478 2.452-3.954 2.389-7.414 2.645-7.065.81-13.607 2.548-20.437 4.5-23.426 6.417-45.337 9.148-69.562 9.188l-3.198.014c-18.249.031-36.169-1.356-53.802-6.326l-2.841-.768c-7.443-2.035-14.843-4.224-22.216-6.502-5.845-1.803-11.027-3.054-17.193-2.979l-2.957.027L227 305l-1 2 1.98-.114c7.592-.244 13.922 1.142 21.145 3.364l6.633 1.941 3.235.95c5.945 1.698 11.966 3.046 17.998 4.398l6.333 1.519 2.213.54 5.975 1.471c11.971 2.618 23.671 3.267 35.863 3.18l2.383-.01c26.259-.134 50.733-2.907 75.706-11.342 6.491-2.096 12.707-3.067 19.536-1.897 2 2 2 2 2.375 4.75-.562 4.867-2.799 7.865-6.437 11.063-3.796 2.326-7.022 2.322-11.375 2.313l-3.434.008c-2.624-.111-4.624-.474-7.129-1.133-6.068-.482-11.73-.224-17.625 1.313-18.706 4.693-38.193 5.264-57.375 4.688l-2.549-.063c-16.346-.442-32.171-2.485-47.994-6.65-12.034-3.163-22.863-5.035-35.339-4.292-6.355.328-10.839-.254-16.118-3.995-4.833-4.833-7.547-9.771-8.5-16.562.654-4.497 2.28-6.289 5.5-9.437 6.368-4.472 12.99-4.1 20.332-2.086z" fill="#e55545"/><path d="M193 237c1.483 19.593 1.483 19.593-3.625 25.75L185 267c-1.133 1.5-2.24 3.019-3.312 4.563-1.943 2.767-2.346 3.324-5.687 4.438v5c4.166-.434 6.165-1.019 8.93-4.266l3.949-5.766c3.872-5.42 8.572-10.269 14.121-13.969v-4h-8c.724-4.375 2.822-6.138 6.145-8.871C203 243 203 243 205.938 243.125L208 244v7l3 1c.809 1.898.809 1.898 1.438 4.375 1.331 4.912 2.989 9.619 4.793 14.375.77 2.25.77 2.25.77 4.25l-4 1-.186 1.681c-1.173 3.342-3.27 5.004-5.837 7.425l-3.094 2.982-4.885 4.626C193.771 298.581 188.789 303.3 187 312h-2c-1.414 2.639-2.372 5.071-3 8 2.388-.362 2.388-.362 5-2 1.417-2.189 2.573-4.455 3.766-6.773 1.647-2.97 3.752-4.913 6.234-7.227l4-4.562c4.261-4.793 8.85-9.096 13.658-13.326 2.962-2.647 4.528-4.483 6.342-8.111l5 9-4.25 2.188c-4.535 2.51-7.406 5.125-9.75 9.813-.725 7.063-.474 13.257 4 19 4.787 4.755 9.419 6.825 16 8-1.766 5.299-7.248 7.101-12.023 9.551l-6.145 3.02L211 340l-2.719 1.324c-2.924 2.148-3.506 3.938-4.594 7.363l-.988 3.012L202 354c-9.731-1.38-17.845-9.804-24-17-11.224-15.51-15.164-34.227-12.728-53.111C167.134 272.423 178.235 237 193 237z" fill="#4e8b37"/><path d="M255 456h1l-.003 2.345c.069 20.244.447 45.409 15.429 61.154 14.256 13.099 34.008 17.665 52.699 17.877l3.325.043c7.289-.045 13.637-1.131 20.55-3.418l2.659-.879C365.625 527.95 377.158 516.001 384 502c2.68-6.439 4.765-13.133 6-20h1c1.8 11.686-.061 22.46-2 34l-.988 6.113-1.012 6.074-.466 2.822c-.464 2.676-.984 5.332-1.534 7.991l-.534 2.809c-.606 2.605-1.223 4.823-2.466 7.191-2.885 1.541-4.293 2.056-7.375 2.5l-2.168.419c-2.147.404-4.298.745-6.457 1.081l-3.418.637c-15.484 2.712-31.222 2.55-46.887 2.549l-10.273.039c-33.956.086-33.956.086-42.422-3.225-2.641-4.962-3.979-10.174-5.25-15.625l-.562-2.234c-.956-4.04-1.445-7.063-.187-11.141h2l-1-3-3-1c-1.511-3.555-1.129-7.54-1.094-11.34l.011-2.234.583-29.989.145-5.982L255 456z" fill="#b5cfab"/><path d="M439 466c22.477-.851 22.477-.851 32.25 6.75 3.114 2.913 4.975 4.983 5.75 9.25l-2.816.078c-9.851.306-9.851.306-18.184 4.922-1.508 3.098-1.508 3.098-2 6 4.645-.849 4.645-.849 8.219-3.562 2.932-2.367 6.376-1.747 9.969-1.625l2.271.041L480 488c.218 5.439.104 9.871-2 15h-4v2l-2.266 1.207-2.984 1.605-2.953 1.582c-2.76 1.488-2.76 1.488-4.859 3.262-2.317 1.607-3.897 1.826-6.687 2.031l-2.422.199L450 515v7c5.061.617 7.477-.582 11.344-3.559 1.879-1.585 1.879-1.585 4.219-4.191 2.847-2.628 4.632-2.984 8.438-3.25-3.416 9.856-11.783 18.322-21 23-11.202 4-11.202 4-16 4v2l9.875-1.937 2.84-.553 2.715-.537 2.507-.492c2.11-.407 2.11-.407 4.063-1.481 13.614-1.133 26.878 1.758 39.75 5.938l2.274.729c4.31 1.477 7.672 3.068 10.976 6.333.813 3.25.813 3.25 1 6l-4 2-1.187-2.812c-2.044-3.595-3.064-4.558-6.812-6.187-2.979-.796-5.969-1.439-9-2v2l1.793.297c4.943.935 8.79 1.735 12.207 5.703.5 3.125.5 3.125 0 6-3.314 2.209-4.345 2.225-8.187 2.125l-2.73-.055L493 561l-1.5-3.687c-2.538-4.92-5.326-7.339-10.5-9.312-5.267-1.353-10.627-2.198-16-3v2l1.836.297c16.57 2.957 16.57 2.957 21.164 8.703.5 3 .5 3 0 6-2.736 2.565-4.802 2.972-8.5 3.5-6.194-.222-11.842-3.203-17.5-5.5-5.843-2.197-10.866-3.09-17.125-3.25-5.938-.337-9.221-1.536-13.715-5.375-3.084-6.312.687-15.445 2.215-21.937 2.743-12.05 4.315-24.158 5.625-36.437h8v-6h-8v-21z" fill="#4f8c38"/><path d="M231 177l2 1-1.461 1.609-1.914 2.141-1.898 2.109c-3.136 3.888-4.054 7.209-4.727 12.141l1.652-.953c6.091-3.457 12.268-6.654 18.91-8.922 2.504-1.156 4.185-2.509 6.313-4.25 3.02-2.345 4.039-2.864 8-3.375C261 179 261 179 263 181v3l-3.5 1.188c-4.566 1.703-8.469 4.104-12.5 6.813-3 2-3 2-6 2v2c-5.412 4-5.412 4-8 4l-2 7c13.527-4.809 25.398-9.612 36.625-18.75 5.352-4.268 11.403-6.925 18.375-6.25l-1 5-4 1v2l-1.68.805-2.195 1.07-2.18 1.055c-2.097 1.036-2.097 1.036-3.945 3.07l1.737.212c15.238 1.901 28.243 4.147 41.263 12.788l-2 1c-2.25-.891-2.25-.891-5-2.25-10.841-5.102-21.155-6.927-33.062-6.937l-2.314-.037c-6.606-.017-12.269 1.153-17.998 4.6-3.789 2.206-7.618 3.988-11.68 5.633-2.094 1.068-3.333 2.303-4.945 3.992-3.513 1.757-6.115 2.084-10 2l.246 1.844c.543 7.536-1.413 12.771-4.844 19.32-2.45 4.911-2.544 8.463-1.402 13.836l.323 2.404c1.01 6.698 3.534 11.31 7.427 16.783l1.555 2.287c3.818 5.54 7.934 10.764 12.695 15.525-15.456-.682-15.456-.682-19.242-3.914-1.201-2.012-2.095-3.842-2.758-6.086l-1.062 2.063c-3.443 5.22-8.036 9.202-12.812 13.188-4.355 3.717-7.751 8.07-11.242 12.59L194 309h-2l-.75 2.688c-1.315 3.484-2.621 5.684-5.25 8.313h-4c.547-3.375 1.055-5.082 3-8h2l.246-3.73c1.686-7.587 8.355-12.482 13.816-17.582l5.065-4.831 3.152-2.975c2.588-2.463 4.349-4.238 4.721-7.882h4l-.988-2.492c-2.39-6.105-4.612-12.129-6.238-18.484-.876-2.291-2.042-3.33-3.773-5.023-.187-2.687-.187-2.687 0-5-3.97.277-5.724.767-8.812 3.375-2.345 2.49-2.345 2.49-3.187 5.625l2-1c2-.04 4-.043 6 0l1 5-2-3c-2.059-.724-2.059-.724-4-1l-1 3h-3c-.743-23.779 3.262-46.701 19.375-65.312 5.002-5.31 10.749-10.92 17.625-13.687z" fill="#4e8c38"/><path d="M420 401c4.065 2.71 4.34 5.864 5.438 10.375l.646 2.567c2.294 9.291 4.236 18.638 5.917 28.058l.462 2.538c2.52 14.2 2.905 28.061 2.538 42.462l-1.592.741c-4.115 1.975-7.561 3.911-10.908 7.072l-2.27 2.109L418 499l-4.187 3.563c-3.229 2.797-5.947 5.798-8.586 9.152L404 513h-2l.208-15.259.063-5.179c.177-20.404.177-20.404 6.588-29.078l1.891-1.734 2.078-1.934c2.789-2.333 5.684-4.466 8.703-6.492L423 452v-3c-3.262-.394-5.893-.696-8.764 1.109-1.764 1.543-3.414 3.148-5.048 4.829-6.103 6.02-6.103 6.02-8.187 7.063l-2-23-3 1-2 40h-1l-.06-2.703-.257-10.047-.104-4.326c-.174-7.866-.567-15.27-2.578-22.924-.125-3.062-.125-3.062 0-5l-3-1c-.625-1.891-.625-1.891-1-4.25-.576-3.135-1.031-4.8-2.75-7.562L382 420c1.227-3.303 3.289-5.654 5.625-8.25l1.914-2.141L391 408c2.75 2.75 3.17 5.235 4 9-.095 3.878-.986 4.984-3.562 8-2.672 2.734-2.672 2.734-2.75 5.875L389 433c3.789-.205 4.937-.936 7.648-3.695l2.727-3.43 2.891-3.559 1.408-1.734c2.192-2.615 4.607-4.972 7.084-7.313 1.37-1.271 1.37-1.271 2.242-3.27l3-1c2.276-2.539 3.401-4.646 4-8z" fill="#64b249"/><path d="M185 350c3.959.591 6.778 1.853 10.25 3.813 10.998 5.648 23.62 7.411 35.75 9.188-3.132 2.088-6.285 3.58-9.687 5.188C209.143 374.226 204.369 380.904 199 393c5.206-1.964 8.568-4.072 12.625-8 3.32-3.196 6.399-5.692 10.375-8l2.387-2.172c3.351-2.344 5.383-2.241 9.426-2.078l3.52.109L240 373v5c-2.272 1.136-3.667 1.096-6.187 1.188-4.709.461-6.932 2.109-10.27 5.34C222 386 222 386 219.563 387.438c-4.478 2.73-8.527 6.355-12.082 10.211C206 399 206 399 202.438 400.125c-3.439 1.446-3.439 1.446-4.301 3.645-.57 2.416-.89 4.76-1.137 7.23l-.328 2.906c-.618 6.309-1.124 12.757-.672 19.094 1.01 1.23 1.01 1.23 3.074 1.133 4.754-.014 9.251-.149 13.926-1.133l-1 2c-3.337 1.112-5.988 1.203-9.5 1.25l-3.469.078C196 436 196 436 194.094 434.609 193 433 193 433 193 431h-12c.617-9.567 2.82-18.692 5-28h-2l-.312 2.75c-.633 4.473-1.798 8.79-2.922 13.16-1.074 4.335-1.94 8.702-2.766 13.09h-2v4h2l.078 3.691.172 4.871.043 2.424c.168 4.119.471 7.053 2.754 10.541 2.458 4.37 2.352 7.585 1.953 12.473l-8.437-3.312-2.432-.936-2.314-.928-2.142-.841C166 463 166 463 165 460c-.752-12.319.631-23.548 3.5-35.5l1.076-4.675c3.147-13.48 7.031-26.697 11.424-39.825 2.993.998 3.948 1.752 6 4l-1-2.562c-1.086-3.735-1.358-6.568-1-10.437 1.5-2.312 1.5-2.312 3-4v-2l-2.5-1.062C183 362 183 362 182.598 359.91c-.062-4.224-.002-6.303 2.402-9.91z" fill="#4f8d38"/><path d="M238 454h8l.028 1.847c.296 15.716 1.59 31.101 3.6 46.676 1.914 14.881 1.914 14.881 1.372 19.477-1.793 2.207-1.793 2.207-4.187 3.813l-2.508 1.734L237 532l-4 3.063c-2.898 2.185-5.419 4.067-9 4.938a103.23 103.23 0 0 1-5-1l-2.562-7.062-.748-1.99c-1.624-4.643-2.013-8.065-.689-12.947 1.566-2.004 1.566-2.004 3.563-3.562l2.191-1.754L223 510l2.027-1.527 3.953-2.922c2.894-2.222 5.572-4.665 8.258-7.133C239 497 239 497 242 496c1.23-3.512 1.23-3.512 2-7-6.394 1.312-10.45 4.212-15.5 8.25l-2.184 1.699c-4.084 3.198-8.037 6.501-11.889 9.976C213 510 213 510 211 510c-3.233-8.818-5.182-17.568-5-27l8 1 1-4 18-2-1-4c-3.042-1.521-6.28-1.374-9.625-1.562l-2.141-.131L215 472c1.324-6.678 7.862-10.91 13-15 3.215-1.607 6.436-1.057 10-1v-2z" fill="#62af47"/><path d="M374.813 178.75c6.79 5.254 12.889 11.211 16.188 19.25-5.87-.765-11.639-1.881-17.437-3.062l-2.795-.564L364 193c3.75-3.875 3.75-3.875 6-5v-4c-3.29-.418-3.29-.418-7 0-2.708 2.208-2.708 2.208-5 5-4.242 4.132-8.006 4.9-13.625 5.875-9.589 1.891-17.53 4.873-24.375 12.125l2.676-1.68c7.321-4.464 13.598-7.608 22.324-8.32v3l-1.758.148c-4.681.448-8.817 1.15-13.242 2.852v4h9l1 6 8 1c-1.4 4.075-3.37 6.907-6.062 10.25-3.843 5.136-4.937 8.381-4.937 14.75v2l-1.68.621-2.195.816-2.18.809c-1.982.733-1.982.733-3.945 1.754l-.38-2.013C323.466 225.47 323.466 225.47 317 209l-1.473-2.906c-2.233-4.248-4.54-8.224-7.465-12.031C306 191 306 191 306.07 189.082c3.717-8.325 15.864-13.9 23.93-17.082 15.964-4.734 30.993-2.715 44.813 6.75z" fill="#63b047"/><path d="M104.121 559.473c6.904 4.738 12.625 5.48 20.879 5.527l3.543.113c5.448.117 9.417.049 14.457-2.113 4.423.216 6.051 1.86 9 5 3.539 2.135 6.234 2.234 10.355 1.688 4.303-1.119 8.055-3.197 11.945-5.312 3.861-1.967 7.131-2.495 11.438-2.621l2.736-.1 5.641-.172c5.301-.2 9.857-.769 14.885-2.482-.395 3.36-.998 4.997-3.062 7.75-2.404 4.033-3.077 7.641-1.937 12.25 2.209 3.017 3.535 3.89 7.199 4.758l3.488.367c2.112.23 4.22.507 6.313.875l1 2c-11.737.222-23.359-.452-35.062-1.25l-2.966-.2C94.349 579.455 94.349 579.455 82 568c-.625-2.437-.625-2.437 0-5 6.593-5.899 14.659-8.709 22.121-3.527z" fill="#cac8c8"/><path d="M252 529c2.881 2.881 3.124 6.323 3.938 10.188 1.824 9.87 1.824 9.87 7.367 17.887l2.57 1.613 2.672 1.734L271 562l5 4c-.312 2.375-.312 2.375-1 5-3.291 2.194-3.848 2.215-7.562 1.75l-2.379-.266C263 572 263 572 261 570c-.27-2.688-.087-5.291 0-8l-3 2a77.53 77.53 0 0 0-.5 7.938c-.093 7.474-.093 7.474-1.844 10.004-3.767 2.408-7.309 2.516-11.656 2.059-2.5-1.937-2.5-1.937-4-5-.188-4.813.685-8.782 3-13-3.697 3.361-4.977 6.13-5.375 11.063C237 581 237 581 235.438 583c-3.527 1.447-6.735 1.768-10.437 1-3.062-2.062-3.062-2.062-5-5-.229-6.072 2.632-10.215 6-15l-3.375 2.75-1.898 1.547c-3.463 3.416-4.083 6.982-4.727 11.703-3.375.188-3.375.188-7 0-2.576-3.865-2.668-5.401-2-10 2.386-4.983 5.203-8.202 10.289-10.461C225.41 557 225.41 557 229 557l-2.125-2.687C225 551 225 551 225.688 548.25L227 546l1-2h3l.188-1.875L232 540a103.73 103.73 0 0 1 5-2l1.75-1.937c2.847-2.61 5.556-3.315 9.227-4.352 2.215-.614 2.215-.614 4.023-2.711z" fill="#62af46"/><path d="M160 467c4.742 3.014 7.675 6.939 10 12l-1.875.563c-2.615 1.769-3.06 3.352-3.761 6.368-1.751 9.949-1.678 20.125-1.927 30.195l-.131 4.922L162 533c-5.047.143-7.852.017-12-3l1-2a187.3 187.3 0 0 0 .316-7.414l.063-2.211.183-7 .131-4.742L152 495l-5 1-1 31c-8.729-4.365-16.045-12.741-20.031-21.617-2.103-7.345-2.533-15.726-.078-23.035 1.196-2.076 2.43-3.643 4.109-5.348l1.574-1.66c7.924-7.518 17.591-10.479 28.426-8.34z" fill="#63b148"/><path d="M395 338c2 2 2 2 2 5-2.596 1.298-4.727 1.221-7.625 1.375-4.598.339-8.117 1.117-12.309 2.938-2.581.859-4.98 1.012-7.691 1.188-4.441.314-7.605.955-11.375 3.5l-3 4h15v4c-11.344 4.944-22.775 7.324-35 9l8 2 1 5c-3.496 1.037-6.868 1.237-10.5 1.438-13.938.995-23.198 3.874-35.195 11.211-4.72 2.768-8.866 3.611-14.305 3.352-.687-1.812-.687-1.812-1-4 2.54-3.196 5.364-3.741 9.184-4.918 3.596-1.382 6.853-3.171 10.191-5.082l1.839-1.044c3.405-1.976 3.405-1.976 6.262-4.644C312 371 312 371 319 370l-19-1v-2l-2.125-.262c-6.531-.967-11.761-2.419-16.875-6.738l-2-3c1-1 1-1 3.253-1.05l2.954.093 3.217.064 6.742.195 3.229.053 2.964.083c3.383-.561 4.392-1.932 6.641-4.438l5.074-2.074c2.283-1.097 4.028-2.513 5.988-4.113 2.838-2.24 3.705-2.788 7.438-3.187l2.5.375c.125 2.875.125 2.875 0 6l-2 2h-4v2l-6 4 25 1 1-5c2.62-2.62 5.686-3.752 9.094-5.109 2.08-.972 3.789-2.184 5.656-3.516 4.144-2.698 7.745-2.909 12.605-3.129 2.546-.237 4.164-.743 6.457-1.809 5.659-2.41 12.164-2.046 18.188-1.437z" fill="#4e8c38"/><path d="M399 443h1l2 18 4.188-4.25c8.763-8.681 8.763-8.681 13.625-9L423 448l1 4-2.703 2.23-3.547 2.957-1.777 1.463c-6.848 5.732-11.405 11.429-12.282 20.58-.174 3.758-.262 7.508-.315 11.27-.315 15.616-.315 15.616-1.375 22.5 4.067-2.958 7.152-6.359 10.352-10.195C414 501 414 501 417 499c-2.084 5.038-6.095 8.539-9.785 12.441-2.381 2.422-2.381 2.422-3.215 5.559 3.633-1.142 5.829-2.6 8.41-5.379 2.914-2.972 6.136-5.622 9.285-8.34C424 501 425.414 498.809 427 496c3.015-2.82 3.667-3 8-3v6h-1v-5c-3.255 2.17-4.039 3.704-6 7-1.428 1.63-2.909 3.214-4.437 4.75l-2.309 2.359c-2.246 1.884-3.458 2.341-6.254 2.891l-.875 1.813c-1.688 3.282-3.917 4.46-7.125 6.188-3.203.109-3.203.109-6 0l.07 2.641c.337 22.265.337 22.265-6.07 30.359-2.541 1.721-5.144 2.897-8 4l-3.25 1.313c-2.863.716-4.006.502-6.75-.312l1.461-1.172 1.914-1.578 1.898-1.547c3.523-3.475 4.147-7.275 4.91-12.059l.618-3.804.315-1.996.984-6.116 1.303-8.047 2.346-13.993.672-3.926C394 500 394 500 395 499c.292-2.596.525-5.174.719-7.777l.19-2.422.393-5.122.592-7.637L399 443z" fill="#4f8c38"/><path d="M418 447l3.813-.125 2.145-.07C426 447 426 447 429 449c.267 2.908.348 5.601.293 8.508l-.013 2.547-.093 8.07-.041 5.465L429 487l6-1-3 2c-9.597 6.904-18.585 14.055-26.223 23.129L404 513h-2l.208-15.259.063-5.179c.177-20.404.177-20.404 6.588-29.078l1.891-1.734 2.078-1.934c2.789-2.333 5.684-4.466 8.703-6.492L423 452v-3l-5-1v-1z" fill="#63b047"/><path d="M220 278c2.969 2.545 4.362 5.49 6 9l-1.828.918c-5.466 2.865-9.333 5.403-12.172 11.082-.725 7.063-.474 13.257 4 19 4.787 4.755 9.419 6.825 16 8-1.928 5.783-8.998 8.054-14.187 10.688C209.117 341 209.117 341 205 341c-6.095-6.707-12.263-15.562-13.5-24.687 1.063-7.045 4.12-11.57 8.938-16.562l1.575-1.677c4.639-4.871 9.595-9.341 14.686-13.733 2.214-2.252 2.995-3.257 3.301-6.34z" fill="#62af47"/><path d="M323 175c0 2.963-.443 4.365-1.5 7.063-1.703 4.924-2.254 9.759-1.5 14.938 2.36 2.36 3.779 2.491 7 3l-7 7 2.676-1.68c7.321-4.464 13.598-7.608 22.324-8.32v3l-1.758.148c-4.681.448-8.817 1.15-13.242 2.852v4h9l1 6 8 1c-1.4 4.075-3.37 6.907-6.062 10.25-3.843 5.136-4.937 8.381-4.937 14.75v2l-1.68.621-2.195.816-2.18.809c-1.982.733-1.982.733-3.945 1.754l-.38-2.013C323.466 225.47 323.466 225.47 317 209l-1.473-2.906c-2.233-4.248-4.54-8.224-7.465-12.031C306 191 306 191 306.043 189.094c1.408-3.08 3.566-4.569 6.207-6.656l2.891-2.316c2.548-1.89 5.107-3.549 7.859-5.121z" fill="#508e39"/><path d="M205.938 243.125L208 244v7l3 1c.809 1.898.809 1.898 1.438 4.375 1.331 4.912 2.989 9.619 4.793 14.375.77 2.25.77 2.25.77 4.25l-1.802.283c-2.72.887-3.583 1.97-5.366 4.186-4.131 4.939-8.595 9.479-13.145 14.031l-2.455 2.492-2.346 2.352-2.118 2.131C189 302 189 302 187 302c-1.04-5.174-1.217-10.182-1.25-15.437l-.062-2.486c-.044-6.923 1.281-11.711 5.906-17.096l2.906-2.793 1.473-1.443c2.246-2.176 4.418-4.004 7.027-5.744v-4h-8c.724-4.375 2.822-6.138 6.145-8.871C203 243 203 243 205.938 243.125z" fill="#63b147"/><path d="M140 486c3.955 1.569 7.68 3.51 11.438 5.5l3.084 1.59L162 497v-6h1l-1 42c-7.875 0-7.875 0-12-3l1-2a187.3 187.3 0 0 0 .316-7.414l.063-2.211.183-7 .131-4.742L152 495l-5 1-1 31c-4.485-2.243-4.485-2.243-5.984-5.641-1.294-2.808-2.633-5.528-4.156-8.219-4.259-7.753-8.084-15.015-5.859-24.141 2.336-3.854 5.929-3.842 10-3z" fill="#508f39"/><path d="M439 466c22.477-.851 22.477-.851 32.25 6.75 3.114 2.913 4.975 4.983 5.75 9.25l-2.816.078c-9.851.306-9.851.306-18.184 4.922-1.508 3.098-1.508 3.098-2 6l3.125-.937c3.265-.938 6.511-1.57 9.875-2.062-3.8 5.672-7.85 10.773-14 14-2.937 0-2.937 0-5-1-1.526-3.053-.838-5.758-.562-9.125l.309-3.883L448 487h-9v-21z" fill="#61ad46"/><path d="M233.813 372.75l3.52.109L240 373v5c-2.272 1.136-3.667 1.096-6.187 1.188-4.709.461-6.932 2.109-10.27 5.34C222 386 222 386 219.563 387.438c-4.478 2.73-8.527 6.355-12.082 10.211C206 399 206 399 202.438 400.125c-3.439 1.446-3.439 1.446-4.301 3.645-.57 2.416-.89 4.76-1.137 7.23l-.328 2.906c-.618 6.309-1.124 12.757-.672 19.094 1.01 1.23 1.01 1.23 3.074 1.133 4.754-.014 9.251-.149 13.926-1.133l-1 2c-3.337 1.112-5.988 1.203-9.5 1.25l-3.469.078C196 436 196 436 194.094 434.609 193 433 193 433 193 431h-12c.398-6.373 1.425-12.374 2.938-18.562l.515-2.166c.449-1.775.991-3.527 1.548-5.271l2-1 1-3c3.065-3.911 6.117-5.618 10.625-7.687 5.944-2.814 10.231-6.456 14.902-11.043 2.386-2.19 4.684-3.65 7.473-5.27l2.387-2.172c3.351-2.344 5.383-2.241 9.426-2.078z" fill="#467f32"/><path d="M420 401c4.065 2.71 4.34 5.864 5.438 10.375l.646 2.567c2.294 9.291 4.239 18.637 5.917 28.058l.462 2.554c2.443 13.87 2.915 27.38 2.538 41.446l-6 1v-38c-3.585-2.047-3.585-2.047-6.134-2.331C421 446 421 446 419.935 443.962l-.787-2.661-.891-2.916-.883-3.072-1.789-5.949-.828-2.839c-.602-2.006-1.284-3.987-1.993-5.958-1.149-3.851-.442-6.645.234-10.566l3-1c2.276-2.539 3.401-4.646 4-8z" fill="#78ba60"/><path d="M402.52 359.141c4.587 1.589 6.257 5.765 8.48 9.859 9.407 19.792 9.407 19.792 9 30l-3.109.598c-4.664 1.335-7.078 4.229-10.141 7.84l-3.078 3.496-1.341 1.564c-1.396 1.576-2.763 3.095-4.331 4.502h-2l-1.562-3.75-.879-2.109c-.695-2.662-.736-3.635.441-6.141a116.17 116.17 0 0 1 7.783-6.582c3.101-2.613 4.168-4.147 4.893-8.168-.416-5.247-2.99-9.506-5.551-14l-1.395-2.535-2.585-4.644c-1.105-1.999-2.138-4.021-3.145-6.071 5.266-4.041 5.266-4.041 8.52-3.859z" fill="#79bb61"/><path d="M227 304c13.801-1.053 26.828 3.912 39.859 7.851 21.287 6.431 42.056 8.765 64.266 8.711l3.271.003c23.259-.039 45.63-2.529 67.855-9.682 5.207-1.672 10.218-3.229 15.749-2.883-2.224 3.337-2.769 3.537-6.418 4.648l-2.765.851-3.004.876-3.119.921c-33.461 9.667-73.844 15.391-108.333 7.252-2.851-.662-5.715-1.248-8.583-1.837a419.11 419.11 0 0 1-36.508-9.37A109.77 109.77 0 0 0 226 307l1-3z" fill="#1c0a08"/><path d="M403.938 387.5l3.063.5c.438 2.563.438 2.563 0 6-2.028 2.681-4.456 4.816-7 7l-1.801 1.555L394 406l.438 2.125L396 417c5.845-4.783 10.714-10.001 15.508-15.84C414 399 414 399 417.305 398.684L420 399l1-3c.75 2.688.75 2.688 1 6-1.812 2.688-1.812 2.688-4 5l-2 3h-3l-.742 1.742c-1.47 2.639-3.188 4.31-5.383 6.383-4.137 4.004-7.586 8.244-10.953 12.906-2.284 2.339-3.696 2.752-6.922 2.969-1-1-1-1-1.437-3.125.504-3.311 1.23-3.917 3.5-6.25 2.605-2.82 2.938-3.188 2.938-7.25-.856-2.888-1.754-5.634-3-8.375l-2.687 2.5c-2.282 1.914-3.083 2.469-6.125 2.875C380 414 380 414 379 413c-.473-2.199-.473-2.199 0-5a66.96 66.96 0 0 1 6.563-5.812c4.219-3.406 8.037-6.623 11.375-10.937 2.519-3.11 2.705-3.205 7-3.75z" fill="#3c6f2a"/><path d="M498.75 540.938l2.274.729c4.31 1.477 7.672 3.068 10.976 6.333.813 3.25.813 3.25 1 6l-4 2-1.187-2.812c-2.044-3.595-3.064-4.558-6.812-6.187-2.979-.796-5.969-1.439-9-2v2l1.793.297c4.943.935 8.79 1.735 12.207 5.703.313 3.25.313 3.25 0 6-1.816.652-1.816.652-4 1-1.615-1.34-3.219-2.695-4.77-4.109-2.664-2.258-5.429-4.172-8.355-6.078l-3.008-1.98c-10.588-5.619-22.56-5.222-34.18-5.02l-4.592.041L436 543l-1-5h2v2l9.875-1.937 2.84-.553 2.715-.537 2.507-.492c14.764-3.44 29.459-.204 43.813 4.457z" fill="#61ae46"/><path d="M286 182l-1 5-4 1v2l-1.68.805-2.195 1.07-2.18 1.055c-2.097 1.036-2.097 1.036-3.945 3.07l1.737.212c15.238 1.901 28.243 4.147 41.263 12.788l-2 1c-2.25-.891-2.25-.891-5-2.25-10.841-5.102-21.155-6.927-33.062-6.937l-2.314-.037c-6.606-.017-12.269 1.153-17.998 4.6-3.748 2.167-7.528 4.014-11.508 5.715-1.895.815-3.759 1.702-5.617 2.598-3.052 1.144-4.794 1.464-7.937 1.625-5.377.406-8.64 3.193-12.562 6.688l-1-2c9.337-9.921 20.741-15.276 33.313-20.062 7.146-2.792 13.341-6.763 19.25-11.625 5.376-4.301 11.42-6.992 18.438-6.312z" fill="#040a03"/><path d="M425 292c3.256 2.351 3.923 3.658 4.813 7.625C430 303 430 303 429 305h-2l-.562-1.937c-1.34-2.408-1.34-2.408-4.594-2.828-4.275-.261-6.794.451-10.781 1.953l-4.012 1.414-2.052.72C375.316 314.402 333.046 320.451 303 310v-1l3.969.016 14.806.039 6.365.021c24.852.1 24.852.1 49.423-3.325l3.255-.674c12.039-2.574 23.246-6.206 34.175-11.929 3.741-1.885 6.009-2.588 10.007-1.147z" fill="#e87c70"/><path d="M278 368l1 5-1.687.629c-6.209 2.507-10.475 5.812-15.312 10.371l-4.062 3.5c-5.593 4.918-10.586 9.994-15.25 15.813C229.834 419.226 229.834 419.226 224 420v2l2 1-7 6-1-2h2v-3h-3c-.562-2.562-.562-2.562 0-6 1.901-1.798 3.997-3.202 6.129-4.719 3.509-2.788 6.422-5.911 9.434-9.219 5.171-5.645 10.419-11.192 15.813-16.625l1.944-1.982c3.747-3.755 7.604-7.049 11.925-10.13 2.026-1.466 2.026-1.466 4.569-4.138 3.495-3.495 6.455-3.293 11.188-3.187z" fill="#0f200a"/><path d="M162 491h1l-1 42c-7.875 0-7.875 0-12-3l1-2a187.3 187.3 0 0 0 .316-7.414l.063-2.211.183-7 .131-4.742L152 495l-5 1-1 31-2-1 .317-13.135.104-4.47.164-6.419.095-3.904C145 495 145 495 147 493c6.061-.727 9.912 1.039 15 4v-6z" fill="#4b8635"/><path d="M332.063 370.813l2.221-.037L340 371c2 2 2 2 2 5-2.784 1.392-5.268 1.269-8.375 1.438-13.996.984-23.274 3.844-35.32 11.211-4.72 2.768-8.866 3.611-14.305 3.352-.687-1.812-.687-1.812-1-4 2.539-3.193 5.356-3.742 9.176-4.91 5.749-2.219 13.445-5.711 17.824-10.09 1.787-.21 3.58-.368 5.375-.5 5.702-.421 10.919-1.682 16.688-1.687z" fill="#10210a"/><path d="M413 291c2 1 2 1 3 3-12.761 5.817-25.27 10.119-39 13l-3.363.711c-13.572 2.534-27.619 2.491-41.387 2.477l-2.221.002c-11.775-.001-23.352-.583-35.029-2.19v-1l2.437.092c15.863.588 31.686 1.03 47.563.908l-28-1v-1l3.418-.06 12.793-.257 5.492-.104c23.936-.42 50.008-2.16 71.695-13.328L413 291z" fill="#292514"/><path d="M395 338c2 2 2 2 2 5-2.596 1.298-4.727 1.221-7.625 1.375-4.6.339-8.12 1.116-12.312 2.941-2.566.85-4.93.971-7.625 1.121-5.258.349-8.069 1.68-12.437 4.563-2.647 1.143-5.264 2.088-8 3v2l-5-1c.381-2.394.656-3.68 2.459-5.356l1.85-1.187 2.014-1.314 2.115-1.33 2.104-1.365c4.42-2.854 7.252-4.51 12.584-4.822 3.575-.282 6.434-.684 9.688-2.187 5.659-2.41 12.164-2.046 18.188-1.437z" fill="#0e1d09"/><path d="M230 405c0 3 0 3-1.391 4.719C219.965 418 219.965 418 217 418v6h3v3h-2l-.687 1.813c-1.94 3.233-4.59 4.655-8.156 5.758-2.464.491-4.769.598-7.281.617l-2.633.043C197 435 197 435 195 433c-.195-2.383-.195-2.383-.125-5.125l.055-2.758L195 423h1l1 6 2.16-2.266c9.424-9.74 9.424-9.74 15.84-12.734l1 3c4.964-3.753 9.734-7.459 14-12z" fill="#4e8c38"/><path d="M233.813 372.75l3.52.109L240 373v5c-2.241 1.121-3.763 1.197-6.25 1.375-9.871 1.055-16.889 8.068-24.25 14.188-3.265 2.706-6.478 5.149-10.125 7.313-3.611 1.775-3.611 1.775-4.375 5.125h-5c-.377-3.301-.2-4.699 1.668-7.508 2.537-2.711 4.497-3.746 7.895-5.18 5.983-2.809 10.27-6.433 14.965-11.043 2.386-2.19 4.684-3.65 7.473-5.27l2.387-2.172c3.351-2.344 5.383-2.241 9.426-2.078z" fill="#0b1907"/><path d="M288 181c14.749 5.347 24.536 19.947 31.203 33.434 1.592 3.829 2.161 6.599.797 10.566-3.764-1.255-3.979-2.335-5.812-5.75-4.932-8.456-11.401-11.576-20.187-15.25 2.855-1.154 3.998-1.001 6.98-.004l3.207 1.441c3.278 1.724 3.278 1.724 6.813 2.563l-1.625-1.562c-1.789-1.836-3.383-3.65-5-5.625C299.642 195.22 294.097 190.064 288 186c-.187-2.625-.187-2.625 0-5z" fill="#77b95f"/><path d="M261 179c2 2 2 2 2 5l-3.5 1.188c-3.096 1.15-5.742 2.501-8.5 4.313-3.283 2.154-6.473 3.536-10.176 4.809-2.46.932-4.592 2.313-6.824 3.691h-2v2c-1.68 1.438-1.68 1.438-3.875 3-2.223 1.594-4.187 3.062-6.125 5-2.625.125-2.625.125-5 0 0-4 0-4 1.801-5.859l2.512-1.891 2.762-2.09L227 196l2.832-2.191c4.628-3.514 8.712-6.311 14.27-8.023 2.352-.973 4.002-2.355 5.961-3.973 3.682-2.926 6.164-3.576 10.938-2.812z" fill="#0a1706"/><path d="M420 401l3 2v2l-4 3a81.23 81.23 0 0 0 2.848 13.598l1.084 3.678 2.273 7.586 1.08 3.674.996 3.324c.723 3.158.852 5.913.719 9.14-2.93-.74-4.622-1.226-7-3-1.863-3.432-2.809-7.052-3.812-10.812l-.865-2.986-1.612-5.709c-.569-1.996-1.235-3.964-1.933-5.918-1.164-3.856-.455-6.644.223-10.574l3-1c2.276-2.539 3.401-4.646 4-8z" fill="#65b34a"/><path d="M243 490c.375 2.75.375 2.75 0 6-2.625 2.063-2.625 2.063-6 4l-4.363 3.637c-8.287 6.902-8.287 6.902-12.199 8.238-5 2.308-8.539 7.25-10.875 12.125l-.562 2h-4c-.568-3.162-.392-5.311 1.207-8.121 4.479-6.052 9.817-10.382 15.793-14.879l4.281-3.391 4.594-3.609 2.236-1.784 2.131-1.653 1.902-1.496C239 490 239 490 243 490z" fill="#0f1e09"/><path d="M219 464v3l-3 1c-.733 2.015-.733 2.015-1 4l3.176-.07 4.137-.055 2.092-.051c3.767-.036 5.38.032 8.596 2.176v4l-3.832.586-4.98.789-2.525.383-2.432.391-2.238.349c-2.291.459-2.291.459-4.993 2.502l-7-1h-2.875H200c-1-1-1-1-1.25-3.937L199 475l3-2-1 7c1.938-.227 1.938-.227 4-1 1.242-1.612 1.242-1.612 2.188-3.625 2.919-5.085 7.065-8.065 11.813-11.375z" fill="#2c541e"/><path d="M193 238h1v18l3-1 1-2 5 1c-.344 2.917-.616 4.584-2.637 6.773l-2.051 1.602c-4.614 3.808-8.46 7.871-11.805 12.844-1.414 2.081-2.735 3.995-4.508 5.781-3.375.5-3.375.5-6 0-.312-2.25-.312-2.25 0-5l2.191-1.734c3.38-2.727 5.588-5.729 8.059-9.266l1.352-1.867c4.067-5.743 4.515-9.303 4.398-16.258-.111-6.654-.111-6.654 1-8.875z" fill="#0e1e09"/><path d="M218 278c-.148 4.871-2.631 7.02-5.969 10.18l-6.094 5.32c-5.095 4.412-9.934 8.889-11.937 15.5h-2l-.75 2.688c-1.315 3.484-2.621 5.684-5.25 8.313h-4c.547-3.375 1.055-5.082 3-8h2l.227-3.684c1.591-7.135 7.312-11.785 12.386-16.677l5.247-5.193 3.352-3.295 1.576-1.572c3.056-2.918 3.799-3.581 8.214-3.581z" fill="#061003"/><path d="M241 456h4l1.654 17.603.562 5.97L250 513c-5.838-5.643-5.838-5.643-6.227-8.901l.032-2.111.02-2.295.051-2.381.027-2.416L244 489l-3-1v-32z" fill="#78b960"/><path d="M272.855 337.832l2.251-.01 4.687-.007 7.189-.039 4.561-.006 2.175-.022c5.053.023 5.053.023 7.282 2.252v3c-3.381 1.69-7.223 1.244-10.945 1.316l-2.682.063-8.498.183-5.754.131L259 345c-.625-1.875-.625-1.875-1-4 3.943-3.943 9.57-3.16 14.855-3.168z" fill="#081205"/><path d="M407 388c2.129 2.555 3.649 5.187 5.109 8.156l1.077 2.182L414 400l-6.75 7.375-1.922 2.117-1.875 2.031-1.714 1.873c-1.807 1.667-3.497 2.621-5.739 3.604l-1.562-3.75-.879-2.109c-.695-2.662-.728-3.631.441-6.141 2.482-2.388 5.03-4.583 7.695-6.758 2.85-2.451 4.218-3.909 5.18-7.594L407 388z" fill="#63b047"/><path d="M415 400l4 1c-.551 3.858-2.263 5.344-5 8l-1.371 2.367c-1.692 2.735-3.483 4.619-5.816 6.82-4.115 3.981-7.542 8.207-10.891 12.844-2.274 2.329-3.731 2.661-6.922 2.969-.375-2.062-.375-2.062 0-5 1.407-1.93 2.939-3.627 4.59-5.352 1.638-1.706 1.638-1.706 2.41-4.648 1.461-1.402 1.461-1.402 3.375-2.937 5.744-4.846 10.629-10.469 15.625-16.062z" fill="#14280d"/><path d="M398 372v6c-1 1-1 1-4.75 1.25-4.55.509-6.173 2.357-9.25 5.75-5.872 4-5.872 4-9 4v2h-6c-.687-1.812-.687-1.812-1-4 1.558-2.251 2.882-2.954 5.438-3.937 2.952-1.224 4.354-2.785 6.563-5.062 1.648-1.03 3.315-2.031 5-3l1.75-1.687c3.556-2.074 7.229-1.544 11.25-1.312z" fill="#0c1a07"/><path d="M216 343l2 1-2 4 9.375 4.938 2.695 1.42 2.578 1.357 2.38 1.254L237 359v2c-10.007-.319-19.451-.656-29-4 1.155-5.363 3.774-10.408 8-14z" fill="#4e8c38"/><path d="M224 540v2l-2.625.625c-4.088 1.665-6.67 3.912-9.375 7.375l-1 3h5v-2c2.094-1.634 4.178-3.142 6.375-4.625l1.828-1.273C228.735 542 228.735 542 231 542v2h-3c-1.285 3.287-1.285 3.287-2 7 1.264 2.325 1.264 2.325 3 4v2l-5.25 2.063-2.953 1.16c-2.837.788-4.091.802-6.797-.223l1-1-1.812-.562c-3.287-2.16-3.836-4.789-5.187-8.437l1.68-1.461 2.195-1.914 2.18-1.898c1.353-1.201 2.666-2.447 3.945-3.727 2.098-.656 3.8-1 6-1z" fill="#43792f"/><path d="M423 448l1 4-2.703 2.23-3.547 2.957-1.777 1.463c-5.355 4.483-9.001 8.961-11.973 15.35h-4c-.464-5.803.325-8.498 4-13 2.574-2.771 5.247-5.407 8-8l1.676-1.621c3.112-2.839 5.085-4.002 9.324-3.379z" fill="#0d1d08"/><path d="M329 343v6c-2 2-2 2-5.625 2.75-6.573 1.506-12.02 6.225-16.375 11.25-1.235 2.133-1.235 2.133-2 4h-4c-.32-3.535-.429-5.392 1.652-8.344 4.522-4.267 9.019-8.075 14.305-11.367 2.101-1.272 2.101-1.272 4.102-2.941 2.678-1.859 4.761-1.564 7.941-1.348z" fill="#050d03"/><path d="M286 182l-1 5-4 1v2l-1.68.805-2.195 1.07-2.18 1.055c-2.097 1.036-2.097 1.036-3.945 3.07l9 1v1h-13l2-6c-2.746.392-3.852.847-5.812 2.875-2.886 2.803-5.395 3.791-9.187 5.125l-2-1 2.09-1.285c4.724-2.948 9.247-5.906 13.535-9.465 5.352-4.268 11.403-6.925 18.375-6.25z" fill="#12240b"/><path d="M476 505c-.199 1.816-.199 1.816-1 4-2.145 1.527-2.145 1.527-4.812 2.938-4.035 2.27-6.439 4.296-9.187 8.063-3.73 2.846-6.333 3.424-11 3l-1-1a176.79 176.79 0 0 1 1-7l1.793-.297c5.207-.985 8.154-2.17 12.207-5.703 4.184-2.48 7.058-4 12-4z" fill="#040a02"/><path d="M302 335l-2 2 2 2c-.33 3.297-.623 4.623-3 7-1.797.278-1.797.278-3.991.319l-2.487.06-2.686.035-2.749.059-8.712.152-5.898.117L258 347c-1.325-6.384-1.325-6.384.006-8.908 2.973-1.629 5.516-1.515 8.892-1.569l2.036-.047 6.44-.101 6.419-.123 5.84-.095c4.897-.229 9.425-1.273 14.366-1.158zm-43 5c-1.059 1.979-1.059 1.979-1 4 1.207 1.44 1.207 1.44 4.754 1.038l5.024-.124 2.672-.064 5.606-.147 8.599-.211 5.436-.141 2.611-.06c4.286-.009 4.286-.009 8.3-1.291-.498-2.756-.498-2.756-2-5a163.25 163.25 0 0 0-7.324-.168l-2.239-.01-4.709-.007-7.163-.039-4.576-.006-2.15-.022c-4.311.02-7.873.526-11.838 2.252z" fill="#4b8835"/><path d="M405 389c.398 2.105.398 2.105 0 5-1.856 2.405-4.087 4.326-6.375 6.313l-1.828 1.666C392.301 406 392.301 406 390 406v2c-5.238 5-5.238 5-10 5 .205-3.785.92-4.923 3.695-7.613l3.43-2.699c4.699-3.765 8.758-7.49 12.41-12.324C401 389 401 389 405 389z" fill="#050e03"/><path d="M439 466h7l1 21h-8v-21z" fill="#4e8a37"/><path d="M430 257c-.202 9.174-1.896 19.221-8.043 26.379C420 285 420 285 418 285c3.65-28 3.65-28 12-28z" fill="#78ba61"/><path d="M387 557c.288 3.051.421 5.958 0 9-2.787 2.787-4.664 2.965-8.562 3.375-3.549-.387-4.906-.945-7.437-3.375.549-3.84 1.94-5.646 5-8 3.856-1.454 6.979-2.34 11-1z" fill="#62ae46"/><path d="M165 552c1.773 1.527 1.773 1.527 3 3-.896 3.015-1.679 4.718-4.062 6.813-3.981 1.61-7.687 1.644-11.937 1.188-1-1-1-1-1.375-3.812.375-3.187.375-3.187 2.313-5.562 3.983-2.114 7.626-2.547 12.063-1.625z" fill="#62af47"/><path d="M483 552c3.063 1.688 3.063 1.688 5 4 .313 2.75.313 2.75 0 5-7.374 2.744-7.374 2.744-11 2-2.812-2.75-2.812-2.75-5-6v-4c3.466-1.733 7.21-1.47 11-1z" fill="#63b047"/><path d="M243 192l2 1-4 1v2c-5.412 4-5.412 4-8 4l.125 3.688c-.238 2.199-.238 2.199-1.125 4.313-3.115 2.234-6.424 3.65-10 5v-3h-6c-.5-3.125-.5-3.125 0-7 2.403-2.43 5.089-4.226 8-6l2 1-3.375 3-1.898 1.688C219 204 219 204 217 204v4c4.976-1.214 7.843-3.33 11.484-6.758C230 200 230 200 232 200v-2l5.375-3.062 3.023-1.723L243 192z" fill="#3b6d2a"/><path d="M222.563 472.813l3.504-.043C229 473 229 473 231 475v3c-2.3 1.15-4.012 1.292-6.57 1.535l-2.715.264-2.84.264-2.863.275L209 481c.711-3.255 1.363-4.87 4-7 3.365-1.122 6.02-1.168 9.563-1.187z" fill="#0d1d08"/><path d="M185 518l4 1v19l-4 2c-2.366-2.366-2.256-2.852-2.266-6.062l-.008-2.414.023-2.523-.023-2.523.008-2.414.007-2.215C183 520 183 520 185 518z" fill="#091505"/><path d="M413 412h2c9 26.004 9 26.004 9 34h-3l-.611-1.924-2.764-8.701-.961-3.027-.937-2.949-.904-2.854c-.655-2.027-1.356-4.039-2.073-6.044-.939-3.131-.499-5.355.25-8.5z" fill="#79bd61"/><path d="M223 502h2c-2.775 5.904-6.932 10.841-11.25 15.688-2.287 2.61-3.73 4.946-4.75 8.313h-4c-.568-3.162-.392-5.311 1.207-8.121 4.452-6.015 9.842-10.41 15.793-14.879l1-1z" fill="#091405"/><path d="M410 409l1 3-1.898 1.793-2.477 2.395-2.461 2.355c-2.192 2.489-3.019 4.391-4.164 7.457l-3.375 4.313-1.773 2.113C393 434 393 434 389 434c-.24-2.88-.239-4.572 1.188-7.125 1.813-1.875 1.813-1.875 4-3.074 3.715-2.379 6.562-5.336 9.625-8.488l1.811-1.838L410 409z" fill="#0c1a07"/><path d="M250 172c12.377-.325 22.856.332 34 6l-1 2c-6.961-.639-13.627-1.877-20.437-3.437l-3.006-.658-2.865-.65-2.588-.584C252 174 252 174 250 172z" fill="#75b75e"/><path d="M399 443h1l2 18 4.188-4.25c3.131-3.136 6.246-6.104 9.813-8.75l2 1-1.345 1.222-6.03 5.528-2.117 1.922-2.031 1.875-1.873 1.714c-3.535 3.833-4.016 7.643-4.604 12.739l5-1v2l-2.875-.062c-3.032-.163-3.032-.163-5.125 1.063l2-33z" fill="#4a8735"/><path d="M214 343l2 1-2.312 2.563c-2.737 3.258-4.182 6.475-5.687 10.438 10.536 2.319 21.274 3.071 32 4v2c-7.716.368-14.959-.112-22.562-1.375l-2.343-.382c-3.651-.643-6.906-1.298-10.094-3.243h2l-1-3c1.145-2.41 1.145-2.41 2.813-5.062l1.645-2.66C212 345 212 345 214 343z" fill="#172b10"/><path d="M272.855 337.832l2.251-.01 4.687-.007 7.189-.039 4.561-.006 2.175-.022c5.053.023 5.053.023 7.282 2.252v3h-2v-3h-38l-1 4h5v1h-6c-.625-1.875-.625-1.875-1-4 3.943-3.943 9.57-3.16 14.855-3.168z" fill="#142a0c"/><path d="M137 550c-1.228 4.912-2.624 7.354-7 10-2.812.25-2.812.25-5 0l-1-6c4.377-4.377 7.112-4.399 13-4z" fill="#62af47"/><path d="M410 570h1c.366 5.493.366 5.493-1.207 7.672-3.452 2.557-7.707 1.927-11.793 1.328-3.125-1.812-3.125-1.812-5-4v-3l17 2v-4z" fill="#4f8c38"/><path d="M421 524l1 5c-4.963 2.371-9.459 4.432-15 5 0-2.187 0-2.187 1-5 3.835-3.315 7.785-5.815 13-5z" fill="#060f03"/><path d="M435 493v6h-1v-5c-3.255 2.17-4.039 3.704-6 7l-4.437 4.75-2.309 2.359c-2.248 1.886-3.457 2.337-6.254 2.891l-2 4c-2.518 2.518-3.638 2.979-7.25 3.188L403 518l1-4v3c3.633-1.142 5.829-2.6 8.41-5.379 2.914-2.972 6.136-5.622 9.285-8.34C424 501 425.414 498.809 427 496c3.015-2.82 3.667-3 8-3z" fill="#40752e"/><path d="M252.852 293.527c3.006 1.406 5.982 2.489 9.148 3.473v2c-5.554-.222-9.571-1.598-14.625-3.937-7.104-3.206-13.577-4.375-21.375-5.062v-1c10.584-1.592 17.25-.204 26.852 4.527z" fill="#100a06"/><path d="M189 517c2.286 2.286 1.185 7.744 1.188 10.813l.037 2.775.006 2.682.012 2.456c-.266 2.491-.997 4.119-2.243 6.274-4.75-.875-4.75-.875-7-2l-1 2 .48-2.196c.481-2.593.717-5.036.836-7.667l.127-2.686.119-2.764.131-2.822L182 517c2.684-1.342 4.153-.73 7 0zm-4 1c-2.167 1.755-2.167 1.755-2.227 3.879l.032 2.253.02 2.441.051 2.551.027 2.574L183 538l4 2c2.18-1.766 2.18-1.766 2.227-3.971l-.032-2.38-.02-2.578-.051-2.695-.027-2.719L189 519c-1.892-.681-1.892-.681-4-1z" fill="#366426"/><path d="M149.563 494.938L152 495l.165 13.989.062 4.761.067 6.836.047 2.156c.001 2.002.001 2.002-.34 5.258l-3 2-3-2c-.28-2.472-.373-4.69-.328-7.16l.006-2.137.041-4.471.047-6.867.031-4.338.013-2.086c.09-5.914.09-5.914 3.753-6.003zM147 496v31h4v-31h-4z" fill="#1d3a13"/><path d="M456 467c7.576.473 12.362 3.692 18 8.625 2 2.375 2 2.375 2 5.375-4.032-.346-5.72-1.506-8.398-4.461-2.882-2.77-6.28-4.863-9.59-7.086L456 468v-1z" fill="#75b65e"/><path d="M413 291c2 1 2 1 3 3l-9.062 3.938-2.568 1.131c-4.849 2.078-9.105 3.482-14.369 3.932l3-1-1-3 3.07-.988 4.055-1.324 2.016-.646c3.256-1.069 6.162-2.197 9.227-3.771L413 291z" fill="#101409"/><path d="M323 351v2l-6 4 25 1v1h-29c-3.044 2.74-5.444 5.181-7 9h-5l1.813-.687c2.357-1.176 2.357-1.176 3.547-3.633 1.746-2.852 3.565-4.677 6.078-6.867l2.309-2.043c2.64-2.073 4.83-3.77 8.254-3.77z" fill="#40752d"/><path d="M425 550c15.875 9.701 15.875 9.701 17.719 16.746L443 569c-2.728-.363-3.802-.781-5.676-2.855l-1.637-2.332c-2.795-3.805-5.636-6.693-9.402-9.523C425 553 425 553 425 550z" fill="#75b65e"/><path d="M386 559l1 7c-4.085 2.971-6.983 3.473-12 3l-2-2 1.645-.988 2.168-1.324 2.145-1.301c2.077-1.312 2.077-1.312 3.68-3.055C384 559 384 559 386 559z" fill="#4b8636"/><path d="M220 278l3 3-27 27c0-4.083 2.086-5.688 4.75-8.5l1.474-1.59c4.092-4.346 8.438-8.382 12.978-12.256 2.699-2.362 4.441-3.986 4.798-7.654z" fill="#5ba341"/><path d="M173 483c2.903 2.903 2.99 4.848 3.25 8.938-.036 2.822-.217 3.999-1.562 6.563C173 500 173 500 170 500c-.345-6.334.707-11.103 3-17z" fill="#61ae46"/><path d="M251 449v4h-2v10h-1v-14l-4.051.438-5.262.563-2.67.289-2.568.273-2.365.254C229 451 229 451 226 451c6.642-4.493 18.031-6.646 25-2z" fill="#3b6c29"/><path d="M414 333c.399 6.52-1.053 10.963-4.562 16.438L408 351h-2l1.813-8.437.502-2.432c.463-2.068 1.065-4.104 1.686-6.131 3-1 3-1 4-1z" fill="#76b85f"/><path d="M397 344c-2.722 2.722-4.452 2.327-8.25 2.5-4.657.215-8.355.987-12.75 2.5-1.682.2-3.371.349-5.062.438-4.117.327-6.449 1.305-9.937 3.563-2.312-.312-2.312-.312-4-1 5.221-3.596 9.027-4.373 15.313-4.723 2.538-.262 4.306-.767 6.625-1.777 5.009-2.124 13.04-4.011 18.063-1.5z" fill="#509139"/><path d="M415 572l15 2c-1 3-1 3-3 4a83.01 83.01 0 0 1-5 .125l-2.687.008C417 578 417 578 415 577v-5z" fill="#4e8b38"/><path d="M219 464v3l-3 1c-.733 2.015-.733 2.015-1 4l3.176-.07 4.137-.055 2.092-.051c3.767-.036 5.38.032 8.596 2.176v4h-2l-2-4-6.187-.187-3.48-.105c-3.628.319-5.36 1.282-8.332 3.293h-2c.597-5.171 4.435-8.731 8.313-11.875L219 464z" fill="#42792e"/><path d="M480 488l.063 4.25.035 2.391c-.094 2.266-.465 4.188-1.098 6.359h-4l-.184-1.863-.254-2.449-.246-2.426c-.269-2.423-.269-2.423-1.316-5.262 4.75-1 4.75-1 7-1z" fill="#5da543"/><path d="M238 326h2c.313 2.313.313 2.313 0 5-2.312 1.625-2.312 1.625-5 3l-1.395 1.422c-1.849 1.817-3.717 2.944-5.98 4.203l-2.273 1.289c-2.454 1.133-4.69 1.663-7.352 2.086 4.523-4.685 7.372-7.247 14-8v-2c3.462-3 3.462-3 6-3v-4z" fill="#3c702a"/><path d="M214 420c2.004 3.006 2.915 4.429 3 8-2.25 2.813-2.25 2.813-5 5h-3c.515-5.281 2.255-8.572 5-13z" fill="#61ae46"/><path d="M389 372h9v6c-1 1-1 1-4.75 1.25-4.55.509-6.173 2.357-9.25 5.75-2.279 1.597-4.484 2.766-7 4l-2-1 2.336-1.68 3.039-2.195 3.023-2.18c2.596-1.845 2.596-1.845 4.602-3.945 2.688-.27 5.291-.087 8 0l-1-4-6-1v-1z" fill="#2a511d"/><path d="M358 172c9.188.399 16.347 6.048 23 12l-2 2-2.816-2.082-3.746-2.73-1.846-1.369c-4.044-2.931-7.932-5.013-12.592-6.818v-1z" fill="#72b25b"/><path d="M259 417v1l-13.025 1.709-4.429.582-6.375.834-3.872.508C228 422 228 422 224 422v-2c5.775-1.925 11.83-2.208 17.875-2.562l2.111-.129c5.016-.29 9.991-.399 15.014-.309z" fill="#4a8634"/><path d="M307 193c4.47 4.001 7.112 8.268 9.875 13.563l1.258 2.287 1.172 2.217 1.062 1.998c.77 2.353.43 3.629-.367 5.935l-1.539-3.219c-3.615-7.455-7.125-14.378-12.461-20.781l1-2z" fill="#0e180b"/><path d="M345 197v3l-1.758.148c-4.681.448-8.817 1.15-13.242 2.852v4h7v1h-8l-.375-1.937L328 204l-2-1 5.188-2.437 2.918-1.371c3.73-1.535 6.87-2.191 10.895-2.191z" fill="#325d23"/><path d="M228 374c2.699-.488 2.699-.488 5.688-.312l3.012.137L239 374l-1 4-13 1 3-5z" fill="#020701"/><path d="M262.137 201.426L264 202l-6.625 3.438-1.871.986c-3.837 1.959-7.221 3.108-11.504 3.576v2c-3 2-3 2-5.187 1.625L237 213c5.22-3.011 10.451-5.719 15.996-8.082 2.202-.951 2.202-.951 4.816-2.73C260 201 260 201 262.137 201.426z" fill="#3c6f2a"/><path d="M219 511l2 1-1.391 1.25c-4.503 4.238-7.126 8.089-9.609 13.75h-6v-8l2-1-1 8h4l.285-2.238c.82-3.167 1.941-4.572 4.152-6.949l1.871-2.043L219 511z" fill="#2f5820"/><path d="M453 514l2 1-1.937 1.313c-2.33 1.6-2.33 1.6-3.062 4.688 3.585-.914 6.627-1.776 9.813-3.687L462 516l2 1c-7.891 6.398-7.891 6.398-14 6l-1-1a176.79 176.79 0 0 1 1-7l3-1z" fill="#284d1b"/><path d="M188 305l1 2-2 5h-2c-1.414 2.639-2.372 5.071-3 8l6-2-2 4h-5c-1-1-1-1-1.242-3.305.286-3.187 1.11-4.372 3.117-6.82l1.617-2.008L186 308l2-3z" fill="#2b511d"/><path d="M272 185l2 1-1.828 1.391-2.422 1.859-2.391 1.828c-2.388 1.871-2.388 1.871-4.43 4.043-2.777 2.704-5.286 3.597-8.93 4.879l-2-1 2.09-1.285c6.267-3.911 12.177-8.057 17.91-12.715z" fill="#396a27"/><path d="M278 368l1 5-5 1 3-1v-3c-5.075.104-7.326.907-10.937 4.563L263 378l-2-1 3.813-3.937 2.145-2.215c3.475-3.143 6.55-2.948 11.043-2.848z" fill="#1d3c13"/><path d="M238 398l3 1-8 8-1-3 6-6z" fill="#040b02"/><path d="M363.313 304.938l3.238.027L369 305v2c-6.048.896-11.889 1.113-18 1l1-2c3.776-1.082 7.405-1.105 11.313-1.062z" fill="#040702"/><path d="M270 188l4 1-5 8h11v1h-13l2-6v-3l1-1z" fill="#192f11"/><path d="M407 528l2 1-2 5 3.25-1.562c2.465-1.07 3.471-1.473 6.188-1.125L418 532c-7.443 4.67-7.443 4.67-12 4-1-1-1-1-1.187-3.437C405 530 405 530 407 528z" fill="#498634"/><path d="M298.98 201.285c5.5 1.937 10.219 4.405 15.02 7.715l-2 1c-2.355-.926-2.355-.926-5.187-2.312-4.25-2.013-8.252-3.573-12.812-4.687 3-2 3-2 4.98-1.715z" fill="#152111"/><path d="M398 461l1 4 3-1-2 10 5-1v2l-2.875-.062c-3.032-.163-3.032-.163-5.125 1.063l1-15z" fill="#345f24"/><path d="M420 396c1.125 1.688 1.125 1.688 2 4-1.045 4.074-3.292 6.841-6 10l-3-1 2.5-2.312c2.841-2.442 2.841-2.442 2.5-5.687h-5l1-2h6v-3z" fill="#4e7f3d"/><path d="M378 408h1l1 5c2.332.335 2.332.335 5 0 2.314-1.896 2.314-1.896 4-4l2 1-8 8c-3-1-3-1-5-4v-6z" fill="#5a9f42"/><path d="M284 178l3 2c.188 3.625.188 3.625 0 7l-2-1 1-4-1.863.691-2.449.871-2.426.879C277 185 277 185 274 184l10-6z" fill="#51833f"/><path d="M472 511h2c-1.509 4.98-4.557 8.243-8 12l-1-2c.777-1.945.777-1.945 1.938-4.125l1.152-2.195.91-1.68h3v-2z" fill="#5ba241"/><path d="M261 418v5h-2v-3h-16v-1c6.048-.896 11.889-1.113 18-1z" fill="#1e3d14"/><path d="M412 412l1 2-3.312 3.813-1.863 2.145L403 425h-2c1.536-3.681 3.782-5.988 6.625-8.75l2.477-2.422L412 412z" fill="#599e41"/><path d="M421 524l1 5-6 2 1-2h3v-3l-2.25 1.063c-2.882.983-3.962.97-6.75-.062 3.512-2.408 5.727-3.366 10-3z" fill="#214216"/><path d="M381 338c-3.438 3.438-7.11 3.971-11.875 4.125L366 342v-2l4.688-1 2.637-.562c2.613-.427 5.034-.514 7.676-.437z" fill="#457e30"/><path d="M474 505l-2.266 1.207-2.984 1.605-2.953 1.582A53.89 53.89 0 0 0 459 514l-2-1c12.301-9.432 12.301-9.432 17-8z" fill="#2a501c"/><path d="M263 178c2 2 2 2 2 6h-2l-2-4c-4.793-.465-4.793-.465-8.937 1.5L251 183l-3-1c4.379-4.671 8.923-4.925 15-4z" fill="#4b8935"/><path d="M398 427h1c.438 2.188.438 2.188 0 5-2.14 1.984-4.502 3.502-7 5l-3-3 2.25-.687c3.261-1.556 4.631-3.437 6.75-6.312z" fill="#569a3e"/><path d="M217 418h1v5l6-3v2l2 1-7 6-1-2h2v-3h-3v-6z" fill="#264a19"/><path d="M184 403h2c-.964 9.41-.964 9.41-2 14l-3-1 3-13z" fill="#111f0c"/><path d="M243 289l-1 3-16-2v-1c5.936-.893 11.07-.97 17 0z" fill="#29110d"/><path d="M175 431l3 1h-2v4h2v12h-1v-10l-3-1v-5l1-1z" fill="#335d24"/><path d="M323 343h6v6l-2 2c-2.125-.375-2.125-.375-4-1l4-2v-4l-5 1 1-2z" fill="#2a511c"/><path d="M231 542v2h-3l-.687 2.438L226 549c-2.625.813-2.625.813-5 1 2.165-4.216 4.839-8 10-8z" fill="#40762d"/><path d="M492 545l4.375.375 2.461.211C501 546 501 546 503 548l-2 2-9-3v-2z" fill="#13230e"/><path d="M326 370l7.313-.125 2.092-.051c3.767-.036 5.38.032 8.596 2.176v4h-2l-.555-1.953c-1.353-2.421-1.353-2.421-4.703-2.656l-3.867-.141-3.883-.172L326 371v-1z" fill="#498634"/><path d="M427 490l2 1-4.312 4.438-2.426 2.496C420 500 420 500 417 501c1.448-3.444 3.277-5.361 6.125-7.75l2.195-1.859L427 490z" fill="#0e2008"/><path d="M216 472l6.813-.125 3.832-.07C230 472 230 472 233 474v4h-2l-.586-1.953c-1.301-2.39-1.301-2.39-4.453-2.656l-3.586-.141-3.602-.172L216 473v-1z" fill="#4a8734"/><path d="M415 458l2 1-3.312 3.938-1.863 2.215C410 467 410 467 407 468c1.651-4.292 4.738-6.879 8-10z" fill="#569b3d"/><path d="M420.75 447.75l2.25.25 1 4-4 2 2-4-2.312 1C417 452 417 452 414 452c3.323-3.938 3.323-3.938 6.75-4.25z" fill="#162e0e"/><path d="M216 419h1v5h3v3h-2l-.75 1.875c-1.456 2.476-2.628 3.076-5.25 4.125l2-1.937c2.682-4.107 2.374-7.296 2-12.062z" fill="#457e31"/><path d="M382 337l6.813-.125 3.832-.07C396 337 396 337 399 339v4h-2l-.586-1.953c-1.301-2.39-1.301-2.39-4.453-2.656l-3.586-.141-3.602-.172L382 338v-1z" fill="#4a8634"/><path d="M211 584c7.429-.286 7.429-.286 11 2v1h-10l-1-3z" fill="#b3b2b2"/><path d="M401 389c2.125.375 2.125.375 4 1l-3.75 3.375-2.109 1.898c-1.986 1.602-3.82 2.692-6.141 3.727l2.875-3.875 1.617-2.18C399 391 399 391 401 389z" fill="#0d1e07"/><path d="M389 372h9v6c-1 1-1 1-3.562 1.063L392 379l4-1-1-4-6-1v-1z" fill="#3d722b"/><path d="M399 299l1 2c-6.286 2.429-6.286 2.429-10 1h3l-1-3c3.116-1.039 4.026-1.09 7 0z" fill="#1b1e0f"/><path d="M262 298c2.164.023 2.164.023 4.625.375l2.477.336L271 299l-2 1v2l-9-2 2-2z" fill="#181109"/><path d="M221 511l2 1-7 8-1-3 6-6z" fill="#589f3f"/><path d="M238 326h2c.375 2.25.375 2.25 0 5-4.973 4-4.973 4-8 4v-2c3.462-3 3.462-3 6-3v-4z" fill="#346224"/><path d="M413 291c2 1 2 1 3 3-5.75 3-5.75 3-8 3 .25-1.875.25-1.875 1-4 1.938-1.312 1.938-1.312 4-2z" fill="#171b0e"/><path d="M295 200l2 2-14-1c5.024-2.512 6.624-2.041 12-1z" fill="#0a1008"/><path d="M346 195l2 2c-2.928.976-4.956 1.082-8 1v-2l-2-1c3.039-.977 4.984-1.106 8 0z" fill="#11200c"/><path d="M219 456h2c-1.555 3.817-4.036 6.192-7 9l-2-1 3.375-4 1.898-2.25L219 456z" fill="#0c1b07"/><path d="M262.266 201.348L264 202l-4.875 2.563-2.742 1.441L254 207l-2-1 3.75-2.562 2.109-1.441C260 201 260 201 262.266 201.348z" fill="#366425"/><path d="M418 447h8v5l-4 2 1-5-5-1v-1z" fill="#42772f"/><path d="M366.438 348.25L368 349c-6.4 4.062-6.4 4.062-9.437 3.75L357 352c6.4-4.062 6.4-4.062 9.438-3.75z" fill="#437b2f"/><path d="M243 192l2 1-4 1v2c-3 2-3 2-5.187 1.625L234 197l4.375-2.562 2.461-1.441L243 192z" fill="#2e571f"/><path d="M260 339c2.125.375 2.125.375 4 1h-3l-1 4h5v1h-6c-.625-1.875-.625-1.875-1-4l2-2z" fill="#18310f"/><path d="M237 585c2.974.27 3.854.854 6 3h-9l3-3z" fill="#b4b2b2"/><path d="M416.188 531.375L418 532c-3.833 2.706-6.325 3.326-11 3l1.813-.875c5.854-3.011 5.854-3.011 7.375-2.75z" fill="#396a27"/><path d="M345 197v3h-7l-1-2c2.763-.597 5.16-1 8-1z" fill="#2c541e"/><path d="M374 194l7 1-2 1v2l-7-1 2-1v-2z" fill="#12200d"/><path d="M420 401l3 2v2l-6 5c.699-3.147 1.761-6.026 3-9z" fill="#6eab58"/><path d="M285 181l-4 2-2.062 1.188C277 185 277 185 274 184c3.833-2.706 6.325-3.326 11-3z" fill="#345f24"/></svg>