<?xml version="1.0" encoding="UTF-8"?><svg id="Lager_2" xmlns="http://www.w3.org/2000/svg" viewBox="0 0 617.49 644.18"><defs><style>.cls-1{fill:none;}</style></defs><g id="thug"><path d="M277.51,461.25c-5.12,4.07,1.61,14.39-5.18,17.8-1.97-3.26-2.44-10.25-.86-13.71.5-1.09,4.16-3.82,3.57-4.58-3.94.56-8.62-.43-8.92,4.93h-1.46c.98-5.64,3.01-9.36,9.13-9.9,2.88-.25,5.88.53,8.38.47,1.65-.04,2.79-1.05,4.01-1.43.69-.21.86.02.7.7-.99,4.18-3.52,6.18-7.88,5.72v20.77c3.47.03,5.94-2.6,8.16-4.94,1.04,2.36-1.99,5.31-3.75,6.63-10.63,7.97-22.5-1.79-16.86-13.89.37-.79.75-2.1,1.82-2.14.27,1.74-.79,3.42-.75,5.18.12,4.83,5.03,9.66,9.9,9.17v-20.77Z"/><path d="M348.22,453.34c-.78,2.04-1.99,3.44-2.43,5.73-1.1,5.74,2.35,11.82-4,15.53,1.44-.14,3.46.58,4.41-.77,1.21-1.72.46-12.49,1.26-15.56.91-3.48,6.97-6.73,6.2-3.7-.12.46-1.55.46-1.86,2.07-1.27,6.43.77,13.85-4.56,18.94,2.63-.61,5.02,2.19,7.3,2.41,1.41.13,2.5-2.15,3.08.31l-5.68,4.19c-2.17-.41-5.08-3.02-7.12-3.21-1.24-.11-7.21,3.62-7.46-1.02-.19-3.54,3.89-2.97,4.72-5.62.79-2.51-.77-3.04-1.16-4.83-.82-3.82,1.6-8.54,3.84-11.51-1-.2-1.33.93-2.26,1.01-1.13.1-1.85-1.25-3.4-1.04-1.26.17-1.47,1.64-2.75,1.5-.87-1.8,1.62-5.48,3.33-5.84,3-.63,3.61,2.02,5.43,2.31,1.33.21,1.88-.99,3.1-.91ZM343.27,476.58l-4.65.45c-2.37,1.75,5.26,3.76,4.65-.45Z"/><path d="M328.46,465.22c1.47.15,2.78-.33,2.73-2.01l-7.16-3.22-6.41,2.79.02,14.95,3.37,2.55c-2.05,1.49-4.63,3.36-4.44,6.18,3.89-.28,7.49,2.48,10.85.21,6.1-4.11-.42-7.54-.28-9.35.03-.36.76-.99.84-1.96.27-3.35.36-6.79.48-10.15ZM321.52,463.72l2.97.99v11.37l-2.97-.49v-11.87ZM327.45,484.48c-.7.51-5.99-.83-6.92-1.74-.11-.52,1.97-3.39,2.43-3.87.39-.41.33-.46,1.02-.32"/><path d="M292.84,465.2l2.82-2.9,4.62,1.72c-.75,7.79,2.62,16.53-5.01,21.67-.83.56-4.2,2.52-3.92.29,1.81.41,4.94-4.24,4.94-5.2v-14.09c-1.38-.24-3.11-.66-3.46,1.24-.28,1.47-.25,8.34-.03,9.92.19,1.34,1.38,2.01.79,3.17l-2.56,2.44-3.11-1.47c-.13-1.37.81-2.25.97-3.66.27-2.36.25-18.07-.35-19.45-.37-.85-1.47-.28-1.15-1.33l4.21-3.71,1.23.74v10.63Z"/><path d="M307.18,477.07c4.7.75,3.65-5.34,3.45-8.65-.23-3.74-2.38-5.4,1.74-8.15l3.12,2.69c-1.98,3.93-.37,9.42-.93,13.83l1.52.52-2.78,3.67c-1.29-.19-2.54-1.07-2.68-2.43l-3.69,2.83-4.18-1.89c.31-2.34,1.11-12.43.21-13.82-.4-.61-1.69-.1-1.16-1.63l2.22-2.85c1.95.38,3.15.94,3.15,2.76v13.1Z"/><path d="M370.96,459.77c-.81-.13-.46.67-.49,1.22-.08,1.45-.03,2.95.06,4.4l2.88,1.54-.93,2.03-2.5-.29c.66,2.62-1.72,10.84-.51,12.53.21.3.64.34.99.33v.97s-3.21,2.47-3.21,2.47l-2.72-3.69c.76-1.34,1.13-2.58,1.35-4.11.24-1.62.91-7.96.62-9.16-.06-.26-1.61-.43-1.01-2.54,3.4-.25,1.21-4.71,2.23-6.22l3.72-1.75c1.14-.3,3.89,1.49,4,2.52.03,1.53-1.17,2.54-2.65,2.14l-1.85-2.4Z"/><path d="M381.85,482.02c.89.84-4.74,4.17-5.19,4.82l-4.62-3.13,1.88-14.69,5.47-2.11,2.9,7.37c-2.19,2.41-6.68,2.82-5.87,6.98.7,3.62,5.11.46,5.43.76ZM376.41,476.58l2.89-2.21-2.16-4.21-.73,6.43Z"/><path d="M358.11,465.21l3.21-2.47,2.67,3.28c.09.55-.81,1.18-.92,1.93-.34,2.35-1.07,8.32-.97,10.4.06,1.15,1.66,1.59,1.45,2.42l-2.79,2.19c-.78.14-2.97-2.39-2.97-3.17,0-.46.66-1.23.77-2.02.34-2.51,1.11-7.63.99-9.89-.05-.95-.92-1.33-1.44-1.95v-.72Z"/><path d="M363.54,460.74l-2.78-1.19c.04-7.61,5.53-4.53,2.78,1.19Z"/><rect class="cls-1" width="617.49" height="644.18"/></g></svg>