<?xml version="1.0" encoding="UTF-8"?><svg id="Lager_2" xmlns="http://www.w3.org/2000/svg" viewBox="0 0 617.49 644.18"><defs><style>.cls-1{fill:none;}.cls-2{fill:#e84b1d;}.cls-3{fill:#c65017;}.cls-4{fill:#fdfcfd;}.cls-5{fill:#e99f34;}.cls-6{fill:#616160;}.cls-7{fill:#a56a1b;}.cls-8{fill:#e0e0e0;}.cls-9{fill:#e8e8e8;}</style></defs><g id="cruella"><path d="M372.25,322.19s7.26.98,11.73-1.02,4.23-.92,6.78-3.1c-1.33.63-4.85-1.24-4.85-1.24l-13.66,5.35Z"/><path class="cls-8" d="M555.21,212.75s-7.2,5.94-6.76,15.4c.44,9.46,10.68,8.82,10.68,8.82,0,0,2.57.86,2.37,3.51s-.39,3.59-5.04,4.86c-4.65,1.27-13.2,3.23-13.7,12.49-.49,9.26,2.88,15.6,10.62,18.58,7.74,2.98,14.47-.42,14.31,11.58-.49,2.28-4.25,11.92-12.97,13.36-8.72,1.44-15.83,11.17-14.14,19.23s4.44,6.07,4.44,6.07c0,0,.09,5.55-2.04,5.36,3.12.25,10.36,1.73,10.36,1.73,0,0,2.74-7.2-2.11-10.45-1.04-1.56-4.96-11.42,3.15-15.85,8.12-4.43,14.8-3.22,18.37-6.52,3.58-3.3,15.31-12.09,4.56-30.66-4.83-4.65-4.77-7.42-14.55-7.74-2.93-.44-9.27-.54-7.01-9.1,4.42-2.57,12.37-3.83,13.76-8.15,1.39-4.32,3.78-11.09-7.11-15.81-4.34-1.65-12.14-1.99-7.18-16.73Z"/><path d="M379.97,318.41l-2.53,3.07,54.2,8.86,40.32,4.94,77.98,8.98s2.79.06,4.49-7.58c1.19-5.33-5.16-7.04-5.16-7.04l-76.77-4.64-92.52-6.6Z"/><polygon class="cls-6" points="470.16 329.63 470.85 326.54 379.97 318.41 382.8 320.18 411.41 322.87 470.16 329.63"/><polygon class="cls-5" points="472.95 327.01 472.64 333.6 479.08 334.53 479.53 327.01 472.95 327.01"/><path class="cls-4" d="M537.77,330.61s-2.99,4.74-1.72,10.71c-4.66-.75-55.56-6.59-55.56-6.59l.27-7.72,57.01,3.59Z"/><path class="cls-2" d="M538.7,341.56l9.82,1.2s-1.21-5.77-.53-7.12.05-4.11,1.66-4.63c-6.19-.26-10.72-.37-10.72-.37,0,0-3.03,10.58-.23,10.92Z"/><path class="cls-2" d="M550.97,331.8s-3.89,8.44-.39,10.13c1.29-1.3,3.03-2.92,2.87-5.58-.21-2.42-2.48-4.56-2.48-4.56Z"/><path class="cls-9" d="M480.68,329.33l55.54,5.18s1-3.77,1.55-3.9-57.01-3.59-57.01-3.59l-.08,2.31Z"/><path class="cls-3" d="M538.05,334.36l9.94,1.28s.24-4.56,1.66-4.63c-3.91-.15-10.72-.37-10.72-.37l-.88,3.72Z"/><polygon class="cls-7" points="479.42 328.88 472.88 328.44 472.95 327.01 479.53 327.01 479.42 328.88"/><rect class="cls-1" width="617.49" height="644.18"/></g></svg>