<?xml version="1.0" encoding="UTF-8"?><svg id="Lager_2" xmlns="http://www.w3.org/2000/svg" viewBox="0 0 617.49 644.18"><defs><style>.cls-1{fill:none;}.cls-2{fill:#dd8142;}.cls-3{fill:#fff;opacity:.09;}.cls-4{fill:#f18810;}.cls-5{fill:#e84a21;}.cls-6{fill:#c17a43;}.cls-7{fill:#ededed;}.cls-8{fill:#e0e0e0;}.cls-9{fill:#cdcccc;}</style></defs><g id="cig"><path d="M374.86,321.35s.55-3.32,17.59-6.89c10.3-1.88,10.42-3.32,16.39-2.04,5.97,1.28,7.82,1.56,7.82,1.56l42.14,10.25,20.93,5.4s6.55,1.38,8.03,2.89,2.1,5.78,2.1,5.78c0,0,.54,3.69-1.12,8.83s-4.39,7.3-7.06,7.53c-2.51-.22-4.98-1.01-4.98-1.01l-15.55-3.78-48.22-13.2-20.25-6.61s-16.87-7.26-17.83-8.71Z"/><path class="cls-2" d="M413.29,315.38s-6.28,4.39-4.79,17.1c-1.28-.2-30.31-11.42-30.31-11.42,0,0,13.79-4.95,16.56-5.92s10.98-1.55,12.18-1.45,6.36,1.68,6.36,1.68Z"/><path class="cls-7" d="M482.99,332.35s-4.74,2.62-5.35,8.64c-.61,6.02-.75,9.56,0,10.93-2.38-.56-63.84-17.5-63.84-17.5l-2.04-.44s-2.36-5.67-.61-10.89c1.76-5.22,5.25-7.43,5.25-7.43l31.07,7.67,21.55,5.44,13.98,3.59Z"/><path class="cls-9" d="M460.87,340.92l-50.37-13.48s.13,5.61,1.25,6.54c2.04.44,65.69,17.92,65.69,17.92,0,0-1.21-6.93-.21-8.71-2.13.76-12.71-1.49-16.36-2.26Z"/><path class="cls-6" d="M407.04,326.37s-13.38-2.73-14-4.57,2.08-6.98,4.81-7.34c-3.1.68-19.66,6.6-19.66,6.6l11.46,4.41,18.84,7.01s-.19-5.49-.13-6.08-1.33-.03-1.33-.03Z"/><path class="cls-3" d="M410.96,318.08s-12.79-2.28-13.11-3.61c2.72-.36,7.42-1.12,9.09-.77s6.36,1.68,6.36,1.68l-2.33,2.7Z"/><path class="cls-5" d="M482.89,333.53s3.92-1.01,4.59.76,1.19,8.24-.08,12.36-3.84,6.42-4.24,6.39-3.2-.48-4.71-2.16.38-11.46.6-12,2.07-4.07,3.84-5.35Z"/><path class="cls-8" d="M509.14,213.41s-8.07,4.7-9.15,14.11c-1.09,9.41,9.11,10.43,9.11,10.43,0,0,2.4,1.27,1.77,3.85s-.96,3.48-5.76,3.98c-4.79.5-13.55,1.06-15.53,10.12-1.98,9.06.33,15.86,7.48,20.05,7.15,4.19,14.35,1.92,12.25,13.74-.85,2.17-6.12,11.08-14.96,11.09s-17.42,8.47-17.06,16.7,3.4,6.7,3.4,6.7c0,0-.8,5.49-2.87,4.96,3.04.75,9.94,3.38,9.94,3.38,0,0,3.87-6.66-.4-10.66-.77-1.71-3.05-12.07,5.67-15.13,8.72-3.06,15.12-.79,19.18-3.46s17.06-9.46,9.45-29.52c-4.02-5.37-3.51-8.09-13.11-9.99-2.82-.91-9.06-2.03-5.45-10.11,4.78-1.82,12.82-1.78,14.89-5.82,2.07-4.04,5.52-10.34-4.47-16.75-4.02-2.33-11.66-3.93-4.39-17.67Z"/><path class="cls-4" d="M484.62,334.83s-4.24,2.63-4.59,5-.63,7.15-.63,7.15c0,0-.12,4.39,1.91,4.57s.45-1.36.02-3.3c-.42-1.94,2.06-4.24,1.8-5.2s-1.07-3.03-.22-3.66,3.43-3.25,1.7-4.55Z"/><rect class="cls-1" width="617.49" height="644.18"/></g></svg>