<?xml version="1.0" encoding="UTF-8"?><svg id="Lager_2" xmlns="http://www.w3.org/2000/svg" viewBox="0 0 617.49 644.18"><defs><style>.cls-1{fill:none;}.cls-2{fill:#ea5b1c;}.cls-3{opacity:.24;}.cls-3,.cls-4,.cls-5,.cls-6{fill:#fff;}.cls-4{opacity:.15;}.cls-5{opacity:.21;}.cls-6{opacity:.18;}.cls-7{fill:#020202;}.cls-8{fill:#b7b7b7;}.cls-9{fill:#664537;}.cls-10{fill:#9e786b;}.cls-11{fill:#631513;}.cls-12{fill:#ded3d6;}</style></defs><g id="pipe"><path class="cls-7" d="M362.22,321.19s-2.93,2.67,19.83,5.05c9.86,3.1,32.9,12.77,40.23,21.81,2.53,1.7,20.34,21.53,42.11,26.35s31.67-4.65,31.67-4.65c0,0,9.87-7.72,9.73-29.21-.1-6.69-.49-13.57-.49-13.57,0,0-6.55-10.39-28.57-11.26-22.02-.87-24.48,5.88-24.48,5.88l-3.77,16.31s-5.05-.37-10.79-3.35c-5.75-2.83-38.87-19.33-46.92-18.42-4.83.52-27.62,3.35-28.56,5.06Z"/><path class="cls-9" d="M437,338.14s-1.81,8.24-6.84,12.17c3.37,2.74,16.88,16.56,39.06,22.05,2.83.3,17.65,3.12,27.32-8.76,2.56-4.66,7.75-19.39,5.51-32.99-2.42,1.82-7.61,5.89-27.97,2.81-20.36-3.08-19.65-9.85-19.65-9.85l-2.83,16.41s-.52,6.47,3.28,9.73c-.59,1.05-4.61-1.59-5.85-7.93-3.76-.55-12.03-3.64-12.03-3.64Z"/><path class="cls-10" d="M487.94,334.61s-22.44,1.51-32.53-8.56c-.69-1.16-.32-6.33,5.17-8,6.1-1.85,23.13-1.34,33.95,2.93,3.92,1.86,8.7,6.16,7.52,9.63-1.51,1.12-5.21,4.64-14.11,4Z"/><path class="cls-9" d="M368.54,321.92s31.83,2.94,48.43,17.67c1.88-1.28,6.56-7.95,6.56-7.95,0,0-25.77-12.24-36.61-13.53-6.48,1.07-18.37,3.81-18.37,3.81Z"/><path class="cls-11" d="M427.04,332.96s-4.52,7.14-7.12,8.8c2.18,1.98,6.7,5.95,6.7,5.95,0,0,4.77.02,8.55-10.24-4.9-3.37-8.12-4.51-8.12-4.51Z"/><path class="cls-4" d="M423.54,339.22l7.26,6s-3.63,3.38-4.18,2.49c-.86-1.38-5.76-4.32-6.7-5.95,1.82-.61,2.34-3.52,3.62-2.54Z"/><path class="cls-7" d="M472.48,330.25s-12.36-2.18-12.47-6.67c1.2-1.74,4.71-4.27,9.04-3.82,4.33.45,19.44.16,25.27,4.45,2.38,1.33,4.45,2.27,1.4,5.13-4.04,1.31-8.62,2.87-23.25.9Z"/><path class="cls-2" d="M463.24,324.49s.58-2.81,7.93-2.48,18.5,1.62,22.05,3.67c1.06.92,1.74,2.72-2.48,3.01-4.23.28-18.21.62-27.49-4.19Z"/><path class="cls-3" d="M478,334.49s19.02,3.07,24.06-3.88c1.34,7.56-.01,24.36-4.79,29.72-3.39,3.8-21.71,2.8-23.16,1.49,3.38-3.26,17.92-14.07,3.9-27.33Z"/><path class="cls-6" d="M495.97,339.21l-1.14,10.88s-1.22,3.63,1.81,3.66c3.04.03,2.57-2.48,2.75-4.2s1.33-12.02,1.33-12.02c0,0-.57-2.23-2.83-1.31s-1.93,2.98-1.93,2.98Z"/><path class="cls-12" d="M474.11,196.01s-1.85-2.08-2.15-5.09-1.35-11.58,4.41-14.37c-1.53,4.01-3.41,10.23.37,13.14s5.63,3.64,5.66,7.05c.02,3.4-1.44,11.65-6.99,14.12-1.14,1.08-4.02,8.53-.92,11.62s8.05,6.62,10.37,7.48c2.26,1.25,12.97,6.67,11.57,19.22-2.63,6.96-4.84,10.38-4.84,10.38l8.14-6.39s2.43-11.54-2.44-18.1c4.09,4.55,9.69,11.91,8.28,22.79-3.49,7.14-3.31,7.66-6.4,9.33s-8.92,6.05-9.12,10.83c.22,4.37,3.69,15.99,3.69,15.99l-14.81,1.82,1.8-29.74,5.06-23.78-9.58-5.41-10.35-11.65,1.69-14.23,5.71-5.13,2.21-8.43-1.36-1.46Z"/><path class="cls-8" d="M468.46,306.8s-4.41-9.21.5-15.32-.21-14.96-.21-14.96c0,0-3.81-10.87,2.8-15.22,6.61-4.35,13.29-15.76,6.77-20.3s-24.61-12.51-11.14-35.33c2.55-3.06,6.37-6.83,6.37-6.83,0,0,1.31-3.97.1-6.51,1.72,1.76,7.14,5.17,5.3,14.04-1.84,8.88-8.4,1.52-10.96,15.1-.09,4.67-.51,9.03,16.43,15.86,5.07,3.75,12.68,10.3,9.49,18.06-.26,1.21-.02,1.63-.02,1.63,0,0,5.9-5.51,5.94-6.81s2.16,1.95,1.15,5.58c-1.01,3.63-1.97,8.13-6.46,9.44-4.93,3.29-11.9,9.07-7.71,16.77,3.75,3.39,2.85,4.84,3.69,4.26s.65-2.85.48-3.6,5.17,3.86,5.23,5.05,1.39,9.45-1.18,12.42c-2.53,3.93-.66,5.58-.66,5.58,0,0-11.67,10.55-25.91,1.1Z"/><path class="cls-12" d="M496.11,278.32s-.75-2.31,1.75-2.89,1.32,2.74,1.32,2.74c0,0-.33,1.92-1.29,1.96s-1.78-1.81-1.78-1.81Z"/><path class="cls-12" d="M488.72,201.3s.76,4.21-.23,6.07-5.54,6.52-2.42,9.17c3.12,2.64,5.56-.83,5.56-.83,0,0,2.93-4.49.52-9.25-2.41-4.76-3.43-5.16-3.43-5.16Z"/><path class="cls-5" d="M469.72,326.93s-6.89-5.7,8.27-4.4c-9.83-.46-10.52-1.6-13.94.88-.81,1.08-1.78,1.43,5.67,3.51Z"/><rect class="cls-1" width="617.49" height="644.18"/></g></svg>