<?xml version="1.0" encoding="UTF-8"?><svg id="Lager_2" xmlns="http://www.w3.org/2000/svg" viewBox="0 0 617.49 644.18"><defs><style>.cls-1{fill:none;}.cls-2{fill:#f7d594;}.cls-3{fill:#f4bf6b;}.cls-4{fill:#f9e1b9;}</style></defs><g id="toothpick"><path d="M378.31,318.37s14.18-3.45,17.11-3.19,9.47,1.3,10.8,1.42,38.61,9.96,40.96,12.99c-.64,1.15-4.03,1.66-7.31,1.57s-55.56-8.57-59.48-11.26c-1.63-.55-2.08-1.52-2.08-1.52Z"/><path class="cls-2" d="M380.62,318.91s13.13-2.32,13.34-2.44,3.8.07,5.54.49,11.48,1.58,16.13,3.15,28.49,8.13,29.4,8.99c-.43.42,2.92,1.11-1.97.81-4.9-.3-39.62-5.4-42.62-6.45-3.94-.74-19.82-4.55-19.82-4.55Z"/><path class="cls-3" d="M422.84,326.17s-19.15-6.3-20.24-8.68c-7.06-1.01-7.54-1.56-21.26,1.3,4.9,2.95,36.81,8.04,41.58,8.46.82-.36,4.54,1.3-.07-1.08Z"/><path class="cls-4" d="M427.46,324.03s-2.09,3.6,3.07,3.86,7-.37,7.67-.64-10.74-3.22-10.74-3.22Z"/><rect class="cls-1" width="617.49" height="644.18"/></g></svg>