<?xml version="1.0" encoding="UTF-8"?><svg id="Lager_2" xmlns="http://www.w3.org/2000/svg" viewBox="0 0 617.49 644.18"><defs><style>.cls-1{fill:none;}.cls-2{fill:#f08390;}.cls-3{fill:#f39ea8;}.cls-4{fill:#dc7988;}</style></defs><g id="tounge"><path d="M302.64,323.06l.03-1.22s22.4,2.05,32.42,1.46c10.93-.2,15.93-.11,15.93-.11l5.18.14s9.39,6.59,11.78,14.86c.75,1.42,6.69,13.45.53,28.02s-19.49,16.73-19.49,16.73c0,0-15.39,1.4-24.62-5.66-9.22-7.06-12.6-11.26-14.82-19.17-2.22-7.91-3.27-14.22-2.32-19.96-.02-2.53-.66-11.1-4.62-15.09Z"/><path class="cls-2" d="M306.41,323.55l24.57,1.04s9.37,11.08,9.91,17.03c.54,2.63,2.05,13.93,1.58,15.4.69.11,1.39.04,1.39.04,0,0,.5-11.68-.78-15.81-1.28-4.14-6.91-15.02-8.8-16.04,4.71.04,19.47-.68,19.47-.68,0,0,10.16,7.79,11.49,13.58.9,2.29,5.6,14.94,1.72,25.78-2.67,5.07-7.58,15.14-20.88,16.52-13.3,1.37-29.74-9.64-34.02-21.89-.63-2.37-3.98-16.69-2.79-21.8-.31-4.46-1.12-12.94-2.86-13.17Z"/><path class="cls-4" d="M362.16,371.66c-4.27,4.47-18.29,6.68-22.45,5.78-13.46,1.02-23.08-20.01-25.51-26.8s-1.67-15.56,1.32-17.78c8.63-5.92,17.42-.37,17.42-.37,0,0,4.4.75,5.08,1.95l-7.04-9.86-24.57-1.04s2.49,3.66,2.55,9.53c.06,5.86,2.14,25.53,3.43,26.3,1.41,2.94,10.82,14.59,16.44,17.04,5.62,2.45,16.04,6.33,23.76,2.44,6.22-3.73,9.58-7.2,9.58-7.2Z"/><path class="cls-4" d="M359.13,330.2l-5.38-5.67-19.47.68s8.49,10.12,8.28,14.58c1.11-5.67,2.74-11.95,16.57-9.59Z"/><path class="cls-3" d="M332.87,334.65s5.19,14.87,6.65,14.5c1.46-.37.57-1.95.14-4.97-.43-3.02-2.02-9.39-4.4-9.46l-2.38-.07Z"/><path class="cls-3" d="M358.49,334.64s-.78-3.61,1.33-2.97,3.58,3.86,4.06,5.29,3.57,11.21,3.39,13.9-.2,7.36-.2,7.36c0,0-2.29,3.98-2.69-.49-.39-4.47-.07-9.44-1.45-13.42-1.38-3.98-4.44-9.67-4.44-9.67Z"/><rect class="cls-1" width="617.49" height="644.18"/></g></svg>