<?xml version="1.0" encoding="UTF-8"?><svg xmlns="http://www.w3.org/2000/svg" viewBox="0 0 617.49 644.18"><defs><style>.cls-1{fill:#b5d3ae;}.cls-2{opacity:.15;}.cls-2,.cls-3,.cls-4,.cls-5{fill:#fff;}.cls-3{opacity:.26;}.cls-4{opacity:.63;}.cls-6{isolation:isolate;}.cls-7{fill:#65b449;}.cls-8{fill:#a5add8;}.cls-9{opacity:.39;}.cls-9,.cls-10{fill:#cdcccc;mix-blend-mode:multiply;}.cls-11{fill:#f2f2f2;}.cls-12{fill:#ea5747;}.cls-13{fill:#76bd79;}</style></defs><g class="cls-6"><g id="Lager_2"><g id="Lager_33"><rect class="cls-8" width="617.49" height="644.18"/><path class="cls-1" d="M315.64,358.71s32.89,0,38.94-1.07,14.4-3.38,16.71,0c1.42,2.67-11.2,6.22-11.2,6.22,0,0-26.51,7.1-40.67,5.86s-33.82-2.83-40.05-12.08c1.24-1.42,1.96-2.29,8.18-1.77s24.89,2.84,28.09,2.83Z"/><path class="cls-7" d="M184.57,346.06s-42.58-42.39-9.64-91.8c7.35-9.29,13.26-16.3,13.26-16.3l6.07-3.11,4.83-22.57,14.05-23.55,17.04-13.27s30.76-14.32,58.65,2.56c4.37,2.86,14.93,10.25,14.93,10.25l9.8-7.99s13.72-12.97,31.96-12.97,31.51,9.2,39.5,17.94c6.03,7.84,10.7,15.83,10.7,15.83,0,0,29.58,15.31,31.97,29.93s4.82,14.09,4.51,16.8-2.26,12.66-2.11,14.17-1.96,20.35-10.25,24.73c4.07,1.81,9.95,5.28,9.95,5.28l2.5,10.4-2.8,5.73-1.36,2.86,1.96,5.43s-1.21,11.31-12.97,15.08c-.15,3.47,3.17,15.68-12.51,24.42,2.41,2.71,11.83,17.19,13.86,24.03,3.55,12.67,21.54,77.53,18.75,82.85,1.01,2.53,14.19,1.27,14.19,1.27,0,0,26.35.51,31.67,23.56-.76,14.95-1.01,28.88-24.83,46.11,10.39-.25,40.03,1.52,50.42,8.87,4.56,2.79,10.64,5.83,6.33,13.68-2.79,3.8-6.84,3.55-7.6,5.83-5.32,1.77-7.85,2.53-14.69,0-2.79,2.79-5.83,5.32-5.83,5.32,0,0-10.13,2.79-21.79-3.55-10.13-4.05-9.63-6.33-24.32-4.31,3.04,2.53,10.89,9.63,0,16.72h-8.11l-2.79,3.29s-4.81,4.56-15.96-1.77c-3.55,2.79-6.33,4.56-6.33,4.56h-6.84l-5.57-2.53s-6.33-9.37-1.52-13.68c-8.11,5.07-17.48,5.32-17.48,5.32,0,0-7.6-1.27-6.84-6.59s8.36-10.39,8.36-10.39l-2.28-2.28-4.81,1.77s-27.36,8.61-106.41,1.01c2.03,1.52,14.19,9.88,14.19,9.88,0,0,.51,8.87-1.77,8.87s-3.55,2.28-6.59,2.03c-3.04-.25-10.39-3.29-10.39-5.07s.25,8.36.25,8.36c0,0-7.35,15.71-19.51,3.29-4.31,3.29-13.17,8.61-21.03-.51-3.55,2.03-6.33,1.77-7.09,1.77s-16.22-7.09.25-21.79c2.53-2.28-2.79-4.56-2.79-4.56l-6.08,1.27s-9.37,2.79-20.02,2.03c-9.37,2.79-17.99,8.36-18.75,8.36s-12.16,3.8-15.46-8.87c-10.13,3.55-18.24,9.63-25.34,1.27-3.55,2.03-10.39,4.81-15.71-2.53-2.79,0-11.4-2.79-5.07-11.65,6.59-3.8,14.63-6.74,14.63-6.74l18.05-3.14,11.15-2.79,6.08-1.01-6.59-2.79s-28.63-20.27-23.56-42.06c3.8-9.63,11.91-21.54,27.36-23.06s28.12,3.8,28.12,3.8l-14.44-6.84s-1.01-31.92,6.59-45.86c1.52-8.87,9.12-34.96,9.12-34.96l3.55-6.33,3.29-9.37s-10.48-2.95-2.08-19.97Z"/><path class="cls-4" d="M253.71,516.52s2.41-29.57,1.96-38.15-4.21-59.15,34.92-78.11,72.09,0,72.09,0c0,0,28.75,13.62,30.1,53.92s-.75,45.26-.75,45.26l-7.37,49.06-11.74,4.21-23.03,3.23-57.03,1.43-27.15-1.81-4.76-3.31-7.22-35.75Z"/><path class="cls-9" d="M255.73,481.36s7,34.85,20.07,42.36,29.47,16.4,55.32,14.46,52.44-17.12,60.05-56.81c1.4,8.23,0,17.66,0,17.66,0,0-6.48,41.37-8.34,47.48-.76,1.82.37,3.56-8.78,5.03-4.46.72-35.07,5.34-51,5.49-36.88.35-59.05-4.38-60.03-4.64-1.91-.51-9.83-36.21-8.71-43.67s1.42-27.36,1.42-27.36Z"/><path class="cls-10" d="M242.98,170.69s-12.66,7.78-17.15,15.04c-1.06,2.11-5.01,9.7-1.06,11.78,4.75.89,9.59-.18,6.99,5.69-1.32,3.11-3.83,12.7-4.35,13.31-.4,1.27-.66,8.12.39,8.92-1.05,3.96-8.69,20.27-8.69,20.27l3.71,16.08s12.64,23.39,23.98,29.64c-9.85-2.59-20.25-3.96-20.25-3.96,0,0-9.46-14.18-11.34-20.21-1.11-4.7-3.54-12.65-3.54-12.65,0,0-.95-3.51-3.45-4.13-1.07-1.5-1.92-3.39-.56-3.77s.48-4.64-4.05-3.06-9.47,7.99-9.44,9.53c-.5.55-2.82,1.65-3.04,3.09s-7.3,23.86-5.05,37.73,7.45,42.81,31.72,55.81c10.92,6.07,19.76,9.71,19.76,9.71,0,0,.9,1.58-3.1,3.22s-36.24,7.7-36.76,40.29c-1.21,13-2.43,26.86-2.08,28.6,5.03-6.41,16.37-16.81,18.76-17.16s1.7,2.43,1,3.81-22.7,30.68-.52,106.59c9,30.8,15.77,31.02,15.77,31.02l-4.16,2.43s-12.66,4.49-13.87,3.46c.28-3.11-4.33-5.89-4.33-5.89l-5.68,1.18-24.48,3.33-11.66,4.74s-15.86,5.62-17.06-5.01-.22,7.9,11.39,2.53c3.64-1.39,11.15-6.14,3.92-10.09-3.45-1.12-10.55.02-12.93,3.79-1.01-3.51-3.82,1.09-5.09,1.7s-17.04,8.37-20.97,5.01-3.75-5.99-3.75-5.99c0,0,3.99,4.89,7.97,2.81s7.37-7.45,7.11-10.05c-3.81-.35-10.05-.52-9.71-1.04,4.85-1.91-5.37,3.9-5.37,3.9l-1.39,2.21v5.16l-.58,3.11-9.04-1.55-2.6-2.75-4.06-1.78-3.18-5.18s10.11-12.58,18.57-14.52-1.76,3.08-1.76,3.08c0,0,7.85.02,10.68-.93s19.39-2.76,20.24-4.09.17-5.77.17-5.77l-3.59-2.38s-21.19-26.69-14.43-39c1.91-1.56,3.99-5.2,17.16,2.25s21.49,10.57,24.26,9.36,6.93-6.2.35-18.53c-3.99-4.52-14.23-15.98-14.23-15.98l6.08-2.58-.54-6.06-2.52-10.44,14.04-57.44,7.53-17.36,3.52-5.47-4.29-3.79-2.71-8.25,4.93-7.92-8.4-10.62s-24.98-28.67-5.35-74.35c3.14-8.67,10.59-18.64,10.59-18.64l8.06-7.47,3.3-1.43,4.17-20.66,12.44-22.28,14.09-12.76,8.49-4.61,11.02-2.55Z"/><path class="cls-10" d="M339.23,240.88s-3.07-.87-5.43.65c-2.98.9-5.34,2.36-5.62,3.19h-.83s-3.13-24.34-7.63-29.89c-1.59-4.3-11.21-23.23-15.42-25.24.86-3.54,11.08-15.2,18.91-17.67s12.46-2.93,12.46-2.93c0,0-11.19,3.93-14.46,12.56s-3.53,17.14,1.96,17.86,5.95,1.96,9.36,1.96,8.31-1.18,9.03.46c-.79,1.7-2.52,3.8-2.34,5.56s-.28,6.87,2.34,6.7,6.67-.62,7.66-.65-11.08,14.86-11.08,15.84c-.62,3.38-1.78,6.13-1.78,6.13,0,0-.59,6.46,2.86,5.45Z"/><path class="cls-10" d="M315.64,358.71s32.89,0,38.94-1.07,14.4-3.38,16.71,0c1.42,2.67-11.2,6.22-11.2,6.22,0,0-26.51,7.1-40.67,5.86s-33.82-2.83-40.05-12.08c1.24-1.42,1.96-2.29,8.18-1.77s24.89,2.84,28.09,2.83Z"/><path class="cls-10" d="M391.36,406.32s-1.87-5.22-1.4-6.07,2.18,3.04,2.18,3.04c0,0,7.24,19.85,7.16,28.57-.31.54-.7-.23-.7-1.09s-6.23-23.12-7.24-24.44Z"/><path class="cls-10" d="M397.11,441.2l.77-1.96,2.17,4.91s4.35,45.42,2.81,58.34c-.9,14.33-1.79,39.4-5.12,45.16-.64,1.54-2.05,8.06-23.54,11.51.26-3.97,5.25-6.78,5.25-6.78l7.16-10.36,1.82-18.69,5.47-29.92.9-15.86,2.43-29.04-.13-7.29Z"/><path class="cls-10" d="M371.81,567.57s7.27-.21,12.94-9.09c3.68,1.11,5.13,5.56,5.13,5.56l2.67,7.02s14.55,6.24,20.43,1.86c.84-3.12,14.65,4.06,19.25-.43,1.6,2.14-1.55,6.16-1.55,6.16l-10.54.58-6.63-2.03-5.13,3-13.85-1.33-5.09-8.4-1.5-4.06-2.78,2.94-11.97,1.25-1.4-3.01Z"/><path class="cls-10" d="M437,464.4l9.13-1.08v5.57s2.63,26.31,1.08,29.25c.15,2.17,1.08,8.82,7.74,4.64,5.73-4.18,11.14-10.68,11.14-10.68,0,0,3.71-3.71,6.5-2.79s5.42,8.51.77,17.8-11.51,20.61-11.51,20.61l-3.03,4.15-19.74,6.07s-5.31-.66-3.48,3.99c1.55.62,4.93,3.18,9.13,0,2.63-.31,27.39-2.32,39.77,4.8,11.3,6.81,18.2,11.85,18.49,14.24-3.33,2.78-11.68.92-11.68.92l-1.53-4.51-1.25-3.69-6.81-4.49.02,2.59s-8.53.51-9,2.21,2.17,11.58,10.37,8.5c4.02-2,5.36-1.1,5.36-1.1l-1.18,3.95-8.07,2.65-12.98-4.72-9.6-4.81h-14.39l-7.04-3.39-8.13-7.43,6.81-32.1,2.01-9.22,1.7-21.82-.62-20.12Z"/><path class="cls-2" d="M320.29,217.7s1.5,3.57,1.1,4.2-.51,1.67-1.1,2.98-1.91,0-1.91,0c0,0-6.15-13.74-15.05-17.4s-19.56-6.96-22.35-7.13-5-2.03-6.7-2.03,6.45-1.22,6.93-.81,25.59,4.38,29.43,8.4c-1.3-1.96-20.8-24.07-39.11-28.26-5.63-1.44-16.22-4.97-27.61-3.53-1-.83,2.59-1.85-1.67-2.49s6.78-2.91,6.78-2.91h17.91l24.27,10.92,11.65,8.04,13.61,18.57,3.79,11.45Z"/><path class="cls-2" d="M417.3,287.37s4.42-15.36,4.17-21.44c3.6-4.55,8.96-9.53,8.96-9.53v7.05l-3.5,15.59-7.55,7.13-2.08,1.2Z"/><path class="cls-2" d="M340.98,169.69s16.97.79,26.84,7.28,22.49,17.34,22.49,17.34l-4.53-8.02s-25.96-20.33-34.23-18.95c-8.27,1.2-10.57,2.36-10.57,2.36Z"/><path class="cls-2" d="M246.03,449.75s-5.6,2.47-5.28,11.78.79,29.19.79,29.19l.16,3.79s-.88,2.84,1.69,1.26c.36,1.26,1.31,9.78,1.31,9.78,0,0,4.21,7.83,5.66,7.31s1.75-14.49,1.75-14.49l-3.15-8.6-2.13-31.88-.79-8.16Z"/><path class="cls-2" d="M411.29,332.31s-2.2,18.09-8.49,22.35c7.38-2.61,14.35-15.36,14.35-15.36l-1.36-7h-4.5Z"/><path class="cls-2" d="M444.77,567.4s-2.76,4.41-5.43.39c-2.05-3.86-6.29-10.16-12.24-13.7-1.38-1.5-3.51-4.41-.75-5.83,2.77,1.23,15.88,12.62,15.88,12.62l2.55,6.52Z"/><path class="cls-2" d="M436.14,492.63s-2.02,5.01-2.9,5.27-3.87,1.32-4.13-5.27c.35-7.65,1.67-33.76,0-43.08s-10.29-38.07-11.25-40.53-21.01-45.89-25.41-47.03c2.99-1.41,10.11-4.84,10.11-4.84l4.74,2.4,8.78,14.71,5.84,18.16,6.67,27.06,4.22,19.25,3.78,21.63.56,8.71-1,23.55Z"/><path class="cls-2" d="M412.11,415.34s-2.73-5.28-1.32-6.86c.97-.26,2.64.62,3.78,3.08s8.62,25.77,8.62,28.76c.7,2.81,1.85,8.79.62,9.32-.97-.26-2.29-1.32-2.9-6.16-.88-4.22-8.79-28.14-8.79-28.14Z"/><path class="cls-2" d="M451.41,464.08s7.88,6.22,10.38,7.18c2.4,1.25,10.58,6.35,12.12,12.5,4.23,4.81,6.73,8.65,8.37,6.63-2.5-7.5-10.51-26.08-26.07-25.78-2.1.78-4.79-.54-4.79-.54Z"/><path d="M162.4,462.53c-2.61-12.16-.01-24.2,2.5-36.12,4.12-19.54,9.9-35.36,16.37-53.9.23-.67,1.5-5.21,1.47-5.49-.08-.85-2.04-2.88-2.63-4.39-2.42-6.28.21-10.97,2.55-16.45-31.91-29.5-26.29-80.78,4.11-109.28,1.19-1.11,4.27-2.69,4.92-3.79,1.38-2.37,3.08-13.73,4.37-17.7,12.27-37.61,46.8-56.89,84.96-41.96,8.33,3.26,14.84,8.17,22.12,13.16,14.2-15.79,36.4-24.68,57.42-18.36,16.13,4.85,29.04,17.73,36.03,32.79,19.92,6.7,36.71,24.94,36.49,47.4-.08,8.06-.79,15.48-3.85,25.32-1.48,4.76-4.55,8.82-6.67,13.07,7.46,2.74,11.94,9.7,10.22,17.77-.45,2.11-3.55,5.83-3.6,6.65-.03.46,1.21,2.97,1.38,4.21,1.1,7.99-5.23,14.89-12.55,17.06.93,9.9-3.79,18.34-11.64,24.02,8.84,10.02,12.7,23.06,16.61,35.6,7.16,22.92,12.62,46.48,15.27,70.39,11.02-1.38,21.94-.56,31.54,5.34,19.23,11.81,16.42,36.13,4.13,52.1l-10.11,11.66c10.87.09,22.09,1.84,32.52,4.94,8.36,2.49,21.62,6.54,20.34,17.44-.61,5.18-4.2,4.95-7.51,7-.57.36-.83,1.42-1.58,1.9-3.13,2.03-6.71,2.59-10.4,2.43-1.57-.07-4.58-1.06-5.22-.97-.37.05-3.44,2.95-4.92,3.56-14.92,6.09-27.77-10.04-42.97-7.25,4.16,5.1,3.84,12.1-2.12,15.59-3.31,1.94-5.82.57-8.51,1.37-.95.28-2.19,2.17-3.48,2.91-2.86,1.63-7.31,2-10.53,1.57-1.62-.22-5.64-2.27-6.34-2.15-.66.11-3.11,2.01-4.48,2.48-9.59,3.29-19.7-1.96-20.32-12.47-11.4,8.18-29.61-1.47-15.67-13.93-33.56,5.04-67.27,6.12-101.05,2.32,4.09,3.09,10.38,7.7,6.88,13.56-3.75,6.27-11.35,5.76-17.33,3.28.93,11.36-10.66,15.07-19.9,11.48-.86-.33-1.41-1.6-2.35-1.52-1.97.17-5.98,3.39-9.98,3.39-5,0-7.5-3.48-10.48-4.03-4.46-.83-7.28,1.28-11.84-2.1s-4.34-8.51-2.25-13.21c.9-2.03,6.77-8.64,4.53-10.27-8.48,4.81-18,2.69-26.99,3.49-7.88.71-12.46,7.38-20.34,8.11-6.42.6-12.27-1.95-14.59-8.17-7,1.83-12.07,5.36-19.63,3.5-5.75-1.42-4.91-.7-10.58-.77-6.16-.07-6.24-1.7-10.44-4.34-2.22-1.39-5.02-1.41-6.44-4.59-3.16-7.07,4.45-12.68,10-15.24,11.42-5.28,24.53-6.57,36.88-8.13l-8.14-6.08c-14.84-12.48-25.2-34.71-11.04-51.71,4.83-5.8,16.48-12.47,24.11-12.47h10.74ZM420.55,220.93c-.7-1.98-2.02-3.22-2.92-4.05-21.48-19.6-59.71-27.67-86.63-15.81-4.54,2-8.41,5.69-12.95,7.08,18.05-19.34,50.66-17.82,73.76-9.29-15.05-27.81-45.96-38.16-73.48-20.33-2.2,1.43-11.91,8.94-12.41,10.87-.32,1.24,4.3,6.35,5.3,7.88,3.36,5.17,7.62,12.59,9.44,18.44.33,1.07.94,2.98.6,4.05-7.37-16.25-15.14-29.02-30.9-38.21-31.42-18.33-67.25-10.76-85.07,21.57-9.08,16.47-11.85,35.77-10.94,54.4-1.02-.18-1.02-1.16-1.24-1.95-.97-3.39-.66-10.27-.52-14.05.03-.87,1.43-4.98-.26-4.32s-8.13,7.32-9.58,9.01c-24.67,28.94-24.42,79.3,8.04,102.27,14.49,10.26,32.13,12.15,49.44,12.99.08,1.36.19,1.03-.86,1.16-1.74.22-4.58.1-6.42.02-6.55-.28-14.75-1.31-21.19-2.62-8.98-1.82-17.55-4.98-24.95-10.45-2.61-.89-4.23,7.7-3.96,9.69.77,5.77,4.4,3,6.3,6.58-1.24,3.11-3.56,4.26-4.04,8.15-.44,3.6,1.82,8.54,1.69,9.23-.08.44-.98,1.24-1.45.3l-3.19-4.06c-2.41,8.39-5.53,16.53-7.85,24.96-4.04,14.66-10.29,37.74-8.99,52.55.1,1.12.89,5.47,1.44,6.11,5.9,1.75,11.53,3.93,16.55,7.55-.53-2.03.63-6.04.29-7.63-.22-1-3.38-4.61-4.16-6.79-3.75-10.39-1.03-27.59,1.37-38.33,1.15-5.14,2.65-10.2,4.26-15.2,2.74.3,1.09,1.18.86,2.31-3.53,16.83-8.29,36.32-2.02,52.85l2.4-8.04,2.24-.09c.55.51-1.1,12.27-1.18,14.21-.71,16.56,3.83,36.57,8.58,52.45,1.74,5.82,13.53,40.29,16.97,42.25.56.32,2.08-.56,2.93-.29.58.5-7.68,10.61-8.32,12.87-1.97,7.01,2.08,10.92,8.82,9.11.03-2.94.05-5.52,1.34-8.24.92-1.94,6.38-8.18,8.32-8.53,2.48-.45-2.27,4.65-2.74,5.4-5.98,9.61-2.13,17.2,9.58,14.81,5.59-1.14,3.52-4.1,3.96-7.66.28-2.3,3.37-9.31,5.48-10.21.74-.31,1.01.06.83.83-.9,3.93-3.29,6.03-2.81,11,.95,9.86,17.17,7.59,17.42-1.09.12-4.38-3.78-13.99,3.43-14.23-.3,3.73-2,6.5,1.8,8.94,4.02,2.58,14.71,2.08,12.88-4.12-1.31-4.44-11.77-7.44-15.25-12.09-4.26-5.69-7.22-24.48-8.54-32.11-4.21-24.15-6.56-48.73-5.97-73.29,1.4-.17,2.06.01,2.32,1.45.71,20.97,2.71,41.91,5.9,62.63,1.99,12.9,4.24,26.33,8.76,38.57.85.79,12.53,2.23,14.67,2.47,27.57,2.98,59.01,2.33,86.43-1.83,4.42-.67,11.96-1.75,15.97-3.19,1.14-.41,1.3-.49,1.98-1.5,1.62-2.39,4.19-17.83,4.92-21.8,4.85-26.51,8.15-54.2,8.92-81.14.08-2.78-2.06-5.86,1.43-6.14.46-.04.93-.06,1.36.12l.68,17.66-3.8,40.92.03-3.48c.89,1.32.44,3.75-.32,4.93-1.96,3.05-3.89,22.42-4.83,27.7s-3.1,20.52-5.63,23.99-12.76,9.94-13.25,12.34c-1.53,7.42,13.43,6.64,16.07,1.48l-1.65-5.96c8.18.68,4.65,11.64,8.12,16.55,2.67,3.78,7.53,4.31,11.86,3.72,7.27-.99,6.1-6.92,3.14-11.75-1.09-1.77-4.6-4.91-5.04-6-.31-.78-.35-1.61.79-1.37,5.79,3.08,10.38,9.29,10.09,16.01,3.76,3.29,11.52,3.47,14.9-.29,4.99-5.55-3.89-12.78-7.92-15.95-.8-.63-6.15-3.5-5.17-4.4,5.72.48,16.32,7.76,17.73,13.34.36,1.4-.03,4.39.82,5,13.12-1.46,7.96-8.84,1.46-14.84-2.05-1.89-11.67-8.51-11.91-10.21-.16-1.16,3.67-12.37,4.27-14.88,11.76-49.26,6.07-88.54-8.16-136.24-3.06-10.26-7.12-24.68-13.04-33.42-1.05-1.55-3.95-5.82-5.84-5.55-1.54.22-5.43,2.95-7.41,3.68s-10.05,3.03-11.59,2.33c-.71-.32-1.64-1.49-1.79-2.33,0-2.53,5.11-1.87,6.56-2.17,14.17-2.91,27.91-10.7,26.58-27.15-7.96,1.26-14.61-2.59-22.36-2.31s-16.65,3.34-24.49,4.54c-26.4,4.06-55.31,3.19-81.52-1.92-10.98-2.14-27.53-8.68-38.01-7.85-7.57.6-12.99,2.47-20.93,0-26.51-8.24-19.93-45.72,12.62-37.01,4.63,1.24,7.87,3.67,12.08,5.34,41.07,16.31,116.76,18.04,157.36-.01,3.23-1.44,6.24-3.2,9.31-4.92l-2.3-1.44c.64-1.84,7.93-.74,12.25-18.32,8.93-36.29-7.91-48.18-7.91-48.18ZM428.38,305.72c3.07-4.77-1.02-15.15-6.67-15.13-1.99,0-11.31,5.48-14.24,6.7-32.77,13.67-72.34,12.87-107.15,10.18-.63-.05-2.61-.25-2.61.28,3.06-.28,2.46,2.31,3.61,2.81,1.74.77,8.87,1.37,11.21,1.54,28.86,2.13,60.96-.44,88.82-8.16,6.37-1.76,21.46-9.66,25.63-1.75.65,1.24.46,3,1.4,3.52ZM162.98,551.38c-17.68-.33-15.15,20.15,2.31,14.21,4.02-1.37,7.94-5.36,12.07-6.51,8.92-2.49,20.77,1.7,29.17-3.93-3.53-5.83-6.17-12.85-8.55-19.31-7.02-19.03-12.3-39.16-14.37-59.39-23.03-21.67-70.57-6.86-56.64,29.35,3.91,10.17,19.83,25.42,30.64,27.44,5.85,1.09,11.19-.53,17.57,2.18,2.48,1.05,8.54,5.47,3.86,7.21-3.04-3.32-7.41-4.51-11.76-5.11-15.46-2.12-45.38.01-58.89,8.33-3.81,2.35-8.58,7.73-2.31,10.18-.26-3.04,1.82-5.54,4.05-7.27,2.61-2.01,5.55-2.09,7.36-4.84l3.66,1.1v1.7c-1.94.62-4.38,1.31-6.18,2.24-10.67,5.54-4.78,14.94,5.61,11.7-2.4-10.02,7.36-14.91,15.67-16.56.86-.17,13.04-1.93,10.48.9-5.63.48-28.45,6.04-21.22,15.13,2.67,3.36,8.4,2.5,12.05,1.55,1.48-.39,7.92-2.92,9.14-3.63,1.13-.66,2.29-3.76,4.08-5.21,2.27-1.85,11.14-5.46,12.2-1.44ZM511.22,547.53c-6.92-7.05-32.59-11.85-42.48-12.4-10.28-.57-15.59,3.49-25.04,4.57-1.03.12-6.59.85-6.6-.8,4.6-2.64,10.5-2.57,15.48-4.83,10.35-4.71,22.67-19.6,25.9-30.43,8.19-27.46-15.02-41.59-39.66-37.04,1.85,18.75.5,38.48-3.07,57.03-1.61,8.36-4.42,16.48-5.96,24.85l10.02,8.02c5.62.26,10.91-.25,16.45.97,9.14,2.01,18.25,10.71,28.42,6.97,2.79-1.02,4.42-2.59,4.13-5.8-.59-6.56-18.25-11.32-23.86-11.32v-2.32c4-.07,8.42.36,12.32,1.33,5.07,1.26,11.64,4.29,14.32,8.91.82,1.42,1.1,4.52,1.83,5.14,3.43,2.91,14.91,1.46,13.1-5.53-1.34-5.17-9.13-6.28-13.09-7.86-.94-.37-1.42.06-1.16-1.42,6.52-.38,17.13,2.71,17.42,10.45,4.94.11,4.24-5.74,1.53-8.51Z"/><path d="M428.38,305.72c-.94-.52-.75-2.29-1.4-3.52-4.17-7.9-19.26,0-25.63,1.75-27.86,7.72-59.96,10.28-88.82,8.16-2.34-.17-9.47-.77-11.21-1.54-1.15-.51-.55-3.09-3.61-2.81,0-.54,1.98-.33,2.61-.28,34.81,2.69,74.38,3.49,107.15-10.18,2.93-1.22,12.24-6.7,14.24-6.7,5.66-.02,9.74,10.35,6.67,15.13Z"/><path d="M315.72,211.05c-4.52-1.79-8.58-4.62-13.2-6.25-27.89-9.9-64.28-4.17-85.52,17.01l-1.75-.6c-.37-1.42,3.28-4.52,4.37-5.49,11.29-10,32.09-17.04,47.03-18.02,16-1.05,37.23,1.81,49.07,13.35Z"/><path class="cls-12" d="M425.84,311.43s-4.47-2.47-17.23,1.4-30.95,9.61-46.1,10.73c-13.88,1.12-52,2.39-65.72-1.12s-20.58-3.67-34.46-7.98-26.96-8.93-34.62-6.54c-1.44-.64-2.39-3.67.8-3.99s8.14-.16,15.63,2.07,37.65,10.69,39.24,10.85c3.03.32,29.35,5.26,36.85,4.79,7.5,0,32.86.48,45.46-2.39,12.12-1.75,22.76-3.73,27.25-4.98,7.21-2.36,27.46-8.26,32.89-6.51,3.6-2.34,4.59-4.37,3.84-9.35-.49-2.29-2.96-6.47-7.98-7.82-3.83,2.71-9.8,5.46-13.47,6.73s-22,11.38-62.12,12.39c-42.64,1.07-69.5-4.07-91.08-11.93-1.8-.45-21.19-11.75-30.65-7.19-2.93,1.4-12.92,5.68-9.16,17.16s12.77,14.86,17.72,15.09,6.08,1.13,13.28-.45,16.66,2.34,16.66,2.34c0,0,20.4,4.55,24.54,5.37s36.98,5.31,59.87,3.81,39.47-5.97,39.47-5.97c0,0,8.29-2.16,14.1.17,5.47,1.49,13.6,3.15,20.56-1.66,1.82-1.49,8.51-7.17,4.42-15.03Z"/><path class="cls-3" d="M428.21,305.92s-2.12-10.05-10.91-5.82c-16.26,7.83-89.31,21.57-115.93,8.54,4.04.28,67.6,7.69,107.9-11.69,6.06-2.28,12.44-6.36,12.44-6.36,0,0,6.98,2.54,7.98,7.82s-1.03,6.41-1.47,7.51Z"/><path class="cls-5" d="M430.61,245.07c0,16.68-18.98,36.26-44.98,36.26s-46.4-18.95-46.4-35.63,20.4-35.63,46.4-35.63,44.98,18.32,44.98,35Z"/><path class="cls-11" d="M388.28,214.36c18.4,2.58,49.78,14.58,33.26,50.44-8.93,11.31-55.72,33.64-82.7-12.04-.9-11.47,5.49-26.42,8.72-28.5,9.15-5.87,22.32-12.49,40.72-9.9Z"/><path class="cls-5" d="M316.5,247.51c0,16.49-20.22,35.86-47.93,35.86s-49.44-18.74-49.44-35.23,21.74-35.23,49.44-35.23,47.93,18.11,47.93,34.61Z"/><path class="cls-11" d="M272.81,217.21c18.66,2.58,48.89,11.49,33.73,51.44-4.86,5.54-57.26,35.8-84.62-9.88-.91-11.47-.38-26.06,9.59-30.65s22.64-13.49,41.3-10.9Z"/><path d="M279.42,205.25c17.01,1.57,36.69,15,40.1,32.49.88,4.51-1.33,3.6-1.94,6.25-1.32,5.77.6,8.48-2.53,15.48-8.18,18.3-31.97,26.2-50.76,25.37s-43.45-12.35-46.15-33.71c-2.21,1.28-10.45,1.45-10.48-2.03-.02-2.28,4.3-1.21,6-1.58,4.05-.89,5.35-8.38,6.89-11.7,16.33-35.19,85.24-33.96,96.61,5.43,2.07-3.5-1.82-10.9-3.88-14.12-10.21-15.95-26.3-19.21-43.67-20.79-.64-.06-3.21-.26-3.27-1.09,4.23.28,8.9-.39,13.07,0ZM264.49,213.55c-54.5,3.24-58.61,61.93-3.58,67.7,19.38,2.03,49.03-6.44,53.02-28.72,4.83-26.99-27.48-40.29-49.44-38.98Z"/><path d="M392.96,204.09c0,1.01-2.54.64-3.22.6-1.81-.1-3.42-.66-5.17-.63-18.5.33-43.35,12.39-46.73,32.3-.32,1.88.67,4.18-.92,5.46-2.63-2.09-1.96-3.58-1.13-6.35,5.1-17,20.91-29.56,38.37-31.9,6.54-.88,12.29-.01,18.8.52Z"/><path d="M307.59,277.27c-10.64,12.73-25.65,16.74-41.81,13.93-.14-1.01,1.32-.55,2.02-.57,10.6-.43,19.13-1.22,28.78-6.07l11.01-7.28Z"/><path d="M391.8,287.72c-.22,1.06-1.14,1.07-2.01,1.18-13.43,1.6-27.27.2-37.43-9.66-.62-.6-1.48-.83-1.21-1.98,11.46,8.9,26.28,12.44,40.65,10.46Z"/><path d="M431.91,237.76c-2.85-11.04-12.63-17.9-12.63-17.9,0,0-7.67-7.86-24.9-10.56-17.23-2.7-32.07,4.21-32.07,4.21,0,0-30.52,14.15-23.47,39.26,7.02,25,32.61,30.61,52.96,28.91,20.35-1.69,32.46-15.71,34.85-18.12s8.11-14.75,5.26-25.79ZM423.86,262.32c-2.23,2.25-13.53,15.32-32.5,16.9s-42.84-3.65-49.39-26.96c-6.58-23.41,21.89-36.61,21.89-36.61,0,0,13.84-6.45,29.91-3.93,16.07,2.52,23.22,9.85,23.22,9.85,0,0,9.12,6.4,11.78,16.7,2.66,10.29-2.67,21.8-4.9,24.05Z"/><ellipse class="cls-13" cx="264.87" cy="246.7" rx="31.75" ry="30.59"/><ellipse cx="264.87" cy="246.7" rx="25.75" ry="24.8"/><circle class="cls-5" cx="278.11" cy="228.74" r="12.15"/><ellipse class="cls-13" cx="385.55" cy="243.64" rx="31.75" ry="29.52"/><ellipse cx="385.55" cy="243.64" rx="25.4" ry="23.61"/><ellipse class="cls-5" cx="398.8" cy="226.3" rx="12.15" ry="11.73"/></g></g></g></svg>