<?xml version="1.0" encoding="UTF-8"?><svg id="Lager_2" xmlns="http://www.w3.org/2000/svg" viewBox="0 0 617.49 644.18"><defs><style>.cls-1{fill:none;}.cls-2{fill:#efd61e;}.cls-3{fill:#f4f0ce;}.cls-4{fill:#937b17;}.cls-5{fill:#fff;}.cls-6{fill:#e8b31f;}.cls-7{fill:#b2940e;}.cls-8{fill:#f2f2f2;}</style></defs><g id="dollar"><path class="cls-5" d="M430.61,245.07c0,16.68-18.98,36.26-44.98,36.26s-46.4-18.95-46.4-35.63,20.4-35.63,46.4-35.63,44.98,18.32,44.98,35Z"/><path class="cls-8" d="M388.28,214.36c18.4,2.58,49.78,14.58,33.26,50.44-8.93,11.31-55.72,33.64-82.7-12.04-.9-11.47,5.49-26.42,8.72-28.5,9.15-5.87,22.32-12.49,40.72-9.9Z"/><path class="cls-5" d="M316.5,247.51c0,16.49-20.22,35.86-47.93,35.86s-49.44-18.74-49.44-35.23,21.74-35.23,49.44-35.23,47.93,18.11,47.93,34.61Z"/><path class="cls-8" d="M272.81,217.21c18.66,2.58,48.89,11.49,33.73,51.44-4.86,5.54-57.26,35.8-84.62-9.88-.91-11.47-.38-26.06,9.59-30.65s22.64-13.49,41.3-10.9Z"/><path d="M279.42,205.25c17.01,1.57,36.69,15,40.1,32.49.88,4.51-1.33,3.6-1.94,6.25-1.32,5.77.6,8.48-2.53,15.48-8.18,18.3-31.97,26.2-50.76,25.37s-43.45-12.35-46.15-33.71c-2.21,1.28-10.45,1.45-10.48-2.03-.02-2.28,4.3-1.21,6-1.58,4.05-.89,5.35-8.38,6.89-11.7,16.33-35.19,85.24-33.96,96.61,5.43,2.07-3.5-1.82-10.9-3.88-14.12-10.21-15.95-26.3-19.21-43.67-20.79-.64-.06-3.21-.26-3.27-1.09,4.23.28,8.9-.39,13.07,0ZM264.49,213.55c-54.5,3.24-58.61,61.93-3.58,67.7,19.38,2.03,49.03-6.44,53.02-28.72,4.83-26.99-27.48-40.29-49.44-38.98Z"/><path d="M392.96,204.09c0,1.01-2.54.64-3.22.6-1.81-.1-3.42-.66-5.17-.63-18.5.33-43.35,12.39-46.73,32.3-.32,1.88.67,4.18-.92,5.46-2.63-2.09-1.96-3.58-1.13-6.35,5.1-17,20.91-29.56,38.37-31.9,6.54-.88,12.29-.01,18.8.52Z"/><path d="M307.59,277.27c-10.64,12.73-25.65,16.74-41.81,13.93-.14-1.01,1.32-.55,2.02-.57,10.6-.43,19.13-1.22,28.78-6.07l11.01-7.28Z"/><path d="M391.8,287.72c-.22,1.06-1.14,1.07-2.01,1.18-13.43,1.6-27.27.2-37.43-9.66-.62-.6-1.48-.83-1.21-1.98,11.46,8.9,26.28,12.44,40.65,10.46Z"/><path d="M431.91,237.76c-2.85-11.04-12.63-17.9-12.63-17.9,0,0-7.67-7.86-24.9-10.56-17.23-2.7-32.07,4.21-32.07,4.21,0,0-30.52,14.15-23.47,39.26,7.02,25,32.61,30.61,52.96,28.91,20.35-1.69,32.46-15.71,34.85-18.12s8.11-14.75,5.26-25.79ZM423.86,262.32c-2.23,2.25-13.53,15.32-32.5,16.9s-42.84-3.65-49.39-26.96c-6.58-23.41,21.89-36.61,21.89-36.61,0,0,13.84-6.45,29.91-3.93,16.07,2.52,23.22,9.85,23.22,9.85,0,0,9.12,6.4,11.78,16.7,2.66,10.29-2.67,21.8-4.9,24.05Z"/><rect class="cls-1" width="617.49" height="644.18"/><path d="M242.65,251.79s-11.13-7.34-6.9-19.25c4.23-11.9,18.02-16.8,21.03-17.25.67-.67.89-5.01,1.89-6.23s4.56-3.34,11.01-2.34,8.9.78,10.01,4.34.45,4.12.45,4.12c0,0,6.34,1.89,7.79,3.12s7.12,5.56,4.45,12.57-6.34,8.46-6.34,8.46l3.67,1.56s11.24,5.45,8.68,16.36c-2.56,10.9-11.9,17.8-20.25,19.69-1.11,2.23-2.23,5.23-2.23,5.23,0,0-1.22,3.67-3.67,4.12s-16.13,1.78-18.25-1.45c-.11-2.89-.33-6.23-.33-6.23,0,0-18.58-3.56-19.58-14.69.22-3.67,1.56-8.46,8.57-12.13Z"/><path class="cls-7" d="M246.1,223.42s-6.79,2.56-7.34,14.58c1.45,5.01,3.78,9.57,10.12,11.79s12.35,3.23,12.35,3.23c.22-3.23,0-4.12,0-4.12,0,0-10.12-2-13.91-6.68s-7.23-9.23-1.22-18.8Z"/><path class="cls-7" d="M242.63,255.22s-5.94,2.26-4.88,8.28c1.13,3.18,3.85,8.49,12.29,10.4,3.27.71,7.31,2.12,9.29,0,.21-.14.21-1.56-1.77-1.77-2.05-.35-13.01-2.11-15.21-10.47-.28-2.62-.64-6.08.28-6.44Z"/><path class="cls-7" d="M275.9,251.79v6.52s1.77,1.56,4.08,0c.88-.68,2.38-2.85,1.02-4.21s-2.24-2.65-5.09-2.31Z"/><path class="cls-4" d="M264.76,227.4v5.91s-3.87-1.56-4.01-2.95c.82-1.32,2.31-3.09,4.01-2.95Z"/><path class="cls-7" d="M275.9,226.65v7.34s4.96,1.77,5.98,2.92c1.49-.68,2.51-.95,2.99-3.12-.75-1.22-4.62-6.79-8.97-7.13Z"/><path class="cls-4" d="M261.23,248.9s3.99,1.03,4.26.98c.22,0-.07,9.97-.07,9.97,0,0-3.9.09-4.32-2.29.1-2.23.12-8.66.12-8.66Z"/><path class="cls-4" d="M272.61,279.77s-.3,2.28-3.81,3.18c-2.4.21-8.74.87-9.38-2.44-.01-2.57.16-8.21.16-8.21,0,0,3.1.03,3.87.07-.63.59,0,2.02.03,2.65s-.54,4.73,2.95,4.69,6.19.06,6.19.06Z"/><path class="cls-2" d="M290.33,243.71c-2.69-2.69-16.04-6.8-16.04-6.8,0,0-.47-9.16-.52-12.98,1.88-.37,6.65,2.46,9.11,4.34,4.45,3.19,3.66,6.18,3.66,6.18,0,0,1.83-2.46,2.46-3.35,2.83-7.07-1.2-9.89-1.99-10.62-4.4-3.61-10.21-4.55-10.21-4.55,0,0,.47-.63,0-3.19-.47-2.56-4.03-3.09-4.03-3.09,0,0-4.61-.05-6.35,0s-1.66,1.26-1.66,1.26l-.15,2.04-2.77.31c-2.77.31-2.36,3.19-2.36,3.19l.7.87-1.2.07s-1.91.42-4.95,1.56c-6.65,3.82-8.56,8.99-9.54,12.84.41,7.06,3.03,7.82,7.84,11.43,5.17,3.68,14.1,5.17,14.1,5.17,0,0,.06,9.2-.35,13.02-7.7.35-12.61-5.73-14.24-7.78-1.63-2.34-5.02-.42-5.59,0-3.33,4.32-1.49,9.13,1.91,12.67,3.4,3.54,16.61,4.74,16.61,4.74,0,0-.12,1.77-.4,3.26-.5,4.67,3.18,4.03,6.86,4.18,3.54.21,3.18-1.77,3.18-1.77,0,0,.14-4.6.07-7.43,14.51.92,18.33-6.23,19.74-9.27,4.18-8.21-.99-13.8-3.89-16.28ZM266.08,235.21s-7.94-1.56-8.93-5.73c.64-1.27,4.7-4.81,9.28-4.81l-.35,10.54ZM282.4,259c-2.69,3.12-8.42,2.61-8.42,2.61v-12.95c2.41,0,5.24,1.7,8.07,3.07,2.83,1.37,3.04,4.15.35,7.27Z"/><path class="cls-6" d="M253.12,225.22s2.11-5.12,5.59-5.66c-5.94,2.25-13.1,5.53-10.78,16.3,3.82,4.64,14.74,10.57,24.7,11.39,7.03,2.25,11.16,3.2,12.23,5.76.87,2.56-.45,5.99-1.45,5.99,1.91-1.18,4.91-6.5-.55-9.77-5.46-3.27-22.1-9.35-24.15-11.53-2.39-1.98-10.23-4.09-5.59-12.48Z"/><path class="cls-6" d="M278.72,241.81s11.76,3.4,13.5,9.92c.24,4.7-2.24,10.1-7.36,10.66-1.94.4-3.33.87-3.33.87l4.8-3.34s-4.77,2.86-6.67,3.02-14.14,2.94-23.2-.64c-2.46-1.35-5.87-3.81-6.43-4.13.87,1.35,4.76,4.13,5.64,5.09-1.59-.72-5.16-3.34-5.96-3.58s-3.89.73-2.94,1.96,4.61,7.42,16.61,8.29c1.19,0,2.69.32,2.69.32l.66,4.77h6v-6.28s11.93-.3,16.71-4.53c2.22-2.38,4.77-2.14,4.05-11.2-.72-2.38-3.09-9.46-14.77-11.2Z"/><path class="cls-6" d="M266.73,236.22h1.52v-12.4s.31-2.28-2.2-1.29-9.3,1.73-9.85,5.57c1.49-.78,5.13-4.47,10.53-4.9.3.67.56,12.2,0,13.03Z"/><rect class="cls-6" x="272.02" y="225.03" width=".71" height="12.14"/><polygon class="cls-6" points="272.02 247.6 272.02 262.42 272.73 262.42 272.73 248.66 272.02 247.6"/><rect class="cls-6" x="267.03" y="248.12" width="1.23" height="13.03"/><path class="cls-3" d="M265.49,210.6s.17-.67,3.89-.5c1.94.17,4.15.33,4.6.5s2.17,1.17,2.34,2.33,0,2.67,0,2.67c0,0-.79.64,3.17,1.61,2.94,1.11,8.61,3.43,10,6.49.28,3.01.17,5.8-.56,6.65.28-2.37.61-6.05-2.17-8.07s-9.01-4.85-10.86-5.07-1.19-4.33-1.19-4.33c0,0-2-3-9.22-2.28Z"/><path class="cls-3" d="M268.81,217.04s-4.01-.63-8.08.27c-4.07.9-8.74,3.02-11.34,6.52-1.2,1.68-5.51,7.88-3.29,11.93,1.45,3.31,7.55,7.44,12.83,9.05,5.61,1.61,8.65,1.49,8.65,1.49,0,0-11.65-2.21-15.37-6.33-3.89-3.72-7.62-4-4.17-12,1.01-1.28,3.06-5.94,10.56-9.05,2.28-.85,6.59-1.94,10.21-1.89Z"/><path class="cls-3" d="M253.93,232.77s7.82,5.92,17.41,6.5c7.58,1.47,9.99,2.3,10.72,2.53s12.09,4.88,11.57,13.56c-.36,4.06-.83,5.35-.83,5.35l2.24-3.93s.7-7.86-3.53-11.05-11.38-5.24-17-7.52c-.79.14-.51,0-.51,0,0,0-11.84-1.25-14.98-3.91-3.22-2.01-5.08-1.53-5.08-1.53Z"/><path class="cls-3" d="M246.02,255.72s3-2.4,4.75-1.83c.05-.26-.39-1.57-3.28-.52-1.98,1.34-1.48,2.35-1.48,2.35Z"/><path d="M361.46,248.79s-11.13-7.34-6.9-19.25,18.02-16.8,21.03-17.25c.67-.67.89-5.01,1.89-6.23s4.56-3.34,11.01-2.34,8.9.78,10.01,4.34.45,4.12.45,4.12c0,0,6.34,1.89,7.79,3.12s7.12,5.56,4.45,12.57c-2.67,7.01-6.34,8.46-6.34,8.46l3.67,1.56s11.24,5.45,8.68,16.36c-2.56,10.9-11.9,17.8-20.25,19.69-1.11,2.23-2.23,5.23-2.23,5.23,0,0-1.22,3.67-3.67,4.12s-16.13,1.78-18.25-1.45c-.11-2.89-.33-6.23-.33-6.23,0,0-18.58-3.56-19.58-14.69.22-3.67,1.56-8.46,8.57-12.13Z"/><path class="cls-7" d="M364.91,220.42s-6.79,2.56-7.34,14.58c1.45,5.01,3.78,9.57,10.12,11.79s12.35,3.23,12.35,3.23c.22-3.23,0-4.12,0-4.12,0,0-10.12-2-13.91-6.68s-7.23-9.23-1.22-18.8Z"/><path class="cls-7" d="M361.44,252.22s-5.94,2.26-4.88,8.28c1.13,3.18,3.85,8.49,12.29,10.4,3.27.71,7.31,2.12,9.29,0,.21-.14.21-1.56-1.77-1.77-2.05-.35-13.01-2.11-15.21-10.47-.28-2.62-.64-6.08.28-6.44Z"/><path class="cls-7" d="M394.71,248.79v6.52s1.77,1.56,4.08,0c.88-.68,2.38-2.85,1.02-4.21s-2.24-2.65-5.09-2.31Z"/><path class="cls-4" d="M383.57,224.4v5.91s-3.87-1.56-4.01-2.95c.82-1.32,2.31-3.09,4.01-2.95Z"/><path class="cls-7" d="M394.71,223.65v7.34s4.96,1.77,5.98,2.92c1.49-.68,2.51-.95,2.99-3.12-.75-1.22-4.62-6.79-8.97-7.13Z"/><path class="cls-4" d="M380.04,245.9s3.99,1.03,4.26.98c.22,0-.07,9.97-.07,9.97,0,0-3.9.09-4.32-2.29.1-2.23.12-8.66.12-8.66Z"/><path class="cls-4" d="M391.42,276.77s-.3,2.28-3.81,3.18c-2.4.21-8.74.87-9.38-2.44-.01-2.57.16-8.21.16-8.21,0,0,3.1.03,3.87.07-.63.59,0,2.02.03,2.65s-.54,4.73,2.95,4.69,6.19.06,6.19.06Z"/><path class="cls-2" d="M409.14,240.71c-2.69-2.69-16.04-6.8-16.04-6.8,0,0-.47-9.16-.52-12.98,1.88-.37,6.65,2.46,9.11,4.34,4.45,3.19,3.66,6.18,3.66,6.18,0,0,1.83-2.46,2.46-3.35,2.83-7.07-1.2-9.89-1.99-10.62-4.4-3.61-10.21-4.55-10.21-4.55,0,0,.47-.63,0-3.19-.47-2.56-4.03-3.09-4.03-3.09,0,0-4.61-.05-6.35,0s-1.66,1.26-1.66,1.26l-.15,2.04-2.77.31c-2.77.31-2.36,3.19-2.36,3.19l.7.87-1.2.07s-1.91.42-4.95,1.56c-6.65,3.82-8.56,8.99-9.54,12.84.41,7.06,3.03,7.82,7.84,11.43,5.17,3.68,14.1,5.17,14.1,5.17,0,0,.06,9.2-.35,13.02-7.7.35-12.61-5.73-14.24-7.78-1.63-2.34-5.02-.42-5.59,0-3.33,4.32-1.49,9.13,1.91,12.67,3.4,3.54,16.61,4.74,16.61,4.74,0,0-.12,1.77-.4,3.26-.5,4.67,3.18,4.03,6.86,4.18,3.54.21,3.18-1.77,3.18-1.77,0,0,.14-4.6.07-7.43,14.51.92,18.33-6.23,19.74-9.27,4.18-8.21-.99-13.8-3.89-16.28ZM384.88,232.21s-7.94-1.56-8.93-5.73c.64-1.27,4.7-4.81,9.28-4.81l-.35,10.54ZM401.21,256c-2.69,3.12-8.42,2.61-8.42,2.61v-12.95c2.41,0,5.24,1.7,8.07,3.07,2.83,1.37,3.04,4.15.35,7.27Z"/><path class="cls-6" d="M371.93,222.22s2.11-5.12,5.59-5.66c-5.94,2.25-13.1,5.53-10.78,16.3,3.82,4.64,14.74,10.57,24.7,11.39,7.03,2.25,11.16,3.2,12.23,5.76.87,2.56-.45,5.99-1.45,5.99,1.91-1.18,4.91-6.5-.55-9.77-5.46-3.27-22.1-9.35-24.15-11.53-2.39-1.98-10.23-4.09-5.59-12.48Z"/><path class="cls-6" d="M397.53,238.81s11.76,3.4,13.5,9.92c.24,4.7-2.24,10.1-7.36,10.66-1.94.4-3.33.87-3.33.87l4.8-3.34s-4.77,2.86-6.67,3.02-14.14,2.94-23.2-.64c-2.46-1.35-5.87-3.81-6.43-4.13.87,1.35,4.76,4.13,5.64,5.09-1.59-.72-5.16-3.34-5.96-3.58s-3.89.73-2.94,1.96,4.61,7.42,16.61,8.29c1.19,0,2.69.32,2.69.32l.66,4.77h6v-6.28s11.93-.3,16.71-4.53c2.22-2.38,4.77-2.14,4.05-11.2-.72-2.38-3.09-9.46-14.77-11.2Z"/><path class="cls-6" d="M385.54,233.22h1.52v-12.4s.31-2.28-2.2-1.29-9.3,1.73-9.85,5.57c1.49-.78,5.13-4.47,10.53-4.9.3.67.56,12.2,0,13.03Z"/><rect class="cls-6" x="390.83" y="222.03" width=".71" height="12.14"/><polygon class="cls-6" points="390.83 244.6 390.83 259.42 391.54 259.42 391.54 245.66 390.83 244.6"/><rect class="cls-6" x="385.84" y="245.12" width="1.23" height="13.03"/><path class="cls-3" d="M384.3,207.6s.17-.67,3.89-.5c1.94.17,4.15.33,4.6.5s2.17,1.17,2.34,2.33,0,2.67,0,2.67c0,0-.79.64,3.17,1.61,2.94,1.11,8.61,3.43,10,6.49.28,3.01.17,5.8-.56,6.65.28-2.37.61-6.05-2.17-8.07s-9.01-4.85-10.86-5.07-1.19-4.33-1.19-4.33c0,0-2-3-9.22-2.28Z"/><path class="cls-3" d="M387.62,214.04s-4.01-.63-8.08.27c-4.07.9-8.74,3.02-11.34,6.52-1.2,1.68-5.51,7.88-3.29,11.93,1.45,3.31,7.55,7.44,12.83,9.05,5.61,1.61,8.65,1.49,8.65,1.49,0,0-11.65-2.21-15.37-6.33-3.89-3.72-7.62-4-4.17-12,1.01-1.28,3.06-5.94,10.56-9.05,2.28-.85,6.59-1.94,10.21-1.89Z"/><path class="cls-3" d="M372.74,229.77s7.82,5.92,17.41,6.5c7.58,1.47,9.99,2.3,10.72,2.53s12.09,4.88,11.57,13.56c-.36,4.06-.83,5.35-.83,5.35l2.24-3.93s.7-7.86-3.53-11.05c-4.22-3.19-11.38-5.24-17-7.52-.79.14-.51,0-.51,0,0,0-11.84-1.25-14.98-3.91-3.22-2.01-5.08-1.53-5.08-1.53Z"/><path class="cls-3" d="M364.82,252.72s3-2.4,4.75-1.83c.05-.26-.39-1.57-3.28-.52-1.98,1.34-1.48,2.35-1.48,2.35Z"/></g></svg>