<?xml version="1.0" encoding="UTF-8"?><svg id="Lager_2" xmlns="http://www.w3.org/2000/svg" viewBox="0 0 617.49 644.18"><defs><style>.cls-1{fill:none;}.cls-2{fill:#e7d24b;}.cls-3{fill:#363a3e;}.cls-4{fill:#85b55b;}.cls-5{fill:#97c454;}.cls-6{fill:#bbd271;}.cls-7{fill:#79a856;}.cls-8{fill:#a1b574;}.cls-9{fill:#d0c147;}.cls-10{fill:#fff;}.cls-11{fill:#b2ce67;}.cls-12{fill:#557a53;}.cls-13{fill:#354039;}.cls-14{fill:#6b9953;}.cls-15{fill:#c25559;}.cls-16{fill:#f2f2f2;}.cls-17{fill:#ececee;}.cls-18{fill:#b8a22b;}.cls-19{fill:#faf7f7;}.cls-20{fill:#fee658;}.cls-21{fill:#cbd990;}.cls-22{fill:#76bd79;}.cls-23{fill:#2e402f;}.cls-24{fill:#46602e;}.cls-25{fill:#2d4629;}.cls-26{fill:#92c057;}.cls-27{fill:#9cc558;}.cls-28{fill:#5d8c52;}</style></defs><g id="suit"><path class="cls-10" d="M430.61,245.07c0,16.68-18.98,36.26-44.98,36.26s-46.4-18.95-46.4-35.63,20.4-35.63,46.4-35.63,44.98,18.32,44.98,35Z"/><path class="cls-16" d="M388.28,214.36c18.4,2.58,49.78,14.58,33.26,50.44-8.93,11.31-55.72,33.64-82.7-12.04-.9-11.47,5.49-26.42,8.72-28.5,9.15-5.87,22.32-12.49,40.72-9.9Z"/><path class="cls-10" d="M316.5,247.51c0,16.49-20.22,35.86-47.93,35.86s-49.44-18.74-49.44-35.23,21.74-35.23,49.44-35.23,47.93,18.11,47.93,34.61Z"/><path class="cls-16" d="M272.81,217.21c18.66,2.58,48.89,11.49,33.73,51.44-4.86,5.54-57.26,35.8-84.62-9.88-.91-11.47-.38-26.06,9.59-30.65s22.64-13.49,41.3-10.9Z"/><path d="M279.42,205.25c17.01,1.57,36.69,15,40.1,32.49.88,4.51-1.33,3.6-1.94,6.25-1.32,5.77.6,8.48-2.53,15.48-8.18,18.3-31.97,26.2-50.76,25.37s-43.45-12.35-46.15-33.71c-2.21,1.28-10.45,1.45-10.48-2.03-.02-2.28,4.3-1.21,6-1.58,4.05-.89,5.35-8.38,6.89-11.7,16.33-35.19,85.24-33.96,96.61,5.43,2.07-3.5-1.82-10.9-3.88-14.12-10.21-15.95-26.3-19.21-43.67-20.79-.64-.06-3.21-.26-3.27-1.09,4.23.28,8.9-.39,13.07,0ZM264.49,213.55c-54.5,3.24-58.61,61.93-3.58,67.7,19.38,2.03,49.03-6.44,53.02-28.72,4.83-26.99-27.48-40.29-49.44-38.98Z"/><path d="M392.96,204.09c0,1.01-2.54.64-3.22.6-1.81-.1-3.42-.66-5.17-.63-18.5.33-43.35,12.39-46.73,32.3-.32,1.88.67,4.18-.92,5.46-2.63-2.09-1.96-3.58-1.13-6.35,5.1-17,20.91-29.56,38.37-31.9,6.54-.88,12.29-.01,18.8.52Z"/><path d="M307.59,277.27c-10.64,12.73-25.65,16.74-41.81,13.93-.14-1.01,1.32-.55,2.02-.57,10.6-.43,19.13-1.22,28.78-6.07l11.01-7.28Z"/><path d="M391.8,287.72c-.22,1.06-1.14,1.07-2.01,1.18-13.43,1.6-27.27.2-37.43-9.66-.62-.6-1.48-.83-1.21-1.98,11.46,8.9,26.28,12.44,40.65,10.46Z"/><path d="M431.91,237.76c-2.85-11.04-12.63-17.9-12.63-17.9,0,0-7.67-7.86-24.9-10.56-17.23-2.7-32.07,4.21-32.07,4.21,0,0-30.52,14.15-23.47,39.26,7.02,25,32.61,30.61,52.96,28.91,20.35-1.69,32.46-15.71,34.85-18.12s8.11-14.75,5.26-25.79ZM423.86,262.32c-2.23,2.25-13.53,15.32-32.5,16.9s-42.84-3.65-49.39-26.96c-6.58-23.41,21.89-36.61,21.89-36.61,0,0,13.84-6.45,29.91-3.93,16.07,2.52,23.22,9.85,23.22,9.85,0,0,9.12,6.4,11.78,16.7,2.66,10.29-2.67,21.8-4.9,24.05Z"/><ellipse class="cls-22" cx="264.87" cy="246.7" rx="31.75" ry="30.59"/><ellipse cx="264.87" cy="246.7" rx="25.75" ry="24.8"/><circle class="cls-10" cx="278.11" cy="228.74" r="12.15"/><ellipse class="cls-22" cx="385.55" cy="243.64" rx="31.75" ry="29.52"/><ellipse cx="385.55" cy="243.64" rx="25.4" ry="23.61"/><ellipse class="cls-10" cx="398.8" cy="226.3" rx="12.15" ry="11.73"/><ellipse class="cls-22" cx="264.87" cy="246.7" rx="31.75" ry="30.59"/><ellipse cx="264.87" cy="246.7" rx="25.75" ry="24.8"/><circle class="cls-10" cx="278.11" cy="228.74" r="12.15"/><ellipse class="cls-22" cx="385.55" cy="243.64" rx="31.75" ry="29.52"/><ellipse cx="385.55" cy="243.64" rx="25.4" ry="23.61"/><ellipse class="cls-10" cx="398.8" cy="226.3" rx="12.15" ry="11.73"/><path d="M394.83,496.88s23.02-10.41,28.74-9.31,13.6,3.46,16.84,5.28c3.3.65,6.07-2.22,5.83-5.7s1.39-15.5,1.39-15.5c0,0,.87-17.07-.22-20.9s1.76-12.55-6.49-31.36c-5.65-18.54-18.28-39.58-18.45-40.88s-6,1.29-6,1.29l4.08,36.87-26.54,43.4-5.88,29.08,6.69,7.72Z"/><polygon class="cls-9" points="304.36 390.94 258.77 403.07 238.98 450.33 250.66 476.84 279.37 447.09 303.71 403.07 304.36 390.94"/><path d="M151.21,435.44l-2.34,16.73-.83,10.77s22.82,2.33,29.5,6.54c4.61,3.08,6.88,5.42,6.88,5.42l3.79,19.08s45.68-10.3,60.59-1.62c1.33.64-2.38-39.78-2.38-39.78l-26.39-40.43-38.78-11.97-30.04,35.26Z"/><path class="cls-9" d="M256.29,529.29l7.25,22.64s28.48,6.13,37.59,3.98c2.58-.81.7-11.8.7-11.8l-27.45-21.33-22.28-20.71s4.11,24.83,4.19,27.22Z"/><path d="M226.3,221.33s15.48-10.73,27.04-13.72c11.56-2.99,23.59-6.79,33.53-8.6,9.94-1.8,50.18-8.28,56.89-7.36,6.71.93,31.05,1.61,42.33,6.39,9.16,3.88,17.78,9.82,20.33,13.06,2.55,3.24,14.43,15.97,15.54,18.29,1.11,2.31,10.59,22.69,10.59,22.69,0,0,9.44,23.59,5.28,42.35-2.61,11.76-15.87,24.62-15.87,24.62,0,0-16.31,19.59-26.91,24.46s-41.27,12.38-41.27,12.38c0,0-29.36,10.83-30.04,16.82-1.28,1.42-2.97,5.82-2.97,5.82l11.5-1.36,50.2-15.5,29.79-21.95,23.26-18.76,12.05-35.91-6.88-30.22-17.45-33.03-37.17-36.69-36.18-12.3-66.49,8.15-50.15,20.31-16.97,11-8.23,12.94-25.92,44.63,2.66,42.6,17.59,33.73,49.74,20.05,44.87,8.4,17.87,3.9-1.52-5.82s-11.7-9.93-19.9-11.91c-8.2-1.98-35.11-8.05-40.92-9.11s-28.24-7.26-34.77-14.39c-8.37-5.41-19.46-17.04-21.43-23.77-3.43-7.4-6.6-18.22-5.67-28,.92-9.77,5.54-31.2,10.42-36.27,4.88-5.07,5.98-12.48,25.22-27.92Z"/><path d="M186.45,359.14l87.45,2.88,34.99,12.6,3.81.23s1.65-2.27,6.25-2.12c4.6.15,5.09-.39,7.4,2.12l3.4.64,17.67-9.47,53.22-13.39,7.14,2.05.84,4.42-.23,4.23-32.1,27.47-37.75-5.4-18.64,6.04-15.56-.51-57.4-3.71-32.79-6.1-24.84-10.05-2.89-11.94Z"/><polygon points="310.77 557.84 324.39 557.84 330.48 450.33 325.78 425.18 337.75 412.16 336.11 386.28 331.5 385.41 306.82 387.58 297.01 417.33 305.34 427.68 310.77 557.84"/><path d="M424.09,385.8l-2.77-3.4c-.07-.19.07-.46,0-.65-1.44-3.8-1.71-3.16-3.27-5.63-.68-1.08.09-3.19-1.9-2.78-.08-.18.08-.46,0-.65-.66-1.57-.18-2.8-2.58-3.23-.09-.17.09-.48,0-.65-.2-.35-.56-.51-.65-.65-.1-.16.1-.49,0-.65-.5-.8-1.16-1.1-1.29-1.29-.1-.15.1-.51,0-.65l-2.58-4.23c-.67-.71-.62.34-.65.35-.4.07-1.12-.12-1.29,0l-.65-1.94c.44-.25.97-.45,1.29-.65,1.54-.95,2.93-1.48,3.48-3.37.48-1.67.28-3.77-1.54-3.75-.11-.84.07-1.74,0-2.59,1.3-1.15,2.63-2.2,3.88-3.23.24-.2.42-.46.65-.65s.41-.45.65-.65c1.77-.18,2.95-1.84,3.88-3.23.87-.74,1.7-1.09,1.94-1.29.57-.49.93-.98,1.29-1.29s.79-.84,1.29-1.29c2.84-.39,3.72-2.95,5.17-4.53,2.67-2.92,5.23-5.99,8.4-8.41.69-.53,2.44-.01,1.94-2.59.22-.21.43-.43.65-.65.49-.48.79-.74,1.29-1.29.11-.12-.11-.52,0-.65.42-.51.38,1.1,1.29-1.29.22-.57.46-.88.65-1.29,1.56.34,1.34-.79,1.82-1.7,9.74-18.36,8.76-37.71,2.26-57.04-1.36-4.03-3.69-10.19-6.66-13.06-.08-.18.08-.46,0-.65-.55-1.32-1.24-1.83-1.29-1.94-.08-.18.08-.47,0-.65l-5.64-12.76-5.09-6.88-.64-2.3-1.33-.97c-1.85-4.11-5.44-7.6-7.99-10.73-.18-.22-.45-.41-.65-.65-.51-2.1-1.66-4.63-3.88-5.17-.19-.23-.45-.41-.65-.65-.61-2.56-3.34-4.11-5.17-5.82-.22-.21-.42-.44-.65-.65-4.53-4.76-2.12-3.45.17-6.51,2.85-3.81,3.64-5.88,5-10.31.06-.2-.06-.45,0-.65,1.54.33,1.41-.71,1.78-1.75,4.49-12.57,3.38-26.57-.81-39.03-.35-1.04.12-2.29-1.61-1.92-.07-.19.07-.46,0-.65-.16-.43-.63-.59-.65-.65-.07-.19.08-.47,0-.65-.64-1.49-.99-3.04-2.58-3.88-.1-.16.1-.49,0-.65-.94-2.08-2.08-4.06-3.55-5.83-5.37-6.48-18.07-17.08-26.7-18-.99-.11-1.34.56-1.41.55-.41-.06-.88.05-1.29,0,.38-1.73-.87-1.31-2.02-1.5-7.93-1.28-16.87-.77-24.5,1.83-1.04.36-2.29-.12-1.91,1.61-.2.06-.45-.07-.65,0-.43.14-.6.63-.65.65-.19.07-.46-.07-.65,0-.36.13-.55.61-.65.65-.18.07-.45-.07-.65,0-1.23.4-2.05-.72-2.58,1.94-.19.08-.47-.08-.65,0-3.01,1.43-2.82,1.7-5.17,3.88-1.14,1.06-2.74,2.72-3.88,3.88-3.73,3.83-5.37,5.12-7.75,10.35-.08.18.08.47,0,.65-1.57-.34-1.34.8-1.82,1.7-1.09,2.02-5.03,8.96-3.35,10.59.45.44,1.89.84,2.58,1.29l.02.86c1.98.74.99,1.73,1.27,3.02.08.39-.08.9,0,1.29-3.23,1.95-2.13-1.78-2.76-3.07-.69-1.41-2.61-1.8-3.7-2.1-.19-.05-.43.04-.65,0,.34-1.66-.79-1.33-1.77-1.75-3.46-1.49-9.46-3.37-13.09-2.13-.43-.04-.87.03-1.29,0-9.96-3.48-21.38.9-31.67,1.3-.04.43.03.86,0,1.29-.83.01-1.68.16-2.48-.09-.29-2.05-1.51-2.45-2.69-3.79-16.96-19.34-36.23-30.61-62.68-20.7-3.68,1.38-7.04,3.06-10.34,5.17-26.09,16.76-26.21,47.63-15.51,73.74.22.54.51.96.65,1.29.14.35.43.75.65,1.29.55,1.38.38,2.43.65,3.23l-1.93-.65c-.69,1.69-1.73,4.31-2.6,5.82-27.78,48.54-42.89,101.2,8.4,139.72.21.16.39.46.65.65.23.18.81.28,1.29.65.6.46,1.03,1.15,1.94,1.29h.65v1.29c.59.23,1.19-.65,1.29-.64.88.02,1.14.61,1.29.65,1.18.59,1.56,1.25,1.29,2.59-2.53-.7-3.3-.62-5.17,1.29-.48.49-1.13.27-1.33,1.66-.41,1.04.5,1.69.68,2.23.07.21-.09.51,0,.65.16.25.41.47.65.65s1.17.66,1.29.65v1.29c-2.05-.52-1.23,1.58-1.98,2.73-5.08,7.72-8.66,13.87-12.79,22.27-1.08,2.2-2.03,5.98-3.17,7.82-.85,1.37-2.17,1.54-2.82,3.04-.61,1.42.03,3.05-.3,4.76-2.14,10.89-7.48,20.14-8.66,32.47-.02.21.02.43,0,.65h-1.29s0,3.89,0,3.89h-1.94c2.15-22.71,13.24-48.99,23.8-69.01.94-1.79,4.61-6.82,4.95-7.97.31-1.04-1.51-3.19-1.52-4.86,0-1.82,1.61-4.21,2.42-5.84-16.91-10.83-29.94-24.82-35.64-44.45-9.01-31.04,4.4-67.33,18.58-94.95,1.35-2.63,6.98-10.91,7.35-12.75.38-1.88-3.84-9.74-4.72-12.49-7.87-24.43-.91-53.72,21.28-67.91,28.04-17.92,61.89-7.84,78.99,19.45,16.54-3.15,33.06-5.16,49.29.62,4.96-16.85,18.13-31.98,35.41-36.69,10.71-2.92,19.8-2.53,30.2,1.1,36.75,12.82,49.04,57.04,26.91,88.32,11.82,13.06,22.23,27.57,30.38,43.22,12.75,24.48,22.02,51.56,9.49,78.29-6.84,14.58-22.76,26.07-34.51,36.65-.58.92.56,3.64.33,5.43s-2.37,4.17-2.37,4.58c0,1,9.1,14.58,10.49,17.13"/><path class="cls-3" d="M150.56,441.91c.06-.55,0-1.12.65-1.29-.04.55-.02,1.11-.65,1.29Z"/><path class="cls-7" d="M181.58,214.21c-.41.95-1.06,1.46-1.94,1.94-1.75.95-3.5.94-4.8,3.28-5.48,9.94-8.94,35.26-9.45,46.82-2.79,62.95,38.07,85.19,92.94,97.19,17.83,3.9,37.23,4,51.83,16.36-.15.55.38,1.76-.31,1.93-16.24-8.46-33.65-5.77-51.09-6.43-23.15-.89-45.15-6.27-67.5-11.67-2.35-.57-4.75-1.36-7.11-1.94v-1.29c.43-.06,1.25-1.09,2.28-1.27,4.66-.78,17.68,5.26,23.86,5.82,1.91.17,4.73.61,5.24-1.34l2.22.66c-.36-.51-1.82-2.2-2.09-2.4-.18-.13-.72.37-.97.24-1.34-.64-.82-.5-2.75-1.08-.98-1.93-3.33-2.69-5.19-3.54-5.68-2.58-13.94-5.21-20.01-6.81-.16-.04-.41-.62-1.29-.65l-1.29-.65h-.65l-1.94-1.29c-.48-.37-1.06-.47-1.29-.65l-.65-.65c-51.29-38.52-36.18-91.18-8.4-139.72,4.05,1.49,6.4,5.33,10.34,7.12Z"/><path class="cls-7" d="M153.05,447.09c.35-4.01.74-4.49,1.14-8.47l.25-3.17c.02-.21-.02-.43,0-.65l6.29-21.84c5.53-14.9,11.41-32.96,20.26-46.21,3.03-4.53,5.84-2.9,10.28-1.81,14.89,3.65,28.87,8.78,44.36,10.9,17.12,2.35,33.6.79,50.3,2.04,3.83.29,23.15,4.17,24.56,7.1.95,3.49-.79,7.82-2.26,11,.19-7.23.15-10.72-7.12-13.25-19.18-6.66-42.05,3.8-61.13,5.4-5.35.45-11.01-.16-16.39.09,2.18,8.53,3.25,17.37,2.61,26.22-.67,9.23-3.99,16.5-3.28,26.52.29,4.18,2.34,8.81,2.57,12.36.2,3.03-1.71,6.33.68,9.29-.78,8.29,3.51,12.52,1.46,21.02.04-4.07-1.39,1.86-1.42.92-.07-1.94-.7,0-.75-.21-.2-.87-.38-.81-.58-1.68-.07-.31-.63-.55-.65-.65-.09-.39.08-.9,0-1.29-2.72-12.7-3.04-20.58-3.88-33.31-.38-5.76-3.01-15.28-.96-20.38,2.99-7.44,5.99-8,4.2-17.47-.92-4.85-.22-10.09-.66-15.19-.09-1.05-.73-5.51-1.24-5.88l-10.59-2.74c-5.33,15.78-9.42,35.67-11.75,52.27-1.46,10.36-5.6,19.59.63,28.34,3.65,5.12-2.09,6.1,3.25,6.55-.09,5.22-9.25,2.88-6.15,5.22-6.45-.04,4.54.19-1.25,3.68-2.84,1.72-3.58,2.81-4.23,6.13-.24,1.25-4.27-2.4-2.27-2.7-4.52-19.08-5.82-12.7-16.48-19.08-13.58-4.7-18.58-5.22-20.48-5.48"/><path class="cls-23" d="M322.45,549.94c.03-.65-.02-1.3,0-1.94.1-3.01-.06-6.05,0-9.06.02-1.08,0-2.16,0-3.23,0-.43,0-.86,0-1.29,0-.65,0-1.29,0-1.94,0-.1.61-.45.61-.97s-.6-.86-.61-.97c0-.43.01-.86,0-1.29,0-.38.05-.52,0-1.29-.03-.43.05-.87,0-1.29,1.2-2.67.64-6.63.65-9.7,0-1.51.03-3.02,0-4.53,0-.43.01-.86,0-1.29,0-.22.01-.43,0-.65,1.19-4.35.64-9.65.65-14.23,0-.86,0-1.72,0-2.59,0-.43,0-.86,0-1.29,0-1.51,0-3.02,0-4.53,0-.43,0-.86,0-1.29,0-1.29,0-2.59,0-3.88,0-13.36.02-26.75,0-40.11,0-2.37.02-4.75,0-7.12,0-.43.01-.86,0-1.29-.02-1.04.39-2.69-.65-3.23.02-.43-.02-.86,0-1.29.12-2.64.51-4.94,0-7.77l-7.75-.64c-.03,1.93.03,3.89,0,5.82-.02,1.29,0,2.59,0,3.88.01,2.24-.54,5.41.65,7.12-.02.65.02,1.3,0,1.94-.02.43,0,.86,0,1.29-.02,1.5-.04,3.03,0,4.53.13,4.55.12,8.01,0,12.29-.04,1.5.02,3.02,0,4.53,0,.65,0,1.29,0,1.94-.01,1.29,0,2.59,0,3.88.01,2.24.46,4.22.52,6.15.05,1.84-1.96,5.02.78,5.82-2.3,1.93-.98,5.39-1.29,8.09-.07.63.04,1.3,0,1.94-.18,2.99.11,6.06,0,9.06-.05,1.5.05,3.02,0,4.53,0,.22,0,.43,0,.65-.06,1.72.07,3.46,0,5.17,0,.12-.62.71-.65,1.29-.06,1.72.05,3.46,0,5.17-.03,1.08.03,2.16,0,3.23-.04,1.51.04,3.02,0,4.53-.02.74-.64,1.59-.65,1.94-.01.43,0,.86,0,1.29-.03,1.51.01,3.02,0,4.53-.01,1.51-.02,3.02,0,4.53.07,4.89.11,9.1,0,13.58-.04,1.72.08,3.46,0,5.17M353.8,355.88v.65c.42-.22.42-.43,0-.65ZM324.39,392.75c3.33-2.19,2.43-2.95,2.58-6.47.25-5.54.4-10.38-6.29-11.48-8.78-1.45-8.65,6.54-7.12,12.94,1.34,5.58,5.7,8.39,10.82,5.02ZM309.53,408.28c.66,6.07,4.36,11.15,10.76,11.6,2.75.19,7.97-1.4,8.31-4.47-1.14,1.78-2.74.62-2.92.63,2.92-2.18,4.23-3.55,5.17-7.12,1.51-5.7-.56-11.46-2.91-16.82-3.25,6.43-12.97,6.17-15.51-.66-1.68,5.41-3.54,11.04-2.91,16.83Z"/><path class="cls-7" d="M442.65,317.07c-.19.41-.43.72-.65,1.29h-1.29s0,1.29,0,1.29c-.11.13.11.53,0,.65l-1.29,1.29c-.22.21-.43.43-.65.65-.76.74-2.04.96-1.94,2.59-3.17,2.42-5.73,5.49-8.4,8.41-2.14,1.06-3.44,2.96-5.17,4.53-.5.45-.93.98-1.29,1.29l-1.29,1.29c-.24.2-1.07.55-1.94,1.29-1.27,1.08-2.59,2.16-3.88,3.23-.23.19-.42.45-.65.65l-.65.65c-1.24,1.04-2.57,2.08-3.88,3.23-1.22,1.07-3.56,1.61-3.88,3.55,1.45.54,1.91-.94,3.88-.96.52,4.06,1.81,4.09-1.94,7.12-.33.2-.85.4-1.29.65-.56.31-1.91.97-2.58,1.29-.43.21-.87.46-1.29.65-23.61,10.67-45.8,7.81-68.02,16.32-1.47.56-5.06,1.63-5.01,3.08-1.11.23-.44-.79-.64-1.29,1.44-4.65,6.93-7.79,11.19-9.82,13.59-6.46,29.95-8.16,44.17-14,22.81-9.38,57.44-36.56,61.6-62.21.86-.28,2.13-.15,2.58-1.14.8-1.76,1.06-12.93.65-15.04h.65c1.67,16.96-.15,24.24-7.11,39.46ZM405.17,353.29l-8.4,5.51c-.93-.11-1.97,1.02-1.28,1.6.52.44,7.7-3.91,8.63-4.62,1.08-.83,1.27-1,1.06-2.49Z"/><path class="cls-6" d="M375.44,170.87c11.4,6.61,22.11,15.57,31.66,24.58.22.21.42.44.65.65,1.58,2.07,3.49,3.84,5.17,5.82.2.23.45.42.65.65,1.25,1.48,2.6,3.63,3.88,5.17.2.24.46.42.65.65l20.68,33.64c.08.18-.08.47,0,.65l1.29,1.94c.08.18-.08.46,0,.65,4.75,11.52,8.44,19.65,9.69,32.34h-.65c-.24-1.24-2-5.9-2.58-7.76-5.17-16.49-20.59-46.76-31.68-59.82-11.15-13.13-33.9-28.76-48.91-37.72-13.24-7.91-27.91-13.64-41.23-21.48-.34,2.41-.32,4.01-.97,6.46.56-3.16-.73-6.08-1.29-9.06-.08-.4.08-.91,0-1.29l31.46,13.47c6.78,3.62,14.95,6.65,21.53,10.46Z"/><path class="cls-7" d="M189.34,122.36c-.99,2.85-3.93,3.09-3.88,5.82,0,.43,0,.86,0,1.29-4.38,3.04-9.87,16.59-10.99,21.99-2.68,13.03-1.04,29.59,5.68,41.21,2.57,4.44,9.98,11.03,10.47,15.39.25,2.23-.17,4.75.03,7.03-.16.79-1,.29-1.32.41-.95-.78-1.71-1.72-2.58-2.59-.81-.81-1.75-1.85-2.58-2.59-.22-.2-.42-.44-.65-.65l-8.4-11c-.22-.54-.5-.94-.65-1.29l-.65-1.29c-10.7-26.12-10.58-56.98,15.51-73.74Z"/><path d="M382.55,114.6c4.82,1.35,12.56,5.6,16.16,9.06,3.45,3.31,7.3,9.78,9.05,14.23,6.33,16.14,3.11,33.72-10.33,44.98l4.85,4.84c.68.56,1.44.97,2.25,1.29.13.05.3.79.86.6,1.17-.28,5.83-8.67,6.25-10.3l.65-.65c-1.36,4.43-2.16,6.5-5,10.31-2.29,3.06-4.69,1.75-.17,6.51-9.55-9.01-20.26-17.98-31.66-24.58.61.4,3.66.38,4.52.65,2.51.79,4.13,2.19,6.46,3.23,1.23,1.65,7.54,6.67,9.01,6.17,5.15-1.74,10.84-13.4,12-18.46,8.29-36.42-36.02-64.8-57.84-33.64-4.3,6.14-7.97,15.9-6.47,23.62.42,2.17,6.41,3.28,8.41,4.2,1.51.69,3.15,1.97,4.52,2.59,3.39,1.52,7.13,2.53,10.34,4.53,1.79,3.44,5.23,4.01,8.6,5.81.58.31.39,1.27.44,1.31-6.59-3.82-14.75-6.84-21.53-10.46l-31.46-13.47c-.28-1.29.71-2.28-1.27-3.02l-.02-.86c5.19,3.41,9.69,5.6,15.51,7.76.75.28,3.56,1.64,3.87,1.29-2.09-23.6,18.03-44.24,42.01-37.52Z"/><path class="cls-6" d="M408.4,361.7c.87,1.31,2.4,2.73,3.23,3.88.1.14-.1.5,0,.65l1.29,1.29c.1.15-.1.49,0,.65l.65.65c.09.16-.09.48,0,.65.69,1.27,1.09,2.64,2.58,3.23.08.18-.08.47,0,.65,1.33,2.92,2.73,6.24,5.17,8.41.07.19-.07.46,0,.65,4.43,11.29,11.55,21.64,14.22,33.64l-5.17.65c-6.49-12.3-20.63-36.84-31.24-44.74-.95-.71-1.72-1.09-1.72-2.48.62-.34,5.22-3.59,5.67-4.04.29-.28.18-.77.15-1.13,2.43-1.02,2.44-1.62,3.88-2.59.18-.12.89.07,1.29,0Z"/><path class="cls-11" d="M262.36,137.88c.77,3.07,2.75,5.44,3.88,8.41,1.14,2.99,1.29,5.59,1.94,8.41.33,2.8-2.14-.91-1.98,1.89l-1.55-.62c-3.63-11.53-9.94-21.04-19.79-28.06-14.1-10.03-28.68-11.82-44.98-5.68-4.43,1.67-5.06,3.28-9.89,3.36,2.39-2.84,5.89-4.3,8.85-6.35.98-.68,2.01-.66.85-2.06,26.46-9.91,45.72,1.36,62.68,20.7Z"/><path class="cls-18" d="M301.8,557.84c.22-5.62-.56-3.37-.67-9.2-.1-4.78-.78-9.45-.65-14.23.62-22.46,3.09-42.52,2.61-65.68-.35-17-.48-34,0-51.1l-1.32-20.35c.12,0,.29-.44.52-.44.37,0,.56.15.78.44.06,4.99.93,9.9,1.29,14.88.14,1.9.58,4.45.65,5.82.88,19.2-.4,39.12,0,58.54.43,20.63-1.78,39.06-1.95,59.2-.04,4.54.61,15.09.65,19.4"/><path class="cls-7" d="M347.01,110.07c-1.07,1.14-1.78,1.89-3.23,3.23-3.6,3.35-6.03,5.47-8.51,9.92-4.22,7.56-6.74,16.15-1.69,23.91.97,1.49,3.05,1.56,3.09,3.69-5.82-2.16-10.32-4.35-15.51-7.76-.7-.46-2.13-.85-2.58-1.29,1.5-4.17,3.33-8.27,5.17-12.29.08-.18-.08-.47,0-.65l7.75-10.35c1.14-1.17,2.74-2.83,3.88-3.88.94-.83,2.23-1.27,3.23-1.94.39,1.3,1.94,0,2.59-.32,1.87-.91,3.61-2.24,5.81-2.27Z"/><path class="cls-28" d="M188.04,353.29c8,2.2,15.94,5.37,23.91,7.76,1.93.58,1.41.43,2.75,1.08.25.12.79-.38.97-.24.27.19,1.73,1.88,2.09,2.4l-2.22-.66c-.52,1.95-3.33,1.51-5.24,1.34-6.18-.56-19.2-6.6-23.86-5.82-1.03.17-1.85,1.21-2.28,1.27-.12.02-1.07-.48-1.29-.65l-.65-.65c-.09-.14.07-.44,0-.65l.65-3.88c1.87-1.92,2.64-1.99,5.17-1.29Z"/><path class="cls-6" d="M375.44,105.54c.42.05.88-.06,1.29,0,7.37,2.39,14.46,5.45,20.03,11,1.06,1.05,2.09,3.35,2.58,3.88-2.79-.09-3.91-2.92-5.87-4.15-1.6-1-7.05-3.5-8.99-4.26-1.14-.45-3.93-1.78-4.52-1.94-.13-1.32.73-2.07-.88-2.69-4.59-1.75-13.28-2.19-18.21-1.87-3.34.21-11.82,2.37-13.86,4.56-2.2.03-3.94,1.37-5.81,2.27-.66.32-2.21,1.61-2.59.32.82-.55,1.56-.94,1.94-1.94.17-.08.46.08.65,0,1.02-.42,2.09-.83,2.58-1.94.2-.07.47.07.65,0l.65-.65c.19-.07.45.07.65,0l.65-.65c.19-.07.45.06.65,0,2.77-.88,9.48-3.23,11.95-3.23h10.34c1.15,0,4.57,1.1,6.14,1.29Z"/><path d="M184.17,361.7c2.36.58,4.76,1.37,7.11,1.94v1.29c-4.44-1.09-7.26-2.72-10.28,1.81-8.85,13.25-14.73,31.3-20.26,46.21l-6.29,21.84c1.18-12.33,6.51-21.58,8.66-32.47.34-1.71-.31-3.34.3-4.76.65-1.51,1.97-1.68,2.82-3.04,1.15-1.84,2.09-5.62,3.17-7.82,4.13-8.4,7.71-14.55,12.79-22.27.76-1.15-.06-3.25,1.98-2.73Z"/><path class="cls-28" d="M175.76,201.92c1.26,3.75,5.22,5.49,7.75,7.76.23.2.42.45.65.65l2.08,3.12.51-.53c.87.87,1.64,1.81,2.58,2.59-1.86.71-3.37-.25-5.82-.65-.1-.28-.36-.59-.65-.65-.4-.08-1.03.12-1.29,0-3.94-1.78-6.29-5.63-10.34-7.12.87-1.51,1.9-4.13,2.6-5.82l1.93.65Z"/><path class="cls-13" d="M440.07,245.26c2.97,2.87,5.31,9.03,6.66,13.06,6.5,19.33,7.48,38.68-2.26,57.04-.48.91-.26,2.05-1.82,1.7,6.95-15.22,8.78-22.5,7.11-39.46-1.25-12.7-4.95-20.82-9.69-32.34Z"/><path class="cls-21" d="M299.19,139.18c.43.03.87-.04,1.29,0,4.28.36,8.95,1.62,12.92,3.23-.06-.01-.42.57-1.27.38-3.74-.81-8.55-3.6-12.3-1.68-6.08-.9-12.09-.04-18.09-.65l-1.29.65c-3.39-.29-9.53,1.69-12.92,2.59-.04-.63-.04-1.31,0-1.94,10.34-.15,19.94-3.32,31.66-2.59Z"/><path class="cls-21" d="M408.4,128.83c.1.15-.1.49,0,.65.81,1.33,1.32,2.86,2.58,3.88.08.18-.07.46,0,.65l.65.65c.07.19-.07.46,0,.65,5.9,16.69,5.75,25.95.65,42.69-.06.2.06.45,0,.65l-.65.65c2.63-10.36,4.48-20.52,2.41-31.85-2.01-10.98-5.72-17.57-12.75-25.73-.95-1.1-1.84-1.19-1.94-1.29-.5-.53-1.53-2.83-2.58-3.88,4.67,2.81,8.74,7.67,11.63,12.29Z"/><path d="M211.95,361.05c-7.97-2.39-15.91-5.57-23.91-7.76.27-1.34-.12-2-1.29-2.59,6.07,1.6,14.33,4.23,20.01,6.81,1.86.85,4.21,1.61,5.19,3.54Z"/><path class="cls-13" d="M411.63,135.3c1.72-.37,1.26.87,1.61,1.92,4.2,12.46,5.3,26.46.81,39.03-.37,1.03-.23,2.07-1.78,1.75,5.11-16.74,5.25-26-.65-42.69Z"/><path class="cls-6" d="M313.41,142.41c.57.13,1.19.52,1.94.65.22.04.46-.05.65,0,3.25,1.99,2.04,3.75,3.23,6.47-4.55-5.24-12.61-7.41-19.39-8.41,3.76-1.93,8.56.86,12.3,1.68.85.18,1.2-.4,1.27-.38Z"/><path class="cls-4" d="M199.67,117.18c1.16,1.41.14,1.38-.85,2.06-2.95,2.05-6.45,3.51-8.85,6.35-1.61.03-3.1,1.93-4.52,2.59-.05-2.73,2.89-2.97,3.88-5.82,3.3-2.12,6.66-3.8,10.34-5.17Z"/><path d="M262.36,137.88c1.17,1.34,2.4,1.74,2.69,3.79.8.25,1.66.1,2.48.09.03-.43-.05-.86,0-1.29,10.28-.4,21.71-4.78,31.67-1.3-11.72-.74-21.32,2.44-31.66,2.59-.04.63-.04,1.31,0,1.94s-.09,1.35,0,1.94l-1.29.65c-1.13-2.97-3.11-5.34-3.88-8.41Z"/><path d="M347.01,107.48c-.37-1.73.87-1.25,1.91-1.61,7.62-2.6,16.57-3.1,24.5-1.83,1.15.19,2.41-.24,2.02,1.5-1.57-.2-4.99-1.29-6.14-1.29h-10.34c-2.47,0-9.19,2.36-11.95,3.23Z"/><path d="M315.99,143.06c1.09.31,3.01.7,3.7,2.1.63,1.29-.47,5.02,2.76,3.07.56,2.98,1.85,5.89,1.29,9.06-.11.41.28,2.03-.65.97-.21-3.44-2.69-6.02-3.88-8.73-1.19-2.72.02-4.48-3.23-6.47Z"/><path class="cls-25" d="M183.52,209.69c-2.54-2.28-6.5-4.01-7.75-7.76-.27-.8-.1-1.86-.65-3.23l8.4,11Z"/><path d="M376.74,105.54c.07.01.42-.65,1.41-.55,8.64.93,21.33,11.52,26.7,18,1.46,1.77,2.6,3.75,3.55,5.83-2.89-4.62-6.96-9.49-11.63-12.29-5.57-5.55-12.67-8.6-20.03-11Z"/><path d="M300.48,139.18c3.64-1.24,9.63.64,13.09,2.13.98.42,2.11.1,1.77,1.75-.75-.13-1.36-.52-1.94-.65-3.97-1.62-8.65-2.87-12.92-3.23Z"/><path d="M323.75,129.47c-1.84,4.02-3.67,8.12-5.17,12.29-1.68-1.63,2.26-8.57,3.35-10.59.49-.9.25-2.05,1.82-1.7Z"/><path class="cls-13" d="M418.09,208.39c2.55,3.13,6.14,6.62,7.99,10.73l1.33.97.64,2.3,5.09,6.88,5.64,12.76-20.68-33.64Z"/><path d="M409.69,352c1.82-.02,2.02,2.08,1.54,3.75-.54,1.89-1.94,2.42-3.48,3.37,3.75-3.03,2.45-3.06,1.94-7.12-1.97.02-2.43,1.51-3.88.96.32-1.94,2.67-2.48,3.88-3.55.07.85-.11,1.75,0,2.59Z"/><path d="M416.16,373.34c1.99-.41,1.22,1.7,1.9,2.78,1.56,2.47,1.83,1.83,3.27,5.63-2.44-2.17-3.84-5.49-5.17-8.41Z"/><path class="cls-13" d="M331.5,118.48l-7.75,10.35c2.39-5.23,4.02-6.52,7.75-10.35Z"/><path class="cls-13" d="M436.83,324.83c-.1-1.63,1.18-1.85,1.94-2.59.5,2.57-1.24,2.06-1.94,2.59Z"/><path d="M413.57,369.46c2.41.44,1.92,1.66,2.58,3.23-1.5-.6-1.9-1.96-2.58-3.23Z"/><path d="M338.61,112.66c-1,.67-2.29,1.11-3.23,1.94,2.35-2.18,2.16-2.45,5.17-3.88-.37,1-1.12,1.39-1.94,1.94Z"/><path d="M343.78,108.77c-.49,1.11-1.56,1.52-2.58,1.94.53-2.66,1.35-1.54,2.58-1.94Z"/><path d="M182.23,358.47c-.19-.54-1.1-1.18-.68-2.23.2-1.39.85-1.16,1.33-1.66l-.65,3.88Z"/><path class="cls-23" d="M185.46,350.06c-.11,0-.7.87-1.29.64v-1.29s1.29.65,1.29.65Z"/><path class="cls-13" d="M442,318.36c-.91,2.39-.87.78-1.29,1.29v-1.29s1.29,0,1.29,0Z"/><path class="cls-23" d="M428.43,333.24c-1.45,1.58-2.33,4.14-5.17,4.53,1.73-1.57,3.03-3.47,5.17-4.53Z"/><path class="cls-13" d="M413.57,202.57c2.22.55,3.37,3.07,3.88,5.17-1.28-1.55-2.63-3.7-3.88-5.17Z"/><path class="cls-13" d="M383.2,555.11c-.02-.43.04-.87,0-1.29h.65c-.04.55-.02,1.12-.65,1.29Z"/><path class="cls-13" d="M412.92,201.92c-1.68-1.98-3.59-3.76-5.17-5.82,1.83,1.71,4.56,3.26,5.17,5.82Z"/><path class="cls-25" d="M174.47,197.4c-.14-.34-.43-.76-.65-1.29l.65,1.29Z"/><path class="cls-13" d="M410.99,133.36c-1.26-1.02-1.78-2.55-2.58-3.88,1.6.85,1.95,2.39,2.58,3.88Z"/><path class="cls-23" d="M183.52,349.41c-.91-.15-1.34-.84-1.94-1.29l1.94,1.29Z"/><path class="cls-23" d="M414.86,344.88c1.29-1.07,2.6-2.15,3.88-3.23-.93,1.39-2.11,3.06-3.88,3.23Z"/><path class="cls-23" d="M411.63,365.58c-.84-1.16-2.36-2.57-3.23-3.88.04,0-.01-1.06.65-.35l2.58,4.23Z"/><path class="cls-13" d="M440.07,244.62l-1.29-1.94c.05.11.74.62,1.29,1.94Z"/><path class="cls-23" d="M420.68,340.35l1.29-1.29c-.36.32-.73.81-1.29,1.29Z"/><path class="cls-13" d="M411.63,134.65l-.65-.65c.02.05.49.22.65.65Z"/><path class="cls-13" d="M439.42,321.59l1.29-1.29c-.5.55-.8.82-1.29,1.29Z"/><path class="cls-23" d="M413.57,368.82l-.65-.65c.08.14.45.29.65.65Z"/><path class="cls-23" d="M412.92,367.52l-1.29-1.29c.13.19.79.5,1.29,1.29Z"/><path class="cls-23" d="M182.87,359.76c-.24-.18-.49-.4-.65-.65l.65.65Z"/><path class="cls-13" d="M344.43,108.77c.1-.04.29-.51.65-.65l-.65.65Z"/><path class="cls-23" d="M180.29,347.47c-.25-.19-.43-.49-.65-.65l.65.65Z"/><path class="cls-23" d="M413.57,346.18l.65-.65c-.23.19-.41.45-.65.65Z"/><path class="cls-13" d="M345.72,108.13s.22-.5.65-.65l-.65.65Z"/><path class="cls-5" d="M249.18,412.88c-1.02,5.46-2.23,11.88-5.81,16.17-1.07-7.12-2.85-15.69-5.91-22.23-.23-.49-1.03-2.7-1.86-2.02,2.83,8.93,5.13,17.93,6.38,27.25,1.88,14.02,3.75,26.77,4.83,41.34.26,3.49,1.07,8.12,1.72,11.3.08.39-.07.89,0,1.29-1.25,1.09-1.48-.14-2.26-.62-4.07-2.49-11.31-7.79-16.15-7.79h-10.99c-1.07,0-4.49-.51-6.14-.65-5.35-.45-8.91.55-12.56-4.57-6.23-8.75-3.67-27.99-2.21-38.35,2.34-16.6,7.55-32.45,12.88-48.23l36.19,6.05c.51.37,1.15,4.83,1.24,5.88.44,5.1-.26,10.34.66,15.19Z"/><path class="cls-26" d="M249.71,485.33l.93,2.59h-2.87c-13.39-4.67-44.84-3.76-57.72,2.17-2,.29,2.47-6.51,2.71-7.76.64-3.32,2.96-4.56,5.8-6.28,5.79-3.5,23.37,1.47,29.82,1.51,6.79.04,14.99,5.53,21.32,7.76Z"/><path class="cls-14" d="M250.18,483.96c.03.21.45,1.26.47,1.47v.99c-.14.9.63,1.38-.95,1.07-2.58-2.52-4.2-5.93-8.01-6.5l6.46,6.47h-.65c-6.34-2.23-14.53-7.72-21.32-7.76-3.1-2.34-10.84,1.34-10.74-3.88,1.65.14,6.11,0,7.19,0h10.99c4.85,0,12.08,5.3,16.15,7.79.78.48-.83,1.46.42.36Z"/><path class="cls-25" d="M224.88,482.67l-.65-.65c.02.09.58.33.65.65Z"/><path class="cls-25" d="M222.94,483.96v-.65c.04.39.08.14,0,.65Z"/><path class="cls-26" d="M250.08,185.11c.62,2.76,2.81,3.65,1.27,6.75l2.61,1.01c-2.89,1.38-6.17,3.64-9.05,5.17-8.26,4.4-16.52,8.73-24.11,14.35-1.04.77-3.25,1.66-3.02,3.11,4.74-1.82,8.74-5.41,13.13-7.87,4.81-2.69,10.5-6.04,15.3-8.3,1.79-.84,5.04-1.69,7.11-2.59.52,2.32,2.83,3.92,2.59,6.46-1.56.17-3.74.3-4.52,1.95-.2.06-.45-.06-.65,0-1.64.52-2.44,1.25-2.58,1.29-.2.06-.45-.06-.65,0-1.22.39-4.87,1.9-5.5,1.9-1.34,0-3.04-1.85-4.84-1.25.06,2.73-.49,4.22-2.59,5.82h-.65l-1.29.65c-33.38,21.93-49.71,52.05-43.3,92.5,2.65,16.73,12,31.97,27.14,40.11.1,1.33,5.69,2.89,7.11,2.58-.18-1.8-2.01-3.74,1.29-3.23,5.08,2.55,13.67,5.37,19.25,6.93,22.94,6.41,49.58,4.86,68.36,21.53l.22.86c-1.01,1.8-1.97,2.86-2.52,4.96-14.6-12.36-34-12.46-51.83-16.36-54.88-12-95.73-34.24-92.94-97.19.51-11.56,3.96-36.89,9.45-46.82,1.29-2.34,3.05-2.33,4.8-3.28-.2,1.97,2.15,1.35,3.6,2.57.59.5.75,1.84,1.38,1.99,1.29.3,3.43-.67,5.01-.71,5.86-.15,11.33,0,17.15-1.27,1.49-1.39-9.07-6.99-10.01-7.76-6.97-5.7-5.37-8.18-.32-14.88,12.36,7.92,30.93,7.29,43.24-.38,3.06-1.91,7.28-4.77,7.81-8.68.68-.63,2.04-1.32,2.58-1.94ZM217.12,215.51h-1.29s-.33,1.92-.33,1.92l1.62-.64v-1.29ZM214.53,217.45h-1.29v1.29h1.29v-1.29ZM212.6,218.75h-1.29v1.29h1.29v-1.29ZM210.66,220.04h-.96s-.98,1.28-.98,1.28h1.94s0-1.28,0-1.28Z"/><path class="cls-4" d="M174.47,151.47c2.05-.54,2.07,3.44,2.64,3.85l3.18.03c-.65,4.38.04,10.62,1.29,14.88-.02,2.77-2.5-.42-1.9,3.51,1.03,6.81,10.96,18.64,16.76,22.36-5.05,6.7-6.65,9.18.32,14.88.94.77,11.5,6.37,10.01,7.76-5.81,1.27-11.29,1.12-17.15,1.27-1.58.04-3.73,1.01-5.01.71-.63-.15-.79-1.49-1.38-1.99-1.44-1.23-3.8-.61-3.6-2.57.88-.48,1.53-.99,1.94-1.94.26.12.89-.08,1.29,0,.08.31.35.6.65.65,2.44.4,3.95,1.36,5.82.65.32-.12,1.15.38,1.32-.41-.2-2.28.23-4.8-.03-7.03-.5-4.36-7.91-10.95-10.47-15.39-6.72-11.62-8.36-28.19-5.68-41.21Z"/><path class="cls-26" d="M308.24,395.98c0,.22,0,.43,0,.65-13.96-4-32.54,1.72-41.99,12.29-11.31,12.66-16.76,30.55-18.76,51.76-2.4-2.96-21.81-4.33-22-7.36-.23-3.55-2.28-8.18-2.57-12.36-.7-10.02,2.61-17.3,3.28-26.52.64-8.84-.43-17.69-2.61-26.22,5.38-.25,11.04.36,16.39-.09,19.09-1.6,41.96-12.06,61.13-5.4,7.27,2.53,7.31,6.01,7.12,13.25Z"/><path class="cls-20" d="M396.12,472.32c-1.58-.31-1.43.7-1.74,1.79-2.29,8.25-3.8,15.06-7.4,23.02-10.04,22.18-27.22,35.93-51.61,39.23,1.41-42.02.68-85.57-1.29-127.43-.12-2.61-.71-5.37-.65-7.76.02-.84,1.35-3.5.64-5.18,32.81-.14,57.52,32.13,61.31,62.51.58,4.67.61,9.15.73,13.82Z"/><path class="cls-27" d="M189.98,125.59c4.84-.08,5.46-1.68,9.89-3.36,16.3-6.15,30.88-4.36,44.98,5.68,9.85,7.01,16.16,16.53,19.79,28.06l1.55.62c-.16-2.8,2.31.91,1.98-1.89.04.19.74,1.51,1.29,1.29-.03-2.82-.5-5.68-.91-8.48-.12-.82-.98-1.62-1.02-1.86-.09-.59.04-1.31,0-1.94,3.4-.9,9.53-2.88,12.92-2.59.08,0,.62.9,1.29.64v-1.29c6.01.6,12.02-.25,18.1.65,6.77,1,14.83,3.17,19.39,8.41,1.19,2.71,3.67,5.29,3.88,8.73.92,1.06.54-.56.65-.97.65-2.46.63-4.05.97-6.46,13.31,7.83,27.99,13.57,41.23,21.48,15.01,8.96,37.75,24.6,48.91,37.72,11.09,13.05,26.51,43.32,31.68,59.82l.03,18.46c-.45,1.76-.4,3.78-.67,5.47-4.16,25.65-38.79,52.84-61.6,62.21-14.22,5.85-30.58,7.55-44.17,14-4.26,2.02-9.75,5.17-11.19,9.82-.83-2.11-2.11-3.77-2.95-5.82,15.83-17.11,42.37-16.43,63.03-24.92,20.44-8.4,48.66-35.85,52.29-58.27,2.71-16.71-7.02-42.79-14.23-58.07-.44-.93-.81-1.91-1.86-2.34-.05-.21.06-.46,0-.65-.86-2.79-4.95-8.37-7.11-10.35-1.67-2.9-2.62-3.09-4.52-5.17-23.09-25.19-49.64-26.19-82.39-23.93-27.47,1.9-53.61,6.81-79.81,14.87.78-1.65,2.96-1.78,4.52-1.95.25-2.54-2.07-4.14-2.59-6.46,9.18-3.98,18.61-7.56,28.29-10.17,30.3-8.15,64.53-6.83,95.13-.83.46-1.67-3.22-2.08-4.38-2.4-12.38-3.46-27.01-4.62-39.89-5.35-30.42-1.73-51.15,1.83-78.51,14.87l-2.61-1.01c1.54-3.1-.65-3.99-1.27-6.75,2.72-3.11,6.45-10.81,7.44-14.87,8.94-36.88-33.61-62.19-62.36-39.46,1.04-2.33-3.69-3.21-4.94-3.21-.5,0-4.36,1.64-4.76,1.92,0-.43,0-.86,0-1.29,1.42-.66,2.91-2.56,4.52-2.59ZM288.85,163.11c1.42-1.59-7.92-10.99-10.98-5.49.4,2.69,2.31.99,3.59,1.05,2.63.11,4.52,4.18,7.39,4.44Z"/><path class="cls-9" d="M335.38,548c13.54-1.49,30.89-8.15,40.05-18.45,6.67-7.51,15.98-24.92,18.45-34.57.45-1.77.25-3.39.37-5.16h0c-.19-5.7,2.02-11.81,1.87-17.5-.12-4.68-.15-9.16-.73-13.82-3.79-30.37-28.5-62.65-61.31-62.51.71,1.68-.62,4.34-.64,5.18-.87-2.2-1.23-4.98-1.94-7.12,6.68-.56,13.07.55,19.39,2.59,22.37,7.22,42.21,34.17,45.88,56.92,1.51,9.39-1.66,23.52-1.97,33.29-.03,1.09-.35,2.9-.59,3.86-.1.4-3.11-2.18.04-.89-.4,4.17-2.16,5.58-2.23,9.62-.04,2.52-3.29,12-3.32,14.53-.16,11.47-3.33,21.76-6.63,34.36l-6.16,5.49-2.3.65-38.82,1.94"/><path class="cls-20" d="M313.41,439.97c1.27,32.29-.24,64.22-1.29,96.38l-9.05-.65c.17-20.13,2.38-38.57,1.95-59.2-.41-19.42.87-39.33,0-58.54l7.63,8.21c.41,4.06-.1,8.16.1,12.22.04.83.67,1.48.67,1.57Z"/><path class="cls-20" d="M333.44,537l-7.76.64-.64,3.88c-.03-.55-.03-1.12-.65-1.29,1.29-36.5.71-72.78,1.29-109.32.02-1.15-.23-5.36.1-5.73.1-.12,1.76-.42,2.84-1.35,1.5-1.28,2.98-3.28,3.53-5.21l1.28,6.79c0,37.1,1.05,74.4,0,111.58Z"/><path class="cls-5" d="M370.27,378.52c.76,3.85-7.19,2.31-8.91,4.02-.89,4.35-3.83,8.2-3.37,12.8-.4.42-7.12-2.09-7.11,1.29-6.32-2.04-12.7-3.15-19.39-2.59-.71-2.13-1.91-2.71-1.94-6.47,0-.83-.16-1.68.09-2.48,1.27-1.84,35.23-5.45,40.62-6.57Z"/><path class="cls-18" d="M332.79,549.94c.28-4.21.53-8.73.65-12.94,1.05-37.18-.01-74.48,0-111.58l-1.28-6.79c-.55,1.92-2.03,3.93-3.53,5.21-1.09.93-2.74,1.23-2.84,1.35-.33.37-.08,4.58-.1,5.73-.92-1.74-1.05-6.9-.53-8.61.24-.79,4.98-4.21,6.36-6.57,1.43-2.45,1.57-4.33,2.56-6.81,1.97,41.86,2.7,85.42,1.29,127.43-.13,3.86.23,14.7,0,18.54h-3.04l1.1-17.89"/><path class="cls-20" d="M310.82,407.63c-.49-3.66.74-7.01,1.95-10.35,4.08,1.7,6.76,3.48,11.34,1.98,1.65-.54,2.55-1.79,4.16-1.98l2.59,11.64c-.94,3.57-2.25,4.94-5.17,7.12-3.33.33-6.39,1.33-9.64-.37-2.3-1.2-4.88-5.52-5.22-8.04Z"/><path class="cls-7" d="M403.23,364.29c.03.36.14.85-.15,1.13-.45.45-5.05,3.71-5.67,4.04-6.72,3.64-19.57,7.48-27.14,9.06-5.39,1.12-39.35,4.73-40.62,6.57-.25.8-.1,1.66-.09,2.48-1-.62-.87-4.6-.56-5.09.74-1.14,18.45-5.9,21.1-6.37,20.06-3.54,33.52-3.55,53.12-11.83Z"/><path class="cls-9" d="M324.39,540.24c.62.17.61.75.65,1.29.17,3.01-.5,6.14.7,9.01l7.05-.6"/><path class="cls-8" d="M323.75,482.67c-2.35-1.36-4.63,1.33-7.04,1.36.47,1.66-.62,3.55-.72,4.46.31-2.7-1.01-6.16,1.29-8.09-2.73-.8-.73-3.97-.78-5.82-.05-1.93-.5-3.91-.52-6.15l3.24-.32-1.94-1.62,5.81,1.29v-4.84s-7.1,1.61-7.1,1.61c0-.65,0-1.29,0-1.94l3.23-.33c.76-1.14-2.74-1.02-1.29-2.25.83-.7,4.99,2.38,5.17.96v-4.2s-7.11,1.29-7.11,1.29c.12-4.28.13-7.74,0-12.29,3.28-.75,4.56,1.26,7.1,2.59v-5.82h.65c.02,13.36,0,26.75,0,40.11ZM323.09,454.85l-.31-4.52c-1.14,1.11-3.74,1.15-3.56,3.22l3.87,1.3ZM323.1,473.61v-5.17c-2.04,1.1-4.01,2.32-6.46,1.94-.31,1.49.17,1.04.83,1.45.8.51,5.19,2.24,5.63,1.77ZM323.1,480.08v-4.53s-4.49,1.33-4.49,1.33v1.86s4.49,1.34,4.49,1.34Z"/><path class="cls-14" d="M189.34,306.07c1.78-.38,1.21.92,1.6,1.93,3.11,8.14,6.69,12.28,10.68,19.42.79,1.41,1.21,3.68,1.34,3.84.24.29,1.45-.11,1.89.04.17.9-.35,2.26.14,3.09.85,1.42,7.96,6.03,9.28,7.85,1.41,1.94.07,3.86,2.87,3.3-.04.33-.66.59-.66.63-15.14-8.14-24.49-23.37-27.14-40.11Z"/><path class="cls-2" d="M326.98,386.28h-1.29c.62-7.03-9.93-9.31-10.36-.95-.27,5.13,2.23,5.41,6.49,5.47.21,0-.17.3.65,0,.21-.08.53.09.65,0l1.29,1.94c-5.12,3.38-9.48.56-10.82-5.02-1.54-6.4-1.67-14.39,7.12-12.94,6.69,1.11,6.54,5.94,6.29,11.48Z"/><path class="cls-2" d="M312.12,536.36c-.14,4.3.11,15.27,0,19.56h-8.4c-.04-4.32-.68-15.67-.65-20.21l9.05.65Z"/><path class="cls-8" d="M314.7,527.3l1.03,1.99,6.73-1.35c.05.77,0,.91,0,1.29l-3.88,1.62c0,1.3,2.54,3.47,3.88,3.55,0,.43,0,.86,0,1.29l-6.47,1.62c2.07.52,4.2,2.93,6.47,1.62-.06,3.01.1,6.05,0,9.06l-3.23.65,1.93,2.57c-2.36.19-4.47.09-6.46-1.29.11-4.48.07-8.69,0-13.58.73-.78,4.95-.56,4.53-2.26l-4.53-2.27c.01-1.51-.03-3.02,0-4.53ZM321.81,542.18l-4.52,1.61,4.51,2.27v-3.88Z"/><path class="cls-8" d="M314.7,555.11c1.51-.09,1.81-1.65,2.75-2.12,2.04-1.04,4.3-.27,5-3.05"/><path class="cls-9" d="M309.53,408.28c-.63-5.78,1.23-11.41,2.91-16.83,2.54,6.83,12.26,7.09,15.51.66,2.36,5.36,4.42,11.11,2.91,16.82l-2.59-11.64c-1.61.19-2.5,1.43-4.16,1.98-4.58,1.51-7.26-.27-11.34-1.98-1.21,3.34-2.44,6.69-1.95,10.35l-1.29.65Z"/><path class="cls-7" d="M204.84,331.3c2.41.83,6.23,5.08,8.84,7,2.88,2.11,8.24,5.76,11.19,7.24-3.31-.51-1.47,1.43-1.29,3.23-1.42.31-7-1.26-7.11-2.58,0-.05.62-.31.66-.63-2.8.56-1.47-1.35-2.87-3.3-1.32-1.82-8.43-6.43-9.28-7.85-.49-.83.03-2.19-.14-3.09-.44-.15-1.64.25-1.89-.04-.13-.16-.55-2.43-1.34-3.84,1.53,1,2.87,2.01,3.23,3.88Z"/><path class="cls-9" d="M313.41,439.97c0-.09-.63-.73-.67-1.57-.2-4.06.31-8.16-.1-12.22l-7.63-8.21c-.06-1.37-.51-3.93-.65-5.82l1.3-3.88,1.28-.65c.67,6.22,2.49,8.76,6.45,13.28v19.07Z"/><path class="cls-8" d="M323.75,492.37c0,.43,0,.86,0,1.29-3.78,1.11-4.5,2.34-7.1-1.29l-.02,4.81,5.54,1.05,1.58-1.98c0,4.58.55,9.88-.65,14.23-.06-1.29.05-2.6,0-3.88-1.26.1-2.65-.14-3.88,0,0,.39.15.83-.11,1.16l-2.47.78v-1.28c.88-.1,1.71-.55,2.58-.66,0-.38.17-.95-.08-1.19l-3.15-.75c0-.22,0-.43,0-.65,2.71-.57,4.69-1.18,7.1.65l.02-4.16-7.12-1.01c.11-3-.18-6.07,0-9.06,2.66.48,5.04,2.21,7.75,1.94Z"/><path class="cls-9" d="M325.69,416.04c.17-.02,1.78,1.14,2.92-.63-.34,3.07-5.56,4.67-8.31,4.47-6.4-.45-10.1-5.53-10.76-11.6l1.29-.65c.34,2.51,2.92,6.83,5.22,8.04,3.25,1.7,6.32.7,9.64.37Z"/><path class="cls-8" d="M315.35,427.03c.03-1.93-.03-3.89,0-5.82l7.75.64c.51,2.83.12,5.13,0,7.77-1.47.75-2.87,1.15-4.52,1.29l1.29-2.25-4.52-1.63Z"/><path class="cls-8" d="M318.58,430.92c.2,2.71,2.55,2.41,4.52,3.23h.65c.01.43,0,.86,0,1.29h-.65l-7.11.65c-.03.64.03,1.3,0,1.94-1.19-1.71-.63-4.88-.65-7.12,1.07-.06,2.17.09,3.23,0Z"/><path class="cls-21" d="M323.75,482.67c0,1.29,0,2.59,0,3.88l-5.81-1.94.68,2.87-1.34.69,6.47-.32c0,1.51,0,3.02,0,4.53-2.71.26-5.09-1.47-7.75-1.94.04-.64-.07-1.31,0-1.94.1-.91,1.19-2.8.72-4.46,2.41-.02,4.69-2.72,7.04-1.36Z"/><path class="cls-2" d="M307.59,397.28c-.04.86.06,1.73,0,2.59-1.08,1.2-.75,4.1-.65,5.82.04.64-.07,1.31,0,1.94l-1.28.65-1.3,3.88c-.36-4.98-1.23-9.88-1.29-14.88h4.52Z"/><path class="cls-8" d="M323.1,516.95c0,3.07.55,7.04-.65,9.7-.1-.84.08-1.74,0-2.59l-3.23.65.34,1.92-4.85-.63c0-.35.63-1.2.65-1.94l7.12-1.66-.02-3.51-7.1.64c.03-1.08-.03-2.16,0-3.23,2.38,1.2,5.04-.88,7.75.65Z"/><path class="cls-21" d="M315.35,511.13c2.01-.76,2.39,1.82,3.04,1.98,1.37.34,3.26-.72,4.72-.68.03,1.51,0,3.02,0,4.53-2.71-1.53-5.37.55-7.75-.65.05-1.72-.06-3.46,0-5.17Z"/><path class="cls-21" d="M317.29,442.56c1.6.34,4.06-.24,5.82,0v5.82c-2.55-1.33-3.83-3.34-7.11-2.59-.04-1.5-.02-3.03,0-4.53.35.3.95,1.22,1.29,1.29Z"/><path class="cls-21" d="M315.99,464.55l7.11-1.61v4.84s-5.82-1.29-5.82-1.29l1.94,1.62-3.24.32c0-1.29-.01-2.59,0-3.88Z"/><path class="cls-21" d="M315.99,499.48l7.12,1.01-.02,4.16c-2.41-1.82-4.39-1.22-7.1-.65.05-1.5-.05-3.02,0-4.53Z"/><path class="cls-21" d="M323.1,435.44l-.05,5.15c-.59.21-1.41-.11-1.89.03-1.2-1.65-3.57-1.65-5.17-.65.02-.65-.02-1.3,0-1.94.02-.65-.03-1.3,0-1.94l7.11-.65Z"/><path class="cls-21" d="M315.99,458.08l7.11-1.29v4.2c-.17,1.42-4.34-1.67-5.16-.96-1.45,1.23,2.05,1.11,1.29,2.25l-3.23.33c.02-1.51-.04-3.02,0-4.53Z"/><path class="cls-21" d="M315.99,504.66l3.15.75c.25.24.07.82.08,1.19-.88.1-1.7.56-2.58.66v1.28s2.48-.78,2.48-.78c.26-.33.11-.77.11-1.16,1.23-.15,2.62.1,3.88,0,.04,1.29-.06,2.6,0,3.88.01.22,0,.43,0,.65-2.24-1.19-4.58-1.5-7.11-1.29.07-1.72-.06-3.46,0-5.17Z"/><path class="cls-21" d="M315.35,519.54l7.1-.64.02,3.51-7.12,1.66c.04-1.51-.04-3.02,0-4.53Z"/><path class="cls-21" d="M323.75,493.66c0,.86,0,1.72,0,2.59l-1.58,1.98-5.54-1.05.02-4.81c2.61,3.64,3.32,2.4,7.1,1.29Z"/><path class="cls-21" d="M322.45,526.65c.05.42-.03.87,0,1.29l-6.73,1.35-1.03-1.99c0-.43-.01-.86,0-1.29l4.85.63-.34-1.92,3.23-.65c.08.85-.1,1.75,0,2.59Z"/><path class="cls-21" d="M322.45,548c-.02.65.03,5.51,0,6.16-.7,2.78-1.94.31-4.52.31-1.05,0-1.73.55-3.24.65.08-1.71-.04-3.46,0-5.17,1.99,1.38,4.1,1.48,6.46,1.29l-1.93-2.57,3.23-.65Z"/><path class="cls-8" d="M323.1,511.13c.01.43,0,.86,0,1.29-1.46-.04-3.35,1.02-4.72.68-.64-.16-1.03-2.74-3.04-1.98.02-.59.64-1.17.65-1.29,2.53-.21,4.87.1,7.11,1.29Z"/><path class="cls-27" d="M247.49,206.45l-12.92,6.47c2.1-1.6,2.65-3.1,2.59-5.82,1.8-.59,3.5,1.25,4.84,1.25.62,0,4.28-1.51,5.5-1.9Z"/><path class="cls-8" d="M323.75,486.55c0,.43,0,.86,0,1.29l-6.47.32,1.34-.69-.68-2.87,5.81,1.94Z"/><path class="cls-21" d="M322.45,535.71c0,1.08.02,2.16,0,3.23-2.27,1.31-4.4-1.1-6.47-1.62l6.47-1.62Z"/><path class="cls-2" d="M326.98,386.28c-.16,3.52.74,4.27-2.58,6.47l-1.29-1.94c1.02-.85,2.46-3.16,2.58-4.53h1.29Z"/><path class="cls-21" d="M315.35,427.03l4.52,1.63-1.29,2.25c-1.06.09-2.16-.06-3.23,0,0-1.29-.02-2.59,0-3.88Z"/><path class="cls-21" d="M323.1,430.92c-.04,1.07.03,2.16,0,3.23-1.97-.83-4.32-.53-4.52-3.23,1.66-.14,3.05-.54,4.52-1.29-.02.43.02.86,0,1.29Z"/><path class="cls-14" d="M323.75,442.56h-.65c-1.75-.24-4.22.34-5.82,0v-1.29c1.63.45,2.62-.3,3.88-.65.48-.13,1.31.19,1.89-.03l.05-5.15h.65c.02,2.37,0,4.75,0,7.12Z"/><path class="cls-21" d="M322.45,530.53v1.94c0,.65,0,1.29,0,1.94-1.34-.08-3.88-2.25-3.88-3.55l3.88-1.62c.01.43,0,.86,0,1.29Z"/><path class="cls-21" d="M314.7,531.83l4.53,2.27c.42,1.69-3.8,1.48-4.53,2.26-.02-1.51-.01-3.02,0-4.53Z"/><path class="cls-8" d="M321.16,440.62c-1.26.35-2.24,1.09-3.88.65v1.29c-.34-.07-.93-.99-1.29-1.29,0-.43-.02-.86,0-1.29,1.6-1,3.97-1.01,5.17.65Z"/><path d="M403.88,361.05h1.93s0,1.28,0,1.28l-3.23.65v-1.29c.42-.19.86-.44,1.29-.65Z"/><path class="cls-9" d="M306.95,405.69c-.11-1.72-.43-4.62.65-5.82-.12,1.86.61,4.51-.65,5.82Z"/><path class="cls-14" d="M323.75,434.15h-.65c.03-1.08-.04-2.16,0-3.23,1.04.54.62,2.2.65,3.23Z"/><path class="cls-27" d="M250.73,205.16l-2.58,1.29c.15-.05.94-.78,2.58-1.29Z"/><path class="cls-8" d="M322.45,532.47v-1.94c0,.11.6.45.61.97s-.61.87-.61.97Z"/><path class="cls-27" d="M233.92,212.92l-1.29.65,1.29-.65Z"/><path class="cls-12" d="M353.8,355.88c.42.22.42.43,0,.65v-.65Z"/><path class="cls-20" d="M301.78,397.28l1.32,20.35c-.48,17.1-.35,34.1,0,51.1.47,23.16-1.99,43.22-2.61,65.68-17.74-4.25-33.29-12.73-46.18-25.69-2.61-2.62-.77-14.11-4.17-15.71-.4-.92.11-14.87-.23-15.67-4.17-9.68,2.3-6.16-1.02-16.12-.36-1.08.62-3.92.62-3.92,5.55-34.83,16.94-59.9,52.28-60.03Z"/><path class="cls-2" d="M300.48,534.41c-.13,4.78.55,9.45.65,14.23-20.88-3.39-31.24-15.23-43.09-32.34-4.36-6.29-2.97-12.52-5.94-19.38,3.41,1.6,1.82,3.8,4.43,6.43,12.89,12.96,26.21,26.82,43.95,31.06Z"/><path class="cls-4" d="M449.11,277.61c.4,2.11.15,13.27-.65,15.04-.45.98-1.72.86-2.58,1.14.27-1.69.22-3.71.67-5.47l-.03-18.46c.58,1.86,2.35,6.53,2.58,7.76Z"/><path d="M405.17,353.29c.21,1.49.02,1.66-1.06,2.49-.93.71-8.1,5.06-8.63,4.62-.69-.58.35-1.71,1.28-1.6l8.4-5.51Z"/><path class="cls-7" d="M410.34,403.1c.06.07.87-.19,1.12.14.11.14.82,3.24.82,3.42v11c0,3.57-5.08,12.1-5.11,14.22-.02,1.66,1.93,6.93,2.33,9.26,2.09,12.11,3.22,21.81.89,34.02l8.35-2.19v.65c-.08.06-.06,1.15-.64,1.6-1.93,1.46-5.12,1.48-6.18,4.84-.51,1.61-1.16,5.91,1.65,5.86l-18.98,7.63c-.76-3.05.22-4.87.72-7.43l.62-2.51c.17-.87.66-2.89.81-3.76l.43-3.68c.2-1.75.13-3.84.68-1.93l-.06.38c.04-.42,1.26-.87,1.31-1.29,1.32-10.55,5.17-21.1,4.8-31.76-.12-3.35-1.76-10.89-1.34-13.52.27-1.7,4.78-5.99,5.94-8.98s.72-4.19,1.18-6.9c.52-3.07,2.19-5.42.65-9.06Z"/><path class="cls-5" d="M433.6,471.67c.06.41-.06.87,0,1.29,3.09.36.39-1.47,2.59.65,1.9,1.84-1.97,10.76-1.3,13.58-9.7-1.94-8.55-4.07-21.31-1.29-2.81.05-2.16-4.25-1.65-5.86,1.05-3.35,4.25-3.37,6.18-4.84.58-.44.56-1.53.64-1.6.16-.12.9.08,1.29,0,.52-.11,1.11.03,1.29-.65.67-.26,1.27-.42,1.94-.65.98,1.09,2.02.43,3.12.24,2.7-.46,4.42-.75,7.22-.89Z"/><path class="cls-11" d="M435.54,416.04l.65.65c-1.4.64-.16,2,.09,2.81.85,2.77,1.1,5.98,3.14,8.18.05.2-.05.44,0,.65.64,2.59,1.5,5.13,1.95,7.76l.64-.65c3.28,10.6.73,24.19,2.74,35.12l-6.96.7c.06.41-.02.87,0,1.29-1.24-.03-2.19-.93-3.23-1.29-.71-.25-3.53-1.24-3.88-1.29,2.08-9.83,11.03-22.72,8.1-31.94-2.54-7.97-4.45-13.87-8.4-21.35l5.17-.65Z"/><path d="M398.68,472.92l-.65-1.41h-.61c1.41-10.78,4.28-19.95,3.87-30.88-.06-1.71.12-3.47,0-5.17l-.65-.65c-.34-4.07-.39-7.52-1.29-11.64.39.08,1.01-.12,1.29,0,.4.17.91,1.13,1.61,1.19,1.96-.21,6.44-10.09,6.79-12.19h1.34c-.46,2.71-.67,3.79-1.88,6.9s-5.67,7.28-5.94,8.98c-.43,2.63,1.22,10.17,1.34,13.52.37,10.65-1.32,24.61-5.23,31.36Z"/><path class="cls-6" d="M418.39,469.76c1.69-.03,3.5-.11,5.17,0,.64.04,1.31-.07,1.94,0,2.53.27,17.91-1.51,19.24.8.95,1.64-2.05,11.18-1.41,13.36.26.91-2.01,5.43-2.33,5.84-2.18-.96-5.32-1.96-7.52-2.87-.66-2.83-3.14-11.46-5.03-13.29-2.2-2.12-9.55-2.19-12.64-2.56-.06-.42.06-.88,0-1.29.86-.04,1.73.02,2.58,0Z"/><path class="cls-7" d="M397.42,475.55c-.05.39,1.72,1.5,1.57,2.52-.43,2.96-.49,6.35-1.57,9.12.31-9.78-2.97-19.82-.65-33.64.87.32,3.53-3.56,3.6-3.81.81-3.03-.56-6.38.93-9.13.4,10.93-2.46,24.15-3.87,34.93Z"/><path class="cls-6" d="M439.42,427.68c-2.04-2.2-2.28-5.42-3.14-8.18-.25-.81-1.5-2.18-.09-2.81,1.72,3.48,2.3,7.34,3.23,11Z"/><path class="cls-6" d="M442,435.44l-.64.65c-.44-2.63-1.31-5.18-1.95-7.76,1.56,1.75,1.86,4.79,2.58,7.12Z"/><path class="cls-23" d="M401.29,482.02s-.05-.21,0-.65v.65Z"/><path class="cls-23" d="M400.65,485.25s-.11-.06,0-.65v.65Z"/><path class="cls-14" d="M451.05,468.43l-.65-.65s.58.18.65.65Z"/><path class="cls-26" d="M185.46,129.47c.4-.28,4.25-1.92,4.76-1.92,1.24,0,5.98.88,4.94,3.21-6.72,5.31-13.6,16.05-14.86,24.58l-3.18-.03c-.57-.4-.59-4.38-2.64-3.85,1.11-5.4,6.61-18.95,10.99-21.99Z"/><path class="cls-25" d="M184.17,210.33c.84.74,1.77,1.78,2.58,2.59l-.51.53-2.08-3.12Z"/><path class="cls-19" d="M386.43,174.76c16.08-3.77,21.77-25.92,11.64-38.17.18,2.34-.46,5.91-1.94,7.76-6.36,7.96-19.18-3.65-14.22-12.29l6.46-3.87c-8.26-4.22-18.11-3.21-25.15,2.95-2.51,2.2-3.73,5.44-6.51,7.39-4.87.22-2.76-8.57-7.11-9.7,21.82-31.16,66.13-2.78,57.84,33.64-1.15,5.06-6.85,16.72-12,18.46-1.47.5-7.78-4.53-9.01-6.17ZM397.74,135.3v.65c.42-.22.42-.43,0-.65Z"/><path d="M381.91,132.06c-4.96,8.64,7.86,20.25,14.22,12.29,3.87,7.24,1.22,17.43-5.35,22.14l-10.81,5.03c-.86-.27-3.91-.25-4.52-.65-.06-.04.14-1-.44-1.31-3.38-1.8-6.81-2.37-8.6-5.81-8.26-15.86-5.08-32.6,15.51-31.7Z"/><path class="cls-26" d="M379.97,110.07c.6.17,3.38,1.49,4.52,1.94l-.14,1.81-1.8.78c-23.98-6.72-44.1,13.92-42.01,37.52-.31.35-3.12-1.01-3.87-1.29-.05-2.13-2.12-2.2-3.09-3.69-5.05-7.76-2.53-16.35,1.69-23.91,2.49-4.45,4.91-6.57,8.51-9.92.23,1.07,1.96-.13,2.54-.36,10.51-4.19,22.47-5.97,33.64-2.87Z"/><path class="cls-15" d="M356.7,138.53c2.78-1.96,4-5.2,6.51-7.39,7.04-6.16,16.89-7.17,25.15-2.95l-6.46,3.87c-20.59-.91-23.77,15.83-15.51,31.7-3.21-2-6.95-3.01-10.34-4.53.43-4.07-.97-7.65-.67-11.99.15-2.26,1.05-4.08,1.31-6.12.03-.21,0-.43,0-.65l.48-.51-.48-.79v-.65Z"/><path class="cls-17" d="M349.6,128.83c4.35,1.13,2.23,9.93,7.11,9.7v.65c0,.43.01.86,0,1.29,0,.21.03.44,0,.65-1.67-.47-1.76,2.03-1.86,2.98-.28,2.77.51,8.24-.04,10.21-.12.42-2.95.9-3.27,2.34-2-.91-7.99-2.03-8.41-4.2-1.5-7.72,2.17-17.48,6.47-23.62Z"/><path class="cls-15" d="M386.43,174.76c-2.33-1.05-3.95-2.44-6.46-3.23l10.81-5.03c6.56-4.71,9.21-14.9,5.35-22.14,1.48-1.85,2.12-5.42,1.94-7.76,10.14,12.25,4.45,34.39-11.64,38.17Z"/><path class="cls-26" d="M404.52,188.99c-.81-.32-1.57-.73-2.25-1.29l-4.85-4.84c13.43-11.26,16.66-28.83,10.33-44.98,1.86-1.58,2.86,2.59,3.19,3.6,3.68,11.29,3.26,28.07-1.78,38.9-.85,1.82-2.79,3.35-3.51,4.89-.58,1.24-.12,2.82-1.14,3.72Z"/><path class="cls-6" d="M411.63,179.28c-.42,1.63-5.08,10.02-6.25,10.3-.56.19-.73-.55-.86-.6,1.01-.89.56-2.48,1.14-3.72.72-1.54,2.66-3.07,3.51-4.89,5.03-10.82,5.45-27.61,1.78-38.9-.33-1.01-1.33-5.17-3.19-3.6-1.75-4.45-5.6-10.92-9.05-14.23l2.58.64v-2.59c7.03,8.16,10.75,14.75,12.75,25.73,2.07,11.33.22,21.49-2.41,31.85Z"/><path class="cls-11" d="M399.35,120.42c.1.11.99.2,1.94,1.29v2.59s-2.58-.64-2.58-.64c-3.6-3.45-11.33-7.7-16.16-9.06l1.8-.78.14-1.81c1.93.77,7.39,3.26,8.99,4.26,1.96,1.23,3.08,4.06,5.87,4.15Z"/><path class="cls-19" d="M356.7,141.12c-.26,2.04-1.16,3.86-1.31,6.12-.3,4.34,1.1,7.92.67,11.99-1.37-.61-3.01-1.89-4.52-2.59.32-1.44,3.16-1.92,3.27-2.34.55-1.97-.24-7.43.04-10.21.1-.95.18-3.45,1.86-2.98Z"/><path class="cls-27" d="M397.42,369.46c0,1.39.77,1.77,1.72,2.48,10.61,7.9,24.75,32.44,31.24,44.74,3.95,7.48,5.86,13.37,8.4,21.35l-2.37-1.99-3.78,1.36-1.3-.65c-.51-1.25-.15-2.66-.61-3.92-3.51-9.7-7.22-17.43-12.61-26.02-1.96-3.14-1.59-2.69-3.09-6.13-.54-1.25-5.12-6.33-6.44-6.53-1.87-.29-5.08,2.6-5.91,4.18-1.98,3.78.82,4.72.59,7.01-.13,1.29-3.53,4.6-3.88,7.84-.15,1.38.13.7.88.99,2.41.94,4.29.04,6.74-.18l2.05-5.07c-.13,1.02.16,2.26,0,3.23-.35,2.1-4.83,11.98-6.79,12.19-.7-.06-1.21-1.03-1.61-1.19l-.4-4.38c-1.01-4-2.75-7.71-3.48-11.79-.4-2.24-.11-.43-2.47-1.4-.43-5.24-1.84-10.44-3.68-15.4-.83-2.23-4.09-10.05-5.22-11.6-1.11-1.52-2.24-2.1-3.46-.34l15.48,38.44v.65l.65,2.59c.59.88,1.07,2.21,1.29,3.23.9,4.12.95,7.57,1.29,11.64.04.48.64.6.65.65.12,1.71-.06,3.46,0,5.17-1.48,2.74-.12,6.1-.93,9.13-.07.25-2.73,4.13-3.6,3.81-3.67-22.76-23.51-49.7-45.88-56.92-.01-3.38,6.7-.87,7.11-1.29-.46-4.6,2.48-8.45,3.37-12.8,1.72-1.72,9.67-.17,8.91-4.02,7.57-1.58,20.42-5.42,27.14-9.06Z"/><path d="M267.53,145.65c.04.25.9,1.04,1.02,1.86.42,2.8.88,5.67.91,8.48-.55.22-1.24-1.1-1.29-1.29-.65-2.82-.8-5.42-1.94-8.41l1.29-.65Z"/><path class="cls-11" d="M347.01,110.07c2.05-2.19,10.52-4.34,13.86-4.56,4.93-.32,13.62.12,18.21,1.87,1.61.62.76,1.37.88,2.69-11.17-3.1-23.13-1.32-33.64,2.87-.58.23-2.31,1.43-2.54.36,1.45-1.35,2.16-2.09,3.23-3.23Z"/><path class="cls-7" d="M183.52,214.86c-.3-.05-.57-.34-.65-.65.28.06.55.36.65.65Z"/><path class="cls-6" d="M281.74,140.47v1.29c-.67.26-1.21-.64-1.29-.64l1.29-.65Z"/><path d="M250.08,185.11c-.54.62-1.91,1.31-2.58,1.94-21.95,20.54-57.32,12.41-65.91-16.82-1.25-4.26-1.94-10.49-1.29-14.88,1.26-8.53,8.14-19.27,14.86-24.58,28.75-22.72,71.31,2.58,62.36,39.46-.98,4.06-4.71,11.77-7.44,14.87ZM195.15,135.3c-.17.16-1.26.21-1.95.93-23.31,24.02-2.95,62.91,30.39,59.23.62-.07,1.34.1,1.94,0,1.07-.18,1.22-.63,1.29-.65,9.53-2.05,16.75-5.8,22.6-13.92,24.74-34.3-21.78-75.74-54.27-45.59Z"/><path class="cls-4" d="M253.96,192.87c27.36-13.04,48.09-16.6,78.51-14.87,12.87.73,27.51,1.89,39.89,5.35,1.17.33,4.84.73,4.38,2.4-30.6-5.99-64.83-7.32-95.13.83-9.68,2.61-19.12,6.19-28.29,10.17-2.06.9-5.32,1.75-7.11,2.59h-1.29s0-1.29,0-1.29c2.88-1.53,6.15-3.8,9.05-5.17Z"/><path class="cls-7" d="M247.49,187.05c-.53,3.91-4.74,6.77-7.81,8.68-12.31,7.66-30.88,8.3-43.24.38-5.8-3.72-15.73-15.56-16.76-22.36-.6-3.93,1.88-.74,1.9-3.51,8.59,29.23,43.96,37.36,65.91,16.82Z"/><path class="cls-7" d="M244.91,198.04v1.29s1.29,0,1.29,0c-4.8,2.26-10.49,5.61-15.3,8.3-4.4,2.46-8.4,6.05-13.13,7.87-.23-1.46,1.98-2.34,3.02-3.11,7.59-5.62,15.86-9.95,24.11-14.35Z"/><polygon class="cls-7" points="210.66 220.04 210.66 221.33 208.72 221.32 209.7 220.04 210.66 220.04"/><rect class="cls-7" x="213.25" y="217.45" width="1.29" height="1.29"/><polygon class="cls-7" points="217.12 215.51 217.12 216.8 215.5 217.44 215.83 215.51 217.12 215.51"/><rect class="cls-7" x="211.31" y="218.75" width="1.29" height="1.29"/><path class="cls-2" d="M396.12,472.32c.15,5.69-1.5,10.41-1.31,16.11l-.56,1.4c-.13,1.77.08,3.39-.37,5.16-2.47,9.65-11.78,27.06-18.45,34.57-9.16,10.31-26.51,16.96-40.05,18.45.23-3.84-.13-7.79,0-11.64,24.39-3.3,41.57-17.05,51.61-39.23,3.61-7.97,5.11-14.78,7.4-23.02.3-1.09.16-2.1,1.74-1.79Z"/><path d="M288.85,163.11c-2.87-.26-4.77-4.33-7.39-4.44-1.28-.05-3.19,1.64-3.59-1.05,3.06-5.5,12.4,3.9,10.98,5.49Z"/><path class="cls-2" d="M333.44,537c-.12,4.21-.37,14.43-.65,18.64h-8.4c0-3.11.21-13.6.04-16.6l1.25-1.39,7.76-.64Z"/><path class="cls-4" d="M275.28,203.22l.65-.65c-.16.01-.47.64-.65.65Z"/><path class="cls-21" d="M323.1,473.61c-.44.46-4.83-1.27-5.63-1.77-.66-.42-1.13.04-.83-1.45,2.45.38,4.42-.84,6.46-1.94v5.17Z"/><polygon class="cls-21" points="323.1 480.08 318.62 478.74 318.6 476.88 323.09 475.55 323.1 480.08"/><path class="cls-21" d="M323.09,454.85l-3.87-1.3c-.18-2.08,2.42-2.12,3.56-3.22l.31,4.52Z"/><path d="M325.69,386.28c-.12,1.36-1.56,3.67-2.58,4.53-.11.09-.44-.08-.65,0h-.65c-4.26-.06-6.76-.35-6.49-5.47.44-8.36,10.99-6.08,10.36.95ZM318.09,383.21c-1.85,1.86-1.08,6.77,2.61,6.2,6.44-.98,1.34-10.17-2.61-6.2Z"/><path class="cls-21" d="M321.81,390.81h.65c-.82.3-.43,0-.65,0Z"/><polygon class="cls-21" points="321.81 542.18 321.8 546.06 317.29 543.79 321.81 542.18"/><path class="cls-5" d="M409.05,408.92l-2.05,5.07c-2.45.21-4.33,1.12-6.74.18-.75-.29-1.03.38-.88-.99.35-3.23,3.75-6.55,3.88-7.84.23-2.29-2.56-3.22-.59-7.01.82-1.58,4.04-4.47,5.91-4.18,1.32.2,5.9,5.29,6.44,6.53,1.5,3.44,1.13,3,3.09,6.13,5.38,8.59,9.1,16.32,12.61,26.02.46,1.26.09,2.67.61,3.92l1.3.65,3.78-1.36,2.37,1.99c2.93,9.22,8.4,25.05,6.31,34.89-1.77-.25-12.17-1.41-14.08-1.35-6.88.21-6.58-2.65-12.27,1.4l-8.35,1.64c2.33-12.21,1.21-21.37-.89-33.48-.4-2.33-2.35-7.6-2.33-9.26.03-2.12,5.11-10.65,5.11-14.22v-11c0-.18-.71-3.28-.82-3.42-.26-.33-1.07-.07-1.12-.14-.12-.15.09-.91,0-1.29h-.63c-.05,2.36-.34,4.78-.65,7.11Z"/><path d="M410.34,403.1c1.54,3.64.57,5.98.05,9.06h-1.34c.16-.98-.13-2.22,0-3.23.31-2.33.6-4.75.65-7.11h.63c.1.38-.12,1.14,0,1.29Z"/><path class="cls-7" d="M409.69,474.92c3.36-1.12,6.72-2.29,10.34-1.94.06.42-.06.88,0,1.29-2.8.14-4.52.43-7.22.89-1.1.19-2.14.84-3.12-.24Z"/><path class="cls-7" d="M421.33,472.96c-.18.67-.77.54-1.29.65.28-.59.86-.48,1.29-.65Z"/><path class="cls-28" d="M430.36,469.74c.35.05,3.17,1.04,3.88,1.29-1.75.9-5.47.26-7.44,0-1.15-.15-2.23-.16-2.9-1.3,1.91-.06,4.69-.25,6.46,0Z"/><path d="M396.77,406.98c.73,4.08,2.48,7.79,3.48,11.79l.4,4.38c-.28-.12-.9.08-1.29,0-.22-1.02-.7-2.35-1.29-3.23l-.65-2.59v-.65c.62-3.18-3.38-7.28-.65-9.7Z"/><path class="cls-7" d="M401.29,435.44s-.61-.17-.65-.65l.65.65Z"/><path class="cls-15" d="M397.74,135.3c.42.22.42.43,0,.65v-.65Z"/><path class="cls-19" d="M356.7,140.47c.01-.43,0-.86,0-1.29l.48.79-.48.51Z"/><path class="cls-11" d="M397.42,416.68l-15.48-38.44c1.22-1.76,2.35-1.18,3.46.34,1.13,1.54,4.39,9.36,5.22,11.6,1.84,4.96,3.25,10.16,3.68,15.4,2.36.97,2.08-.83,2.47,1.4-2.74,2.43,1.27,6.52.65,9.7Z"/><path class="cls-11" d="M398.06,419.92l-.65-2.59.65,2.59Z"/><path class="cls-19" d="M226.82,194.81l-1.29.65c-.6.1-1.32-.07-1.94,0,.4-3.51,4.45-3.22,1.84-7.67-2.19-.24-4.4.01-6.61-.17-.82-.07-4.86-.15-4.28-1.86,19.24,4.56,36.28-8.45,34.24-28.78-.39-3.87-3.28-13.05-7.75-13.26.93,2.29.63,6.35-.65,8.4-1.93,3.09-7.18,3.7-10.51,3.08-6.05-1.12-9.62-8.66-6.93-14.08.26-.52,1.46-1.85,1.96-2.23l5.79-2.93c-13.37-4.59-28.87,1.9-33.6,15.52.23-2.73,1.95-5.96,1.93-6.81-.03-1.25-1.85-2.14-2.29-3.5s-.17-2.4-.3-3.61c-.13-1.22.77-2.61-1.28-2.25,32.49-30.15,79.01,11.29,54.27,45.59-5.86,8.12-13.07,11.87-22.6,13.92Z"/><path class="cls-17" d="M195.15,135.3c2.05-.36,1.14,1.03,1.28,2.25.13,1.21-.12,2.29.3,3.61s2.25,2.25,2.29,3.5c.02.86-1.7,4.08-1.93,6.81-.02.21.04.45,0,.65-.3.09-.58.34-.65.65-.08.4.09.92,0,1.29l-.65,1.29c-.02.21.02.43,0,.65-1.08,1.73-1.1,5.91,0,7.76,0,.22,0,.43,0,.65.07,1.62-.59,3.87,1.29,4.53.06.2-.06.46,0,.65l.65.65c.07.19-.07.46,0,.65.02.95.35,1.66,1.29,1.94.08.18-.09.48,0,.65l.65.65c.09.16-.1.49,0,.65l.65.65c.33.5.52,1.12.65,1.29,1.43,1.91,2.68,3.06,4.52,4.53.34.27.93.38,1.29.65l1.29,1.29c.15.1.49-.1.65,0l.65.65c.17.09.48-.09.65,0l.65.65c.18.08.46-.08.65,0l.65.65c.3.12.9-.09,1.29,0,.12.27.36.57.65.65.2.05.44-.05.65,0-.57,1.7,3.46,1.79,4.28,1.86,2.21.19,4.41-.06,6.61.17,2.61,4.45-1.44,4.16-1.84,7.67-33.34,3.68-53.69-35.21-30.39-59.23.7-.72,1.78-.77,1.95-.93Z"/><path class="cls-17" d="M226.82,194.81c-.07.02-.22.47-1.29.65l1.29-.65Z"/><path class="cls-23" d="M417.45,263.38c.18-.26.55-.46.65-.65l-.65.65Z"/><path class="cls-2" d="M318.09,383.21c3.95-3.97,9.04,5.22,2.61,6.2-3.68.56-4.46-4.34-2.61-6.2Z"/><path d="M222.94,141.12c-2.69,5.42.88,12.96,6.93,14.08,3.33.62,8.59.01,10.51-3.08,4.41,4.32,2.86,13.18.35,18.14-6.06,11.96-23.6,14.04-32.64,4.16-12.24-13.38-3.58-34.63,14.84-33.3Z"/><path class="cls-15" d="M197.09,151.47c4.72-13.61,20.23-20.1,33.6-15.52l-5.79,2.93c-.5.39-1.71,1.72-1.96,2.23-18.42-1.34-27.08,19.92-14.84,33.3,9.04,9.88,26.58,7.8,32.64-4.16,2.51-4.96,4.06-13.82-.35-18.14,1.28-2.05,1.58-6.12.65-8.4,4.47.21,7.36,9.39,7.75,13.26,2.03,20.33-15.01,33.34-34.24,28.78-.2-.05-.45.05-.65,0-.09-.3-.34-.58-.65-.65-.39-.09-.99.12-1.29,0-.08-.03-.28-.49-.65-.65-.18-.08-.47.08-.65,0-.09-.04-.29-.46-.65-.65-.17-.09-.48.09-.65,0-.11-.06-.3-.44-.65-.65-.16-.1-.49.1-.65,0-.1-.06-.67-.84-1.29-1.29-.37-.27-.96-.38-1.29-.65l-4.52-4.53c-.13-.17-.32-.8-.65-1.29-.18-.27-.52-.45-.65-.65-.1-.15.09-.49,0-.65-.2-.34-.59-.54-.65-.65-.09-.17.08-.47,0-.65-.37-.78-1.2-1.69-1.29-1.94-.07-.19.07-.46,0-.65-.17-.46-.63-.6-.65-.65-.06-.19.06-.44,0-.65-.44-1.5-.32-3.35-1.29-4.53,0-.22,0-.43,0-.65-.07-2.45-.18-5.36,0-7.76.02-.21-.02-.43,0-.65,0-.07.41-.34.65-1.29.09-.37-.08-.9,0-1.29.3-.09.58-.34.65-.65.04-.2-.02-.43,0-.65Z"/><path class="cls-15" d="M195.8,163.76c-1.1-1.86-1.08-6.04,0-7.76-.18,2.41-.07,5.31,0,7.76Z"/><path class="cls-19" d="M197.09,168.93c-1.88-.66-1.23-2.9-1.29-4.53.97,1.18.85,3.03,1.29,4.53Z"/><path class="cls-19" d="M195.8,155.35l.65-1.29c-.24.96-.64,1.22-.65,1.29Z"/><path class="cls-15" d="M199.03,172.81c-.94-.28-1.27-.99-1.29-1.94.1.25.92,1.16,1.29,1.94Z"/><path class="cls-19" d="M197.74,170.23l-.65-.65s.48.19.65.65Z"/><path class="cls-19" d="M199.67,174.11l-.65-.65c.05.1.44.3.65.65Z"/><path class="cls-19" d="M200.32,175.4l-.65-.65c.13.2.47.38.65.65Z"/><path class="cls-19" d="M205.49,181.22c-1.84-1.47-3.1-2.62-4.52-4.53l4.52,4.53Z"/><path class="cls-19" d="M196.44,152.76c.06-.3.34-.56.65-.65-.06.31-.35.55-.65.65Z"/><path class="cls-19" d="M208.08,183.16l-1.29-1.29c.62.45,1.19,1.23,1.29,1.29Z"/><path class="cls-19" d="M209.37,183.81l-.65-.65c.34.21.54.59.65.65Z"/><path class="cls-19" d="M210.66,184.46l-.65-.65c.35.19.55.6.65.65Z"/><path class="cls-19" d="M211.95,185.11l-.65-.65c.36.16.56.61.65.65Z"/><path class="cls-19" d="M213.89,185.75c-.29-.08-.52-.37-.65-.65.3.07.55.35.65.65Z"/><path class="cls-14" d="M423.9,469.74c.67,1.14,1.76,1.15,2.9,1.3,1.96.26,5.69.89,7.44,0,1.04.37,9.61,1.85,10.84,1.88.04.86-.02,1.73,0,2.59-1.71-.94-11.24-2.22-13.19-2.45-1.24-.15-2.52-.69-2.17,1.22-.63-.07-1.3.04-1.94,0-.99-1.08-4.15-1.09-5.17,0-.86.02-1.73-.04-2.58,0-.06-.41.06-.87,0-1.29-3.62-.35-6.98.81-10.34,1.94-.67.22-1.27.39-1.94.65-.44.17-8.99,2.3-9.28,2.89-.39.08-1.14-.12-1.29,0v-.65c5.69-4.05,19.84-7.86,26.73-8.06Z"/><path d="M248.95,489.78c-.65-3.18-1.7-15.3-2.34-18.74-2.53-13.67-1.73-28.29-3.61-42.31-1.25-9.32-3.56-18.31-6.38-27.25.83-.68,1.63,1.53,1.86,2.02,3.05,6.54,4.84,15.11,5.91,22.23,3.58-4.29,4.79-10.71,5.81-16.17,1.79,9.47-1.21,10.02-4.2,17.47-2.05,5.1.58,14.62.96,20.38.85,12.73,3.7,29.42,4.43,44.95l-2.43-2.59Z"/><path d="M182.15,472.56s-9.1-39.23-5.06-52.65c.91-5.17,3.04-8.3,2.55-9.72s.78,4.9,0,9.71-.77,23.34.65,30.44,6.16,24.58,6.16,24.58l-4.29-2.35Z"/><path d="M263.52,551.13s62.11,9.04,117.77.61c-6.56,9.79-88.03,9.44-116.72,1.72-2.27-.61.54-1.62-1.04-2.33Z"/><path class="cls-24" d="M432.99,253.77s.45,9.5-2.81,17.38-6.5,15.03-7.63,15.68c1.83.8,16.17,5.54,8.24,21.61,3.51-5.28,15.09-15.55,2.19-54.67Z"/><path d="M398.68,469.13s-2.44,2.65-2.56,3.79l1.15.52,1.41-.52.36-3.02-.36-.77Z"/><path d="M396.12,472.32s-6.14,18.14-4.43,22.77c.99.91,2.09,2.81,4.43,1.16-.05-1.05-3.4-3.36-.46-10.3-.53-5.65,4.05-15.65,4.05-15.65l-3.6,2.02Z"/><path d="M381.29,551.74s3.4-.49,5.44-10.8,4.67-29.42,4.67-29.42c0,0,.84-7.15,1.84-9.72s.65-6.82.65-6.82l-1.86,4.46s-7.87,40.04-9.3,44.81c-2.35,4.47-7.09,7.49-7.09,7.49l.27,2.08,5.38-2.08Z"/><path d="M250.19,488.21s2.18,5.67,3.07,9.43,2.57,17.9,2.57,17.9l3.56,18.56,2.92,8.96,3.14,8.69s-1.7,2.15-2.43.65c-1.7-3.49-7.49-21.35-7.68-24.02s-2.08-13.25-2.08-13.25l-2.17-9.59-.24-9.09s-3.91-9.63-.65-8.24Z"/><rect class="cls-1" width="617.49" height="644.18"/></g></svg>